<?xml version="1.0" encoding="utf-8"?>
<!-- Svg Vector Icons : http://www.onlinewebfonts.com/icon -->
<!DOCTYPE svg PUBLIC "-//W3C//DTD SVG 1.1//EN" "http://www.w3.org/Graphics/SVG/1.1/DTD/svg11.dtd">
<svg version="1.1" xmlns="http://www.w3.org/2000/svg" xmlns:xlink="http://www.w3.org/1999/xlink" x="0px" y="0px" viewBox="0 0 1000 1000" enable-background="new 0 0 1000 1000" xml:space="preserve">
<metadata> Svg Vector Icons : http://www.onlinewebfonts.com/icon </metadata>
<g><path d="M924.7,10H75.3C39.3,10,10,39.3,10,75.3v849.3c0,36.1,29.3,65.3,65.3,65.3h849.3c36.1,0,65.3-29.3,65.3-65.3V75.3C990,39.3,960.7,10,924.7,10z M822.3,453.7c-1.2,24.6-4.1,49.1-8.4,73.4c-4.3,24.4-10.7,48.1-19,71.2c-8.3,23.1-18.7,44.2-31.1,63.1c-12.4,18.9-27.2,35.1-44.2,48.4c-17,13.3-36.7,22.5-59.1,27.5c-19.1,4.1-36.9,4.9-53.5,2.2c-16.6-2.7-31.8-8.1-45.7-16.3c-13.9-8.1-26.6-18.4-38.2-30.9c-11.6-12.5-22.2-26.7-31.7-42.5c-4.6,13.3-10,25.5-16.5,36.6c-6.4,11-14.2,20.6-23.3,28.8c-9.1,8.1-19.7,14.4-31.7,18.7c-12,4.4-25.5,6.3-40.5,5.9c-22-0.4-40.9-5.9-56.6-16.6c-15.8-10.6-29.3-24.6-40.5-41.9c-11.2-17.3-20.3-37-27.4-59.1c-7.1-22.1-12.9-44.9-17.4-68.4c-4.6-23.5-8.2-47.2-10.9-70.9c-2.7-23.7-5.2-45.7-7.5-65.9c-2.3-20.2-4.8-37.9-7.5-53.1c-2.7-15.2-6.1-26.3-10.3-33.4c-2.5-3.7-5.3-6.3-8.4-7.5c-3.1-1.2-6.2-2.4-9.3-3.4c-3.1-1-5.9-2.2-8.4-3.4c-2.5-1.3-4.4-3.8-5.6-7.5c-2.1-5.8-0.8-12.7,3.7-20.6c4.6-7.9,11.2-15.7,19.9-23.4c8.7-7.7,19.1-14.7,31.1-20.9c12-6.3,24.2-10.6,36.7-13.1c12.4-2.5,24.7-2.5,36.7,0c12,2.5,22.6,8.5,31.7,18.1c10,10.4,17.3,24.1,22.1,41.2c4.8,17.1,8,36,9.6,56.8c1.7,20.9,2.2,42.7,1.6,65.6c-0.6,22.9-1.6,45.5-2.8,67.8c-1.3,22.3-2.2,43.5-2.8,63.7c-0.6,20.2-0.1,37.7,1.5,52.5c1.7,14.8,5,26.4,10,34.7c5,8.3,12.4,11.9,22.4,10.6c4.1-0.4,8.7-2.6,13.7-6.6c5-4,10-9.8,14.9-17.5c5-7.7,9.6-17.5,14-29.4c4.3-11.9,8.2-26.2,11.5-42.8c0-0.4-0.1-0.8-0.3-1.2c-0.2-0.4-0.3-1.1-0.3-1.9c-11.6-37.9-18.1-74.7-19.6-110.3c-1.5-35.6,1.2-66.7,8.1-93.4c6.9-26.7,17.6-47.1,32.4-61.3c14.7-14.2,32.4-18.9,53.2-14.4c17.4,3.7,30,9.1,37.6,15.9c7.7,6.9,12.4,15.5,14.3,25.9c1.9,10.4,1.8,22.7-0.3,36.9c-2.1,14.2-4.2,30.3-6.5,48.4c-2.3,18.1-3.7,38.5-4.3,61.3c-0.6,22.7,1.6,47.6,6.5,74.7c4.6,27.1,9.1,48.8,13.7,65.3c4.6,16.5,9.2,29.3,14,38.4c4.8,9.2,9.5,15.1,14.3,17.8c4.8,2.7,9.9,3.8,15.3,3.4c11.6-0.9,20.9-8.9,28-24.1c7-15.2,12.4-34.1,16.2-56.8c3.7-22.7,5.9-47.5,6.5-74.4c0.6-26.9,0.3-52.3-1-76.2c-1.2-24-3.1-44.8-5.6-62.5c-2.5-17.7-5.2-29.1-8.1-34.1c-3.7-6.7-8.2-11.6-13.4-15c-5.2-3.3-10-6.3-14.6-8.7c-4.6-2.5-8.4-5-11.5-7.5c-3.1-2.5-4.7-6.1-4.7-10.6c0-8.8,3.4-16.5,10.3-23.1c6.9-6.7,15.7-12.1,26.4-16.3c10.8-4.1,22.8-6.6,36.1-7.5c13.3-0.8,26.6,0.3,40.1,3.4c13.5,3.1,26.1,8.5,37.9,16.2c11.8,7.7,21.9,18.2,30.2,31.6c6.2,10,11.5,23.6,15.9,40.9c4.3,17.3,7.5,36.7,9.3,58.1C823.3,406.1,823.6,429.1,822.3,453.7z"/></g>
</svg>