<?xml version="1.0" encoding="utf-8"?>
<svg version="1.1" id="Layer_1" x="0px" y="0px" viewBox="0 0 304.36 304.36" style="enable-background:new 0 0 304.36 304.36;" preserveAspectRatio="xMidYMid slice" xmlns="http://www.w3.org/2000/svg">
  <defs>
    <clipPath id="clip0">
      <rect width="38" height="38" fill="white"/>
    </clipPath>
  </defs>
  <g/>
  <g/>
  <g/>
  <g/>
  <g/>
  <g/>
  <g/>
  <g/>
  <g/>
  <g/>
  <g/>
  <g/>
  <g/>
  <g/>
  <g/>
  <g clip-path="url(#clip0)" transform="matrix(7.894737, 0, 0, 7.894737, 2.000003, 2.398962)">
    <path fill-rule="evenodd" clip-rule="evenodd" d="M 1.294 6.484 C 0 9.025 0 12.35 0 19 C 0 25.65 0 28.975 1.294 31.516 C 2.434 33.749 4.251 35.566 6.484 36.706 C 9.025 38 12.35 38 19 38 C 25.65 38 28.975 38 31.516 36.706 C 33.749 35.566 35.566 33.749 36.706 31.516 C 38 28.975 38 25.65 38 19 C 38 12.35 38 9.025 36.706 6.484 C 35.566 4.251 33.749 2.434 31.516 1.294 C 28.975 0 25.65 0 19 0 C 12.35 0 9.025 0 6.484 1.294 C 4.251 2.434 2.434 4.251 1.294 6.484 Z" fill="#3375BB"/>
    <path d="M 32.547 19.192 C 32.497 20.243 32.376 21.292 32.195 22.331 C 32.014 23.374 31.747 24.39 31.397 25.374 C 31.05 26.364 30.613 27.265 30.091 28.075 C 29.571 28.885 28.949 29.578 28.235 30.146 C 27.52 30.713 26.692 31.11 25.752 31.323 C 24.95 31.498 24.203 31.531 23.506 31.415 C 22.809 31.302 22.171 31.068 21.587 30.718 C 21.002 30.37 20.469 29.933 19.983 29.398 C 19.495 28.864 19.049 28.255 18.65 27.578 C 18.459 28.146 18.229 28.669 17.958 29.143 C 17.689 29.615 17.36 30.024 16.98 30.375 C 16.597 30.722 16.152 30.993 15.649 31.177 C 15.143 31.365 14.578 31.447 13.947 31.428 C 13.024 31.411 12.229 31.177 11.57 30.718 C 10.906 30.267 10.339 29.666 9.869 28.926 C 9.398 28.188 9.016 27.345 8.718 26.397 C 8.42 25.453 8.176 24.476 7.986 23.47 C 7.793 22.469 7.643 21.454 7.529 20.44 C 7.417 19.425 7.311 18.486 7.214 17.622 C 7.117 16.758 7.013 15.998 6.899 15.346 C 6.787 14.699 6.643 14.223 6.466 13.918 C 6.362 13.76 6.244 13.652 6.115 13.597 C 5.984 13.548 5.852 13.497 5.724 13.451 C 5.593 13.409 5.476 13.36 5.371 13.31 C 5.266 13.25 5.186 13.147 5.135 12.988 C 5.048 12.737 5.102 12.445 5.291 12.108 C 5.484 11.769 5.761 11.435 6.127 11.105 C 6.491 10.775 6.928 10.475 7.434 10.212 C 7.937 9.94 8.448 9.757 8.975 9.647 C 9.495 9.544 10.012 9.544 10.516 9.647 C 11.019 9.757 11.463 10.016 11.847 10.425 C 12.266 10.871 12.572 11.456 12.774 12.186 C 12.976 12.917 13.111 13.726 13.178 14.616 C 13.251 15.509 13.271 16.445 13.247 17.421 C 13.219 18.402 13.178 19.371 13.127 20.323 C 13.074 21.279 13.037 22.184 13.01 23.049 C 12.984 23.913 13.006 24.66 13.074 25.295 C 13.144 25.93 13.284 26.423 13.493 26.781 C 13.704 27.136 14.013 27.288 14.434 27.231 C 14.607 27.215 14.8 27.122 15.01 26.95 C 15.221 26.781 15.43 26.531 15.636 26.2 C 15.846 25.871 16.037 25.453 16.222 24.944 C 16.403 24.435 16.567 23.82 16.705 23.111 C 16.705 23.094 16.701 23.078 16.692 23.061 C 16.684 23.045 16.68 23.016 16.68 22.983 C 16.193 21.358 15.921 19.784 15.858 18.26 C 15.794 16.736 15.909 15.409 16.197 14.266 C 16.487 13.126 16.938 12.253 17.558 11.644 C 18.176 11.033 18.92 10.833 19.793 11.025 C 20.524 11.184 21.052 11.419 21.372 11.706 C 21.695 12.002 21.892 12.37 21.973 12.816 C 22.053 13.259 22.049 13.785 21.961 14.395 C 21.872 15 21.784 15.688 21.687 16.466 C 21.591 17.237 21.533 18.11 21.507 19.087 C 21.48 20.06 21.574 21.124 21.78 22.284 C 21.973 23.441 22.162 24.373 22.354 25.077 C 22.548 25.783 22.741 26.33 22.942 26.718 C 23.144 27.112 23.341 27.365 23.543 27.482 C 23.746 27.595 23.959 27.644 24.186 27.625 C 24.673 27.587 25.063 27.244 25.361 26.595 C 25.657 25.946 25.883 25.136 26.041 24.163 C 26.197 23.195 26.291 22.135 26.316 20.982 C 26.341 19.83 26.328 18.745 26.275 17.722 C 26.222 16.695 26.144 15.806 26.037 15.05 C 25.934 14.29 25.819 13.804 25.698 13.589 C 25.542 13.306 25.353 13.092 25.135 12.951 C 24.917 12.808 24.714 12.679 24.521 12.575 C 24.33 12.47 24.169 12.362 24.038 12.257 C 23.91 12.149 23.841 11.994 23.841 11.802 C 23.841 11.427 23.984 11.096 24.274 10.813 C 24.564 10.529 24.933 10.295 25.382 10.115 C 25.838 9.94 26.341 9.836 26.898 9.794 C 27.457 9.761 28.017 9.806 28.583 9.94 C 29.15 10.074 29.679 10.303 30.175 10.633 C 30.671 10.963 31.095 11.414 31.443 11.986 C 31.704 12.411 31.928 12.996 32.111 13.735 C 32.291 14.473 32.427 15.305 32.501 16.22 C 32.591 17.155 32.604 18.14 32.547 19.192 Z" style="paint-order: stroke; fill: rgb(255, 255, 255);"/>
  </g>
  <path d="M 641.323 -20 L 363.941 -20 C 352.184 -20 342.616 -10.432 342.616 1.325 L 342.616 278.675 C 342.616 290.464 352.184 300 363.941 300 L 641.291 300 C 653.08 300 662.616 290.432 662.616 278.675 L 662.616 1.325 C 662.648 -10.432 653.08 -20 641.323 -20 Z M 607.883 124.896 C 607.492 132.929 606.546 140.931 605.141 148.865 C 603.736 156.833 601.646 164.575 598.936 172.116 C 596.226 179.661 592.828 186.551 588.779 192.723 C 584.731 198.896 579.897 204.186 574.345 208.529 C 568.793 212.871 562.361 215.876 555.047 217.51 C 548.808 218.849 542.996 219.11 537.575 218.228 C 532.153 217.347 527.191 215.584 522.651 212.906 C 518.111 210.26 513.964 206.896 510.175 202.815 C 506.388 198.733 502.926 194.096 499.823 188.935 C 498.322 193.279 496.558 197.263 494.436 200.887 C 492.345 204.48 489.799 207.615 486.827 210.292 C 483.854 212.938 480.393 214.995 476.475 216.4 C 472.555 217.837 468.148 218.458 463.247 218.326 C 456.063 218.195 449.893 216.4 444.764 212.906 C 439.605 209.443 435.196 204.871 431.54 199.222 C 427.881 193.572 424.91 187.139 422.591 179.923 C 420.274 172.705 418.379 165.26 416.908 157.585 C 415.406 149.911 414.232 142.172 413.351 134.432 C 412.469 126.692 411.652 119.508 410.901 112.912 C 410.149 106.316 409.333 100.534 408.452 95.571 C 407.57 90.608 406.459 86.982 405.087 84.663 C 404.271 83.456 403.356 82.607 402.344 82.214 C 401.333 81.823 400.319 81.43 399.307 81.104 C 398.295 80.778 397.381 80.385 396.565 79.994 C 395.748 79.569 395.128 78.753 394.735 77.543 C 394.05 75.651 394.473 73.396 395.944 70.817 C 397.447 68.237 399.602 65.69 402.443 63.175 C 405.284 60.66 408.68 58.375 412.599 56.351 C 416.517 54.292 420.501 52.89 424.584 52.071 C 428.633 51.255 432.649 51.255 436.568 52.071 C 440.488 52.89 443.948 54.848 446.92 57.984 C 450.185 61.379 452.569 65.855 454.137 71.439 C 455.705 77.023 456.75 83.194 457.272 89.987 C 457.828 96.812 457.991 103.932 457.796 111.409 C 457.598 118.887 457.272 126.268 456.879 133.551 C 456.456 140.832 456.162 147.756 455.966 154.352 C 455.771 160.948 455.934 166.663 456.456 171.498 C 457.012 176.33 458.089 180.118 459.721 182.829 C 461.355 185.539 463.771 186.716 467.036 186.291 C 468.376 186.16 469.879 185.441 471.511 184.134 C 473.144 182.829 474.776 180.934 476.376 178.42 C 478.009 175.905 479.512 172.705 480.949 168.819 C 482.351 164.932 483.625 160.263 484.703 154.842 C 484.703 154.711 484.671 154.58 484.606 154.451 C 484.54 154.32 484.508 154.092 484.508 153.83 C 480.719 141.453 478.597 129.436 478.107 117.809 C 477.618 106.183 478.5 96.029 480.751 87.309 C 483.006 78.591 486.501 71.927 491.333 67.292 C 496.135 62.653 501.913 61.119 508.708 62.589 C 514.389 63.796 518.504 65.559 520.985 67.78 C 523.499 70.033 525.035 72.842 525.655 76.239 C 526.276 79.635 526.244 83.651 525.557 88.288 C 524.872 92.927 524.185 98.183 523.435 104.095 C 522.683 110.004 522.226 116.668 522.03 124.112 C 521.833 131.526 522.552 139.658 524.153 148.508 C 525.655 157.357 527.125 164.444 528.628 169.831 C 530.13 175.219 531.63 179.399 533.198 182.371 C 534.766 185.376 536.3 187.302 537.868 188.183 C 539.436 189.066 541.1 189.425 542.866 189.295 C 546.652 189.002 549.689 186.388 552.008 181.424 C 554.295 176.461 556.057 170.288 557.3 162.876 C 558.507 155.462 559.225 147.364 559.422 138.579 C 559.618 129.795 559.519 121.501 559.096 113.696 C 558.703 105.857 558.084 99.066 557.268 93.284 C 556.45 87.505 555.567 83.782 554.62 82.148 C 553.413 79.962 551.944 78.362 550.245 77.251 C 548.548 76.173 546.98 75.194 545.477 74.41 C 543.976 73.594 542.734 72.778 541.721 71.959 C 540.711 71.143 540.187 69.968 540.187 68.499 C 540.187 65.626 541.298 63.11 543.55 60.956 C 545.804 58.768 548.679 57.004 552.172 55.632 C 555.7 54.292 559.618 53.476 563.961 53.183 C 568.303 52.922 572.648 53.281 577.055 54.292 C 581.465 55.306 585.579 57.069 589.433 59.584 C 593.287 62.097 596.584 65.526 599.295 69.903 C 601.32 73.168 603.051 77.61 604.488 83.26 C 605.892 88.909 606.937 95.245 607.525 102.234 C 608.212 109.351 608.309 116.863 607.883 124.896 Z"/>
</svg>