<?xml version="1.0" encoding="utf-8"?>
<svg viewBox="0 0 650 207" width="650px" height="207px" xmlns="http://www.w3.org/2000/svg">
  <defs>
    <clipPath id="clip0">
      <rect width="38" height="38" fill="white"/>
    </clipPath>
  </defs>
  <path d="M 185.798 118.408 C 185.623 118.233 180.186 112.445 175.1 108.412 C 170.892 105.08 165.455 102.625 163.526 101.748 C 161.772 93.856 158.791 87.718 158.791 87.718 C 158.791 87.718 160.193 51.767 143.884 34.93 C 127.574 18.096 101.795 20.2 101.795 20.2 C 101.795 20.2 75.841 18.096 59.706 34.93 C 43.396 51.767 44.799 87.718 44.799 87.718 C 44.799 87.718 41.818 93.856 40.064 101.748 C 37.96 102.625 32.699 105.08 28.49 108.412 C 23.404 112.445 17.967 118.057 17.792 118.408 C 17.266 118.934 17.266 119.987 17.792 120.512 C 18.143 120.863 18.494 120.863 18.845 120.863 C 19.195 120.863 19.722 120.688 19.896 120.338 C 19.896 120.338 25.333 114.55 30.244 110.692 C 33.225 108.412 36.907 106.483 39.363 105.256 C 38.661 109.465 38.486 113.849 39.363 117.882 C 37.084 119.636 33.926 122.267 31.471 125.072 C 27.262 129.983 23.053 136.647 22.878 136.998 C 22.527 137.699 22.703 138.576 23.404 139.102 C 23.58 139.277 23.93 139.277 24.105 139.277 C 24.632 139.277 25.158 139.102 25.333 138.576 C 25.333 138.576 29.542 131.912 33.576 127.176 C 35.505 124.896 38.135 122.617 40.064 121.038 C 41.292 124.02 43.221 126.825 46.027 128.93 C 44.273 131.034 41.468 134.893 39.538 138.751 C 36.733 144.538 34.453 152.079 34.277 152.43 C 34.102 153.132 34.453 154.008 35.33 154.359 C 35.505 154.359 35.68 154.359 35.68 154.359 C 36.382 154.359 36.907 154.008 37.084 153.307 C 37.084 153.307 39.363 145.766 42.169 140.154 C 44.098 136.296 46.904 132.438 48.482 130.509 C 57.075 134.367 68.475 126.3 77.243 119.109 C 89.694 108.937 101.269 109.99 101.269 109.99 C 101.269 109.99 113.019 108.937 125.294 119.109 C 134.239 126.3 145.462 134.367 154.056 130.509 C 155.634 132.438 158.616 136.296 160.37 140.154 C 163.175 145.766 165.455 153.307 165.455 153.307 C 165.63 154.008 166.157 154.359 166.858 154.359 C 167.033 154.359 167.208 154.359 167.208 154.359 C 167.91 154.184 168.436 153.307 168.261 152.43 C 168.086 152.079 165.806 144.538 163 138.751 C 161.071 134.893 158.265 131.034 156.511 128.93 C 159.492 126.825 161.421 124.195 162.473 121.038 C 164.578 122.617 167.033 124.896 168.962 127.176 C 172.996 131.912 177.204 138.576 177.204 138.576 C 177.555 139.102 177.906 139.277 178.432 139.277 C 178.783 139.277 178.959 139.277 179.134 139.102 C 179.835 138.751 180.011 137.699 179.66 136.998 C 179.485 136.647 175.276 130.158 171.066 125.072 C 168.612 122.091 165.455 119.46 163.175 117.882 C 164.052 113.849 163.877 109.288 163.175 105.256 C 165.63 106.483 169.313 108.412 172.294 110.692 C 177.204 114.55 182.641 120.161 182.641 120.338 C 182.992 120.688 183.342 120.863 183.693 120.863 C 184.044 120.863 184.396 120.688 184.746 120.512 C 186.324 119.987 186.5 119.109 185.798 118.408 Z M 50.762 97.363 C 52.341 97.363 53.744 98.766 53.744 100.345 C 53.744 101.923 52.341 103.326 50.762 103.326 C 49.183 103.326 47.78 101.923 47.78 100.345 C 47.78 98.766 49.008 97.363 50.762 97.363 Z M 48.833 111.568 C 48.833 109.99 50.236 108.587 51.814 108.587 C 53.393 108.587 54.795 109.99 54.795 111.568 C 54.795 113.147 53.393 114.55 51.814 114.55 C 50.236 114.55 48.833 113.322 48.833 111.568 Z M 55.672 125.598 C 54.095 125.598 52.866 124.371 52.866 122.792 C 52.866 121.215 54.095 119.987 55.672 119.987 C 57.251 119.987 58.479 121.215 58.479 122.792 C 58.479 124.371 57.251 125.598 55.672 125.598 Z M 64.266 85.965 C 65.493 85.965 66.37 87.017 66.37 88.068 C 66.37 89.121 65.318 90.173 64.266 90.173 C 63.214 90.173 62.161 89.121 62.161 88.068 C 62.161 87.017 63.038 85.965 64.266 85.965 Z M 59.881 101.572 C 59.881 100.345 60.933 99.468 61.986 99.468 C 63.038 99.468 64.09 100.52 64.09 101.572 C 64.09 102.625 63.038 103.677 61.986 103.677 C 60.933 103.677 59.881 102.625 59.881 101.572 Z M 64.968 116.303 C 63.739 116.303 62.687 115.252 62.687 114.023 C 62.687 112.796 63.739 111.744 64.968 111.744 C 66.194 111.744 67.247 112.796 67.247 114.023 C 67.247 115.252 66.194 116.303 64.968 116.303 Z M 73.385 103.326 C 72.333 103.326 71.631 102.449 71.631 101.572 C 71.631 100.695 72.508 99.819 73.385 99.819 C 74.437 99.819 75.139 100.695 75.139 101.572 C 75.139 102.449 74.437 103.326 73.385 103.326 Z M 75.139 93.155 C 74.087 93.155 73.385 92.277 73.385 91.401 C 73.385 90.524 74.262 89.647 75.139 89.647 C 76.191 89.647 76.892 90.524 76.892 91.401 C 76.892 92.277 76.191 93.155 75.139 93.155 Z M 85.486 68.077 C 82.153 69.129 83.03 57.73 76.717 57.73 C 70.404 57.73 72.157 69.129 67.948 68.077 C 64.791 67.375 64.266 62.815 64.266 59.307 C 64.266 52.469 69.877 46.857 76.717 46.857 C 83.557 46.857 89.168 52.469 89.168 59.307 C 88.994 62.815 88.467 67.2 85.486 68.077 Z M 97.236 71.934 C 96.534 71.934 95.832 70.708 95.832 69.129 C 95.832 67.55 96.534 66.323 97.236 66.323 C 97.937 66.323 98.638 67.55 98.638 69.129 C 98.638 70.708 97.937 71.934 97.236 71.934 Z M 142.131 88.244 C 142.131 89.472 141.078 90.349 140.026 90.349 C 138.974 90.349 137.922 89.297 137.922 88.244 C 137.922 87.191 138.974 86.139 140.026 86.139 C 141.078 86.139 142.131 87.017 142.131 88.244 Z M 106.179 71.934 C 105.478 71.934 104.776 70.708 104.776 69.129 C 104.776 67.55 105.478 66.323 106.179 66.323 C 106.881 66.323 107.582 67.55 107.582 69.129 C 107.582 70.708 107.056 71.934 106.179 71.934 Z M 127.224 91.401 C 127.224 90.349 128.101 89.647 128.978 89.647 C 130.03 89.647 130.731 90.524 130.731 91.401 C 130.731 92.277 129.855 93.155 128.978 93.155 C 128.101 93.155 127.224 92.454 127.224 91.401 Z M 130.907 103.326 C 129.855 103.326 129.153 102.449 129.153 101.572 C 129.153 100.695 130.03 99.819 130.907 99.819 C 131.959 99.819 132.66 100.695 132.66 101.572 C 132.66 102.449 131.959 103.326 130.907 103.326 Z M 126.698 57.73 C 120.385 57.73 121.262 69.129 117.929 68.077 C 114.948 67.2 114.247 62.815 114.247 59.307 C 114.247 52.469 119.858 46.857 126.698 46.857 C 133.537 46.857 139.149 52.469 139.149 59.307 C 139.149 62.64 138.624 67.375 135.466 68.077 C 131.433 69.129 133.011 57.73 126.698 57.73 Z M 139.324 116.303 C 138.097 116.303 137.045 115.252 137.045 114.023 C 137.045 112.796 138.097 111.744 139.324 111.744 C 140.552 111.744 141.605 112.796 141.605 114.023 C 141.605 115.252 140.728 116.303 139.324 116.303 Z M 142.131 103.677 C 140.903 103.677 140.026 102.625 140.026 101.572 C 140.026 100.52 141.078 99.468 142.131 99.468 C 143.182 99.468 144.235 100.52 144.235 101.572 C 144.235 102.625 143.359 103.677 142.131 103.677 Z M 148.619 125.598 C 147.041 125.598 145.813 124.371 145.813 122.792 C 145.813 121.215 147.041 119.987 148.619 119.987 C 150.198 119.987 151.425 121.215 151.425 122.792 C 151.425 124.371 150.198 125.598 148.619 125.598 Z M 152.478 114.55 C 150.899 114.55 149.497 113.147 149.497 111.568 C 149.497 109.99 150.899 108.587 152.478 108.587 C 154.056 108.587 155.458 109.99 155.458 111.568 C 155.458 113.322 154.056 114.55 152.478 114.55 Z M 153.53 103.326 C 151.951 103.326 150.548 101.923 150.548 100.345 C 150.548 98.766 151.951 97.363 153.53 97.363 C 155.108 97.363 156.511 98.766 156.511 100.345 C 156.511 101.923 155.284 103.326 153.53 103.326 Z M 69.001 132.964 C 71.28 131.385 73.56 129.456 77.067 127.176 C 77.067 127.176 78.471 145.591 78.471 156.464 C 78.646 167.336 80.049 179.788 77.243 179.788 C 74.437 179.788 69.526 163.303 67.773 158.042 C 66.019 152.78 62.863 136.12 62.863 136.12 C 62.863 136.12 65.142 135.595 69.001 132.964 Z M 77.067 127.002 Z M 117.578 121.215 C 121.262 123.494 124.067 125.423 126.522 127.002 C 126.522 127.002 124.243 133.841 113.896 135.77 C 109.161 136.647 101.795 136.647 101.795 136.647 C 101.795 136.647 94.43 136.647 89.694 135.77 C 79.348 133.841 77.067 127.002 77.067 127.002 C 79.348 125.423 82.328 123.494 86.012 121.215 C 95.131 115.602 101.795 116.129 101.795 116.129 C 101.795 116.129 108.459 115.602 117.578 121.215 Z M 126.348 127.002 Z M 134.414 132.964 C 138.273 135.77 140.552 136.12 140.552 136.12 C 140.552 136.12 137.395 152.78 135.642 158.042 C 133.888 163.303 128.978 179.788 126.172 179.788 C 123.366 179.788 124.769 167.512 124.943 156.464 C 125.12 145.591 126.348 127.176 126.348 127.176 C 129.855 129.456 132.135 131.385 134.414 132.964 Z" data-fill-palette-color="accent" style="fill: rgb(255, 255, 255);"/>
  <g transform="matrix(1, 0, 0, 1, -135.10199, -12.07492)" style="visibility: hidden;">
    <svg viewBox="0 0 396 85" data-background-color="#ffffff" preserveAspectRatio="xMidYMid meet" height="214" width="1000" xmlns="http://www.w3.org/2000/svg" transform="matrix(1, 0, 0, 1, 97.70101296600158, -5.999185085296617)">
      <g id="tight-bounds" transform="matrix(1,0,0,1,0.23997110156426515,0.22541133420222081)">
        <svg viewBox="0 0 395.52 84.54928351513293" height="84.54928351513293" width="395.52" transform="matrix(1, 0, 0, 1, 95.70128958587546, 11.14134377077707)">
          <g>
            <svg viewBox="0 0 516.8185839853636 110.47896688730796" height="84.54928351513293" width="395.52">
              <g transform="matrix(1,0,0,1,121.29858398536368,0)">
                <svg viewBox="0 0 395.52 110.47896688730796" height="110.47896688730796" width="395.52">
                  <g id="textblocktransform">
                    <svg viewBox="0 0 395.52 110.47896688730796" height="110.47896688730796" width="395.52" id="textblock">
                      <g>
                        <svg viewBox="0 0 395.52 110.47896688730796" height="110.47896688730796" width="395.52">
                          <g transform="matrix(1,0,0,1,55.76832,26.23066666666667)">
                            <svg width="283.98335999999995" viewBox="0.7099999785423279 -33.38999938964844 163.4399871826172 33.38999938964844" height="58.01763355397462" data-palette-color="#ffffff"/>
                          </g>
                        </svg>
                      </g>
                    </svg>
                  </g>
                </svg>
              </g>
              <g transform="matrix(1,0,0,1,0,4.345506030900772)">
                <svg viewBox="0 0 107.60201312647557 101.78795482550642" height="101.78795482550642" width="107.60201312647557">
                  <g>
                    <svg xmlns="http://www.w3.org/2000/svg" version="1.1" x="0" y="0" viewBox="2.175004005432129 4.651998519897461 96.24860382080078 91.04800415039062" enable-background="new 0 0 100 100" height="101.78795482550642" width="107.60201312647557" class="icon-icon-0" data-fill-palette-color="accent" id="icon-0"/>
                  </g>
                </svg>
              </g>
            </svg>
          </g>
        </svg>
        <rect width="395.52" height="84.54928351513293" fill="none" stroke="none" visibility="hidden"/>
      </g>
    </svg>
  </g>
  <g transform="matrix(0.150914, 0, 0, -0.151615, 208.227036, 192.392944)" fill="#000000" stroke="none" style="">
    <path d="M1614 985 l-25 -25 3 -243 c3 -240 3 -242 30 -292 31 -60 77 -105 136 -134 56 -28 135 -38 167 -21 32 17 47 61 34 99 -11 32 -37 47 -93 55 -21 3 -50 16 -63 28 -50 47 -53 62 -53 293 0 216 0 216 -25 240 -32 33 -78 33 -111 0z" style="fill: rgb(255, 255, 255);"/>
    <path d="M1934 985 l-25 -25 3 -243 c3 -240 3 -242 30 -292 31 -60 77 -105 136 -134 56 -28 135 -38 167 -21 32 17 47 61 34 99 -11 32 -37 47 -93 55 -21 3 -50 16 -63 28 -50 47 -53 62 -53 293 0 216 0 216 -25 240 -32 33 -78 33 -111 0z" style="fill: rgb(255, 255, 255);"/>
    <path d="M255 855 c-25 -24 -25 -25 -25 -217 0 -106 4 -209 10 -228 33 -120 179 -184 291 -127 l44 22 45 -23 c91 -47 206 -12 267 80 l28 41 3 213 3 213 -25 26 c-33 33 -79 33 -111 0 -25 -24 -25 -26 -25 -213 0 -170 -2 -191 -18 -205 -24 -22 -45 -21 -65 1 -14 15 -17 41 -17 146 0 121 -1 128 -25 151 -32 33 -78 33 -110 0 -24 -23 -25 -29 -25 -153 0 -112 -2 -131 -18 -145 -24 -22 -55 -21 -75 1 -15 16 -17 46 -17 206 0 185 0 187 -25 211 -15 16 -36 25 -55 25 -19 0 -40 -9 -55 -25z" style="fill: rgb(255, 255, 255);"/>
    <path d="M1170 871 c-171 -53 -267 -229 -214 -397 14 -47 30 -71 78 -119 77 -77 128 -95 267 -95 141 0 200 28 240 115 16 35 19 67 19 248 0 208 0 208 -25 232 -29 30 -73 32 -107 6 -24 -19 -25 -19 -78 0 -56 19 -135 23 -180 10z m170 -181 c18 -13 39 -38 46 -56 17 -42 19 -185 2 -202 -18 -18 -163 -15 -204 4 -53 25 -79 69 -79 134 0 64 25 107 77 134 44 22 116 16 158 -14z" style="fill: rgb(255, 255, 255);"/>
    <path d="M2264 855 l-26 -26 4 -172 c3 -164 4 -174 30 -222 32 -60 87 -115 148 -146 36 -18 66 -24 148 -27 107 -4 129 -14 102 -47 -10 -12 -45 -15 -192 -15 -177 0 -179 0 -203 -25 -33 -32 -33 -78 0 -110 24 -25 25 -25 217 -25 166 0 199 3 233 19 98 45 139 151 97 246 -17 36 -17 42 -3 70 13 24 17 74 19 242 l3 213 -25 25 c-33 33 -79 33 -111 0 -25 -24 -25 -25 -25 -218 0 -160 -3 -197 -15 -207 -10 -8 -41 -11 -92 -9 -61 3 -85 9 -109 26 -55 39 -64 73 -64 237 0 143 -1 148 -25 171 -32 33 -78 33 -111 0z" style="fill: rgb(255, 255, 255);"/>
  </g>
  <g clip-path="url(#clip0)" transform="matrix(5.45314, 0, 0, 5.45314, 2.978061, 0.23427)" style="">
    <path fill-rule="evenodd" clip-rule="evenodd" d="M 1.294 6.484 C 0 9.025 0 12.35 0 19 C 0 25.65 0 28.975 1.294 31.516 C 2.434 33.749 4.251 35.566 6.484 36.706 C 9.025 38 12.35 38 19 38 C 25.65 38 28.975 38 31.516 36.706 C 33.749 35.566 35.566 33.749 36.706 31.516 C 38 28.975 38 25.65 38 19 C 38 12.35 38 9.025 36.706 6.484 C 35.566 4.251 33.749 2.434 31.516 1.294 C 28.975 0 25.65 0 19 0 C 12.35 0 9.025 0 6.484 1.294 C 4.251 2.434 2.434 4.251 1.294 6.484 Z" style="fill: rgb(108, 72, 175);"/>
  </g>
  <g transform="matrix(0.270598, 0, 0, 0.270598, 12.065969, 7.615346)" style="">
    <g transform="matrix(0.1, 0, 0, -0.1, 0, 707)" fill="#000000" stroke="none">
      <path d="M3499 6785 c164 -86 220 -121 370 -234 421 -318 644 -561 1066 -1160 171 -242 266 -373 338 -461 121 -149 336 -376 557 -587 l215 -206 3 1179 c2 1287 5 1230 -54 1330 -37 63 -127 142 -197 174 l-62 28 -1186 4 -1187 3 137 -70z" style="stroke: rgb(255, 255, 255); fill: rgb(255, 255, 255);"/>
      <path d="M1710 6553 c-129 -12 -307 -57 -395 -99 -92 -43 -206 -124 -249 -177 -54 -66 -114 -187 -136 -273 -18 -68 -21 -124 -27 -416 l-6 -338 519 0 519 1 43 57 c87 117 197 217 336 307 165 107 286 145 471 145 257 0 488 -90 702 -273 228 -195 381 -430 542 -833 203 -510 327 -642 964 -1023 337 -202 446 -339 526 -661 75 -304 68 -654 -18 -917 -39 -118 -122 -299 -166 -358 -12 -16 -54 -73 -93 -125 -194 -262 -468 -459 -837 -600 -109 -42 -166 -58 -325 -91 -150 -30 -419 -37 -555 -15 -385 65 -732 232 -1040 500 -63 55 -159 152 -189 190 -15 19 -124 22 -829 19 l-557 -3 2 -396 3 -396 38 -13 c126 -43 266 -210 296 -353 6 -29 11 -91 11 -137 l0 -85 2223 0 c2012 0 2229 2 2277 16 105 31 191 109 248 223 l37 75 0 1030 c0 1082 -1 1100 -46 1326 -23 115 -61 218 -136 365 -66 130 -115 202 -239 350 -116 138 -196 216 -459 447 -204 179 -369 341 -472 463 -94 113 -238 344 -403 650 -56 104 -190 320 -238 384 -262 348 -590 621 -940 783 -266 123 -623 218 -927 248 -93 9 -396 11 -475 3z" style="stroke: rgb(255, 255, 255); fill: rgb(255, 255, 255);"/>
      <path d="M916 4490 c-3 -19 -6 -349 -6 -732 l0 -698 213 0 c116 0 370 -3 562 -6 l350 -7 19 34 c39 69 132 174 335 377 114 114 245 255 292 314 169 213 271 449 295 680 l6 68 -1030 2 -1030 3 -6 -35z" style="stroke: rgb(255, 255, 255); fill: rgb(255, 255, 255);"/>
      <path d="M3465 3701 c-312 -77 -520 -339 -518 -651 1 -182 53 -310 178 -436 94 -95 198 -153 325 -180 l80 -17 0 -664 0 -663 23 -5 c86 -19 252 -36 255 -26 2 6 12 11 21 11 16 0 19 14 24 113 4 61 7 372 7 690 0 543 1 577 18 577 52 0 213 102 294 187 50 52 116 173 139 252 23 82 25 229 3 321 -54 232 -268 436 -518 495 -83 20 -244 18 -331 -4z m282 -306 c59 -18 146 -84 185 -141 56 -82 83 -238 58 -329 -19 -66 -78 -130 -136 -144 -55 -14 -108 -1 -125 31 -9 17 -4 26 39 67 95 88 99 229 8 317 -79 76 -187 80 -271 12 -94 -78 -98 -188 -9 -288 42 -46 46 -54 41 -88 -22 -136 -199 -63 -263 108 -10 27 -17 76 -18 120 0 61 5 86 26 132 48 104 152 191 261 219 43 11 140 3 204 -16z" style="stroke: rgb(255, 255, 255); fill: rgb(255, 255, 255);"/>
      <path d="M910 2237 l0 -114 137 -6 c247 -12 913 -8 913 5 0 6 -9 44 -19 82 -11 39 -22 88 -26 109 l-6 37 -499 0 -500 0 0 -113z" style="stroke: rgb(255, 255, 255); fill: rgb(255, 255, 255);"/>
    </g>
  </g>
</svg>