<?xml version="1.0" encoding="utf-8"?>
<svg version="1.1" width="1000" height="214" viewBox="0 0 1000 214" xmlns="http://www.w3.org/2000/svg">
  <g transform="matrix(1,0,0,1,-0.6059789763406229,-0.5672388499092023)">
    <svg viewBox="0 0 396 85" data-background-color="#ffffff" preserveAspectRatio="xMidYMid meet" height="214" width="1000" xmlns="http://www.w3.org/2000/svg">
      <g id="tight-bounds" transform="matrix(1,0,0,1,0.23997110156426515,0.22541133420222081)">
        <svg viewBox="0 0 395.52 84.54928351513293" height="84.54928351513293" width="395.52">
          <g>
            <svg viewBox="0 0 516.8185839853636 110.47896688730796" height="84.54928351513293" width="395.52">
              <g transform="matrix(1,0,0,1,121.29858398536368,0)">
                <svg viewBox="0 0 395.52 110.47896688730796" height="110.47896688730796" width="395.52">
                  <g id="textblocktransform">
                    <svg viewBox="0 0 395.52 110.47896688730796" height="110.47896688730796" width="395.52" id="textblock">
                      <g>
                        <svg viewBox="0 0 395.52 110.47896688730796" height="110.47896688730796" width="395.52">
                          <path d="M394.594 23.696C392.735 12.228 387.435 9.04 387.435 9.04 371.165-2.772 350.86-0.226 332.619 1.471 300.414 1.54 268.339 4.063 236.208 5.416 168.767 5.623 100.749 2.228 33.643 10.6 27.339 13.168-6.54 11.104 1.121 25.163 3.129 31.012 10.456 37.503 10.232 42.87 11.236 43.81 12.631 41.654 13.226 43.007 15.309 46.654 18.711 44.934 21.501 47.09 17.614 52.846 20.403 57.64 23.062 62.663 18.377 63.97 12.371 63.351 9.675 67.686 9.396 70.828 7.89 70.231 6.235 70.094 5.026 70.002 2.59 70.346 2.999 71.332 4.394 74.704-1.594 76.653 2.162 79.956-0.422 83.534 3.948 86.63 3.353 90.506 3.278 91.286 3.687 91.951 4.338 92.135 7.22 93.121 3.018 95.048 3.464 97.135 33.029 111.4 65.104 101.538 95.394 108.098 103.259 103.511 97.346 109.726 100.489 108.763 102.943 107.639 104.728 112.295 107.499 109.657 107.927 108.9 107.276 107.112 108.8 107.456 109.6 107.639 110.307 107.593 110.418 106.538 110.586 104.956 109.117 105.942 108.726 105.116 112.947 100.942 111.906 110.873 115.866 110.46 115.68 109.245 114.528 107.501 116.889 107.731 119.232 105.988 119.306 104.543 121.389 108.465 121.463 109.313 121.835 109.91 122.43 110.322 128.938 106.056 135.409 111.836 142.233 109.91 146.417 107.8 150.433 111.056 154.672 110.254 156.16 109.611 157.666 108.465 159.098 110.391 176.632 110.804 195.319 109.084 211.943 110.46 256.364 107.891 303.835 111.515 350.674 108.121 361.719 106.813 373.192 104.956 383.958 103.465 383.958 103.465 392.679 99.382 392.679 81.034S394.538 64.979 394.817 50.369C395.096 35.76 396.398 35.163 394.538 23.696Z" opacity="1" data-fill-palette-color="tertiary" style="fill: rgb(48, 38, 108);"/>
                          <g transform="matrix(1,0,0,1,55.76832,26.23066666666667)">
                            <svg width="283.98335999999995" viewBox="0.7099999785423279 -33.38999938964844 163.4399871826172 33.38999938964844" height="58.01763355397462" data-palette-color="#ffffff">
                              <path d="M39.03-33.27L47.7-33.27 39.51 0 28.89 0 25.71-14.48Q25.43-15.55 24.97-18.05 24.52-20.55 24.27-22.62L24.27-22.62Q23.84-19.06 22.88-14.91L22.88-14.91 19.57 0 8.95 0 0.71-33.27 9.38-33.27 12.99-16.58Q14.21-11.05 14.66-7.79L14.66-7.79Q14.96-10.11 15.72-14.08 16.48-18.05 17.16-20.68L17.16-20.68 20.1-33.27 28.41-33.27 31.27-20.68Q31.93-17.87 32.68-13.93 33.44-9.98 33.75-7.79L33.75-7.79Q33.97-10.06 35.36-16.53L35.36-16.53 39.03-33.27ZM69.39-33.39L80.36 0 70.52 0 68.91-6.24 58.09-6.24 56.42 0 46.53 0 57.38-33.39 69.39-33.39ZM59.96-13.6L59.96-13.6 67.03-13.6Q63.9-25.43 63.45-27.91L63.45-27.91Q62.94-24.77 59.96-13.6ZM105.73-7.25L105.73 0 83.94 0 83.94-33.27 92.94-33.27 92.94-7.25 105.73-7.25ZM132.85-7.25L132.85 0 111.06 0 111.06-33.27 120.06-33.27 120.06-7.25 132.85-7.25ZM153.2-12.99L153.2 0 144.15 0 144.15-12.71 133.21-33.27 142.99-33.27 148.68-20.93 154.41-33.27 164.15-33.27 153.2-12.99Z" opacity="1" transform="matrix(1,0,0,1,0,0)" class="undefined-text-0" data-fill-palette-color="quaternary" id="text-0" style="fill: rgb(255, 255, 255);"/>
                            </svg>
                          </g>
                        </svg>
                      </g>
                    </svg>
                  </g>
                </svg>
              </g>
              <g transform="matrix(1,0,0,1,0,4.345506030900772)">
                <svg viewBox="0 0 107.60201312647557 101.78795482550642" height="101.78795482550642" width="107.60201312647557">
                  <g>
                    <svg xmlns="http://www.w3.org/2000/svg" version="1.1" x="0" y="0" viewBox="2.175004005432129 4.651998519897461 96.24860382080078 91.04800415039062" enable-background="new 0 0 100 100" height="101.78795482550642" width="107.60201312647557" class="icon-icon-0" data-fill-palette-color="accent" id="icon-0">
                      <path d="M98.2 60.7c-0.1-0.1-3.2-3.4-6.1-5.7-2.4-1.9-5.5-3.3-6.6-3.8-1-4.5-2.7-8-2.7-8s0.8-20.5-8.5-30.1c-9.3-9.6-24-8.4-24-8.4s-14.8-1.2-24 8.4c-9.3 9.6-8.5 30.1-8.5 30.1s-1.7 3.5-2.7 8c-1.2 0.5-4.2 1.9-6.6 3.8-2.9 2.3-6 5.5-6.1 5.7-0.3 0.3-0.3 0.9 0 1.2 0.2 0.2 0.4 0.2 0.6 0.2 0.2 0 0.5-0.1 0.6-0.3 0 0 3.1-3.3 5.9-5.5 1.7-1.3 3.8-2.4 5.2-3.1-0.4 2.4-0.5 4.9 0 7.2-1.3 1-3.1 2.5-4.5 4.1-2.4 2.8-4.8 6.6-4.9 6.8-0.2 0.4-0.1 0.9 0.3 1.2 0.1 0.1 0.3 0.1 0.4 0.1 0.3 0 0.6-0.1 0.7-0.4 0 0 2.4-3.8 4.7-6.5 1.1-1.3 2.6-2.6 3.7-3.5 0.7 1.7 1.8 3.3 3.4 4.5-1 1.2-2.6 3.4-3.7 5.6-1.6 3.3-2.9 7.6-3 7.8-0.1 0.4 0.1 0.9 0.6 1.1 0.1 0 0.2 0 0.2 0 0.4 0 0.7-0.2 0.8-0.6 0 0 1.3-4.3 2.9-7.5 1.1-2.2 2.7-4.4 3.6-5.5 4.9 2.2 11.4-2.4 16.4-6.5 7.1-5.8 13.7-5.2 13.7-5.2s6.7-0.6 13.7 5.2c5.1 4.1 11.5 8.7 16.4 6.5 0.9 1.1 2.6 3.3 3.6 5.5 1.6 3.2 2.9 7.5 2.9 7.5 0.1 0.4 0.4 0.6 0.8 0.6 0.1 0 0.2 0 0.2 0 0.4-0.1 0.7-0.6 0.6-1.1-0.1-0.2-1.4-4.5-3-7.8-1.1-2.2-2.7-4.4-3.7-5.6 1.7-1.2 2.8-2.7 3.4-4.5 1.2 0.9 2.6 2.2 3.7 3.5 2.3 2.7 4.7 6.5 4.7 6.5 0.2 0.3 0.4 0.4 0.7 0.4 0.2 0 0.3 0 0.4-0.1 0.4-0.2 0.5-0.8 0.3-1.2-0.1-0.2-2.5-3.9-4.9-6.8-1.4-1.7-3.2-3.2-4.5-4.1 0.5-2.3 0.4-4.9 0-7.2 1.4 0.7 3.5 1.8 5.2 3.1 2.8 2.2 5.9 5.4 5.9 5.5 0.2 0.2 0.4 0.3 0.6 0.3 0.2 0 0.4-0.1 0.6-0.2C98.5 61.6 98.6 61.1 98.2 60.7zM21.2 48.7c0.9 0 1.7 0.8 1.7 1.7s-0.8 1.7-1.7 1.7-1.7-0.8-1.7-1.7S20.2 48.7 21.2 48.7zM20.1 56.8c0-0.9 0.8-1.7 1.7-1.7 0.9 0 1.7 0.8 1.7 1.7 0 0.9-0.8 1.7-1.7 1.7C20.9 58.5 20.1 57.8 20.1 56.8zM24 64.8c-0.9 0-1.6-0.7-1.6-1.6 0-0.9 0.7-1.6 1.6-1.6 0.9 0 1.6 0.7 1.6 1.6C25.6 64.1 24.9 64.8 24 64.8zM28.9 42.2c0.7 0 1.2 0.6 1.2 1.2s-0.6 1.2-1.2 1.2-1.2-0.6-1.2-1.2S28.2 42.2 28.9 42.2zM26.4 51.1c0-0.7 0.6-1.2 1.2-1.2s1.2 0.6 1.2 1.2-0.6 1.2-1.2 1.2S26.4 51.7 26.4 51.1zM29.3 59.5c-0.7 0-1.3-0.6-1.3-1.3 0-0.7 0.6-1.3 1.3-1.3s1.3 0.6 1.3 1.3C30.6 58.9 30 59.5 29.3 59.5zM34.1 52.1c-0.6 0-1-0.5-1-1s0.5-1 1-1c0.6 0 1 0.5 1 1S34.7 52.1 34.1 52.1zM35.1 46.3c-0.6 0-1-0.5-1-1s0.5-1 1-1c0.6 0 1 0.5 1 1S35.7 46.3 35.1 46.3zM41 32c-1.9 0.6-1.4-5.9-5-5.9-3.6 0-2.6 6.5-5 5.9-1.8-0.4-2.1-3-2.1-5 0-3.9 3.2-7.1 7.1-7.1 3.9 0 7.1 3.2 7.1 7.1C43 29 42.7 31.5 41 32zM47.7 34.2c-0.4 0-0.8-0.7-0.8-1.6 0-0.9 0.4-1.6 0.8-1.6s0.8 0.7 0.8 1.6C48.5 33.5 48.1 34.2 47.7 34.2zM73.3 43.5c0 0.7-0.6 1.2-1.2 1.2s-1.2-0.6-1.2-1.2 0.6-1.2 1.2-1.2S73.3 42.8 73.3 43.5zM52.8 34.2c-0.4 0-0.8-0.7-0.8-1.6 0-0.9 0.4-1.6 0.8-1.6s0.8 0.7 0.8 1.6C53.6 33.5 53.3 34.2 52.8 34.2zM64.8 45.3c0-0.6 0.5-1 1-1 0.6 0 1 0.5 1 1s-0.5 1-1 1C65.3 46.3 64.8 45.9 64.8 45.3zM66.9 52.1c-0.6 0-1-0.5-1-1s0.5-1 1-1c0.6 0 1 0.5 1 1S67.5 52.1 66.9 52.1zM64.5 26.1c-3.6 0-3.1 6.5-5 5.9-1.7-0.5-2.1-3-2.1-5 0-3.9 3.2-7.1 7.1-7.1s7.1 3.2 7.1 7.1c0 1.9-0.3 4.6-2.1 5C67.2 32.6 68.1 26.1 64.5 26.1zM71.7 59.5c-0.7 0-1.3-0.6-1.3-1.3 0-0.7 0.6-1.3 1.3-1.3s1.3 0.6 1.3 1.3C73 58.9 72.5 59.5 71.7 59.5zM73.3 52.3c-0.7 0-1.2-0.6-1.2-1.2s0.6-1.2 1.2-1.2 1.2 0.6 1.2 1.2S74 52.3 73.3 52.3zM77 64.8c-0.9 0-1.6-0.7-1.6-1.6 0-0.9 0.7-1.6 1.6-1.6 0.9 0 1.6 0.7 1.6 1.6C78.6 64.1 77.9 64.8 77 64.8zM79.2 58.5c-0.9 0-1.7-0.8-1.7-1.7 0-0.9 0.8-1.7 1.7-1.7 0.9 0 1.7 0.8 1.7 1.7C80.9 57.8 80.1 58.5 79.2 58.5zM79.8 52.1c-0.9 0-1.7-0.8-1.7-1.7s0.8-1.7 1.7-1.7 1.7 0.8 1.7 1.7S80.8 52.1 79.8 52.1zM31.6 69c1.3-0.9 2.6-2 4.6-3.3 0 0 0.8 10.5 0.8 16.7 0.1 6.2 0.9 13.3-0.7 13.3-1.6 0-4.4-9.4-5.4-12.4-1-3-2.8-12.5-2.8-12.5S29.4 70.5 31.6 69zM36.2 65.6L36.2 65.6 36.2 65.6 36.2 65.6zM59.3 62.3c2.1 1.3 3.7 2.4 5.1 3.3 0 0-1.3 3.9-7.2 5-2.7 0.5-6.9 0.5-6.9 0.5s-4.2 0-6.9-0.5c-5.9-1.1-7.2-5-7.2-5 1.3-0.9 3-2 5.1-3.3 5.2-3.2 9-2.9 9-2.9S54.1 59.1 59.3 62.3zM64.3 65.6L64.3 65.6 64.3 65.6 64.3 65.6zM68.9 69c2.2 1.6 3.5 1.8 3.5 1.8s-1.8 9.5-2.8 12.5c-1 3-3.8 12.4-5.4 12.4-1.6 0-0.8-7-0.7-13.3 0.1-6.2 0.8-16.7 0.8-16.7C66.3 67 67.6 68.1 68.9 69z" data-fill-palette-color="accent" style="fill: rgb(255, 255, 255);"/>
                    </svg>
                  </g>
                </svg>
              </g>
            </svg>
          </g>
        </svg>
        <rect width="395.52" height="84.54928351513293" fill="none" stroke="none" visibility="hidden"/>
      </g>
    </svg>
  </g>
</svg>