<?xml version="1.0" encoding="utf-8"?>
<svg viewBox="0 0 128 128" xmlns="http://www.w3.org/2000/svg">
  <path d="M 64.682 71.997 L 37.559 98.695 C 37.254 99 37.286 99.496 37.627 99.748 C 68.545 123.046 113.537 99.161 110.673 60.974 C 107.931 24.426 64.411 5.406 35.911 29.372 C 22.553 40.608 17.109 56.735 20.527 73.783 C 20.715 74.76 21.172 74.899 21.891 74.196 L 30.522 65.639 C 30.909 65.266 31.108 64.809 31.116 64.267 C 31.342 53.408 35.637 44.566 44.003 37.742 C 44.38 37.424 44.946 37.454 45.299 37.808 L 51.241 43.7 C 51.657 44.109 51.63 44.49 51.16 44.846 C 43.525 50.648 40.31 58.379 41.517 68.039 C 41.578 68.485 41.428 68.932 41.111 69.252 L 18.068 92.031 C 17.763 92.333 17.502 92.297 17.285 91.924 C 8.713 77.245 7.02 62.12 12.207 46.552 C 26.524 3.606 85.415 -4.577 111.471 33.357 C 128.922 58.761 121.56 93.297 95.477 109.931 C 71.61 125.153 42.408 120.474 23.026 99.868 C 22.72 99.539 22.728 99.219 23.053 98.908 L 64.574 58.002 C 64.951 57.637 65.33 57.637 65.708 58.002 L 84.524 76.45 C 84.955 76.885 85.313 76.831 85.59 76.29 C 91.894 63.929 89.757 53.408 79.175 44.726 C 78.779 44.397 78.761 44.056 79.121 43.7 L 85.145 37.648 C 85.407 37.382 85.681 37.369 85.969 37.609 C 103.488 52.004 103.866 76.943 85.401 90.565 C 85.097 90.795 84.803 90.773 84.524 90.497 L 65.803 71.997 C 65.435 71.624 65.059 71.624 64.682 71.997 Z" style="fill: rgb(108, 72, 175);" transform="matrix(1, 0, 0, 1, -1.4210854715202004e-14, 0)"/>
</svg>