<?xml version="1.0" encoding="utf-8"?>
<svg viewBox="0 0 650 207" width="650px" height="207px" xmlns="http://www.w3.org/2000/svg">
  <defs>
    <clipPath id="clip0">
      <rect width="38" height="38" fill="white"/>
    </clipPath>
    <linearGradient id="a" x1="-6.2069%" x2="104.83%" y1="24.781%" y2="79.009%" gradientUnits="userSpaceOnUse">
      <stop offset="0"/>
      <stop stop-color="#9d3a80" offset="0.04"/>
      <stop stop-color="#68227a" offset="0.38"/>
      <stop stop-color="#611c7a" offset="0.4"/>
      <stop stop-color="#531c88" offset="0.99"/>
      <stop stop-color="#532084" offset="1"/>
    </linearGradient>
    <linearGradient id="b" x1="2.7586%" x2="85.862%" y1="52.187%" y2="52.187%" gradientUnits="userSpaceOnUse">
      <stop stop-color="#daad3e" offset="0"/>
      <stop stop-color="#e0b441" offset="0.04"/>
      <stop stop-color="#f6de8a" offset="0.13"/>
      <stop stop-color="#f6df8c" offset="0.15"/>
      <stop stop-color="#e9c06d" offset="0.24"/>
      <stop stop-color="#f8e5aa" offset="0.65"/>
      <stop stop-color="#f5da9e" offset="0.67"/>
      <stop stop-color="#faecb7" offset="0.93"/>
      <stop stop-color="#f8edb8" offset="1"/>
    </linearGradient>
  </defs>
  <g transform="matrix(1, 0, 0, 1, -135.10199, -12.07492)" style="visibility: hidden;">
    <svg viewBox="0 0 396 85" data-background-color="#ffffff" preserveAspectRatio="xMidYMid meet" height="214" width="1000" xmlns="http://www.w3.org/2000/svg" transform="matrix(1, 0, 0, 1, 97.70101296600158, -5.999185085296617)">
      <g id="tight-bounds" transform="matrix(1,0,0,1,0.23997110156426515,0.22541133420222081)">
        <svg viewBox="0 0 395.52 84.54928351513293" height="84.54928351513293" width="395.52" transform="matrix(1, 0, 0, 1, 95.70128958587546, 11.14134377077707)">
          <g>
            <svg viewBox="0 0 516.8185839853636 110.47896688730796" height="84.54928351513293" width="395.52">
              <g transform="matrix(1,0,0,1,121.29858398536368,0)">
                <svg viewBox="0 0 395.52 110.47896688730796" height="110.47896688730796" width="395.52">
                  <g id="textblocktransform">
                    <svg viewBox="0 0 395.52 110.47896688730796" height="110.47896688730796" width="395.52" id="textblock">
                      <g>
                        <svg viewBox="0 0 395.52 110.47896688730796" height="110.47896688730796" width="395.52">
                          <g transform="matrix(1,0,0,1,55.76832,26.23066666666667)">
                            <svg width="283.98335999999995" viewBox="0.7099999785423279 -33.38999938964844 163.4399871826172 33.38999938964844" height="58.01763355397462" data-palette-color="#ffffff"/>
                          </g>
                        </svg>
                      </g>
                    </svg>
                  </g>
                </svg>
              </g>
              <g transform="matrix(1,0,0,1,0,4.345506030900772)">
                <svg viewBox="0 0 107.60201312647557 101.78795482550642" height="101.78795482550642" width="107.60201312647557">
                  <g>
                    <svg xmlns="http://www.w3.org/2000/svg" version="1.1" x="0" y="0" viewBox="2.175004005432129 4.651998519897461 96.24860382080078 91.04800415039062" enable-background="new 0 0 100 100" height="101.78795482550642" width="107.60201312647557" class="icon-icon-0" data-fill-palette-color="accent" id="icon-0"/>
                  </g>
                </svg>
              </g>
            </svg>
          </g>
        </svg>
        <rect width="395.52" height="84.54928351513293" fill="none" stroke="none" visibility="hidden"/>
      </g>
    </svg>
  </g>
  <g transform="matrix(0.150914, 0, 0, -0.151615, 208.227036, 192.392944)" fill="#000000" stroke="none" style="">
    <path d="M1614 985 l-25 -25 3 -243 c3 -240 3 -242 30 -292 31 -60 77 -105 136 -134 56 -28 135 -38 167 -21 32 17 47 61 34 99 -11 32 -37 47 -93 55 -21 3 -50 16 -63 28 -50 47 -53 62 -53 293 0 216 0 216 -25 240 -32 33 -78 33 -111 0z" style="fill: rgb(255, 255, 255);"/>
    <path d="M1934 985 l-25 -25 3 -243 c3 -240 3 -242 30 -292 31 -60 77 -105 136 -134 56 -28 135 -38 167 -21 32 17 47 61 34 99 -11 32 -37 47 -93 55 -21 3 -50 16 -63 28 -50 47 -53 62 -53 293 0 216 0 216 -25 240 -32 33 -78 33 -111 0z" style="fill: rgb(255, 255, 255);"/>
    <path d="M255 855 c-25 -24 -25 -25 -25 -217 0 -106 4 -209 10 -228 33 -120 179 -184 291 -127 l44 22 45 -23 c91 -47 206 -12 267 80 l28 41 3 213 3 213 -25 26 c-33 33 -79 33 -111 0 -25 -24 -25 -26 -25 -213 0 -170 -2 -191 -18 -205 -24 -22 -45 -21 -65 1 -14 15 -17 41 -17 146 0 121 -1 128 -25 151 -32 33 -78 33 -110 0 -24 -23 -25 -29 -25 -153 0 -112 -2 -131 -18 -145 -24 -22 -55 -21 -75 1 -15 16 -17 46 -17 206 0 185 0 187 -25 211 -15 16 -36 25 -55 25 -19 0 -40 -9 -55 -25z" style="fill: rgb(255, 255, 255);"/>
    <path d="M1170 871 c-171 -53 -267 -229 -214 -397 14 -47 30 -71 78 -119 77 -77 128 -95 267 -95 141 0 200 28 240 115 16 35 19 67 19 248 0 208 0 208 -25 232 -29 30 -73 32 -107 6 -24 -19 -25 -19 -78 0 -56 19 -135 23 -180 10z m170 -181 c18 -13 39 -38 46 -56 17 -42 19 -185 2 -202 -18 -18 -163 -15 -204 4 -53 25 -79 69 -79 134 0 64 25 107 77 134 44 22 116 16 158 -14z" style="fill: rgb(255, 255, 255);"/>
    <path d="M2264 855 l-26 -26 4 -172 c3 -164 4 -174 30 -222 32 -60 87 -115 148 -146 36 -18 66 -24 148 -27 107 -4 129 -14 102 -47 -10 -12 -45 -15 -192 -15 -177 0 -179 0 -203 -25 -33 -32 -33 -78 0 -110 24 -25 25 -25 217 -25 166 0 199 3 233 19 98 45 139 151 97 246 -17 36 -17 42 -3 70 13 24 17 74 19 242 l3 213 -25 25 c-33 33 -79 33 -111 0 -25 -24 -25 -25 -25 -218 0 -160 -3 -197 -15 -207 -10 -8 -41 -11 -92 -9 -61 3 -85 9 -109 26 -55 39 -64 73 -64 237 0 143 -1 148 -25 171 -32 33 -78 33 -111 0z" style="fill: rgb(255, 255, 255);"/>
  </g>
  <g clip-path="url(#clip0)" transform="matrix(5.45314, 0, 0, 5.45314, 2.978061, 0.23427)" style=""/>
  <g transform="matrix(0.031078, 0, 0, 0.031078, 19.186899, -4.445998)" style="">
    <g style="transform:none" fill="#3d122a">
      <path d="m360 4665v-45h510 510v30c0 31-15 39-34 17-9-9-115-11-483-9l-473 3v24c0 16-6 25-15 25-11 0-15-12-15-45z" fill="url(#a)"/>
    </g>
    <g style="transform:none" fill="#601d7a">
      <path d="m770 6780-55-5-6-100c-10-147-48-237-144-336-61-63-124-107-165-115l-30-6v-408-408l618-4c339-1 651-1 692 2l75 5 70 75c189 204 498 413 767 519 100 39 277 86 400 106 495 78 1128-132 1517-501 125-118 280-323 345-452 126-251 175-483 163-776-9-238-61-459-149-630-33-64-61-101-138-176-82-81-121-110-270-199-474-282-669-440-798-646-43-69-128-249-202-430-68-165-164-356-232-462-121-186-310-368-485-465-62-35-112-67-113-71 0-4 14-22 30-40 17-18 36-49 42-70 15-48 4-57-72-57-71-1-99-23-112-88-26-135 48-234 131-176 12 9 44 24 71 34 46 17 49 17 79-2 25-16 36-18 63-9 18 6 44 13 58 16 55 12 314 243 440 393 25 30 54 64 65 76s31 37 45 56c14 18 30 38 36 45 6 6 19 25 28 43s21 32 26 32c6 0 10 5 10 12s11 28 24 47c62 94 116 181 116 186s126 236 150 275c6 8 17 29 25 45 22 43 97 162 113 181 5 5 15 21 22 35 7 13 16 26 19 29s23 31 44 63c38 58 51 74 122 156 55 63 242 248 296 293 24 20 58 48 74 62 17 15 50 43 74 64 24 20 56 48 71 62 164 150 239 220 264 249 46 50 85 95 94 106 4 6 21 26 37 46 17 20 41 51 55 69s34 44 46 59c39 48 158 278 170 326 4 17 11 36 16 42 12 15 47 140 59 208 26 156 31 215 40 475 13 398 8 1822-7 1841-7 8-18 34-25 58-9 30-33 64-78 111-59 60-83 76-186 122-21 9-4335 17-4435 8z" fill="url(#a)"/>
      <path d="m3115 5925c-49-8-100-17-112-20l-23-5v-663-664l-80-17c-301-64-508-320-510-626 0-77 34-233 64-294 121-242 361-386 645-386 118 0 196 15 286 55 183 81 325 228 386 401 27 75 38 277 20 362-17 77-85 211-138 272-24 27-72 70-106 96-61 47-172 104-202 104-11 0-15 11-16 38 0 20-1 328-2 684-2 472-6 651-14 659-18 18-99 20-198 4zm-158-1730c12-8 24-29 28-45 6-26 1-37-37-79-120-133-70-315 97-352 135-30 250 52 262 189 8 87-10 141-63 194-24 23-44 49-44 55 0 7 14 20 30 28 90 46 205-57 217-194 25-281-260-499-504-387-108 49-200 168-218 283-8 53 16 153 53 213 28 46 110 110 141 110 9 0 26-7 38-15z"/>
      <path d="m440 4871-75-6-3-88c-2-60 1-87 8-82 6 4 10-4 10-19v-25l483-3c410-3 484-1 495 11 8 10 12 11 12 3 0-7 5-12 10-12 6 0 10 10 10 23 0 12 9 54 20 92s20 80 20 92v23l-457-2c-252-1-492-4-533-7z" fill="url(#a)"/>
      <path d="m1120 3927c0-8-16-28-35-46-30-27-40-31-74-25-35 6-43 2-94-42-54-47-56-51-51-88 3-24 18-55 41-82 33-41 35-46 23-74-7-17-35-50-62-74l-48-42 9-65c5-38 5-68 0-73-5-6-9-43-9-84 0-60 4-78 18-88 25-19 76-17 95 4 21 23 76 18 94-8 8-11 32-19 69-23 31-3 61-10 66-15 16-16-59-72-97-72-18 0-37-5-41-11-4-7-24-9-55-6l-48 6 1-45c0-32 8-55 30-85l29-41-25-33c-14-19-26-37-26-41s21-29 46-56c50-53 49-50 23-150-12-45-11-48 17-82l29-35h703l702-1v39c0 61-28 208-56 290-33 97-101 238-155 321-67 104-233 291-427 482-159 157-302 322-302 349 0 5-80 9-195 9-156 0-195-3-195-13z" fill="url(#a)"/>
      <path d="m5384 2712c-61-59-124-119-140-133s-87-88-159-164c-71-76-150-160-175-186s-67-73-95-104c-27-32-54-63-60-69-5-6-33-42-62-81-29-38-61-81-72-95-69-89-101-132-136-187-22-35-43-63-47-63-5 0-8-6-8-13s-8-22-17-33c-10-11-35-45-57-77-21-31-42-57-47-57s-9-6-9-12c0-14-118-175-182-249-21-24-51-62-67-84-30-41-42-55-75-93-18-21-18-21 10-46 18-15 48-27 77-31 47-7 48-8 42-36-9-38 10-38 73 1l47 29 17-22c10-12 18-27 18-33 0-5 16-25 35-44s35-37 35-40-18-34-40-68c-22-33-40-69-40-79 1-25 24-53 44-53 28 0 96 24 96 35 1 19 70 45 119 45 31 0 53 5 61 15 7 8 17 15 22 15 11 0 63-36 99-67 23-21 29-22 75-12 88 20 124 17 156-13 49-46 120-88 149-88 22 0 35 10 58 44 17 24 37 46 46 49 8 4 15 13 15 20 0 10 19 16 61 21 50 5 65 11 83 33 27 34 34 52 35 84 1 29 41 72 58 61 12-8 63-114 63-131 0-6 5-11 10-11 12 0 14 2116 2 2124-4 2-58-43-118-102z" style="fill: rgb(96, 28, 123);"/>
    </g>
    <g style="transform:none" fill="#95347d">
      <path d="m523 3932-153-3-1-542c-1-298-3-607-6-687-2-80-2-169 2-197l6-53h345c256 0 343 3 341 12-1 6-15 23-31 38l-30 27 21 60c24 71 17 97-40 152l-36 34 58 74-30 41c-17 24-32 58-34 79l-4 38 46-4c24-2 50 2 56 8s26 11 44 11c37 0 106 53 101 78-4 18-36 30-90 31-24 1-42 8-50 19-7 11-31 22-54 25-34 6-44 3-59-13-21-23-52-25-77-6-14 10-18 28-18 78 0 35 5 69 10 74 7 7 7 32 1 75l-9 64 40 34c48 41 91 107 82 124-4 7-22 30-39 52-18 22-35 54-38 70-5 27 0 35 49 78 50 43 57 47 93 41 34-5 43-2 74 26 19 17 37 40 40 50 4 17-7 18-227 17-127-1-300-3-383-5z" fill="url(#a)"/>
      <path d="m367 1678c1-35 4-198 6-363 3-251 6-306 19-333 9-17 20-46 23-64 8-34 53-123 88-173 30-42 114-125 127-125 5 0 10-3 10-7 0-15 185-113 212-113 9 0 19-4 22-9s27-12 52-16c26-4 54-11 63-15 9-5 101-17 206-26 198-18 184-18 540 16 108 11 223 31 241 42 6 4 31 10 55 13 24 4 61 13 82 21 20 8 51 14 67 14s31 4 34 9 23 12 43 15c21 4 52 13 68 21 65 30 125 55 132 55 5 1 26 9 48 20s46 19 53 20c6 0 12 5 12 10 0 6 5 10 11 10 16 0 101 42 117 58 7 6 20 12 28 12s14 5 14 10c0 6 6 10 14 10s21 6 28 14c8 7 24 17 36 20 12 4 22 12 22 17s6 9 14 9c13 0 87 59 76 61-3 0-14 2-24 4-11 2-31-2-45-10-23-12-30-11-58 6-31 19-34 19-80 4-26-9-62-25-79-36-42-25-59-24-88 7-29 32-39 85-27 148s41 87 106 85c69-2 94 8 90 34-4 35-31 90-58 118-14 15-23 30-20 33 11 11-11 6-64-14-137-52-329-72-476-49-207 32-456 195-641 419l-67 80h-517-518l3-62z" fill="url(#a)"/>
      <path d="m3913 941c-65-69-100-109-133-149-14-17-28-31-31-32-4 0-34-26-67-57-34-32-67-62-74-68-7-5-42-35-78-66-59-51-165-132-220-169-12-8-28-21-36-28-7-6-16-12-19-12-4 0-24-12-44-27-48-37-72-52-93-59-10-4-18-10-18-14s-11-11-25-14c-14-4-25-11-25-16s-16-12-35-16c-19-3-35-10-35-15s-8-9-18-9c-11 0-29-9-42-20s-31-20-42-20c-10 0-18-5-18-11 0-8 52-9 193-3 105 4 636 8 1178 9l986 2 49 24c72 35 179 146 203 211 7 18 18 44 24 57 7 14 12 76 12 150 0 118-2 130-28 185-39 82-54 92-89 58-16-14-28-37-29-51-1-32-8-50-35-84-18-22-33-28-83-33-42-5-61-11-61-21 0-7-7-16-15-20-9-3-29-25-46-49-16-24-38-44-48-44-21 0-97 49-142 91-18 17-38 28-44 25-7-2-17 0-22 5-6 6-20 6-39-2-56-22-103-27-115-12-21 24-99 73-118 73-10 0-24-7-31-15-8-10-30-15-61-15-49 0-118-26-119-45 0-6-20-17-45-24-42-12-47-12-60 5-20 26-20 28 25 96 22 34 40 69 40 78s-14 29-31 46c-17 16-38 44-46 62-9 19-22 36-29 39-8 3-36-9-64-26s-52-31-53-31c-2 0-2 13 1 29 4 28 2 29-47 36-27 4-55 13-62 21-29 36-43 32-96-25z" style="fill: rgb(96, 28, 123);"/>
    </g>
    <g style="transform:none" fill="#dfb046">
      <path d="m2955 6110c-211-37-372-91-560-189-217-112-433-273-580-431-77-82-103-100-146-100-30 0-54-30-31-38 7-2 4-14-8-35-10-18-26-54-36-82-9-27-36-85-61-128-24-43-43-88-41-99 2-12 18-29 38-39 31-16 71-18 385-20 304-2 360 0 425 16 103 24 169 58 255 132 78 66 106 112 157 253 20 58 23 83 23 235 0 167 4 195 28 195 22 0 155 68 178 91 28 28 127 47 294 57 181 10 337 5 405-12 130-33 284-149 411-308 85-106 108-149 155-284 55-162 64-233 43-379-24-177-99-320-203-389-95-63-168-88-286-96-121-9-166-18-179-34-21-26-15-53 22-96 59-69 113-175 137-267 10-40 13-43 44-43 99 0 285 54 412 120 78 39 195 139 255 216 64 83 124 198 142 274 66 268 72 402 32 687l-24 178-111 107c-273 265-662 451-1075 513-135 20-371 18-500-5z"/>
      <path d="m376 4981c4-38 4-81 0-95-6-25-10-26-72-26-75 0-127-20-152-58-15-23-16-66-14-416 3-326 6-395 18-414 25-39 136-77 158-55 4 4 88 6 186 4 121-2 180 1 184 8 5 8-13 11-58 11-57 0-66 2-66 18 0 10-4 22-8 27-18 20-33 98-27 135 5 31 2 43-14 59-12 12-33 47-46 77-23 51-25 70-25 193 0 168-3 181-41 181h-29v115 115h74c41 0 78 5 81 10 4 6-8 10-28 10-30 0-35 4-43 33-7 22-17 33-32 35-16 3-22 10-22 30 0 37-11 72-21 72-5 0-6-31-3-69z" fill="url(#b)"/>
      <path d="m3219 4195c-46-25-44-43 8-96 26-27 53-63 59-81l11-33 166-6-7 41c-21 135-145 225-237 175z"/>
      <path d="m237 2832c-39-10-85-57-96-100-5-20-9-170-9-332s-4-347-8-410c-6-97-4-121 9-147 35-67 118-105 186-84 34 10 42 18 56 56 19 48 17 69-16 151-19 47-19 59-8 190 6 76 12 170 12 207 1 40 7 71 14 75 9 5 9 19 3 47-5 22-10 109-10 193v152h-24c-13 0-36 2-52 4s-41 1-57-2z" fill="url(#b)"/>
    </g>
    <g style="transform:none" fill="#f1d48b">
      <path d="m610 6770c0-5-9-10-19-10-11 0-26-7-35-15-8-8-17-15-21-15-13 0-83-78-120-134l-39-59-4-168-5-168 39 10c84 24 207 138 259 241 38 77 53 140 57 251l3 77h-57c-32 0-58-4-58-10z"/>
      <path d="m3385 5946c-5-3-32-7-58-11-43-6-47-8-31-20 17-12 18-51 20-661 2-357 3-666 3-686 1-27 5-38 16-38 31 0 145-59 208-109 37-28 69-51 72-51s5 8 5 19c0 38 32 49 185 60 288 22 452 183 494 486 22 153 13 237-43 399-47 135-70 178-155 284-126 157-280 274-407 307-54 14-287 30-309 21z" fill="url(#b)"/>
      <path d="m2925 5850c-27-17-70-37-95-47-25-9-49-20-55-25s-10-79-10-181c-1-154-3-179-24-237-49-141-78-187-156-253-86-74-152-108-255-132-106-25-735-23-788 2-19 9-36 22-39 29-2 6 14 44 36 83 43 77 83 161 75 161-7 0 35 78 46 85 16 10 12 25-7 25-29 0-3 15 29 16 16 1 37 8 45 16 12 13-71 15-672 17l-686 2 5-193c5-239 11-276 39-280 14-2 24-14 31-35l9-33h483c367 0 484-3 484-12 0-6-9-44-19-82-11-39-22-88-26-108l-6-38h-487c-311 0-482-4-472-10 12-7 16-40 18-166 3-151 5-159 34-221 16-36 36-67 44-70 10-4 12-16 8-44-7-39 10-122 29-146 5-7 7-20 3-28-6-17 94-19 657-15 200 1 297-1 297-8 0-28 140-191 302-350 194-191 360-378 427-482 54-83 122-224 155-321 26-76 56-228 56-280v-29h-1027c-633 0-1034-4-1043-10-11-7-16-29-17-77-1-37-7-135-13-216-11-141-11-151 9-200 29-72 31-96 14-139-12-30-23-40-53-49-34-10-44-9-87 12-27 13-58 39-72 59-22 33-23 40-16 145 7 101 8 406 1 413-2 1-6-118-10-266-9-327-4-354 73-394 32-18 92-24 104-12 3 3 248 6 544 5l538-1 45-52c212-251 457-414 667-447 162-25 363-3 518 58 222 86 471 299 623 534 68 106 164 297 232 462 74 181 159 361 202 430 129 206 324 364 798 646 149 89 188 118 270 199 77 75 105 112 138 176 90 175 140 393 149 640 11 306-36 532-163 786-63 126-275 411-239 321 4-10 18-92 31-183 38-267 32-395-33-660-44-182-222-400-402-493-99-51-234-95-337-109l-91-12-5-126c-4-93-11-140-27-184-63-177-208-325-397-405-99-42-176-54-301-49-238 12-425 117-557 313-53 79-80 157-98 279-16 115 4 242 57 351 55 115 160 222 277 280 51 25 122 51 168 61l80 17v659c0 362-3 658-7 657-5 0-30-13-58-29z" fill="url(#b)"/>
      <path d="m2844 4188c-86-58-143-193-129-303 14-117 106-239 218-291 117-54 274-34 377 47 91 72 149 194 150 312v37h-80-80v-42c0-103-54-185-142-214-98-32-206 16-249 111-34 73-18 142 49 216 40 45 44 53 39 87-13 76-75 92-153 40z" fill="url(#b)"/>
    </g>
  </g>
</svg>