<?xml version="1.0" encoding="utf-8"?>
<svg viewBox="199.452 228.467 800.069 801.033" xmlns="http://www.w3.org/2000/svg" xmlns:bx="https://boxy-svg.com">
  <g bx:origin="0.390651 0.401586">
    <path style="opacity:0.996" fill="#5e5757" d="M 832.5 930.5 C 839.009 902.798 845.676 875.131 852.5 847.5 C 906.858 796.068 790.775 867.757 766.751 796.523 C 737.315 733.704 822.574 612.144 753.01 608.963 C 731.613 609.306 720.739 923.571 700.802 931.228 C 698.931 930.869 598.994 785.318 597.865 783.677 C 571.525 748.932 621.827 524.589 578.5 531 C 553.123 537.728 532.623 551.562 517 572.5 C 515.871 574.141 514.371 575.141 512.5 575.5 C 451.777 553.292 396.11 562.125 345.5 602 C 295.572 648.19 279.072 704.356 296 770.5 C 307.115 805.08 327.282 833.08 356.5 854.5 C 363.148 881.092 369.481 907.759 375.5 934.5 C 326.258 916.479 284.091 888.146 249 849.5 C 220.016 814.84 203.683 774.84 200 729.5 C 196.953 648.922 206.62 569.922 229 492.5 C 284.223 317.839 403.723 229.839 587.5 228.5 C 651.12 227.802 712.787 238.302 772.5 260 C 854.05 292.549 913.217 348.716 950 428.5 C 974.86 484.938 989.86 543.938 995 605.5 C 999.04 646.744 1000.37 688.078 999 729.5 C 993.216 790.242 967.05 840.075 920.5 879 C 893.828 900.51 864.495 917.677 832.5 930.5 Z"/>
    <path style="opacity: 0.996; fill: rgb(121, 119, 129);" d="M 592.228 228.533 C 608.489 228.162 597.748 271.535 600.292 399.643 C 601.674 469.249 602.397 874.776 582.097 877.78 C 556.72 884.508 481.235 887.7 465.612 908.638 C 464.483 910.279 483.171 606.631 481.3 606.99 C 420.577 584.782 397.328 586.73 346.718 626.605 C 296.79 672.795 279.12 704.389 296.048 770.533 C 307.163 805.113 327.33 833.113 356.548 854.533 C 363.196 881.125 369.529 907.792 375.548 934.533 C 326.306 916.512 284.139 888.179 249.048 849.533 C 220.064 814.873 203.731 774.873 200.048 729.533 C 197.001 648.955 206.668 569.955 229.048 492.533 C 284.271 317.872 408.494 232.725 592.228 228.533 Z"/>
  </g>
  <g>
    <path style="opacity:1" fill="#262525" d="M 428.5,403.5 C 447.029,403.846 461.195,411.846 471,427.5C 485.222,454.25 487.222,481.916 477,510.5C 470.182,528.989 457.349,540.822 438.5,546C 420.795,547.064 406.961,540.231 397,525.5C 383.578,503.559 379.244,479.892 384,454.5C 387.878,436.899 396.711,422.399 410.5,411C 416.167,407.397 422.167,404.897 428.5,403.5 Z"/>
  </g>
  <g>
    <path style="opacity:1" fill="#262525" d="M 760.5,403.5 C 780.923,403.628 796.089,412.628 806,430.5C 816.857,452.471 819.523,475.471 814,499.5C 809.794,516.092 800.961,529.592 787.5,540C 764.976,551.162 746.143,546.662 731,526.5C 711.875,494.952 710.541,462.618 727,429.5C 734.874,416.444 746.041,407.778 760.5,403.5 Z"/>
  </g>
  <g>
    <path style="opacity:1" fill="#fbfbfb" d="M 441.5,429.5 C 455.099,427.713 464.599,433.046 470,445.5C 472.385,463.784 464.385,473.784 446,475.5C 435.371,473.692 428.371,467.692 425,457.5C 423.642,444.044 429.142,434.711 441.5,429.5 Z"/>
  </g>
  <g>
    <path style="opacity:1" fill="#fcfcfc" d="M 775.5,429.5 C 795.857,428.688 805.023,438.354 803,458.5C 796.709,473.451 785.875,478.284 770.5,473C 758.449,464.842 755.283,454.009 761,440.5C 764.857,435.468 769.69,431.801 775.5,429.5 Z"/>
  </g>
  <g>
    <path style="opacity:1" fill="#282727" d="M 350.5,740.5 C 358.219,739.014 362.886,742.014 364.5,749.5C 364.096,756.071 360.596,759.404 354,759.5C 349.667,759.5 346.667,757.5 345,753.5C 343.571,747.7 345.404,743.367 350.5,740.5 Z"/>
  </g>
  <g>
    <path style="opacity:1" fill="#282727" d="M 846.5,745.5 C 856.534,744.393 861.034,748.726 860,758.5C 857.081,764.025 852.581,765.858 846.5,764C 838.565,757.838 838.565,751.671 846.5,745.5 Z"/>
  </g>
  <g>
    <path style="opacity:1" fill="#272626" d="M 388.5,756.5 C 398.876,755.706 403.043,760.373 401,770.5C 394.508,777.425 388.508,777.092 383,769.5C 382.333,766.833 382.333,764.167 383,761.5C 384.73,759.598 386.563,757.931 388.5,756.5 Z"/>
  </g>
  <g>
    <path style="opacity:1" fill="#272626" d="M 809.5,761.5 C 819.008,760.84 823.175,765.173 822,774.5C 819.232,780.172 814.732,782.006 808.5,780C 806.333,779.167 804.833,777.667 804,775.5C 802.025,769.177 803.858,764.51 809.5,761.5 Z"/>
  </g>
  <g>
    <path style="opacity:1" fill="#282727" d="M 355.5,778.5 C 365.536,778.032 369.702,782.699 368,792.5C 363.737,799.157 358.403,800.157 352,795.5C 347.861,788.598 349.027,782.931 355.5,778.5 Z"/>
  </g>
  <g>
    <path style="opacity:1" fill="#272626" d="M 841.5,784.5 C 850.995,783.17 855.495,787.17 855,796.5C 852.897,802.469 848.73,804.636 842.5,803C 836.975,800.081 835.142,795.581 837,789.5C 838.025,787.313 839.525,785.646 841.5,784.5 Z"/>
  </g>
  <g>
    <path style="opacity: 0.986; fill: rgb(237, 237, 237);" d="M 852.5,847.5 C 845.676,875.131 839.009,902.798 832.5,930.5C 824.804,963.617 816.637,996.617 808,1029.5C 801.688,1001.92 795.855,974.255 790.5,946.5C 785.845,925.573 781.512,904.573 777.5,883.5C 777.5,882.5 777.5,881.5 777.5,880.5C 805.559,876.051 830.392,864.718 852,846.5C 852.399,846.728 852.565,847.062 852.5,847.5 Z"/>
  </g>
  <g>
    <path style="opacity: 0.986; paint-order: stroke; fill: rgb(237, 237, 237);" d="M 356.5,854.5 C 377.839,869.563 401.506,879.063 427.5,883C 428.756,883.417 429.423,884.25 429.5,885.5C 425.49,906.558 421.157,927.558 416.5,948.5C 411.442,975.725 405.609,1002.73 399,1029.5C 391.006,997.857 383.173,966.19 375.5,934.5C 369.481,907.759 363.148,881.092 356.5,854.5 Z"/>
  </g>
  <path style="opacity:0.996" fill="#5e5757" d="M 777.5 883.5 C 781.512 904.573 785.845 925.573 790.5 946.5 C 680.233 977.698 568.9 981.865 456.5 959 C 442.964 956.117 429.631 952.617 416.5 948.5 C 421.157 927.558 425.49 906.558 429.5 885.5 C 430.156 884.722 430.989 884.056 432 883.5 C 449.939 885.278 467.772 884.444 485.5 881 C 539.547 867.445 574.37 797.837 596.99 747.058 C 600.897 755.206 592.686 732.882 597.112 740.734 C 635.898 796.958 705.286 889.058 773.5 881.5 C 775.114 881.803 776.448 882.47 777.5 883.5 Z"/>
  <path style="fill:#D8CCBC;" d="M 776.211 575.803 C 684.616 575.803 610.361 648.468 610.361 738.103 C 610.361 827.737 684.616 900.403 776.211 900.403 L 942.061 900.403 L 942.061 738.103 C 942.061 648.468 867.806 575.803 776.211 575.803 Z"/>
  <g transform="matrix(1, 0, 0, 1, 3.498123, 9.279679)">
    <path style="fill: rgb(235, 228, 221);" d="M 437.45 562.707 C 345.855 562.707 271.598 635.374 271.598 725.012 L 271.598 887.315 L 437.45 887.315 C 529.045 887.315 603.302 814.648 603.302 725.012 C 603.302 635.374 529.045 562.707 437.45 562.707 Z"/>
    <path style="fill: rgb(88, 87, 93);" d="M 690.959 516.815 C 675.531 564.417 634.191 616.9 597.03 617.698 C 559.87 616.898 518.528 564.417 503.101 516.815 C 495.973 492.493 514.397 472.364 544.194 472.045 C 579.418 472.045 614.643 472.045 649.864 472.045 C 679.665 472.364 698.085 492.489 690.959 516.815 Z"/>
    <path style="fill: rgb(69, 68, 73);" d="M 649.864 472.045 C 632.251 472.045 614.64 472.045 597.028 472.045 L 597.028 617.7 C 634.188 616.9 675.529 564.419 690.956 516.818 C 698.085 492.489 679.665 472.364 649.864 472.045 Z"/>
  </g>
</svg>