<?xml version="1.0" encoding="utf-8"?>
<svg version="1.1" width="650px" height="207px" viewBox="0 0 650 207" xmlns="http://www.w3.org/2000/svg">
  <defs>
    <clipPath id="clip0">
      <rect width="38" height="38" fill="white"/>
    </clipPath>
  </defs>
  <g transform="matrix(1, 0, 0, 1, -135.10199, -12.07492)" style="visibility: hidden;">
    <svg viewBox="0 0 396 85" data-background-color="#ffffff" preserveAspectRatio="xMidYMid meet" height="214" width="1000" xmlns="http://www.w3.org/2000/svg" transform="matrix(1, 0, 0, 1, 97.70101296600158, -5.999185085296617)">
      <g id="tight-bounds" transform="matrix(1,0,0,1,0.23997110156426515,0.22541133420222081)">
        <svg viewBox="0 0 395.52 84.54928351513293" height="84.54928351513293" width="395.52" transform="matrix(1, 0, 0, 1, 95.70128958587546, 11.14134377077707)">
          <g>
            <svg viewBox="0 0 516.8185839853636 110.47896688730796" height="84.54928351513293" width="395.52">
              <g transform="matrix(1,0,0,1,121.29858398536368,0)">
                <svg viewBox="0 0 395.52 110.47896688730796" height="110.47896688730796" width="395.52">
                  <g id="textblocktransform">
                    <svg viewBox="0 0 395.52 110.47896688730796" height="110.47896688730796" width="395.52" id="textblock">
                      <g>
                        <svg viewBox="0 0 395.52 110.47896688730796" height="110.47896688730796" width="395.52">
                          <g transform="matrix(1,0,0,1,55.76832,26.23066666666667)">
                            <svg width="283.98335999999995" viewBox="0.7099999785423279 -33.38999938964844 163.4399871826172 33.38999938964844" height="58.01763355397462" data-palette-color="#ffffff"/>
                          </g>
                        </svg>
                      </g>
                    </svg>
                  </g>
                </svg>
              </g>
              <g transform="matrix(1,0,0,1,0,4.345506030900772)">
                <svg viewBox="0 0 107.60201312647557 101.78795482550642" height="101.78795482550642" width="107.60201312647557">
                  <g>
                    <svg xmlns="http://www.w3.org/2000/svg" version="1.1" x="0" y="0" viewBox="2.175004005432129 4.651998519897461 96.24860382080078 91.04800415039062" enable-background="new 0 0 100 100" height="101.78795482550642" width="107.60201312647557" class="icon-icon-0" data-fill-palette-color="accent" id="icon-0"/>
                  </g>
                </svg>
              </g>
            </svg>
          </g>
        </svg>
        <rect width="395.52" height="84.54928351513293" fill="none" stroke="none" visibility="hidden"/>
      </g>
    </svg>
  </g>
  <g transform="matrix(0.150914, 0, 0, -0.151615, 208.227036, 192.392944)" fill="#000000" stroke="none" style="">
    <path d="M1614 985 l-25 -25 3 -243 c3 -240 3 -242 30 -292 31 -60 77 -105 136 -134 56 -28 135 -38 167 -21 32 17 47 61 34 99 -11 32 -37 47 -93 55 -21 3 -50 16 -63 28 -50 47 -53 62 -53 293 0 216 0 216 -25 240 -32 33 -78 33 -111 0z" style="fill: rgb(255, 255, 255);"/>
    <path d="M1934 985 l-25 -25 3 -243 c3 -240 3 -242 30 -292 31 -60 77 -105 136 -134 56 -28 135 -38 167 -21 32 17 47 61 34 99 -11 32 -37 47 -93 55 -21 3 -50 16 -63 28 -50 47 -53 62 -53 293 0 216 0 216 -25 240 -32 33 -78 33 -111 0z" style="fill: rgb(255, 255, 255);"/>
    <path d="M255 855 c-25 -24 -25 -25 -25 -217 0 -106 4 -209 10 -228 33 -120 179 -184 291 -127 l44 22 45 -23 c91 -47 206 -12 267 80 l28 41 3 213 3 213 -25 26 c-33 33 -79 33 -111 0 -25 -24 -25 -26 -25 -213 0 -170 -2 -191 -18 -205 -24 -22 -45 -21 -65 1 -14 15 -17 41 -17 146 0 121 -1 128 -25 151 -32 33 -78 33 -110 0 -24 -23 -25 -29 -25 -153 0 -112 -2 -131 -18 -145 -24 -22 -55 -21 -75 1 -15 16 -17 46 -17 206 0 185 0 187 -25 211 -15 16 -36 25 -55 25 -19 0 -40 -9 -55 -25z" style="fill: rgb(255, 255, 255);"/>
    <path d="M1170 871 c-171 -53 -267 -229 -214 -397 14 -47 30 -71 78 -119 77 -77 128 -95 267 -95 141 0 200 28 240 115 16 35 19 67 19 248 0 208 0 208 -25 232 -29 30 -73 32 -107 6 -24 -19 -25 -19 -78 0 -56 19 -135 23 -180 10z m170 -181 c18 -13 39 -38 46 -56 17 -42 19 -185 2 -202 -18 -18 -163 -15 -204 4 -53 25 -79 69 -79 134 0 64 25 107 77 134 44 22 116 16 158 -14z" style="fill: rgb(255, 255, 255);"/>
    <path d="M2264 855 l-26 -26 4 -172 c3 -164 4 -174 30 -222 32 -60 87 -115 148 -146 36 -18 66 -24 148 -27 107 -4 129 -14 102 -47 -10 -12 -45 -15 -192 -15 -177 0 -179 0 -203 -25 -33 -32 -33 -78 0 -110 24 -25 25 -25 217 -25 166 0 199 3 233 19 98 45 139 151 97 246 -17 36 -17 42 -3 70 13 24 17 74 19 242 l3 213 -25 25 c-33 33 -79 33 -111 0 -25 -24 -25 -25 -25 -218 0 -160 -3 -197 -15 -207 -10 -8 -41 -11 -92 -9 -61 3 -85 9 -109 26 -55 39 -64 73 -64 237 0 143 -1 148 -25 171 -32 33 -78 33 -111 0z" style="fill: rgb(255, 255, 255);"/>
  </g>
  <g clip-path="url(#clip0)" transform="matrix(5.45314, 0, 0, 5.45314, 2.978061, 0.23427)" style="">
    <path fill-rule="evenodd" clip-rule="evenodd" d="M 1.294 6.484 C 0 9.025 0 12.35 0 19 C 0 25.65 0 28.975 1.294 31.516 C 2.434 33.749 4.251 35.566 6.484 36.706 C 9.025 38 12.35 38 19 38 C 25.65 38 28.975 38 31.516 36.706 C 33.749 35.566 35.566 33.749 36.706 31.516 C 38 28.975 38 25.65 38 19 C 38 12.35 38 9.025 36.706 6.484 C 35.566 4.251 33.749 2.434 31.516 1.294 C 28.975 0 25.65 0 19 0 C 12.35 0 9.025 0 6.484 1.294 C 4.251 2.434 2.434 4.251 1.294 6.484 Z" style="fill: rgb(108, 72, 175);"/>
  </g>
  <path d="M 189.844 126.499 C 189.669 126.324 184.232 120.536 179.146 116.503 C 174.938 113.171 169.501 110.716 167.572 109.839 C 165.818 101.947 162.837 95.809 162.837 95.809 C 162.837 95.809 164.239 59.858 147.93 43.021 C 131.62 26.187 105.841 28.291 105.841 28.291 C 105.841 28.291 79.887 26.187 63.752 43.021 C 47.442 59.858 48.845 95.809 48.845 95.809 C 48.845 95.809 45.864 101.947 44.11 109.839 C 42.006 110.716 36.745 113.171 32.536 116.503 C 27.45 120.536 22.013 126.148 21.838 126.499 C 21.312 127.025 21.312 128.078 21.838 128.603 C 22.189 128.954 22.54 128.954 22.891 128.954 C 23.241 128.954 23.768 128.779 23.942 128.429 C 23.942 128.429 29.379 122.641 34.29 118.783 C 37.271 116.503 40.953 114.574 43.409 113.347 C 42.707 117.556 42.532 121.94 43.409 125.973 C 41.13 127.727 37.972 130.358 35.517 133.163 C 31.308 138.074 27.099 144.738 26.924 145.089 C 26.573 145.79 26.749 146.667 27.45 147.193 C 27.626 147.368 27.976 147.368 28.151 147.368 C 28.678 147.368 29.204 147.193 29.379 146.667 C 29.379 146.667 33.588 140.003 37.622 135.267 C 39.551 132.987 42.181 130.708 44.11 129.129 C 45.338 132.111 47.267 134.916 50.073 137.021 C 48.319 139.125 45.514 142.984 43.584 146.842 C 40.779 152.629 38.499 160.17 38.323 160.521 C 38.148 161.223 38.499 162.099 39.376 162.45 C 39.551 162.45 39.726 162.45 39.726 162.45 C 40.428 162.45 40.953 162.099 41.13 161.398 C 41.13 161.398 43.409 153.857 46.215 148.245 C 48.144 144.387 50.95 140.529 52.528 138.6 C 61.121 142.458 72.521 134.391 81.289 127.2 C 93.74 117.028 105.315 118.081 105.315 118.081 C 105.315 118.081 117.065 117.028 129.34 127.2 C 138.285 134.391 149.508 142.458 158.102 138.6 C 159.68 140.529 162.662 144.387 164.416 148.245 C 167.221 153.857 169.501 161.398 169.501 161.398 C 169.676 162.099 170.203 162.45 170.904 162.45 C 171.079 162.45 171.254 162.45 171.254 162.45 C 171.956 162.275 172.482 161.398 172.307 160.521 C 172.132 160.17 169.852 152.629 167.046 146.842 C 165.117 142.984 162.311 139.125 160.557 137.021 C 163.538 134.916 165.467 132.286 166.519 129.129 C 168.624 130.708 171.079 132.987 173.008 135.267 C 177.042 140.003 181.25 146.667 181.25 146.667 C 181.601 147.193 181.952 147.368 182.478 147.368 C 182.829 147.368 183.005 147.368 183.18 147.193 C 183.881 146.842 184.057 145.79 183.706 145.089 C 183.531 144.738 179.322 138.249 175.112 133.163 C 172.658 130.182 169.501 127.551 167.221 125.973 C 168.098 121.94 167.923 117.379 167.221 113.347 C 169.676 114.574 173.359 116.503 176.34 118.783 C 181.25 122.641 186.687 128.252 186.687 128.429 C 187.038 128.779 187.388 128.954 187.739 128.954 C 188.09 128.954 188.442 128.779 188.792 128.603 C 190.37 128.078 190.546 127.2 189.844 126.499 Z M 54.808 105.454 C 56.387 105.454 57.79 106.857 57.79 108.436 C 57.79 110.014 56.387 111.417 54.808 111.417 C 53.229 111.417 51.826 110.014 51.826 108.436 C 51.826 106.857 53.054 105.454 54.808 105.454 Z M 52.879 119.659 C 52.879 118.081 54.282 116.678 55.86 116.678 C 57.439 116.678 58.841 118.081 58.841 119.659 C 58.841 121.238 57.439 122.641 55.86 122.641 C 54.282 122.641 52.879 121.413 52.879 119.659 Z M 59.718 133.689 C 58.141 133.689 56.912 132.462 56.912 130.883 C 56.912 129.306 58.141 128.078 59.718 128.078 C 61.297 128.078 62.525 129.306 62.525 130.883 C 62.525 132.462 61.297 133.689 59.718 133.689 Z M 68.312 94.056 C 69.539 94.056 70.416 95.108 70.416 96.159 C 70.416 97.212 69.364 98.264 68.312 98.264 C 67.26 98.264 66.207 97.212 66.207 96.159 C 66.207 95.108 67.084 94.056 68.312 94.056 Z M 63.927 109.663 C 63.927 108.436 64.979 107.559 66.032 107.559 C 67.084 107.559 68.136 108.611 68.136 109.663 C 68.136 110.716 67.084 111.768 66.032 111.768 C 64.979 111.768 63.927 110.716 63.927 109.663 Z M 69.014 124.394 C 67.785 124.394 66.733 123.343 66.733 122.114 C 66.733 120.887 67.785 119.835 69.014 119.835 C 70.24 119.835 71.293 120.887 71.293 122.114 C 71.293 123.343 70.24 124.394 69.014 124.394 Z M 77.431 111.417 C 76.379 111.417 75.677 110.54 75.677 109.663 C 75.677 108.786 76.554 107.91 77.431 107.91 C 78.483 107.91 79.185 108.786 79.185 109.663 C 79.185 110.54 78.483 111.417 77.431 111.417 Z M 79.185 101.246 C 78.133 101.246 77.431 100.368 77.431 99.492 C 77.431 98.615 78.308 97.738 79.185 97.738 C 80.237 97.738 80.938 98.615 80.938 99.492 C 80.938 100.368 80.237 101.246 79.185 101.246 Z M 89.532 76.168 C 86.199 77.22 87.076 65.821 80.763 65.821 C 74.45 65.821 76.203 77.22 71.994 76.168 C 68.837 75.466 68.312 70.906 68.312 67.398 C 68.312 60.56 73.923 54.948 80.763 54.948 C 87.603 54.948 93.214 60.56 93.214 67.398 C 93.04 70.906 92.513 75.291 89.532 76.168 Z M 101.282 80.025 C 100.58 80.025 99.878 78.799 99.878 77.22 C 99.878 75.641 100.58 74.414 101.282 74.414 C 101.983 74.414 102.684 75.641 102.684 77.22 C 102.684 78.799 101.983 80.025 101.282 80.025 Z M 146.177 96.335 C 146.177 97.563 145.124 98.44 144.072 98.44 C 143.02 98.44 141.968 97.388 141.968 96.335 C 141.968 95.282 143.02 94.23 144.072 94.23 C 145.124 94.23 146.177 95.108 146.177 96.335 Z M 110.225 80.025 C 109.524 80.025 108.822 78.799 108.822 77.22 C 108.822 75.641 109.524 74.414 110.225 74.414 C 110.927 74.414 111.628 75.641 111.628 77.22 C 111.628 78.799 111.102 80.025 110.225 80.025 Z M 131.27 99.492 C 131.27 98.44 132.147 97.738 133.024 97.738 C 134.076 97.738 134.777 98.615 134.777 99.492 C 134.777 100.368 133.901 101.246 133.024 101.246 C 132.147 101.246 131.27 100.545 131.27 99.492 Z M 134.953 111.417 C 133.901 111.417 133.199 110.54 133.199 109.663 C 133.199 108.786 134.076 107.91 134.953 107.91 C 136.005 107.91 136.706 108.786 136.706 109.663 C 136.706 110.54 136.005 111.417 134.953 111.417 Z M 130.744 65.821 C 124.431 65.821 125.308 77.22 121.975 76.168 C 118.994 75.291 118.293 70.906 118.293 67.398 C 118.293 60.56 123.904 54.948 130.744 54.948 C 137.583 54.948 143.195 60.56 143.195 67.398 C 143.195 70.731 142.67 75.466 139.512 76.168 C 135.479 77.22 137.057 65.821 130.744 65.821 Z M 143.37 124.394 C 142.143 124.394 141.091 123.343 141.091 122.114 C 141.091 120.887 142.143 119.835 143.37 119.835 C 144.598 119.835 145.651 120.887 145.651 122.114 C 145.651 123.343 144.774 124.394 143.37 124.394 Z M 146.177 111.768 C 144.949 111.768 144.072 110.716 144.072 109.663 C 144.072 108.611 145.124 107.559 146.177 107.559 C 147.228 107.559 148.281 108.611 148.281 109.663 C 148.281 110.716 147.405 111.768 146.177 111.768 Z M 152.665 133.689 C 151.087 133.689 149.859 132.462 149.859 130.883 C 149.859 129.306 151.087 128.078 152.665 128.078 C 154.244 128.078 155.471 129.306 155.471 130.883 C 155.471 132.462 154.244 133.689 152.665 133.689 Z M 156.524 122.641 C 154.945 122.641 153.543 121.238 153.543 119.659 C 153.543 118.081 154.945 116.678 156.524 116.678 C 158.102 116.678 159.504 118.081 159.504 119.659 C 159.504 121.413 158.102 122.641 156.524 122.641 Z M 157.576 111.417 C 155.997 111.417 154.594 110.014 154.594 108.436 C 154.594 106.857 155.997 105.454 157.576 105.454 C 159.154 105.454 160.557 106.857 160.557 108.436 C 160.557 110.014 159.33 111.417 157.576 111.417 Z M 73.047 141.055 C 75.326 139.476 77.606 137.547 81.113 135.267 C 81.113 135.267 82.517 153.682 82.517 164.555 C 82.692 175.427 84.095 187.879 81.289 187.879 C 78.483 187.879 73.572 171.394 71.819 166.133 C 70.065 160.871 66.909 144.211 66.909 144.211 C 66.909 144.211 69.188 143.686 73.047 141.055 Z M 81.113 135.093 Z M 121.624 129.306 C 125.308 131.585 128.113 133.514 130.568 135.093 C 130.568 135.093 128.289 141.932 117.942 143.861 C 113.207 144.738 105.841 144.738 105.841 144.738 C 105.841 144.738 98.476 144.738 93.74 143.861 C 83.394 141.932 81.113 135.093 81.113 135.093 C 83.394 133.514 86.374 131.585 90.058 129.306 C 99.177 123.693 105.841 124.22 105.841 124.22 C 105.841 124.22 112.505 123.693 121.624 129.306 Z M 130.394 135.093 Z M 138.46 141.055 C 142.319 143.861 144.598 144.211 144.598 144.211 C 144.598 144.211 141.441 160.871 139.688 166.133 C 137.934 171.394 133.024 187.879 130.218 187.879 C 127.412 187.879 128.815 175.603 128.989 164.555 C 129.166 153.682 130.394 135.267 130.394 135.267 C 133.901 137.547 136.181 139.476 138.46 141.055 Z" data-fill-palette-color="accent" style="fill: rgb(255, 255, 255);"/>
</svg>