<?xml version="1.0" encoding="utf-8"?>
<svg version="1.1" width="650px" height="207px" viewBox="0 0 650 207" xmlns="http://www.w3.org/2000/svg">
  <g transform="matrix(1, 0, 0, 1, -135.10199, -12.07492)" style="visibility: hidden;">
    <svg viewBox="0 0 396 85" data-background-color="#ffffff" preserveAspectRatio="xMidYMid meet" height="214" width="1000" xmlns="http://www.w3.org/2000/svg" transform="matrix(1, 0, 0, 1, 97.70101296600158, -5.999185085296617)">
      <g id="tight-bounds" transform="matrix(1,0,0,1,0.23997110156426515,0.22541133420222081)">
        <svg viewBox="0 0 395.52 84.54928351513293" height="84.54928351513293" width="395.52" transform="matrix(1, 0, 0, 1, 95.70128958587546, 11.14134377077707)">
          <g>
            <svg viewBox="0 0 516.8185839853636 110.47896688730796" height="84.54928351513293" width="395.52">
              <g transform="matrix(1,0,0,1,121.29858398536368,0)">
                <svg viewBox="0 0 395.52 110.47896688730796" height="110.47896688730796" width="395.52">
                  <g id="textblocktransform">
                    <svg viewBox="0 0 395.52 110.47896688730796" height="110.47896688730796" width="395.52" id="textblock">
                      <g>
                        <svg viewBox="0 0 395.52 110.47896688730796" height="110.47896688730796" width="395.52">
                          <g transform="matrix(1,0,0,1,55.76832,26.23066666666667)">
                            <svg width="283.98335999999995" viewBox="0.7099999785423279 -33.38999938964844 163.4399871826172 33.38999938964844" height="58.01763355397462" data-palette-color="#ffffff"/>
                          </g>
                        </svg>
                      </g>
                    </svg>
                  </g>
                </svg>
              </g>
              <g transform="matrix(1,0,0,1,0,4.345506030900772)">
                <svg viewBox="0 0 107.60201312647557 101.78795482550642" height="101.78795482550642" width="107.60201312647557">
                  <g>
                    <svg xmlns="http://www.w3.org/2000/svg" version="1.1" x="0" y="0" viewBox="2.175004005432129 4.651998519897461 96.24860382080078 91.04800415039062" enable-background="new 0 0 100 100" height="101.78795482550642" width="107.60201312647557" class="icon-icon-0" data-fill-palette-color="accent" id="icon-0"/>
                  </g>
                </svg>
              </g>
            </svg>
          </g>
        </svg>
        <rect width="395.52" height="84.54928351513293" fill="none" stroke="none" visibility="hidden"/>
      </g>
    </svg>
  </g>
  <g transform="matrix(0.150914, 0, 0, -0.151615, 208.227036, 192.392944)" fill="#000000" stroke="none" style="">
    <path d="M1614 985 l-25 -25 3 -243 c3 -240 3 -242 30 -292 31 -60 77 -105 136 -134 56 -28 135 -38 167 -21 32 17 47 61 34 99 -11 32 -37 47 -93 55 -21 3 -50 16 -63 28 -50 47 -53 62 -53 293 0 216 0 216 -25 240 -32 33 -78 33 -111 0z" style="fill: rgb(255, 255, 255);"/>
    <path d="M1934 985 l-25 -25 3 -243 c3 -240 3 -242 30 -292 31 -60 77 -105 136 -134 56 -28 135 -38 167 -21 32 17 47 61 34 99 -11 32 -37 47 -93 55 -21 3 -50 16 -63 28 -50 47 -53 62 -53 293 0 216 0 216 -25 240 -32 33 -78 33 -111 0z" style="fill: rgb(255, 255, 255);"/>
    <path d="M255 855 c-25 -24 -25 -25 -25 -217 0 -106 4 -209 10 -228 33 -120 179 -184 291 -127 l44 22 45 -23 c91 -47 206 -12 267 80 l28 41 3 213 3 213 -25 26 c-33 33 -79 33 -111 0 -25 -24 -25 -26 -25 -213 0 -170 -2 -191 -18 -205 -24 -22 -45 -21 -65 1 -14 15 -17 41 -17 146 0 121 -1 128 -25 151 -32 33 -78 33 -110 0 -24 -23 -25 -29 -25 -153 0 -112 -2 -131 -18 -145 -24 -22 -55 -21 -75 1 -15 16 -17 46 -17 206 0 185 0 187 -25 211 -15 16 -36 25 -55 25 -19 0 -40 -9 -55 -25z" style="fill: rgb(255, 255, 255);"/>
    <path d="M1170 871 c-171 -53 -267 -229 -214 -397 14 -47 30 -71 78 -119 77 -77 128 -95 267 -95 141 0 200 28 240 115 16 35 19 67 19 248 0 208 0 208 -25 232 -29 30 -73 32 -107 6 -24 -19 -25 -19 -78 0 -56 19 -135 23 -180 10z m170 -181 c18 -13 39 -38 46 -56 17 -42 19 -185 2 -202 -18 -18 -163 -15 -204 4 -53 25 -79 69 -79 134 0 64 25 107 77 134 44 22 116 16 158 -14z" style="fill: rgb(255, 255, 255);"/>
    <path d="M2264 855 l-26 -26 4 -172 c3 -164 4 -174 30 -222 32 -60 87 -115 148 -146 36 -18 66 -24 148 -27 107 -4 129 -14 102 -47 -10 -12 -45 -15 -192 -15 -177 0 -179 0 -203 -25 -33 -32 -33 -78 0 -110 24 -25 25 -25 217 -25 166 0 199 3 233 19 98 45 139 151 97 246 -17 36 -17 42 -3 70 13 24 17 74 19 242 l3 213 -25 25 c-33 33 -79 33 -111 0 -25 -24 -25 -25 -25 -218 0 -160 -3 -197 -15 -207 -10 -8 -41 -11 -92 -9 -61 3 -85 9 -109 26 -55 39 -64 73 -64 237 0 143 -1 148 -25 171 -32 33 -78 33 -111 0z" style="fill: rgb(255, 255, 255);"/>
  </g>
  <path d="M 213.774 124.593 C 213.559 124.378 206.881 117.269 200.634 112.315 C 195.465 108.223 188.787 105.207 186.418 104.13 C 184.264 94.437 180.602 86.898 180.602 86.898 C 180.602 86.898 182.325 42.74 162.293 22.061 C 142.26 1.383 110.596 3.968 110.596 3.968 C 110.596 3.968 78.717 1.383 58.9 22.061 C 38.867 42.74 40.59 86.898 40.59 86.898 C 40.59 86.898 36.928 94.437 34.774 104.13 C 32.19 105.207 25.728 108.223 20.558 112.315 C 14.311 117.269 7.634 124.162 7.418 124.593 C 6.772 125.239 6.772 126.532 7.418 127.178 C 7.849 127.609 8.28 127.609 8.711 127.609 C 9.142 127.609 9.788 127.393 10.003 126.963 C 10.003 126.963 16.681 119.854 22.712 115.115 C 26.374 112.315 30.897 109.946 33.913 108.438 C 33.051 113.608 32.836 118.993 33.913 123.947 C 31.113 126.101 27.235 129.332 24.22 132.778 C 19.05 138.81 13.88 146.995 13.665 147.426 C 13.234 148.287 13.45 149.364 14.311 150.011 C 14.527 150.226 14.957 150.226 15.173 150.226 C 15.819 150.226 16.465 150.011 16.681 149.364 C 16.681 149.364 21.85 141.179 26.805 135.363 C 29.174 132.563 32.405 129.763 34.774 127.824 C 36.282 131.486 38.652 134.932 42.098 137.517 C 39.944 140.102 36.498 144.841 34.128 149.58 C 30.682 156.688 27.882 165.95 27.666 166.381 C 27.451 167.243 27.882 168.32 28.959 168.751 C 29.174 168.751 29.389 168.751 29.389 168.751 C 30.251 168.751 30.897 168.32 31.113 167.458 C 31.113 167.458 33.913 158.196 37.359 151.303 C 39.729 146.564 43.175 141.825 45.114 139.456 C 55.668 144.195 69.67 134.286 80.44 125.455 C 95.733 112.961 109.95 114.254 109.95 114.254 C 109.95 114.254 124.382 112.961 139.46 125.455 C 150.446 134.286 164.231 144.195 174.786 139.456 C 176.725 141.825 180.387 146.564 182.541 151.303 C 185.987 158.196 188.787 167.458 188.787 167.458 C 189.003 168.32 189.649 168.751 190.511 168.751 C 190.726 168.751 190.941 168.751 190.941 168.751 C 191.803 168.535 192.449 167.458 192.234 166.381 C 192.018 165.95 189.218 156.688 185.772 149.58 C 183.402 144.841 179.956 140.102 177.802 137.517 C 181.464 134.932 183.833 131.701 185.125 127.824 C 187.71 129.763 190.726 132.563 193.095 135.363 C 198.05 141.179 203.219 149.364 203.219 149.364 C 203.65 150.011 204.081 150.226 204.727 150.226 C 205.158 150.226 205.373 150.226 205.589 150.011 C 206.45 149.58 206.666 148.287 206.235 147.426 C 206.02 146.995 200.85 139.025 195.68 132.778 C 192.665 129.117 188.787 125.886 185.987 123.947 C 187.064 118.993 186.849 113.392 185.987 108.438 C 189.003 109.946 193.526 112.315 197.188 115.115 C 203.219 119.854 209.897 126.747 209.897 126.963 C 210.328 127.393 210.758 127.609 211.189 127.609 C 211.62 127.609 212.051 127.393 212.482 127.178 C 214.42 126.532 214.636 125.455 213.774 124.593 Z M 47.914 98.745 C 49.853 98.745 51.576 100.468 51.576 102.407 C 51.576 104.345 49.853 106.068 47.914 106.068 C 45.975 106.068 44.252 104.345 44.252 102.407 C 44.252 100.468 45.76 98.745 47.914 98.745 Z M 45.545 116.192 C 45.545 114.254 47.268 112.531 49.206 112.531 C 51.145 112.531 52.868 114.254 52.868 116.192 C 52.868 118.131 51.145 119.854 49.206 119.854 C 47.268 119.854 45.545 118.346 45.545 116.192 Z M 53.945 133.425 C 52.007 133.425 50.499 131.917 50.499 129.978 C 50.499 128.04 52.007 126.532 53.945 126.532 C 55.884 126.532 57.392 128.04 57.392 129.978 C 57.392 131.917 55.884 133.425 53.945 133.425 Z M 64.5 84.744 C 66.008 84.744 67.085 86.036 67.085 87.328 C 67.085 88.621 65.792 89.913 64.5 89.913 C 63.208 89.913 61.915 88.621 61.915 87.328 C 61.915 86.036 62.992 84.744 64.5 84.744 Z M 59.115 103.914 C 59.115 102.407 60.407 101.33 61.7 101.33 C 62.992 101.33 64.285 102.622 64.285 103.914 C 64.285 105.207 62.992 106.499 61.7 106.499 C 60.407 106.499 59.115 105.207 59.115 103.914 Z M 65.362 122.008 C 63.854 122.008 62.561 120.716 62.561 119.208 C 62.561 117.7 63.854 116.408 65.362 116.408 C 66.869 116.408 68.162 117.7 68.162 119.208 C 68.162 120.716 66.869 122.008 65.362 122.008 Z M 75.701 106.068 C 74.409 106.068 73.547 104.991 73.547 103.914 C 73.547 102.837 74.624 101.76 75.701 101.76 C 76.993 101.76 77.855 102.837 77.855 103.914 C 77.855 104.991 76.993 106.068 75.701 106.068 Z M 77.855 93.575 C 76.563 93.575 75.701 92.498 75.701 91.421 C 75.701 90.344 76.778 89.267 77.855 89.267 C 79.147 89.267 80.009 90.344 80.009 91.421 C 80.009 92.498 79.147 93.575 77.855 93.575 Z M 90.564 62.773 C 86.471 64.065 87.548 50.064 79.794 50.064 C 72.039 50.064 74.193 64.065 69.023 62.773 C 65.146 61.911 64.5 56.31 64.5 52.002 C 64.5 43.602 71.393 36.709 79.794 36.709 C 88.194 36.709 95.087 43.602 95.087 52.002 C 94.872 56.31 94.226 61.696 90.564 62.773 Z M 104.996 67.511 C 104.134 67.511 103.272 66.004 103.272 64.065 C 103.272 62.126 104.134 60.619 104.996 60.619 C 105.857 60.619 106.719 62.126 106.719 64.065 C 106.719 66.004 105.857 67.511 104.996 67.511 Z M 160.139 87.544 C 160.139 89.052 158.846 90.129 157.554 90.129 C 156.262 90.129 154.969 88.836 154.969 87.544 C 154.969 86.251 156.262 84.959 157.554 84.959 C 158.846 84.959 160.139 86.036 160.139 87.544 Z M 115.981 67.511 C 115.12 67.511 114.258 66.004 114.258 64.065 C 114.258 62.126 115.12 60.619 115.981 60.619 C 116.843 60.619 117.704 62.126 117.704 64.065 C 117.704 66.004 117.058 67.511 115.981 67.511 Z M 141.83 91.421 C 141.83 90.129 142.907 89.267 143.984 89.267 C 145.276 89.267 146.138 90.344 146.138 91.421 C 146.138 92.498 145.061 93.575 143.984 93.575 C 142.907 93.575 141.83 92.714 141.83 91.421 Z M 146.353 106.068 C 145.061 106.068 144.199 104.991 144.199 103.914 C 144.199 102.837 145.276 101.76 146.353 101.76 C 147.645 101.76 148.507 102.837 148.507 103.914 C 148.507 104.991 147.645 106.068 146.353 106.068 Z M 141.183 50.064 C 133.429 50.064 134.506 64.065 130.413 62.773 C 126.751 61.696 125.89 56.31 125.89 52.002 C 125.89 43.602 132.783 36.709 141.183 36.709 C 149.584 36.709 156.477 43.602 156.477 52.002 C 156.477 56.095 155.831 61.911 151.953 62.773 C 146.999 64.065 148.938 50.064 141.183 50.064 Z M 156.692 122.008 C 155.185 122.008 153.892 120.716 153.892 119.208 C 153.892 117.7 155.185 116.408 156.692 116.408 C 158.2 116.408 159.493 117.7 159.493 119.208 C 159.493 120.716 158.416 122.008 156.692 122.008 Z M 160.139 106.499 C 158.631 106.499 157.554 105.207 157.554 103.914 C 157.554 102.622 158.846 101.33 160.139 101.33 C 161.431 101.33 162.724 102.622 162.724 103.914 C 162.724 105.207 161.647 106.499 160.139 106.499 Z M 168.109 133.425 C 166.17 133.425 164.662 131.917 164.662 129.978 C 164.662 128.04 166.17 126.532 168.109 126.532 C 170.047 126.532 171.555 128.04 171.555 129.978 C 171.555 131.917 170.047 133.425 168.109 133.425 Z M 172.848 119.854 C 170.909 119.854 169.186 118.131 169.186 116.192 C 169.186 114.254 170.909 112.531 172.848 112.531 C 174.786 112.531 176.509 114.254 176.509 116.192 C 176.509 118.346 174.786 119.854 172.848 119.854 Z M 174.14 106.068 C 172.201 106.068 170.478 104.345 170.478 102.407 C 170.478 100.468 172.201 98.745 174.14 98.745 C 176.079 98.745 177.802 100.468 177.802 102.407 C 177.802 104.345 176.294 106.068 174.14 106.068 Z M 70.316 142.472 C 73.116 140.533 75.916 138.163 80.224 135.363 C 80.224 135.363 81.948 157.981 81.948 171.336 C 82.163 184.69 83.886 199.984 80.44 199.984 C 76.993 199.984 70.962 179.736 68.808 173.274 C 66.654 166.812 62.777 146.349 62.777 146.349 C 62.777 146.349 65.577 145.703 70.316 142.472 Z M 80.224 135.148 Z M 129.982 128.04 C 134.506 130.84 137.952 133.209 140.968 135.148 C 140.968 135.148 138.168 143.549 125.459 145.918 C 119.643 146.995 110.596 146.995 110.596 146.995 C 110.596 146.995 101.549 146.995 95.733 145.918 C 83.025 143.549 80.224 135.148 80.224 135.148 C 83.025 133.209 86.686 130.84 91.21 128.04 C 102.411 121.147 110.596 121.793 110.596 121.793 C 110.596 121.793 118.781 121.147 129.982 128.04 Z M 140.753 135.148 Z M 150.661 142.472 C 155.4 145.918 158.2 146.349 158.2 146.349 C 158.2 146.349 154.323 166.812 152.169 173.274 C 150.015 179.736 143.984 199.984 140.537 199.984 C 137.091 199.984 138.814 184.906 139.029 171.336 C 139.245 157.981 140.753 135.363 140.753 135.363 C 145.061 138.163 147.861 140.533 150.661 142.472 Z" data-fill-palette-color="accent" style="fill: rgb(255, 255, 255);"/>
</svg>