<?xml version="1.0" encoding="utf-8"?>
<svg viewBox="2590.093 4355.229 913.414 931.794" width="913.414" height="931.794" xmlns="http://www.w3.org/2000/svg">
  <defs>
    <clipPath clipPathUnits="userSpaceOnUse" id="clipPath3524">
      <path d="m 26239.1,6595.6 h -0.3 c -33.3,0 -69.4,-5.4 -107.6,-16.4 -71.8,-20.8 -144,-43.2 -216.4,-67.3 -103.1,-34.2 -206.7,-71.7 -310.9,-112.7 -49.8,-19.5 -99.6,-39.8 -149.6,-61 -128.6,-54 -257.7,-113 -387,-176.8 -50.6,-25 -101.3,-50.7 -152.1,-77.2 -103.4,-53.7 -206.8,-110.5 -310.3,-170.2 -30.6,-17.7 -61.2,-35.6 -91.8,-53.8 -31.8,-18.8 -63.5,-38 -95.3,-57.4 h -0.1 c -148.2,-90.6 -296.1,-187.1 -443.6,-289.3 -20.3,-14.1 -40.7,-28.4 -61,-42.7 -146.7,-103.3 -292.9,-212.2 -438,-326.6 -39,-30.5 -77.8,-61.5 -116.6,-92.9 -93.8,-76.1 -187.2,-154.2 -280,-234.6 -112.6,-97.5 -206.1,-222.5 -267.8,-350.9 l -202.4,116.9 -483.6,279 c 4.6,9.6 9.4,19.2 14.4,28.7 61.5,117.1 148.7,229.6 252,319.1 498.6,431.9 1012.5,800.6 1526.4,1097.3 513.9,296.7 1027.7,521.4 1526.4,665.3 90.5,26 168.5,20.2 227.8,-12.7 l 479.6,-276.6 c 1.2,-0.5 2.2,-1.1 3.3,-1.8 l 8.3,-4.8 c 31.5,-19.1 57.2,-46.2 76.2,-80.6 z" id="path3522"/>
    </clipPath>
    <linearGradient x1="0" y1="0" x2="1" y2="0" gradientUnits="userSpaceOnUse" gradientTransform="matrix(4114.4,0,0,-4114.4,22124.7,5727.1)" spreadMethod="pad" id="linearGradient3530">
      <stop style="stop-opacity:1;stop-color:#6a5ebf" offset="0" id="stop3526"/>
      <stop style="stop-opacity:1;stop-color:#6e3aa5" offset="1" id="stop3528"/>
    </linearGradient>
    <clipPath clipPathUnits="userSpaceOnUse" id="clipPath3540">
      <path d="m 22894.4,1350.7 -70.5,28.8 -1.3,0.5 -0.3,0.1 -81.2,46.5 -16.3,9.4 -0.3,0.1 -399.7,228.7 c -25.4,11.6 -49.3,25.3 -71.5,41 l -0.2,0.2 c -135.9,96 -210.9,268.6 -210.9,492.3 v 2346 c 0,98.8 30,209.4 82.5,317.4 l 483.6,-279 202.4,-116.9 c -51.5,-107.1 -81,-216.4 -81,-314.3 v -2346 c 0,-113.8 19.4,-214.2 56.2,-298.2 27,-61.4 63.4,-114 108.5,-156.6 z" id="path3538"/>
    </clipPath>
    <linearGradient x1="0" y1="0" x2="1" y2="0" gradientUnits="userSpaceOnUse" gradientTransform="matrix(852.15,0,0,-852.15,22042.2,3106.2)" spreadMethod="pad" id="linearGradient3546">
      <stop style="stop-opacity:1;stop-color:#483ca6" offset="0" id="stop3542"/>
      <stop style="stop-opacity:1;stop-color:#59278f" offset="1" id="stop3544"/>
    </linearGradient>
    <clipPath clipPathUnits="userSpaceOnUse" id="clipPath3558">
      <path d="m 26276.3,6430.9 v -2346 c 0,-267.7 -107.4,-586.3 -298.1,-884.2 L 24651.5,1127.2 c -138.9,-216.997 -362.1,-345.802 -500.7,-289.098 l -1256.4,512.598 -70.5,28.8 -1.3,0.5 -0.3,0.1 c -29.2,12.1 -56.5,26.9 -81.8,44.4 l -0.4,0.2 c -3.7,2.5 -7.3,5.1 -10.7,7.7 -1.6,1.1 -3.2,2.3 -4.6,3.6 l -0.3,0.1 c -8.8,6.7 -17.3,13.8 -25.6,21.2 -3,2.7 -5.9,5.4 -8.9,8.1 -3.3,3.2 -6.7,6.4 -10,9.8 -2.4,2.4 -4.8,4.9 -7,7.4 -8.4,8.8 -16.4,18 -24.1,27.5 -2.2,2.7 -4.2,5.4 -6.3,8.2 -4.2,5.4 -8.2,10.9 -12.2,16.6 -1.7,2.4 -3.4,4.8 -5,7.3 -1.8,2.6 -3.4,5.2 -5.1,7.8 -2.5,3.8 -4.9,7.7 -7.2,11.6 -2,3.3 -4,6.5 -5.8,9.9 -4.5,7.9 -8.8,15.9 -12.9,24.1 -2.1,4 -4,8 -5.9,12 -4.4,9.2 -8.5,18.7 -12.5,28.4 -1.4,3.2 -2.7,6.6 -3.9,10 -0.6,1.5 -1.2,2.9 -1.7,4.4 -1.3,3.2 -2.4,6.4 -3.6,9.7 -0.9,2.5 -1.8,5 -2.7,7.7 -1.4,4.2 -2.7,8.5 -4.1,12.8 -1.5,4.4 -2.9,8.9 -4.1,13.5 -0.8,2.4 -1.5,4.7 -2.1,7.1 -1.1,4 -2.2,7.9 -3.2,11.9 l -0.4,1.6 c -1.3,4.9 -2.5,9.9 -3.7,14.8 -1,4.5 -2.1,9 -2.9,13.5 -1.3,5.7 -2.5,11.5 -3.5,17.4 l -0.1,0.5 c -1.2,5.8 -2.2,11.8 -3.2,17.8 -0.6,3.5 -1.1,7.2 -1.6,10.9 -0.8,4.4 -1.3,8.8 -1.9,13.3 -1.5,11.3 -2.8,22.9 -3.8,34.7 -0.5,4.1 -0.8,8.3 -1,12.5 -0.3,3.3 -0.5,6.5 -0.7,9.8 -0.4,6.5 -0.9,13 -1.1,19.7 -0.5,13.1 -0.8,26.5 -0.8,40 v 2346.1 c 0,97.8 29.5,207.1 81,314.3 0.4,0.9 0.8,1.7 1.4,2.7 4.5,9.2 9.1,18.6 14,27.9 3.4,6.6 6.9,13.1 10.6,19.6 3.9,7.2 7.9,14.2 12,21.4 2.6,4.6 5.3,9.2 8.1,13.7 2.3,4 4.7,8 7.2,12 4.4,7 8.9,14.2 13.5,21.2 3.9,6.1 7.9,12.2 12.1,18.2 6.2,9.3 12.7,18.5 19.3,27.7 5.4,7.6 10.9,15.1 16.6,22.5 5.7,7.5 11.4,14.9 17.3,22.1 3.6,4.7 7.5,9.5 11.5,14.1 9.3,11.4 18.9,22.6 28.8,33.6 11.1,12.4 22.5,24.6 34.2,36.6 9.4,9.6 19.1,19 28.9,28.2 10.5,10.1 21.3,19.9 32.3,29.3 498.6,431.9 1012.4,800.6 1526.4,1097.4 513.9,296.6 1027.8,521.3 1526.3,665.1 38.2,11.1 74.2,16.4 107.6,16.4 33.1,0 63.6,-5.2 91,-15.5 8.8,-3.3 17.2,-7.1 25.3,-11.4 1.2,-0.5 2.2,-1.1 3.3,-1.8 l 8.3,-4.8 c 8.4,-5.1 16.3,-10.8 23.9,-17.1 20.8,-16.9 38.3,-38.3 52.3,-63.5 24.1,-43.8 37.2,-99.2 37.2,-164.7 z" id="path3556"/>
    </clipPath>
    <linearGradient x1="0" y1="0" x2="1" y2="0" gradientUnits="userSpaceOnUse" gradientTransform="matrix(3750.45,0,0,-3750.45,22525.9,3767.2)" spreadMethod="pad" id="linearGradient3564">
      <stop style="stop-opacity:1;stop-color:#2e256b" offset="0" id="stop3560"/>
      <stop style="stop-opacity:1;stop-color:#5a3087" offset="1" id="stop3562"/>
    </linearGradient>
    <clipPath clipPathUnits="userSpaceOnUse" id="clipPath3574">
      <path d="M 25992.4,6027.7 V 4036.9 c 0,-227.2 -91.1,-497.6 -252.9,-750.4 l -1126,-1759.6 c -117.8,-184.2 -307.1,-293.4 -424.9,-245.3 L 23062.7,1741 c -25.4,10.3 -49,23.1 -70.8,38.2 l -0.4,0.2 c -117.1,81.2 -181.8,228.5 -181.8,420 v 1990.9 c 0,83 25,175.8 68.8,266.7 52.3,108.9 131.7,215 227.2,297.7 423.1,366.5 859.2,679.4 1295.3,931.2 436.2,251.7 872.3,442.5 1295.3,564.5 32.4,9.4 63.1,13.9 91.3,13.9 28.1,0 54,-4.4 77.2,-13.2 79.6,-29.5 127.6,-108.2 127.6,-223.4 z" id="path3572"/>
    </clipPath>
    <linearGradient x1="0" y1="0" x2="1" y2="0" gradientUnits="userSpaceOnUse" gradientTransform="matrix(3182.7,0,0,-3182.7,22809.7,3767.3)" spreadMethod="pad" id="linearGradient3580">
      <stop style="stop-opacity:1;stop-color:#6a5ebf" offset="0" id="stop3576"/>
      <stop style="stop-opacity:1;stop-color:#6e3aa5" offset="1" id="stop3578"/>
    </linearGradient>
    <clipPath clipPathUnits="userSpaceOnUse" id="clipPath3590">
      <path d="m 23487.5,5195.3 c 0,-46 -37.2,-104.8 -83.2,-131.3 -46,-26.6 -83.3,-10.8 -83.3,35.2 0,46 37.3,104.8 83.3,131.3 46,26.5 83.2,10.8 83.2,-35.2 z" id="path3588"/>
    </clipPath>
    <linearGradient x1="0" y1="0" x2="1" y2="0" gradientUnits="userSpaceOnUse" gradientTransform="matrix(166.505,96.1401,0,-166.505,23321,5099.2)" spreadMethod="pad" id="linearGradient3596">
      <stop style="stop-opacity:1;stop-color:#6a5ebf" offset="0" id="stop3592"/>
      <stop style="stop-opacity:1;stop-color:#6e3aa5" offset="1" id="stop3594"/>
    </linearGradient>
    <clipPath clipPathUnits="userSpaceOnUse" id="clipPath3606">
      <path d="m 24017.3,5611.5 c 0,-46 -37.3,-104.8 -83.2,-131.3 -46,-26.5 -83.3,-10.8 -83.3,35.2 0,46 37.3,104.8 83.3,131.3 45.9,26.5 83.2,10.8 83.2,-35.2 z" id="path3604"/>
    </clipPath>
    <linearGradient x1="0" y1="0" x2="1" y2="0" gradientUnits="userSpaceOnUse" gradientTransform="matrix(166.505,96.1401,0,-166.505,23850.8,5515.4)" spreadMethod="pad" id="linearGradient3612">
      <stop style="stop-opacity:1;stop-color:#6a5ebf" offset="0" id="stop3608"/>
      <stop style="stop-opacity:1;stop-color:#6e3aa5" offset="1" id="stop3610"/>
    </linearGradient>
    <clipPath clipPathUnits="userSpaceOnUse" id="clipPath3622">
      <path d="m 24547.1,5946.8 c 0,-46 -37.3,-104.8 -83.3,-131.3 -46,-26.6 -83.2,-10.8 -83.2,35.2 0,45.9 37.2,104.7 83.2,131.3 46,26.5 83.3,10.8 83.3,-35.2 z" id="path3620"/>
    </clipPath>
    <linearGradient x1="0" y1="0" x2="1" y2="0" gradientUnits="userSpaceOnUse" gradientTransform="matrix(166.505,96.1401,0,-166.505,24380.6,5850.7)" spreadMethod="pad" id="linearGradient3628">
      <stop style="stop-opacity:1;stop-color:#6a5ebf" offset="0" id="stop3624"/>
      <stop style="stop-opacity:1;stop-color:#6e3aa5" offset="1" id="stop3626"/>
    </linearGradient>
    <clipPath clipPathUnits="userSpaceOnUse" id="clipPath3638">
      <path d="m 25076.9,6205.5 c 0,-46 -37.3,-104.8 -83.3,-131.3 -46,-26.6 -83.3,-10.8 -83.3,35.2 0,46 37.3,104.8 83.3,131.3 46,26.5 83.3,10.8 83.3,-35.2 z" id="path3636"/>
    </clipPath>
    <linearGradient x1="0" y1="0" x2="1" y2="0" gradientUnits="userSpaceOnUse" gradientTransform="matrix(166.505,96.1401,0,-166.505,24910.3,6109.4)" spreadMethod="pad" id="linearGradient3644">
      <stop style="stop-opacity:1;stop-color:#6a5ebf" offset="0" id="stop3640"/>
      <stop style="stop-opacity:1;stop-color:#6e3aa5" offset="1" id="stop3642"/>
    </linearGradient>
    <clipPath clipPathUnits="userSpaceOnUse" id="clipPath3654">
      <path d="m 25606.6,6379.7 c 0,-46 -37.2,-104.8 -83.2,-131.3 -46,-26.6 -83.3,-10.8 -83.3,35.1 0,46 37.3,104.8 83.3,131.4 46,26.5 83.2,10.8 83.2,-35.2 z" id="path3652"/>
    </clipPath>
    <linearGradient x1="0" y1="0" x2="1" y2="0" gradientUnits="userSpaceOnUse" gradientTransform="matrix(166.505,96.1401,0,-166.505,25440.1,6283.5)" spreadMethod="pad" id="linearGradient3660">
      <stop style="stop-opacity:1;stop-color:#6a5ebf" offset="0" id="stop3656"/>
      <stop style="stop-opacity:1;stop-color:#6e3aa5" offset="1" id="stop3658"/>
    </linearGradient>
    <clipPath clipPathUnits="userSpaceOnUse" id="clipPath3670">
      <path d="m 24988.7,3624.5 c -12.9,-38.8 -30.5,-76.2 -52.6,-112 -22.2,-35.9 -48.5,-69.1 -78.9,-99.6 -18.7,-18.5 -38,-35.3 -58.3,-50 -13,-9.6 -26.3,-18.2 -40,-26.1 l -157.8,-91.1 -409.7,-236.5 v 517.6 l 168.9,97.6 418,241.2 c 7,4.1 13.9,7.8 20.6,11.1 25.2,12.3 48.9,19.3 70.7,21 27.7,2.1 51.7,-3 72,-15.2 20.3,-12.3 36.4,-31.2 48.5,-56.4 12,-25.5 18,-55.7 18,-90.7 0,-35.1 -6.6,-72.1 -19.4,-110.9 z m -797.3,699.7 525.9,303.6 c 29.5,17.1 56.7,27.5 81.6,31.6 26.6,4.3 50.6,1.1 72.1,-9.3 41.5,-20.4 62.4,-68.4 62.4,-144 0,-77.5 -22.7,-151.4 -67.9,-221.9 -20.3,-31.6 -42.5,-59.7 -66.6,-84.6 -29.8,-30.6 -62.5,-56.3 -98.2,-76.9 l -340.4,-196.6 -168.9,-97.5 z m 1103.2,-172.9 c -65.6,48 -154.6,56.1 -267.2,24.3 92.3,93.9 162.4,196.6 210.4,308.4 48,111.6 72,215.5 72,311.4 0,60.9 -10.7,115.2 -31.9,162.9 -21.2,47.8 -51.2,84 -89.9,108.7 -38.7,24.7 -85.9,35.8 -141.2,33.5 -55.4,-2.6 -117.2,-23.5 -185.5,-63 l -62.4,-35.9 v 318.7 l -197.8,-114.2 v -318.8 l -240.8,-138.9 v 318.7 l -197.8,-114.2 v -318.8 l -353.2,-203.9 V 2464.7 l 353.2,203.9 v -330.9 l 197.8,114.1 v 331 l 240.8,139 v -331 l 76.4,44.1 121.4,70.1 v 331.8 c 72,44.4 140.2,94.7 205,150.8 22.8,19.7 44.8,40 65.9,60.5 l 0.2,0.2 c 49.9,48.6 95.2,99.6 136,152.9 58,76 103.8,155 137.1,236.8 13,32.5 23.6,65 31.5,97.5 12.1,49.9 18.2,99.8 18.2,150.1 0,129.1 -32.8,217.7 -98.2,265.7 z" id="path3668"/>
    </clipPath>
    <linearGradient x1="0" y1="0" x2="1" y2="0" gradientUnits="userSpaceOnUse" gradientTransform="matrix(1583.51,0,0,-1583.51,23809.3,3829)" spreadMethod="pad" id="linearGradient3676">
      <stop style="stop-opacity:1;stop-color:#2e256b" offset="0" id="stop3672"/>
      <stop style="stop-opacity:1;stop-color:#5a3087" offset="1" id="stop3674"/>
    </linearGradient>
  </defs>
  <path d="m 25483.6,1408 c 557.9,-322.1 557.9,-844.398 0,-1166.5 -557.9,-322.0977 -1462.4,-322.0977 -2020.3,0 -557.9,322.102 -557.9,844.4 0,1166.5 557.9,322.1 1462.4,322.1 2020.3,0" style="fill:#e3dfea;fill-opacity:1;fill-rule:nonzero;stroke:none" id="path3344" transform="matrix(0.133333, 0, 0, -0.133333, 0, 5287.013184)"/>
  <path d="m 23823.9,5117.9 c 925.7,-534.5 925.7,-1401 0,-1935.5 -925.7,-534.4 -2426.5,-534.4 -3352.2,0 -925.7,534.5 -925.7,1401 0,1935.5 925.7,534.4 2426.5,534.4 3352.2,0" style="fill:#e3dfea;fill-opacity:1;fill-rule:nonzero;stroke:none" id="path3346" transform="matrix(0.133333, 0, 0, -0.133333, 0, 5287.013184)"/>
  <path d="m 22406.6,3335 v -182.1 h -0.9 c -3.7,-46.1 -19.2,-92 -46.3,-136 -3.2,-5.2 -6.5,-10.3 -10,-15.4 -32.9,-47.9 -79.9,-93.3 -141.1,-134.1 -3.3,-2.2 -6.6,-4.4 -10,-6.6 -9.7,-6.2 -19.8,-12.4 -30.3,-18.4 -34.7,-20.1 -71.8,-37.9 -110.8,-53.6 -3.3,-1.3 -6.6,-2.6 -9.9,-3.9 -45,-17.6 -92.2,-32.2 -141.1,-44 -3.3,-0.8 -6.6,-1.6 -10,-2.4 -45.9,-10.6 -93.1,-18.7 -141.1,-24.3 -3.3,-0.5 -6.6,-0.9 -9.9,-1.2 -46.6,-5.1 -93.8,-7.9 -141.1,-8.3 -3.3,0 -6.6,-0.1 -10,-0.1 -47.2,-0.1 -94.4,2.2 -141.1,6.9 -3.3,0.3 -6.6,0.6 -9.9,1 -47.9,5.1 -95.1,12.7 -141.1,22.7 -3.3,0.8 -6.6,1.5 -10,2.3 -48.7,11.1 -96,25 -141,41.8 -3.4,1.2 -6.7,2.5 -10,3.8 -44.3,16.9 -86.3,36.7 -125.4,59.3 -5.3,3.1 -10.5,6.2 -15.7,9.3 -3.4,2.1 -6.7,4.1 -10,6.2 -59.5,37.6 -106.6,79.4 -141,123.7 -3.6,4.4 -6.8,8.8 -10,13.3 -36.4,50.6 -56.7,104.2 -61,158 h -0.9 V 3335 h 48.4 c 4.2,6.7 8.7,13.4 13.5,20 3.2,4.5 6.5,9 10,13.4 12.6,16.3 27,32.2 43.1,47.8 19.7,19 41.9,37.4 66.7,55 17.7,12.6 36.7,24.8 56.9,36.5 318.2,183.7 834.2,183.7 1152.4,0 20.3,-11.7 39.2,-23.9 56.9,-36.5 24.7,-17.6 47,-36 66.7,-55 22.6,-21.8 41.9,-44.5 57.8,-67.8 3.1,-4.4 6,-8.9 8.8,-13.4 h 48.4" style="fill:#ff9d4d;fill-opacity:1;fill-rule:nonzero;stroke:none" id="path3348" transform="matrix(0.133333, 0, 0, -0.133333, 0, 5287.013184)"/>
  <path d="m 21591.8,3645.5 c -208.5,0 -417.1,-45.9 -576.2,-137.8 -20.2,-11.7 -39.2,-23.9 -56.9,-36.5 -24.8,-17.6 -47,-36 -66.7,-55 -16.1,-15.6 -30.5,-31.5 -43.1,-47.8 -3.5,-4.4 -6.8,-8.9 -10,-13.4 -4.8,-6.6 -9.3,-13.3 -13.5,-20 h -48.4 v -182.1 h 0.9 c 4.3,-53.8 24.6,-107.4 61,-158 3.2,-4.5 6.4,-8.9 10,-13.3 34.4,-44.3 81.5,-86.1 141,-123.7 3.3,-2.1 6.6,-4.1 10,-6.2 5.2,-3.1 10.4,-6.2 15.7,-9.3 39.1,-22.6 81.1,-42.4 125.4,-59.3 3.3,-1.3 6.6,-2.6 9.9,-3.8 45.1,-16.8 92.4,-30.7 141.1,-41.8 3.4,-0.8 6.7,-1.5 10,-2.3 46,-10 93.2,-17.6 141.1,-22.7 3.3,-0.4 6.6,-0.7 9.9,-1 45.8,-4.6 92.1,-6.9 138.5,-6.9 h 2.6 c 3.4,0 6.7,0.1 10,0.1 47.3,0.4 94.5,3.2 141.1,8.3 3.3,0.3 6.6,0.7 9.9,1.2 48,5.6 95.2,13.7 141.1,24.3 3.4,0.8 6.7,1.6 10,2.4 48.9,11.8 96.1,26.4 141.1,44 3.3,1.3 6.6,2.6 9.9,3.9 39,15.7 76.1,33.5 110.8,53.6 10.5,6 20.6,12.2 30.3,18.4 3.4,2.2 6.7,4.4 10,6.6 61.2,40.8 108.2,86.2 141.1,134.1 3.5,5.1 6.8,10.2 10,15.4 27.1,44 42.6,89.9 46.3,136 h 0.9 v 22.1 0.1 159.9 h -48.4 c -2.8,4.5 -5.7,9 -8.8,13.4 -15.9,23.3 -35.2,46 -57.8,67.8 -19.7,19 -41.9,37.4 -66.7,55 -17.7,12.6 -36.6,24.8 -56.9,36.5 -159.1,91.9 -367.7,137.8 -576.2,137.8 z m 0,-10 c 215.9,0 418.8,-48.5 571.2,-136.4 19.8,-11.5 38.7,-23.6 56.1,-36 24.2,-17.2 46.2,-35.4 65.5,-54.1 21.9,-21.1 40.9,-43.4 56.6,-66.3 3,-4.3 5.8,-8.6 8.5,-13 l 3,-4.7 h 5.5 38.4 v -150 -12.1 h -0.1 l -0.7,-9.2 c -3.7,-44.9 -18.8,-89.2 -44.9,-131.6 -2.9,-4.7 -6.2,-9.8 -9.8,-15 -32.9,-47.9 -79.4,-92.1 -138.3,-131.4 -3.3,-2.2 -6.6,-4.3 -9.8,-6.5 -9.6,-6.1 -19.7,-12.2 -30,-18.2 -33.8,-19.5 -70.6,-37.3 -109.4,-52.9 -3.3,-1.3 -6.6,-2.6 -10,-3.9 -44.1,-17.3 -91.1,-31.9 -139.9,-43.6 -3.1,-0.8 -6.3,-1.5 -9.7,-2.3 -45,-10.5 -92.1,-18.6 -140.4,-24.3 -3.1,-0.4 -6.2,-0.8 -9.5,-1.1 -46.2,-5.1 -93.3,-7.8 -140.2,-8.2 -3.2,-0.1 -6.5,-0.1 -9.8,-0.1 h -2.6 c -46.1,0 -92.4,2.3 -137.6,6.9 -3.2,0.2 -6.3,0.6 -9.8,0.9 -47.4,5.1 -94.5,12.6 -139.9,22.6 l -0.6,0.1 c -3.1,0.7 -6.2,1.4 -9.3,2.1 -48.8,11.1 -95.9,25.1 -139.9,41.5 l -1.2,0.4 c -2.8,1.1 -5.7,2.1 -8.7,3.3 -44.1,16.9 -85.7,36.6 -123.8,58.6 -5.3,3.1 -10.5,6.1 -15.6,9.3 -3.3,2 -6.6,4 -9.8,6 -57.5,36.3 -104.1,77.2 -138.6,121.5 -3.1,3.9 -6.3,8.1 -9.7,12.9 -35,48.8 -54.9,100.2 -59.2,153 l -0.7,9.2 h -0.1 V 3325 h 38.4 5.5 l 3,4.7 c 4,6.5 8.4,13 13.1,19.6 2.9,4.1 6.1,8.3 9.7,13 12.4,15.8 26.6,31.6 42.2,46.7 19.6,18.9 41.7,37.1 65.6,54.1 17.6,12.5 36.5,24.6 56.1,36 152.4,87.9 355.3,136.4 571.2,136.4" style="fill:#ffe840;fill-opacity:1;fill-rule:nonzero;stroke:none" id="path3350" transform="matrix(0.133333, 0, 0, -0.133333, 0, 5287.013184)"/>
  <path d="m 22168,3672.6 c 318.2,-183.7 318.2,-481.6 0,-665.3 -318.2,-183.7 -834.2,-183.7 -1152.4,0 -318.2,183.7 -318.2,481.6 0,665.3 318.2,183.7 834.2,183.7 1152.4,0" style="fill:#ffe840;fill-opacity:1;fill-rule:nonzero;stroke:none" id="path3352" transform="matrix(0.133333, 0, 0, -0.133333, 0, 5287.013184)"/>
  <path d="m 22208.3,3184.5 c -3.2,-4.2 -6.5,-8.4 -10,-12.6 -32,-38.6 -75.6,-74.7 -130.8,-106.6 -3.4,-1.9 -6.8,-3.8 -10.3,-5.8 -3.2,-1.8 -6.6,-3.6 -9.9,-5.3 -43.5,-23.2 -90.9,-42.4 -141.1,-57.6 -3.3,-1 -6.6,-2 -10,-3 -45.3,-13.3 -92.6,-23.4 -141.1,-30.3 -3.2,-0.5 -6.6,-1 -9.9,-1.4 -46.4,-6.2 -93.7,-9.6 -141.1,-10 -3.3,-0.1 -6.6,-0.1 -10,-0.1 -47.3,-0.1 -94.6,2.6 -141.1,8.3 -3.3,0.4 -6.7,0.8 -9.9,1.2 -48.3,6.3 -95.7,15.7 -141.1,28.2 -3.3,0.9 -6.7,1.8 -10,2.7 -49.9,14.3 -97.3,32.5 -141,54.4 -3.4,1.7 -6.7,3.4 -10,5.1 -8.5,4.4 -16.8,8.9 -24.9,13.6 -47.2,27.3 -86,57.7 -116.2,90 -3.4,3.7 -6.7,7.4 -10,11.1 -82.1,95.1 -92.5,205.8 -31.2,304.8 32.4,52.4 84.9,101.5 157.4,143.4 262.3,151.4 689.1,151.4 951.4,0 72.5,-41.9 125,-91 157.4,-143.4 57.4,-92.8 51.9,-195.8 -16.6,-286.7 z m 83.3,231.7 c -26.1,80.7 -93.6,155.1 -196.4,214.4 -134.5,77.7 -313.3,120.4 -503.4,120.4 -190.2,0 -368.9,-42.7 -503.4,-120.4 -102.8,-59.3 -170.3,-133.7 -196.4,-214.4 -8,-24.9 -12.1,-50.4 -12.1,-76.2 0,-79 38.4,-154.7 110,-219.8 3.3,-3 6.6,-5.9 10,-8.8 25.7,-22.1 55.3,-42.8 88.5,-62.1 16.9,-9.7 34.4,-18.9 52.6,-27.5 3.3,-1.5 6.6,-3.1 10,-4.6 43.7,-20.1 91.1,-36.9 141,-50.2 3.4,-0.9 6.7,-1.8 10,-2.7 45.2,-11.6 92.4,-20.5 141.1,-26.4 3.3,-0.4 6.6,-0.8 9.9,-1.2 45.3,-5.1 91.7,-7.7 138.8,-7.7 h 2.3 c 3.4,0 6.7,0 10,0.1 48,0.4 95.2,3.6 141.1,9.4 3.3,0.4 6.6,0.8 9.9,1.3 48.8,6.5 96.1,16.1 141.1,28.4 3.4,0.9 6.7,1.8 10,2.8 50.1,14.3 97.4,32 141.1,53.1 3.3,1.5 6.7,3.2 9.9,4.9 13,6.4 25.7,13.2 38,20.3 39.8,23 74.3,48.2 103.1,75.2 3.5,3.2 6.8,6.4 10,9.6 62.2,61.9 95.4,132.4 95.4,205.9 0,25.8 -4.1,51.3 -12.1,76.2" style="fill:#ff9d4d;fill-opacity:1;fill-rule:nonzero;stroke:none" id="path3354" transform="matrix(0.133333, 0, 0, -0.133333, 0, 5287.013184)"/>
  <path d="m 21617.9,3406.3 76.7,-44.3 c -1.7,-0.8 -3.5,-1.7 -5.1,-2.7 l -42.1,-24.3 -71.7,41.4 23.7,13.7 c 8.4,4.9 14.6,10.3 18.5,16.2" style="fill:#d1975d;fill-opacity:1;fill-rule:nonzero;stroke:none" id="path3356" transform="matrix(0.133333, 0, 0, -0.133333, 0, 5287.013184)"/>
  <path d="m 21443.1,3435.8 9.9,5.8 4.9,2.8 v 0 l 27.7,15.9 c 1.6,0.9 3.3,1.6 5,2.4 5.6,2.8 11.6,5.1 18,6.7 9,2.1 18.7,3.1 29.3,2.9 19.9,-0.4 38.6,-5.5 56.2,-15.4 l 1.3,-0.7 c 3.2,-1.9 6.1,-3.7 8.7,-5.7 12.6,-9 18.8,-18.5 18.6,-28.7 -0.1,-5.5 -1.7,-10.7 -4.8,-15.5 -3.1,-4.7 -7.7,-9.2 -13.8,-13.3 -1.5,-1 -3,-2 -4.7,-2.9 l -5.3,-3 -18.4,-10.7 -57.2,-33 v 0 l -15.6,-9 -24.6,-14.2 -13.6,7.9 -15.2,8.8 -6.4,3.7 -28.8,16.6 -53.7,31 14.9,8.6 25.3,14.6 h -0.1 z m 246.4,-76.5 c 1.7,1 3.3,1.9 5.1,2.7 6.5,3.1 13.7,5.5 21.5,7 9.4,1.8 19.1,2.5 29.1,2.1 h 1.5 c 2.8,-0.2 5.6,-0.4 8.4,-0.7 7.7,-0.8 15.5,-2.2 23.2,-4.2 10.5,-2.8 20,-6.7 28.2,-11.4 8.4,-4.9 14.7,-10.3 19.1,-16.4 4.4,-6.1 6.7,-12.2 6.9,-18.4 0.2,-6.2 -1.7,-12.3 -5.9,-18.2 -2.5,-3.6 -5.8,-7.1 -9.9,-10.3 -2.1,-1.5 -4.4,-3.1 -6.8,-4.6 l -2,-1.3 -36.2,-20.9 -1.3,-0.7 -15.3,-8.8 -9.9,-5.8 -32,-18.4 -40.2,-23.2 -123,71 13.2,7.6 27,15.6 v 0 l 3.9,2.3 10,5.7 43.3,25 z m 157.8,-139.8 v 0.1 l 78.7,-45.4 47,27.1 -78.9,45.5 2.1,1.4 c 3.5,2.1 6.8,4.3 10,6.6 11.2,7.9 20.8,16.1 29,24.6 12.9,13.5 21.2,27.2 24.9,41 3.8,13.8 2.1,27.2 -4.9,40.4 -7,13.2 -20.4,25.5 -40.1,36.9 -3,1.7 -5.9,3.3 -8.9,4.9 -3.3,1.7 -6.6,3.3 -10,4.8 -25.3,11.8 -52.4,18.8 -81.1,21 -20.2,1.6 -40.1,1 -60,-1.7 -3.3,-0.5 -6.6,-1 -9.9,-1.6 -12.1,-2.2 -24.1,-5.1 -36,-8.8 12.3,18.2 14.1,36.3 5.6,54.5 -8.6,18.1 -24.2,33.7 -47,46.9 -14.5,8.3 -31.4,15.2 -50.7,20.5 -19.3,5.3 -39.1,8.5 -59.5,9.6 -20.4,1.2 -40.7,0 -60.8,-3.6 -20.2,-3.5 -38.4,-9.9 -54.6,-19.3 l -14.9,-8.6 -75.7,43.7 -47,-27.1 75.7,-43.7 -57.1,-33 -75.8,43.7 -47,-27.1 75.7,-43.8 -83.9,-48.4 99.8,-57.7 10,-5.7 141.1,-81.4 9.9,-5.8 141.1,-81.5 10,-5.7 55.1,-31.9 84,48.5 v 0 l 78.6,-45.4 47,27.1 -78.6,45.4 v 0.1 l 57.1,32.9" style="fill:#ff9d4d;fill-opacity:1;fill-rule:nonzero;stroke:none" id="path3358" transform="matrix(0.133333, 0, 0, -0.133333, 0, 5287.013184)"/>
  <path d="m 20870.1,3126 v -164.9 c -3.5,4.4 -6.8,8.8 -10,13.3 v 164.9 c 3.2,-4.4 6.6,-8.9 10,-13.3" style="fill:#ffe840;fill-opacity:1;fill-rule:nonzero;stroke:none" id="path3360" transform="matrix(0.133333, 0, 0, -0.133333, 0, 5287.013184)"/>
  <path d="m 20999.9,3016.7 v -165 c -3.4,2.1 -6.7,4.1 -10,6.2 v 165 c 3.3,-2.1 6.6,-4.2 10,-6.2" style="fill:#ffe840;fill-opacity:1;fill-rule:nonzero;stroke:none" id="path3362" transform="matrix(0.133333, 0, 0, -0.133333, 0, 5287.013184)"/>
  <path d="m 21151,2944.3 v -165 c -3.4,1.2 -6.7,2.5 -10,3.8 V 2948 c 3.3,-1.3 6.6,-2.5 10,-3.7" style="fill:#ffe840;fill-opacity:1;fill-rule:nonzero;stroke:none" id="path3364" transform="matrix(0.133333, 0, 0, -0.133333, 0, 5287.013184)"/>
  <path d="m 21302,2900.2 v -165 c -3.3,0.8 -6.6,1.5 -10,2.3 v 165 c 3.4,-0.8 6.7,-1.6 10,-2.3" style="fill:#ffe840;fill-opacity:1;fill-rule:nonzero;stroke:none" id="path3366" transform="matrix(0.133333, 0, 0, -0.133333, 0, 5287.013184)"/>
  <path d="m 21453,2876.4 v -164.9 c -3.3,0.3 -6.6,0.6 -9.9,1 v 164.9 c 3.3,-0.3 6.6,-0.7 9.9,-1" style="fill:#ffe840;fill-opacity:1;fill-rule:nonzero;stroke:none" id="path3368" transform="matrix(0.133333, 0, 0, -0.133333, 0, 5287.013184)"/>
  <path d="m 21604.1,2869.6 v -164.9 c -3.3,0 -6.6,-0.1 -10,-0.1 v 165 c 3.4,0 6.7,0 10,0" style="fill:#ffe840;fill-opacity:1;fill-rule:nonzero;stroke:none" id="path3370" transform="matrix(0.133333, 0, 0, -0.133333, 0, 5287.013184)"/>
  <path d="m 21755.1,2879.1 v -164.9 c -3.3,-0.5 -6.6,-0.9 -9.9,-1.2 v 164.9 c 3.3,0.4 6.6,0.8 9.9,1.2" style="fill:#ffe840;fill-opacity:1;fill-rule:nonzero;stroke:none" id="path3372" transform="matrix(0.133333, 0, 0, -0.133333, 0, 5287.013184)"/>
  <path d="m 21906.2,2905.9 v -165 c -3.3,-0.8 -6.6,-1.6 -10,-2.4 v 165 c 3.4,0.8 6.7,1.5 10,2.4" style="fill:#ffe840;fill-opacity:1;fill-rule:nonzero;stroke:none" id="path3374" transform="matrix(0.133333, 0, 0, -0.133333, 0, 5287.013184)"/>
  <path d="m 22057.2,2953.7 v -164.9 c -3.3,-1.3 -6.6,-2.6 -9.9,-3.9 v 164.9 c 3.3,1.3 6.6,2.6 9.9,3.9" style="fill:#ffe840;fill-opacity:1;fill-rule:nonzero;stroke:none" id="path3376" transform="matrix(0.133333, 0, 0, -0.133333, 0, 5287.013184)"/>
  <path d="m 22208.3,3032.3 v -164.9 c -3.3,-2.2 -6.6,-4.4 -10,-6.6 v 165 c 3.4,2.2 6.7,4.3 10,6.5" style="fill:#ffe840;fill-opacity:1;fill-rule:nonzero;stroke:none" id="path3378" transform="matrix(0.133333, 0, 0, -0.133333, 0, 5287.013184)"/>
  <path d="m 22342.3,3165.3 v -164.9 c -3.1,-5.2 -6.5,-10.3 -10,-15.4 v 164.9 c 3.5,5.1 6.8,10.2 10,15.4" style="fill:#ffe840;fill-opacity:1;fill-rule:nonzero;stroke:none" id="path3380" transform="matrix(0.133333, 0, 0, -0.133333, 0, 5287.013184)"/>
  <path d="m 22806.2,4433.9 v -182.1 h -0.9 c -3.7,-46.1 -19.2,-92 -46.3,-136 -3.2,-5.2 -6.6,-10.3 -10.1,-15.4 -32.8,-47.9 -79.8,-93.3 -141,-134.1 -3.3,-2.2 -6.6,-4.4 -10,-6.6 -9.8,-6.2 -19.9,-12.3 -30.4,-18.4 -34.7,-20.1 -71.8,-37.9 -110.7,-53.6 -3.3,-1.3 -6.6,-2.6 -10,-3.9 -44.9,-17.6 -92.2,-32.2 -141,-43.9 -3.3,-0.9 -6.7,-1.7 -10,-2.5 -45.9,-10.6 -93.1,-18.7 -141.1,-24.3 -3.3,-0.5 -6.6,-0.9 -10,-1.2 -46.6,-5.1 -93.8,-7.9 -141,-8.3 -3.3,0 -6.7,-0.1 -10,-0.1 -47.2,-0.1 -94.4,2.2 -141.1,6.9 -3.3,0.3 -6.6,0.6 -10,1 -47.8,5.1 -95.1,12.7 -141,22.8 -3.3,0.7 -6.7,1.4 -10,2.2 -48.8,11.1 -96.1,25.1 -141.1,41.8 -3.3,1.3 -6.7,2.5 -10,3.8 -44.3,17 -86.2,36.7 -125.3,59.3 -5.3,3.1 -10.6,6.2 -15.7,9.3 -3.4,2.1 -6.7,4.1 -10,6.2 -59.5,37.6 -106.6,79.4 -141.1,123.7 -3.5,4.4 -6.8,8.9 -10,13.3 -36.3,50.6 -56.6,104.2 -60.9,158 h -1 v 182.1 h 48.4 c 4.2,6.7 8.7,13.4 13.5,20 3.2,4.5 6.5,9 10,13.4 12.7,16.3 27.1,32.3 43.2,47.8 19.7,19 41.9,37.4 66.6,55 17.7,12.6 36.7,24.8 57,36.5 318.2,183.7 834.1,183.7 1152.3,0 20.3,-11.7 39.3,-23.9 57,-36.5 24.7,-17.6 47,-36 66.6,-55 22.6,-21.8 41.9,-44.5 57.8,-67.8 3.1,-4.4 6,-8.9 8.9,-13.4 h 48.4" style="fill:#ff9d4d;fill-opacity:1;fill-rule:nonzero;stroke:none" id="path3382" transform="matrix(0.133333, 0, 0, -0.133333, 0, 5287.013184)"/>
  <path d="m 21991.4,4744.4 c -208.6,0 -417.1,-45.9 -576.2,-137.8 -20.3,-11.7 -39.3,-23.9 -57,-36.5 -24.7,-17.6 -46.9,-36 -66.6,-55 -16.1,-15.5 -30.5,-31.5 -43.2,-47.8 -3.5,-4.4 -6.8,-8.9 -10,-13.4 -4.8,-6.6 -9.3,-13.3 -13.5,-20 h -48.4 v -182.1 h 1 c 4.3,-53.8 24.6,-107.4 60.9,-158 3.2,-4.4 6.5,-8.9 10,-13.3 34.5,-44.3 81.6,-86.1 141.1,-123.7 3.3,-2.1 6.6,-4.1 10,-6.2 5.1,-3.1 10.4,-6.2 15.7,-9.3 39.1,-22.6 81,-42.3 125.3,-59.3 3.3,-1.3 6.7,-2.5 10,-3.8 45,-16.7 92.3,-30.7 141.1,-41.8 3.3,-0.8 6.7,-1.5 10,-2.2 45.9,-10.1 93.2,-17.7 141,-22.8 3.4,-0.4 6.7,-0.7 10,-1 45.8,-4.6 92.1,-6.9 138.3,-6.9 1,0 1.9,0 2.8,0 3.3,0 6.7,0.1 10,0.1 47.2,0.4 94.4,3.2 141,8.3 3.4,0.3 6.7,0.7 10,1.1 48,5.7 95.2,13.8 141.1,24.4 3.3,0.8 6.7,1.6 10,2.5 48.8,11.7 96.1,26.3 141,43.9 3.4,1.3 6.7,2.6 10,3.9 38.9,15.7 76,33.5 110.7,53.6 10.5,6.1 20.6,12.2 30.4,18.4 3.4,2.2 6.7,4.4 10,6.6 61.2,40.8 108.2,86.2 141,134.1 3.5,5.1 6.9,10.2 10.1,15.4 27.1,44 42.6,89.9 46.3,136 h 0.9 v 22.1 0.1 159.9 h -48.4 c -2.9,4.5 -5.8,9 -8.9,13.4 -15.9,23.3 -35.2,46 -57.8,67.8 -19.6,19 -41.9,37.4 -66.6,55 -17.7,12.6 -36.7,24.8 -57,36.5 -159.1,91.9 -367.6,137.8 -576.1,137.8 z m 0,-10 c 215.9,0 418.7,-48.5 571.2,-136.4 19.8,-11.5 38.7,-23.6 56.1,-36 24.1,-17.2 46.2,-35.4 65.5,-54.1 21.8,-21.1 40.9,-43.4 56.5,-66.3 3,-4.3 5.9,-8.6 8.6,-13 l 2.9,-4.7 h 5.6 38.4 v -150 -12.1 h -0.1 l -0.8,-9.2 c -3.6,-44.9 -18.7,-89.2 -44.9,-131.6 -2.9,-4.8 -6.1,-9.8 -9.7,-15 -32.9,-47.9 -79.4,-92.1 -138.4,-131.4 -3.2,-2.1 -6.5,-4.3 -9.8,-6.4 -9.6,-6.2 -19.7,-12.3 -29.9,-18.3 -33.8,-19.4 -70.6,-37.3 -109.5,-52.9 -3.3,-1.3 -6.6,-2.6 -9.9,-3.9 -44.1,-17.3 -91.2,-31.9 -139.9,-43.6 -3.3,-0.8 -6.5,-1.6 -9.8,-2.3 -44.9,-10.5 -92,-18.6 -140,-24.2 -3.3,-0.4 -6.5,-0.8 -9.9,-1.2 -46.1,-5.1 -93.2,-7.8 -140.1,-8.2 -3.2,0 -6.5,-0.1 -9.8,-0.1 h -2.8 c -46,0 -92.2,2.3 -137.5,6.9 -3.2,0.2 -6.4,0.6 -9.7,0.9 -47.5,5.1 -94.6,12.6 -140,22.6 -3.3,0.7 -6.5,1.4 -9.9,2.2 -48.8,11.1 -95.8,25.1 -139.8,41.5 l -1.3,0.5 c -2.8,1 -5.7,2 -8.6,3.2 -44.1,16.9 -85.8,36.6 -123.9,58.6 -5.2,3.1 -10.4,6.2 -15.5,9.3 -3.4,2 -6.7,4 -9.9,6 -57.4,36.3 -104,77.2 -138.6,121.5 -3,3.9 -6.2,8.1 -9.7,12.9 -35,48.8 -54.9,100.3 -59.1,153 l -0.7,9.2 h -0.2 v 162.1 h 38.4 5.6 l 2.9,4.7 c 4,6.5 8.5,13 13.2,19.6 2.9,4.1 6.1,8.3 9.7,13 12.3,15.8 26.5,31.6 42.2,46.7 19.6,18.9 41.7,37.1 65.5,54.1 17.6,12.5 36.5,24.6 56.2,36 152.4,87.9 355.2,136.4 571.2,136.4" style="fill:#ffe840;fill-opacity:1;fill-rule:nonzero;stroke:none" id="path3384" transform="matrix(0.133333, 0, 0, -0.133333, 0, 5287.013184)"/>
  <path d="m 22567.5,4771.5 c 318.2,-183.7 318.2,-481.5 0,-665.3 -318.2,-183.7 -834.1,-183.7 -1152.3,0 -318.2,183.8 -318.2,481.6 0,665.3 318.2,183.7 834.1,183.7 1152.3,0" style="fill:#ffe840;fill-opacity:1;fill-rule:nonzero;stroke:none" id="path3386" transform="matrix(0.133333, 0, 0, -0.133333, 0, 5287.013184)"/>
  <path d="m 22607.9,4283.4 c -3.2,-4.2 -6.5,-8.4 -10,-12.6 -32,-38.6 -75.6,-74.7 -130.8,-106.6 -3.4,-1.9 -6.8,-3.8 -10.3,-5.8 -3.3,-1.8 -6.6,-3.6 -10,-5.3 -43.4,-23.2 -90.8,-42.4 -141,-57.6 -3.3,-1 -6.7,-2 -10,-3 -45.3,-13.3 -92.7,-23.4 -141.1,-30.3 -3.3,-0.5 -6.6,-1 -10,-1.4 -46.3,-6.2 -93.6,-9.6 -141,-10 -3.3,-0.1 -6.7,-0.1 -10,-0.1 -47.3,-0.1 -94.7,2.6 -141.1,8.3 -3.3,0.4 -6.7,0.8 -10,1.2 -48.3,6.3 -95.6,15.7 -141,28.2 -3.3,0.9 -6.7,1.8 -10,2.7 -49.9,14.3 -97.4,32.5 -141.1,54.4 -3.4,1.7 -6.7,3.4 -10,5.1 -8.4,4.4 -16.7,8.9 -24.8,13.6 -47.3,27.3 -86,57.7 -116.2,90 -3.4,3.7 -6.8,7.4 -10,11.1 -82.1,95.1 -92.6,205.8 -31.3,304.8 32.5,52.4 84.9,101.5 157.5,143.4 262.3,151.5 689.1,151.5 951.4,0 72.5,-41.9 125,-91 157.4,-143.4 57.4,-92.8 51.9,-195.8 -16.6,-286.7 z m 83.2,231.7 c -26,80.7 -93.5,155.1 -196.3,214.4 -134.5,77.7 -313.3,120.4 -503.4,120.4 -190.2,0 -369,-42.7 -503.4,-120.4 -102.8,-59.3 -170.4,-133.7 -196.4,-214.4 -8.1,-24.9 -12.2,-50.4 -12.2,-76.2 0,-79 38.4,-154.7 110.1,-219.8 3.2,-3 6.6,-5.9 10,-8.8 25.6,-22.1 55.2,-42.8 88.5,-62.1 16.8,-9.7 34.4,-18.9 52.5,-27.4 3.4,-1.6 6.7,-3.2 10,-4.7 43.8,-20 91.2,-36.9 141.1,-50.2 3.3,-0.9 6.7,-1.8 10,-2.7 45.1,-11.6 92.4,-20.5 141,-26.3 3.4,-0.5 6.7,-0.9 10,-1.3 45.2,-5.1 91.7,-7.7 138.8,-7.7 h 2.3 c 3.3,0 6.7,0 10,0.1 48,0.4 95.1,3.6 141,9.4 3.4,0.4 6.7,0.8 10,1.3 48.8,6.5 96,16.1 141.1,28.4 3.4,0.9 6.7,1.8 10,2.8 50.1,14.3 97.4,32 141,53.1 3.4,1.5 6.7,3.2 10,4.9 13,6.4 25.7,13.2 38,20.3 39.8,23 74.2,48.3 103.1,75.2 3.4,3.2 6.7,6.4 10,9.6 62.2,61.9 95.4,132.4 95.4,205.9 0,25.8 -4.1,51.3 -12.2,76.2" style="fill:#ff9d4d;fill-opacity:1;fill-rule:nonzero;stroke:none" id="path3388" transform="matrix(0.133333, 0, 0, -0.133333, 0, 5287.013184)"/>
  <path d="m 22017.4,4505.2 76.8,-44.3 c -1.8,-0.8 -3.5,-1.7 -5.2,-2.7 l -42.1,-24.3 -71.7,41.4 23.7,13.7 c 8.5,4.9 14.7,10.3 18.5,16.2" style="fill:#d1975d;fill-opacity:1;fill-rule:nonzero;stroke:none" id="path3390" transform="matrix(0.133333, 0, 0, -0.133333, 0, 5287.013184)"/>
  <path d="m 21842.6,4534.7 10,5.8 4.9,2.8 v 0 l 27.6,15.9 c 1.6,1 3.4,1.6 5.1,2.5 5.6,2.7 11.5,5 18,6.6 8.9,2.1 18.7,3.1 29.2,2.9 19.9,-0.4 38.7,-5.5 56.3,-15.4 l 1.3,-0.7 c 3.2,-1.9 6,-3.7 8.7,-5.6 12.6,-9.1 18.8,-18.6 18.6,-28.8 -0.1,-5.5 -1.7,-10.7 -4.9,-15.5 -3.1,-4.7 -7.7,-9.2 -13.7,-13.3 -1.5,-1 -3.1,-2 -4.8,-2.9 l -5.2,-3 -18.5,-10.7 -57.1,-33 v 0 l -15.6,-9 -24.6,-14.2 -13.6,7.9 -15.3,8.8 -6.4,3.7 -28.8,16.6 -53.6,31 14.9,8.6 25.2,14.6 v 0 z m 246.4,-76.5 c 1.7,1 3.4,1.9 5.1,2.7 6.6,3.2 13.8,5.5 21.5,7 9.4,1.8 19.2,2.5 29.1,2.1 h 1.6 c 2.8,-0.2 5.6,-0.4 8.4,-0.7 7.7,-0.8 15.5,-2.2 23.2,-4.2 10.4,-2.8 19.9,-6.7 28.2,-11.4 8.4,-4.9 14.7,-10.3 19.1,-16.4 4.4,-6.1 6.7,-12.2 6.9,-18.4 0.2,-6.2 -1.7,-12.3 -5.9,-18.2 -2.5,-3.6 -5.9,-7.1 -10,-10.3 -2,-1.5 -4.3,-3.1 -6.7,-4.6 l -2.1,-1.3 -36.2,-20.9 -1.3,-0.7 -15.2,-8.8 -10,-5.8 -31.9,-18.4 -40.2,-23.2 -123,71 13.1,7.6 27.1,15.6 v 0 l 3.9,2.3 10,5.7 43.2,25 z m 157.9,-139.8 v 0.1 l 78.6,-45.4 47,27.1 -78.8,45.5 2.1,1.4 c 3.5,2.1 6.8,4.3 10,6.6 11.1,7.9 20.8,16.1 28.9,24.6 13,13.5 21.3,27.2 25,41 3.7,13.8 2.1,27.3 -4.9,40.4 -7.1,13.2 -20.4,25.5 -40.1,36.9 -3,1.7 -6,3.3 -8.9,4.9 -3.3,1.7 -6.6,3.3 -10,4.8 -25.4,11.8 -52.4,18.8 -81.1,21.1 -20.2,1.5 -40.2,0.9 -60,-1.8 -3.3,-0.5 -6.6,-1 -10,-1.6 -12,-2.2 -24,-5.1 -35.9,-8.8 12.2,18.2 14.1,36.4 5.6,54.5 -8.6,18.1 -24.3,33.7 -47.1,46.9 -14.4,8.3 -31.3,15.2 -50.6,20.5 -19.3,5.3 -39.1,8.5 -59.5,9.6 -20.4,1.2 -40.7,0 -60.9,-3.5 -20.2,-3.6 -38.4,-10 -54.6,-19.4 l -14.8,-8.6 -75.7,43.8 -47,-27.2 75.7,-43.7 -57.2,-33 -75.7,43.7 -47,-27.1 75.7,-43.8 -83.9,-48.4 99.8,-57.6 10,-5.8 141,-81.4 10,-5.8 141.1,-81.4 10,-5.8 55.1,-31.8 83.9,48.4 v 0 l 78.7,-45.4 47,27.1 -78.7,45.4 0.1,0.1 57.1,32.9" style="fill:#ff9d4d;fill-opacity:1;fill-rule:nonzero;stroke:none" id="path3392" transform="matrix(0.133333, 0, 0, -0.133333, 0, 5287.013184)"/>
  <path d="M 21269.7,4224.9 V 4060 c -3.5,4.4 -6.8,8.8 -10,13.3 v 164.9 c 3.2,-4.4 6.5,-8.9 10,-13.3" style="fill:#ffe840;fill-opacity:1;fill-rule:nonzero;stroke:none" id="path3394" transform="matrix(0.133333, 0, 0, -0.133333, 0, 5287.013184)"/>
  <path d="m 21399.5,4115.6 v -165 c -3.4,2.1 -6.7,4.1 -10,6.2 v 165 c 3.3,-2.1 6.6,-4.2 10,-6.2" style="fill:#ffe840;fill-opacity:1;fill-rule:nonzero;stroke:none" id="path3396" transform="matrix(0.133333, 0, 0, -0.133333, 0, 5287.013184)"/>
  <path d="m 21550.5,4043.2 v -165 c -3.3,1.3 -6.7,2.5 -10,3.8 v 164.9 c 3.3,-1.2 6.7,-2.5 10,-3.7" style="fill:#ffe840;fill-opacity:1;fill-rule:nonzero;stroke:none" id="path3398" transform="matrix(0.133333, 0, 0, -0.133333, 0, 5287.013184)"/>
  <path d="m 21701.6,3999.1 v -164.9 c -3.3,0.7 -6.7,1.4 -10,2.2 v 165 c 3.3,-0.8 6.7,-1.6 10,-2.3" style="fill:#ffe840;fill-opacity:1;fill-rule:nonzero;stroke:none" id="path3400" transform="matrix(0.133333, 0, 0, -0.133333, 0, 5287.013184)"/>
  <path d="m 21852.6,3975.3 v -164.9 c -3.3,0.3 -6.6,0.6 -10,1 v 164.9 c 3.4,-0.3 6.7,-0.7 10,-1" style="fill:#ffe840;fill-opacity:1;fill-rule:nonzero;stroke:none" id="path3402" transform="matrix(0.133333, 0, 0, -0.133333, 0, 5287.013184)"/>
  <path d="m 22003.7,3968.5 v -164.9 c -3.3,0 -6.7,-0.1 -10,-0.1 v 165 c 3.3,0 6.7,0 10,0" style="fill:#ffe840;fill-opacity:1;fill-rule:nonzero;stroke:none" id="path3404" transform="matrix(0.133333, 0, 0, -0.133333, 0, 5287.013184)"/>
  <path d="m 22154.7,3978 v -164.9 c -3.3,-0.5 -6.6,-0.9 -10,-1.2 v 164.9 c 3.4,0.4 6.7,0.8 10,1.2" style="fill:#ffe840;fill-opacity:1;fill-rule:nonzero;stroke:none" id="path3406" transform="matrix(0.133333, 0, 0, -0.133333, 0, 5287.013184)"/>
  <path d="m 22305.8,4004.8 v -164.9 c -3.3,-0.9 -6.7,-1.7 -10,-2.5 v 165 c 3.3,0.8 6.7,1.6 10,2.4" style="fill:#ffe840;fill-opacity:1;fill-rule:nonzero;stroke:none" id="path3408" transform="matrix(0.133333, 0, 0, -0.133333, 0, 5287.013184)"/>
  <path d="m 22456.8,4052.6 v -164.9 c -3.3,-1.3 -6.6,-2.6 -10,-3.9 v 164.9 c 3.4,1.3 6.7,2.6 10,3.9" style="fill:#ffe840;fill-opacity:1;fill-rule:nonzero;stroke:none" id="path3410" transform="matrix(0.133333, 0, 0, -0.133333, 0, 5287.013184)"/>
  <path d="m 22607.9,4131.2 v -164.9 c -3.3,-2.2 -6.6,-4.4 -10,-6.6 v 165 c 3.4,2.2 6.7,4.4 10,6.5" style="fill:#ffe840;fill-opacity:1;fill-rule:nonzero;stroke:none" id="path3412" transform="matrix(0.133333, 0, 0, -0.133333, 0, 5287.013184)"/>
  <path d="m 22741.9,4264.2 v -164.9 c -3.2,-5.2 -6.6,-10.3 -10.1,-15.4 v 164.9 c 3.5,5.1 6.9,10.2 10.1,15.4" style="fill:#ffe840;fill-opacity:1;fill-rule:nonzero;stroke:none" id="path3414" transform="matrix(0.133333, 0, 0, -0.133333, 0, 5287.013184)"/>
  <path d="m 21800.8,5418.9 v -182 h -0.8 c -3.8,-46.1 -19.2,-92 -46.4,-136.1 -3.1,-5.1 -6.5,-10.3 -10,-15.4 -32.9,-47.9 -79.9,-93.3 -141.1,-134 -3.2,-2.2 -6.6,-4.4 -9.9,-6.6 -9.8,-6.2 -19.9,-12.4 -30.4,-18.5 -34.7,-20 -71.8,-37.9 -110.7,-53.5 -3.4,-1.4 -6.7,-2.7 -10,-4 -45,-17.5 -92.2,-32.2 -141.1,-43.9 -3.3,-0.9 -6.6,-1.6 -9.9,-2.4 -45.9,-10.7 -93.2,-18.8 -141.1,-24.4 -3.4,-0.4 -6.7,-0.8 -10,-1.1 -46.6,-5.2 -93.8,-8 -141.1,-8.3 -3.3,-0.1 -6.6,-0.1 -9.9,-0.1 -47.3,-0.1 -94.5,2.2 -141.1,6.9 -3.4,0.2 -6.7,0.6 -10,1 -47.9,5 -95.1,12.6 -141.1,22.7 -3.3,0.7 -6.6,1.5 -9.9,2.2 -48.8,11.2 -96.1,25.1 -141.1,41.9 -3.4,1.2 -6.7,2.4 -10,3.8 -44.3,16.9 -86.3,36.7 -125.3,59.2 -5.4,3.1 -10.6,6.2 -15.8,9.4 -3.3,2 -6.7,4.1 -9.9,6.1 -59.6,37.6 -106.6,79.5 -141.1,123.8 -3.5,4.4 -6.8,8.8 -10,13.3 -36.3,50.6 -56.6,104.1 -61,158 h -0.9 v 182 h 48.4 c 4.2,6.8 8.7,13.5 13.5,20.1 3.2,4.5 6.5,8.9 10,13.3 12.6,16.4 27,32.3 43.1,47.8 19.7,19.1 41.9,37.5 66.7,55.1 17.7,12.5 36.7,24.7 57,36.5 318.2,183.7 834.1,183.7 1152.3,0 20.3,-11.8 39.2,-23.9 56.9,-36.5 24.8,-17.6 47,-36 66.7,-55.1 22.6,-21.8 41.9,-44.5 57.8,-67.7 3.1,-4.5 6,-9 8.8,-13.5 h 48.4" style="fill:#ff9d4d;fill-opacity:1;fill-rule:nonzero;stroke:none" id="path3416" transform="matrix(0.133333, 0, 0, -0.133333, 0, 5287.013184)"/>
  <path d="m 20986,5729.4 c -208.5,0 -417,-45.9 -576.1,-137.7 -20.3,-11.8 -39.3,-24 -57,-36.6 -24.8,-17.5 -47,-35.9 -66.7,-55 -16.1,-15.5 -30.5,-31.4 -43.1,-47.8 -3.5,-4.4 -6.8,-8.8 -10,-13.3 -4.8,-6.6 -9.3,-13.3 -13.5,-20.1 h -48.4 v -182 h 0.9 c 4.3,-53.9 24.7,-107.4 61,-158 3.2,-4.5 6.5,-8.9 10,-13.3 34.5,-44.3 81.5,-86.2 141.1,-123.8 3.2,-2 6.6,-4.1 9.9,-6.1 5.2,-3.2 10.4,-6.3 15.8,-9.4 39,-22.5 81,-42.3 125.3,-59.2 3.3,-1.4 6.6,-2.6 10,-3.8 45,-16.8 92.3,-30.7 141.1,-41.9 3.3,-0.7 6.6,-1.5 9.9,-2.2 46,-10.1 93.2,-17.7 141.1,-22.7 3.3,-0.4 6.6,-0.8 10,-1 45.7,-4.6 92,-6.9 138.3,-6.9 0.9,0 1.8,0 2.8,0 3.3,0 6.6,0 9.9,0.1 47.3,0.3 94.5,3.1 141.1,8.3 3.3,0.3 6.6,0.7 10,1.1 47.9,5.6 95.2,13.7 141.1,24.4 3.3,0.8 6.6,1.5 9.9,2.4 48.9,11.7 96.1,26.4 141.1,43.9 3.3,1.3 6.6,2.6 10,4 38.9,15.6 76,33.5 110.7,53.5 10.5,6.1 20.6,12.3 30.4,18.5 3.3,2.2 6.7,4.4 9.9,6.6 61.2,40.7 108.2,86.1 141.1,134 3.5,5.1 6.9,10.3 10,15.4 27.2,44.1 42.6,90 46.4,136.1 h 0.8 v 22.1 0 159.9 h -48.4 c -2.8,4.5 -5.7,9 -8.8,13.5 -15.9,23.2 -35.2,45.9 -57.8,67.7 -19.7,19.1 -41.9,37.5 -66.7,55 -17.6,12.7 -36.6,24.8 -56.9,36.6 -159.1,91.8 -367.6,137.7 -576.2,137.7 z m 0,-10 c 215.9,0 418.8,-48.4 571.2,-136.4 19.8,-11.4 38.7,-23.5 56.1,-36 24.2,-17.2 46.2,-35.3 65.6,-54 21.8,-21.1 40.8,-43.4 56.5,-66.3 3,-4.3 5.8,-8.7 8.6,-13.1 l 2.9,-4.6 h 5.5 38.4 v -150 -12.1 h -0.1 l -0.7,-9.2 c -3.6,-45 -18.7,-89.2 -44.9,-131.7 -2.9,-4.7 -6.2,-9.7 -9.8,-14.9 -32.8,-47.9 -79.4,-92.2 -138.3,-131.4 -3.2,-2.2 -6.5,-4.4 -9.8,-6.5 -9.6,-6.1 -19.7,-12.3 -30,-18.2 -33.7,-19.5 -70.6,-37.3 -109.7,-53.1 -3.2,-1.2 -6.4,-2.5 -9.6,-3.8 -44.2,-17.2 -91.2,-31.8 -140,-43.5 -3.2,-0.9 -6.5,-1.6 -9.7,-2.4 -45,-10.4 -92.1,-18.6 -140.1,-24.2 -3.2,-0.4 -6.4,-0.8 -9.8,-1.1 -46.2,-5.1 -93.3,-7.9 -140.1,-8.2 -3.3,-0.1 -6.6,-0.1 -9.9,-0.1 h -2.7 c -46,0 -92.3,2.3 -137.5,6.8 -3.1,0.3 -6.3,0.6 -9.8,1 -47.4,5 -94.5,12.6 -139.9,22.6 -3.3,0.7 -6.6,1.4 -9.9,2.2 -48.8,11.1 -95.9,25 -139.9,41.4 l -1.3,0.5 c -2.8,1.1 -5.6,2.1 -8.5,3.3 -44.1,16.9 -85.8,36.6 -123.9,58.6 -5.3,3 -10.5,6.1 -15.6,9.2 -3.3,2 -6.6,4.1 -9.8,6.1 -57.5,36.3 -104.1,77.1 -138.6,121.5 -3.1,3.8 -6.2,8.1 -9.7,12.9 -35,48.7 -54.9,100.2 -59.1,153 l -0.8,9.2 h -0.1 V 5409 h 38.4 5.6 l 2.9,4.7 c 4,6.5 8.4,13 13.1,19.5 3,4.1 6.1,8.4 9.8,13 12.3,15.9 26.5,31.6 42.2,46.8 19.6,18.9 41.6,37.1 65.5,54 17.6,12.6 36.5,24.7 56.2,36 152.4,88 355.2,136.4 571.1,136.4" style="fill:#ffe840;fill-opacity:1;fill-rule:nonzero;stroke:none" id="path3418" transform="matrix(0.133333, 0, 0, -0.133333, 0, 5287.013184)"/>
  <path d="m 21562.2,5756.6 c 318.2,-183.7 318.2,-481.6 0,-665.3 -318.2,-183.7 -834.1,-183.7 -1152.3,0 -318.2,183.7 -318.2,481.6 0,665.3 318.2,183.7 834.1,183.7 1152.3,0" style="fill:#ffe840;fill-opacity:1;fill-rule:nonzero;stroke:none" id="path3420" transform="matrix(0.133333, 0, 0, -0.133333, 0, 5287.013184)"/>
  <path d="m 21602.5,5268.5 c -3.1,-4.2 -6.5,-8.5 -9.9,-12.7 -32,-38.5 -75.6,-74.6 -130.9,-106.5 -3.4,-2 -6.8,-3.9 -10.2,-5.8 -3.3,-1.8 -6.6,-3.6 -10,-5.4 -43.4,-23.1 -90.9,-42.3 -141.1,-57.6 -3.2,-1 -6.6,-2 -9.9,-2.9 -45.3,-13.3 -92.7,-23.4 -141.1,-30.4 -3.3,-0.5 -6.6,-0.9 -10,-1.3 -46.4,-6.3 -93.7,-9.6 -141.1,-10.1 -3.3,0 -6.6,-0.1 -9.9,-0.1 -47.3,-0.1 -94.7,2.7 -141.1,8.3 -3.4,0.4 -6.7,0.8 -10,1.3 -48.3,6.2 -95.7,15.6 -141.1,28.1 -3.3,0.9 -6.7,1.8 -9.9,2.8 -50,14.3 -97.4,32.4 -141.1,54.4 -3.4,1.6 -6.7,3.3 -10,5.1 -8.4,4.3 -16.7,8.9 -24.8,13.6 -47.3,27.3 -86,57.6 -116.3,89.9 -3.4,3.7 -6.7,7.4 -9.9,11.2 -82.2,95.1 -92.6,205.7 -31.3,304.8 32.4,52.4 84.9,101.5 157.5,143.4 262.2,151.4 689,151.4 951.3,0 72.6,-41.9 125,-91 157.4,-143.4 57.4,-92.8 51.9,-195.8 -16.6,-286.7 z m 83.3,231.6 c -26.1,80.8 -93.6,155.1 -196.4,214.5 -134.5,77.6 -313.2,120.4 -503.4,120.4 -190.1,0 -368.9,-42.8 -503.4,-120.4 -102.8,-59.4 -170.3,-133.7 -196.4,-214.5 -8,-24.8 -12.1,-50.3 -12.1,-76.2 0,-79 38.4,-154.6 110.1,-219.7 3.2,-3.1 6.5,-6 9.9,-8.8 25.7,-22.1 55.3,-42.9 88.5,-62.1 16.9,-9.7 34.5,-18.9 52.6,-27.5 3.3,-1.6 6.6,-3.1 10,-4.6 43.8,-20.1 91.1,-36.9 141.1,-50.3 3.3,-0.9 6.6,-1.8 9.9,-2.6 45.2,-11.6 92.4,-20.5 141.1,-26.4 3.3,-0.4 6.6,-0.9 10,-1.2 45.2,-5.2 91.6,-7.8 138.7,-7.8 h 2.4 c 3.3,0 6.6,0.1 9.9,0.1 48,0.5 95.2,3.6 141.1,9.5 3.3,0.4 6.6,0.8 10,1.3 48.7,6.5 96,16.1 141.1,28.4 3.3,0.9 6.7,1.8 9.9,2.8 50.2,14.2 97.5,32 141.1,53 3.3,1.6 6.7,3.2 10,4.9 13,6.5 25.6,13.3 37.9,20.4 39.8,23 74.3,48.2 103.2,75.1 3.4,3.2 6.7,6.4 9.9,9.7 62.2,61.8 95.4,132.4 95.4,205.8 0,25.9 -4.1,51.4 -12.1,76.2" style="fill:#ff9d4d;fill-opacity:1;fill-rule:nonzero;stroke:none" id="path3422" transform="matrix(0.133333, 0, 0, -0.133333, 0, 5287.013184)"/>
  <path d="m 21012.1,5490.3 76.7,-44.3 c -1.7,-0.9 -3.4,-1.8 -5.1,-2.7 l -42.1,-24.3 -71.7,41.4 23.7,13.6 c 8.5,4.9 14.6,10.3 18.5,16.3" style="fill:#d1975d;fill-opacity:1;fill-rule:nonzero;stroke:none" id="path3424" transform="matrix(0.133333, 0, 0, -0.133333, 0, 5287.013184)"/>
  <path d="m 20837.3,5519.7 10,5.8 4.8,2.8 h 0.1 l 27.6,16 c 1.6,0.9 3.4,1.6 5,2.4 5.7,2.7 11.6,5.1 18.1,6.6 8.9,2.2 18.6,3.1 29.2,2.9 19.9,-0.3 38.7,-5.4 56.3,-15.4 l 1.2,-0.7 c 3.2,-1.8 6.1,-3.7 8.7,-5.6 12.6,-9 18.8,-18.6 18.6,-28.7 -0.1,-5.6 -1.7,-10.7 -4.8,-15.5 -3.1,-4.8 -7.7,-9.2 -13.8,-13.3 -1.5,-1 -3,-2 -4.7,-3 l -5.2,-3 -18.5,-10.6 -57.2,-33.1 v 0 l -15.6,-9 -24.5,-14.1 -13.7,7.8 -15.2,8.8 -6.4,3.7 -28.8,16.6 -53.7,31 14.9,8.6 25.3,14.6 v 0 z m 246.4,-76.4 c 1.7,0.9 3.4,1.8 5.1,2.7 6.6,3.1 13.8,5.5 21.5,6.9 9.4,1.9 19.1,2.5 29.1,2.2 l 1.5,-0.1 c 2.9,-0.1 5.6,-0.3 8.5,-0.6 7.7,-0.8 15.4,-2.2 23.1,-4.3 10.5,-2.8 20,-6.6 28.3,-11.4 8.3,-4.8 14.6,-10.2 19.1,-16.3 4.3,-6.1 6.6,-12.3 6.9,-18.5 0.2,-6.2 -1.8,-12.2 -5.9,-18.2 -2.6,-3.6 -5.9,-7 -10,-10.2 -2,-1.6 -4.3,-3.1 -6.8,-4.6 l -2,-1.3 -36.2,-20.9 -1.3,-0.8 -15.2,-8.8 -10,-5.7 -32,-18.5 -40.1,-23.2 -123,71.1 13.1,7.5 27,15.6 v 0 l 4,2.3 9.9,5.8 43.3,24.9 z m 157.9,-139.8 v 0 l 78.6,-45.4 47,27.1 -78.8,45.6 2.1,1.3 c 3.4,2.2 6.8,4.4 9.9,6.6 11.2,7.9 20.8,16.1 29,24.6 12.9,13.6 21.3,27.2 25,41.1 3.7,13.8 2.1,27.2 -5,40.4 -7,13.1 -20.3,25.5 -40.1,36.8 -2.9,1.7 -5.9,3.4 -8.9,4.9 -3.2,1.8 -6.6,3.3 -9.9,4.9 -25.4,11.8 -52.4,18.7 -81.2,21 -20.1,1.6 -40.1,1 -59.9,-1.8 -3.4,-0.4 -6.7,-1 -10,-1.6 -12.1,-2.1 -24.1,-5 -36,-8.8 12.3,18.3 14.2,36.4 5.6,54.5 -8.5,18.1 -24.2,33.8 -47,46.9 -14.5,8.4 -31.4,15.2 -50.7,20.5 -19.2,5.3 -39.1,8.6 -59.5,9.7 -20.4,1.1 -40.6,0 -60.8,-3.6 -20.2,-3.6 -38.4,-10 -54.6,-19.4 l -14.8,-8.5 -75.8,43.7 -47,-27.1 75.7,-43.7 -57.1,-33.1 v 0 l -75.8,43.8 -47,-27.2 75.8,-43.7 -83.9,-48.4 99.8,-57.7 9.9,-5.7 141.1,-81.5 10,-5.8 141.1,-81.4 9.9,-5.8 55.1,-31.8 84,48.4 v 0 l 78.6,-45.3 47,27.1 -78.6,45.4 v 0 l 57.2,33" style="fill:#ff9d4d;fill-opacity:1;fill-rule:nonzero;stroke:none" id="path3426" transform="matrix(0.133333, 0, 0, -0.133333, 0, 5287.013184)"/>
  <path d="m 20264.3,5209.9 v -164.8 c -3.5,4.4 -6.7,8.8 -9.9,13.3 v 164.9 c 3.2,-4.5 6.5,-8.9 9.9,-13.4" style="fill:#ffe840;fill-opacity:1;fill-rule:nonzero;stroke:none" id="path3428" transform="matrix(0.133333, 0, 0, -0.133333, 0, 5287.013184)"/>
  <path d="m 20394.1,5100.6 v -164.9 c -3.3,2 -6.7,4.1 -9.9,6.1 v 165 c 3.2,-2.1 6.6,-4.1 9.9,-6.2" style="fill:#ffe840;fill-opacity:1;fill-rule:nonzero;stroke:none" id="path3430" transform="matrix(0.133333, 0, 0, -0.133333, 0, 5287.013184)"/>
  <path d="m 20545.2,5028.2 v -164.9 c -3.4,1.2 -6.7,2.4 -10,3.8 V 5032 c 3.3,-1.3 6.6,-2.6 10,-3.8" style="fill:#ffe840;fill-opacity:1;fill-rule:nonzero;stroke:none" id="path3432" transform="matrix(0.133333, 0, 0, -0.133333, 0, 5287.013184)"/>
  <path d="m 20696.2,4984.1 v -164.9 c -3.3,0.7 -6.6,1.5 -9.9,2.2 v 165 c 3.3,-0.8 6.6,-1.5 9.9,-2.3" style="fill:#ffe840;fill-opacity:1;fill-rule:nonzero;stroke:none" id="path3434" transform="matrix(0.133333, 0, 0, -0.133333, 0, 5287.013184)"/>
  <path d="m 20847.3,4960.4 v -164.9 c -3.4,0.2 -6.7,0.6 -10,1 v 164.9 c 3.3,-0.4 6.6,-0.7 10,-1" style="fill:#ffe840;fill-opacity:1;fill-rule:nonzero;stroke:none" id="path3436" transform="matrix(0.133333, 0, 0, -0.133333, 0, 5287.013184)"/>
  <path d="m 20998.3,4953.6 v -164.9 c -3.3,-0.1 -6.6,-0.1 -9.9,-0.1 v 164.9 c 3.3,0 6.6,0.1 9.9,0.1" style="fill:#ffe840;fill-opacity:1;fill-rule:nonzero;stroke:none" id="path3438" transform="matrix(0.133333, 0, 0, -0.133333, 0, 5287.013184)"/>
  <path d="m 21149.4,4963 v -164.9 c -3.4,-0.4 -6.7,-0.8 -10,-1.1 v 164.9 c 3.3,0.3 6.6,0.7 10,1.1" style="fill:#ffe840;fill-opacity:1;fill-rule:nonzero;stroke:none" id="path3440" transform="matrix(0.133333, 0, 0, -0.133333, 0, 5287.013184)"/>
  <path d="m 21300.4,4989.8 v -164.9 c -3.3,-0.9 -6.6,-1.6 -9.9,-2.4 v 165 c 3.3,0.7 6.6,1.5 9.9,2.3" style="fill:#ffe840;fill-opacity:1;fill-rule:nonzero;stroke:none" id="path3442" transform="matrix(0.133333, 0, 0, -0.133333, 0, 5287.013184)"/>
  <path d="m 21451.5,5037.7 v -164.9 c -3.4,-1.4 -6.7,-2.7 -10,-4 v 165 c 3.3,1.2 6.6,2.6 10,3.9" style="fill:#ffe840;fill-opacity:1;fill-rule:nonzero;stroke:none" id="path3444" transform="matrix(0.133333, 0, 0, -0.133333, 0, 5287.013184)"/>
  <path d="m 21602.5,5116.3 v -164.9 c -3.2,-2.2 -6.6,-4.4 -9.9,-6.6 v 165 c 3.3,2.1 6.7,4.3 9.9,6.5" style="fill:#ffe840;fill-opacity:1;fill-rule:nonzero;stroke:none" id="path3446" transform="matrix(0.133333, 0, 0, -0.133333, 0, 5287.013184)"/>
  <path d="m 21736.5,5249.2 v -164.9 c -3.1,-5.1 -6.5,-10.3 -10,-15.4 v 164.9 c 3.5,5.1 6.8,10.3 10,15.4" style="fill:#ffe840;fill-opacity:1;fill-rule:nonzero;stroke:none" id="path3448" transform="matrix(0.133333, 0, 0, -0.133333, 0, 5287.013184)"/>
  <path d="m 23667.4,5557.7 v -182.1 h -0.8 c -3.8,-46.1 -19.2,-92 -46.4,-136 -3.1,-5.2 -6.5,-10.3 -10,-15.4 -32.9,-47.9 -79.8,-93.3 -141,-134.1 -3.3,-2.2 -6.6,-4.4 -10,-6.6 -9.8,-6.2 -19.9,-12.3 -30.4,-18.4 -34.7,-20.1 -71.8,-37.9 -110.7,-53.6 -3.3,-1.3 -6.7,-2.6 -10,-3.9 -44.9,-17.6 -92.2,-32.2 -141,-43.9 -3.4,-0.9 -6.7,-1.7 -10,-2.5 -45.9,-10.6 -93.2,-18.7 -141.1,-24.3 -3.3,-0.5 -6.7,-0.9 -10,-1.2 -46.6,-5.1 -93.8,-7.9 -141,-8.3 -3.4,0 -6.7,-0.1 -10,-0.1 -47.2,-0.1 -94.4,2.2 -141.1,6.9 -3.3,0.3 -6.7,0.6 -10,1 -47.8,5.1 -95.1,12.7 -141,22.7 -3.4,0.8 -6.7,1.5 -10,2.3 -48.8,11.1 -96.1,25.1 -141.1,41.8 -3.3,1.3 -6.7,2.5 -10,3.8 -44.3,17 -86.3,36.7 -125.3,59.3 -5.3,3.1 -10.6,6.2 -15.7,9.3 -3.4,2.1 -6.7,4.1 -10,6.2 -59.5,37.6 -106.6,79.4 -141.1,123.7 -3.5,4.4 -6.8,8.9 -10,13.3 -36.3,50.6 -56.6,104.2 -61,158 h -0.9 v 182.1 h 48.4 c 4.2,6.7 8.7,13.4 13.5,20 3.2,4.5 6.5,9 10,13.4 12.7,16.3 27.1,32.2 43.1,47.8 19.7,19 41.9,37.4 66.7,55 17.7,12.6 36.7,24.8 57,36.5 318.2,183.7 834.1,183.7 1152.3,0 20.3,-11.7 39.3,-23.9 56.9,-36.5 24.8,-17.6 47,-36 66.7,-55 22.6,-21.8 41.9,-44.5 57.8,-67.8 3.1,-4.4 6,-8.9 8.8,-13.4 h 48.4" style="fill:#ff9d4d;fill-opacity:1;fill-rule:nonzero;stroke:none" id="path3450" transform="matrix(0.133333, 0, 0, -0.133333, 0, 5287.013184)"/>
  <path d="m 22852.6,5868.2 c -208.5,0 -417,-45.9 -576.1,-137.8 -20.3,-11.7 -39.3,-23.9 -57,-36.5 -24.8,-17.6 -47,-36 -66.7,-55 -16,-15.6 -30.4,-31.5 -43.1,-47.8 -3.5,-4.4 -6.8,-8.9 -10,-13.4 -4.8,-6.6 -9.3,-13.3 -13.5,-20 h -48.4 v -182.1 h 0.9 c 4.4,-53.9 24.7,-107.4 61,-158 3.2,-4.4 6.5,-8.9 10,-13.3 34.5,-44.3 81.6,-86.1 141.1,-123.7 3.3,-2.1 6.6,-4.1 10,-6.2 5.1,-3.1 10.4,-6.2 15.7,-9.3 39,-22.6 81,-42.3 125.3,-59.3 3.3,-1.3 6.7,-2.5 10,-3.8 45,-16.8 92.3,-30.7 141.1,-41.8 3.3,-0.8 6.6,-1.5 10,-2.3 45.9,-10 93.2,-17.6 141,-22.7 3.3,-0.4 6.7,-0.7 10,-1 45.8,-4.6 92.1,-6.9 138.4,-6.9 h 2.7 c 3.3,0 6.6,0.1 10,0.1 47.2,0.4 94.4,3.2 141,8.3 3.3,0.3 6.7,0.7 10,1.2 47.9,5.6 95.2,13.7 141.1,24.3 3.3,0.8 6.6,1.6 10,2.5 48.8,11.7 96.1,26.3 141,43.9 3.3,1.3 6.7,2.6 10,3.9 38.9,15.7 76,33.5 110.7,53.6 10.5,6.1 20.6,12.2 30.4,18.4 3.3,2.2 6.7,4.4 10,6.6 61.2,40.8 108.1,86.2 141,134.1 3.5,5.1 6.9,10.2 10,15.4 27.2,44 42.6,89.9 46.4,136 h 0.8 v 22.1 0.1 159.9 h -48.4 c -2.8,4.5 -5.7,9 -8.8,13.4 -15.9,23.3 -35.2,46 -57.8,67.8 -19.7,19 -41.9,37.4 -66.7,55 -17.6,12.6 -36.6,24.8 -56.9,36.5 -159.1,91.9 -367.6,137.8 -576.2,137.8 z m 0,-10 c 216,0 418.8,-48.5 571.2,-136.4 19.9,-11.5 38.7,-23.6 56.2,-36 24.1,-17.2 46.2,-35.4 65.5,-54.1 21.8,-21.1 40.8,-43.4 56.5,-66.3 3,-4.3 5.8,-8.6 8.6,-13 l 2.9,-4.7 h 5.5 38.5 v -150 -12.1 h -0.1 l -0.8,-9.2 c -3.6,-44.9 -18.7,-89.2 -44.9,-131.6 -2.9,-4.7 -6.1,-9.8 -9.7,-15 -32.9,-47.9 -79.5,-92.1 -138.4,-131.4 -3.2,-2.2 -6.5,-4.3 -9.8,-6.4 -9.6,-6.2 -19.7,-12.3 -30,-18.3 -33.7,-19.4 -70.5,-37.3 -109.4,-52.9 -3.3,-1.3 -6.6,-2.6 -9.9,-3.9 -44.2,-17.3 -91.2,-31.9 -140,-43.6 -3.1,-0.8 -6.3,-1.6 -9.7,-2.3 -44.9,-10.5 -92,-18.6 -140.1,-24.3 -3.2,-0.3 -6.4,-0.7 -9.8,-1.1 -46.2,-5.1 -93.3,-7.8 -140.1,-8.2 -3.3,0 -6.6,-0.1 -9.8,-0.1 h -2.7 c -46.1,0 -92.3,2.3 -137.6,6.9 -3.1,0.2 -6.3,0.6 -9.7,0.9 -47.5,5.1 -94.6,12.7 -140,22.6 l -0.6,0.1 c -3.1,0.7 -6.2,1.4 -9.3,2.1 -48.8,11.1 -95.8,25.1 -139.9,41.5 l -1,0.4 c -2.9,1 -5.8,2.1 -8.8,3.3 -44.1,16.9 -85.8,36.6 -123.9,58.6 -5.3,3.1 -10.4,6.1 -15.5,9.3 -3.4,2 -6.7,4 -9.9,6 -57.4,36.3 -104,77.2 -138.6,121.5 -3.1,3.9 -6.2,8.1 -9.7,12.9 -35,48.8 -54.9,100.3 -59.1,153 l -0.7,9.2 h -0.2 v 162.1 h 38.4 5.6 l 2.9,4.7 c 4,6.5 8.4,13 13.2,19.6 2.9,4.1 6,8.3 9.7,13 12.3,15.8 26.5,31.6 42.2,46.7 19.6,18.9 41.6,37.1 65.5,54.1 17.6,12.5 36.5,24.6 56.2,36 152.4,87.9 355.2,136.4 571.1,136.4" style="fill:#ffe840;fill-opacity:1;fill-rule:nonzero;stroke:none" id="path3452" transform="matrix(0.133333, 0, 0, -0.133333, 0, 5287.013184)"/>
  <path d="m 23428.8,5895.3 c 318.2,-183.7 318.2,-481.6 0,-665.3 -318.2,-183.7 -834.1,-183.7 -1152.3,0 -318.2,183.7 -318.2,481.6 0,665.3 318.2,183.7 834.1,183.7 1152.3,0" style="fill:#ffe840;fill-opacity:1;fill-rule:nonzero;stroke:none" id="path3454" transform="matrix(0.133333, 0, 0, -0.133333, 0, 5287.013184)"/>
  <path d="m 23469.2,5407.2 c -3.2,-4.2 -6.6,-8.4 -10,-12.6 -32,-38.6 -75.6,-74.7 -130.9,-106.6 -3.3,-1.9 -6.8,-3.8 -10.2,-5.8 -3.3,-1.8 -6.6,-3.6 -10,-5.3 -43.4,-23.2 -90.9,-42.4 -141,-57.6 -3.3,-1 -6.7,-2 -10,-3 -45.3,-13.3 -92.7,-23.4 -141.1,-30.3 -3.3,-0.5 -6.6,-1 -10,-1.4 -46.3,-6.2 -93.6,-9.6 -141,-10 -3.4,-0.1 -6.7,-0.1 -10,-0.1 -47.3,-0.1 -94.7,2.6 -141.1,8.3 -3.3,0.4 -6.7,0.8 -10,1.2 -48.3,6.3 -95.6,15.7 -141,28.1 -3.4,1 -6.7,1.9 -10,2.8 -50,14.3 -97.4,32.5 -141.1,54.4 -3.4,1.7 -6.7,3.4 -10,5.1 -8.4,4.4 -16.7,8.9 -24.8,13.6 -47.3,27.3 -86,57.7 -116.2,90 -3.5,3.7 -6.8,7.4 -10,11.1 -82.1,95.1 -92.6,205.8 -31.3,304.8 32.5,52.4 84.9,101.5 157.5,143.4 262.2,151.4 689,151.4 951.3,0 72.6,-41.9 125,-91 157.4,-143.4 57.5,-92.8 52,-195.8 -16.5,-286.7 z m 83.2,231.7 c -26,80.7 -93.5,155.1 -196.4,214.4 -134.4,77.7 -313.2,120.4 -503.3,120.4 -190.2,0 -369,-42.7 -503.4,-120.4 -102.8,-59.3 -170.4,-133.7 -196.5,-214.4 -8,-24.9 -12.1,-50.4 -12.1,-76.2 0,-79 38.4,-154.7 110.1,-219.8 3.2,-3 6.5,-5.9 10,-8.8 25.6,-22.1 55.2,-42.8 88.5,-62.1 16.8,-9.7 34.4,-18.9 52.5,-27.4 3.3,-1.6 6.7,-3.2 10,-4.7 43.8,-20 91.1,-36.9 141.1,-50.2 3.3,-0.9 6.6,-1.8 10,-2.7 45.1,-11.6 92.3,-20.5 141,-26.3 3.3,-0.5 6.7,-0.9 10,-1.3 45.2,-5.1 91.6,-7.7 138.8,-7.7 h 2.3 c 3.3,0 6.6,0 10,0.1 47.9,0.4 95.1,3.6 141,9.4 3.3,0.4 6.7,0.8 10,1.3 48.8,6.5 96,16.1 141.1,28.4 3.4,0.9 6.7,1.8 10,2.8 50.1,14.3 97.4,32 141,53.1 3.3,1.5 6.7,3.2 10,4.9 13,6.4 25.6,13.2 37.9,20.3 39.8,23 74.3,48.3 103.2,75.2 3.4,3.2 6.7,6.4 10,9.6 62.2,61.9 95.3,132.4 95.3,205.9 0,25.8 -4.1,51.3 -12.1,76.2" style="fill:#ff9d4d;fill-opacity:1;fill-rule:nonzero;stroke:none" id="path3456" transform="matrix(0.133333, 0, 0, -0.133333, 0, 5287.013184)"/>
  <path d="m 22878.7,5629 76.7,-44.3 c -1.7,-0.8 -3.4,-1.7 -5.1,-2.7 l -42.1,-24.3 -71.7,41.4 23.7,13.7 c 8.5,4.9 14.6,10.3 18.5,16.2" style="fill:#d1975d;fill-opacity:1;fill-rule:nonzero;stroke:none" id="path3458" transform="matrix(0.133333, 0, 0, -0.133333, 0, 5287.013184)"/>
  <path d="m 22703.9,5658.5 10,5.8 4.9,2.8 v 0 l 27.6,15.9 c 1.6,1 3.4,1.6 5,2.4 5.7,2.8 11.6,5.1 18.1,6.7 8.9,2.1 18.7,3.1 29.2,2.9 19.9,-0.4 38.7,-5.5 56.3,-15.4 l 1.3,-0.7 c 3.1,-1.9 6,-3.7 8.7,-5.6 12.5,-9.1 18.7,-18.6 18.5,-28.8 0,-5.5 -1.6,-10.7 -4.8,-15.5 -3.1,-4.7 -7.7,-9.2 -13.7,-13.3 -1.5,-1 -3.1,-2 -4.8,-2.9 l -5.2,-3 -18.5,-10.7 -57.1,-33 h -0.1 l -15.6,-9 -24.5,-14.2 -13.6,7.9 -15.3,8.8 -6.4,3.7 -28.8,16.6 -53.6,31 14.9,8.6 25.2,14.6 v 0 z m 246.4,-76.5 c 1.7,1 3.4,1.9 5.1,2.7 6.6,3.2 13.8,5.5 21.5,7 9.4,1.8 19.1,2.5 29.1,2.1 h 1.6 c 2.8,-0.2 5.6,-0.4 8.4,-0.7 7.7,-0.8 15.4,-2.2 23.1,-4.2 10.5,-2.8 20,-6.7 28.3,-11.4 8.3,-4.9 14.7,-10.3 19.1,-16.4 4.4,-6.1 6.6,-12.2 6.9,-18.4 0.2,-6.2 -1.8,-12.3 -5.9,-18.2 -2.6,-3.6 -5.9,-7.1 -10,-10.3 -2,-1.5 -4.3,-3.1 -6.7,-4.6 l -2.1,-1.3 -36.2,-20.9 -1.3,-0.7 -15.2,-8.8 -10,-5.8 -31.9,-18.4 -40.2,-23.2 -123,71 13.1,7.6 27,15.6 v 0 l 4,2.3 10,5.7 43.2,25 z m 157.9,-139.8 v 0.1 l 78.6,-45.4 47,27.1 -78.8,45.5 2.1,1.4 c 3.4,2.1 6.8,4.3 10,6.6 11.1,7.9 20.7,16.1 28.9,24.6 12.9,13.5 21.3,27.2 25,41 3.7,13.8 2.1,27.3 -5,40.4 -7,13.2 -20.3,25.5 -40.1,36.9 -2.9,1.7 -5.9,3.3 -8.8,4.9 -3.3,1.7 -6.6,3.3 -10,4.8 -25.4,11.8 -52.4,18.8 -81.1,21.1 -20.2,1.5 -40.2,0.9 -60,-1.8 -3.3,-0.5 -6.7,-1 -10,-1.6 -12.1,-2.2 -24.1,-5.1 -35.9,-8.8 12.2,18.2 14.1,36.4 5.6,54.5 -8.6,18.1 -24.3,33.7 -47.1,46.9 -14.5,8.3 -31.3,15.2 -50.7,20.5 -19.2,5.3 -39.1,8.5 -59.5,9.6 -20.3,1.2 -40.6,0 -60.8,-3.5 -20.2,-3.6 -38.4,-10 -54.6,-19.4 l -14.8,-8.6 -75.8,43.8 -47,-27.2 75.8,-43.7 -57.2,-33 -75.8,43.7 -47,-27.1 75.8,-43.8 -83.9,-48.4 99.8,-57.6 10,-5.8 141,-81.4 10,-5.8 141.1,-81.5 10,-5.7 55.1,-31.8 83.9,48.4 v 0 l 78.6,-45.4 47,27.1 -78.6,45.4 v 0.1 l 57.2,32.9" style="fill:#ff9d4d;fill-opacity:1;fill-rule:nonzero;stroke:none" id="path3460" transform="matrix(0.133333, 0, 0, -0.133333, 0, 5287.013184)"/>
  <path d="m 22131,5348.7 v -164.9 c -3.6,4.4 -6.8,8.8 -10,13.3 V 5362 c 3.2,-4.4 6.5,-8.9 10,-13.3" style="fill:#ffe840;fill-opacity:1;fill-rule:nonzero;stroke:none" id="path3462" transform="matrix(0.133333, 0, 0, -0.133333, 0, 5287.013184)"/>
  <path d="m 22260.8,5239.4 v -165 c -3.4,2.1 -6.7,4.1 -10,6.2 v 165 c 3.3,-2.1 6.6,-4.2 10,-6.2" style="fill:#ffe840;fill-opacity:1;fill-rule:nonzero;stroke:none" id="path3464" transform="matrix(0.133333, 0, 0, -0.133333, 0, 5287.013184)"/>
  <path d="m 22411.8,5167 v -165 c -3.3,1.3 -6.7,2.5 -10,3.8 v 164.9 c 3.3,-1.2 6.7,-2.5 10,-3.7" style="fill:#ffe840;fill-opacity:1;fill-rule:nonzero;stroke:none" id="path3466" transform="matrix(0.133333, 0, 0, -0.133333, 0, 5287.013184)"/>
  <path d="m 22562.9,5122.9 v -165 c -3.4,0.8 -6.7,1.5 -10,2.3 v 165 c 3.3,-0.8 6.6,-1.6 10,-2.3" style="fill:#ffe840;fill-opacity:1;fill-rule:nonzero;stroke:none" id="path3468" transform="matrix(0.133333, 0, 0, -0.133333, 0, 5287.013184)"/>
  <path d="m 22713.9,5099.1 v -164.9 c -3.3,0.3 -6.7,0.6 -10,1 v 164.9 c 3.3,-0.3 6.7,-0.7 10,-1" style="fill:#ffe840;fill-opacity:1;fill-rule:nonzero;stroke:none" id="path3470" transform="matrix(0.133333, 0, 0, -0.133333, 0, 5287.013184)"/>
  <path d="m 22865,5092.3 v -164.9 c -3.4,0 -6.7,-0.1 -10,-0.1 v 165 c 3.3,0 6.6,0 10,0" style="fill:#ffe840;fill-opacity:1;fill-rule:nonzero;stroke:none" id="path3472" transform="matrix(0.133333, 0, 0, -0.133333, 0, 5287.013184)"/>
  <path d="m 23016,5101.8 v -164.9 c -3.3,-0.5 -6.7,-0.9 -10,-1.2 v 164.9 c 3.3,0.4 6.7,0.8 10,1.2" style="fill:#ffe840;fill-opacity:1;fill-rule:nonzero;stroke:none" id="path3474" transform="matrix(0.133333, 0, 0, -0.133333, 0, 5287.013184)"/>
  <path d="m 23167.1,5128.6 v -164.9 c -3.4,-0.9 -6.7,-1.7 -10,-2.5 v 165 c 3.3,0.8 6.6,1.6 10,2.4" style="fill:#ffe840;fill-opacity:1;fill-rule:nonzero;stroke:none" id="path3476" transform="matrix(0.133333, 0, 0, -0.133333, 0, 5287.013184)"/>
  <path d="m 23318.1,5176.4 v -164.9 c -3.3,-1.3 -6.7,-2.6 -10,-3.9 v 164.9 c 3.3,1.3 6.7,2.6 10,3.9" style="fill:#ffe840;fill-opacity:1;fill-rule:nonzero;stroke:none" id="path3478" transform="matrix(0.133333, 0, 0, -0.133333, 0, 5287.013184)"/>
  <path d="m 23469.2,5255 v -164.9 c -3.3,-2.2 -6.6,-4.4 -10,-6.6 v 165 c 3.4,2.2 6.7,4.4 10,6.5" style="fill:#ffe840;fill-opacity:1;fill-rule:nonzero;stroke:none" id="path3480" transform="matrix(0.133333, 0, 0, -0.133333, 0, 5287.013184)"/>
  <path d="m 23603.1,5388 v -164.9 c -3.1,-5.2 -6.5,-10.3 -10,-15.4 v 164.9 c 3.5,5.1 6.8,10.2 10,15.4" style="fill:#ffe840;fill-opacity:1;fill-rule:nonzero;stroke:none" id="path3482" transform="matrix(0.133333, 0, 0, -0.133333, 0, 5287.013184)"/>
  <path d="m 21055.3,4078.8 v -182 h -0.8 c -3.8,-46.2 -19.2,-92.1 -46.4,-136.1 -3.1,-5.1 -6.5,-10.3 -10,-15.4 -32.9,-47.9 -79.8,-93.3 -141,-134.1 -3.3,-2.1 -6.7,-4.3 -10,-6.5 -9.8,-6.3 -19.9,-12.4 -30.4,-18.5 -34.7,-20 -71.8,-37.9 -110.7,-53.6 -3.3,-1.3 -6.7,-2.6 -10,-3.9 -44.9,-17.5 -92.2,-32.2 -141,-43.9 -3.4,-0.9 -6.7,-1.7 -10,-2.4 -45.9,-10.7 -93.2,-18.8 -141.1,-24.4 -3.3,-0.4 -6.7,-0.8 -10,-1.2 -46.6,-5.1 -93.8,-7.9 -141,-8.2 -3.4,-0.1 -6.7,-0.1 -10,-0.1 -47.2,-0.1 -94.4,2.2 -141.1,6.8 -3.3,0.3 -6.7,0.7 -10,1 -47.8,5.1 -95.1,12.7 -141,22.8 -3.4,0.7 -6.7,1.4 -10,2.2 -48.8,11.1 -96.1,25.1 -141.1,41.9 -3.3,1.2 -6.7,2.4 -10,3.7 -44.3,17 -86.3,36.8 -125.3,59.3 -5.4,3.1 -10.6,6.2 -15.7,9.4 -3.4,2 -6.7,4.1 -10,6.1 -59.5,37.6 -106.6,79.5 -141.1,123.7 -3.5,4.5 -6.8,8.9 -10,13.4 -36.3,50.5 -56.6,104.1 -61,158 h -0.9 v 182 h 48.4 c 4.2,6.8 8.7,13.5 13.5,20.1 3.2,4.5 6.5,8.9 10,13.3 12.7,16.3 27.1,32.3 43.1,47.8 19.7,19 41.9,37.4 66.7,55 17.7,12.6 36.7,24.8 57,36.5 318.2,183.7 834.1,183.7 1152.3,0 20.3,-11.7 39.3,-23.8 56.9,-36.5 24.8,-17.6 47,-35.9 66.7,-55 22.6,-21.8 41.9,-44.5 57.8,-67.7 3.1,-4.5 6,-9 8.8,-13.5 h 48.4" style="fill:#ff9d4d;fill-opacity:1;fill-rule:nonzero;stroke:none" id="path3484" transform="matrix(0.133333, 0, 0, -0.133333, 0, 5287.013184)"/>
  <path d="m 20240.5,4389.3 c -208.5,0 -417,-45.9 -576.1,-137.8 -20.3,-11.7 -39.3,-23.9 -57,-36.5 -24.8,-17.6 -47,-36 -66.7,-55 -16,-15.5 -30.4,-31.5 -43.1,-47.8 -3.5,-4.4 -6.8,-8.8 -10,-13.3 -4.8,-6.6 -9.3,-13.3 -13.5,-20.1 h -48.4 v -182 h 0.9 c 4.4,-53.9 24.7,-107.5 61,-158 3.2,-4.5 6.5,-8.9 10,-13.4 34.5,-44.2 81.6,-86.1 141.1,-123.7 3.3,-2 6.6,-4.1 10,-6.1 5.1,-3.2 10.3,-6.3 15.7,-9.4 39,-22.5 81,-42.3 125.3,-59.3 3.3,-1.3 6.7,-2.5 10,-3.7 45,-16.8 92.3,-30.8 141.1,-41.9 3.3,-0.8 6.6,-1.5 10,-2.2 45.9,-10.1 93.2,-17.7 141,-22.8 3.3,-0.3 6.7,-0.7 10,-1 45.7,-4.6 92,-6.8 138.3,-6.8 0.9,0 1.9,0 2.8,0 3.3,0 6.6,0 10,0.1 47.2,0.3 94.4,3.1 141,8.2 3.3,0.4 6.7,0.8 10,1.2 47.9,5.6 95.2,13.7 141.1,24.4 3.3,0.7 6.6,1.5 10,2.4 48.8,11.7 96.1,26.4 141,43.9 3.3,1.3 6.7,2.6 10,3.9 38.9,15.7 76,33.6 110.7,53.6 10.5,6.1 20.6,12.2 30.4,18.5 3.3,2.2 6.7,4.4 10,6.5 61.2,40.8 108.1,86.2 141,134.1 3.5,5.1 6.9,10.3 10,15.4 27.2,44 42.6,89.9 46.4,136.1 h 0.8 v 22.1 0 159.9 h -48.4 c -2.8,4.5 -5.7,9 -8.8,13.5 -15.9,23.2 -35.2,45.9 -57.8,67.7 -19.7,19.1 -41.9,37.4 -66.7,55 -17.6,12.7 -36.6,24.8 -56.9,36.5 -159.1,91.9 -367.6,137.8 -576.2,137.8 z m 0,-10 c 216,0 418.8,-48.4 571.2,-136.4 19.9,-11.5 38.7,-23.6 56.2,-36 24.1,-17.2 46.2,-35.4 65.5,-54.1 21.8,-21 40.8,-43.3 56.5,-66.2 3,-4.4 5.8,-8.7 8.6,-13.1 l 2.9,-4.7 h 5.5 38.5 v -149.9 -12.2 h -0.1 l -0.8,-9.1 c -3.6,-45 -18.7,-89.3 -44.9,-131.7 -2.9,-4.7 -6.2,-9.7 -9.7,-14.9 -32.9,-48 -79.5,-92.2 -138.4,-131.4 -3.2,-2.2 -6.5,-4.4 -9.8,-6.5 -9.6,-6.1 -19.7,-12.3 -30,-18.2 -33.7,-19.5 -70.6,-37.3 -109.4,-53 -3.3,-1.3 -6.6,-2.6 -9.9,-3.9 -44.2,-17.2 -91.2,-31.9 -140,-43.5 -3.1,-0.9 -6.2,-1.6 -9.7,-2.4 -45,-10.4 -92.1,-18.6 -140.4,-24.2 -3.1,-0.4 -6.2,-0.8 -9.5,-1.1 -46.2,-5.1 -93.3,-7.9 -140.1,-8.3 -3.3,0 -6.5,-0.1 -9.8,-0.1 h -2.8 c -46,0 -92.2,2.3 -137.5,6.9 -3.1,0.3 -6.3,0.6 -9.7,1 -47.5,5 -94.6,12.6 -140,22.5 -3.3,0.8 -6.6,1.5 -9.9,2.3 -48.8,11.1 -95.9,25 -139.8,41.4 l -1.3,0.5 c -2.8,1 -5.7,2.1 -8.6,3.3 -44.1,16.8 -85.8,36.6 -123.9,58.6 -5.3,3 -10.4,6.1 -15.5,9.2 -3.4,2 -6.7,4.1 -9.9,6.1 -57.4,36.3 -104.1,77.1 -138.6,121.5 -3.1,3.8 -6.2,8.1 -9.7,12.9 -35,48.7 -54.9,100.2 -59.1,153 l -0.8,9.1 h -0.1 v 162.1 h 38.4 5.6 l 2.9,4.7 c 4,6.5 8.4,13.1 13.2,19.6 2.9,4.1 6,8.4 9.7,13 12.3,15.9 26.5,31.6 42.2,46.7 19.6,19 41.6,37.2 65.5,54.1 17.6,12.5 36.5,24.6 56.2,36 152.4,88 355.2,136.4 571.1,136.4" style="fill:#ffe840;fill-opacity:1;fill-rule:nonzero;stroke:none" id="path3486" transform="matrix(0.133333, 0, 0, -0.133333, 0, 5287.013184)"/>
  <path d="m 20816.7,4416.5 c 318.2,-183.7 318.2,-481.6 0,-665.3 -318.2,-183.7 -834.1,-183.7 -1152.3,0 -318.2,183.7 -318.2,481.6 0,665.3 318.2,183.7 834.1,183.7 1152.3,0" style="fill:#ffe840;fill-opacity:1;fill-rule:nonzero;stroke:none" id="path3488" transform="matrix(0.133333, 0, 0, -0.133333, 0, 5287.013184)"/>
  <path d="m 20857.1,3928.4 c -3.2,-4.2 -6.6,-8.5 -10,-12.7 -32,-38.5 -75.6,-74.6 -130.9,-106.5 -3.3,-2 -6.8,-3.9 -10.2,-5.8 -3.3,-1.8 -6.6,-3.7 -10,-5.4 -43.4,-23.1 -90.9,-42.3 -141,-57.6 -3.3,-1 -6.7,-2 -10,-3 -45.3,-13.2 -92.7,-23.3 -141.1,-30.3 -3.3,-0.5 -6.6,-0.9 -10,-1.3 -46.3,-6.3 -93.7,-9.6 -141,-10.1 -3.4,-0.1 -6.7,-0.1 -10,-0.1 -47.3,-0.1 -94.7,2.6 -141.1,8.3 -3.3,0.4 -6.7,0.8 -10,1.3 -48.3,6.2 -95.7,15.6 -141,28.1 -3.4,0.9 -6.7,1.8 -10,2.8 -50,14.3 -97.4,32.4 -141.1,54.3 -3.4,1.7 -6.7,3.4 -10,5.1 -8.4,4.4 -16.7,9 -24.8,13.7 -47.3,27.3 -86,57.6 -116.2,89.9 -3.5,3.7 -6.8,7.4 -10,11.1 -82.1,95.2 -92.6,205.8 -31.3,304.8 32.5,52.4 84.9,101.6 157.5,143.4 262.2,151.5 689,151.5 951.3,0 72.6,-41.8 125,-91 157.4,-143.4 57.5,-92.8 52,-195.7 -16.5,-286.6 z m 83.2,231.6 c -26.1,80.8 -93.5,155.1 -196.4,214.4 -134.4,77.7 -313.2,120.5 -503.3,120.5 -190.2,0 -369,-42.8 -503.4,-120.5 -102.8,-59.3 -170.4,-133.6 -196.5,-214.4 -8,-24.9 -12.1,-50.3 -12.1,-76.2 0,-79 38.4,-154.6 110.1,-219.8 3.2,-3 6.5,-5.9 10,-8.8 25.6,-22.1 55.2,-42.8 88.5,-62 16.8,-9.7 34.4,-18.9 52.5,-27.5 3.3,-1.6 6.7,-3.2 10,-4.7 43.8,-20 91.1,-36.8 141.1,-50.2 3.3,-0.9 6.6,-1.8 10,-2.7 45.1,-11.5 92.3,-20.4 141,-26.3 3.3,-0.5 6.7,-0.9 10,-1.2 45.2,-5.2 91.6,-7.8 138.8,-7.8 h 2.3 c 3.3,0 6.6,0.1 10,0.1 47.9,0.5 95.1,3.6 141,9.4 3.3,0.5 6.7,0.9 10,1.4 48.7,6.5 96,16 141.1,28.4 3.3,0.9 6.7,1.8 10,2.8 50.1,14.2 97.4,32 141,53 3.3,1.6 6.7,3.2 10,4.9 13,6.5 25.6,13.3 37.9,20.4 39.8,22.9 74.3,48.2 103.2,75.1 3.4,3.2 6.7,6.4 10,9.6 62.2,61.9 95.3,132.5 95.3,205.9 0,25.9 -4.1,51.3 -12.1,76.2" style="fill:#ff9d4d;fill-opacity:1;fill-rule:nonzero;stroke:none" id="path3490" transform="matrix(0.133333, 0, 0, -0.133333, 0, 5287.013184)"/>
  <path d="m 20266.6,4150.1 76.7,-44.3 c -1.7,-0.8 -3.4,-1.7 -5.1,-2.6 l -42.1,-24.4 -71.7,41.4 23.7,13.7 c 8.5,4.9 14.6,10.3 18.5,16.2" style="fill:#d1975d;fill-opacity:1;fill-rule:nonzero;stroke:none" id="path3492" transform="matrix(0.133333, 0, 0, -0.133333, 0, 5287.013184)"/>
  <path d="m 20091.8,4179.6 10,5.8 4.8,2.8 h 0.1 l 27.6,16 c 1.6,0.9 3.4,1.6 5,2.4 5.7,2.7 11.6,5.1 18.1,6.6 8.9,2.2 18.7,3.1 29.2,2.9 19.9,-0.3 38.7,-5.4 56.3,-15.4 l 1.3,-0.7 c 3.1,-1.8 6,-3.7 8.7,-5.6 12.5,-9 18.7,-18.6 18.6,-28.8 -0.1,-5.5 -1.7,-10.6 -4.9,-15.5 -3.1,-4.7 -7.7,-9.2 -13.7,-13.2 -1.5,-1 -3.1,-2 -4.8,-3 l -5.2,-3 -18.5,-10.7 -57.2,-33 v 0 l -15.6,-9 -24.5,-14.1 -13.6,7.8 -15.3,8.8 -6.4,3.7 -28.8,16.6 -53.7,31 15,8.6 25.2,14.6 v 0 z m 246.4,-76.4 c 1.7,0.9 3.4,1.8 5.1,2.6 6.6,3.2 13.8,5.6 21.5,7 9.4,1.8 19.1,2.5 29.1,2.2 l 1.6,-0.1 c 2.8,-0.1 5.6,-0.3 8.4,-0.6 7.7,-0.8 15.4,-2.3 23.1,-4.3 10.5,-2.8 20,-6.6 28.3,-11.4 8.3,-4.8 14.7,-10.3 19.1,-16.3 4.4,-6.1 6.6,-12.3 6.9,-18.5 0.2,-6.2 -1.8,-12.2 -5.9,-18.2 -2.6,-3.6 -5.9,-7 -10,-10.2 -2,-1.6 -4.3,-3.2 -6.7,-4.7 l -2.1,-1.2 -36.2,-20.9 -1.3,-0.8 -15.2,-8.8 -10,-5.7 -31.9,-18.5 -40.2,-23.2 -123,71 13.1,7.6 27,15.6 v 0 l 4,2.3 10,5.7 43.2,25 z m 157.9,-139.8 v 0 l 78.6,-45.4 47,27.1 -78.8,45.5 2.1,1.4 c 3.4,2.2 6.8,4.4 10,6.6 11.1,7.9 20.7,16.1 28.9,24.6 12.9,13.6 21.3,27.2 25,41 3.7,13.8 2.1,27.3 -4.9,40.5 -7.1,13.1 -20.4,25.4 -40.2,36.8 -2.9,1.7 -5.9,3.4 -8.8,4.9 -3.3,1.7 -6.7,3.3 -10,4.9 -25.4,11.7 -52.4,18.7 -81.1,21 -20.2,1.5 -40.2,0.9 -60,-1.8 -3.3,-0.4 -6.7,-1 -10,-1.6 -12.1,-2.1 -24.1,-5 -36,-8.8 12.3,18.2 14.2,36.4 5.6,54.5 -8.5,18.1 -24.2,33.7 -47,46.9 -14.5,8.4 -31.3,15.2 -50.7,20.5 -19.2,5.3 -39.1,8.5 -59.5,9.7 -20.3,1.1 -40.6,-0.1 -60.8,-3.6 -20.2,-3.6 -38.4,-10 -54.6,-19.4 l -14.8,-8.5 -75.8,43.7 -47,-27.2 75.7,-43.7 -57.1,-33 v 0 l -75.8,43.7 -47,-27.1 75.8,-43.7 -83.9,-48.5 99.8,-57.6 10,-5.8 141,-81.4 10,-5.8 141.1,-81.4 10,-5.8 55.1,-31.8 83.9,48.4 v 0 l 78.6,-45.4 47,27.2 -78.6,45.4 v 0 l 57.2,33" style="fill:#ff9d4d;fill-opacity:1;fill-rule:nonzero;stroke:none" id="path3494" transform="matrix(0.133333, 0, 0, -0.133333, 0, 5287.013184)"/>
  <path d="m 19518.9,3869.8 v -164.9 c -3.6,4.5 -6.8,8.9 -10,13.4 v 164.9 c 3.2,-4.5 6.5,-9 10,-13.4" style="fill:#ffe840;fill-opacity:1;fill-rule:nonzero;stroke:none" id="path3496" transform="matrix(0.133333, 0, 0, -0.133333, 0, 5287.013184)"/>
  <path d="m 19648.7,3760.5 v -164.9 c -3.4,2 -6.7,4.1 -10,6.1 v 165 c 3.3,-2.1 6.6,-4.2 10,-6.2" style="fill:#ffe840;fill-opacity:1;fill-rule:nonzero;stroke:none" id="path3498" transform="matrix(0.133333, 0, 0, -0.133333, 0, 5287.013184)"/>
  <path d="m 19799.7,3688.1 v -164.9 c -3.3,1.2 -6.7,2.4 -10,3.7 v 165 c 3.3,-1.3 6.7,-2.6 10,-3.8" style="fill:#ffe840;fill-opacity:1;fill-rule:nonzero;stroke:none" id="path3500" transform="matrix(0.133333, 0, 0, -0.133333, 0, 5287.013184)"/>
  <path d="m 19950.8,3644 v -164.9 c -3.4,0.7 -6.7,1.4 -10,2.2 v 165 c 3.3,-0.8 6.6,-1.6 10,-2.3" style="fill:#ffe840;fill-opacity:1;fill-rule:nonzero;stroke:none" id="path3502" transform="matrix(0.133333, 0, 0, -0.133333, 0, 5287.013184)"/>
  <path d="m 20101.8,3620.3 v -165 c -3.3,0.3 -6.7,0.7 -10,1 v 165 c 3.3,-0.4 6.7,-0.8 10,-1" style="fill:#ffe840;fill-opacity:1;fill-rule:nonzero;stroke:none" id="path3504" transform="matrix(0.133333, 0, 0, -0.133333, 0, 5287.013184)"/>
  <path d="m 20252.9,3613.5 v -164.9 c -3.4,-0.1 -6.7,-0.1 -10,-0.1 v 164.9 c 3.3,0 6.6,0 10,0.1" style="fill:#ffe840;fill-opacity:1;fill-rule:nonzero;stroke:none" id="path3506" transform="matrix(0.133333, 0, 0, -0.133333, 0, 5287.013184)"/>
  <path d="M 20403.9,3622.9 V 3458 c -3.3,-0.4 -6.7,-0.8 -10,-1.2 v 165 c 3.3,0.3 6.7,0.7 10,1.1" style="fill:#ffe840;fill-opacity:1;fill-rule:nonzero;stroke:none" id="path3508" transform="matrix(0.133333, 0, 0, -0.133333, 0, 5287.013184)"/>
  <path d="m 20555,3649.7 v -164.9 c -3.4,-0.9 -6.7,-1.7 -10,-2.4 v 164.9 c 3.3,0.8 6.6,1.6 10,2.4" style="fill:#ffe840;fill-opacity:1;fill-rule:nonzero;stroke:none" id="path3510" transform="matrix(0.133333, 0, 0, -0.133333, 0, 5287.013184)"/>
  <path d="m 20706,3697.6 v -165 c -3.3,-1.3 -6.7,-2.6 -10,-3.9 v 165 c 3.3,1.2 6.7,2.5 10,3.9" style="fill:#ffe840;fill-opacity:1;fill-rule:nonzero;stroke:none" id="path3512" transform="matrix(0.133333, 0, 0, -0.133333, 0, 5287.013184)"/>
  <path d="m 20857.1,3776.2 v -165 c -3.3,-2.1 -6.7,-4.3 -10,-6.5 v 165 c 3.3,2.1 6.7,4.3 10,6.5" style="fill:#ffe840;fill-opacity:1;fill-rule:nonzero;stroke:none" id="path3514" transform="matrix(0.133333, 0, 0, -0.133333, 0, 5287.013184)"/>
  <path d="m 20991,3909.1 v -164.9 c -3.1,-5.1 -6.5,-10.3 -10,-15.4 v 164.9 c 3.5,5.1 6.8,10.3 10,15.4" style="fill:#ffe840;fill-opacity:1;fill-rule:nonzero;stroke:none" id="path3516" transform="matrix(0.133333, 0, 0, -0.133333, 0, 5287.013184)"/>
  <g id="g3518" transform="matrix(0.133333, 0, 0, -0.133333, 0, 5287.013184)">
    <g id="g3520" clip-path="url(#clipPath3524)">
      <path d="m 26239.1,6595.6 h -0.3 c -33.3,0 -69.4,-5.4 -107.6,-16.4 -71.8,-20.8 -144,-43.2 -216.4,-67.3 -103.1,-34.2 -206.7,-71.7 -310.9,-112.7 -49.8,-19.5 -99.6,-39.8 -149.6,-61 -128.6,-54 -257.7,-113 -387,-176.8 -50.6,-25 -101.3,-50.7 -152.1,-77.2 -103.4,-53.7 -206.8,-110.5 -310.3,-170.2 -30.6,-17.7 -61.2,-35.6 -91.8,-53.8 -31.8,-18.8 -63.5,-38 -95.3,-57.4 h -0.1 c -148.2,-90.6 -296.1,-187.1 -443.6,-289.3 -20.3,-14.1 -40.7,-28.4 -61,-42.7 -146.7,-103.3 -292.9,-212.2 -438,-326.6 -39,-30.5 -77.8,-61.5 -116.6,-92.9 -93.8,-76.1 -187.2,-154.2 -280,-234.6 -112.6,-97.5 -206.1,-222.5 -267.8,-350.9 l -202.4,116.9 -483.6,279 c 4.6,9.6 9.4,19.2 14.4,28.7 61.5,117.1 148.7,229.6 252,319.1 498.6,431.9 1012.5,800.6 1526.4,1097.3 513.9,296.7 1027.7,521.4 1526.4,665.3 90.5,26 168.5,20.2 227.8,-12.7 l 479.6,-276.6 c 1.2,-0.5 2.2,-1.1 3.3,-1.8 l 8.3,-4.8 c 31.5,-19.1 57.2,-46.2 76.2,-80.6" style="fill:url(#linearGradient3530);fill-opacity:1;fill-rule:nonzero;stroke:none" id="path3532"/>
    </g>
  </g>
  <g id="g3534" transform="matrix(0.133333, 0, 0, -0.133333, 0, 5287.013184)">
    <g id="g3536" clip-path="url(#clipPath3540)">
      <path d="m 22894.4,1350.7 -70.5,28.8 -1.3,0.5 -0.3,0.1 -81.2,46.5 -16.3,9.4 -0.3,0.1 -399.7,228.7 c -25.4,11.6 -49.3,25.3 -71.5,41 l -0.2,0.2 c -135.9,96 -210.9,268.6 -210.9,492.3 v 2346 c 0,98.8 30,209.4 82.5,317.4 l 483.6,-279 202.4,-116.9 c -51.5,-107.1 -81,-216.4 -81,-314.3 v -2346 c 0,-113.8 19.4,-214.2 56.2,-298.2 27,-61.4 63.4,-114 108.5,-156.6" style="fill:url(#linearGradient3546);fill-opacity:1;fill-rule:nonzero;stroke:none" id="path3548"/>
    </g>
  </g>
  <path d="m 26186.8,6659.2 -598,-323.7 V 4477.8 c 0,-267.8 -107.3,-586.4 -298.1,-884.3 L 23964,1520.1 c -138.8,-217.1 -361.9,-345.9 -500.8,-289.2 l -698.1,285 -24.6,-91.4 -0.4,0.2 c -138.1,95.8 -214.3,269.4 -214.3,495 v 2346 c 0,97.9 29.5,207.2 81.1,314.3 61.6,128.3 155.1,253.3 267.7,350.9 498.7,431.8 1012.5,800.6 1526.4,1097.3 514,296.6 1027.9,521.3 1526.4,665.2 38.2,11 74.3,16.4 107.5,16.4 33.2,0 63.7,-5.3 91,-15.6 l 60.9,-35" style="fill:#925fc4;fill-opacity:1;fill-rule:nonzero;stroke:none" id="path3550" transform="matrix(0.133333, 0, 0, -0.133333, 0, 5287.013184)"/>
  <g id="g3552" transform="matrix(0.133333, 0, 0, -0.133333, 0, 5287.013184)">
    <g id="g3554" clip-path="url(#clipPath3558)">
      <path d="m 26276.3,6430.9 v -2346 c 0,-267.7 -107.4,-586.3 -298.1,-884.2 L 24651.5,1127.2 c -138.9,-216.997 -362.1,-345.802 -500.7,-289.098 l -1256.4,512.598 -70.5,28.8 -1.3,0.5 -0.3,0.1 c -29.2,12.1 -56.5,26.9 -81.8,44.4 l -0.4,0.2 c -3.7,2.5 -7.3,5.1 -10.7,7.7 -1.6,1.1 -3.2,2.3 -4.6,3.6 l -0.3,0.1 c -8.8,6.7 -17.3,13.8 -25.6,21.2 -3,2.7 -5.9,5.4 -8.9,8.1 -3.3,3.2 -6.7,6.4 -10,9.8 -2.4,2.4 -4.8,4.9 -7,7.4 -8.4,8.8 -16.4,18 -24.1,27.5 -2.2,2.7 -4.2,5.4 -6.3,8.2 -4.2,5.4 -8.2,10.9 -12.2,16.6 -1.7,2.4 -3.4,4.8 -5,7.3 -1.8,2.6 -3.4,5.2 -5.1,7.8 -2.5,3.8 -4.9,7.7 -7.2,11.6 -2,3.3 -4,6.5 -5.8,9.9 -4.5,7.9 -8.8,15.9 -12.9,24.1 -2.1,4 -4,8 -5.9,12 -4.4,9.2 -8.5,18.7 -12.5,28.4 -1.4,3.2 -2.7,6.6 -3.9,10 -0.6,1.5 -1.2,2.9 -1.7,4.4 -1.3,3.2 -2.4,6.4 -3.6,9.7 -0.9,2.5 -1.8,5 -2.7,7.7 -1.4,4.2 -2.7,8.5 -4.1,12.8 -1.5,4.4 -2.9,8.9 -4.1,13.5 -0.8,2.4 -1.5,4.7 -2.1,7.1 -1.1,4 -2.2,7.9 -3.2,11.9 l -0.4,1.6 c -1.3,4.9 -2.5,9.9 -3.7,14.8 -1,4.5 -2.1,9 -2.9,13.5 -1.3,5.7 -2.5,11.5 -3.5,17.4 l -0.1,0.5 c -1.2,5.8 -2.2,11.8 -3.2,17.8 -0.6,3.5 -1.1,7.2 -1.6,10.9 -0.8,4.4 -1.3,8.8 -1.9,13.3 -1.5,11.3 -2.8,22.9 -3.8,34.7 -0.5,4.1 -0.8,8.3 -1,12.5 -0.3,3.3 -0.5,6.5 -0.7,9.8 -0.4,6.5 -0.9,13 -1.1,19.7 -0.5,13.1 -0.8,26.5 -0.8,40 v 2346.1 c 0,97.8 29.5,207.1 81,314.3 0.4,0.9 0.8,1.7 1.4,2.7 4.5,9.2 9.1,18.6 14,27.9 3.4,6.6 6.9,13.1 10.6,19.6 3.9,7.2 7.9,14.2 12,21.4 2.6,4.6 5.3,9.2 8.1,13.7 2.3,4 4.7,8 7.2,12 4.4,7 8.9,14.2 13.5,21.2 3.9,6.1 7.9,12.2 12.1,18.2 6.2,9.3 12.7,18.5 19.3,27.7 5.4,7.6 10.9,15.1 16.6,22.5 5.7,7.5 11.4,14.9 17.3,22.1 3.6,4.7 7.5,9.5 11.5,14.1 9.3,11.4 18.9,22.6 28.8,33.6 11.1,12.4 22.5,24.6 34.2,36.6 9.4,9.6 19.1,19 28.9,28.2 10.5,10.1 21.3,19.9 32.3,29.3 498.6,431.9 1012.4,800.6 1526.4,1097.4 513.9,296.6 1027.8,521.3 1526.3,665.1 38.2,11.1 74.2,16.4 107.6,16.4 33.1,0 63.6,-5.2 91,-15.5 8.8,-3.3 17.2,-7.1 25.3,-11.4 1.2,-0.5 2.2,-1.1 3.3,-1.8 l 8.3,-4.8 c 8.4,-5.1 16.3,-10.8 23.9,-17.1 20.8,-16.9 38.3,-38.3 52.3,-63.5 24.1,-43.8 37.2,-99.2 37.2,-164.7" style="fill:url(#linearGradient3564);fill-opacity:1;fill-rule:nonzero;stroke:none" id="path3566"/>
    </g>
  </g>
  <g id="g3568" transform="matrix(0.133333, 0, 0, -0.133333, 0, 5287.013184)">
    <g id="g3570" clip-path="url(#clipPath3574)">
      <path d="M 25992.4,6027.7 V 4036.9 c 0,-227.2 -91.1,-497.6 -252.9,-750.4 l -1126,-1759.6 c -117.8,-184.2 -307.1,-293.4 -424.9,-245.3 L 23062.7,1741 c -25.4,10.3 -49,23.1 -70.8,38.2 l -0.4,0.2 c -117.1,81.2 -181.8,228.5 -181.8,420 v 1990.9 c 0,83 25,175.8 68.8,266.7 52.3,108.9 131.7,215 227.2,297.7 423.1,366.5 859.2,679.4 1295.3,931.2 436.2,251.7 872.3,442.5 1295.3,564.5 32.4,9.4 63.1,13.9 91.3,13.9 28.1,0 54,-4.4 77.2,-13.2 79.6,-29.5 127.6,-108.2 127.6,-223.4" style="fill:url(#linearGradient3580);fill-opacity:1;fill-rule:nonzero;stroke:none" id="path3582"/>
    </g>
  </g>
  <g id="g3584" transform="matrix(0.133333, 0, 0, -0.133333, 0, 5287.013184)">
    <g id="g3586" clip-path="url(#clipPath3590)">
      <path d="m 23487.5,5195.3 c 0,-46 -37.2,-104.8 -83.2,-131.3 -46,-26.6 -83.3,-10.8 -83.3,35.2 0,46 37.3,104.8 83.3,131.3 46,26.5 83.2,10.8 83.2,-35.2" style="fill:url(#linearGradient3596);fill-opacity:1;fill-rule:nonzero;stroke:none" id="path3598"/>
    </g>
  </g>
  <g id="g3600" transform="matrix(0.133333, 0, 0, -0.133333, 0, 5287.013184)">
    <g id="g3602" clip-path="url(#clipPath3606)">
      <path d="m 24017.3,5611.5 c 0,-46 -37.3,-104.8 -83.2,-131.3 -46,-26.5 -83.3,-10.8 -83.3,35.2 0,46 37.3,104.8 83.3,131.3 45.9,26.5 83.2,10.8 83.2,-35.2" style="fill:url(#linearGradient3612);fill-opacity:1;fill-rule:nonzero;stroke:none" id="path3614"/>
    </g>
  </g>
  <g id="g3616" transform="matrix(0.133333, 0, 0, -0.133333, 0, 5287.013184)">
    <g id="g3618" clip-path="url(#clipPath3622)">
      <path d="m 24547.1,5946.8 c 0,-46 -37.3,-104.8 -83.3,-131.3 -46,-26.6 -83.2,-10.8 -83.2,35.2 0,45.9 37.2,104.7 83.2,131.3 46,26.5 83.3,10.8 83.3,-35.2" style="fill:url(#linearGradient3628);fill-opacity:1;fill-rule:nonzero;stroke:none" id="path3630"/>
    </g>
  </g>
  <g id="g3632" transform="matrix(0.133333, 0, 0, -0.133333, 0, 5287.013184)">
    <g id="g3634" clip-path="url(#clipPath3638)">
      <path d="m 25076.9,6205.5 c 0,-46 -37.3,-104.8 -83.3,-131.3 -46,-26.6 -83.3,-10.8 -83.3,35.2 0,46 37.3,104.8 83.3,131.3 46,26.5 83.3,10.8 83.3,-35.2" style="fill:url(#linearGradient3644);fill-opacity:1;fill-rule:nonzero;stroke:none" id="path3646"/>
    </g>
  </g>
  <g id="g3648" transform="matrix(0.133333, 0, 0, -0.133333, 0, 5287.013184)">
    <g id="g3650" clip-path="url(#clipPath3654)">
      <path d="m 25606.6,6379.7 c 0,-46 -37.2,-104.8 -83.2,-131.3 -46,-26.6 -83.3,-10.8 -83.3,35.1 0,46 37.3,104.8 83.3,131.4 46,26.5 83.2,10.8 83.2,-35.2" style="fill:url(#linearGradient3660);fill-opacity:1;fill-rule:nonzero;stroke:none" id="path3662"/>
    </g>
  </g>
  <g id="g3664" transform="matrix(0.133333, 0, 0, -0.133333, 0, 5287.013184)">
    <g id="g3666" clip-path="url(#clipPath3670)">
      <path d="m 24988.7,3624.5 c -12.9,-38.8 -30.5,-76.2 -52.6,-112 -22.2,-35.9 -48.5,-69.1 -78.9,-99.6 -18.7,-18.5 -38,-35.3 -58.3,-50 -13,-9.6 -26.3,-18.2 -40,-26.1 l -157.8,-91.1 -409.7,-236.5 v 517.6 l 168.9,97.6 418,241.2 c 7,4.1 13.9,7.8 20.6,11.1 25.2,12.3 48.9,19.3 70.7,21 27.7,2.1 51.7,-3 72,-15.2 20.3,-12.3 36.4,-31.2 48.5,-56.4 12,-25.5 18,-55.7 18,-90.7 0,-35.1 -6.6,-72.1 -19.4,-110.9 z m -797.3,699.7 525.9,303.6 c 29.5,17.1 56.7,27.5 81.6,31.6 26.6,4.3 50.6,1.1 72.1,-9.3 41.5,-20.4 62.4,-68.4 62.4,-144 0,-77.5 -22.7,-151.4 -67.9,-221.9 -20.3,-31.6 -42.5,-59.7 -66.6,-84.6 -29.8,-30.6 -62.5,-56.3 -98.2,-76.9 l -340.4,-196.6 -168.9,-97.5 z m 1103.2,-172.9 c -65.6,48 -154.6,56.1 -267.2,24.3 92.3,93.9 162.4,196.6 210.4,308.4 48,111.6 72,215.5 72,311.4 0,60.9 -10.7,115.2 -31.9,162.9 -21.2,47.8 -51.2,84 -89.9,108.7 -38.7,24.7 -85.9,35.8 -141.2,33.5 -55.4,-2.6 -117.2,-23.5 -185.5,-63 l -62.4,-35.9 v 318.7 l -197.8,-114.2 v -318.8 l -240.8,-138.9 v 318.7 l -197.8,-114.2 v -318.8 l -353.2,-203.9 V 2464.7 l 353.2,203.9 v -330.9 l 197.8,114.1 v 331 l 240.8,139 v -331 l 76.4,44.1 121.4,70.1 v 331.8 c 72,44.4 140.2,94.7 205,150.8 22.8,19.7 44.8,40 65.9,60.5 l 0.2,0.2 c 49.9,48.6 95.2,99.6 136,152.9 58,76 103.8,155 137.1,236.8 13,32.5 23.6,65 31.5,97.5 12.1,49.9 18.2,99.8 18.2,150.1 0,129.1 -32.8,217.7 -98.2,265.7" style="fill:url(#linearGradient3676);fill-opacity:1;fill-rule:nonzero;stroke:none" id="path3678"/>
    </g>
  </g>
</svg>