<?xml version="1.0" encoding="utf-8"?>
<svg viewBox="1119.526 1657.937 1173.031 680.544" width="1173.031" height="680.544" xmlns="http://www.w3.org/2000/svg">
  <defs>
    <clipPath clipPathUnits="userSpaceOnUse" id="clipPath1644">
      <path d="m 10177.5,23843.4 c 156.3,-90.2 156.3,-236.5 0,-326.7 -156.3,-90.2 -409.63,-90.2 -565.91,0 -156.27,90.2 -156.27,236.5 0,326.7 156.28,90.2 409.61,90.2 565.91,0 z" id="path1642"/>
    </clipPath>
    <linearGradient x1="0" y1="0" x2="1" y2="0" gradientUnits="userSpaceOnUse" gradientTransform="matrix(800.317,0,0,-800.317,9494.39,23680)" spreadMethod="pad" id="linearGradient1650">
      <stop style="stop-opacity:1;stop-color:#6a5ebf" offset="0" id="stop1646"/>
      <stop style="stop-opacity:1;stop-color:#6e3aa5" offset="1" id="stop1648"/>
    </linearGradient>
    <clipPath clipPathUnits="userSpaceOnUse" id="clipPath1662">
      <path d="m 11970.7,23861.4 c 156.3,-90.2 156.3,-236.5 0,-326.8 -156.2,-90.2 -409.6,-90.2 -565.9,0 -156.2,90.3 -156.2,236.6 0,326.8 156.3,90.2 409.7,90.2 565.9,0 z" id="path1660"/>
    </clipPath>
    <linearGradient x1="0" y1="0" x2="1" y2="0" gradientUnits="userSpaceOnUse" gradientTransform="matrix(800.317,0,0,-800.317,11287.6,23698)" spreadMethod="pad" id="linearGradient1668">
      <stop style="stop-opacity:1;stop-color:#6a5ebf" offset="0" id="stop1664"/>
      <stop style="stop-opacity:1;stop-color:#6e3aa5" offset="1" id="stop1666"/>
    </linearGradient>
    <clipPath clipPathUnits="userSpaceOnUse" id="clipPath1680">
      <path d="m 10977.8,25414.1 c 156.3,-90.3 156.3,-236.5 0,-326.8 -156.3,-90.2 -409.6,-90.2 -565.9,0 -156.3,90.3 -156.3,236.5 0,326.8 156.3,90.2 409.6,90.2 565.9,0 z" id="path1678"/>
    </clipPath>
    <linearGradient x1="0" y1="0" x2="1" y2="0" gradientUnits="userSpaceOnUse" gradientTransform="matrix(800.317,0,0,-800.317,10294.7,25250.7)" spreadMethod="pad" id="linearGradient1686">
      <stop style="stop-opacity:1;stop-color:#6a5ebf" offset="0" id="stop1682"/>
      <stop style="stop-opacity:1;stop-color:#6e3aa5" offset="1" id="stop1684"/>
    </linearGradient>
    <clipPath clipPathUnits="userSpaceOnUse" id="clipPath1706">
      <path d="m 16068.4,27140.3 c -118.2,81.7 -228.3,97.2 -304.4,55.1 l -933.9,-532.7 526.4,-906.6 933.9,532.7 c 11.9,4.6 23.1,10.7 33.6,18.1 48.9,34.2 81.1,95.1 88,180.3 17.6,217.6 -136.2,510 -343.6,653.1 z" id="path1704"/>
    </clipPath>
    <linearGradient x1="0" y1="0" x2="1" y2="0" gradientUnits="userSpaceOnUse" gradientTransform="matrix(1585.76,-128.395,-128.395,-1585.76,14821,26551.1)" spreadMethod="pad" id="linearGradient1712">
      <stop style="stop-opacity:1;stop-color:#6a5ebf" offset="0" id="stop1708"/>
      <stop style="stop-opacity:1;stop-color:#6e3aa5" offset="1" id="stop1710"/>
    </linearGradient>
  </defs>
  <path d="m 16501.7,25631.5 c 923.3,-533.1 923.3,-1397.3 0,-1930.3 -923.2,-533.1 -2420.1,-533.1 -3343.3,0 -923.2,533 -923.2,1397.2 0,1930.3 923.2,533 2420.1,533 3343.3,0" style="fill:#e3dfea;fill-opacity:1;fill-rule:nonzero;stroke:none" id="path1634" transform="matrix(0.133333, 0, 0, -0.133333, 0, 5287.013184)"/>
  <path d="m 11493.5,22800.2 v 0 c -62.4,-36 -163.5,-36 -225.9,0 l -2824.37,1629.3 c -62.38,36 -62.38,94.4 0,130.4 62.38,36 163.52,36 225.91,0 l 2824.36,-1629.3 c 62.4,-36 62.4,-94.4 0,-130.4" style="fill:#ff9d4d;fill-opacity:1;fill-rule:nonzero;stroke:none" id="path1636" transform="matrix(0.133333, 0, 0, -0.133333, 0, 5287.013184)"/>
  <g id="g1638" transform="matrix(0.133333, 0, 0, -0.133333, 0, 5287.013184)">
    <g id="g1640" clip-path="url(#clipPath1644)">
      <path d="m 10177.5,23843.4 c 156.3,-90.2 156.3,-236.5 0,-326.7 -156.3,-90.2 -409.63,-90.2 -565.91,0 -156.27,90.2 -156.27,236.5 0,326.7 156.28,90.2 409.61,90.2 565.91,0" style="fill:url(#linearGradient1650);fill-opacity:1;fill-rule:nonzero;stroke:none" id="path1652"/>
    </g>
  </g>
  <path d="m 12359.9,23302.1 v 0 c -62.4,-36 -163.6,-36 -225.9,0 l -2824.38,1629.3 c -62.38,36 -62.38,94.4 0,130.4 h 0.01 c 62.38,36 163.52,36 225.9,0 l 2824.37,-1629.3 c 62.4,-36 62.4,-94.4 0,-130.4" style="fill:#ff9d4d;fill-opacity:1;fill-rule:nonzero;stroke:none" id="path1654" transform="matrix(0.133333, 0, 0, -0.133333, 0, 5287.013184)"/>
  <g id="g1656" transform="matrix(0.133333, 0, 0, -0.133333, 0, 5287.013184)">
    <g id="g1658" clip-path="url(#clipPath1662)">
      <path d="m 11970.7,23861.4 c 156.3,-90.2 156.3,-236.5 0,-326.8 -156.2,-90.2 -409.6,-90.2 -565.9,0 -156.2,90.3 -156.2,236.6 0,326.8 156.3,90.2 409.7,90.2 565.9,0" style="fill:url(#linearGradient1668);fill-opacity:1;fill-rule:nonzero;stroke:none" id="path1670"/>
    </g>
  </g>
  <path d="m 13226.3,23804 v 0 c -62.4,-36.1 -163.6,-36.1 -225.9,0 L 10176,25433.2 c -62.4,36.1 -62.4,94.5 0,130.5 62.4,36 163.5,36 225.9,0 l 2824.4,-1629.3 c 62.4,-36 62.4,-94.4 0,-130.4" style="fill:#ff9d4d;fill-opacity:1;fill-rule:nonzero;stroke:none" id="path1672" transform="matrix(0.133333, 0, 0, -0.133333, 0, 5287.013184)"/>
  <g id="g1674" transform="matrix(0.133333, 0, 0, -0.133333, 0, 5287.013184)">
    <g id="g1676" clip-path="url(#clipPath1680)">
      <path d="m 10977.8,25414.1 c 156.3,-90.3 156.3,-236.5 0,-326.8 -156.3,-90.2 -409.6,-90.2 -565.9,0 -156.3,90.3 -156.3,236.5 0,326.8 156.3,90.2 409.6,90.2 565.9,0" style="fill:url(#linearGradient1686);fill-opacity:1;fill-rule:nonzero;stroke:none" id="path1688"/>
    </g>
  </g>
  <path d="m 16373.1,26431 c -6.6,-81.8 -37.4,-140.2 -84.4,-173 l -32.2,-17.4 -994.9,-537.7 c -10.6,-5.8 -21.1,-11.9 -31.3,-18.4 l -2.2,-3.1 c -52.3,-73.3 -124,-129.8 -206.2,-166.5 -28.4,-12.7 -53.7,-27.7 -69.4,-49 -39.2,-52.9 -68.6,-113.4 -86.2,-178.2 -24.8,-91.5 -73.5,-174.8 -140.9,-241.4 l -229.9,-226.8 c -197.8,-195.4 -446.5,-331.3 -718,-392.4 l -36.5,-8.2 c -135,-30.4 -214,40 -209.9,-98.2 l 2.3,-80.8 c 0.6,-22.9 108.5,36.3 131.4,34.5 l 101.1,-8.2 c 17.6,-1.5 31.4,-16.9 30.2,-34.6 -3.1,-40.8 -31.7,-75.4 -71.4,-85.9 l -272.9,-126.1 v 0.2 c -28.5,-13.3 -61.5,-17.6 -95.2,-9.3 l -58.2,14.3 -340.1,83.5 c -50.2,12.4 -98.5,31.4 -143.3,56.5 l -21.8,12.4 -20.6,11.6 c -197.4,110.9 -325.8,136.1 -303,361.4 l 31.5,309.7 c 0.6,6.2 -3.6,10.7 -8.5,12 h -0.1 c -3.4,0.8 -7.1,0.1 -10,-2.5 l -31.9,-28.3 -0.7,-0.6 h -0.1 l -866.1,-788.4 c -15.2,-13.5 -39.3,-7.7 -46.7,11.9 l -0.7,1.6 c -11.1,29.5 -15.2,60.4 -12.7,90.9 0.4,4.8 1.2,9.7 1.8,14.5 3.6,22.8 11,45 21.9,65.4 7,13.3 15.7,26 25.7,37.5 l 7,8.1 546.7,597.2 c 90.8,105.5 192.8,200.5 304.4,283.5 l 924.4,687.4 c 16.4,12.1 17.4,8.5 8.7,22.6 h -0.1 c -6.2,10.4 -17.8,17.5 -32.4,16.3 l -51.5,-4.6 c -139.6,-12.4 -267.9,-77.1 -401.2,-34.3 l -252.5,80.8 c -105.7,33.8 -173.7,177.1 -163.4,287.8 5.5,61.1 62.9,101.5 120.5,92 7.8,-1.3 15.6,-3.4 23.3,-6.6 l 64.4,-26.4 c 32.1,-13.3 64.7,-25 97.9,-34.8 71.3,-21.4 144.6,-35.3 218.9,-41.4 l 28.6,-2.3 c 2.6,-0.2 5.3,-0.4 8.1,-0.5 96.2,-5.9 147.3,-27.1 234.7,13.4 78,36.1 183.8,76.9 254.3,71.2 l 53.9,-4.4 c 103.5,-8.4 292,7.2 459.1,37.4 108.9,19.7 208.7,45.6 269.7,75.1 l 117.5,58 1325.6,653.8 0.7,0.5 11.3,6.6 c 72.9,40.4 178.6,25.5 292,-52.8 198.9,-137.3 346.4,-417.9 329.5,-626.5" style="fill:#ffd0a6;fill-opacity:1;fill-rule:nonzero;stroke:none" id="path1690" transform="matrix(0.133333, 0, 0, -0.133333, 0, 5287.013184)"/>
  <path d="m 12454.1,24834.7 -8.5,11.6 528.3,388.2 8.6,-11.6 -528.4,-388.2" style="fill:#c19d80;fill-opacity:1;fill-rule:nonzero;stroke:none" id="path1692" transform="matrix(0.133333, 0, 0, -0.133333, 0, 5287.013184)"/>
  <path d="m 12786.3,24175.1 -70.5,237.9 c -32.3,109 6.1,227.1 95.4,294 36.2,27 76.4,51.3 115.4,74.8 18.4,11.2 36.7,22.2 54.1,33.3 l 283,180.8 7.8,-12.2 -283.1,-180.8 c -17.5,-11.1 -35.8,-22.2 -54.4,-33.4 -38.6,-23.3 -78.6,-47.4 -114.2,-74.1 -84.5,-63.2 -120.7,-175.1 -90.2,-278.3 l 70.5,-237.9 -13.8,-4.1" style="fill:#c19d80;fill-opacity:1;fill-rule:nonzero;stroke:none" id="path1694" transform="matrix(0.133333, 0, 0, -0.133333, 0, 5287.013184)"/>
  <path d="m 13291.6,24022.4 -83.4,237.4 c -14.9,42.4 -21.7,84.9 -20.1,126 3.4,85.9 40.5,115.1 107.8,168 21.8,17.2 46.5,36.6 74.9,61.5 l 162.3,142.5 9.5,-10.8 -162.3,-142.5 c -28.7,-25.2 -53.5,-44.7 -75.5,-62 -68.1,-53.5 -99.2,-78 -102.3,-157.2 -1.5,-39.4 5,-80 19.3,-120.8 l 83.4,-237.3 -13.6,-4.8" style="fill:#c19d80;fill-opacity:1;fill-rule:nonzero;stroke:none" id="path1696" transform="matrix(0.133333, 0, 0, -0.133333, 0, 5287.013184)"/>
  <path d="m 11636.3,24227.4 c -1.2,-14 -6.7,-27.4 -16.4,-38.3 l -51.5,-58.1 -43,40.1 c 3.6,22.6 11,44.8 21.9,65.3 7,13.3 15.7,25.9 25.7,37.5 l 7,8.1 13.1,0.8 c 15.5,1 30.1,-7.7 36.9,-21.9 5.1,-10.6 7.2,-22.2 6.3,-33.5" style="fill:#e5b093;fill-opacity:1;fill-rule:nonzero;stroke:none" id="path1698" transform="matrix(0.133333, 0, 0, -0.133333, 0, 5287.013184)"/>
  <g id="g1700" transform="matrix(0.133333, 0, 0, -0.133333, 0, 5287.013184)">
    <g id="g1702" clip-path="url(#clipPath1706)">
      <path d="m 16068.4,27140.3 c -118.2,81.7 -228.3,97.2 -304.4,55.1 l -933.9,-532.7 526.4,-906.6 933.9,532.7 c 11.9,4.6 23.1,10.7 33.6,18.1 48.9,34.2 81.1,95.1 88,180.3 17.6,217.6 -136.2,510 -343.6,653.1" style="fill:url(#linearGradient1712);fill-opacity:1;fill-rule:nonzero;stroke:none" id="path1714"/>
    </g>
  </g>
  <path d="m 15478.1,25954.5 c -6.9,-85.2 -39.1,-146.1 -88.1,-180.3 -10.4,-7.4 -21.6,-13.5 -33.5,-18.1 -74.9,-30.5 -176.9,-11.5 -285.8,63.8 -207.4,143.2 -361.3,435.7 -343.7,653.2 7,86.7 40.2,148.4 90.6,182.2 l 0.8,0.5 11.7,6.9 c 76,42.1 186.2,26.6 304.4,-55.1 207.4,-143.1 361.2,-435.5 343.6,-653.1" style="fill:#ffd0a6;fill-opacity:1;fill-rule:nonzero;stroke:none" id="path1716" transform="matrix(0.133333, 0, 0, -0.133333, 0, 5287.013184)"/>
  <path d="m 13359.5,25844.1 -8.1,11.9 c 6.1,4.2 149.4,101.7 232,123.7 l 3.7,-13.9 c -80.3,-21.4 -226.1,-120.7 -227.6,-121.7" style="fill:#c19d80;fill-opacity:1;fill-rule:nonzero;stroke:none" id="path1718" transform="matrix(0.133333, 0, 0, -0.133333, 0, 5287.013184)"/>
  <path d="m 14100.7,22651.7 v -155.3 h -0.7 c -3.2,-39.4 -16.4,-78.5 -39.6,-116.1 -2.6,-4.4 -5.5,-8.8 -8.5,-13.1 -28,-40.9 -68.1,-79.6 -120.3,-114.4 -2.8,-1.8 -5.6,-3.7 -8.5,-5.6 -8.3,-5.3 -17,-10.5 -25.9,-15.7 -29.6,-17.1 -61.3,-32.3 -94.5,-45.7 -2.8,-1.2 -5.6,-2.3 -8.5,-3.4 -38.3,-14.9 -78.6,-27.4 -120.3,-37.4 -2.8,-0.8 -5.7,-1.4 -8.5,-2.1 -39.2,-9.1 -79.5,-16 -120.4,-20.8 -2.8,-0.3 -5.6,-0.7 -8.5,-1 -39.7,-4.4 -80,-6.7 -120.3,-7 -2.8,-0.1 -5.7,-0.1 -8.5,-0.1 -40.3,-0.1 -80.5,1.8 -120.3,5.8 -2.9,0.3 -5.7,0.6 -8.6,0.9 -40.8,4.3 -81.1,10.8 -120.3,19.4 -2.8,0.6 -5.6,1.2 -8.5,1.9 -41.6,9.5 -81.9,21.4 -120.3,35.7 -2.9,1 -5.7,2.1 -8.5,3.2 -37.8,14.5 -73.6,31.3 -106.9,50.6 -4.6,2.6 -9.1,5.3 -13.5,8 -2.8,1.7 -5.7,3.5 -8.5,5.2 -50.7,32.1 -90.9,67.8 -120.3,105.5 -3,3.8 -5.8,7.6 -8.5,11.4 -31,43.1 -48.4,88.8 -52,134.8 h -0.8 v 155.3 h 41.3 c 3.5,5.7 7.4,11.4 11.5,17.1 2.7,3.8 5.5,7.6 8.5,11.4 10.8,13.9 23.1,27.5 36.8,40.7 16.8,16.2 35.7,31.9 56.9,47 15,10.7 31.3,21.1 48.6,31.1 271.4,156.7 711.4,156.7 982.9,0 17.3,-10 33.5,-20.4 48.5,-31.1 21.1,-15.1 40.1,-30.7 56.9,-47 19.3,-18.6 35.7,-37.9 49.3,-57.8 2.6,-3.8 5.1,-7.6 7.5,-11.4 h 41.3" style="fill:#ff9d4d;fill-opacity:1;fill-rule:nonzero;stroke:none" id="path1720" transform="matrix(0.133333, 0, 0, -0.133333, 0, 5287.013184)"/>
  <path d="m 13405.7,22916.5 c -177.9,0 -355.7,-39.2 -491.4,-117.5 -17.3,-10 -33.6,-20.4 -48.6,-31.1 -21.2,-15.1 -40.1,-30.8 -56.9,-47 -13.7,-13.2 -26,-26.8 -36.8,-40.7 -3,-3.8 -5.8,-7.6 -8.5,-11.4 -4.1,-5.7 -8,-11.4 -11.5,-17.1 h -41.3 v -155.3 h 0.8 c 3.6,-46 21,-91.7 52,-134.8 2.7,-3.8 5.5,-7.6 8.5,-11.4 29.4,-37.7 69.6,-73.4 120.3,-105.5 2.8,-1.7 5.7,-3.5 8.5,-5.2 4.4,-2.7 8.9,-5.4 13.5,-8 33.3,-19.3 69.1,-36.1 106.9,-50.6 2.8,-1.1 5.6,-2.2 8.5,-3.2 38.4,-14.3 78.7,-26.2 120.3,-35.7 2.9,-0.7 5.7,-1.3 8.5,-1.9 39.2,-8.6 79.5,-15.1 120.3,-19.4 2.9,-0.3 5.7,-0.6 8.6,-0.9 39,-3.9 78.5,-5.8 118,-5.8 h 2.3 c 2.8,0 5.7,0 8.5,0.1 40.3,0.3 80.6,2.6 120.3,7 2.9,0.3 5.7,0.7 8.5,1 40.9,4.8 81.2,11.7 120.4,20.8 2.8,0.7 5.7,1.3 8.5,2.1 41.7,10 82,22.5 120.3,37.4 2.9,1.1 5.7,2.2 8.5,3.4 33.2,13.4 64.9,28.6 94.5,45.7 8.9,5.2 17.6,10.4 25.9,15.7 2.9,1.9 5.7,3.8 8.5,5.6 52.2,34.8 92.3,73.5 120.3,114.4 3,4.3 5.9,8.7 8.5,13.1 23.2,37.6 36.4,76.7 39.6,116.1 h 0.7 v 18.8 0.1 136.4 h -41.3 c -2.4,3.8 -4.9,7.6 -7.5,11.4 -13.6,19.9 -30,39.2 -49.3,57.8 -16.8,16.3 -35.8,31.9 -56.9,47 -15,10.7 -31.2,21.1 -48.5,31.1 -135.7,78.3 -313.6,117.5 -491.5,117.5 z m 0,-8.5 c 184.2,0 357.2,-41.3 487.2,-116.4 16.9,-9.8 33,-20.1 47.9,-30.7 20.6,-14.6 39.4,-30.1 55.9,-46.1 18.6,-18 34.8,-37 48.2,-56.5 2.6,-3.7 5,-7.4 7.3,-11.2 l 2.5,-4 h 4.7 32.8 v -127.9 -10.3 h -0.1 l -0.6,-7.8 c -3.1,-38.4 -16,-76.1 -38.3,-112.3 -2.5,-4 -5.3,-8.3 -8.3,-12.8 -28.1,-40.9 -67.8,-78.6 -118,-112.1 -2.8,-1.8 -5.6,-3.7 -8.4,-5.5 -8.2,-5.2 -16.8,-10.4 -25.6,-15.5 -28.8,-16.7 -60.2,-31.9 -93.3,-45.2 -2.8,-1.1 -5.6,-2.2 -8.5,-3.3 -37.6,-14.7 -77.7,-27.2 -119.3,-37.2 -2.8,-0.7 -5.6,-1.4 -8.3,-2 -38.4,-8.9 -78.6,-15.9 -119.5,-20.6 -2.8,-0.4 -5.5,-0.7 -8.4,-1 -39.4,-4.4 -79.6,-6.7 -119.5,-7 -2.8,-0.1 -5.6,-0.1 -8.4,-0.1 h -2.3 c -39.3,0 -78.7,2 -117.4,5.8 -2.7,0.3 -5.5,0.6 -8.3,0.9 -40.4,4.3 -80.6,10.7 -119.4,19.2 -2.8,0.6 -5.6,1.2 -8.4,1.9 -41.6,9.5 -81.7,21.4 -119.3,35.4 l -1,0.4 c -2.4,0.9 -4.9,1.8 -7.4,2.8 -37.6,14.4 -73.2,31.2 -105.7,50 -4.5,2.6 -8.9,5.2 -13.2,7.8 -2.9,1.8 -5.7,3.5 -8.4,5.2 -49,31 -88.8,65.8 -118.2,103.6 -2.9,3.7 -5.7,7.4 -8.3,11.1 -29.9,41.5 -46.8,85.4 -50.5,130.5 l -0.6,7.8 h -0.1 v 138.2 h 32.8 4.7 l 2.5,4.1 c 3.4,5.5 7.2,11.1 11.2,16.7 2.7,3.7 5.4,7.3 8.3,11 10.5,13.6 22.6,27 36,39.9 16.7,16.2 35.5,31.7 55.9,46.1 15,10.7 31.1,21 47.9,30.7 130,75.1 303,116.4 487.2,116.4" style="fill:#ffe840;fill-opacity:1;fill-rule:nonzero;stroke:none" id="path1722" transform="matrix(0.133333, 0, 0, -0.133333, 0, 5287.013184)"/>
  <path d="m 13897.2,22939.7 c 271.4,-156.7 271.4,-410.8 0,-567.5 -271.5,-156.7 -711.5,-156.7 -983,0 -271.4,156.7 -271.4,410.8 0,567.5 271.5,156.7 711.5,156.7 983,0" style="fill:#ffe840;fill-opacity:1;fill-rule:nonzero;stroke:none" id="path1724" transform="matrix(0.133333, 0, 0, -0.133333, 0, 5287.013184)"/>
  <path d="m 13931.6,22523.3 c -2.7,-3.6 -5.6,-7.2 -8.5,-10.8 -27.3,-32.8 -64.5,-63.6 -111.6,-90.8 -2.9,-1.7 -5.8,-3.4 -8.8,-5 -2.8,-1.5 -5.6,-3.1 -8.5,-4.6 -37,-19.7 -77.5,-36.1 -120.3,-49.1 -2.8,-0.9 -5.7,-1.7 -8.5,-2.5 -38.7,-11.3 -79,-20 -120.4,-25.9 -2.8,-0.4 -5.6,-0.8 -8.5,-1.1 -39.5,-5.4 -79.9,-8.3 -120.3,-8.6 -2.8,-0.1 -5.7,-0.1 -8.5,-0.1 -40.3,-0.1 -80.7,2.2 -120.3,7.1 -2.9,0.3 -5.8,0.7 -8.6,1 -41.2,5.4 -81.6,13.4 -120.3,24 -2.8,0.8 -5.7,1.6 -8.5,2.4 -42.6,12.2 -83.1,27.7 -120.3,46.4 -2.9,1.4 -5.7,2.9 -8.5,4.3 -7.2,3.8 -14.3,7.7 -21.2,11.7 -40.3,23.2 -73.4,49.1 -99.2,76.7 -2.9,3.1 -5.7,6.3 -8.5,9.5 -70,81.1 -78.9,175.5 -26.6,260 27.6,44.7 72.4,86.6 134.3,122.3 223.7,129.2 587.7,129.2 811.5,0 61.9,-35.7 106.6,-77.6 134.2,-122.3 49,-79.2 44.3,-167 -14.1,-244.6 z m 71,197.6 c -22.2,68.9 -79.8,132.3 -167.5,182.9 -114.7,66.3 -267.2,102.7 -429.4,102.7 -162.2,0 -314.7,-36.4 -429.4,-102.7 -87.7,-50.6 -145.3,-114 -167.5,-182.9 -6.8,-21.2 -10.3,-42.9 -10.3,-65 0,-67.4 32.7,-131.9 93.8,-187.4 2.8,-2.6 5.6,-5.1 8.5,-7.5 21.9,-18.9 47.2,-36.6 75.5,-53 14.4,-8.3 29.4,-16.1 44.9,-23.4 2.8,-1.4 5.6,-2.7 8.5,-4 37.3,-17.1 77.7,-31.4 120.3,-42.8 2.9,-0.8 5.7,-1.6 8.5,-2.3 38.6,-9.9 78.8,-17.5 120.3,-22.5 2.9,-0.4 5.7,-0.7 8.6,-1 38.5,-4.4 78.1,-6.7 118.3,-6.7 h 2 c 2.8,0 5.7,0.1 8.5,0.1 40.9,0.4 81.2,3.1 120.3,8.1 2.9,0.3 5.7,0.7 8.5,1.1 41.6,5.6 81.9,13.7 120.4,24.2 2.9,0.8 5.7,1.6 8.5,2.4 42.8,12.2 83.1,27.3 120.3,45.3 2.9,1.3 5.7,2.7 8.5,4.1 11.1,5.6 21.9,11.3 32.4,17.4 33.9,19.6 63.4,41.1 88,64.1 2.9,2.7 5.7,5.5 8.5,8.2 53,52.8 81.3,113 81.3,175.6 0,22.1 -3.5,43.8 -10.3,65" style="fill:#ff9d4d;fill-opacity:1;fill-rule:nonzero;stroke:none" id="path1726" transform="matrix(0.133333, 0, 0, -0.133333, 0, 5287.013184)"/>
  <path d="m 13427.9,22712.5 65.5,-37.8 c -1.5,-0.7 -2.9,-1.5 -4.4,-2.3 l -35.9,-20.7 -61.1,35.3 20.2,11.7 c 7.2,4.1 12.4,8.8 15.7,13.8" style="fill:#d1975d;fill-opacity:1;fill-rule:nonzero;stroke:none" id="path1728" transform="matrix(0.133333, 0, 0, -0.133333, 0, 5287.013184)"/>
  <path d="m 13278.8,22737.7 8.6,4.9 4.1,2.4 v 0 l 23.6,13.6 c 1.4,0.8 2.9,1.4 4.3,2 4.8,2.4 9.9,4.4 15.4,5.7 7.6,1.8 15.9,2.6 24.9,2.5 17,-0.3 33,-4.7 48,-13.2 l 1.1,-0.6 c 2.7,-1.5 5.2,-3.1 7.4,-4.8 10.7,-7.7 16,-15.8 15.9,-24.5 -0.1,-4.7 -1.5,-9.1 -4.1,-13.2 -2.7,-4 -6.6,-7.9 -11.8,-11.3 -1.3,-0.9 -2.6,-1.7 -4,-2.5 l -4.5,-2.6 -15.7,-9.1 -48.8,-28.2 v 0 l -13.3,-7.7 -21,-12 -11.6,6.7 -13,7.5 -5.5,3.1 -24.5,14.2 -45.8,26.4 12.7,7.4 21.5,12.4 v 0 z m 210.2,-65.3 c 1.5,0.8 2.9,1.6 4.4,2.3 5.6,2.7 11.7,4.7 18.3,6 8,1.5 16.3,2.1 24.8,1.8 h 1.3 c 2.5,-0.2 4.8,-0.4 7.2,-0.6 6.6,-0.7 13.2,-1.9 19.8,-3.6 8.9,-2.4 17,-5.7 24.1,-9.8 7.1,-4.1 12.5,-8.7 16.3,-13.9 3.7,-5.2 5.6,-10.4 5.8,-15.7 0.2,-5.3 -1.4,-10.5 -5,-15.6 -2.1,-3 -5,-6 -8.5,-8.7 -1.7,-1.3 -3.7,-2.7 -5.7,-3.9 l -1.8,-1.1 -30.9,-17.9 -1.1,-0.6 -13,-7.5 -8.5,-4.9 -27.2,-15.7 -34.3,-19.8 -104.9,60.5 11.2,6.5 23,13.3 v 0 l 3.4,2 8.5,4.9 36.9,21.3 z m 134.7,-119.2 v 0 l 67.1,-38.7 40,23.1 -67.2,38.9 1.8,1.1 c 2.9,1.8 5.8,3.7 8.5,5.6 9.5,6.8 17.7,13.8 24.7,21 11,11.6 18.1,23.2 21.3,35 3.2,11.8 1.8,23.3 -4.2,34.5 -6,11.2 -17.4,21.7 -34.2,31.5 -2.5,1.4 -5.1,2.8 -7.6,4.1 -2.8,1.5 -5.6,2.8 -8.5,4.2 -21.7,10 -44.7,15.9 -69.2,17.9 -17.2,1.3 -34.3,0.8 -51.2,-1.5 -2.8,-0.4 -5.6,-0.9 -8.5,-1.4 -10.3,-1.8 -20.5,-4.3 -30.6,-7.5 10.4,15.6 12,31 4.7,46.5 -7.3,15.4 -20.6,28.8 -40.1,40 -12.3,7.1 -26.7,12.9 -43.2,17.5 -16.5,4.5 -33.4,7.3 -50.8,8.2 -17.3,1 -34.6,0 -51.9,-3 -17.2,-3.1 -32.7,-8.5 -46.5,-16.6 l -12.7,-7.3 -64.6,37.3 -40.1,-23.1 64.6,-37.3 -48.7,-28.2 -64.7,37.3 -40,-23.1 64.5,-37.3 -71.5,-41.3 85.1,-49.2 8.5,-4.9 120.3,-69.5 8.6,-4.9 120.3,-69.5 8.5,-4.9 47,-27.1 71.6,41.3 v 0 l 67.1,-38.7 40.1,23.1 -67.1,38.7 v 0.1 l 48.8,28.1" style="fill:#ff9d4d;fill-opacity:1;fill-rule:nonzero;stroke:none" id="path1730" transform="matrix(0.133333, 0, 0, -0.133333, 0, 5287.013184)"/>
  <path d="m 12790.1,22473.4 v -140.6 c -3,3.7 -5.8,7.5 -8.5,11.3 v 140.7 c 2.7,-3.8 5.6,-7.6 8.5,-11.4" style="fill:#ffe840;fill-opacity:1;fill-rule:nonzero;stroke:none" id="path1732" transform="matrix(0.133333, 0, 0, -0.133333, 0, 5287.013184)"/>
  <path d="m 12900.8,22380.1 v -140.6 c -2.8,1.7 -5.7,3.5 -8.5,5.2 v 140.7 c 2.8,-1.8 5.7,-3.5 8.5,-5.3" style="fill:#ffe840;fill-opacity:1;fill-rule:nonzero;stroke:none" id="path1734" transform="matrix(0.133333, 0, 0, -0.133333, 0, 5287.013184)"/>
  <path d="m 13029.7,22318.4 v -140.7 c -2.9,1 -5.7,2.1 -8.5,3.2 v 140.7 c 2.8,-1.1 5.6,-2.2 8.5,-3.2" style="fill:#ffe840;fill-opacity:1;fill-rule:nonzero;stroke:none" id="path1736" transform="matrix(0.133333, 0, 0, -0.133333, 0, 5287.013184)"/>
  <path d="m 13158.5,22280.8 v -140.7 c -2.8,0.6 -5.6,1.2 -8.5,1.9 v 140.7 c 2.9,-0.6 5.7,-1.3 8.5,-1.9" style="fill:#ffe840;fill-opacity:1;fill-rule:nonzero;stroke:none" id="path1738" transform="matrix(0.133333, 0, 0, -0.133333, 0, 5287.013184)"/>
  <path d="m 13287.4,22260.5 v -140.7 c -2.9,0.3 -5.7,0.6 -8.6,0.9 v 140.7 c 2.9,-0.3 5.7,-0.6 8.6,-0.9" style="fill:#ffe840;fill-opacity:1;fill-rule:nonzero;stroke:none" id="path1740" transform="matrix(0.133333, 0, 0, -0.133333, 0, 5287.013184)"/>
  <path d="m 13416.2,22254.7 v -140.6 c -2.8,-0.1 -5.7,-0.1 -8.5,-0.1 v 140.7 c 2.8,0 5.7,0 8.5,0" style="fill:#ffe840;fill-opacity:1;fill-rule:nonzero;stroke:none" id="path1742" transform="matrix(0.133333, 0, 0, -0.133333, 0, 5287.013184)"/>
  <path d="m 13545,22262.8 v -140.7 c -2.8,-0.3 -5.6,-0.7 -8.5,-1 v 140.7 c 2.9,0.3 5.7,0.6 8.5,1" style="fill:#ffe840;fill-opacity:1;fill-rule:nonzero;stroke:none" id="path1744" transform="matrix(0.133333, 0, 0, -0.133333, 0, 5287.013184)"/>
  <path d="M 13673.9,22285.6 V 22145 c -2.8,-0.8 -5.7,-1.4 -8.5,-2.1 v 140.7 c 2.8,0.7 5.7,1.3 8.5,2" style="fill:#ffe840;fill-opacity:1;fill-rule:nonzero;stroke:none" id="path1746" transform="matrix(0.133333, 0, 0, -0.133333, 0, 5287.013184)"/>
  <path d="m 13802.7,22326.5 v -140.7 c -2.8,-1.2 -5.6,-2.3 -8.5,-3.4 v 140.7 c 2.9,1.1 5.7,2.2 8.5,3.4" style="fill:#ffe840;fill-opacity:1;fill-rule:nonzero;stroke:none" id="path1748" transform="matrix(0.133333, 0, 0, -0.133333, 0, 5287.013184)"/>
  <path d="m 13931.6,22393.5 v -140.7 c -2.8,-1.8 -5.6,-3.7 -8.5,-5.6 v 140.8 c 2.9,1.8 5.7,3.6 8.5,5.5" style="fill:#ffe840;fill-opacity:1;fill-rule:nonzero;stroke:none" id="path1750" transform="matrix(0.133333, 0, 0, -0.133333, 0, 5287.013184)"/>
  <path d="m 14045.9,22506.9 v -140.7 c -2.7,-4.3 -5.6,-8.7 -8.6,-13.1 v 140.7 c 3,4.3 5.8,8.7 8.6,13.1" style="fill:#ffe840;fill-opacity:1;fill-rule:nonzero;stroke:none" id="path1752" transform="matrix(0.133333, 0, 0, -0.133333, 0, 5287.013184)"/>
  <path d="m 14450.4,23029.4 v -155.3 h -0.7 c -3.2,-39.4 -16.4,-78.5 -39.6,-116.1 -2.7,-4.4 -5.5,-8.7 -8.5,-13.1 -28.1,-40.9 -68.1,-79.6 -120.3,-114.4 -2.8,-1.8 -5.7,-3.7 -8.6,-5.6 -8.3,-5.3 -16.9,-10.5 -25.8,-15.7 -29.7,-17.1 -61.3,-32.3 -94.5,-45.7 -2.8,-1.1 -5.7,-2.3 -8.5,-3.4 -38.3,-14.9 -78.7,-27.4 -120.3,-37.4 -2.9,-0.8 -5.7,-1.4 -8.5,-2.1 -39.2,-9.1 -79.5,-16 -120.4,-20.8 -2.8,-0.3 -5.7,-0.7 -8.5,-1 -39.7,-4.4 -80,-6.7 -120.3,-7 -2.9,-0.1 -5.7,-0.1 -8.5,-0.1 -40.3,-0.1 -80.6,1.9 -120.4,5.9 -2.8,0.2 -5.7,0.5 -8.5,0.8 -40.8,4.3 -81.1,10.8 -120.3,19.4 -2.8,0.6 -5.7,1.3 -8.5,1.9 -41.6,9.5 -82,21.4 -120.4,35.7 -2.8,1.1 -5.7,2.1 -8.5,3.2 -37.8,14.5 -73.6,31.4 -106.9,50.6 -4.5,2.6 -9,5.3 -13.4,8 -2.9,1.7 -5.7,3.5 -8.5,5.2 -50.8,32.1 -90.9,67.8 -120.3,105.6 -3,3.7 -5.8,7.5 -8.6,11.3 -30.9,43.2 -48.3,88.8 -52,134.8 h -0.7 v 155.3 h 41.2 c 3.6,5.7 7.5,11.4 11.5,17.1 2.8,3.8 5.6,7.6 8.6,11.4 10.8,13.9 23,27.5 36.8,40.7 16.8,16.3 35.7,32 56.8,47 15.1,10.7 31.3,21.1 48.6,31.1 271.4,156.7 711.5,156.7 983,0 17.3,-10 33.4,-20.4 48.5,-31.1 21.1,-15 40.1,-30.7 56.9,-47 19.3,-18.6 35.7,-37.9 49.3,-57.8 2.6,-3.8 5.1,-7.6 7.5,-11.4 h 41.3" style="fill:#ff9d4d;fill-opacity:1;fill-rule:nonzero;stroke:none" id="path1754" transform="matrix(0.133333, 0, 0, -0.133333, 0, 5287.013184)"/>
  <path d="m 13755.4,23294.2 c -177.9,0 -355.8,-39.2 -491.5,-117.5 -17.3,-10 -33.5,-20.4 -48.6,-31.1 -21.1,-15 -40,-30.7 -56.8,-47 -13.8,-13.2 -26,-26.8 -36.8,-40.7 -3,-3.8 -5.8,-7.6 -8.6,-11.4 -4,-5.7 -7.9,-11.4 -11.5,-17.1 h -41.2 v -155.3 h 0.7 c 3.7,-46 21.1,-91.6 52,-134.8 2.8,-3.8 5.6,-7.6 8.6,-11.3 29.4,-37.8 69.5,-73.5 120.3,-105.6 2.8,-1.7 5.6,-3.5 8.5,-5.2 4.4,-2.7 8.9,-5.4 13.4,-8 33.3,-19.2 69.1,-36.1 106.9,-50.6 2.8,-1.1 5.7,-2.1 8.5,-3.2 38.4,-14.3 78.8,-26.2 120.4,-35.7 2.8,-0.6 5.7,-1.3 8.5,-1.9 39.2,-8.6 79.5,-15.1 120.3,-19.4 2.9,-0.3 5.7,-0.6 8.5,-0.8 39.1,-4 78.5,-5.9 118,-5.9 h 2.4 c 2.8,0 5.7,0 8.5,0.1 40.3,0.3 80.6,2.6 120.3,7 2.8,0.3 5.7,0.7 8.5,1 40.9,4.8 81.2,11.7 120.4,20.8 2.8,0.7 5.6,1.3 8.5,2.1 41.6,10 82,22.5 120.3,37.4 2.8,1.1 5.7,2.3 8.5,3.4 33.2,13.4 64.8,28.6 94.5,45.7 8.9,5.2 17.5,10.4 25.8,15.7 2.9,1.9 5.8,3.8 8.6,5.6 52.2,34.8 92.2,73.5 120.3,114.4 3,4.4 5.8,8.7 8.5,13.1 23.2,37.6 36.4,76.7 39.6,116.1 h 0.7 v 18.8 0.1 136.4 h -41.3 c -2.4,3.8 -4.9,7.6 -7.5,11.4 -13.6,19.9 -30,39.2 -49.3,57.8 -16.8,16.3 -35.8,32 -56.9,47 -15.1,10.7 -31.2,21.1 -48.5,31.1 -135.8,78.3 -313.6,117.5 -491.5,117.5 z m 0,-8.5 c 184.2,0 357.2,-41.3 487.2,-116.4 16.9,-9.7 33,-20.1 47.9,-30.7 20.6,-14.6 39.4,-30.1 55.9,-46.1 18.6,-18 34.8,-37 48.2,-56.5 2.5,-3.7 5,-7.4 7.3,-11.1 l 2.5,-4 h 4.7 32.8 v -128 -10.3 h -0.1 l -0.6,-7.8 c -3.1,-38.4 -16,-76.1 -38.3,-112.3 -2.5,-4 -5.3,-8.3 -8.4,-12.8 -28,-40.9 -67.7,-78.6 -118,-112.1 -2.7,-1.8 -5.5,-3.7 -8.3,-5.5 -8.2,-5.2 -16.8,-10.5 -25.6,-15.5 -28.8,-16.6 -60.2,-31.8 -93.8,-45.4 -2.6,-1 -5.3,-2.1 -8,-3.1 -37.7,-14.7 -77.8,-27.2 -119.4,-37.2 -2.7,-0.7 -5.5,-1.3 -8.3,-2 -38.3,-8.9 -78.5,-15.8 -119.5,-20.6 -2.8,-0.4 -5.5,-0.7 -8.3,-1 -39.4,-4.3 -79.6,-6.7 -119.6,-7 -2.8,-0.1 -5.5,-0.1 -8.3,-0.1 h -2.4 c -39.3,0 -78.7,2 -117.3,5.8 -2.7,0.3 -5.5,0.6 -8.3,0.9 -40.5,4.3 -80.6,10.7 -119.4,19.2 -2.8,0.6 -5.6,1.3 -8.4,1.9 -41.7,9.5 -81.8,21.4 -119.3,35.4 l -0.9,0.3 c -2.5,0.9 -5,1.9 -7.5,2.9 -37.6,14.4 -73.2,31.2 -105.7,50 -4.5,2.6 -8.9,5.2 -13.3,7.8 -2.8,1.8 -5.6,3.5 -8.3,5.2 -49.1,31 -88.8,65.8 -118.3,103.7 -2.9,3.6 -5.6,7.3 -8.2,11 -29.9,41.5 -46.9,85.5 -50.5,130.5 l -0.6,7.8 h -0.1 v 138.3 h 32.7 4.8 l 2.5,4 c 3.4,5.5 7.2,11.1 11.2,16.7 2.6,3.7 5.4,7.4 8.3,11 10.5,13.6 22.6,27 36,39.9 16.7,16.2 35.5,31.7 55.9,46.1 15,10.7 31.1,21 47.9,30.7 130,75.1 303,116.4 487.2,116.4" style="fill:#ffe840;fill-opacity:1;fill-rule:nonzero;stroke:none" id="path1756" transform="matrix(0.133333, 0, 0, -0.133333, 0, 5287.013184)"/>
  <path d="m 14246.8,23317.4 c 271.5,-156.7 271.5,-410.8 0,-567.5 -271.4,-156.7 -711.5,-156.7 -982.9,0 -271.4,156.7 -271.4,410.8 0,567.5 271.4,156.7 711.5,156.7 982.9,0" style="fill:#ffe840;fill-opacity:1;fill-rule:nonzero;stroke:none" id="path1758" transform="matrix(0.133333, 0, 0, -0.133333, 0, 5287.013184)"/>
  <path d="m 14281.3,22901.1 c -2.8,-3.7 -5.6,-7.3 -8.6,-10.9 -27.2,-32.8 -64.4,-63.6 -111.6,-90.8 -2.8,-1.7 -5.7,-3.3 -8.7,-5 -2.8,-1.5 -5.6,-3.1 -8.5,-4.6 -37.1,-19.7 -77.5,-36.1 -120.3,-49.1 -2.8,-0.9 -5.7,-1.7 -8.5,-2.5 -38.7,-11.3 -79.1,-20 -120.4,-25.9 -2.8,-0.4 -5.6,-0.8 -8.5,-1.1 -39.5,-5.4 -79.9,-8.2 -120.3,-8.6 -2.9,-0.1 -5.7,-0.1 -8.5,-0.1 -40.4,-0.1 -80.8,2.2 -120.4,7.1 -2.8,0.3 -5.7,0.7 -8.5,1.1 -41.2,5.3 -81.6,13.3 -120.3,23.9 -2.8,0.8 -5.7,1.6 -8.5,2.4 -42.6,12.2 -83.1,27.7 -120.4,46.4 -2.8,1.4 -5.7,2.9 -8.5,4.3 -7.2,3.8 -14.2,7.7 -21.2,11.7 -40.3,23.3 -73.3,49.1 -99.1,76.7 -2.9,3.1 -5.7,6.3 -8.5,9.5 -70,81.1 -78.9,175.5 -26.7,260 27.7,44.7 72.5,86.6 134.3,122.3 223.7,129.2 587.8,129.2 811.5,0 61.9,-35.7 106.7,-77.6 134.3,-122.3 49,-79.2 44.3,-167 -14.1,-244.5 z m 71,197.5 c -22.3,68.9 -79.8,132.3 -167.5,182.9 -114.7,66.3 -267.2,102.7 -429.4,102.7 -162.2,0 -314.7,-36.4 -429.4,-102.7 -87.7,-50.6 -145.3,-114 -167.5,-182.9 -6.9,-21.2 -10.4,-42.9 -10.4,-65 0,-67.4 32.8,-131.9 93.9,-187.4 2.8,-2.6 5.6,-5.1 8.5,-7.5 21.9,-18.9 47.1,-36.6 75.5,-53 14.4,-8.3 29.4,-16.1 44.8,-23.4 2.9,-1.4 5.7,-2.7 8.5,-4 37.4,-17.1 77.8,-31.4 120.4,-42.8 2.8,-0.8 5.7,-1.6 8.5,-2.3 38.5,-9.9 78.8,-17.5 120.3,-22.5 2.8,-0.4 5.7,-0.7 8.5,-1 38.6,-4.4 78.2,-6.6 118.4,-6.6 h 2 c 2.8,0 5.6,0 8.5,0 40.9,0.4 81.2,3.1 120.3,8.1 2.8,0.3 5.7,0.7 8.5,1.1 41.6,5.6 81.9,13.7 120.4,24.2 2.8,0.8 5.7,1.6 8.5,2.4 42.7,12.2 83.1,27.3 120.3,45.3 2.8,1.3 5.7,2.7 8.5,4.1 11.1,5.6 21.9,11.4 32.4,17.4 33.9,19.6 63.3,41.1 87.9,64.1 3,2.7 5.8,5.5 8.6,8.2 53,52.8 81.3,113 81.3,175.6 0,22.1 -3.5,43.8 -10.3,65" style="fill:#ff9d4d;fill-opacity:1;fill-rule:nonzero;stroke:none" id="path1760" transform="matrix(0.133333, 0, 0, -0.133333, 0, 5287.013184)"/>
  <path d="m 13777.6,23090.2 65.5,-37.8 c -1.5,-0.7 -3,-1.5 -4.4,-2.3 l -35.9,-20.7 -61.2,35.3 20.2,11.7 c 7.3,4.1 12.5,8.8 15.8,13.8" style="fill:#d1975d;fill-opacity:1;fill-rule:nonzero;stroke:none" id="path1762" transform="matrix(0.133333, 0, 0, -0.133333, 0, 5287.013184)"/>
  <path d="m 13628.5,23115.4 8.5,4.9 4.2,2.4 v 0 l 23.6,13.6 c 1.3,0.8 2.8,1.4 4.3,2.1 4.8,2.3 9.8,4.3 15.3,5.6 7.7,1.8 16,2.7 25,2.5 17,-0.3 33,-4.7 48,-13.1 l 1.1,-0.7 c 2.7,-1.5 5.1,-3.1 7.4,-4.7 10.7,-7.7 16,-15.9 15.8,-24.6 0,-4.7 -1.4,-9.1 -4.1,-13.2 -2.6,-4 -6.5,-7.8 -11.7,-11.3 -1.3,-0.9 -2.6,-1.7 -4.1,-2.5 l -4.4,-2.6 -15.8,-9.1 -48.7,-28.2 v 0 l -13.4,-7.6 -20.9,-12.1 -11.6,6.7 -13,7.5 -5.5,3.2 -24.5,14.1 -45.8,26.5 12.7,7.3 21.5,12.4 v 0 z m 210.2,-65.3 c 1.4,0.8 2.9,1.6 4.4,2.3 5.5,2.7 11.7,4.7 18.3,6 8,1.5 16.3,2.1 24.8,1.8 h 1.3 c 2.4,-0.2 4.8,-0.4 7.2,-0.6 6.6,-0.7 13.2,-1.9 19.8,-3.6 8.9,-2.4 17,-5.7 24.1,-9.8 7.1,-4.1 12.5,-8.7 16.2,-13.9 3.8,-5.2 5.7,-10.4 5.9,-15.7 0.2,-5.3 -1.5,-10.5 -5,-15.6 -2.2,-3 -5,-6 -8.5,-8.7 -1.7,-1.3 -3.7,-2.7 -5.8,-3.9 l -1.7,-1.1 -30.9,-17.9 -1.1,-0.6 -13,-7.5 -8.5,-4.9 -27.3,-15.7 -34.2,-19.8 -104.9,60.6 11.2,6.4 23,13.3 v 0 l 3.4,2 8.5,4.9 36.9,21.3 z m 134.6,-119.2 h 0.1 l 67,-38.7 40.1,23.1 -67.2,38.9 1.8,1.1 c 2.9,1.8 5.8,3.8 8.5,5.7 9.5,6.7 17.7,13.7 24.7,20.9 11,11.6 18.1,23.3 21.3,35 3.1,11.8 1.7,23.3 -4.2,34.5 -6,11.2 -17.4,21.7 -34.2,31.5 -2.6,1.4 -5.1,2.8 -7.6,4.1 -2.8,1.5 -5.7,2.9 -8.5,4.2 -21.7,10 -44.7,16 -69.2,17.9 -17.3,1.3 -34.3,0.8 -51.2,-1.5 -2.8,-0.4 -5.7,-0.9 -8.5,-1.4 -10.3,-1.8 -20.5,-4.3 -30.7,-7.5 10.5,15.6 12.1,31 4.8,46.5 -7.3,15.4 -20.7,28.8 -40.1,40 -12.4,7.1 -26.8,13 -43.2,17.5 -16.5,4.5 -33.4,7.3 -50.8,8.2 -17.4,1 -34.7,0 -51.9,-3 -17.2,-3.1 -32.7,-8.5 -46.6,-16.5 l -12.6,-7.4 -64.6,37.4 -40.1,-23.2 64.6,-37.3 -48.8,-28.2 v 0 l -64.6,37.3 -40.1,-23.1 64.6,-37.3 -71.5,-41.3 85.1,-49.2 8.5,-4.9 120.3,-69.5 8.5,-4.9 120.4,-69.5 8.5,-4.9 47,-27.1 71.6,41.3 v 0 l 67.1,-38.7 40.1,23.1 -67.1,38.7 v 0.1 l 48.7,28.1" style="fill:#ff9d4d;fill-opacity:1;fill-rule:nonzero;stroke:none" id="path1764" transform="matrix(0.133333, 0, 0, -0.133333, 0, 5287.013184)"/>
  <path d="m 13139.8,22851.1 v -140.6 c -3,3.7 -5.8,7.5 -8.5,11.3 v 140.7 c 2.7,-3.8 5.5,-7.6 8.5,-11.4" style="fill:#ffe840;fill-opacity:1;fill-rule:nonzero;stroke:none" id="path1766" transform="matrix(0.133333, 0, 0, -0.133333, 0, 5287.013184)"/>
  <path d="m 13250.5,22757.8 v -140.6 c -2.9,1.7 -5.7,3.5 -8.5,5.2 v 140.7 c 2.8,-1.8 5.6,-3.5 8.5,-5.3" style="fill:#ffe840;fill-opacity:1;fill-rule:nonzero;stroke:none" id="path1768" transform="matrix(0.133333, 0, 0, -0.133333, 0, 5287.013184)"/>
  <path d="m 13379.3,22696.1 v -140.7 c -2.8,1.1 -5.7,2.1 -8.5,3.2 v 140.7 c 2.8,-1.1 5.7,-2.2 8.5,-3.2" style="fill:#ffe840;fill-opacity:1;fill-rule:nonzero;stroke:none" id="path1770" transform="matrix(0.133333, 0, 0, -0.133333, 0, 5287.013184)"/>
  <path d="m 13508.2,22658.5 v -140.7 c -2.8,0.6 -5.7,1.3 -8.5,1.9 v 140.7 c 2.8,-0.6 5.7,-1.3 8.5,-1.9" style="fill:#ffe840;fill-opacity:1;fill-rule:nonzero;stroke:none" id="path1772" transform="matrix(0.133333, 0, 0, -0.133333, 0, 5287.013184)"/>
  <path d="m 13637,22638.2 v -140.6 c -2.8,0.2 -5.7,0.5 -8.5,0.8 v 140.7 c 2.8,-0.3 5.7,-0.6 8.5,-0.9" style="fill:#ffe840;fill-opacity:1;fill-rule:nonzero;stroke:none" id="path1774" transform="matrix(0.133333, 0, 0, -0.133333, 0, 5287.013184)"/>
  <path d="m 13765.9,22632.4 v -140.6 c -2.9,-0.1 -5.7,-0.1 -8.5,-0.1 v 140.7 c 2.8,0 5.6,0 8.5,0" style="fill:#ffe840;fill-opacity:1;fill-rule:nonzero;stroke:none" id="path1776" transform="matrix(0.133333, 0, 0, -0.133333, 0, 5287.013184)"/>
  <path d="m 13894.7,22640.5 v -140.7 c -2.8,-0.3 -5.7,-0.7 -8.5,-1 v 140.7 c 2.8,0.3 5.7,0.6 8.5,1" style="fill:#ffe840;fill-opacity:1;fill-rule:nonzero;stroke:none" id="path1778" transform="matrix(0.133333, 0, 0, -0.133333, 0, 5287.013184)"/>
  <path d="m 14023.6,22663.3 v -140.6 c -2.9,-0.8 -5.7,-1.4 -8.5,-2.1 v 140.7 c 2.8,0.7 5.6,1.3 8.5,2" style="fill:#ffe840;fill-opacity:1;fill-rule:nonzero;stroke:none" id="path1780" transform="matrix(0.133333, 0, 0, -0.133333, 0, 5287.013184)"/>
  <path d="m 14152.4,22704.2 v -140.7 c -2.8,-1.1 -5.7,-2.3 -8.5,-3.4 v 140.8 c 2.8,1 5.7,2.1 8.5,3.3" style="fill:#ffe840;fill-opacity:1;fill-rule:nonzero;stroke:none" id="path1782" transform="matrix(0.133333, 0, 0, -0.133333, 0, 5287.013184)"/>
  <path d="m 14281.3,22771.2 v -140.7 c -2.8,-1.8 -5.7,-3.7 -8.6,-5.6 v 140.8 c 2.9,1.8 5.8,3.7 8.6,5.5" style="fill:#ffe840;fill-opacity:1;fill-rule:nonzero;stroke:none" id="path1784" transform="matrix(0.133333, 0, 0, -0.133333, 0, 5287.013184)"/>
  <path d="M 14395.5,22884.6 V 22744 c -2.6,-4.4 -5.5,-8.8 -8.5,-13.2 v 140.7 c 3,4.3 5.8,8.7 8.5,13.1" style="fill:#ffe840;fill-opacity:1;fill-rule:nonzero;stroke:none" id="path1786" transform="matrix(0.133333, 0, 0, -0.133333, 0, 5287.013184)"/>
  <path d="m 14015.3,23339.4 v -155.3 h -0.7 c -3.2,-39.4 -16.4,-78.5 -39.6,-116.1 -2.7,-4.4 -5.5,-8.8 -8.5,-13.1 -28,-40.9 -68.1,-79.6 -120.3,-114.4 -2.8,-1.8 -5.7,-3.7 -8.5,-5.6 -8.4,-5.3 -17,-10.5 -25.9,-15.7 -29.7,-17.1 -61.3,-32.4 -94.5,-45.7 -2.8,-1.2 -5.7,-2.3 -8.5,-3.4 -38.3,-14.9 -78.6,-27.5 -120.3,-37.4 -2.9,-0.8 -5.7,-1.5 -8.5,-2.1 -39.2,-9.1 -79.5,-16 -120.4,-20.8 -2.8,-0.4 -5.7,-0.7 -8.5,-1 -39.7,-4.4 -80,-6.7 -120.3,-7.1 -2.8,0 -5.7,0 -8.5,0 -40.3,-0.1 -80.6,1.8 -120.4,5.8 -2.8,0.3 -5.6,0.6 -8.5,0.9 -40.8,4.3 -81.1,10.8 -120.3,19.4 -2.8,0.6 -5.7,1.2 -8.5,1.9 -41.6,9.5 -81.9,21.4 -120.4,35.7 -2.8,1 -5.7,2.1 -8.5,3.2 -37.8,14.5 -73.6,31.3 -106.9,50.6 -4.5,2.6 -9,5.3 -13.4,7.9 -2.9,1.8 -5.7,3.5 -8.5,5.3 -50.8,32.1 -90.9,67.8 -120.3,105.5 -3,3.8 -5.8,7.6 -8.5,11.4 -31,43.1 -48.4,88.8 -52.1,134.8 h -0.7 v 155.3 h 41.2 c 3.6,5.7 7.5,11.4 11.6,17.1 2.7,3.8 5.5,7.6 8.5,11.3 10.8,14 23.1,27.6 36.8,40.8 16.8,16.2 35.7,31.9 56.8,46.9 15.1,10.8 31.3,21.2 48.6,31.2 271.4,156.7 711.5,156.7 983,0 17.3,-10 33.4,-20.4 48.5,-31.2 21.1,-15 40.1,-30.6 56.9,-46.9 19.3,-18.6 35.7,-38 49.3,-57.8 2.6,-3.8 5.1,-7.6 7.5,-11.4 h 41.3" style="fill:#ff9d4d;fill-opacity:1;fill-rule:nonzero;stroke:none" id="path1788" transform="matrix(0.133333, 0, 0, -0.133333, 0, 5287.013184)"/>
  <path d="m 13320.3,23604.2 c -177.9,0 -355.8,-39.2 -491.5,-117.5 -17.3,-10 -33.5,-20.4 -48.6,-31.2 -21.1,-15 -40,-30.7 -56.8,-46.9 -13.7,-13.2 -26,-26.8 -36.8,-40.8 -3,-3.7 -5.8,-7.5 -8.5,-11.3 -4.1,-5.7 -8,-11.4 -11.6,-17.1 h -41.2 v -155.3 h 0.7 c 3.7,-46 21.1,-91.7 52.1,-134.8 2.7,-3.8 5.5,-7.6 8.5,-11.4 29.4,-37.7 69.5,-73.4 120.3,-105.5 2.8,-1.8 5.6,-3.5 8.5,-5.3 4.4,-2.6 8.9,-5.3 13.4,-7.9 33.3,-19.3 69.1,-36.1 106.9,-50.6 2.8,-1.1 5.7,-2.2 8.5,-3.2 38.5,-14.3 78.8,-26.2 120.4,-35.7 2.8,-0.7 5.7,-1.3 8.5,-1.9 39.2,-8.6 79.5,-15.1 120.3,-19.4 2.9,-0.3 5.7,-0.6 8.5,-0.9 39.1,-3.9 78.6,-5.8 118.1,-5.8 h 2.3 c 2.8,0 5.7,0 8.5,0 40.3,0.4 80.6,2.7 120.3,7.1 2.8,0.3 5.7,0.6 8.5,1 40.9,4.8 81.2,11.7 120.4,20.8 2.8,0.6 5.6,1.3 8.5,2.1 41.7,9.9 82,22.5 120.3,37.4 2.8,1.1 5.7,2.2 8.5,3.4 33.2,13.3 64.8,28.6 94.5,45.7 8.9,5.2 17.5,10.4 25.9,15.7 2.8,1.9 5.7,3.8 8.5,5.6 52.2,34.8 92.3,73.5 120.3,114.4 3,4.3 5.8,8.7 8.5,13.1 23.2,37.6 36.4,76.7 39.6,116.1 h 0.7 v 18.8 0 136.5 h -41.3 c -2.4,3.8 -4.9,7.6 -7.5,11.4 -13.6,19.8 -30,39.2 -49.3,57.8 -16.8,16.3 -35.8,31.9 -56.9,46.9 -15.1,10.8 -31.2,21.2 -48.5,31.2 -135.8,78.3 -313.6,117.5 -491.5,117.5 z m 0,-8.5 c 184.2,0 357.2,-41.3 487.2,-116.4 16.9,-9.8 33,-20.1 47.9,-30.7 20.6,-14.7 39.4,-30.2 55.9,-46.1 18.6,-18 34.8,-37 48.2,-56.5 2.6,-3.7 5,-7.4 7.3,-11.2 l 2.5,-4 h 4.7 32.8 v -127.9 -10.3 h -0.1 l -0.6,-7.9 c -3.1,-38.3 -16,-76.1 -38.3,-112.2 -2.5,-4.1 -5.3,-8.4 -8.3,-12.8 -28.1,-40.9 -67.8,-78.6 -118.1,-112.1 -2.7,-1.8 -5.5,-3.7 -8.3,-5.5 -8.2,-5.2 -16.8,-10.5 -25.6,-15.5 -28.8,-16.7 -60.2,-31.9 -93.5,-45.3 -2.7,-1.1 -5.5,-2.2 -8.3,-3.2 -37.6,-14.7 -77.7,-27.2 -119.4,-37.2 -2.7,-0.7 -5.5,-1.4 -8.3,-2 -38.3,-8.9 -78.5,-15.9 -119.4,-20.7 -2.8,-0.3 -5.5,-0.6 -8.4,-0.9 -39.4,-4.4 -79.6,-6.7 -119.6,-7 -2.7,-0.1 -5.5,-0.1 -8.3,-0.1 h -2.3 c -39.3,0 -78.7,1.9 -117.4,5.8 -2.7,0.2 -5.4,0.5 -8.3,0.9 -40.5,4.2 -80.6,10.7 -119.4,19.2 -2.8,0.6 -5.6,1.2 -8.4,1.9 -41.6,9.5 -81.8,21.4 -119.3,35.4 l -1.1,0.4 c -2.4,0.9 -4.8,1.8 -7.3,2.8 -37.6,14.4 -73.2,31.2 -105.7,49.9 -4.5,2.7 -8.9,5.3 -13.3,7.9 -2.8,1.8 -5.6,3.5 -8.3,5.2 -49,30.9 -88.8,65.8 -118.3,103.6 -2.9,3.7 -5.6,7.3 -8.2,11.1 -29.9,41.5 -46.9,85.4 -50.5,130.4 l -0.6,7.9 h -0.1 v 138.2 h 32.7 4.8 l 2.5,4.1 c 3.4,5.5 7.2,11.1 11.2,16.6 2.6,3.8 5.4,7.4 8.3,11.1 10.5,13.6 22.6,27 36,39.9 16.7,16.1 35.5,31.7 55.9,46.1 15,10.7 31.1,21 47.9,30.7 130,75.1 303,116.4 487.2,116.4" style="fill:#ffe840;fill-opacity:1;fill-rule:nonzero;stroke:none" id="path1790" transform="matrix(0.133333, 0, 0, -0.133333, 0, 5287.013184)"/>
  <path d="m 13811.7,23627.4 c 271.5,-156.7 271.5,-410.8 0,-567.5 -271.4,-156.7 -711.4,-156.7 -982.9,0 -271.4,156.7 -271.4,410.8 0,567.5 271.5,156.7 711.5,156.7 982.9,0" style="fill:#ffe840;fill-opacity:1;fill-rule:nonzero;stroke:none" id="path1792" transform="matrix(0.133333, 0, 0, -0.133333, 0, 5287.013184)"/>
  <path d="m 13846.2,23211 c -2.8,-3.6 -5.6,-7.2 -8.5,-10.8 -27.3,-32.9 -64.5,-63.6 -111.6,-90.9 -2.9,-1.6 -5.8,-3.3 -8.8,-4.9 -2.8,-1.5 -5.6,-3.1 -8.5,-4.6 -37.1,-19.7 -77.5,-36.1 -120.3,-49.1 -2.8,-0.9 -5.7,-1.7 -8.5,-2.5 -38.7,-11.4 -79.1,-20 -120.4,-25.9 -2.8,-0.4 -5.6,-0.8 -8.5,-1.2 -39.5,-5.3 -79.9,-8.2 -120.3,-8.6 -2.8,0 -5.7,0 -8.5,0 -40.4,-0.1 -80.8,2.2 -120.4,7 -2.8,0.4 -5.7,0.7 -8.5,1.1 -41.2,5.4 -81.6,13.4 -120.3,24 -2.8,0.8 -5.7,1.6 -8.5,2.4 -42.6,12.2 -83.1,27.7 -120.4,46.4 -2.8,1.4 -5.7,2.8 -8.5,4.3 -7.2,3.8 -14.2,7.6 -21.1,11.6 -40.4,23.3 -73.4,49.2 -99.2,76.8 -2.9,3.1 -5.7,6.3 -8.5,9.5 -70,81.1 -78.9,175.5 -26.7,259.9 27.7,44.7 72.5,86.6 134.4,122.4 223.7,129.1 587.7,129.1 811.5,0 61.8,-35.8 106.6,-77.7 134.2,-122.4 49,-79.1 44.3,-167 -14.1,-244.5 z m 71,197.6 c -22.2,68.9 -79.8,132.3 -167.5,182.9 -114.7,66.3 -267.2,102.7 -429.4,102.7 -162.2,0 -314.7,-36.4 -429.4,-102.7 -87.7,-50.6 -145.3,-114 -167.5,-182.9 -6.9,-21.2 -10.4,-42.9 -10.4,-65 0,-67.4 32.8,-131.9 93.9,-187.5 2.8,-2.5 5.6,-5 8.5,-7.5 21.9,-18.8 47.1,-36.5 75.5,-52.9 14.4,-8.3 29.4,-16.1 44.8,-23.4 2.9,-1.4 5.7,-2.7 8.5,-4 37.4,-17.1 77.8,-31.5 120.4,-42.8 2.8,-0.8 5.7,-1.6 8.5,-2.3 38.5,-9.9 78.8,-17.5 120.3,-22.5 2.9,-0.4 5.7,-0.7 8.5,-1.1 38.6,-4.3 78.2,-6.6 118.4,-6.6 h 2 c 2.8,0 5.7,0.1 8.5,0.1 40.9,0.4 81.2,3.1 120.3,8.1 2.8,0.3 5.7,0.7 8.5,1.1 41.6,5.5 81.9,13.7 120.4,24.2 2.8,0.8 5.7,1.6 8.5,2.4 42.7,12.1 83.1,27.3 120.3,45.3 2.8,1.3 5.7,2.7 8.5,4.1 11.1,5.5 21.9,11.3 32.4,17.4 33.9,19.6 63.4,41.1 88,64.1 2.9,2.7 5.7,5.4 8.5,8.2 53,52.8 81.3,113 81.3,175.6 0,22.1 -3.5,43.8 -10.3,65" style="fill:#ff9d4d;fill-opacity:1;fill-rule:nonzero;stroke:none" id="path1794" transform="matrix(0.133333, 0, 0, -0.133333, 0, 5287.013184)"/>
  <path d="m 13342.5,23400.2 65.5,-37.8 c -1.5,-0.7 -3,-1.5 -4.4,-2.3 l -35.9,-20.7 -61.2,35.3 20.2,11.6 c 7.3,4.2 12.5,8.8 15.8,13.9" style="fill:#d1975d;fill-opacity:1;fill-rule:nonzero;stroke:none" id="path1796" transform="matrix(0.133333, 0, 0, -0.133333, 0, 5287.013184)"/>
  <path d="m 13193.4,23425.3 8.5,5 4.2,2.4 v 0 l 23.6,13.6 c 1.3,0.8 2.8,1.3 4.3,2 4.8,2.4 9.8,4.4 15.4,5.7 7.6,1.8 15.9,2.6 24.9,2.5 17,-0.3 33,-4.7 48,-13.2 l 1.1,-0.6 c 2.7,-1.5 5.1,-3.1 7.4,-4.8 10.7,-7.7 16,-15.8 15.9,-24.5 -0.1,-4.7 -1.5,-9.1 -4.2,-13.2 -2.6,-4.1 -6.5,-7.9 -11.7,-11.3 -1.3,-0.9 -2.6,-1.7 -4,-2.6 l -4.5,-2.5 -15.8,-9.1 -48.7,-28.2 v 0 l -13.3,-7.7 -21,-12 -11.6,6.7 -13,7.5 -5.5,3.1 -24.5,14.2 -45.8,26.4 12.7,7.4 21.5,12.4 v 0 z m 210.2,-65.2 c 1.4,0.8 2.9,1.6 4.4,2.3 5.6,2.7 11.7,4.7 18.3,5.9 8,1.6 16.3,2.2 24.8,1.9 l 1.3,-0.1 c 2.4,-0.1 4.8,-0.3 7.2,-0.5 6.6,-0.7 13.2,-1.9 19.8,-3.7 8.9,-2.3 17,-5.6 24.1,-9.7 7.1,-4.1 12.5,-8.7 16.3,-13.9 3.7,-5.2 5.6,-10.4 5.8,-15.7 0.2,-5.3 -1.4,-10.5 -5,-15.6 -2.2,-3.1 -5,-6 -8.5,-8.7 -1.7,-1.4 -3.7,-2.7 -5.8,-4 l -1.7,-1 -30.9,-17.9 -1.1,-0.6 -13,-7.5 -8.5,-4.9 -27.2,-15.8 -34.3,-19.7 -104.9,60.5 11.2,6.5 23,13.3 v 0 l 3.4,2 8.5,4.9 36.9,21.3 z m 134.7,-119.2 v 0 l 67,-38.7 40.1,23.1 -67.2,38.8 1.8,1.2 c 2.9,1.8 5.8,3.7 8.5,5.6 9.5,6.8 17.7,13.8 24.7,21 11,11.6 18.1,23.2 21.3,35 3.2,11.8 1.8,23.3 -4.2,34.5 -6,11.2 -17.4,21.7 -34.2,31.4 -2.6,1.5 -5.1,2.9 -7.6,4.2 -2.8,1.5 -5.7,2.8 -8.5,4.2 -21.7,10 -44.7,15.9 -69.2,17.9 -17.2,1.3 -34.3,0.8 -51.2,-1.5 -2.8,-0.4 -5.7,-0.9 -8.5,-1.4 -10.3,-1.8 -20.5,-4.3 -30.7,-7.5 10.5,15.5 12.1,31 4.8,46.5 -7.3,15.4 -20.7,28.8 -40.1,40 -12.4,7.1 -26.7,12.9 -43.2,17.5 -16.5,4.5 -33.4,7.3 -50.8,8.2 -17.4,1 -34.7,0 -51.9,-3 -17.2,-3.1 -32.7,-8.6 -46.6,-16.6 l -12.6,-7.3 -64.6,37.3 -40.1,-23.1 64.6,-37.3 -48.8,-28.2 -64.6,37.3 -40.1,-23.1 64.6,-37.3 -71.5,-41.3 85.1,-49.2 8.5,-4.9 120.3,-69.5 8.5,-4.9 120.4,-69.5 8.5,-4.9 47,-27.1 71.6,41.3 v 0 l 67.1,-38.7 40.1,23.1 -67.1,38.7 v 0 l 48.8,28.2" style="fill:#ff9d4d;fill-opacity:1;fill-rule:nonzero;stroke:none" id="path1798" transform="matrix(0.133333, 0, 0, -0.133333, 0, 5287.013184)"/>
  <path d="m 12704.7,23161.1 v -140.7 c -3,3.8 -5.8,7.6 -8.5,11.4 v 140.7 c 2.7,-3.8 5.5,-7.6 8.5,-11.4" style="fill:#ffe840;fill-opacity:1;fill-rule:nonzero;stroke:none" id="path1800" transform="matrix(0.133333, 0, 0, -0.133333, 0, 5287.013184)"/>
  <path d="m 12815.4,23067.8 v -140.7 c -2.9,1.8 -5.7,3.5 -8.5,5.3 v 140.7 c 2.8,-1.8 5.6,-3.5 8.5,-5.3" style="fill:#ffe840;fill-opacity:1;fill-rule:nonzero;stroke:none" id="path1802" transform="matrix(0.133333, 0, 0, -0.133333, 0, 5287.013184)"/>
  <path d="m 12944.2,23006.1 v -140.7 c -2.8,1 -5.7,2.1 -8.5,3.2 v 140.7 c 2.8,-1.1 5.7,-2.2 8.5,-3.2" style="fill:#ffe840;fill-opacity:1;fill-rule:nonzero;stroke:none" id="path1804" transform="matrix(0.133333, 0, 0, -0.133333, 0, 5287.013184)"/>
  <path d="m 13073.1,22968.5 v -140.7 c -2.8,0.6 -5.7,1.2 -8.5,1.9 v 140.7 c 2.8,-0.6 5.7,-1.3 8.5,-1.9" style="fill:#ffe840;fill-opacity:1;fill-rule:nonzero;stroke:none" id="path1806" transform="matrix(0.133333, 0, 0, -0.133333, 0, 5287.013184)"/>
  <path d="m 13201.9,22948.2 v -140.7 c -2.8,0.3 -5.6,0.6 -8.5,0.9 v 140.7 c 2.9,-0.3 5.7,-0.6 8.5,-0.9" style="fill:#ffe840;fill-opacity:1;fill-rule:nonzero;stroke:none" id="path1808" transform="matrix(0.133333, 0, 0, -0.133333, 0, 5287.013184)"/>
  <path d="m 13330.8,22942.4 v -140.7 c -2.8,0 -5.7,0 -8.5,0 v 140.6 c 2.8,0 5.7,0.1 8.5,0.1" style="fill:#ffe840;fill-opacity:1;fill-rule:nonzero;stroke:none" id="path1810" transform="matrix(0.133333, 0, 0, -0.133333, 0, 5287.013184)"/>
  <path d="m 13459.6,22950.5 v -140.7 c -2.8,-0.4 -5.7,-0.7 -8.5,-1 v 140.7 c 2.8,0.3 5.7,0.6 8.5,1" style="fill:#ffe840;fill-opacity:1;fill-rule:nonzero;stroke:none" id="path1812" transform="matrix(0.133333, 0, 0, -0.133333, 0, 5287.013184)"/>
  <path d="m 13588.5,22973.3 v -140.6 c -2.9,-0.8 -5.7,-1.5 -8.5,-2.1 v 140.7 c 2.8,0.7 5.6,1.3 8.5,2" style="fill:#ffe840;fill-opacity:1;fill-rule:nonzero;stroke:none" id="path1814" transform="matrix(0.133333, 0, 0, -0.133333, 0, 5287.013184)"/>
  <path d="m 13717.3,23014.1 v -140.6 c -2.8,-1.2 -5.7,-2.3 -8.5,-3.4 v 140.7 c 2.8,1.1 5.7,2.2 8.5,3.3" style="fill:#ffe840;fill-opacity:1;fill-rule:nonzero;stroke:none" id="path1816" transform="matrix(0.133333, 0, 0, -0.133333, 0, 5287.013184)"/>
  <path d="m 13846.2,23081.2 v -140.7 c -2.8,-1.8 -5.7,-3.7 -8.5,-5.6 v 140.7 c 2.8,1.9 5.7,3.7 8.5,5.6" style="fill:#ffe840;fill-opacity:1;fill-rule:nonzero;stroke:none" id="path1818" transform="matrix(0.133333, 0, 0, -0.133333, 0, 5287.013184)"/>
  <path d="m 13960.5,23194.6 v -140.7 c -2.7,-4.4 -5.6,-8.8 -8.6,-13.1 v 140.7 c 3,4.3 5.8,8.7 8.6,13.1" style="fill:#ffe840;fill-opacity:1;fill-rule:nonzero;stroke:none" id="path1820" transform="matrix(0.133333, 0, 0, -0.133333, 0, 5287.013184)"/>
</svg>