<?xml version="1.0" encoding="utf-8"?>
<svg viewBox="1347.539 2861.219 1062.768 682.91" width="1062.768" height="682.91" xmlns="http://www.w3.org/2000/svg">
  <defs>
    <clipPath clipPathUnits="userSpaceOnUse" id="clipPath2328">
      <path d="m 18057,16286 v -188 h -0.2 c -2.3,-49.3 -35.9,-98.2 -100.8,-135.7 l -4330.2,-2501.5 c -34.5,-19.9 -74.4,-34.8 -117.2,-44.4 -42.7,-9.9 -88.3,-14.5 -133.7,-14 v 191.4 c 45.4,-0.6 91,4.1 133.7,13.8 42.8,9.8 82.7,24.6 117.2,44.5 l 4330.2,2501.5 c 63.5,36.9 97.1,84.3 100.7,132.4 z" id="path2326"/>
    </clipPath>
    <linearGradient x1="0" y1="0" x2="1" y2="0" gradientUnits="userSpaceOnUse" gradientTransform="matrix(4682.18,0,0,-4682.18,13374.9,14844.2)" spreadMethod="pad" id="linearGradient2334">
      <stop style="stop-opacity:1;stop-color:#2e256b" offset="0" id="stop2330"/>
      <stop style="stop-opacity:1;stop-color:#5a3087" offset="1" id="stop2332"/>
    </linearGradient>
    <clipPath clipPathUnits="userSpaceOnUse" id="clipPath2344">
      <path d="m 18056.7,16286 c -3.6,-48.1 -37.2,-95.5 -100.7,-132.4 l -4330.2,-2501.5 c -34.5,-19.9 -74.4,-34.7 -117.2,-44.5 -42.7,-9.7 -88.3,-14.4 -133.7,-13.8 v -191.4 c -12.1,0.2 -23.9,0.7 -35.9,1.5 -73.6,5.2 -144.9,24.2 -201.4,56.8 l -2910.9,1680.7 c -57,32.9 -89.8,74.3 -98.6,117 -3.3,15.7 -3.1,31.4 0,47 v 144.4 l 176.9,18.6 4251.7,2456.3 c 69.2,40.1 160.4,59.5 251.2,58.4 11.8,-0.1 23.8,-0.6 35.5,-1.5 h 0.2 c 67.3,-4.8 132.8,-21.1 186.6,-48.9 5.1,-2.5 10,-5.2 14.8,-8 l 2865.4,-1654.3 z" id="path2342"/>
    </clipPath>
    <linearGradient x1="0" y1="0" x2="1" y2="0" gradientUnits="userSpaceOnUse" gradientTransform="matrix(7930.96,0,0,-7930.96,10125.7,15692.8)" spreadMethod="pad" id="linearGradient2350">
      <stop style="stop-opacity:1;stop-color:#483ca6" offset="0" id="stop2346"/>
      <stop style="stop-opacity:1;stop-color:#59278f" offset="1" id="stop2348"/>
    </linearGradient>
    <clipPath clipPathUnits="userSpaceOnUse" id="clipPath2366">
      <path d="m 18056.7,16286 c -3.6,-48.1 -37.2,-95.5 -100.7,-132.4 l -4330.2,-2501.5 c -34.5,-19.9 -74.4,-34.7 -117.2,-44.5 -42.7,-9.7 -88.3,-14.4 -133.7,-13.8 -12.1,0 -23.9,0.5 -35.9,1.4 -73.6,5.3 -144.9,24.2 -201.4,56.9 l -2910.9,1680.6 c -57,32.9 -89.8,74.3 -98.6,117.1 -12.1,58.7 20.7,119.9 98.6,164.8 l 4330,2501.6 c 69.2,39.9 160.4,59.4 251.2,58.2 11.8,-0.1 23.8,-0.6 35.5,-1.4 l 0.2,-0.1 c 67.3,-4.7 132.8,-21 186.6,-48.8 5.1,-2.5 10,-5.3 14.8,-7.9 l 2911,-1680.7 c 71.1,-41.1 104.7,-95.7 100.7,-149.5 z" id="path2364"/>
    </clipPath>
    <linearGradient x1="0" y1="0" x2="1" y2="0" gradientUnits="userSpaceOnUse" gradientTransform="matrix(7931.33,0,0,-7931.33,10125.7,15884.1)" spreadMethod="pad" id="linearGradient2372">
      <stop style="stop-opacity:1;stop-color:#6a5ebf" offset="0" id="stop2368"/>
      <stop style="stop-opacity:1;stop-color:#6e3aa5" offset="1" id="stop2370"/>
    </linearGradient>
  </defs>
  <path d="m 18057,16098 -357.4,-36.7 L 15045,17594 c -4.8,2.7 -9.7,5.4 -14.8,8 -53.8,27.7 -119.3,44.1 -186.6,48.7 l -0.2,0.2 c -11.7,0.7 -23.7,1.2 -35.5,1.4 -90.8,1.1 -182,-18.4 -251.2,-58.3 l -3905.5,-2256.3 -525.4,-53.9 63.6,-368 c -0.1,-8.7 0.6,-17.4 2.4,-26 8.7,-42.8 41.5,-84.3 98.5,-117.2 l 2847.3,-1642.7 c 56.5,-32.6 127.8,-51.5 201.4,-56.8 12,-0.9 23.8,-1.4 35.9,-1.4 45.4,-0.7 91,4 133.7,13.8 42.8,9.7 82.7,24.6 117.2,44.4 l 4252.4,2454.3 c 63.6,36.8 97.2,84.2 100.7,132.3 h 0.4 l 77.7,381.5" style="fill:#e3dfea;fill-opacity:1;fill-rule:nonzero;stroke:none" id="path2316" transform="matrix(0.133333, 0, 0, -0.133333, 0, 5287.013184)"/>
  <path d="m 15030.2,18124.1 -42,-172.9 2599.5,-1500.8 c 134.9,-77.9 134.8,-204 0,-281.9 l -4249.3,-2454.8 170.3,-106 c -42.8,-9.8 -88.3,-14.5 -133.9,-13.9 l -35.8,1.4 c -73.6,5.3 -144.9,24.3 -201.4,56.9 l -2911,1680.6 c -56.9,32.9 -89.8,74.3 -98.5,117.1 -12.1,58.6 20.7,119.8 98.6,164.8 l 4330.1,2501.5 c 69.1,40 160.2,59.4 251.1,58.3 l 35.5,-1.4 h 0.2 c 67.3,-4.8 132.8,-21.2 186.6,-48.9" style="fill:#ff4c5e;fill-opacity:1;fill-rule:nonzero;stroke:none" id="path2318" transform="matrix(0.133333, 0, 0, -0.133333, 0, 5287.013184)"/>
  <path d="m 15045,18116.1 2911,-1680.6 c 134.7,-77.8 134.6,-204 -0.1,-281.9 l -4330.2,-2501.5 c -34.4,-19.9 -74.3,-34.7 -117,-44.4 -42.8,-9.8 -88.3,-14.5 -133.9,-13.9 -11.9,0.1 -23.8,0.6 -35.8,1.4 -73.6,5.3 -144.9,24.3 -201.4,56.9 l -2911,1680.6 c -56.9,32.9 -89.8,74.3 -98.5,117.1 -12.1,58.6 20.7,119.8 98.6,164.8 l 4330.1,2501.5 c 69.1,40 160.2,59.4 251.1,58.3 11.8,-0.1 23.8,-0.6 35.5,-1.4 h 0.2 c 67.3,-4.8 132.8,-21.2 186.6,-48.9 5.1,-2.6 10,-5.2 14.8,-8" style="fill:#ffbc00;fill-opacity:1;fill-rule:nonzero;stroke:none" id="path2320" transform="matrix(0.133333, 0, 0, -0.133333, 0, 5287.013184)"/>
  <g id="g2322" transform="matrix(0.133333, 0, 0, -0.133333, 0, 5287.013184)">
    <g id="g2324" clip-path="url(#clipPath2328)">
      <path d="m 18057,16286 v -188 h -0.2 c -2.3,-49.3 -35.9,-98.2 -100.8,-135.7 l -4330.2,-2501.5 c -34.5,-19.9 -74.4,-34.8 -117.2,-44.4 -42.7,-9.9 -88.3,-14.5 -133.7,-14 v 191.4 c 45.4,-0.6 91,4.1 133.7,13.8 42.8,9.8 82.7,24.6 117.2,44.5 l 4330.2,2501.5 c 63.5,36.9 97.1,84.3 100.7,132.4 h 0.3" style="fill:url(#linearGradient2334);fill-opacity:1;fill-rule:nonzero;stroke:none" id="path2336"/>
    </g>
  </g>
  <g id="g2338" transform="matrix(0.133333, 0, 0, -0.133333, 0, 5287.013184)">
    <g id="g2340" clip-path="url(#clipPath2344)">
      <path d="m 18056.7,16286 c -3.6,-48.1 -37.2,-95.5 -100.7,-132.4 l -4330.2,-2501.5 c -34.5,-19.9 -74.4,-34.7 -117.2,-44.5 -42.7,-9.7 -88.3,-14.4 -133.7,-13.8 v -191.4 c -12.1,0.2 -23.9,0.7 -35.9,1.5 -73.6,5.2 -144.9,24.2 -201.4,56.8 l -2910.9,1680.7 c -57,32.9 -89.8,74.3 -98.6,117 -3.3,15.7 -3.1,31.4 0,47 v 144.4 l 176.9,18.6 4251.7,2456.3 c 69.2,40.1 160.4,59.5 251.2,58.4 11.8,-0.1 23.8,-0.6 35.5,-1.5 h 0.2 c 67.3,-4.8 132.8,-21.1 186.6,-48.9 5.1,-2.5 10,-5.2 14.8,-8 l 2865.4,-1654.3 146.3,15.6" style="fill:url(#linearGradient2350);fill-opacity:1;fill-rule:nonzero;stroke:none" id="path2352"/>
    </g>
  </g>
  <path d="m 13381.8,13383.4 c -2.4,0 -4.8,0 -7.2,0 l 0.5,38 c 45.1,-0.4 88.5,4.1 129.2,13.5 41.9,9.4 79.5,23.6 112,42.4 l 4330.2,2501.5 c 56.8,32.8 89.2,75.4 91.3,120.1 l 0.2,5 v 92.8 c -18.1,-22 -42.5,-42.1 -72.5,-59.5 l -4330.2,-2501.6 c -35.4,-20.4 -76.6,-36 -122.5,-46.5 -44.3,-10.1 -90.9,-14.9 -138.2,-14.3 l 0.5,38 c 44.3,-0.5 87.8,3.9 129.3,13.4 42.2,9.6 79.8,23.8 111.9,42.4 l 4330.2,2501.5 c 55.6,32.2 88,73.9 91.2,117.3 l 1.3,17.6 h 36.7 l 0.3,-19 v -207 h -2.3 c -9.2,-51 -47,-97.8 -108.3,-133.1 l -4330.1,-2501.5 c -35.8,-20.7 -77,-36.3 -122.5,-46.6 -41.4,-9.5 -85.4,-14.4 -131,-14.4" style="fill:#bf89ef;fill-opacity:1;fill-rule:nonzero;stroke:none" id="path2354" transform="matrix(0.133333, 0, 0, -0.133333, 0, 5287.013184)"/>
  <path d="m 13374.7,13383.4 c -12.3,0.2 -24.5,0.7 -37.1,1.6 -79.5,5.6 -152,26.1 -209.5,59.2 l -2910.9,1680.7 c -60.2,34.8 -97.4,79.7 -107.7,129.7 -3.6,17.2 -3.7,34.9 -0.4,52.7 v 159.6 l 189.9,20 4248.2,2454.3 c 69.8,40.4 162.2,61.9 260.9,60.9 12.1,-0.1 24.2,-0.6 36,-1.5 h 0.9 c 72.2,-5.2 139.2,-22.8 193.9,-51 5.2,-2.6 10.5,-5.4 15.6,-8.4 l 2860,-1651.2 162.8,17.3 -1.7,-22.7 c -4.1,-56.3 -43.2,-108.7 -110.1,-147.4 l -4330.2,-2501.6 c -35.4,-20.4 -76.6,-36 -122.5,-46.5 -44.3,-10.1 -90.8,-15.2 -138.2,-14.3 l 0.5,38 c 44.4,-0.5 87.8,3.9 129.3,13.4 42.2,9.6 79.8,23.8 111.9,42.4 l 4330.2,2501.5 c 45.7,26.5 75.7,59.3 86.7,94.3 l -127,-13.5 -5.4,3.1 -2865.3,1654.3 c -4.5,2.6 -9.1,5.1 -13.8,7.4 -50.2,25.9 -111.9,42.1 -178.8,46.9 l -1,0.1 c -11.2,0.8 -22.7,1.3 -34.2,1.5 -91.8,0.9 -177.5,-18.9 -241.5,-55.9 L 10311,15450 l -163.9,-17.3 -0.4,-131.1 c -2.7,-13.3 -2.7,-26.5 0,-39.3 7.9,-38.6 39.7,-75.7 89.5,-104.5 l 2910.9,-1680.7 c 51.8,-29.8 120.4,-49.1 193.2,-54.2 11.9,-0.9 23.3,-1.4 34.7,-1.5 l -0.3,-38" style="fill:#bf89ef;fill-opacity:1;fill-rule:nonzero;stroke:none" id="path2356" transform="matrix(0.133333, 0, 0, -0.133333, 0, 5287.013184)"/>
  <path d="m 15045,18116.1 2911,-1680.6 c 134.7,-77.8 134.6,-204 -0.1,-281.9 l -4330.2,-2501.5 c -34.4,-19.9 -74.3,-34.7 -117,-44.4 -42.8,-9.8 -88.3,-14.5 -133.9,-13.9 -11.9,0.1 -23.8,0.6 -35.8,1.4 -73.6,5.3 -144.9,24.3 -201.4,56.9 l -2911,1680.6 c -56.9,32.9 -89.8,74.3 -98.5,117.1 -12.1,58.6 20.7,119.8 98.6,164.8 l 4330.1,2501.5 c 69.1,40 160.2,59.4 251.1,58.3 11.8,-0.1 23.8,-0.6 35.5,-1.4 h 0.2 c 67.3,-4.8 132.8,-21.2 186.6,-48.9 5.1,-2.6 10,-5.2 14.8,-8" style="fill:#925fc4;fill-opacity:1;fill-rule:nonzero;stroke:none" id="path2358" transform="matrix(0.133333, 0, 0, -0.133333, 0, 5287.013184)"/>
  <g id="g2360" transform="matrix(0.133333, 0, 0, -0.133333, 0, 5287.013184)">
    <g id="g2362" clip-path="url(#clipPath2366)">
      <path d="m 18056.7,16286 c -3.6,-48.1 -37.2,-95.5 -100.7,-132.4 l -4330.2,-2501.5 c -34.5,-19.9 -74.4,-34.7 -117.2,-44.5 -42.7,-9.7 -88.3,-14.4 -133.7,-13.8 -12.1,0 -23.9,0.5 -35.9,1.4 -73.6,5.3 -144.9,24.2 -201.4,56.9 l -2910.9,1680.6 c -57,32.9 -89.8,74.3 -98.6,117.1 -12.1,58.7 20.7,119.9 98.6,164.8 l 4330,2501.6 c 69.2,39.9 160.4,59.4 251.2,58.2 11.8,-0.1 23.8,-0.6 35.5,-1.4 l 0.2,-0.1 c 67.3,-4.7 132.8,-21 186.6,-48.8 5.1,-2.5 10,-5.3 14.8,-7.9 l 2911,-1680.7 c 71.1,-41.1 104.7,-95.7 100.7,-149.5" style="fill:url(#linearGradient2372);fill-opacity:1;fill-rule:nonzero;stroke:none" id="path2374"/>
    </g>
  </g>
  <path d="m 14800.5,18155.5 c -87.6,0 -172.6,-20.2 -234.3,-55.8 l -4330,-2501.5 c -67.8,-39.1 -100.4,-91.8 -89.5,-144.5 8,-39.3 39,-75.4 89.5,-104.6 l 2910.9,-1680.5 c 52.2,-30.3 119.1,-49.1 193.3,-54.4 12.3,-0.9 23.5,-1.4 34.5,-1.4 44.4,-0.6 88,3.9 129.5,13.4 42.2,9.6 79.8,23.8 111.9,42.4 l 4330.2,2501.5 c 55.6,32.2 88,73.9 91.2,117.3 v 0 c 3.6,48.1 -29.6,96.1 -91.2,131.6 l -2911,1680.7 -2,1.1 c -3.9,2.2 -7.8,4.3 -11.8,6.3 -50.4,26 -112.4,42.2 -179.4,46.8 l -4,0.4 c -10.6,0.6 -20.9,1 -30.6,1.1 -2.4,0 -4.8,0.1 -7.2,0.1 z m -1417.3,-4580.7 c -2.9,0 -5.7,0 -8.6,0 h -0.1 c -11.6,0 -23.7,0.5 -36.9,1.5 -79.9,5.7 -152.3,26.3 -209.5,59.4 l -2910.9,1680.5 c -60.2,34.8 -97.5,79.7 -107.7,129.8 -14.5,69.8 24.8,137.2 107.7,185.1 l 4330,2501.5 c 70.1,40.5 163,62.1 260.9,60.8 11.6,-0.1 23.8,-0.6 36.5,-1.4 l 4.1,-0.4 c 70.7,-5.4 136.4,-22.9 190.2,-50.6 4.3,-2.1 8.7,-4.5 13,-6.9 l 2.3,-1.3 2911.3,-1680.9 c 74.7,-43.1 114.9,-104.1 110.1,-167.3 -4.1,-56.3 -43.3,-108.7 -110.1,-147.4 l -4330.2,-2501.6 c -35.4,-20.4 -76.6,-36 -122.5,-46.5 -41.7,-9.5 -85.2,-14.3 -129.6,-14.3" style="fill:#bf89ef;fill-opacity:1;fill-rule:nonzero;stroke:none" id="path2376" transform="matrix(0.133333, 0, 0, -0.133333, 0, 5287.013184)"/>
  <path d="m 12634.5,15446.2 -781.2,-451.3 c -45,-26 -166.3,-21 -218.3,9 l -643.5,371.5 c -65,37.6 -70.4,80.7 -14.1,113.3 l 760.6,439.3 c 42,24.3 155.4,19.6 204,-8.4 l 682.6,-394.1 c 45.6,-26.3 49.3,-56.5 9.9,-79.3" style="fill:#ff4c5e;fill-opacity:1;fill-rule:nonzero;stroke:none" id="path2378" transform="matrix(0.133333, 0, 0, -0.133333, 0, 5287.013184)"/>
  <path d="m 12450.2,15449.3 -610.6,-352.7 c -35.2,-20.3 -130,-16.4 -170.6,7.1 l -502.9,290.3 c -50.8,29.4 -55,63.1 -11,88.5 l 594.4,343.4 c 32.9,19 121.5,15.3 159.5,-6.6 l 533.4,-308 c 35.6,-20.6 38.6,-44.2 7.8,-62" style="fill:#ffffff;fill-opacity:1;fill-rule:nonzero;stroke:none" id="path2380" transform="matrix(0.133333, 0, 0, -0.133333, 0, 5287.013184)"/>
  <path d="m 13283.2,15006.5 -611.3,-352.9 c -22.5,-13 -83.1,-10.5 -109,4.5 l -171.4,98.9 c -12,7 -13,15 -2.6,21 l 611.3,352.9 c 22.5,13 83.1,10.5 109.1,-4.5 l 171.3,-98.9 c 12.1,-7 13.1,-15 2.6,-21" style="fill:#ffffff;fill-opacity:1;fill-rule:nonzero;stroke:none" id="path2382" transform="matrix(0.133333, 0, 0, -0.133333, 0, 5287.013184)"/>
  <path d="m 14310.1,15599.4 -611.3,-353 c -22.5,-12.9 -83.1,-10.4 -109.1,4.6 l -171.3,98.9 c -12.1,6.9 -13.1,14.9 -2.6,21 l 611.3,352.9 c 22.5,13 83.1,10.5 109,-4.5 l 171.4,-98.9 c 12,-7 13,-15 2.6,-21" style="fill:#ffffff;fill-opacity:1;fill-rule:nonzero;stroke:none" id="path2384" transform="matrix(0.133333, 0, 0, -0.133333, 0, 5287.013184)"/>
  <path d="m 15337,16192.3 -611.4,-353 c -22.5,-13 -83,-10.5 -109,4.5 l -171.3,98.9 c -12.1,7 -13.1,15 -2.7,21 l 611.4,353 c 22.5,13 83,10.5 109,-4.5 l 171.4,-99 c 12,-6.9 13,-14.9 2.6,-20.9" style="fill:#ffffff;fill-opacity:1;fill-rule:nonzero;stroke:none" id="path2386" transform="matrix(0.133333, 0, 0, -0.133333, 0, 5287.013184)"/>
  <path d="m 16363.8,16785.1 -611.3,-352.9 c -22.5,-13 -83.1,-10.5 -109,4.5 l -171.4,98.9 c -12,7 -13,15 -2.6,21 l 611.4,353 c 22.4,12.9 83,10.4 109,-4.6 l 171.3,-98.9 c 12.1,-6.9 13.1,-14.9 2.6,-21" style="fill:#ffffff;fill-opacity:1;fill-rule:nonzero;stroke:none" id="path2388" transform="matrix(0.133333, 0, 0, -0.133333, 0, 5287.013184)"/>
  <path d="m 14513,15815.5 v -289.1 h -1.3 c -6,-73.2 -30.5,-146 -73.6,-216 -5,-8.1 -10.4,-16.3 -15.9,-24.4 -52.2,-76.1 -126.8,-148.1 -224,-212.9 -5.2,-3.5 -10.5,-6.9 -15.8,-10.4 -15.5,-9.9 -31.6,-19.7 -48.2,-29.3 -55.2,-31.8 -114.1,-60.2 -175.9,-85.1 -5.2,-2.1 -10.5,-4.2 -15.8,-6.2 -71.3,-27.9 -146.4,-51.2 -223.9,-69.8 -5.3,-1.4 -10.6,-2.6 -15.9,-3.8 -72.9,-16.9 -147.9,-29.8 -224,-38.7 -5.3,-0.7 -10.6,-1.3 -15.9,-1.8 -73.9,-8.2 -148.9,-12.6 -223.9,-13.2 -5.3,-0.1 -10.6,-0.2 -15.9,-0.2 -74.9,-0.1 -149.9,3.5 -224,11 -5.3,0.4 -10.5,1 -15.8,1.6 -76,8 -151,20.1 -224,36.1 -5.2,1.1 -10.5,2.3 -15.8,3.5 -77.4,17.7 -152.5,39.8 -224,66.4 -5.3,2 -10.7,4 -15.9,6 -70.3,27 -137,58.4 -199,94.2 -8.4,4.9 -16.8,9.8 -24.9,14.8 -5.4,3.3 -10.7,6.5 -15.9,9.8 -94.5,59.7 -169.2,126.1 -224,196.4 -5.6,7.1 -10.8,14.1 -15.8,21.2 -57.7,80.3 -90,165.3 -96.9,250.8 h -1.4 v 289.1 h 76.8 c 6.7,10.7 13.9,21.4 21.5,31.8 5,7.2 10.3,14.2 15.8,21.2 20.1,26 43,51.3 68.5,76 31.3,30.1 66.5,59.4 105.9,87.3 28.1,20 58.2,39.4 90.4,57.9 505.2,291.7 1324.4,291.7 1829.7,0 32.2,-18.5 62.3,-37.9 90.4,-57.9 39.2,-27.9 74.6,-57.1 105.8,-87.3 35.9,-34.7 66.5,-70.7 91.8,-107.6 4.9,-7.1 9.5,-14.2 14,-21.4 h 76.8" style="fill:#ff9d4d;fill-opacity:1;fill-rule:nonzero;stroke:none" id="path2390" transform="matrix(0.133333, 0, 0, -0.133333, 0, 5287.013184)"/>
  <path d="m 13219.3,16308.5 c -331.1,0 -662.2,-72.9 -914.8,-218.8 -32.2,-18.5 -62.3,-37.9 -90.4,-57.9 -39.4,-27.9 -74.6,-57.2 -105.9,-87.3 -25.5,-24.7 -48.4,-50 -68.5,-76 -5.5,-7 -10.8,-14 -15.8,-21.2 -7.6,-10.4 -14.8,-21.1 -21.5,-31.8 h -76.8 v -289.1 h 1.4 c 6.9,-85.5 39.2,-170.5 96.9,-250.8 5,-7.1 10.2,-14.1 15.8,-21.2 54.8,-70.3 129.5,-136.7 224,-196.4 5.2,-3.3 10.5,-6.5 15.9,-9.8 8.1,-5 16.5,-9.9 24.9,-14.8 62,-35.8 128.7,-67.2 199,-94.1 5.2,-2.1 10.6,-4.1 15.9,-6 71.5,-26.7 146.6,-48.8 224,-66.5 5.3,-1.2 10.6,-2.4 15.8,-3.5 73,-16 148,-28.1 224,-36.1 5.3,-0.6 10.5,-1.2 15.8,-1.6 72.7,-7.3 146.2,-11 219.7,-11 1.5,0 2.9,0 4.3,0 5.3,0 10.6,0.1 15.9,0.2 75,0.6 150,5 223.9,13.2 5.3,0.5 10.6,1.1 15.9,1.8 76.1,8.9 151.1,21.8 224,38.7 5.3,1.2 10.6,2.4 15.9,3.8 77.5,18.6 152.6,41.9 223.9,69.8 5.3,2 10.6,4.1 15.8,6.2 61.8,24.9 120.7,53.3 175.9,85.1 16.6,9.6 32.7,19.4 48.2,29.3 5.3,3.5 10.6,6.9 15.8,10.4 97.2,64.8 171.8,136.8 224,212.9 5.5,8.1 10.9,16.3 15.9,24.4 43.1,70 67.6,142.8 73.6,216 h 1.3 v 35.1 0.1 253.9 h -76.8 c -4.5,7.2 -9.1,14.3 -14,21.4 -25.3,36.9 -55.9,72.9 -91.8,107.6 -31.2,30.2 -66.6,59.4 -105.8,87.3 -28.1,20 -58.2,39.4 -90.4,57.9 -252.7,145.9 -583.8,218.8 -914.9,218.8 z m 0,-15.9 c 342.9,0 665,-76.9 907,-216.6 31.4,-18.2 61.4,-37.4 89.1,-57.1 38.3,-27.3 73.3,-56.2 104,-85.9 34.7,-33.4 64.9,-68.8 89.7,-105.2 4.5,-6.4 9,-13.2 13.7,-20.7 l 4.6,-7.4 h 8.8 61 v -238.2 -19.2 h -0.1 l -1.2,-14.6 c -5.8,-71.3 -29.8,-141.6 -71.3,-209 -4.6,-7.5 -9.8,-15.5 -15.5,-23.7 -52.2,-76.2 -126.1,-146.4 -219.7,-208.7 -5.1,-3.4 -10.4,-6.9 -15.6,-10.3 -15.2,-9.7 -31.2,-19.4 -47.5,-28.9 -53.6,-30.9 -112.1,-59.2 -173.8,-84.1 -5.2,-2.1 -10.4,-4.1 -15.8,-6.2 -70,-27.3 -144.7,-50.6 -222.1,-69.1 -5.1,-1.4 -10.1,-2.5 -15.5,-3.8 -71.4,-16.6 -146.1,-29.5 -222.6,-38.4 -5.1,-0.6 -10.1,-1.3 -15.4,-1.8 -73.3,-8.1 -148.1,-12.5 -222.4,-13.1 -5.2,0 -10.4,-0.1 -15.7,-0.1 h -4.3 c -73.1,0 -146.5,3.7 -218.4,10.9 -5,0.4 -10,0.9 -15.5,1.5 -75.3,8 -150.1,20.1 -222.2,35.9 -5.2,1.1 -10.4,2.2 -15.7,3.5 -77.5,17.6 -152.2,39.8 -222,65.8 l -1.9,0.7 c -4.6,1.7 -9.1,3.4 -13.8,5.3 -70,26.7 -136.2,58.1 -196.7,93 -8.4,4.9 -16.6,9.7 -24.7,14.7 -5.3,3.2 -10.5,6.4 -15.6,9.6 -91.2,57.6 -165.2,122.5 -220.1,192.9 -4.9,6.2 -9.9,12.9 -15.4,20.5 -55.5,77.4 -87.1,159.1 -93.9,242.9 l -1.1,14.6 h -0.2 v 257.4 h 60.9 8.9 l 4.6,7.4 c 6.4,10.3 13.4,20.7 20.9,31.1 4.6,6.5 9.6,13.2 15.4,20.6 19.6,25.2 42.1,50.2 67,74.2 31.2,30.1 66.2,59 104.1,85.9 28,19.9 58,39.1 89.2,57.1 241.9,139.7 564,216.6 906.8,216.6" style="fill:#ffe840;fill-opacity:1;fill-rule:nonzero;stroke:none" id="path2392" transform="matrix(0.133333, 0, 0, -0.133333, 0, 5287.013184)"/>
  <path d="m 14134.2,16351.6 c 505.2,-291.7 505.2,-764.6 0,-1056.3 -505.3,-291.7 -1324.4,-291.7 -1829.7,0 -505.2,291.7 -505.2,764.6 0,1056.3 505.3,291.7 1324.4,291.7 1829.7,0" style="fill:#ffe840;fill-opacity:1;fill-rule:nonzero;stroke:none" id="path2394" transform="matrix(0.133333, 0, 0, -0.133333, 0, 5287.013184)"/>
  <path d="m 14198.2,15576.7 c -5,-6.8 -10.3,-13.5 -15.8,-20.2 -50.8,-61.2 -120.1,-118.5 -207.8,-169.1 -5.3,-3.1 -10.8,-6.2 -16.3,-9.2 -5.2,-2.9 -10.4,-5.8 -15.8,-8.6 -69,-36.7 -144.3,-67.2 -223.9,-91.4 -5.3,-1.6 -10.6,-3.2 -15.9,-4.7 -71.9,-21.1 -147.1,-37.1 -224,-48.1 -5.2,-0.8 -10.5,-1.6 -15.9,-2.2 -73.5,-9.9 -148.7,-15.3 -223.9,-16 -5.3,-0.1 -10.6,-0.1 -15.9,-0.1 -75.1,-0.2 -150.2,4.1 -224,13.1 -5.3,0.7 -10.6,1.3 -15.8,2 -76.7,10 -151.9,24.9 -224,44.7 -5.2,1.4 -10.6,2.9 -15.8,4.4 -79.3,22.7 -154.6,51.5 -224,86.3 -5.4,2.7 -10.7,5.4 -15.9,8.1 -13.4,7 -26.5,14.2 -39.4,21.7 -75.1,43.3 -136.6,91.5 -184.5,142.8 -5.5,5.9 -10.7,11.7 -15.9,17.7 -130.4,151 -146.9,326.7 -49.6,483.9 51.5,83.2 134.8,161.2 250,227.7 416.4,240.4 1094,240.4 1510.5,0 115.2,-66.5 198.5,-144.5 250,-227.7 91.1,-147.3 82.4,-310.9 -26.4,-455.1 z m 132.2,367.8 c -41.4,128.2 -148.5,246.2 -311.8,340.4 -213.5,123.3 -497.4,191.2 -799.2,191.2 -302,0 -585.9,-67.9 -799.3,-191.2 -163.2,-94.2 -270.5,-212.2 -311.9,-340.4 -12.7,-39.6 -19.2,-80 -19.2,-121 0,-125.5 60.9,-245.6 174.7,-349 5.2,-4.8 10.4,-9.4 15.9,-14 40.7,-35.1 87.7,-68 140.5,-98.5 26.8,-15.4 54.6,-30.1 83.4,-43.7 5.3,-2.5 10.6,-5 15.9,-7.3 69.5,-31.9 144.7,-58.6 224,-79.8 5.3,-1.4 10.6,-2.9 15.8,-4.2 71.7,-18.4 146.7,-32.5 224,-41.9 5.3,-0.7 10.5,-1.4 15.8,-1.9 71.8,-8.2 145.5,-12.3 220.4,-12.3 h 3.6 c 5.3,0 10.6,0 15.9,0.1 76.2,0.7 151.1,5.7 223.9,15 5.3,0.6 10.6,1.3 15.9,2.1 77.4,10.3 152.4,25.5 224,45.1 5.4,1.4 10.6,2.9 15.9,4.5 79.5,22.5 154.7,50.8 223.9,84.2 5.3,2.4 10.6,5 15.8,7.7 20.7,10.3 40.8,21.1 60.3,32.4 63.2,36.4 118,76.5 163.8,119.3 5.4,5 10.7,10.1 15.8,15.3 98.8,98.2 151.5,210.2 151.5,326.9 0,41 -6.6,81.4 -19.3,121" style="fill:#ff9d4d;fill-opacity:1;fill-rule:nonzero;stroke:none" id="path2396" transform="matrix(0.133333, 0, 0, -0.133333, 0, 5287.013184)"/>
  <path d="m 13260.7,15928.8 121.9,-70.4 c -2.8,-1.3 -5.5,-2.7 -8.2,-4.3 l -66.8,-38.6 -113.9,65.8 37.6,21.7 c 13.5,7.7 23.3,16.4 29.4,25.8" style="fill:#d1975d;fill-opacity:1;fill-rule:nonzero;stroke:none" id="path2398" transform="matrix(0.133333, 0, 0, -0.133333, 0, 5287.013184)"/>
  <path d="m 12983.2,15975.6 15.8,9.2 7.8,4.4 v 0 l 43.9,25.3 c 2.5,1.5 5.3,2.6 8,3.9 8.9,4.3 18.3,8 28.6,10.5 14.2,3.4 29.7,4.9 46.4,4.6 31.6,-0.6 61.4,-8.7 89.3,-24.4 l 2.1,-1.2 c 5,-2.9 9.6,-5.8 13.8,-8.9 20,-14.3 29.8,-29.5 29.5,-45.7 -0.1,-8.7 -2.7,-16.9 -7.7,-24.6 -4.9,-7.5 -12.2,-14.6 -21.8,-21 -2.4,-1.6 -4.9,-3.2 -7.5,-4.7 l -8.4,-4.8 -29.3,-16.9 -90.7,-52.5 h -0.1 l -24.7,-14.3 -39,-22.4 -21.6,12.4 -24.2,14 -10.2,5.9 -45.7,26.4 -85.2,49.2 23.6,13.7 40.1,23.1 v 0 z m 391.2,-121.4 c 2.7,1.5 5.4,2.9 8.1,4.2 10.4,5 21.9,8.8 34.2,11.1 14.9,2.9 30.3,4 46.1,3.4 l 2.5,-0.1 c 4.5,-0.2 8.9,-0.6 13.4,-1 12.2,-1.3 24.5,-3.5 36.7,-6.8 16.7,-4.4 31.7,-10.5 44.9,-18.1 13.2,-7.7 23.3,-16.3 30.3,-25.9 7,-9.7 10.6,-19.5 11,-29.3 0.3,-9.8 -2.8,-19.5 -9.4,-28.9 -4,-5.8 -9.3,-11.2 -15.8,-16.2 -3.2,-2.6 -6.9,-5 -10.7,-7.4 -1.1,-0.7 -2.1,-1.4 -3.3,-2 l -57.5,-33.2 -2,-1.2 -24.2,-14 -15.9,-9.1 -50.7,-29.3 -63.8,-36.8 -195.3,112.7 20.9,12 42.9,24.8 v 0 l 6.2,3.6 15.9,9.2 68.7,39.6 z m 250.7,-222 v 0 l 124.8,-72 74.7,43 -125.2,72.3 c 1.1,0.7 2.2,1.4 3.3,2.2 5.5,3.4 10.8,6.9 15.9,10.5 17.7,12.5 33,25.5 45.9,39 20.6,21.5 33.8,43.2 39.7,65.2 5.9,21.9 3.3,43.2 -7.9,64.1 -11.1,21 -32.3,40.5 -63.6,58.6 -4.7,2.7 -9.4,5.3 -14.1,7.7 -5.3,2.8 -10.5,5.3 -15.9,7.8 -40.3,18.6 -83.2,29.7 -128.8,33.3 -32,2.5 -63.7,1.5 -95.2,-2.8 -5.3,-0.7 -10.6,-1.6 -15.9,-2.5 -19.1,-3.4 -38.2,-8.1 -57,-14 19.4,28.9 22.4,57.7 8.9,86.5 -13.7,28.8 -38.5,53.6 -74.7,74.5 -23,13.2 -49.8,24.1 -80.5,32.6 -30.6,8.3 -62.1,13.5 -94.5,15.3 -32.3,1.8 -64.5,-0.1 -96.6,-5.7 -32,-5.7 -60.9,-15.9 -86.7,-30.8 l -23.5,-13.6 -120.3,69.5 -74.6,-43.1 120.2,-69.4 -90.7,-52.5 -120.3,69.5 -74.6,-43.1 120.2,-69.4 -133.2,-77 158.5,-91.5 15.8,-9.1 224,-129.3 15.8,-9.2 224,-129.3 15.9,-9.2 87.5,-50.5 133.3,76.9 v 0 l 124.8,-72.1 74.6,43.1 -124.8,72.1 v 0 l 90.8,52.4" style="fill:#ff9d4d;fill-opacity:1;fill-rule:nonzero;stroke:none" id="path2400" transform="matrix(0.133333, 0, 0, -0.133333, 0, 5287.013184)"/>
  <path d="m 12073.5,15483.7 v -261.8 c -5.6,7 -10.8,14 -15.9,21.1 v 261.9 c 5.1,-7.1 10.4,-14.2 15.9,-21.2" style="fill:#ffe840;fill-opacity:1;fill-rule:nonzero;stroke:none" id="path2402" transform="matrix(0.133333, 0, 0, -0.133333, 0, 5287.013184)"/>
  <path d="m 12279.6,15310.1 v -261.9 c -5.4,3.3 -10.7,6.5 -15.9,9.8 v 261.9 c 5.2,-3.3 10.5,-6.6 15.9,-9.8" style="fill:#ffe840;fill-opacity:1;fill-rule:nonzero;stroke:none" id="path2404" transform="matrix(0.133333, 0, 0, -0.133333, 0, 5287.013184)"/>
  <path d="m 12519.4,15195.2 v -262 c -5.3,2 -10.7,4 -15.9,6 v 261.9 c 5.2,-2 10.6,-4 15.9,-5.9" style="fill:#ffe840;fill-opacity:1;fill-rule:nonzero;stroke:none" id="path2406" transform="matrix(0.133333, 0, 0, -0.133333, 0, 5287.013184)"/>
  <path d="m 12759.2,15125.1 v -261.8 c -5.2,1.1 -10.5,2.3 -15.8,3.5 v 262 c 5.3,-1.3 10.6,-2.5 15.8,-3.7" style="fill:#ffe840;fill-opacity:1;fill-rule:nonzero;stroke:none" id="path2408" transform="matrix(0.133333, 0, 0, -0.133333, 0, 5287.013184)"/>
  <path d="m 12999,15087.4 v -261.8 c -5.3,0.4 -10.5,1 -15.8,1.6 v 261.8 c 5.3,-0.5 10.5,-1.1 15.8,-1.6" style="fill:#ffe840;fill-opacity:1;fill-rule:nonzero;stroke:none" id="path2410" transform="matrix(0.133333, 0, 0, -0.133333, 0, 5287.013184)"/>
  <path d="m 13238.9,15076.7 v -261.9 c -5.3,-0.1 -10.6,-0.2 -15.9,-0.2 v 261.9 c 5.3,0 10.6,0.1 15.9,0.2" style="fill:#ffe840;fill-opacity:1;fill-rule:nonzero;stroke:none" id="path2412" transform="matrix(0.133333, 0, 0, -0.133333, 0, 5287.013184)"/>
  <path d="m 13478.7,15091.6 v -261.8 c -5.3,-0.7 -10.6,-1.3 -15.9,-1.8 v 261.8 c 5.3,0.5 10.6,1.2 15.9,1.8" style="fill:#ffe840;fill-opacity:1;fill-rule:nonzero;stroke:none" id="path2414" transform="matrix(0.133333, 0, 0, -0.133333, 0, 5287.013184)"/>
  <path d="m 13718.6,15134.2 v -261.9 c -5.3,-1.4 -10.6,-2.6 -15.9,-3.8 v 261.9 c 5.3,1.3 10.6,2.5 15.9,3.8" style="fill:#ffe840;fill-opacity:1;fill-rule:nonzero;stroke:none" id="path2416" transform="matrix(0.133333, 0, 0, -0.133333, 0, 5287.013184)"/>
  <path d="m 13958.3,15210.2 v -261.9 c -5.2,-2.1 -10.5,-4.2 -15.8,-6.2 v 261.9 c 5.3,2 10.6,4.1 15.8,6.2" style="fill:#ffe840;fill-opacity:1;fill-rule:nonzero;stroke:none" id="path2418" transform="matrix(0.133333, 0, 0, -0.133333, 0, 5287.013184)"/>
  <path d="m 14198.2,15335 v -261.9 c -5.2,-3.5 -10.5,-6.9 -15.8,-10.4 v 261.9 c 5.3,3.4 10.6,6.9 15.8,10.4" style="fill:#ffe840;fill-opacity:1;fill-rule:nonzero;stroke:none" id="path2420" transform="matrix(0.133333, 0, 0, -0.133333, 0, 5287.013184)"/>
  <path d="m 14411,15546.1 v -261.9 c -5,-8.2 -10.4,-16.3 -16,-24.4 v 261.8 c 5.6,8.1 10.9,16.3 16,24.5" style="fill:#ffe840;fill-opacity:1;fill-rule:nonzero;stroke:none" id="path2422" transform="matrix(0.133333, 0, 0, -0.133333, 0, 5287.013184)"/>
  <path d="m 14230.7,14499 -574,-331.4 c -24.2,-14 -89.4,-11.3 -117.3,4.9 l -191.7,110.6 c -12.9,7.5 -14,16.1 -2.8,22.6 l 574.1,331.4 c 24.2,14 89.3,11.3 117.3,-4.8 l 191.6,-110.7 c 13,-7.5 14.1,-16.1 2.8,-22.6" style="fill:#ffffff;fill-opacity:1;fill-rule:nonzero;stroke:none" id="path2424" transform="matrix(0.133333, 0, 0, -0.133333, 0, 5287.013184)"/>
  <path d="m 15204.4,15054.5 -574,-331.4 c -24.2,-14 -89.4,-11.3 -117.3,4.8 l -191.7,110.7 c -13,7.5 -14,16.1 -2.8,22.6 l 574,331.4 c 24.2,14 89.4,11.3 117.3,-4.9 l 191.7,-110.6 c 13,-7.5 14,-16.1 2.8,-22.6" style="fill:#ffffff;fill-opacity:1;fill-rule:nonzero;stroke:none" id="path2426" transform="matrix(0.133333, 0, 0, -0.133333, 0, 5287.013184)"/>
  <path d="m 15233.6,17228.3 -1455.9,-840.6 c -14.4,-8.3 -53.1,-6.7 -69.7,2.9 l -199.6,115.2 c -7.7,4.5 -8.3,9.6 -1.7,13.4 l 1456,840.6 c 14.4,8.3 53.1,6.7 69.7,-2.8 l 199.6,-115.3 c 7.7,-4.4 8.3,-9.5 1.6,-13.4" style="fill:#ffffff;fill-opacity:1;fill-rule:nonzero;stroke:none" id="path2428" transform="matrix(0.133333, 0, 0, -0.133333, 0, 5287.013184)"/>
  <path d="m 16696.1,16744.2 v -289.1 h -1.4 c -5.9,-73.2 -30.4,-146.1 -73.6,-216 -4.9,-8.2 -10.3,-16.3 -15.9,-24.5 -52.1,-76 -126.7,-148.1 -223.9,-212.8 -5.2,-3.5 -10.5,-7 -15.9,-10.5 -15.5,-9.9 -31.5,-19.6 -48.2,-29.2 -55.1,-31.9 -114,-60.3 -175.8,-85.1 -5.3,-2.1 -10.6,-4.2 -15.8,-6.3 -71.4,-27.8 -146.4,-51.1 -224,-69.7 -5.3,-1.4 -10.6,-2.6 -15.8,-3.9 -72.9,-16.9 -147.9,-29.8 -224.1,-38.7 -5.2,-0.6 -10.5,-1.3 -15.8,-1.8 -73.9,-8.2 -148.9,-12.6 -223.9,-13.1 -5.3,-0.1 -10.6,-0.2 -15.9,-0.2 -75,-0.1 -149.9,3.5 -224,10.9 -5.3,0.5 -10.6,1 -15.9,1.6 -75.9,8.1 -151,20.1 -223.9,36.1 -5.3,1.2 -10.6,2.3 -15.9,3.6 -77.4,17.6 -152.5,39.8 -224,66.4 -5.3,2 -10.6,3.9 -15.8,6 -70.4,26.9 -137,58.3 -199,94.2 -8.5,4.9 -16.8,9.8 -25,14.8 -5.3,3.2 -10.6,6.5 -15.8,9.8 -94.5,59.6 -169.3,126.1 -224,196.4 -5.6,7 -10.8,14 -15.9,21.1 -57.7,80.4 -89.9,165.4 -96.8,250.9 h -1.4 v 289.1 h 76.8 c 6.7,10.7 13.8,21.3 21.4,31.8 5.1,7.2 10.4,14.2 15.9,21.2 20.1,25.9 42.9,51.2 68.5,75.9 31.2,30.2 66.5,59.4 105.8,87.3 28.1,20 58.3,39.4 90.5,58 505.2,291.7 1324.4,291.7 1829.6,0 32.2,-18.6 62.3,-37.9 90.4,-58 39.3,-27.9 74.6,-57.1 105.9,-87.3 35.9,-34.7 66.5,-70.7 91.7,-107.6 4.9,-7.1 9.6,-14.2 14.1,-21.3 h 76.8" style="fill:#ff9d4d;fill-opacity:1;fill-rule:nonzero;stroke:none" id="path2430" transform="matrix(0.133333, 0, 0, -0.133333, 0, 5287.013184)"/>
  <path d="m 15402.4,17237.2 c -331.1,0 -662.2,-73 -914.8,-218.8 -32.2,-18.6 -62.4,-38 -90.5,-58 -39.3,-27.9 -74.6,-57.1 -105.8,-87.3 -25.6,-24.7 -48.4,-50 -68.5,-75.9 -5.5,-7 -10.8,-14 -15.9,-21.2 -7.6,-10.5 -14.7,-21.1 -21.4,-31.8 h -76.8 v -289.1 h 1.4 c 6.9,-85.5 39.1,-170.5 96.8,-250.9 5.1,-7.1 10.3,-14.1 15.9,-21.1 54.7,-70.3 129.5,-136.8 224,-196.4 5.2,-3.3 10.5,-6.6 15.8,-9.8 8.2,-5 16.5,-9.9 25,-14.8 62,-35.9 128.6,-67.3 199,-94.2 5.2,-2.1 10.5,-4 15.8,-6 71.5,-26.6 146.6,-48.8 224,-66.4 5.3,-1.3 10.6,-2.4 15.9,-3.6 72.9,-16 148,-28 223.9,-36.1 5.3,-0.6 10.6,-1.1 15.9,-1.6 72.7,-7.3 146.2,-10.9 219.7,-10.9 1.4,0 2.9,0 4.3,0 5.3,0 10.6,0.1 15.9,0.2 75,0.5 150,4.9 223.9,13.1 5.3,0.5 10.6,1.2 15.8,1.8 76.2,8.9 151.2,21.8 224.1,38.7 5.3,1.3 10.5,2.5 15.8,3.9 77.6,18.6 152.6,41.9 224,69.7 5.2,2.1 10.5,4.2 15.8,6.3 61.8,24.8 120.7,53.2 175.8,85.1 16.7,9.6 32.7,19.3 48.2,29.2 5.4,3.5 10.7,7 15.9,10.5 97.2,64.7 171.8,136.8 223.9,212.8 5.6,8.2 11,16.3 15.9,24.5 43.2,69.9 67.7,142.8 73.6,216 h 1.4 v 35.1 0.1 253.9 h -76.8 c -4.5,7.1 -9.2,14.2 -14.1,21.3 -25.2,36.9 -55.8,72.9 -91.7,107.6 -31.3,30.2 -66.6,59.4 -105.9,87.3 -28.1,20.1 -58.2,39.4 -90.4,58 -252.6,145.8 -583.7,218.8 -914.8,218.8 z m 0,-15.9 c 342.8,0 664.9,-76.9 906.9,-216.6 31.5,-18.2 61.5,-37.4 89.1,-57.2 38.4,-27.2 73.4,-56.1 104.1,-85.8 34.7,-33.5 64.8,-68.9 89.7,-105.2 4.5,-6.5 8.9,-13.3 13.6,-20.7 l 4.7,-7.5 h 8.8 61 v -238.1 -19.3 h -0.2 l -1.2,-14.5 c -5.8,-71.4 -29.7,-141.7 -71.3,-209 -4.6,-7.5 -9.8,-15.5 -15.4,-23.8 -52.3,-76.1 -126.2,-146.3 -219.7,-208.6 -5.2,-3.5 -10.4,-6.9 -15.6,-10.3 -15.2,-9.7 -31.2,-19.5 -47.6,-28.9 -53.6,-31 -112,-59.3 -173.7,-84.1 -5.3,-2.1 -10.5,-4.2 -15.8,-6.2 -70,-27.4 -144.7,-50.6 -222.2,-69.2 -5.1,-1.3 -10.3,-2.5 -15.4,-3.7 -71.4,-16.6 -146.2,-29.5 -222.7,-38.5 -5,-0.6 -10.1,-1.2 -15.3,-1.7 -73.3,-8.1 -148.1,-12.5 -222.5,-13.1 -5.2,-0.1 -10.4,-0.1 -15.6,-0.1 h -4.3 c -73.2,0 -146.6,3.6 -218.4,10.8 -5.2,0.5 -10.3,1 -15.5,1.6 -75.4,8 -150.1,20 -222.2,35.8 -5.2,1.2 -10.4,2.3 -15.7,3.5 -77.5,17.7 -152.2,39.9 -222.1,65.9 l -1.8,0.7 c -4.6,1.6 -9.1,3.3 -13.9,5.2 -70,26.8 -136.2,58.1 -196.6,93.1 -8.4,4.8 -16.6,9.7 -24.7,14.6 -5.3,3.2 -10.6,6.5 -15.7,9.6 -91.2,57.7 -165.2,122.5 -220,193 -4.9,6.1 -9.9,12.8 -15.4,20.5 -55.6,77.4 -87.2,159.1 -93.9,242.9 l -1.2,14.5 h -0.2 v 257.4 h 61 8.8 l 4.7,7.5 c 6.4,10.3 13.4,20.7 20.9,31 4.6,6.6 9.6,13.3 15.4,20.7 19.6,25.2 42.1,50.1 67,74.2 31.1,30.1 66.1,58.9 104,85.8 28,19.9 58,39.2 89.2,57.2 242,139.7 564.1,216.6 906.9,216.6" style="fill:#ffe840;fill-opacity:1;fill-rule:nonzero;stroke:none" id="path2432" transform="matrix(0.133333, 0, 0, -0.133333, 0, 5287.013184)"/>
  <path d="m 16317.2,17280.3 c 505.2,-291.7 505.2,-764.7 0,-1056.4 -505.2,-291.7 -1324.4,-291.7 -1829.6,0 -505.3,291.7 -505.3,764.7 0,1056.4 505.2,291.7 1324.4,291.7 1829.6,0" style="fill:#ffe840;fill-opacity:1;fill-rule:nonzero;stroke:none" id="path2434" transform="matrix(0.133333, 0, 0, -0.133333, 0, 5287.013184)"/>
  <path d="m 16381.3,16505.3 c -5.1,-6.7 -10.4,-13.4 -15.9,-20.1 -50.8,-61.2 -120,-118.5 -207.7,-169.2 -5.4,-3.1 -10.8,-6.1 -16.3,-9.2 -5.2,-2.9 -10.5,-5.8 -15.8,-8.5 -69,-36.8 -144.3,-67.2 -224,-91.5 -5.2,-1.6 -10.6,-3.1 -15.8,-4.7 -72,-21 -147.1,-37.1 -224.1,-48.1 -5.2,-0.8 -10.4,-1.5 -15.8,-2.2 -73.6,-9.9 -148.7,-15.2 -223.9,-16 -5.3,0 -10.6,-0.1 -15.9,-0.1 -75.1,-0.1 -150.3,4.2 -224,13.2 -5.3,0.6 -10.6,1.3 -15.9,2 -76.7,9.9 -151.8,24.8 -223.9,44.6 -5.3,1.5 -10.6,2.9 -15.9,4.5 -79.3,22.7 -154.6,51.5 -224,86.3 -5.3,2.7 -10.6,5.3 -15.8,8.1 -13.4,6.9 -26.6,14.2 -39.5,21.6 -75,43.4 -136.5,91.6 -184.5,142.9 -5.4,5.8 -10.7,11.7 -15.8,17.6 -130.4,151 -147,326.7 -49.7,483.9 51.6,83.3 134.8,161.3 250,227.8 416.5,240.4 1094.1,240.4 1510.6,0 115.2,-66.5 198.5,-144.5 249.9,-227.8 91.2,-147.3 82.4,-310.8 -26.3,-455.1 z m 132.2,367.8 c -41.4,128.2 -148.6,246.2 -311.8,340.5 -213.5,123.2 -497.4,191.1 -799.3,191.1 -301.9,0 -585.8,-67.9 -799.3,-191.1 -163.2,-94.3 -270.4,-212.3 -311.8,-340.5 -12.7,-39.5 -19.3,-79.9 -19.3,-121 0,-125.4 61,-245.6 174.8,-349 5.1,-4.7 10.4,-9.4 15.8,-13.9 40.8,-35.1 87.7,-68 140.5,-98.6 26.8,-15.4 54.7,-30 83.5,-43.6 5.3,-2.5 10.5,-5 15.8,-7.4 69.6,-31.8 144.7,-58.5 224,-79.7 5.3,-1.5 10.6,-2.9 15.9,-4.3 71.7,-18.4 146.7,-32.5 223.9,-41.8 5.3,-0.7 10.6,-1.4 15.9,-2 71.8,-8.1 145.5,-12.3 220.3,-12.3 h 3.7 c 5.3,0 10.6,0.1 15.9,0.2 76.1,0.7 151,5.7 223.9,14.9 5.3,0.7 10.6,1.3 15.8,2.1 77.5,10.4 152.5,25.6 224.1,45.1 5.3,1.5 10.6,2.9 15.8,4.5 79.6,22.6 154.7,50.8 224,84.2 5.2,2.5 10.6,5.1 15.8,7.8 20.6,10.3 40.7,21 60.3,32.3 63.2,36.5 117.9,76.6 163.7,119.3 5.5,5.1 10.7,10.2 15.9,15.3 98.7,98.3 151.4,210.3 151.4,326.9 0,41.1 -6.5,81.5 -19.2,121" style="fill:#ff9d4d;fill-opacity:1;fill-rule:nonzero;stroke:none" id="path2436" transform="matrix(0.133333, 0, 0, -0.133333, 0, 5287.013184)"/>
  <path d="m 15443.8,16857.4 121.8,-70.3 c -2.7,-1.3 -5.5,-2.8 -8.1,-4.3 l -66.9,-38.6 -113.8,65.7 37.6,21.7 c 13.5,7.8 23.3,16.4 29.4,25.8" style="fill:#d1975d;fill-opacity:1;fill-rule:nonzero;stroke:none" id="path2438" transform="matrix(0.133333, 0, 0, -0.133333, 0, 5287.013184)"/>
  <path d="m 15166.2,16904.2 15.9,9.2 7.7,4.5 h 0.1 l 43.8,25.3 c 2.6,1.5 5.4,2.5 8,3.8 9,4.4 18.4,8.1 28.7,10.5 14.1,3.4 29.6,5 46.3,4.7 31.7,-0.6 61.5,-8.7 89.4,-24.5 l 2,-1.1 c 5.1,-2.9 9.7,-5.9 13.9,-8.9 19.9,-14.4 29.8,-29.6 29.5,-45.7 -0.2,-8.7 -2.7,-16.9 -7.7,-24.6 -4.9,-7.5 -12.2,-14.6 -21.8,-21.1 -2.4,-1.5 -4.9,-3.1 -7.6,-4.6 l -8.3,-4.8 -29.3,-17 -90.8,-52.4 v 0 l -24.8,-14.3 -39,-22.5 -21.6,12.5 -24.2,14 -10.2,5.9 -45.7,26.3 -85.2,49.2 23.7,13.7 40.1,23.1 h -0.1 z m 391.3,-121.4 c 2.7,1.5 5.3,3 8.1,4.3 10.4,5 21.8,8.7 34.1,11 14.9,2.9 30.4,4 46.2,3.4 h 2.5 c 4.5,-0.2 8.9,-0.6 13.4,-1 12.2,-1.3 24.5,-3.6 36.7,-6.8 16.7,-4.5 31.7,-10.5 44.9,-18.1 13.2,-7.7 23.3,-16.3 30.3,-25.9 6.9,-9.7 10.6,-19.5 10.9,-29.3 0.4,-9.9 -2.7,-19.5 -9.3,-29 -4.1,-5.7 -9.4,-11.1 -15.9,-16.2 -3.2,-2.5 -6.8,-5 -10.7,-7.4 -1.1,-0.6 -2.1,-1.3 -3.2,-2 l -57.5,-33.2 -2.1,-1.2 -24.1,-13.9 -15.9,-9.2 -50.7,-29.3 -63.8,-36.8 -195.3,112.8 20.8,12 42.9,24.8 v 0 l 6.3,3.6 15.9,9.1 68.6,39.7 z m 250.6,-221.9 v 0 l 124.9,-72.1 74.6,43.1 -125.1,72.3 c 1,0.7 2.2,1.3 3.3,2.1 5.5,3.4 10.8,7 15.8,10.5 17.7,12.5 33,25.6 46,39.1 20.5,21.5 33.8,43.2 39.6,65.1 5.9,21.9 3.3,43.3 -7.8,64.2 -11.1,20.9 -32.3,40.4 -63.7,58.5 -4.7,2.7 -9.4,5.3 -14.1,7.8 -5.2,2.7 -10.5,5.3 -15.8,7.7 -40.3,18.7 -83.2,29.8 -128.8,33.4 -32.1,2.4 -63.8,1.5 -95.2,-2.9 -5.3,-0.7 -10.6,-1.5 -15.9,-2.5 -19.2,-3.4 -38.2,-8 -57.1,-13.9 19.5,28.9 22.4,57.7 8.9,86.5 -13.6,28.7 -38.5,53.5 -74.7,74.4 -23,13.3 -49.7,24.1 -80.4,32.6 -30.6,8.4 -62.1,13.5 -94.5,15.3 -32.4,1.9 -64.6,0 -96.6,-5.7 -32.1,-5.6 -60.9,-15.8 -86.7,-30.7 l -23.5,-13.6 -120.3,69.4 -74.6,-43.1 120.2,-69.4 -90.7,-52.4 -120.3,69.4 -74.7,-43.1 120.3,-69.4 -133.2,-76.9 158.4,-91.5 15.9,-9.2 223.9,-129.3 15.9,-9.1 224,-129.4 15.9,-9.1 87.4,-50.5 133.3,76.9 v 0 l 124.9,-72.1 74.6,43.1 -124.9,72.1 h 0.1 l 90.7,52.4" style="fill:#ff9d4d;fill-opacity:1;fill-rule:nonzero;stroke:none" id="path2440" transform="matrix(0.133333, 0, 0, -0.133333, 0, 5287.013184)"/>
  <path d="m 14256.5,16412.3 v -261.8 c -5.5,7.1 -10.7,14.1 -15.8,21.2 v 261.8 c 5.1,-7.1 10.3,-14.2 15.8,-21.2" style="fill:#ffe840;fill-opacity:1;fill-rule:nonzero;stroke:none" id="path2442" transform="matrix(0.133333, 0, 0, -0.133333, 0, 5287.013184)"/>
  <path d="m 14462.6,16238.7 v -261.8 c -5.3,3.2 -10.6,6.5 -15.8,9.8 v 261.9 c 5.2,-3.3 10.5,-6.6 15.8,-9.9" style="fill:#ffe840;fill-opacity:1;fill-rule:nonzero;stroke:none" id="path2444" transform="matrix(0.133333, 0, 0, -0.133333, 0, 5287.013184)"/>
  <path d="m 14702.4,16123.8 v -261.9 c -5.3,2 -10.6,3.9 -15.8,6 v 261.9 c 5.2,-2.1 10.5,-4.1 15.8,-6" style="fill:#ffe840;fill-opacity:1;fill-rule:nonzero;stroke:none" id="path2446" transform="matrix(0.133333, 0, 0, -0.133333, 0, 5287.013184)"/>
  <path d="m 14942.3,16053.8 v -261.9 c -5.3,1.2 -10.6,2.3 -15.9,3.6 v 261.9 c 5.3,-1.2 10.6,-2.4 15.9,-3.6" style="fill:#ffe840;fill-opacity:1;fill-rule:nonzero;stroke:none" id="path2448" transform="matrix(0.133333, 0, 0, -0.133333, 0, 5287.013184)"/>
  <path d="m 15182.1,16016.1 v -261.9 c -5.3,0.5 -10.6,1 -15.9,1.6 v 261.9 c 5.3,-0.6 10.6,-1.2 15.9,-1.6" style="fill:#ffe840;fill-opacity:1;fill-rule:nonzero;stroke:none" id="path2450" transform="matrix(0.133333, 0, 0, -0.133333, 0, 5287.013184)"/>
  <path d="m 15422,16005.3 v -261.8 c -5.3,-0.1 -10.6,-0.2 -15.9,-0.2 v 261.9 c 5.3,0 10.6,0 15.9,0.1" style="fill:#ffe840;fill-opacity:1;fill-rule:nonzero;stroke:none" id="path2452" transform="matrix(0.133333, 0, 0, -0.133333, 0, 5287.013184)"/>
  <path d="m 15661.7,16020.3 v -261.9 c -5.2,-0.6 -10.5,-1.3 -15.8,-1.8 v 261.9 c 5.3,0.5 10.6,1.1 15.8,1.8" style="fill:#ffe840;fill-opacity:1;fill-rule:nonzero;stroke:none" id="path2454" transform="matrix(0.133333, 0, 0, -0.133333, 0, 5287.013184)"/>
  <path d="M 15901.6,16062.8 V 15801 c -5.3,-1.4 -10.6,-2.6 -15.8,-3.9 v 262 c 5.2,1.2 10.5,2.4 15.8,3.7" style="fill:#ffe840;fill-opacity:1;fill-rule:nonzero;stroke:none" id="path2456" transform="matrix(0.133333, 0, 0, -0.133333, 0, 5287.013184)"/>
  <path d="M 16141.4,16138.8 V 15877 c -5.3,-2.1 -10.6,-4.2 -15.8,-6.3 v 262 c 5.2,1.9 10.5,4 15.8,6.1" style="fill:#ffe840;fill-opacity:1;fill-rule:nonzero;stroke:none" id="path2458" transform="matrix(0.133333, 0, 0, -0.133333, 0, 5287.013184)"/>
  <path d="m 16381.3,16263.6 v -261.8 c -5.2,-3.5 -10.5,-7 -15.9,-10.5 v 262 c 5.4,3.4 10.7,6.9 15.9,10.3" style="fill:#ffe840;fill-opacity:1;fill-rule:nonzero;stroke:none" id="path2460" transform="matrix(0.133333, 0, 0, -0.133333, 0, 5287.013184)"/>
  <path d="m 16594,16474.7 v -261.8 c -5,-8.2 -10.3,-16.4 -15.9,-24.5 v 261.9 c 5.6,8.1 10.8,16.3 15.9,24.4" style="fill:#ffe840;fill-opacity:1;fill-rule:nonzero;stroke:none" id="path2462" transform="matrix(0.133333, 0, 0, -0.133333, 0, 5287.013184)"/>
  <path d="m 15468.7,16667.9 v -289 h -1.4 c -5.9,-73.3 -30.5,-146.1 -73.6,-216 -5,-8.2 -10.4,-16.4 -15.9,-24.5 -52.2,-76 -126.8,-148.1 -224,-212.9 -5.2,-3.4 -10.5,-6.9 -15.8,-10.4 -15.5,-9.9 -31.6,-19.7 -48.2,-29.3 -55.1,-31.8 -114,-60.2 -175.8,-85.1 -5.3,-2.1 -10.6,-4.2 -15.9,-6.2 -71.3,-27.9 -146.4,-51.2 -223.9,-69.8 -5.3,-1.3 -10.6,-2.6 -15.9,-3.8 -72.8,-16.9 -147.9,-29.8 -224,-38.7 -5.3,-0.7 -10.6,-1.3 -15.8,-1.8 -74,-8.2 -149,-12.6 -224,-13.2 -5.3,-0.1 -10.6,-0.1 -15.8,-0.1 -75,-0.2 -150,3.4 -224.1,10.9 -5.2,0.4 -10.5,1 -15.8,1.6 -76,8 -151,20.1 -224,36.1 -5.2,1.1 -10.5,2.3 -15.8,3.5 -77.4,17.7 -152.5,39.8 -224,66.5 -5.3,1.9 -10.7,3.9 -15.9,6 -70.3,26.9 -136.9,58.3 -199,94.1 -8.4,4.9 -16.7,9.8 -24.9,14.8 -5.4,3.3 -10.7,6.5 -15.9,9.8 -94.5,59.7 -169.2,126.1 -224,196.5 -5.6,7 -10.8,14 -15.8,21.1 -57.7,80.3 -90,165.3 -96.8,250.9 h -1.5 v 289 h 76.9 c 6.6,10.7 13.8,21.4 21.4,31.9 5,7.1 10.3,14.1 15.8,21.2 20.1,25.9 43,51.2 68.5,75.9 31.3,30.1 66.5,59.4 105.9,87.3 28.1,20 58.2,39.4 90.4,58 505.3,291.6 1324.4,291.6 1829.7,0 32.2,-18.6 62.3,-38 90.4,-58 39.3,-27.9 74.6,-57.1 105.8,-87.3 35.9,-34.7 66.5,-70.7 91.8,-107.6 4.9,-7.1 9.5,-14.2 14,-21.4 h 76.9" style="fill:#ff9d4d;fill-opacity:1;fill-rule:nonzero;stroke:none" id="path2464" transform="matrix(0.133333, 0, 0, -0.133333, 0, 5287.013184)"/>
  <path d="m 14174.9,17160.9 c -331.1,0 -662.2,-72.9 -914.8,-218.7 -32.2,-18.6 -62.3,-38 -90.4,-58 -39.4,-27.9 -74.6,-57.2 -105.9,-87.3 -25.5,-24.7 -48.4,-50 -68.5,-75.9 -5.5,-7.1 -10.8,-14.1 -15.8,-21.2 -7.6,-10.5 -14.8,-21.2 -21.4,-31.9 h -76.9 v -289 h 1.5 c 6.8,-85.6 39.1,-170.6 96.8,-250.9 5,-7.1 10.2,-14.1 15.8,-21.1 54.8,-70.4 129.5,-136.8 224,-196.5 5.2,-3.2 10.5,-6.5 15.9,-9.8 8.2,-5 16.5,-9.9 24.9,-14.8 62.1,-35.8 128.7,-67.2 199,-94.1 5.2,-2.1 10.6,-4.1 15.9,-6 71.5,-26.7 146.6,-48.8 224,-66.5 5.3,-1.2 10.6,-2.4 15.8,-3.5 73,-16 148,-28.1 224,-36.1 5.3,-0.6 10.6,-1.2 15.8,-1.6 72.7,-7.3 146.2,-10.9 219.7,-10.9 1.4,0 2.9,0 4.4,0 5.2,0 10.5,0 15.8,0.1 75,0.6 150,5 224,13.2 5.2,0.5 10.5,1.1 15.8,1.8 76.1,8.9 151.2,21.8 224,38.7 5.3,1.2 10.6,2.5 15.9,3.8 77.5,18.6 152.6,41.9 223.9,69.8 5.3,2 10.6,4.1 15.9,6.2 61.8,24.9 120.7,53.3 175.8,85.1 16.6,9.6 32.7,19.4 48.2,29.3 5.3,3.5 10.6,7 15.8,10.4 97.2,64.8 171.8,136.9 224,212.9 5.5,8.1 10.9,16.3 15.9,24.5 43.1,69.9 67.7,142.7 73.6,216 h 1.4 v 35 0.1 253.9 h -76.9 c -4.5,7.2 -9.1,14.3 -14,21.4 -25.3,36.9 -55.9,72.9 -91.8,107.6 -31.2,30.2 -66.5,59.4 -105.8,87.3 -28.1,20 -58.2,39.4 -90.4,58 -252.6,145.8 -583.8,218.7 -914.9,218.7 z m 0,-15.8 c 342.9,0 665,-77 907,-216.7 31.4,-18.1 61.4,-37.4 89.1,-57.1 38.4,-27.3 73.3,-56.2 104,-85.8 34.7,-33.5 64.9,-68.9 89.8,-105.3 4.4,-6.4 8.9,-13.2 13.6,-20.7 l 4.6,-7.4 h 8.8 61 v -238.2 -19.2 h -0.1 l -1.2,-14.6 c -5.8,-71.3 -29.8,-141.6 -71.3,-209 -4.6,-7.4 -9.8,-15.4 -15.5,-23.7 -52.2,-76.1 -126.1,-146.3 -219.7,-208.7 -5.1,-3.4 -10.3,-6.9 -15.6,-10.2 -15.2,-9.8 -31.2,-19.5 -47.5,-29 -53.6,-30.9 -112.1,-59.2 -173.8,-84.1 l -0.6,-0.2 c -5,-2 -10,-4 -15.2,-5.9 -70,-27.4 -144.6,-50.6 -222.1,-69.2 -5.2,-1.4 -10.3,-2.6 -15.5,-3.8 -71.3,-16.5 -146.1,-29.5 -222.3,-38.4 -5.2,-0.6 -10.3,-1.2 -15.7,-1.8 -73.3,-8.1 -148.1,-12.5 -222.4,-13 -5.2,-0.1 -10.4,-0.2 -15.7,-0.2 h -4.3 c -73.1,0 -146.5,3.7 -218.4,10.9 -5.1,0.4 -10.2,1 -15.4,1.6 -75.4,7.9 -150.2,20 -222.3,35.8 -5.2,1.1 -10.4,2.3 -15.7,3.5 -77.5,17.7 -152.2,39.8 -222,65.8 l -1.7,0.7 c -4.6,1.7 -9.2,3.4 -14,5.3 -70,26.8 -136.2,58.1 -196.7,93 -8.4,4.9 -16.6,9.7 -24.7,14.7 -5.3,3.2 -10.5,6.4 -15.6,9.6 -91.2,57.6 -165.2,122.5 -220.1,192.9 -4.9,6.2 -9.9,12.9 -15.4,20.5 -55.5,77.4 -87.1,159.1 -93.8,242.9 l -1.2,14.6 h -0.2 v 257.4 h 61 8.8 l 4.6,7.5 c 6.4,10.2 13.4,20.6 20.9,31 4.6,6.5 9.6,13.3 15.4,20.6 19.6,25.2 42.2,50.2 67,74.3 31.2,30 66.2,58.9 104.1,85.8 28,19.9 58,39.1 89.2,57.1 241.9,139.7 564,216.7 906.8,216.7" style="fill:#ffe840;fill-opacity:1;fill-rule:nonzero;stroke:none" id="path2466" transform="matrix(0.133333, 0, 0, -0.133333, 0, 5287.013184)"/>
  <path d="m 15089.8,17204 c 505.2,-291.7 505.2,-764.6 0,-1056.3 -505.3,-291.7 -1324.4,-291.7 -1829.7,0 -505.2,291.7 -505.2,764.6 0,1056.3 505.3,291.7 1324.4,291.7 1829.7,0" style="fill:#ffe840;fill-opacity:1;fill-rule:nonzero;stroke:none" id="path2468" transform="matrix(0.133333, 0, 0, -0.133333, 0, 5287.013184)"/>
  <path d="m 15153.8,16429.1 c -5,-6.8 -10.3,-13.5 -15.8,-20.1 -50.8,-61.3 -120.1,-118.6 -207.8,-169.2 -5.3,-3.1 -10.7,-6.2 -16.2,-9.2 -5.2,-2.9 -10.5,-5.8 -15.9,-8.5 -68.9,-36.8 -144.3,-67.3 -223.9,-91.5 -5.2,-1.6 -10.6,-3.2 -15.9,-4.7 -71.9,-21.1 -147.1,-37.1 -224,-48.1 -5.2,-0.8 -10.5,-1.6 -15.8,-2.2 -73.6,-9.9 -148.7,-15.3 -224,-16 -5.3,-0.1 -10.6,-0.1 -15.8,-0.1 -75.2,-0.2 -150.3,4.2 -224.1,13.1 -5.2,0.7 -10.6,1.3 -15.8,2.1 -76.7,9.9 -151.9,24.8 -224,44.6 -5.2,1.5 -10.6,2.9 -15.8,4.4 -79.3,22.7 -154.6,51.5 -224,86.3 -5.4,2.7 -10.7,5.4 -15.9,8.1 -13.4,7 -26.5,14.2 -39.4,21.7 -75,43.3 -136.5,91.5 -184.5,142.8 -5.4,5.9 -10.7,11.7 -15.9,17.7 -130.4,151 -146.9,326.7 -49.6,483.9 51.5,83.2 134.8,161.2 250,227.7 416.4,240.5 1094.1,240.5 1510.5,0 115.2,-66.5 198.5,-144.5 250,-227.7 91.1,-147.3 82.4,-310.9 -26.4,-455.1 z m 132.2,367.8 c -41.4,128.2 -148.5,246.2 -311.8,340.4 -213.5,123.3 -497.4,191.2 -799.2,191.2 -302,0 -585.8,-67.9 -799.3,-191.2 -163.2,-94.2 -270.5,-212.2 -311.9,-340.4 -12.7,-39.5 -19.2,-80 -19.2,-121 0,-125.5 60.9,-245.6 174.7,-349 5.2,-4.8 10.5,-9.4 15.9,-14 40.7,-35.1 87.7,-68 140.5,-98.5 26.8,-15.4 54.6,-30 83.4,-43.6 5.3,-2.6 10.6,-5 15.9,-7.4 69.5,-31.9 144.7,-58.6 224,-79.8 5.3,-1.4 10.6,-2.9 15.8,-4.2 71.8,-18.4 146.7,-32.5 224,-41.9 5.3,-0.7 10.6,-1.3 15.8,-1.9 71.8,-8.2 145.6,-12.3 220.4,-12.3 h 3.7 c 5.2,0 10.5,0.1 15.8,0.1 76.2,0.8 151.1,5.8 224,15 5.2,0.7 10.5,1.3 15.8,2.1 77.4,10.4 152.5,25.6 224,45.1 5.4,1.4 10.7,2.9 15.9,4.5 79.6,22.5 154.7,50.8 223.9,84.2 5.3,2.5 10.7,5.1 15.9,7.7 20.6,10.3 40.7,21.1 60.2,32.4 63.2,36.4 118,76.5 163.8,119.3 5.4,5.1 10.7,10.1 15.8,15.3 98.8,98.2 151.5,210.2 151.5,326.9 0,41 -6.5,81.5 -19.3,121" style="fill:#ff9d4d;fill-opacity:1;fill-rule:nonzero;stroke:none" id="path2470" transform="matrix(0.133333, 0, 0, -0.133333, 0, 5287.013184)"/>
  <path d="m 14216.3,16781.2 121.9,-70.4 c -2.8,-1.3 -5.5,-2.7 -8.2,-4.2 l -66.8,-38.6 -113.8,65.7 37.6,21.7 c 13.4,7.8 23.2,16.4 29.3,25.8" style="fill:#d1975d;fill-opacity:1;fill-rule:nonzero;stroke:none" id="path2472" transform="matrix(0.133333, 0, 0, -0.133333, 0, 5287.013184)"/>
  <path d="m 13938.8,16828 15.8,9.2 7.8,4.4 v 0 l 43.9,25.4 c 2.5,1.4 5.3,2.5 8,3.8 8.9,4.3 18.3,8 28.6,10.5 14.2,3.4 29.7,4.9 46.4,4.6 31.6,-0.5 61.4,-8.6 89.4,-24.4 l 2,-1.2 c 5.1,-2.9 9.6,-5.8 13.8,-8.9 20,-14.3 29.8,-29.5 29.5,-45.6 -0.1,-8.8 -2.6,-17 -7.6,-24.6 -5,-7.6 -12.3,-14.6 -21.9,-21.1 -2.4,-1.6 -4.8,-3.2 -7.5,-4.7 l -8.3,-4.8 -29.3,-16.9 -90.8,-52.4 v 0 l -24.8,-14.3 -39,-22.5 -21.6,12.5 -24.2,13.9 -10.2,5.9 -45.7,26.4 -85.2,49.2 23.6,13.7 40.1,23.1 v 0 z m 391.2,-121.4 c 2.7,1.5 5.4,2.9 8.1,4.2 10.5,5 21.9,8.8 34.2,11.1 14.9,2.9 30.3,4 46.2,3.4 l 2.4,-0.1 c 4.5,-0.2 8.9,-0.5 13.4,-1 12.2,-1.3 24.5,-3.5 36.8,-6.8 16.6,-4.4 31.7,-10.5 44.8,-18.1 13.3,-7.6 23.3,-16.3 30.3,-25.9 7,-9.7 10.6,-19.4 11,-29.3 0.3,-9.8 -2.8,-19.4 -9.4,-28.9 -4,-5.7 -9.3,-11.2 -15.8,-16.2 -3.2,-2.6 -6.9,-5 -10.7,-7.4 -1.1,-0.7 -2.1,-1.4 -3.3,-2 l -57.5,-33.2 -2,-1.2 -24.2,-14 -15.8,-9.1 -50.8,-29.3 -63.8,-36.8 -195.2,112.7 20.8,12.1 42.9,24.7 v 0 l 6.3,3.7 15.8,9.1 68.7,39.6 z m 250.7,-222 v 0 l 124.8,-72 74.7,43.1 -125.2,72.2 c 1.1,0.7 2.2,1.4 3.3,2.2 5.5,3.4 10.8,6.9 15.9,10.5 17.7,12.5 33,25.5 45.9,39 20.6,21.5 33.8,43.2 39.7,65.2 5.9,21.9 3.3,43.2 -7.8,64.2 -11.2,20.9 -32.4,40.4 -63.7,58.5 -4.7,2.7 -9.4,5.3 -14.1,7.7 -5.2,2.8 -10.5,5.3 -15.9,7.8 -40.3,18.6 -83.2,29.7 -128.8,33.3 -32,2.5 -63.7,1.6 -95.2,-2.8 -5.3,-0.7 -10.6,-1.6 -15.8,-2.5 -19.2,-3.4 -38.3,-8.1 -57.1,-14 19.4,29 22.4,57.8 8.9,86.6 -13.6,28.7 -38.5,53.5 -74.7,74.4 -23,13.2 -49.8,24.1 -80.5,32.6 -30.6,8.4 -62.1,13.5 -94.5,15.3 -32.3,1.8 -64.5,-0.1 -96.6,-5.7 -32,-5.6 -60.9,-15.9 -86.7,-30.8 l -23.5,-13.6 -120.2,69.5 -74.7,-43.1 120.3,-69.4 -90.8,-52.5 -120.3,69.5 -74.6,-43.1 120.2,-69.4 -133.2,-76.9 158.5,-91.6 15.8,-9.1 224,-129.3 15.8,-9.2 224.1,-129.3 15.8,-9.2 87.5,-50.5 133.3,76.9 v 0 l 124.8,-72 74.6,43.1 -124.8,72 v 0.1 l 90.8,52.3" style="fill:#ff9d4d;fill-opacity:1;fill-rule:nonzero;stroke:none" id="path2474" transform="matrix(0.133333, 0, 0, -0.133333, 0, 5287.013184)"/>
  <path d="m 13029.1,16336.1 v -261.8 c -5.6,7 -10.8,14 -15.9,21.1 v 261.9 c 5.1,-7.1 10.4,-14.2 15.9,-21.2" style="fill:#ffe840;fill-opacity:1;fill-rule:nonzero;stroke:none" id="path2476" transform="matrix(0.133333, 0, 0, -0.133333, 0, 5287.013184)"/>
  <path d="m 13235.2,16162.5 v -261.9 c -5.4,3.3 -10.7,6.5 -15.9,9.8 v 261.9 c 5.2,-3.3 10.5,-6.5 15.9,-9.8" style="fill:#ffe840;fill-opacity:1;fill-rule:nonzero;stroke:none" id="path2478" transform="matrix(0.133333, 0, 0, -0.133333, 0, 5287.013184)"/>
  <path d="m 13475,16047.6 v -261.9 c -5.3,1.9 -10.7,3.9 -15.9,6 v 261.8 c 5.2,-2 10.6,-4 15.9,-5.9" style="fill:#ffe840;fill-opacity:1;fill-rule:nonzero;stroke:none" id="path2480" transform="matrix(0.133333, 0, 0, -0.133333, 0, 5287.013184)"/>
  <path d="m 13714.8,15977.6 v -261.9 c -5.2,1.1 -10.5,2.3 -15.8,3.5 v 262 c 5.3,-1.3 10.6,-2.5 15.8,-3.6" style="fill:#ffe840;fill-opacity:1;fill-rule:nonzero;stroke:none" id="path2482" transform="matrix(0.133333, 0, 0, -0.133333, 0, 5287.013184)"/>
  <path d="M 13954.6,15939.9 V 15678 c -5.2,0.4 -10.5,1 -15.8,1.6 v 261.9 c 5.3,-0.6 10.6,-1.2 15.8,-1.6" style="fill:#ffe840;fill-opacity:1;fill-rule:nonzero;stroke:none" id="path2484" transform="matrix(0.133333, 0, 0, -0.133333, 0, 5287.013184)"/>
  <path d="m 14194.5,15929.1 v -261.9 c -5.3,-0.1 -10.6,-0.1 -15.8,-0.1 v 261.8 c 5.2,0 10.5,0.1 15.8,0.2" style="fill:#ffe840;fill-opacity:1;fill-rule:nonzero;stroke:none" id="path2486" transform="matrix(0.133333, 0, 0, -0.133333, 0, 5287.013184)"/>
  <path d="m 14434.3,15944.1 v -261.9 c -5.3,-0.7 -10.6,-1.3 -15.8,-1.8 v 261.8 c 5.2,0.6 10.5,1.2 15.8,1.9" style="fill:#ffe840;fill-opacity:1;fill-rule:nonzero;stroke:none" id="path2488" transform="matrix(0.133333, 0, 0, -0.133333, 0, 5287.013184)"/>
  <path d="m 14674.2,15986.6 v -261.9 c -5.3,-1.3 -10.6,-2.6 -15.9,-3.8 v 261.9 c 5.3,1.3 10.6,2.5 15.9,3.8" style="fill:#ffe840;fill-opacity:1;fill-rule:nonzero;stroke:none" id="path2490" transform="matrix(0.133333, 0, 0, -0.133333, 0, 5287.013184)"/>
  <path d="m 14914,16062.6 v -261.9 c -5.3,-2.1 -10.6,-4.2 -15.9,-6.2 v 261.9 c 5.3,2 10.6,4.1 15.9,6.2" style="fill:#ffe840;fill-opacity:1;fill-rule:nonzero;stroke:none" id="path2492" transform="matrix(0.133333, 0, 0, -0.133333, 0, 5287.013184)"/>
  <path d="m 15153.8,16187.4 v -261.9 c -5.2,-3.4 -10.5,-6.9 -15.8,-10.4 v 262 c 5.3,3.3 10.6,6.8 15.8,10.3" style="fill:#ffe840;fill-opacity:1;fill-rule:nonzero;stroke:none" id="path2494" transform="matrix(0.133333, 0, 0, -0.133333, 0, 5287.013184)"/>
  <path d="m 15366.6,16398.5 v -261.9 c -5,-8.1 -10.4,-16.3 -16,-24.4 v 261.8 c 5.6,8.1 10.9,16.3 16,24.5" style="fill:#ffe840;fill-opacity:1;fill-rule:nonzero;stroke:none" id="path2496" transform="matrix(0.133333, 0, 0, -0.133333, 0, 5287.013184)"/>
</svg>