<?xml version="1.0" encoding="utf-8"?>
<svg viewBox="1484.48 3808.361 944.073 1478.655" width="944.073" height="1478.655" xmlns="http://www.w3.org/2000/svg">
  <defs>
    <clipPath clipPathUnits="userSpaceOnUse" id="clipPath3152">
      <path d="m 11589.2,1130.3 3502,2021.9 v 7655.3 l -3502,-2021.9 z" id="path3150"/>
    </clipPath>
    <linearGradient x1="0" y1="0" x2="1" y2="0" gradientUnits="userSpaceOnUse" gradientTransform="matrix(3502.06,0,0,-3502.06,11589.2,5968.9)" spreadMethod="pad" id="linearGradient3158">
      <stop style="stop-opacity:1;stop-color:#2e256b" offset="0" id="stop3154"/>
      <stop style="stop-opacity:1;stop-color:#5a3087" offset="1" id="stop3156"/>
    </linearGradient>
    <clipPath clipPathUnits="userSpaceOnUse" id="clipPath3206">
      <path d="m 15091.2,10807.5 -432.2,259.2 -3502.1,-2022 432.3,-259.1 z" id="path3204"/>
    </clipPath>
    <linearGradient x1="0" y1="0" x2="1" y2="0" gradientUnits="userSpaceOnUse" gradientTransform="matrix(3934.35,0,0,-3934.35,11156.9,9926.1)" spreadMethod="pad" id="linearGradient3212">
      <stop style="stop-opacity:1;stop-color:#6a5ebf" offset="0" id="stop3208"/>
      <stop style="stop-opacity:1;stop-color:#6e3aa5" offset="1" id="stop3210"/>
    </linearGradient>
    <clipPath clipPathUnits="userSpaceOnUse" id="clipPath3222">
      <path d="M 11156.9,9044.7 V 1389.4 l 432.3,-259.1 v 7655.3 z" id="path3220"/>
    </clipPath>
    <linearGradient x1="0" y1="0" x2="1" y2="0" gradientUnits="userSpaceOnUse" gradientTransform="matrix(432.297,0,0,-432.297,11156.9,5087.5)" spreadMethod="pad" id="linearGradient3228">
      <stop style="stop-opacity:1;stop-color:#483ca6" offset="0" id="stop3224"/>
      <stop style="stop-opacity:1;stop-color:#59278f" offset="1" id="stop3226"/>
    </linearGradient>
    <clipPath clipPathUnits="userSpaceOnUse" id="clipPath3252">
      <path d="m 16275.5,4038.6 296.8,-1316.6 301.7,-679.4 358,-633.5 376.3,162.2 -0.3,1.1 -12.8,44.3 c -61,212.4 -130.5,422 -208.7,628.2 -78.3,206.3 -165.1,409.5 -260.6,608.5 l -199,1320.8 -547.2,-113.9 z" id="path3250"/>
    </clipPath>
    <linearGradient x1="0" y1="0" x2="1" y2="0" gradientUnits="userSpaceOnUse" gradientTransform="matrix(1332.75,0,0,-1332.75,16275.5,2791.6)" spreadMethod="pad" id="linearGradient3258">
      <stop style="stop-opacity:1;stop-color:#2e256b" offset="0" id="stop3254"/>
      <stop style="stop-opacity:1;stop-color:#5a3087" offset="1" id="stop3256"/>
    </linearGradient>
    <clipPath clipPathUnits="userSpaceOnUse" id="clipPath3268">
      <path d="m 16353.8,4019.8 317.8,-1253.8 301.5,-679.2 358,-633.8 276.9,119.4 -12.8,44.3 c -61,212.4 -130.5,422 -208.7,628.2 -78.3,206.3 -165.1,409.5 -260.6,608.5 l -199,1320.8 z" id="path3266"/>
    </clipPath>
    <linearGradient x1="0" y1="0" x2="1" y2="0" gradientUnits="userSpaceOnUse" gradientTransform="matrix(1254.23,0,0,-1254.23,16353.8,2813.6)" spreadMethod="pad" id="linearGradient3274">
      <stop style="stop-opacity:1;stop-color:#6a5ebf" offset="0" id="stop3270"/>
      <stop style="stop-opacity:1;stop-color:#6e3aa5" offset="1" id="stop3272"/>
    </linearGradient>
    <clipPath clipPathUnits="userSpaceOnUse" id="clipPath3284">
      <path d="m 15749.2,3952.1 77.4,-1420.7 255.5,-1169.7 443.1,-7.8 v 2.5 l -3.6,122.2 c -5.6,187.1 -23.1,373.6 -52.9,557.9 -30,184.5 -71.8,366.8 -125.8,546.1 l 126.4,1439.3 1.4,16.7 z" id="path3282"/>
    </clipPath>
    <linearGradient x1="0" y1="0" x2="1" y2="0" gradientUnits="userSpaceOnUse" gradientTransform="matrix(776.039,0,0,-776.039,15749.2,2696.3)" spreadMethod="pad" id="linearGradient3290">
      <stop style="stop-opacity:1;stop-color:#2e256b" offset="0" id="stop3286"/>
      <stop style="stop-opacity:1;stop-color:#5a3087" offset="1" id="stop3288"/>
    </linearGradient>
    <clipPath clipPathUnits="userSpaceOnUse" id="clipPath3300">
      <path d="m 15887.3,3952.1 77.6,-1420.7 255.5,-1169.7 304.8,-5.3 -3.6,122.2 c -5.6,187.1 -23.1,373.6 -52.9,557.9 -30,184.5 -71.8,366.8 -125.8,546.1 l 204.4,1448.7 z" id="path3298"/>
    </clipPath>
    <linearGradient x1="0" y1="0" x2="1" y2="0" gradientUnits="userSpaceOnUse" gradientTransform="matrix(660,0,0,-660,15887.3,2693.9)" spreadMethod="pad" id="linearGradient3306">
      <stop style="stop-opacity:1;stop-color:#6a5ebf" offset="0" id="stop3302"/>
      <stop style="stop-opacity:1;stop-color:#6e3aa5" offset="1" id="stop3304"/>
    </linearGradient>
    <clipPath clipPathUnits="userSpaceOnUse" id="clipPath3316">
      <path d="m 16145.1,5955.9 c -271.4,-46.6 -472.1,-313.9 -477.1,-589.2 -8.3,-466.9 -62.6,-1181.5 2.6,-1630.1 9.2,-63.3 60.8,-111.7 124.6,-116.1 l 228.6,-15.7 c 336.4,-23 525.7,171.7 842.7,286.5 v 0 c 124.8,45.2 204.4,167.6 195.2,299.9 l -128.7,800 135.6,884 c 2.6,214.5 -199.3,372.8 -407,319.2 z" id="path3314"/>
    </clipPath>
    <linearGradient x1="0" y1="0" x2="1" y2="0" gradientUnits="userSpaceOnUse" gradientTransform="matrix(1429.76,0,0,-1429.76,15638.9,4903.9)" spreadMethod="pad" id="linearGradient3322">
      <stop style="stop-opacity:1;stop-color:#2e256b" offset="0" id="stop3318"/>
      <stop style="stop-opacity:1;stop-color:#5a3087" offset="1" id="stop3320"/>
    </linearGradient>
  </defs>
  <path d="m 14706.3,2979.7 -47.3,28.4 -383.8,-221.6 -3118.3,-1397.1 63.8,-398.798 368.5,-263.5 3432,1981.398 70,443.7 -384.9,-172.5" style="fill:#dde4ed;fill-opacity:1;fill-rule:nonzero;stroke:none" id="path3142" transform="matrix(0.133333, 0, 0, -0.133333, 0, 5287.013184)"/>
  <path d="M 11156.9,1389.4 14659,3411.3 v 7655.4 l -3502.1,-2022 V 1389.4" style="fill:#7b5baa;fill-opacity:1;fill-rule:nonzero;stroke:none" id="path3144" transform="matrix(0.133333, 0, 0, -0.133333, 0, 5287.013184)"/>
  <g id="g3146" transform="matrix(0.133333, 0, 0, -0.133333, 0, 5287.013184)">
    <g id="g3148" clip-path="url(#clipPath3152)">
      <path d="m 11589.2,1130.3 3502,2021.9 v 7655.3 l -3502,-2021.9 V 1130.3" style="fill:url(#linearGradient3158);fill-opacity:1;fill-rule:nonzero;stroke:none" id="path3160"/>
    </g>
  </g>
  <path d="m 14492.6,6375.3 44.5,64.3 -226.9,128.9 c -4.3,2.5 -8.5,5 -12.9,7.3 l -0.1,0.1 v 0 c -199.7,109 -490.6,82.4 -814.5,-104.6 -602.1,-347.6 -1090.1,-1117.5 -1090.1,-1719.5 0,-252.7 86,-435.6 230.3,-537.2 v 0 0 c 21.5,-15.1 44.2,-28.4 68.1,-39.8 l 197.1,-115.3 43.5,62.8 c 161.7,-1.6 350,52.7 551.1,168.8 602,347.6 1090.1,1117.4 1090.1,1719.4 0,145.5 -28.5,267.8 -80.2,364.8" style="fill:#ff9d4d;fill-opacity:1;fill-rule:nonzero;stroke:none" id="path3162" transform="matrix(0.133333, 0, 0, -0.133333, 0, 5287.013184)"/>
  <path d="m 14026.9,6640.1 c -74.3,0 -154.2,-11.7 -238.3,-35.7 -7.7,-2.2 -15.3,-4.5 -23.1,-6.9 v 0 c -80.8,-25 -165.2,-61.2 -252.3,-109 -5.9,-3.3 -11.8,-6.6 -17.7,-10 -4.3,-2.4 -8.6,-4.8 -12.8,-7.3 -65.8,-37.9 -130.2,-81 -192.8,-128.3 -5,-3.7 -10.1,-7.6 -15.1,-11.4 -60.9,-47 -120,-98 -176.9,-152.2 -4.3,-4.2 -8.7,-8.4 -13.1,-12.6 -53.8,-52.2 -105.6,-107.4 -154.9,-164.9 -3.8,-4.5 -7.6,-9 -11.4,-13.5 -47.9,-56.6 -93.4,-115.5 -136,-175.9 -3.4,-4.7 -6.8,-9.6 -10.1,-14.4 -42.2,-60.6 -81.7,-122.9 -117.9,-186.2 -2.9,-5 -5.8,-10.1 -8.6,-15.1 -36.7,-64.9 -69.9,-130.8 -99.3,-197 -2.4,-5.4 -4.8,-10.8 -7.1,-16.1 -30.3,-69.8 -56.4,-139.8 -77.9,-209.4 -1.7,-5.7 -3.5,-11.4 -5.2,-17.2 -22.6,-75.9 -39.6,-151.3 -50.3,-225.2 -0.9,-6.2 -1.8,-12.5 -2.5,-18.7 -7.3,-54.8 -11,-108.7 -11,-161.3 0,-30.6 1.2,-60.2 3.8,-88.8 0.6,-7.2 1.3,-14.3 2.1,-21.4 21.5,-196.2 102,-340.8 224.4,-427 v 0 c 21.5,-15.1 44.2,-28.4 68.1,-39.8 l 197.1,-115.3 43.5,62.8 c 2.3,0 4.5,0 6.8,0 160.2,0 346,54.3 544.3,168.8 602,347.6 1090,1117.4 1090,1719.4 0,145.5 -28.4,267.8 -80.1,364.8 l 44.5,64.3 -226.9,128.9 c -4.3,2.5 -8.5,5 -12.9,7.3 l -0.1,0.1 c -77.5,42.3 -168.7,64.2 -270.3,64.2 z m 0,-17.5 c 98.4,0 186.5,-20.9 261.9,-62 l 1,-0.5 c 3.9,-2.2 7.7,-4.4 11.7,-6.8 l 210.4,-119.5 -33.7,-48.5 -6.1,-8.8 5.1,-9.4 c 51.8,-97.3 78.1,-217.3 78.1,-356.6 0,-595.5 -485.1,-1360 -1081.4,-1704.3 -188.6,-108.9 -373.8,-166.5 -535.5,-166.5 -2.2,0 -4.4,0.1 -6.6,0.1 l -9.3,0.1 -5.3,-7.7 -34.3,-49.5 -183.1,107.1 -0.6,0.4 -0.7,0.3 c -23,11 -45,23.9 -65.5,38.4 l -0.9,0.6 c -121.1,85.7 -195.9,228.8 -216.3,414.1 -0.8,6.8 -1.4,13.8 -2,20.9 -2.5,28 -3.7,57.3 -3.7,87.3 0,51.1 3.6,104.6 10.8,159.2 0.8,6.1 1.6,12.2 2.5,18.3 10.4,71.9 27.2,146.9 49.8,222.8 1.6,5.6 3.3,11.2 5.1,17 21,68.1 47,137.9 77.3,207.6 2.3,5.3 4.6,10.5 7,15.9 29.1,65.4 62.2,131.2 98.5,195.5 2.8,5 5.6,10 8.6,15 35.9,62.7 75.3,124.9 117.1,185 3.2,4.7 6.6,9.5 10,14.2 42.4,60.1 87.8,118.9 135,174.7 3.8,4.5 7.6,9 11.4,13.4 49,57.2 100.8,112.3 153.8,163.7 4.3,4.2 8.7,8.4 13,12.5 56.7,54.1 115.7,104.9 175.5,151 4.9,3.8 9.9,7.6 14.9,11.4 62.7,47.3 126.9,90.1 191.1,127.2 4.2,2.4 8.3,4.7 12.6,7.1 5.9,3.4 11.7,6.7 17.5,9.9 83.7,45.9 166.6,81.9 246.5,106.8 h 0.1 l 2.5,0.8 c 7.6,2.3 15.1,4.6 22.7,6.8 81.4,23.2 160,35 233.5,35" style="fill:#ffe840;fill-opacity:1;fill-rule:nonzero;stroke:none" id="path3164" transform="matrix(0.133333, 0, 0, -0.133333, 0, 5287.013184)"/>
  <path d="m 14793.8,5883 c 0,-602.1 -488.1,-1371.9 -1090.1,-1719.5 -602,-347.6 -1090.1,-141.3 -1090.1,460.8 0,602 488.1,1371.8 1090.1,1719.4 602,347.6 1090.1,141.3 1090.1,-460.7" style="fill:#ffd071;fill-opacity:1;fill-rule:nonzero;stroke:none" id="path3166" transform="matrix(0.133333, 0, 0, -0.133333, 0, 5287.013184)"/>
  <path d="m 14793.8,5883 c 0,-602.1 -488.1,-1371.9 -1090.1,-1719.5 -602,-347.6 -1090.1,-141.3 -1090.1,460.8 0,602 488.1,1371.8 1090.1,1719.4 602,347.6 1090.1,141.3 1090.1,-460.7" style="fill:#ffe840;fill-opacity:1;fill-rule:nonzero;stroke:none" id="path3168" transform="matrix(0.133333, 0, 0, -0.133333, 0, 5287.013184)"/>
  <path d="m 13731.7,6153.6 c -496.3,-286.5 -900,-923.3 -900,-1419.6 0,-496.2 403.7,-666.9 900,-380.4 496.2,286.5 899.9,923.4 899.9,1419.6 0,496.3 -403.7,666.9 -899.9,380.4 z m 0,-1852.4 c -254.4,-146.9 -493.6,-185.9 -673.5,-109.9 -179.9,76.1 -279,258 -279,512.4 0,254.4 99.1,550.8 279,834.6 179.9,283.7 419.1,520.9 673.5,667.7 254.3,146.9 493.5,185.9 673.4,109.9 179.9,-76 279,-258 279,-512.4 0,-254.4 -99.1,-550.8 -279,-834.5 -179.9,-283.8 -419.1,-520.9 -673.4,-667.8" style="fill:#ff9d4d;fill-opacity:1;fill-rule:nonzero;stroke:none" id="path3170" transform="matrix(0.133333, 0, 0, -0.133333, 0, 5287.013184)"/>
  <path d="m 13865,5414.6 v -145.1 c -3,-1.5 -6.1,-3.1 -9.3,-5 l -79.6,-46 v 135.7 l 44.8,25.9 c 16,9.2 30.7,20.7 44.1,34.5" style="fill:#d1975d;fill-opacity:1;fill-rule:nonzero;stroke:none" id="path3172" transform="matrix(0.133333, 0, 0, -0.133333, 0, 5287.013184)"/>
  <path d="m 13847,5026.8 c 6.2,3.5 12.2,7.4 18,11.7 v -295.7 l -88.9,-51.4 v 294.4 l 70.9,41" style="fill:#d1975d;fill-opacity:1;fill-rule:nonzero;stroke:none" id="path3174" transform="matrix(0.133333, 0, 0, -0.133333, 0, 5287.013184)"/>
  <path d="m 13950.3,5156.1 c -5.8,-17.5 -13.7,-34.2 -23.6,-50.3 -10,-16.2 -21.8,-31.1 -35.5,-44.8 -8.4,-8.4 -17.1,-15.9 -26.2,-22.5 -5.8,-4.3 -11.8,-8.2 -18,-11.7 l -255.1,-147.3 v 232.7 l 76,43.9 187.8,108.4 c 3.2,1.9 6.3,3.5 9.3,5 11.4,5.5 22,8.7 31.8,9.4 12.4,1 23.2,-1.3 32.4,-6.8 9.1,-5.5 16.3,-14 21.7,-25.4 5.4,-11.4 8.1,-25 8.1,-40.8 0,-15.7 -2.9,-32.3 -8.7,-49.8 z m -52.9,461 c 18.7,-9.1 28,-30.7 28,-64.7 0,-34.8 -10.1,-68.1 -30.5,-99.7 -9.1,-14.2 -19,-26.9 -29.9,-38.1 -13.4,-13.8 -28.1,-25.3 -44.1,-34.5 l -153,-88.4 -76,-43.8 v 222.7 l 236.5,136.5 c 13.2,7.7 25.4,12.4 36.6,14.2 12,2 22.8,0.6 32.4,-4.2 z m 190.4,-224.2 c -29.4,21.6 -69.5,25.2 -120.1,11 41.5,42.2 73,88.3 94.6,138.6 21.6,50.2 32.4,96.8 32.4,140 0,27.4 -4.8,51.8 -14.3,73.2 -9.6,21.5 -23.1,37.8 -40.5,48.9 -17.4,11.1 -38.6,16.1 -63.4,15 -25,-1.1 -52.7,-10.5 -83.4,-28.3 l -28.1,-16.2 v 143.3 l -88.9,-51.3 v -143.3 l -108.2,-62.5 v 143.3 l -88.9,-51.3 V 5610 l -158.8,-91.7 v -883.6 l 158.8,91.7 v -148.8 l 88.9,51.4 v 148.8 l 179.1,103.4 c 6.1,3.5 12.1,7 18,10.7 32.3,20 63.1,42.6 92.2,67.8 34.4,29.9 64.7,61.8 90.8,96 26.1,34.2 46.7,69.7 61.6,106.5 15,36.8 22.4,73.9 22.4,111.3 0,58 -14.7,97.8 -44.2,119.4" style="fill:#ff9d4d;fill-opacity:1;fill-rule:nonzero;stroke:none" id="path3176" transform="matrix(0.133333, 0, 0, -0.133333, 0, 5287.013184)"/>
  <path d="m 13812.4,6315.7 -8.8,-15.1 -308.1,177.9 c 5.9,3.4 11.8,6.7 17.7,10 l 299.2,-172.8" style="fill:#ffe840;fill-opacity:1;fill-rule:nonzero;stroke:none" id="path3178" transform="matrix(0.133333, 0, 0, -0.133333, 0, 5287.013184)"/>
  <path d="m 13540.1,6198.5 -8.8,-15.1 -256.5,148.1 c 5,3.8 10.1,7.7 15.1,11.4 l 250.2,-144.4" style="fill:#ffe840;fill-opacity:1;fill-rule:nonzero;stroke:none" id="path3180" transform="matrix(0.133333, 0, 0, -0.133333, 0, 5287.013184)"/>
  <path d="m 13350.5,6033.4 -8.8,-15.1 -256.9,148.4 c 4.4,4.2 8.8,8.4 13.1,12.6 l 252.6,-145.9" style="fill:#ffe840;fill-opacity:1;fill-rule:nonzero;stroke:none" id="path3182" transform="matrix(0.133333, 0, 0, -0.133333, 0, 5287.013184)"/>
  <path d="m 13160.9,5868.4 -8.7,-15.1 -233.7,135 c 3.8,4.5 7.6,9 11.4,13.5 l 231,-133.4" style="fill:#ffe840;fill-opacity:1;fill-rule:nonzero;stroke:none" id="path3184" transform="matrix(0.133333, 0, 0, -0.133333, 0, 5287.013184)"/>
  <path d="m 13053.8,5655.8 -8.7,-15.2 -272.7,157.4 c 3.3,4.8 6.7,9.7 10.1,14.4 l 271.3,-156.6" style="fill:#ffe840;fill-opacity:1;fill-rule:nonzero;stroke:none" id="path3186" transform="matrix(0.133333, 0, 0, -0.133333, 0, 5287.013184)"/>
  <path d="m 12985,5419.6 -8.7,-15.1 -330.4,192.2 c 2.8,5 5.7,10.1 8.6,15.1 l 330.5,-192.2" style="fill:#ffe840;fill-opacity:1;fill-rule:nonzero;stroke:none" id="path3188" transform="matrix(0.133333, 0, 0, -0.133333, 0, 5287.013184)"/>
  <path d="m 12850.5,5224.2 -8.7,-15.1 -302.3,174.5 c 2.3,5.3 4.7,10.7 7.1,16.1 l 303.9,-175.5" style="fill:#ffe840;fill-opacity:1;fill-rule:nonzero;stroke:none" id="path3190" transform="matrix(0.133333, 0, 0, -0.133333, 0, 5287.013184)"/>
  <path d="m 12799.4,4979.2 -8.8,-15.1 -334.2,192.9 c 1.7,5.8 3.5,11.5 5.2,17.2 l 337.8,-195" style="fill:#ffe840;fill-opacity:1;fill-rule:nonzero;stroke:none" id="path3192" transform="matrix(0.133333, 0, 0, -0.133333, 0, 5287.013184)"/>
  <path d="m 12713,4754.6 -8.7,-15.1 -300.7,173.6 c 0.7,6.2 1.6,12.5 2.5,18.7 l 306.9,-177.2" style="fill:#ffe840;fill-opacity:1;fill-rule:nonzero;stroke:none" id="path3194" transform="matrix(0.133333, 0, 0, -0.133333, 0, 5287.013184)"/>
  <path d="m 12725.9,4472.7 -8.8,-15.1 -318.6,184 c -0.8,7.1 -1.5,14.2 -2.1,21.4 l 329.5,-190.3" style="fill:#ffe840;fill-opacity:1;fill-rule:nonzero;stroke:none" id="path3196" transform="matrix(0.133333, 0, 0, -0.133333, 0, 5287.013184)"/>
  <path d="m 14074.2,6439.5 -8.8,-15.2 -299.9,173.2 c 7.8,2.4 15.4,4.7 23.1,6.9 l 285.6,-164.9" style="fill:#ffe840;fill-opacity:1;fill-rule:nonzero;stroke:none" id="path3198" transform="matrix(0.133333, 0, 0, -0.133333, 0, 5287.013184)"/>
  <g id="g3200" transform="matrix(0.133333, 0, 0, -0.133333, 0, 5287.013184)">
    <g id="g3202" clip-path="url(#clipPath3206)">
      <path d="m 15091.2,10807.5 -432.2,259.2 -3502.1,-2022 432.3,-259.1 3502,2021.9" style="fill:url(#linearGradient3212);fill-opacity:1;fill-rule:nonzero;stroke:none" id="path3214"/>
    </g>
  </g>
  <g id="g3216" transform="matrix(0.133333, 0, 0, -0.133333, 0, 5287.013184)">
    <g id="g3218" clip-path="url(#clipPath3222)">
      <path d="M 11156.9,9044.7 V 1389.4 l 432.3,-259.1 v 7655.3 l -432.3,259.1" style="fill:url(#linearGradient3228);fill-opacity:1;fill-rule:nonzero;stroke:none" id="path3230"/>
    </g>
  </g>
  <path d="m 11180.2,1402.6 409.2,-245.3 3478.6,2008.3 v 7628.7 l -409.3,245.4 -3478.5,-2008.4 z m 409,-295.6 c -4.2,0 -8.3,1.1 -12,3.3 l -432.3,259.2 c -7,4.2 -11.3,11.7 -11.3,19.9 v 7655.3 c 0,8.4 4.5,16 11.7,20.2 l 3502,2021.9 c 7.3,4.2 16.4,4.1 23.6,-0.2 l 432.3,-259.1 c 7,-4.2 11.3,-11.8 11.3,-20 V 3152.2 c 0,-8.3 -4.4,-16 -11.6,-20.1 l -3502.1,-2022 c -3.6,-2.1 -7.6,-3.1 -11.6,-3.1" style="fill:#bf89ef;fill-opacity:1;fill-rule:nonzero;stroke:none" id="path3232" transform="matrix(0.133333, 0, 0, -0.133333, 0, 5287.013184)"/>
  <path d="m 12807.8,8603 2161.9,1248.1 v 119.1 L 12807.8,8722 v -119" style="fill:#ffffff;fill-opacity:1;fill-rule:nonzero;stroke:none" id="path3234" transform="matrix(0.133333, 0, 0, -0.133333, 0, 5287.013184)"/>
  <path d="m 13580.2,8575.2 1389.5,802.4 v 119.1 l -1389.5,-802.5 v -119" style="fill:#ffd071;fill-opacity:1;fill-rule:nonzero;stroke:none" id="path3236" transform="matrix(0.133333, 0, 0, -0.133333, 0, 5287.013184)"/>
  <path d="m 12392.6,7418.2 2577.1,1485.9 v 119 L 12392.6,7537.3 v -119.1" style="fill:#7fc1e2;fill-opacity:1;fill-rule:nonzero;stroke:none" id="path3238" transform="matrix(0.133333, 0, 0, -0.133333, 0, 5287.013184)"/>
  <path d="m 15683.1,1461.2 c -579,-334.2 -579,-876.2 0,-1210.497 579,-334.3046 1517.8,-334.3046 2096.8,0 579,334.297 579,876.297 0,1210.497 -579,334.3 -1517.8,334.3 -2096.8,0" style="fill:#dde4ed;fill-opacity:1;fill-rule:nonzero;stroke:none" id="path3240" transform="matrix(0.133333, 0, 0, -0.133333, 0, 5287.013184)"/>
  <path d="m 14521.1,5307.4 v 239.2 l -105.3,-48.3 -82.4,-130.5 c -20.6,-32.5 -18.9,-74.4 4.2,-105.1 l 73.1,-72.4 110.4,117.1" style="fill:#ffd0a6;fill-opacity:1;fill-rule:nonzero;stroke:none" id="path3242" transform="matrix(0.133333, 0, 0, -0.133333, 0, 5287.013184)"/>
  <path d="m 15743.5,1296.4 526.6,-184.4 c 129,-58.1 276.5,34 277.1,173.4 l 0.1,1.5 c 0,0 -0.5,12.1 -1.8,17.6 -6.1,30.9 -28.7,56.2 -59.1,66.6 l -407.9,150.3 c -109.5,40.3 -232.1,25.3 -328.1,-40.2 l -38.1,-30.4 c -56.7,-44.9 -38.8,-134.1 31.2,-154.4" style="fill:#281a10;fill-opacity:1;fill-rule:nonzero;stroke:none" id="path3244" transform="matrix(0.133333, 0, 0, -0.133333, 0, 5287.013184)"/>
  <g id="g3246" transform="matrix(0.133333, 0, 0, -0.133333, 0, 5287.013184)">
    <g id="g3248" clip-path="url(#clipPath3252)">
      <path d="m 16275.5,4038.6 296.8,-1316.6 301.7,-679.4 358,-633.5 376.3,162.2 -0.3,1.1 -12.8,44.3 c -61,212.4 -130.5,422 -208.7,628.2 -78.3,206.3 -165.1,409.5 -260.6,608.5 l -199,1320.8 -547.2,-113.9 -104.2,-21.7" style="fill:url(#linearGradient3258);fill-opacity:1;fill-rule:nonzero;stroke:none" id="path3260"/>
    </g>
  </g>
  <g id="g3262" transform="matrix(0.133333, 0, 0, -0.133333, 0, 5287.013184)">
    <g id="g3264" clip-path="url(#clipPath3268)">
      <path d="m 16353.8,4019.8 317.8,-1253.8 301.5,-679.2 358,-633.8 276.9,119.4 -12.8,44.3 c -61,212.4 -130.5,422 -208.7,628.2 -78.3,206.3 -165.1,409.5 -260.6,608.5 l -199,1320.8 -573.1,-154.4" style="fill:url(#linearGradient3274);fill-opacity:1;fill-rule:nonzero;stroke:none" id="path3276"/>
    </g>
  </g>
  <g id="g3278" transform="matrix(0.133333, 0, 0, -0.133333, 0, 5287.013184)">
    <g id="g3280" clip-path="url(#clipPath3284)">
      <path d="m 15749.2,3952.1 77.4,-1420.7 255.5,-1169.7 443.1,-7.8 v 2.5 l -3.6,122.2 c -5.6,187.1 -23.1,373.6 -52.9,557.9 -30,184.5 -71.8,366.8 -125.8,546.1 l 126.4,1439.3 1.4,16.7 -721.5,-86.5" style="fill:url(#linearGradient3290);fill-opacity:1;fill-rule:nonzero;stroke:none" id="path3292"/>
    </g>
  </g>
  <g id="g3294" transform="matrix(0.133333, 0, 0, -0.133333, 0, 5287.013184)">
    <g id="g3296" clip-path="url(#clipPath3300)">
      <path d="m 15887.3,3952.1 77.6,-1420.7 255.5,-1169.7 304.8,-5.3 -3.6,122.2 c -5.6,187.1 -23.1,373.6 -52.9,557.9 -30,184.5 -71.8,366.8 -125.8,546.1 l 204.4,1448.7 -660,-79.2" style="fill:url(#linearGradient3306);fill-opacity:1;fill-rule:nonzero;stroke:none" id="path3308"/>
    </g>
  </g>
  <g id="g3310" transform="matrix(0.133333, 0, 0, -0.133333, 0, 5287.013184)">
    <g id="g3312" clip-path="url(#clipPath3316)">
      <path d="m 16145.1,5955.9 c -271.4,-46.6 -472.1,-313.9 -477.1,-589.2 -8.3,-466.9 -62.6,-1181.5 2.6,-1630.1 9.2,-63.3 60.8,-111.7 124.6,-116.1 l 228.6,-15.7 c 336.4,-23 525.7,171.7 842.7,286.5 v 0 c 124.8,45.2 204.4,167.6 195.2,299.9 l -128.7,800 135.6,884 c 2.6,214.5 -199.3,372.8 -407,319.2 l -516.5,-238.5" style="fill:url(#linearGradient3322);fill-opacity:1;fill-rule:nonzero;stroke:none" id="path3324"/>
    </g>
  </g>
  <path d="m 15674.4,5575.2 -466.9,-798.3 341.8,33 -1013.8,521.3 c -39.4,20.3 -87.7,9.3 -114.4,-26.1 l -3,-4.1 c -33,-43.7 -25.2,-105.6 17.5,-139.9 l 796.5,-639.1 c 86.2,-111.1 256.8,-102.6 331.5,16.6 l 10.3,16.4 491.3,783.6 c 67.7,108 33.9,250.6 -75.2,316.7 -109.1,66.1 -251.2,30.1 -315.6,-80.1" style="fill:#7b5baa;fill-opacity:1;fill-rule:nonzero;stroke:none" id="path3326" transform="matrix(0.133333, 0, 0, -0.133333, 0, 5287.013184)"/>
  <path d="m 16630.7,6171.1 -63.9,155.7 92.3,265.7 c 83.2,142.3 70.8,321 -31.1,450.6 -95,120.6 -250.1,177.1 -400.5,145.7 l -181,-37.9 c -75.7,-15.8 -123.4,-91 -105.5,-166.3 l 0.5,-2 c 7.7,-32.6 9.4,-65.8 5,-98.5 l -20.4,-153 v 0 c -16.9,-53.4 -20,-110.3 -8.8,-165.2 l 13.1,-64 c 33.8,-104.5 145.7,-162.1 250.5,-128.8 l 33,-397.3 416.8,195.3" style="fill:#ffd0a6;fill-opacity:1;fill-rule:nonzero;stroke:none" id="path3328" transform="matrix(0.133333, 0, 0, -0.133333, 0, 5287.013184)"/>
  <path d="m 15948.3,6903.5 125.7,-106.8 c 0,0 20.6,-78.2 7.3,-166.4 -13.2,-88.2 157.5,-204.2 157.5,-204.2 l 98.1,-125.5 c 20.8,-26.7 53.7,-41.1 87.5,-38.5 l 114.9,9.1 c 62.8,4.9 117.5,45.3 140.3,104.1 20.7,53.3 42.6,115 46.6,146.6 4.2,32.3 32.7,97.8 59.2,153.4 34.8,72.8 44.7,155.2 25.8,233.6 -11.2,46.9 -27.8,95.6 -51.6,128.2 -60.1,82 -72.5,168.4 -230.7,205.5 -158.2,37.2 -410.5,48.7 -474.9,12 -64.4,-36.7 -55,-59.8 -114.4,-152.2 -59.5,-92.5 8.7,-198.9 8.7,-198.9" style="fill:#89603e;fill-opacity:1;fill-rule:nonzero;stroke:none" id="path3330" transform="matrix(0.133333, 0, 0, -0.133333, 0, 5287.013184)"/>
  <path d="m 16659.9,6177.6 -63.4,76.8 -392.5,-159.4 -10.6,-130.2 466.5,212.8" style="fill:#7b5baa;fill-opacity:1;fill-rule:nonzero;stroke:none" id="path3332" transform="matrix(0.133333, 0, 0, -0.133333, 0, 5287.013184)"/>
  <path d="m 16088.1,6549 39.1,56.6 c 15.6,22.7 53.3,27.8 77.3,10.5 14.1,-10.2 19.9,-26 14.9,-40.7 l -51.7,-151.6 -114.4,48.8 34.8,76.4" style="fill:#ffd0a6;fill-opacity:1;fill-rule:nonzero;stroke:none" id="path3334" transform="matrix(0.133333, 0, 0, -0.133333, 0, 5287.013184)"/>
  <path d="m 16525.3,1560.5 -139.8,-23.5 -346.7,32.7 57.2,-340 356.8,-21.9 c 54.2,-3.3 98.7,42.2 94.1,96.3 l -21.6,256.4" style="fill:#281a10;fill-opacity:1;fill-rule:nonzero;stroke:none" id="path3336" transform="matrix(0.133333, 0, 0, -0.133333, 0, 5287.013184)"/>
  <path d="m 17231.9,1409.1 -6,-103.9 c -3.2,-54.8 -48.6,-97.6 -103.5,-97.6 h -139.1 c -40,0 -77.3,-19.9 -99.5,-53 -46.6,-69.3 -9.8,-163.799 71.4,-183.295 l 61.8,-14.907 c 116.1,-27.894 237.3,-27.097 353,2.5 l 320.6,81.902 c 104.2,26.6 152.9,146.4 96.8,238.1 l -179,292.6 -376.5,-162.4" style="fill:#c97453;fill-opacity:1;fill-rule:nonzero;stroke:none" id="path3338" transform="matrix(0.133333, 0, 0, -0.133333, 0, 5287.013184)"/>
  <path d="m 17231.9,1409.1 -6,-103.9 c -3.2,-54.8 -48.6,-97.6 -103.5,-97.6 h -139.1 c -40,0 -77.3,-19.9 -99.5,-53 -46.6,-69.3 -9.8,-163.799 71.4,-183.295 l 61.8,-14.907 c 116.1,-27.894 237.3,-27.097 353,2.5 l 320.6,81.902 c 104.2,26.6 152.9,146.4 96.8,238.1 l -179,292.6 -376.5,-162.4" style="fill:#281a10;fill-opacity:1;fill-rule:nonzero;stroke:none" id="path3340" transform="matrix(0.133333, 0, 0, -0.133333, 0, 5287.013184)"/>
  <path d="m 14593,5468.5 7.6,5.3 c 20.5,14.3 47.8,14.2 68.3,-0.1 8.4,-5.9 9.2,-18.1 1.6,-25.1 l -43.7,-40 c -1.8,-1.7 -4.1,-2.9 -6.5,-3.6 l -117.5,-32.8 c -7.8,-2.1 -15.9,1.8 -19.1,9.2 l -16.7,39 c -3.9,9.3 1.6,19.9 11.4,22.1 l 108.8,23.5 c 2.1,0.5 4,1.3 5.8,2.5" style="fill:#ffd0a6;fill-opacity:1;fill-rule:nonzero;stroke:none" id="path3342" transform="matrix(0.133333, 0, 0, -0.133333, 0, 5287.013184)"/>
</svg>