<?xml version="1.0" encoding="utf-8"?>
<svg viewBox="0 4575.863 1220.51 711.155" width="1220.51" height="711.155" xmlns="http://www.w3.org/2000/svg">
  <defs>
    <clipPath clipPathUnits="userSpaceOnUse" id="clipPath3002">
      <path d="m 2716.85,900.5 -2289.666,1321.9 93.214,71.3 -426.8667,240.4 -7.8594,-35.8 C 47.1367,2323 49.8242,2141.1 93.5313,1966.9 h 0.0078 C 93.5352,1897.5 127.891,1828.1 196.602,1788.4 L 2716.85,333.402 c 58.49,-33.8 124.96,-47.8 190.03,-42.004 v 567.106 c -65.07,-5.801 -131.54,8.195 -190.03,41.996 z" id="path3000"/>
    </clipPath>
    <linearGradient x1="0" y1="0" x2="1" y2="0" gradientUnits="userSpaceOnUse" gradientTransform="matrix(2848.25,0,0,-2848.25,58.635,1412.1)" spreadMethod="pad" id="linearGradient3008">
      <stop style="stop-opacity:1;stop-color:#483ca6" offset="0" id="stop3004"/>
      <stop style="stop-opacity:1;stop-color:#59278f" offset="1" id="stop3006"/>
    </linearGradient>
    <clipPath clipPathUnits="userSpaceOnUse" id="clipPath3022">
      <path d="M 7235.96,3323 7048.8,3214.9 3040.1,900.5 c -41.55,-24 -87.02,-38 -133.22,-41.996 -65.07,-5.801 -131.54,8.195 -190.03,41.996 l -2338.35,1350 -181.898,105 c -137.4184,79.4 -137.4184,277.7 0,357.1 l 4130.948,2385 c 136.92,79.1 305.69,79.1 442.62,0 L 7235.96,3674 c 135.09,-78.1 135.09,-273 0,-351 z" id="path3020"/>
    </clipPath>
    <linearGradient x1="0" y1="0" x2="1" y2="0" gradientUnits="userSpaceOnUse" gradientTransform="matrix(7243.74,0,0,-7243.74,93.5385,3007.1)" spreadMethod="pad" id="linearGradient3028">
      <stop style="stop-opacity:1;stop-color:#6a5ebf" offset="0" id="stop3024"/>
      <stop style="stop-opacity:1;stop-color:#6e3aa5" offset="1" id="stop3026"/>
    </linearGradient>
  </defs>
  <path d="m 2040.42,5028.2 c 430.22,-248.4 430.22,-651.1 0,-899.5 -430.22,-248.4 -1127.76,-248.4 -1557.982,0 -430.2271,248.4 -430.2271,651.1 0,899.5 430.222,248.4 1127.762,248.4 1557.982,0" style="fill:#e3dfea;fill-opacity:1;fill-rule:nonzero;stroke:none" id="path2986" transform="matrix(0.133333, 0, 0, -0.133333, 0, 5287.013184)"/>
  <path d="m 2040.42,5028.2 c 430.22,-248.4 430.22,-651.1 0,-899.5 -430.22,-248.4 -1127.76,-248.4 -1557.982,0 -430.2271,248.4 -430.2271,651.1 0,899.5 430.222,248.4 1127.762,248.4 1557.982,0" style="fill:#e3dfea;fill-opacity:1;fill-rule:nonzero;stroke:none" id="path2988" transform="matrix(0.133333, 0, 0, -0.133333, 0, 5287.013184)"/>
  <path d="m 8831.15,2151.5 c 430.23,-248.4 430.23,-651.1 0,-899.5 -430.22,-248.4 -1127.75,-248.4 -1557.98,0 -430.22,248.4 -430.22,651.1 0,899.5 430.23,248.4 1127.76,248.4 1557.98,0" style="fill:#e3dfea;fill-opacity:1;fill-rule:nonzero;stroke:none" id="path2990" transform="matrix(0.133333, 0, 0, -0.133333, 0, 5287.013184)"/>
  <path d="m 7379.05,3158.6 -605.6,-74.8 -2003.28,1156.6 c -136.93,79.1 -305.7,79.1 -442.62,0 L 1114.06,2385.1 58.6367,2254.8 l 34.9024,-578 c 0,-69.4 34.3519,-138.8 103.0629,-178.5 L 378.5,1393.3 2716.85,43.3008 C 2775.34,9.5 2841.81,-4.5 2906.88,1.20313 c 46.2,4.09765 91.67,18.09767 133.22,42.09767 L 7048.8,2357.7 l 187.16,108.1 c 65.98,38 99.64,104 101.17,170.7 l 41.92,522.1" style="fill:#e3dfea;fill-opacity:1;fill-rule:nonzero;stroke:none" id="path2992" transform="matrix(0.133333, 0, 0, -0.133333, 0, 5287.013184)"/>
  <path d="m 7337.28,3498.5 v 0 L 6758.01,3214.9 6873.44,3113.7 3040.1,900.5 c -41.55,-24 -87.02,-38 -133.22,-41.996 V 291.398 c 46.2,4.004 91.67,18.004 133.22,42.004 L 7235.96,2755.8 c 67.55,39 101.32,107.3 101.32,175.6 h 0.01 c 55.69,184.9 55.69,382.1 -0.01,567.1" style="fill:#634d99;fill-opacity:1;fill-rule:nonzero;stroke:none" id="path2994" transform="matrix(0.133333, 0, 0, -0.133333, 0, 5287.013184)"/>
  <g id="g2996" transform="matrix(0.133333, 0, 0, -0.133333, 0, 5287.013184)">
    <g id="g2998" clip-path="url(#clipPath3002)">
      <path d="m 2716.85,900.5 -2289.666,1321.9 93.214,71.3 -426.8667,240.4 -7.8594,-35.8 C 47.1367,2323 49.8242,2141.1 93.5313,1966.9 h 0.0078 C 93.5352,1897.5 127.891,1828.1 196.602,1788.4 L 2716.85,333.402 c 58.49,-33.8 124.96,-47.8 190.03,-42.004 v 567.106 c -65.07,-5.801 -131.54,8.195 -190.03,41.996" style="fill:url(#linearGradient3008);fill-opacity:1;fill-rule:nonzero;stroke:none" id="path3010"/>
    </g>
  </g>
  <path d="m 103.867,2511 -3.492,-15.9 c -37.8359,-172.2 -35.1523,-353.5 7.762,-524.5 0.297,-1.2 0.453,-2.4 0.453,-3.7 0.004,-69.1 35.723,-130.9 95.547,-165.5 L 2724.38,346.398 c 55.13,-31.796 117.8,-45.695 181.17,-40 44.9,3.903 87.62,17.305 127.04,40 L 7228.43,2768.9 c 58.73,33.9 93.8,94.6 93.8,162.5 0,1.2 0.15,2.4 0.44,3.6 53.5,177.7 55.15,364.5 5.16,542.1 l -542.9,-265.8 98.43,-86.3 c 3.65,-3.2 5.53,-8 5.06,-12.8 -0.48,-4.8 -3.25,-9.2 -7.45,-11.6 L 3047.63,887.5 c -43.07,-24.898 -89.98,-39.699 -139.43,-43.996 -69.6,-6.203 -138.4,8.996 -198.88,43.996 L 419.656,2209.3 c -4.351,2.6 -7.168,7.1 -7.492,12.1 -0.328,5 1.875,9.9 5.871,12.9 l 75.086,57.5 z M 2877.8,275 c -59.08,0 -116.79,15.5 -168.48,45.301 L 189.078,1775.3 C 120.367,1815 79.1367,1885.8 78.4961,1965.1 34.8672,2140 32.2656,2325.4 70.9609,2501.5 l 7.8633,35.8 c 1.0235,4.7 4.1992,8.6 8.5547,10.5 4.3555,2 9.375,1.7 13.5351,-0.6 l 426.867,-240.3 c 4.41,-2.5 7.278,-7.1 7.633,-12.1 0.363,-5.1 -1.844,-9.9 -5.867,-13 L 454.254,2224.1 2724.38,913.504 c 55.1,-31.805 117.7,-45.703 181.18,-40 45.05,3.898 87.78,17.398 127.01,40 l 3815.14,2202.696 -99.63,87.4 c -3.78,3.3 -5.66,8.3 -4.99,13.3 0.66,5 3.78,9.3 8.3,11.5 l 579.27,283.6 c 3.97,1.9 8.59,2 12.65,0.3 4.05,-1.8 7.11,-5.3 8.39,-9.5 56.51,-187.6 56.72,-386 0.63,-573.7 -0.77,-77.8 -41.33,-147.3 -108.84,-186.3 L 3047.63,320.301 C 3004.36,295.402 2957.45,280.602 2908.18,276.398 2898.03,275.5 2887.89,275 2877.8,275" style="fill:#bf89ef;fill-opacity:1;fill-rule:nonzero;stroke:none" id="path3012" transform="matrix(0.133333, 0, 0, -0.133333, 0, 5287.013184)"/>
  <path d="M 7048.8,3214.9 3040.1,900.5 c -41.55,-24 -87.02,-38 -133.22,-41.996 -65.07,-5.801 -131.54,8.195 -190.03,41.996 l -2338.35,1350 3949.05,2280 c 136.92,79.1 305.69,79.1 442.62,0 L 7048.8,3214.9" style="fill:#3c3568;fill-opacity:1;fill-rule:nonzero;stroke:none" id="path3014" transform="matrix(0.133333, 0, 0, -0.133333, 0, 5287.013184)"/>
  <g id="g3016" transform="matrix(0.133333, 0, 0, -0.133333, 0, 5287.013184)">
    <g id="g3018" clip-path="url(#clipPath3022)">
      <path d="M 7235.96,3323 7048.8,3214.9 3040.1,900.5 c -41.55,-24 -87.02,-38 -133.22,-41.996 -65.07,-5.801 -131.54,8.195 -190.03,41.996 l -2338.35,1350 -181.898,105 c -137.4184,79.4 -137.4184,277.7 0,357.1 l 4130.948,2385 c 136.92,79.1 305.69,79.1 442.62,0 L 7235.96,3674 c 135.09,-78.1 135.09,-273 0,-351" style="fill:url(#linearGradient3028);fill-opacity:1;fill-rule:nonzero;stroke:none" id="path3030"/>
    </g>
  </g>
  <path d="m 4548.86,5141.7 c -73.93,0 -147.85,-19.1 -213.78,-57.2 L 204.137,2699.6 c -59.824,-34.6 -95.543,-96.5 -95.543,-165.5 0,-69.1 35.719,-131 95.543,-165.6 L 2724.38,913.504 c 55.12,-31.805 117.75,-45.703 181.18,-40 45.05,3.898 87.78,17.398 127.01,40 L 7228.43,3336 c 58.72,33.9 93.78,94.6 93.79,162.4 0.02,67.9 -35.05,128.6 -93.79,162.5 L 4762.64,5084.5 c -65.94,38.1 -139.86,57.2 -213.78,57.2 z M 2877.99,842.102 c -59.17,0 -116.94,15.5 -168.67,45.398 l -2520.242,1455 c -69.25,40 -110.5975,111.6 -110.5975,191.6 0,79.9 41.3475,151.5 110.5975,191.5 l 4130.942,2385 c 141.17,81.6 316.54,81.6 457.68,0 L 7243.49,3687 c 68.17,-39.4 108.86,-109.9 108.84,-188.6 -0.01,-78.7 -40.7,-149.1 -108.84,-188.5 L 3047.63,887.5 c -43.07,-24.898 -89.98,-39.699 -139.43,-43.996 -10.09,-0.902 -20.18,-1.402 -30.21,-1.402" style="fill:#bf89ef;fill-opacity:1;fill-rule:nonzero;stroke:none" id="path3032" transform="matrix(0.133333, 0, 0, -0.133333, 0, 5287.013184)"/>
  <path d="m 4518.33,3770.5 121.69,-70.2 c 164.16,-94.8 366.39,-95 530.67,-0.4 l 925.73,532.8 c 36.76,21.2 36.8,74.2 0.06,95.5 l -473.71,273.5 c -22.42,12.9 -50.05,12.9 -72.49,0 L 4518.49,4007.8 c -91.44,-52.6 -91.53,-184.5 -0.16,-237.3" style="fill:#322754;fill-opacity:1;fill-rule:nonzero;stroke:none" id="path3034" transform="matrix(0.133333, 0, 0, -0.133333, 0, 5287.013184)"/>
  <path d="m 3878.36,3106.7 c 430.23,-248.4 430.23,-651.1 0,-899.5 -430.22,-248.3 -1127.75,-248.3 -1557.98,0 -430.22,248.4 -430.22,651.1 0,899.5 430.23,248.4 1127.76,248.4 1557.98,0" style="fill:#5c468c;fill-opacity:1;fill-rule:nonzero;stroke:none" id="path3036" transform="matrix(0.133333, 0, 0, -0.133333, 0, 5287.013184)"/>
  <path d="m 5127.83,4014.6 c 119.87,-69.2 119.87,-181.4 0,-250.6 -119.87,-69.2 -314.21,-69.2 -434.08,0 -119.87,69.2 -119.87,181.4 0,250.6 119.87,69.2 314.21,69.2 434.08,0" style="fill:#ffe840;fill-opacity:1;fill-rule:nonzero;stroke:none" id="path3038" transform="matrix(0.133333, 0, 0, -0.133333, 0, 5287.013184)"/>
  <path d="m 2050.28,4735.4 v -229 h -1.09 c -4.7,-58 -24.14,-115.8 -58.31,-171.2 -3.96,-6.4 -8.2,-12.9 -12.62,-19.3 -41.34,-60.3 -100.45,-117.4 -177.45,-168.7 -4.13,-2.8 -8.31,-5.5 -12.56,-8.3 -12.27,-7.8 -25,-15.6 -38.19,-23.2 -43.68,-25.2 -90.36,-47.7 -139.32,-67.4 -4.19,-1.7 -8.37,-3.3 -12.56,-5 -56.53,-22 -115.99,-40.5 -177.45,-55.2 -4.19,-1.1 -8.37,-2.1 -12.56,-3.1 -57.74,-13.4 -117.19,-23.6 -177.51,-30.6 -4.19,-0.6 -8.37,-1.1 -12.56,-1.5 -58.59,-6.4 -117.99,-10 -177.45,-10.4 -4.19,-0.1 -8.37,-0.1 -12.56,-0.1 -59.399,-0.1 -118.797,2.7 -177.508,8.6 -4.187,0.4 -8.375,0.8 -12.559,1.3 -60.203,6.4 -119.66,15.9 -177.457,28.6 -4.183,0.9 -8.371,1.8 -12.554,2.8 -61.352,14 -120.864,31.6 -177.516,52.7 -4.183,1.5 -8.426,3.1 -12.551,4.7 -55.734,21.3 -108.543,46.2 -157.675,74.6 -6.711,3.9 -13.301,7.8 -19.782,11.8 -4.242,2.5 -8.429,5.1 -12.558,7.7 -74.879,47.3 -134.106,99.9 -177.512,155.7 -4.4141,5.5 -8.543,11.1 -12.5586,16.7 -45.6914,63.6 -71.26956,131 -76.71096,198.8 H 0 v 229 h 60.8945 c 5.2735,8.5 10.9453,17 16.9649,25.3 4.0156,5.7 8.1992,11.2 12.5586,16.8 15.937,20.5 34.059,40.6 54.301,60.1 24.769,23.9 52.687,47.1 83.879,69.2 22.246,15.9 46.16,31.2 71.672,46 400.32,231.1 1049.42,231.1 1449.79,0 25.52,-14.8 49.37,-30.1 71.62,-46 31.13,-22.1 59.11,-45.2 83.88,-69.2 28.44,-27.4 52.69,-56 72.7,-85.2 3.9,-5.7 7.57,-11.3 11.12,-17 h 60.9" style="fill:#ff9d4d;fill-opacity:1;fill-rule:nonzero;stroke:none" id="path3040" transform="matrix(0.133333, 0, 0, -0.133333, 0, 5287.013184)"/>
  <path d="m 1025.15,5126.1 c -262.369,0 -524.72,-57.8 -724.88,-173.3 -25.512,-14.8 -49.426,-30.1 -71.672,-46 -31.192,-22.1 -59.11,-45.3 -83.879,-69.2 -20.242,-19.5 -38.364,-39.6 -54.301,-60.1 -4.3594,-5.6 -8.543,-11.1 -12.5586,-16.8 -6.0196,-8.3 -11.6914,-16.8 -16.9649,-25.3 H 0 v -229 h 1.14844 c 5.4414,-67.8 31.01956,-135.2 76.71096,-198.8 4.0156,-5.6 8.1445,-11.2 12.5586,-16.7 43.406,-55.8 102.633,-108.4 177.512,-155.7 4.129,-2.6 8.316,-5.2 12.558,-7.7 6.481,-4 13.071,-7.9 19.782,-11.8 49.132,-28.4 101.941,-53.3 157.675,-74.6 4.125,-1.6 8.368,-3.2 12.551,-4.7 56.652,-21.1 116.164,-38.7 177.516,-52.7 4.183,-1 8.371,-1.9 12.554,-2.8 57.797,-12.7 117.254,-22.2 177.457,-28.6 4.184,-0.5 8.372,-0.9 12.559,-1.3 57.578,-5.7 115.809,-8.6 174.068,-8.6 1.14,0 2.3,0 3.44,0 4.19,0 8.37,0 12.56,0.1 59.46,0.4 118.86,4 177.45,10.4 4.19,0.4 8.37,0.9 12.56,1.5 60.32,7 119.77,17.2 177.51,30.6 4.19,1 8.37,2 12.56,3.1 61.46,14.7 120.92,33.2 177.45,55.2 4.19,1.7 8.37,3.3 12.56,5 48.96,19.7 95.64,42.2 139.32,67.4 13.19,7.6 25.92,15.4 38.19,23.2 4.25,2.8 8.43,5.5 12.56,8.3 77,51.3 136.11,108.4 177.45,168.7 4.42,6.4 8.66,12.9 12.62,19.3 34.17,55.4 53.61,113.2 58.31,171.2 h 1.09 v 27.8 0.1 201.1 h -60.9 c -3.55,5.7 -7.22,11.3 -11.12,17 -20.01,29.2 -44.26,57.8 -72.7,85.2 -24.77,24 -52.75,47.1 -83.88,69.2 -22.25,15.9 -46.1,31.2 -71.62,46 -200.18,115.5 -462.55,173.3 -724.91,173.3 z m 0,-12.6 c 271.66,0 526.88,-60.9 718.63,-171.6 24.96,-14.4 48.71,-29.7 70.62,-45.3 30.39,-21.6 58.12,-44.5 82.44,-68 27.48,-26.5 51.39,-54.6 71.1,-83.4 3.54,-5.1 7.08,-10.5 10.8,-16.4 l 3.69,-5.9 h 6.95 48.33 V 4534.2 4519 h -0.11 l -0.93,-11.6 c -4.59,-56.5 -23.59,-112.2 -56.51,-165.6 -3.62,-5.9 -7.73,-12.2 -12.25,-18.8 -41.38,-60.3 -99.94,-116 -174.07,-165.4 -4.08,-2.7 -8.22,-5.4 -12.36,-8.1 -12.06,-7.7 -24.75,-15.4 -37.7,-22.9 -42.45,-24.5 -88.79,-47 -137.68,-66.6 -4.14,-1.7 -8.28,-3.3 -12.49,-5 -55.49,-21.6 -114.64,-40 -176.05,-54.8 -4.07,-1 -8.15,-2 -12.23,-2.9 -56.56,-13.2 -115.82,-23.4 -176.53,-30.5 -3.97,-0.5 -7.93,-1 -12.08,-1.4 -58.07,-6.4 -117.35,-9.9 -176.17,-10.3 l -0.62,-0.1 h -0.03 c -3.94,0 -7.87,-0.1 -11.83,-0.1 h -3.42 c -57.947,0 -116.091,2.9 -173.045,8.7 -4.062,0.3 -8.128,0.7 -12.257,1.2 -59.723,6.3 -118.965,15.9 -176.094,28.4 -4.137,0.9 -8.27,1.8 -12.449,2.8 -61.403,14 -120.59,31.5 -175.946,52.1 l -1.507,0.6 c -3.586,1.3 -7.196,2.6 -10.918,4.1 -55.485,21.3 -107.93,46.1 -155.856,73.8 -6.629,3.8 -13.144,7.7 -19.562,11.6 -4.2,2.6 -8.344,5.1 -12.375,7.6 -72.278,45.7 -130.918,97.1 -174.383,152.9 -3.883,4.9 -7.8596,10.2 -12.1916,16.2 -44.0351,61.4 -69.0625,126.1 -74.3984,192.5 l -0.9297,11.6 h -0.1758 v 203.9 h 48.332 6.9805 l 3.6875,5.9 c 5.0625,8.2 10.6094,16.4 16.5586,24.6 3.6367,5.2 7.6211,10.5 12.2229,16.4 15.5,19.9 33.367,39.7 53.094,58.8 24.687,23.8 52.421,46.7 82.441,68 22.164,15.8 45.937,31 70.668,45.3 191.734,110.7 446.937,171.6 718.603,171.6" style="fill:#ffe840;fill-opacity:1;fill-rule:nonzero;stroke:none" id="path3042" transform="matrix(0.133333, 0, 0, -0.133333, 0, 5287.013184)"/>
  <path d="m 1750.04,5160.3 c 400.35,-231.2 400.35,-605.9 0,-837.1 -400.34,-231.1 -1049.435,-231.1 -1449.774,0 -400.348,231.2 -400.348,605.9 0,837.1 400.339,231.1 1049.434,231.1 1449.774,0" style="fill:#ffe840;fill-opacity:1;fill-rule:nonzero;stroke:none" id="path3044" transform="matrix(0.133333, 0, 0, -0.133333, 0, 5287.013184)"/>
  <path d="m 1800.81,4546.2 c -4.01,-5.4 -8.2,-10.7 -12.56,-16 -40.25,-48.5 -95.12,-93.9 -164.61,-134 -4.24,-2.5 -8.54,-4.9 -12.9,-7.3 -4.13,-2.3 -8.31,-4.6 -12.56,-6.8 -54.64,-29.1 -114.33,-53.2 -177.45,-72.4 -4.13,-1.3 -8.37,-2.6 -12.56,-3.8 -56.99,-16.6 -116.56,-29.4 -177.51,-38.1 -4.13,-0.6 -8.32,-1.2 -12.56,-1.7 -58.31,-7.9 -117.82,-12.1 -177.45,-12.7 -4.19,0 -8.37,-0.1 -12.56,-0.1 -59.516,-0.1 -119.086,3.3 -177.508,10.4 -4.187,0.6 -8.43,1.1 -12.559,1.7 -60.777,7.8 -120.347,19.6 -177.457,35.3 -4.183,1.2 -8.425,2.3 -12.554,3.5 -62.84,18 -122.528,40.8 -177.516,68.4 -4.242,2.2 -8.426,4.3 -12.551,6.5 -10.609,5.5 -21.047,11.2 -31.25,17.1 -59.461,34.3 -108.195,72.5 -146.207,113.2 -4.3,4.6 -8.484,9.3 -12.558,14 -103.317,119.6 -116.45,258.8 -39.332,383.4 40.828,66 106.816,127.8 198.097,180.5 329.969,190.5 866.915,190.5 1196.945,0 91.28,-52.7 157.27,-114.5 198.04,-180.5 72.24,-116.7 65.3,-246.3 -20.87,-360.6 z m 104.75,291.4 c -32.8,101.6 -117.71,195.1 -247.06,269.8 -169.2,97.7 -394.13,151.5 -633.33,151.5 -239.268,0 -464.193,-53.8 -633.334,-151.5 -129.352,-74.7 -214.324,-168.2 -247.117,-269.8 -10.094,-31.3 -15.25,-63.3 -15.25,-95.8 0,-99.5 48.269,-194.6 138.461,-276.6 4.074,-3.8 8.258,-7.4 12.558,-11 32.282,-27.8 69.492,-53.9 111.348,-78.1 21.211,-12.2 43.285,-23.8 66.109,-34.6 4.184,-2 8.368,-4 12.551,-5.9 55.106,-25.2 114.676,-46.3 177.516,-63.1 4.183,-1.2 8.371,-2.3 12.554,-3.4 56.821,-14.6 116.219,-25.8 177.457,-33.2 4.184,-0.5 8.372,-1 12.559,-1.5 56.875,-6.5 115.301,-9.8 174.588,-9.8 h 2.92 c 4.19,0 8.37,0.1 12.56,0.2 60.38,0.5 119.72,4.5 177.45,11.8 4.19,0.5 8.37,1.1 12.56,1.7 61.35,8.2 120.8,20.2 177.51,35.7 4.24,1.2 8.43,2.3 12.56,3.6 63.07,17.9 122.58,40.2 177.45,66.7 4.19,2 8.43,4 12.56,6.1 16.34,8.2 32.28,16.7 47.76,25.7 50.05,28.9 93.46,60.6 129.75,94.5 4.3,4 8.49,8 12.56,12.1 78.26,77.9 120,166.6 120,259.1 0,32.5 -5.16,64.5 -15.25,95.8" style="fill:#ff9d4d;fill-opacity:1;fill-rule:nonzero;stroke:none" id="path3046" transform="matrix(0.133333, 0, 0, -0.133333, 0, 5287.013184)"/>
  <path d="m 1057.95,4825.2 96.53,-55.7 c -2.18,-1.1 -4.33,-2.2 -6.43,-3.4 l -52.97,-30.6 -90.21,52.1 29.8,17.2 c 10.66,6.1 18.42,12.9 23.28,20.4" style="fill:#d1975d;fill-opacity:1;fill-rule:nonzero;stroke:none" id="path3048" transform="matrix(0.133333, 0, 0, -0.133333, 0, 5287.013184)"/>
  <path d="m 838.023,4862.3 12.559,7.3 6.117,3.5 h 0.035 l 34.77,20.1 c 2.008,1.1 4.223,2 6.324,3 7.094,3.4 14.555,6.4 22.699,8.3 11.243,2.7 23.512,3.9 36.754,3.7 25.059,-0.5 48.679,-6.9 70.809,-19.4 l 1.61,-0.9 c 4.01,-2.3 7.62,-4.6 10.95,-7 15.82,-11.4 23.62,-23.4 23.39,-36.2 -0.11,-7 -2.12,-13.4 -6.08,-19.5 -3.9,-6 -9.68,-11.6 -17.31,-16.7 -1.9,-1.3 -3.84,-2.5 -5.96,-3.7 l -6.6,-3.8 -23.22,-13.4 -71.936,-41.6 h -0.008 l -19.633,-11.3 -30.891,-17.8 -17.144,9.9 -19.164,11 -8.071,4.7 -36.222,20.9 -67.524,39 18.754,10.8 31.754,18.4 h -0.012 z m 310.017,-96.2 c 2.12,1.2 4.24,2.3 6.42,3.4 8.25,3.9 17.32,6.9 27.06,8.7 11.81,2.3 24.03,3.2 36.59,2.7 h 1.94 c 3.56,-0.2 7.05,-0.5 10.61,-0.8 9.69,-1.1 19.44,-2.9 29.13,-5.4 13.18,-3.5 25.11,-8.3 35.55,-14.4 10.49,-6 18.46,-12.9 24.02,-20.5 5.5,-7.7 8.37,-15.4 8.66,-23.2 0.28,-7.8 -2.19,-15.4 -7.4,-22.9 -3.21,-4.6 -7.4,-8.9 -12.56,-12.9 -2.54,-2 -5.43,-3.9 -8.48,-5.8 l -2.57,-1.6 -45.57,-26.3 -1.63,-1 -19.15,-11 -12.55,-7.3 -40.2,-23.2 -50.55,-29.2 -154.739,89.4 16.512,9.5 33.997,19.6 h -0.01 l 4.97,2.9 12.56,7.2 54.41,31.4 z m 198.61,-175.9 h 0.02 l 98.92,-57.1 59.13,34.2 -99.17,57.2 2.62,1.7 c 4.36,2.7 8.54,5.5 12.56,8.3 14.05,10 26.15,20.3 36.41,31 16.28,17 26.77,34.2 31.41,51.6 4.71,17.4 2.65,34.3 -6.19,50.9 -8.82,16.5 -25.63,32 -50.45,46.3 -3.73,2.2 -7.46,4.2 -11.18,6.2 -4.13,2.2 -8.32,4.2 -12.56,6.1 -31.93,14.8 -65.93,23.6 -102.06,26.4 -25.4,2 -50.51,1.2 -75.45,-2.2 -4.19,-0.6 -8.37,-1.2 -12.55,-2 -15.2,-2.7 -30.28,-6.4 -45.24,-11.1 15.42,23 17.77,45.8 7.05,68.6 -10.78,22.8 -30.51,42.4 -59.17,59 -18.24,10.5 -39.45,19.1 -63.76,25.8 -24.26,6.7 -49.2,10.7 -74.881,12.2 -25.629,1.4 -51.14,-0.1 -76.543,-4.6 -25.398,-4.4 -48.277,-12.5 -68.691,-24.3 l -18.633,-10.8 -95.308,55 -59.133,-34.1 95.265,-55 -71.894,-41.6 -95.317,55 -59.136,-34.1 95.273,-55 -105.547,-61 125.567,-72.5 12.554,-7.2 177.457,-102.5 12.559,-7.3 177.508,-102.4 12.56,-7.3 69.32,-40 105.61,60.9 h 0.01 l 98.92,-57.1 59.13,34.2 -98.92,57.1 h 0.03 l 71.9,41.5" style="fill:#ff9d4d;fill-opacity:1;fill-rule:nonzero;stroke:none" id="path3050" transform="matrix(0.133333, 0, 0, -0.133333, 0, 5287.013184)"/>
  <path d="m 117.18,4472.5 v -207.4 c -4.422,5.5 -8.547,11.1 -12.563,16.7 v 207.5 c 4.016,-5.6 8.199,-11.2 12.563,-16.8" style="fill:#ffe840;fill-opacity:1;fill-rule:nonzero;stroke:none" id="path3052" transform="matrix(0.133333, 0, 0, -0.133333, 0, 5287.013184)"/>
  <path d="m 280.488,4335 v -207.5 c -4.242,2.5 -8.429,5.1 -12.558,7.7 v 207.6 c 4.129,-2.7 8.316,-5.3 12.558,-7.8" style="fill:#ffe840;fill-opacity:1;fill-rule:nonzero;stroke:none" id="path3054" transform="matrix(0.133333, 0, 0, -0.133333, 0, 5287.013184)"/>
  <path d="m 470.496,4243.9 v -207.5 c -4.183,1.5 -8.426,3.1 -12.551,4.7 v 207.5 c 4.125,-1.6 8.368,-3.2 12.551,-4.7" style="fill:#ffe840;fill-opacity:1;fill-rule:nonzero;stroke:none" id="path3056" transform="matrix(0.133333, 0, 0, -0.133333, 0, 5287.013184)"/>
  <path d="m 660.566,4188.4 v -207.5 c -4.183,0.9 -8.371,1.8 -12.554,2.8 v 207.6 c 4.183,-1 8.371,-2 12.554,-2.9" style="fill:#ffe840;fill-opacity:1;fill-rule:nonzero;stroke:none" id="path3058" transform="matrix(0.133333, 0, 0, -0.133333, 0, 5287.013184)"/>
  <path d="M 850.582,4158.5 V 3951 c -4.187,0.4 -8.375,0.8 -12.559,1.3 v 207.5 c 4.184,-0.5 8.372,-0.9 12.559,-1.3" style="fill:#ffe840;fill-opacity:1;fill-rule:nonzero;stroke:none" id="path3060" transform="matrix(0.133333, 0, 0, -0.133333, 0, 5287.013184)"/>
  <path d="m 1040.65,4150 v -207.5 c -4.19,-0.1 -8.37,-0.1 -12.56,-0.1 v 207.5 c 4.19,0 8.37,0 12.56,0.1" style="fill:#ffe840;fill-opacity:1;fill-rule:nonzero;stroke:none" id="path3062" transform="matrix(0.133333, 0, 0, -0.133333, 0, 5287.013184)"/>
  <path d="m 1230.66,4161.9 v -207.5 c -4.19,-0.6 -8.37,-1.1 -12.56,-1.5 v 207.5 c 4.19,0.4 8.37,0.9 12.56,1.5" style="fill:#ffe840;fill-opacity:1;fill-rule:nonzero;stroke:none" id="path3064" transform="matrix(0.133333, 0, 0, -0.133333, 0, 5287.013184)"/>
  <path d="m 1420.73,4195.6 v -207.5 c -4.19,-1.1 -8.37,-2.1 -12.56,-3.1 v 207.6 c 4.19,1 8.37,1.9 12.56,3" style="fill:#ffe840;fill-opacity:1;fill-rule:nonzero;stroke:none" id="path3066" transform="matrix(0.133333, 0, 0, -0.133333, 0, 5287.013184)"/>
  <path d="m 1610.74,4255.8 v -207.5 c -4.19,-1.7 -8.37,-3.3 -12.56,-5 v 207.6 c 4.19,1.6 8.37,3.2 12.56,4.9" style="fill:#ffe840;fill-opacity:1;fill-rule:nonzero;stroke:none" id="path3068" transform="matrix(0.133333, 0, 0, -0.133333, 0, 5287.013184)"/>
  <path d="m 1800.81,4354.7 v -207.5 c -4.13,-2.8 -8.31,-5.5 -12.56,-8.3 v 207.6 c 4.25,2.7 8.43,5.4 12.56,8.2" style="fill:#ffe840;fill-opacity:1;fill-rule:nonzero;stroke:none" id="path3070" transform="matrix(0.133333, 0, 0, -0.133333, 0, 5287.013184)"/>
  <path d="m 1969.38,4522 v -207.5 c -3.96,-6.5 -8.2,-13 -12.62,-19.4 v 207.5 c 4.42,6.4 8.6,12.9 12.62,19.4" style="fill:#ffe840;fill-opacity:1;fill-rule:nonzero;stroke:none" id="path3072" transform="matrix(0.133333, 0, 0, -0.133333, 0, 5287.013184)"/>
  <path d="m 8799.76,1876.3 v -229.1 h -1.09 c -4.7,-58 -24.14,-115.7 -58.31,-171.1 -3.96,-6.5 -8.2,-13 -12.62,-19.4 -41.33,-60.2 -100.45,-117.4 -177.45,-168.7 -4.13,-2.7 -8.31,-5.5 -12.56,-8.2 -12.27,-7.9 -25,-15.6 -38.18,-23.2 -43.69,-25.3 -90.37,-47.8 -139.33,-67.5 -4.18,-1.6 -8.37,-3.3 -12.55,-4.9 -56.54,-22.1 -116,-40.5 -177.46,-55.3 -4.18,-1.1 -8.37,-2 -12.56,-3 -57.73,-13.4 -117.19,-23.6 -177.51,-30.7 -4.18,-0.5 -8.37,-1 -12.56,-1.4 -58.59,-6.5 -118,-10 -177.45,-10.5 -4.19,0 -8.37,-0.1 -12.56,-0.1 -59.4,-0.1 -118.8,2.8 -177.51,8.7 -4.19,0.3 -8.37,0.8 -12.56,1.2 -60.2,6.4 -119.65,16 -177.45,28.7 -4.19,0.9 -8.37,1.8 -12.55,2.8 -61.36,14 -120.87,31.5 -177.52,52.6 -4.18,1.5 -8.43,3.1 -12.55,4.8 -55.74,21.3 -108.54,46.2 -157.68,74.6 -6.71,3.8 -13.3,7.7 -19.78,11.7 -4.24,2.6 -8.43,5.2 -12.56,7.7 -74.88,47.3 -134.1,100 -177.51,155.7 -4.42,5.6 -8.54,11.1 -12.56,16.8 -45.69,63.6 -71.27,131 -76.71,198.7 h -1.15 v 229.1 h 60.9 c 5.27,8.5 10.94,16.9 16.96,25.2 4.02,5.7 8.2,11.3 12.56,16.8 15.94,20.5 34.06,40.6 54.3,60.2 24.77,23.9 52.69,47 83.88,69.2 22.25,15.8 46.16,31.2 71.67,45.9 400.32,231.1 1049.42,231.1 1449.8,0 25.51,-14.7 49.37,-30 71.61,-45.9 31.13,-22.2 59.11,-45.3 83.88,-69.2 28.44,-27.5 52.69,-56 72.7,-85.3 3.91,-5.6 7.57,-11.2 11.13,-16.9 h 60.89" style="fill:#ff9d4d;fill-opacity:1;fill-rule:nonzero;stroke:none" id="path3074" transform="matrix(0.133333, 0, 0, -0.133333, 0, 5287.013184)"/>
  <path d="m 7774.63,2266.9 c -262.36,0 -524.72,-57.7 -724.88,-173.3 -25.51,-14.7 -49.42,-30.1 -71.67,-45.9 -31.19,-22.2 -59.11,-45.3 -83.88,-69.2 -20.24,-19.6 -38.36,-39.7 -54.3,-60.2 -4.36,-5.5 -8.54,-11.1 -12.56,-16.8 -6.02,-8.3 -11.69,-16.7 -16.96,-25.2 h -60.9 v -229.1 h 1.15 c 5.44,-67.7 31.02,-135.1 76.71,-198.7 4.02,-5.7 8.14,-11.2 12.56,-16.8 43.41,-55.7 102.63,-108.4 177.51,-155.7 4.13,-2.5 8.32,-5.1 12.56,-7.7 6.48,-4 13.07,-7.9 19.78,-11.7 49.14,-28.4 101.94,-53.3 157.68,-74.6 4.12,-1.7 8.37,-3.3 12.55,-4.8 56.65,-21.1 116.16,-38.6 177.52,-52.6 4.18,-1 8.36,-1.9 12.55,-2.8 57.8,-12.7 117.25,-22.3 177.45,-28.7 4.19,-0.4 8.37,-0.9 12.56,-1.2 57.58,-5.8 115.81,-8.7 174.07,-8.7 1.14,0 2.3,0 3.44,0 4.19,0 8.37,0.1 12.56,0.1 59.45,0.5 118.86,4 177.45,10.5 4.19,0.4 8.38,0.9 12.56,1.4 60.32,7.1 119.78,17.3 177.51,30.7 4.19,1 8.38,1.9 12.56,3 61.46,14.8 120.92,33.2 177.46,55.3 4.18,1.6 8.37,3.3 12.55,4.9 48.96,19.7 95.64,42.2 139.33,67.5 13.18,7.6 25.91,15.3 38.18,23.2 4.25,2.7 8.43,5.5 12.56,8.2 77,51.3 136.12,108.5 177.45,168.7 4.42,6.4 8.66,12.9 12.62,19.4 34.17,55.4 53.61,113.1 58.31,171.1 h 1.09 v 27.8 0.1 201.2 h -60.89 c -3.56,5.7 -7.22,11.3 -11.13,16.9 -20.01,29.3 -44.26,57.8 -72.7,85.3 -24.77,23.9 -52.75,47 -83.88,69.2 -22.24,15.9 -46.1,31.2 -71.61,45.9 -200.19,115.6 -462.56,173.3 -724.92,173.3 z m 0,-12.5 c 271.66,0 526.88,-61 718.64,-171.7 24.95,-14.4 48.7,-29.6 70.61,-45.3 30.4,-21.6 58.13,-44.4 82.44,-68 27.48,-26.5 51.39,-54.5 71.1,-83.3 3.55,-5.2 7.08,-10.5 10.8,-16.5 l 3.69,-5.9 h 6.96 48.33 V 1675 1659.8 h -0.12 l -0.93,-11.5 c -4.58,-56.6 -23.59,-112.3 -56.51,-165.7 -3.62,-5.9 -7.74,-12.2 -12.25,-18.8 -41.37,-60.3 -99.94,-115.9 -174.07,-165.3 -4.08,-2.7 -8.22,-5.5 -12.36,-8.1 -12.04,-7.8 -24.73,-15.5 -37.69,-23 -42.45,-24.5 -88.8,-46.9 -137.83,-66.7 -4.09,-1.6 -8.18,-3.2 -12.34,-4.8 -55.5,-21.7 -114.65,-40.1 -176.05,-54.8 -4.09,-1.1 -8.16,-2 -12.24,-3 -56.56,-13.1 -115.82,-23.4 -176.48,-30.5 -3.98,-0.5 -7.97,-0.9 -12.12,-1.3 -58.09,-6.5 -117.36,-9.9 -176.18,-10.4 h -0.62 -0.03 c -3.94,-0.1 -7.87,-0.1 -11.83,-0.1 h -3.42 c -57.95,0 -116.09,2.9 -173.04,8.6 -4.06,0.3 -8.13,0.8 -12.27,1.2 -59.71,6.4 -118.96,15.9 -176.09,28.4 -4.13,0.9 -8.26,1.8 -12.44,2.8 -61.41,14 -120.59,31.6 -175.95,52.2 l -1.52,0.5 c -3.58,1.4 -7.19,2.7 -10.91,4.2 -55.48,21.2 -107.93,46 -155.85,73.7 -6.63,3.9 -13.14,7.7 -19.56,11.6 -4.2,2.6 -8.35,5.2 -12.38,7.7 -72.27,45.6 -130.92,97 -174.38,152.8 -3.89,4.9 -7.86,10.2 -12.19,16.3 -44.03,61.3 -69.06,126.1 -74.4,192.4 l -0.93,11.6 h -0.17 v 203.9 h 48.33 6.97 l 3.69,6 c 5.07,8.1 10.61,16.4 16.56,24.6 3.65,5.1 7.64,10.5 12.22,16.3 15.5,20 33.37,39.8 53.1,58.8 24.69,23.9 52.42,46.7 82.44,68 22.16,15.8 45.94,31 70.67,45.3 191.73,110.7 446.94,171.7 718.6,171.7" style="fill:#ffe840;fill-opacity:1;fill-rule:nonzero;stroke:none" id="path3076" transform="matrix(0.133333, 0, 0, -0.133333, 0, 5287.013184)"/>
  <path d="m 8499.52,2301.1 c 400.35,-231.1 400.35,-605.9 0,-837 -400.34,-231.2 -1049.43,-231.2 -1449.78,0 -400.34,231.1 -400.34,605.9 0,837 400.35,231.1 1049.44,231.1 1449.78,0" style="fill:#ffe840;fill-opacity:1;fill-rule:nonzero;stroke:none" id="path3078" transform="matrix(0.133333, 0, 0, -0.133333, 0, 5287.013184)"/>
  <path d="m 8550.29,1687 c -4.02,-5.3 -8.2,-10.6 -12.56,-15.9 -40.24,-48.5 -95.12,-93.9 -164.61,-134.1 -4.24,-2.4 -8.54,-4.8 -12.9,-7.2 -4.13,-2.3 -8.31,-4.6 -12.55,-6.8 -54.65,-29.1 -114.34,-53.3 -177.46,-72.5 -4.13,-1.2 -8.37,-2.5 -12.56,-3.7 -56.99,-16.7 -116.56,-29.4 -177.51,-38.1 -4.12,-0.7 -8.31,-1.2 -12.56,-1.8 -58.31,-7.8 -117.82,-12.1 -177.45,-12.6 -4.19,-0.1 -8.37,-0.1 -12.56,-0.1 -59.51,-0.2 -119.08,3.3 -177.51,10.4 -4.19,0.5 -8.43,1 -12.56,1.6 -60.77,7.9 -120.34,19.7 -177.45,35.4 -4.19,1.1 -8.43,2.3 -12.55,3.5 -62.85,18 -122.53,40.8 -177.52,68.4 -4.24,2.1 -8.43,4.2 -12.55,6.4 -10.61,5.5 -21.05,11.2 -31.25,17.1 -59.46,34.4 -108.2,72.6 -146.21,113.2 -4.3,4.7 -8.49,9.3 -12.56,14 -103.31,119.7 -116.45,258.9 -39.33,383.5 40.82,65.9 106.82,127.7 198.1,180.4 329.97,190.5 866.92,190.5 1196.94,0 91.28,-52.7 157.28,-114.5 198.04,-180.4 72.24,-116.8 65.3,-246.3 -20.87,-360.7 z m 104.75,291.5 c -32.79,101.6 -117.71,195.1 -247.06,269.7 -169.2,97.7 -394.13,151.5 -633.33,151.5 -239.26,0 -464.19,-53.8 -633.33,-151.5 -129.35,-74.6 -214.33,-168.1 -247.12,-269.7 -10.09,-31.3 -15.25,-63.4 -15.25,-95.9 0,-99.4 48.27,-194.6 138.46,-276.5 4.07,-3.8 8.26,-7.5 12.56,-11.1 32.28,-27.8 69.49,-53.9 111.35,-78.1 21.21,-12.2 43.28,-23.8 66.11,-34.6 4.18,-2 8.37,-3.9 12.55,-5.8 55.1,-25.2 114.67,-46.4 177.52,-63.2 4.18,-1.1 8.36,-2.3 12.55,-3.4 56.82,-14.5 116.22,-25.7 177.45,-33.1 4.19,-0.6 8.37,-1.1 12.56,-1.6 56.88,-6.4 115.3,-9.7 174.59,-9.7 h 2.92 c 4.19,0 8.37,0 12.56,0.1 60.37,0.6 119.72,4.5 177.45,11.9 4.19,0.5 8.38,1 12.56,1.6 61.35,8.2 120.81,20.3 177.51,35.8 4.24,1.1 8.43,2.2 12.56,3.5 63.07,17.9 122.58,40.3 177.46,66.7 4.18,2 8.42,4.1 12.55,6.2 16.34,8.1 32.28,16.7 47.76,25.6 50.06,28.9 93.46,60.7 129.75,94.6 4.31,4 8.49,8 12.56,12.1 78.26,77.8 120,166.6 120,259 0,32.5 -5.16,64.6 -15.25,95.9" style="fill:#ff9d4d;fill-opacity:1;fill-rule:nonzero;stroke:none" id="path3080" transform="matrix(0.133333, 0, 0, -0.133333, 0, 5287.013184)"/>
  <path d="m 7807.44,1966 96.52,-55.7 c -2.18,-1 -4.33,-2.2 -6.43,-3.4 l -52.97,-30.6 -90.21,52.1 29.8,17.2 c 10.66,6.2 18.42,13 23.29,20.4" style="fill:#d1975d;fill-opacity:1;fill-rule:nonzero;stroke:none" id="path3082" transform="matrix(0.133333, 0, 0, -0.133333, 0, 5287.013184)"/>
  <path d="m 7587.5,2003.1 12.56,7.3 6.12,3.6 0.04,-0.1 34.76,20.1 c 2.01,1.2 4.23,2 6.33,3.1 7.09,3.4 14.56,6.3 22.7,8.3 11.24,2.7 23.51,3.9 36.75,3.7 25.06,-0.5 48.68,-6.9 70.81,-19.4 l 1.61,-1 c 4.01,-2.2 7.63,-4.6 10.95,-7 15.83,-11.3 23.62,-23.4 23.39,-36.2 -0.11,-6.9 -2.12,-13.4 -6.07,-19.5 -3.91,-5.9 -9.7,-11.6 -17.32,-16.7 -1.89,-1.2 -3.84,-2.5 -5.96,-3.7 l -6.6,-3.8 -23.22,-13.4 -71.93,-41.5 h -0.01 l -19.64,-11.4 -30.89,-17.8 -17.14,9.9 -19.16,11.1 -8.08,4.6 -36.22,20.9 -67.52,39 18.75,10.9 31.76,18.3 h -0.01 z m 310.02,-96.2 c 2.12,1.2 4.24,2.4 6.42,3.4 8.26,4 17.32,6.9 27.07,8.8 11.81,2.3 24.02,3.1 36.58,2.7 l 1.94,-0.1 c 3.56,-0.2 7.06,-0.5 10.61,-0.8 9.69,-1 19.44,-2.8 29.13,-5.4 13.19,-3.5 25.11,-8.3 35.55,-14.3 10.49,-6.1 18.46,-12.9 24.02,-20.5 5.51,-7.7 8.37,-15.5 8.66,-23.3 0.28,-7.8 -2.18,-15.4 -7.4,-22.9 -3.21,-4.5 -7.39,-8.8 -12.56,-12.8 -2.54,-2.1 -5.44,-4 -8.48,-5.9 l -2.57,-1.6 -45.57,-26.3 -1.63,-0.9 -19.15,-11.1 -12.55,-7.2 -40.2,-23.2 -50.55,-29.2 -154.74,89.3 16.51,9.6 34,19.6 h -0.01 l 4.97,2.9 12.56,7.2 54.41,31.4 z m 198.61,-175.8 h 0.01 l 98.93,-57.1 59.13,34.1 -99.17,57.3 2.63,1.7 c 4.35,2.7 8.54,5.5 12.55,8.3 14.05,9.9 26.15,20.2 36.41,30.9 16.28,17.1 26.77,34.3 31.42,51.6 4.7,17.4 2.64,34.3 -6.19,50.9 -8.83,16.6 -25.63,32.1 -50.46,46.4 -3.72,2.1 -7.45,4.2 -11.18,6.1 -4.13,2.2 -8.32,4.2 -12.55,6.2 -31.94,14.8 -65.94,23.5 -102.06,26.4 -25.4,1.9 -50.52,1.2 -75.46,-2.2 -4.18,-0.6 -8.37,-1.3 -12.55,-2.1 -15.2,-2.6 -30.28,-6.3 -45.25,-11 15.43,22.9 17.78,45.7 7.06,68.6 -10.78,22.7 -30.5,42.4 -59.17,59 -18.23,10.5 -39.45,19.1 -63.76,25.8 -24.25,6.6 -49.19,10.7 -74.88,12.1 -25.63,1.4 -51.15,0 -76.54,-4.5 -25.4,-4.5 -48.28,-12.6 -68.69,-24.4 l -18.64,-10.8 -95.3,55.1 -59.14,-34.2 95.27,-55 -71.89,-41.6 -95.32,55.1 -59.14,-34.2 95.28,-55 -105.55,-60.9 125.56,-72.5 12.56,-7.3 177.45,-102.4 12.56,-7.3 177.51,-102.5 12.56,-7.2 69.32,-40.1 105.61,61 h 0.01 l 98.91,-57.1 59.14,34.1 -98.92,57.1 0.03,0.1 71.9,41.5" style="fill:#ff9d4d;fill-opacity:1;fill-rule:nonzero;stroke:none" id="path3084" transform="matrix(0.133333, 0, 0, -0.133333, 0, 5287.013184)"/>
  <path d="m 6866.66,1613.4 v -207.5 c -4.42,5.6 -8.54,11.1 -12.56,16.8 v 207.5 c 4.02,-5.7 8.2,-11.3 12.56,-16.8" style="fill:#ffe840;fill-opacity:1;fill-rule:nonzero;stroke:none" id="path3086" transform="matrix(0.133333, 0, 0, -0.133333, 0, 5287.013184)"/>
  <path d="m 7029.97,1475.8 v -207.5 c -4.24,2.6 -8.43,5.2 -12.56,7.7 v 207.6 c 4.13,-2.6 8.32,-5.2 12.56,-7.8" style="fill:#ffe840;fill-opacity:1;fill-rule:nonzero;stroke:none" id="path3088" transform="matrix(0.133333, 0, 0, -0.133333, 0, 5287.013184)"/>
  <path d="m 7219.98,1384.8 v -207.6 c -4.18,1.5 -8.43,3.1 -12.55,4.8 v 207.5 c 4.12,-1.6 8.37,-3.3 12.55,-4.7" style="fill:#ffe840;fill-opacity:1;fill-rule:nonzero;stroke:none" id="path3090" transform="matrix(0.133333, 0, 0, -0.133333, 0, 5287.013184)"/>
  <path d="m 7410.05,1329.3 v -207.5 c -4.19,0.9 -8.37,1.8 -12.55,2.8 v 207.5 c 4.18,-1 8.36,-1.9 12.55,-2.8" style="fill:#ffe840;fill-opacity:1;fill-rule:nonzero;stroke:none" id="path3092" transform="matrix(0.133333, 0, 0, -0.133333, 0, 5287.013184)"/>
  <path d="m 7600.06,1299.4 v -207.5 c -4.19,0.3 -8.37,0.8 -12.56,1.2 v 207.5 c 4.19,-0.4 8.37,-0.9 12.56,-1.2" style="fill:#ffe840;fill-opacity:1;fill-rule:nonzero;stroke:none" id="path3094" transform="matrix(0.133333, 0, 0, -0.133333, 0, 5287.013184)"/>
  <path d="m 7790.13,1290.8 v -207.5 c -4.19,0 -8.37,-0.1 -12.56,-0.1 v 207.5 c 4.19,0 8.37,0.1 12.56,0.1" style="fill:#ffe840;fill-opacity:1;fill-rule:nonzero;stroke:none" id="path3096" transform="matrix(0.133333, 0, 0, -0.133333, 0, 5287.013184)"/>
  <path d="m 7980.14,1302.7 v -207.5 c -4.18,-0.5 -8.37,-1 -12.56,-1.4 v 207.5 c 4.19,0.4 8.38,0.9 12.56,1.4" style="fill:#ffe840;fill-opacity:1;fill-rule:nonzero;stroke:none" id="path3098" transform="matrix(0.133333, 0, 0, -0.133333, 0, 5287.013184)"/>
  <path d="m 8170.21,1336.4 v -207.5 c -4.18,-1.1 -8.37,-2 -12.56,-3 v 207.5 c 4.19,1 8.38,2 12.56,3" style="fill:#ffe840;fill-opacity:1;fill-rule:nonzero;stroke:none" id="path3100" transform="matrix(0.133333, 0, 0, -0.133333, 0, 5287.013184)"/>
  <path d="m 8360.22,1396.6 v -207.5 c -4.18,-1.6 -8.37,-3.3 -12.55,-4.9 v 207.5 c 4.18,1.6 8.37,3.3 12.55,4.9" style="fill:#ffe840;fill-opacity:1;fill-rule:nonzero;stroke:none" id="path3102" transform="matrix(0.133333, 0, 0, -0.133333, 0, 5287.013184)"/>
  <path d="M 8550.29,1495.5 V 1288 c -4.13,-2.7 -8.31,-5.5 -12.56,-8.2 v 207.5 c 4.25,2.7 8.43,5.5 12.56,8.2" style="fill:#ffe840;fill-opacity:1;fill-rule:nonzero;stroke:none" id="path3104" transform="matrix(0.133333, 0, 0, -0.133333, 0, 5287.013184)"/>
  <path d="m 8718.86,1662.8 v -207.5 c -3.96,-6.5 -8.2,-12.9 -12.61,-19.4 v 207.5 c 4.41,6.5 8.59,12.9 12.61,19.4" style="fill:#ffe840;fill-opacity:1;fill-rule:nonzero;stroke:none" id="path3106" transform="matrix(0.133333, 0, 0, -0.133333, 0, 5287.013184)"/>
  <path d="m 3713.63,2820.9 v -229 h -1.09 c -4.7,-58 -24.14,-115.8 -58.31,-171.2 -3.96,-6.4 -8.2,-12.9 -12.61,-19.3 -41.35,-60.3 -100.46,-117.4 -177.46,-168.7 -4.13,-2.8 -8.32,-5.5 -12.56,-8.3 -12.27,-7.8 -25,-15.6 -38.18,-23.2 -43.69,-25.2 -90.36,-47.7 -139.33,-67.4 -4.18,-1.7 -8.37,-3.4 -12.56,-5 -56.53,-22 -115.99,-40.5 -177.45,-55.2 -4.19,-1.1 -8.37,-2.1 -12.56,-3.1 -57.74,-13.4 -117.19,-23.6 -177.51,-30.6 -4.19,-0.6 -8.37,-1.1 -12.55,-1.5 -58.6,-6.5 -118,-10 -177.46,-10.4 -4.19,-0.1 -8.37,-0.1 -12.56,-0.1 -59.4,-0.1 -118.8,2.7 -177.51,8.6 -4.18,0.4 -8.37,0.8 -12.56,1.3 -60.2,6.4 -119.66,15.9 -177.45,28.6 -4.18,0.9 -8.37,1.8 -12.56,2.8 -61.35,14 -120.86,31.6 -177.51,52.6 -4.19,1.6 -8.43,3.1 -12.56,4.8 -55.73,21.3 -108.53,46.2 -157.67,74.6 -6.71,3.9 -13.3,7.8 -19.78,11.8 -4.25,2.5 -8.43,5.1 -12.56,7.7 -74.88,47.3 -134.11,99.9 -177.51,155.7 -4.41,5.5 -8.55,11.1 -12.55,16.7 -45.7,63.6 -71.27,131 -76.72,198.8 h -1.15 v 229 h 60.89 c 5.28,8.5 10.96,17 16.98,25.3 4,5.7 8.19,11.2 12.55,16.8 15.94,20.5 34.06,40.6 54.3,60.1 24.77,23.9 52.69,47.1 83.88,69.2 22.24,15.8 46.16,31.2 71.67,46 400.32,231.1 1049.42,231.1 1449.8,0 25.51,-14.8 49.36,-30.1 71.61,-46 31.13,-22.1 59.11,-45.2 83.88,-69.2 28.44,-27.4 52.7,-56 72.71,-85.2 3.89,-5.7 7.56,-11.3 11.12,-17 h 60.89" style="fill:#ff9d4d;fill-opacity:1;fill-rule:nonzero;stroke:none" id="path3108" transform="matrix(0.133333, 0, 0, -0.133333, 0, 5287.013184)"/>
  <path d="m 2688.5,3211.6 c -262.37,0 -524.72,-57.8 -724.88,-173.3 -25.51,-14.8 -49.43,-30.1 -71.67,-46 -31.19,-22.1 -59.11,-45.3 -83.88,-69.2 -20.24,-19.5 -38.36,-39.6 -54.3,-60.1 -4.36,-5.6 -8.55,-11.2 -12.55,-16.8 -6.02,-8.3 -11.7,-16.8 -16.98,-25.3 h -60.89 v -229 h 1.15 c 5.45,-67.8 31.02,-135.2 76.72,-198.8 4,-5.6 8.14,-11.2 12.55,-16.7 43.4,-55.8 102.63,-108.4 177.51,-155.7 4.13,-2.6 8.31,-5.2 12.56,-7.7 6.48,-4 13.07,-7.9 19.78,-11.8 49.14,-28.4 101.94,-53.3 157.67,-74.6 4.13,-1.6 8.37,-3.2 12.56,-4.8 56.65,-21 116.16,-38.6 177.51,-52.6 4.19,-1 8.37,-1.9 12.56,-2.8 57.79,-12.7 117.25,-22.2 177.45,-28.6 4.19,-0.5 8.38,-0.9 12.56,-1.3 57.58,-5.8 115.82,-8.6 174.06,-8.6 1.16,0 2.3,0 3.45,0 4.19,0 8.37,0 12.56,0.1 59.46,0.4 118.86,3.9 177.46,10.4 4.18,0.4 8.36,0.9 12.55,1.5 60.32,7 119.77,17.2 177.51,30.6 4.19,1 8.37,2 12.56,3.1 61.46,14.7 120.92,33.2 177.45,55.2 4.19,1.6 8.38,3.3 12.56,5 48.97,19.7 95.64,42.2 139.33,67.4 13.18,7.6 25.91,15.4 38.18,23.2 4.24,2.8 8.43,5.5 12.56,8.3 77,51.3 136.11,108.4 177.45,168.7 4.42,6.4 8.66,12.9 12.62,19.3 34.17,55.4 53.61,113.2 58.31,171.2 h 1.09 v 27.8 0.1 201.1 h -60.89 c -3.56,5.7 -7.23,11.3 -11.13,17 -20.01,29.2 -44.26,57.8 -72.7,85.2 -24.77,24 -52.75,47.1 -83.88,69.2 -22.25,15.9 -46.1,31.2 -71.61,46 -200.19,115.5 -462.56,173.3 -724.92,173.3 z m 0,-12.6 c 271.66,0 526.88,-60.9 718.63,-171.6 24.96,-14.4 48.71,-29.7 70.62,-45.3 30.39,-21.6 58.12,-44.5 82.44,-68 27.49,-26.6 51.39,-54.6 71.1,-83.4 3.54,-5.1 7.08,-10.5 10.8,-16.4 l 3.7,-5.9 h 6.95 48.32 v -188.7 -15.2 h -0.11 l -0.93,-11.6 c -4.59,-56.5 -23.58,-112.2 -56.51,-165.6 -3.63,-6 -7.75,-12.3 -12.26,-18.8 -41.36,-60.3 -99.93,-116 -174.06,-165.4 -4.08,-2.7 -8.23,-5.4 -12.36,-8.1 -12.06,-7.7 -24.74,-15.4 -37.69,-22.9 -42.46,-24.5 -88.8,-47 -137.68,-66.7 l -0.6,-0.2 c -3.94,-1.5 -7.88,-3.1 -11.9,-4.7 -55.49,-21.6 -114.64,-40 -176.05,-54.8 -4.08,-1 -8.16,-2 -12.23,-2.9 -56.57,-13.2 -115.83,-23.4 -176.21,-30.5 -4.07,-0.5 -8.15,-1 -12.4,-1.4 -58.08,-6.4 -117.36,-9.9 -176.24,-10.4 -4.13,0 -8.26,-0.1 -12.41,-0.1 h -3.43 c -57.97,0 -116.11,2.9 -173.03,8.7 -4.07,0.3 -8.13,0.7 -12.26,1.2 -59.73,6.3 -118.97,15.9 -176.1,28.4 -4.13,0.9 -8.26,1.8 -12.44,2.8 -61.43,14 -120.62,31.5 -175.95,52.1 l -1.52,0.6 c -3.58,1.3 -7.19,2.6 -10.9,4.1 -55.49,21.3 -107.93,46.1 -155.86,73.8 -6.63,3.8 -13.14,7.7 -19.56,11.6 -4.2,2.5 -8.35,5.1 -12.38,7.6 -72.28,45.7 -130.92,97.1 -174.38,152.9 -3.88,4.9 -7.87,10.2 -12.19,16.2 -44.03,61.4 -69.07,126.1 -74.4,192.5 l -0.93,11.6 h -0.18 v 203.9 h 48.33 6.99 l 3.68,5.9 c 5.07,8.2 10.61,16.4 16.56,24.6 3.66,5.2 7.65,10.5 12.22,16.4 15.5,19.9 33.37,39.7 53.1,58.8 24.68,23.8 52.42,46.7 82.44,68 22.15,15.7 45.93,31 70.67,45.3 191.73,110.7 446.94,171.6 718.6,171.6" style="fill:#ffe840;fill-opacity:1;fill-rule:nonzero;stroke:none" id="path3110" transform="matrix(0.133333, 0, 0, -0.133333, 0, 5287.013184)"/>
  <path d="m 3413.39,3245.8 c 400.35,-231.2 400.35,-605.9 0,-837.1 -400.34,-231.1 -1049.43,-231.1 -1449.78,0 -400.34,231.2 -400.34,605.9 0,837.1 400.35,231.1 1049.44,231.1 1449.78,0" style="fill:#ffe840;fill-opacity:1;fill-rule:nonzero;stroke:none" id="path3112" transform="matrix(0.133333, 0, 0, -0.133333, 0, 5287.013184)"/>
  <path d="m 3464.16,2631.7 c -4.01,-5.4 -8.2,-10.7 -12.56,-16 -40.25,-48.5 -95.12,-93.9 -164.61,-134 -4.24,-2.5 -8.54,-4.9 -12.9,-7.3 -4.13,-2.3 -8.31,-4.6 -12.56,-6.8 -54.64,-29.1 -114.32,-53.2 -177.45,-72.4 -4.13,-1.3 -8.37,-2.6 -12.56,-3.8 -56.99,-16.6 -116.56,-29.4 -177.51,-38.1 -4.13,-0.6 -8.31,-1.2 -12.55,-1.7 -58.32,-7.9 -117.83,-12.1 -177.46,-12.7 -4.19,0 -8.37,-0.1 -12.56,-0.1 -59.51,-0.1 -119.08,3.3 -177.51,10.4 -4.18,0.6 -8.43,1.1 -12.56,1.6 -60.77,7.9 -120.34,19.7 -177.45,35.4 -4.18,1.2 -8.43,2.3 -12.56,3.5 -62.84,18 -122.53,40.8 -177.51,68.4 -4.24,2.1 -8.43,4.3 -12.56,6.4 -10.6,5.5 -21.04,11.3 -31.25,17.2 -59.45,34.3 -108.18,72.5 -146.2,113.2 -4.3,4.6 -8.49,9.3 -12.56,14 -103.32,119.6 -116.45,258.8 -39.33,383.4 40.82,66 106.82,127.8 198.09,180.5 329.97,190.5 866.92,190.5 1196.95,0 91.28,-52.7 157.27,-114.5 198.04,-180.5 72.24,-116.7 65.31,-246.3 -20.87,-360.6 z m 104.75,291.4 c -32.79,101.6 -117.71,195.1 -247.06,269.8 -169.2,97.7 -394.13,151.5 -633.33,151.5 -239.27,0 -464.19,-53.8 -633.33,-151.5 -129.36,-74.7 -214.33,-168.2 -247.12,-269.8 -10.09,-31.3 -15.25,-63.3 -15.25,-95.8 0,-99.5 48.27,-194.6 138.46,-276.6 4.07,-3.8 8.26,-7.4 12.56,-11 32.28,-27.9 69.49,-53.9 111.35,-78.1 21.21,-12.2 43.28,-23.8 66.1,-34.6 4.19,-2 8.37,-4 12.56,-5.9 55.1,-25.2 114.67,-46.3 177.51,-63.1 4.19,-1.2 8.38,-2.3 12.56,-3.4 56.82,-14.6 116.22,-25.8 177.45,-33.2 4.19,-0.5 8.38,-1.1 12.56,-1.5 56.88,-6.5 115.3,-9.8 174.59,-9.8 h 2.92 c 4.19,0 8.37,0.1 12.56,0.2 60.38,0.5 119.72,4.5 177.46,11.8 4.18,0.5 8.36,1.1 12.55,1.7 61.35,8.2 120.81,20.2 177.51,35.7 4.25,1.2 8.43,2.3 12.56,3.6 63.07,17.8 122.59,40.2 177.45,66.7 4.19,1.9 8.43,4 12.56,6.1 16.34,8.2 32.28,16.7 47.76,25.7 50.05,28.9 93.46,60.6 129.75,94.5 4.3,4 8.49,8 12.56,12.1 78.26,77.9 120.01,166.6 120.01,259.1 0,32.5 -5.17,64.5 -15.26,95.8" style="fill:#ff9d4d;fill-opacity:1;fill-rule:nonzero;stroke:none" id="path3114" transform="matrix(0.133333, 0, 0, -0.133333, 0, 5287.013184)"/>
  <path d="m 2721.3,2910.7 96.54,-55.7 c -2.19,-1.1 -4.34,-2.2 -6.44,-3.4 l -52.97,-30.6 -90.21,52.1 29.8,17.2 c 10.66,6.1 18.42,12.9 23.28,20.4" style="fill:#d1975d;fill-opacity:1;fill-rule:nonzero;stroke:none" id="path3116" transform="matrix(0.133333, 0, 0, -0.133333, 0, 5287.013184)"/>
  <path d="m 2501.37,2947.8 12.56,7.3 6.12,3.5 h 0.03 l 34.77,20.1 c 2.02,1.1 4.23,2 6.33,3 7.09,3.4 14.56,6.4 22.7,8.3 11.24,2.7 23.51,3.9 36.75,3.7 25.06,-0.5 48.68,-6.9 70.81,-19.4 l 1.61,-0.9 c 4.01,-2.3 7.62,-4.6 10.95,-7.1 15.82,-11.3 23.62,-23.3 23.39,-36.1 -0.11,-7 -2.12,-13.4 -6.08,-19.5 -3.89,-6 -9.68,-11.6 -17.31,-16.7 -1.89,-1.3 -3.84,-2.5 -5.96,-3.7 l -6.6,-3.8 -23.22,-13.4 -71.93,-41.6 h -0.02 l -19.62,-11.3 -30.9,-17.8 -17.14,9.9 -19.16,11 -8.08,4.7 -36.22,20.9 -67.52,39 18.75,10.8 31.76,18.3 -0.01,0.1 z m 310.02,-96.2 c 2.12,1.2 4.24,2.3 6.42,3.3 8.26,4 17.32,7 27.06,8.8 11.81,2.3 24.03,3.2 36.59,2.7 h 1.94 c 3.56,-0.2 7.05,-0.5 10.61,-0.8 9.69,-1.1 19.44,-2.9 29.12,-5.4 13.19,-3.5 25.12,-8.3 35.56,-14.4 10.49,-6 18.46,-12.9 24.02,-20.5 5.5,-7.7 8.37,-15.4 8.66,-23.2 0.29,-7.8 -2.18,-15.4 -7.4,-22.9 -3.21,-4.6 -7.4,-8.9 -12.55,-12.9 -2.55,-2 -5.44,-4 -8.49,-5.8 l -2.57,-1.6 -45.57,-26.3 -1.63,-1 -19.15,-11.1 -12.55,-7.2 -40.2,-23.2 -50.55,-29.2 -154.74,89.4 16.51,9.5 34,19.6 h -0.01 l 4.97,2.9 12.56,7.2 54.41,31.4 z M 3010,2675.7 h 0.01 l 98.93,-57.1 59.13,34.2 -99.17,57.2 2.62,1.7 c 4.36,2.7 8.55,5.5 12.56,8.3 14.05,10 26.14,20.3 36.41,31 16.28,17 26.77,34.2 31.42,51.6 4.7,17.4 2.64,34.3 -6.19,50.9 -8.84,16.5 -25.63,32 -50.46,46.3 -3.73,2.2 -7.45,4.2 -11.18,6.2 -4.13,2.2 -8.31,4.2 -12.56,6.1 -31.94,14.8 -65.93,23.6 -102.06,26.4 -25.39,2 -50.51,1.2 -75.45,-2.2 -4.19,-0.6 -8.37,-1.3 -12.55,-2 -15.2,-2.7 -30.28,-6.4 -45.24,-11.1 15.42,23 17.77,45.8 7.05,68.6 -10.78,22.8 -30.51,42.4 -59.17,59 -18.24,10.5 -39.45,19.1 -63.76,25.8 -24.26,6.7 -49.2,10.7 -74.88,12.2 -25.63,1.4 -51.14,-0.1 -76.54,-4.6 -25.4,-4.4 -48.28,-12.5 -68.69,-24.3 l -18.63,-10.8 -95.32,55 -59.13,-34.1 95.27,-55 -71.9,-41.6 v 0 l -95.31,55 -59.14,-34.1 95.27,-55 -105.54,-61 125.56,-72.5 12.56,-7.2 177.45,-102.5 12.56,-7.3 177.51,-102.4 12.56,-7.3 69.32,-40 105.61,60.9 h 0.01 l 98.92,-57.1 59.13,34.2 -98.92,57.1 h 0.03 l 71.9,41.5" style="fill:#ff9d4d;fill-opacity:1;fill-rule:nonzero;stroke:none" id="path3118" transform="matrix(0.133333, 0, 0, -0.133333, 0, 5287.013184)"/>
  <path d="m 1780.53,2558 v -207.4 c -4.42,5.5 -8.55,11.1 -12.56,16.7 v 207.5 c 4.01,-5.6 8.2,-11.2 12.56,-16.8" style="fill:#ffe840;fill-opacity:1;fill-rule:nonzero;stroke:none" id="path3120" transform="matrix(0.133333, 0, 0, -0.133333, 0, 5287.013184)"/>
  <path d="M 1943.84,2420.5 V 2213 c -4.25,2.5 -8.43,5.1 -12.56,7.7 v 207.6 c 4.13,-2.7 8.31,-5.3 12.56,-7.8" style="fill:#ffe840;fill-opacity:1;fill-rule:nonzero;stroke:none" id="path3122" transform="matrix(0.133333, 0, 0, -0.133333, 0, 5287.013184)"/>
  <path d="m 2133.85,2329.4 v -207.6 c -4.19,1.6 -8.43,3.1 -12.56,4.8 v 207.5 c 4.13,-1.6 8.37,-3.2 12.56,-4.7" style="fill:#ffe840;fill-opacity:1;fill-rule:nonzero;stroke:none" id="path3124" transform="matrix(0.133333, 0, 0, -0.133333, 0, 5287.013184)"/>
  <path d="m 2323.92,2273.9 v -207.5 c -4.18,0.9 -8.37,1.8 -12.56,2.8 v 207.6 c 4.19,-1 8.38,-2 12.56,-2.9" style="fill:#ffe840;fill-opacity:1;fill-rule:nonzero;stroke:none" id="path3126" transform="matrix(0.133333, 0, 0, -0.133333, 0, 5287.013184)"/>
  <path d="m 2513.93,2244 v -207.5 c -4.18,0.4 -8.37,0.8 -12.56,1.3 v 207.5 c 4.19,-0.5 8.38,-0.9 12.56,-1.3" style="fill:#ffe840;fill-opacity:1;fill-rule:nonzero;stroke:none" id="path3128" transform="matrix(0.133333, 0, 0, -0.133333, 0, 5287.013184)"/>
  <path d="M 2704,2235.5 V 2028 c -4.19,-0.1 -8.37,-0.1 -12.56,-0.1 v 207.5 c 4.19,0 8.37,0 12.56,0.1" style="fill:#ffe840;fill-opacity:1;fill-rule:nonzero;stroke:none" id="path3130" transform="matrix(0.133333, 0, 0, -0.133333, 0, 5287.013184)"/>
  <path d="m 2894.01,2247.4 v -207.5 c -4.19,-0.6 -8.37,-1.1 -12.55,-1.5 v 207.5 c 4.18,0.4 8.36,0.9 12.55,1.5" style="fill:#ffe840;fill-opacity:1;fill-rule:nonzero;stroke:none" id="path3132" transform="matrix(0.133333, 0, 0, -0.133333, 0, 5287.013184)"/>
  <path d="m 3084.08,2281.1 v -207.5 c -4.19,-1.1 -8.37,-2.1 -12.56,-3.1 v 207.6 c 4.19,1 8.37,1.9 12.56,3" style="fill:#ffe840;fill-opacity:1;fill-rule:nonzero;stroke:none" id="path3134" transform="matrix(0.133333, 0, 0, -0.133333, 0, 5287.013184)"/>
  <path d="m 3274.09,2341.3 v -207.5 c -4.18,-1.7 -8.37,-3.4 -12.56,-5 v 207.6 c 4.19,1.5 8.38,3.2 12.56,4.9" style="fill:#ffe840;fill-opacity:1;fill-rule:nonzero;stroke:none" id="path3136" transform="matrix(0.133333, 0, 0, -0.133333, 0, 5287.013184)"/>
  <path d="m 3464.16,2440.2 v -207.5 c -4.13,-2.8 -8.32,-5.5 -12.56,-8.3 V 2432 c 4.24,2.7 8.43,5.4 12.56,8.2" style="fill:#ffe840;fill-opacity:1;fill-rule:nonzero;stroke:none" id="path3138" transform="matrix(0.133333, 0, 0, -0.133333, 0, 5287.013184)"/>
  <path d="M 3632.73,2607.5 V 2400 c -3.96,-6.5 -8.2,-13 -12.62,-19.4 v 207.5 c 4.42,6.4 8.6,12.9 12.62,19.4" style="fill:#ffe840;fill-opacity:1;fill-rule:nonzero;stroke:none" id="path3140" transform="matrix(0.133333, 0, 0, -0.133333, 0, 5287.013184)"/>
</svg>