<?xml version="1.0" encoding="utf-8"?>
<svg viewBox="0 3176.587 1142.621 678.787" width="1142.621" height="678.787" xmlns="http://www.w3.org/2000/svg">
  <defs>
    <clipPath clipPathUnits="userSpaceOnUse" id="clipPath2212">
      <path d="m 3125.59,13649.2 v 849.2 h 540.46 c 39.47,26.8 81.01,52.9 124.8,78.1 887.03,512.2 2325.17,512.2 3212.19,0 43.8,-25.2 85.33,-51.3 124.81,-78.1 h 540.46 v -889.2 h -1.19 c -16.96,-322.1 -238.23,-641.3 -664.08,-887.2 -887.02,-512.1 -2325.16,-512.1 -3212.19,0 -425.85,245.9 -647.12,565.1 -664.08,887.2 h -1.18 z" id="path2210"/>
    </clipPath>
    <linearGradient x1="0" y1="0" x2="1" y2="0" gradientUnits="userSpaceOnUse" gradientTransform="matrix(4542.72,0,0,-4542.72,3125.59,13649.3)" spreadMethod="pad" id="linearGradient2218">
      <stop style="stop-opacity:1;stop-color:#2e256b" offset="0" id="stop2214"/>
      <stop style="stop-opacity:1;stop-color:#5a3087" offset="1" id="stop2216"/>
    </linearGradient>
    <clipPath clipPathUnits="userSpaceOnUse" id="clipPath2230">
      <path d="m 3790.85,15425.7 c -887.02,-512.1 -887.02,-1342.4 0,-1854.6 887.03,-512.1 2325.17,-512.1 3212.19,0 887.02,512.2 887.02,1342.5 0,1854.6 -887.02,512.1 -2325.16,512.1 -3212.19,0 z" id="path2228"/>
    </clipPath>
    <linearGradient x1="0" y1="0" x2="1" y2="0" gradientUnits="userSpaceOnUse" gradientTransform="matrix(4542.72,0,0,-4542.72,3125.59,14498.4)" spreadMethod="pad" id="linearGradient2236">
      <stop style="stop-opacity:1;stop-color:#483ca6" offset="0" id="stop2232"/>
      <stop style="stop-opacity:1;stop-color:#59278f" offset="1" id="stop2234"/>
    </linearGradient>
    <clipPath clipPathUnits="userSpaceOnUse" id="clipPath2248">
      <path d="m 4009.28,15299.6 c -766.38,-442.5 -766.38,-1159.9 0,-1602.4 766.39,-442.4 2008.94,-442.4 2775.33,0 766.39,442.5 766.39,1159.9 0,1602.4 -766.39,442.5 -2008.94,442.5 -2775.33,0 z" id="path2246"/>
    </clipPath>
    <linearGradient x1="0" y1="0" x2="1" y2="0" gradientUnits="userSpaceOnUse" gradientTransform="matrix(3924.91,0,0,-3924.91,3434.49,14498.4)" spreadMethod="pad" id="linearGradient2254">
      <stop style="stop-opacity:1;stop-color:#7fc1e2" offset="0" id="stop2250"/>
      <stop style="stop-opacity:1;stop-color:#304d87" offset="1" id="stop2252"/>
    </linearGradient>
    <clipPath clipPathUnits="userSpaceOnUse" id="clipPath2268">
      <path d="m 3869.47,13276.6 c -37.74,60.5 -90.47,115.1 -148.86,148.8 -57.22,33.1 -109,39.8 -146.51,23.9 -6.49,-2.6 -12.5,-6.1 -18.05,-10.1 l -1.88,-1.4 L 42.9375,11416 v -253.5 c 37.8633,-71.2 97.5545,-137.5 164.5505,-176.1 60.285,-34.8 114.66,-40.5 152.528,-21.2 l 8.375,4.9 3501.079,2015.5 v 2 c 1.3,0.6 2.48,1.1 3.66,1.7 l 8.37,4.9 c 29.14,18.8 46.6,54.3 46.6,104 0,56.2 -22.41,120.1 -58.63,178.4 z" id="path2266"/>
    </clipPath>
    <linearGradient x1="0" y1="0" x2="1" y2="0" gradientUnits="userSpaceOnUse" gradientTransform="matrix(3885.16,0,0,-3885.16,42.9373,12205.9)" spreadMethod="pad" id="linearGradient2274">
      <stop style="stop-opacity:1;stop-color:#6a5ebf" offset="0" id="stop2270"/>
      <stop style="stop-opacity:1;stop-color:#6e3aa5" offset="1" id="stop2272"/>
    </linearGradient>
  </defs>
  <path d="m 8155.62,12413.4 c 552.05,-318.7 552.05,-835.5 0,-1154.2 -552.05,-318.7 -1447.09,-318.7 -1999.15,0 -552.04,318.7 -552.04,835.5 0,1154.2 552.06,318.7 1447.1,318.7 1999.15,0" style="fill:#e3dfea;fill-opacity:1;fill-rule:nonzero;stroke:none" id="path2202" transform="matrix(0.133333, 0, 0, -0.133333, 0, 5287.013184)"/>
  <path d="m 414.988,10984.1 3192.482,-246.8 2592.56,1480.1 -392.28,718 -2134.67,-62.9 -3258.092,-1888.4" style="fill:#e3dfea;fill-opacity:1;fill-rule:nonzero;stroke:none" id="path2204" transform="matrix(0.133333, 0, 0, -0.133333, 0, 5287.013184)"/>
  <g id="g2206" transform="matrix(0.133333, 0, 0, -0.133333, 0, 5287.013184)">
    <g id="g2208" clip-path="url(#clipPath2212)">
      <path d="m 3125.59,13649.2 v 849.2 h 540.46 c 39.47,26.8 81.01,52.9 124.8,78.1 887.03,512.2 2325.17,512.2 3212.19,0 43.8,-25.2 85.33,-51.3 124.81,-78.1 h 540.46 v -889.2 h -1.19 c -16.96,-322.1 -238.23,-641.3 -664.08,-887.2 -887.02,-512.1 -2325.16,-512.1 -3212.19,0 -425.85,245.9 -647.12,565.1 -664.08,887.2 h -1.18 v 40" style="fill:url(#linearGradient2218);fill-opacity:1;fill-rule:nonzero;stroke:none" id="path2220"/>
    </g>
  </g>
  <path d="m 3144.9,13615.8 c 0.66,-1.7 1.06,-3.6 1.16,-5.6 17.29,-328.3 249.71,-637.8 654.45,-871.5 880.28,-508.2 2312.6,-508.2 3192.87,0 404.74,233.7 637.16,543.2 654.45,871.5 0.1,2 0.5,3.9 1.16,5.6 v 863.3 h -521.15 c -3.86,0 -7.64,1.2 -10.84,3.3 -39.61,26.9 -81.21,52.9 -123.62,77.4 -880.27,508.2 -2312.59,508.2 -3192.87,0 -42.4,-24.5 -83.99,-50.5 -123.62,-77.4 -3.2,-2.1 -6.97,-3.3 -10.84,-3.3 H 3144.9 Z m 2252.04,-1296.3 c -585.14,0 -1170.28,128.6 -1615.74,385.8 -413.74,238.8 -652.59,556.9 -673.34,896.2 -1.02,2.3 -1.59,4.9 -1.59,7.7 v 889.2 c 0,10.7 8.65,19.3 19.32,19.3 h 534.54 c 38.91,26.2 79.61,51.6 121.07,75.6 890.92,514.3 2340.57,514.3 3231.5,0 41.46,-24 82.16,-49.4 121.06,-75.6 h 534.55 c 10.66,0 19.31,-8.6 19.31,-19.3 v -889.2 c 0,-2.8 -0.56,-5.4 -1.58,-7.7 -20.76,-339.3 -259.61,-657.4 -673.34,-896.2 -445.47,-257.2 -1030.61,-385.8 -1615.76,-385.8" style="fill:#bf89ef;fill-opacity:1;fill-rule:nonzero;stroke:none" id="path2222" transform="matrix(0.133333, 0, 0, -0.133333, 0, 5287.013184)"/>
  <g id="g2224" transform="matrix(0.133333, 0, 0, -0.133333, 0, 5287.013184)">
    <g id="g2226" clip-path="url(#clipPath2230)">
      <path d="m 3790.85,15425.7 c -887.02,-512.1 -887.02,-1342.4 0,-1854.6 887.03,-512.1 2325.17,-512.1 3212.19,0 887.02,512.2 887.02,1342.5 0,1854.6 -887.02,512.1 -2325.16,512.1 -3212.19,0" style="fill:url(#linearGradient2236);fill-opacity:1;fill-rule:nonzero;stroke:none" id="path2238"/>
    </g>
  </g>
  <path d="m 5396.94,15790.1 c -578.14,0 -1156.29,-127 -1596.43,-381.1 -422.77,-244.1 -655.6,-567.5 -655.6,-910.6 0,-343.1 232.83,-666.4 655.6,-910.5 880.28,-508.3 2312.6,-508.3 3192.87,0 422.77,244.1 655.6,567.4 655.6,910.5 0,343.1 -232.83,666.5 -655.6,910.6 -440.14,254.1 -1018.29,381.1 -1596.44,381.1 z m 0,-2621.5 c -585.14,0 -1170.28,128.6 -1615.74,385.8 -435.24,251.3 -674.93,586.5 -674.93,944 0,357.5 239.69,692.7 674.93,944 890.92,514.4 2340.57,514.4 3231.5,0 435.23,-251.3 674.92,-586.5 674.92,-944 0,-357.5 -239.69,-692.7 -674.92,-944 -445.47,-257.2 -1030.61,-385.8 -1615.76,-385.8" style="fill:#bf89ef;fill-opacity:1;fill-rule:nonzero;stroke:none" id="path2240" transform="matrix(0.133333, 0, 0, -0.133333, 0, 5287.013184)"/>
  <g id="g2242" transform="matrix(0.133333, 0, 0, -0.133333, 0, 5287.013184)">
    <g id="g2244" clip-path="url(#clipPath2248)">
      <path d="m 4009.28,15299.6 c -766.38,-442.5 -766.38,-1159.9 0,-1602.4 766.39,-442.4 2008.94,-442.4 2775.33,0 766.39,442.5 766.39,1159.9 0,1602.4 -766.39,442.5 -2008.94,442.5 -2775.33,0" style="fill:url(#linearGradient2254);fill-opacity:1;fill-rule:nonzero;stroke:none" id="path2256"/>
    </g>
  </g>
  <path d="m 4100.15,15113.9 c 0,-97 262.19,-175.6 585.62,-175.6 323.43,0 585.62,78.6 585.62,175.6 0,97 -262.19,175.6 -585.62,175.6 -323.43,0 -585.62,-78.6 -585.62,-175.6" style="fill:#ffffff;fill-opacity:1;fill-rule:nonzero;stroke:none" id="path2258" transform="matrix(0.133333, 0, 0, -0.133333, 0, 5287.013184)"/>
  <path d="m 3869.47,13276.6 c -37.74,60.5 -90.47,115.1 -148.86,148.8 -57.22,33.1 -109,39.8 -146.51,23.9 -6.49,-2.6 -12.5,-6.1 -18.05,-10.1 l -1.88,-1.4 L 42.9375,11416 v -253.5 c 37.8633,-71.2 97.5545,-137.5 164.5505,-176.1 60.285,-34.8 114.66,-40.5 152.528,-21.2 l 8.375,4.9 3501.079,2015.5 v 2 c 1.3,0.6 2.48,1.1 3.66,1.7 l 8.37,4.9 c 29.14,18.8 46.6,54.3 46.6,104 0,56.2 -22.41,120.1 -58.63,178.4" style="fill:#ffd071;fill-opacity:1;fill-rule:nonzero;stroke:none" id="path2260" transform="matrix(0.133333, 0, 0, -0.133333, 0, 5287.013184)"/>
  <g id="g2262" transform="matrix(0.133333, 0, 0, -0.133333, 0, 5287.013184)">
    <g id="g2264" clip-path="url(#clipPath2268)">
      <path d="m 3869.47,13276.6 c -37.74,60.5 -90.47,115.1 -148.86,148.8 -57.22,33.1 -109,39.8 -146.51,23.9 -6.49,-2.6 -12.5,-6.1 -18.05,-10.1 l -1.88,-1.4 L 42.9375,11416 v -253.5 c 37.8633,-71.2 97.5545,-137.5 164.5505,-176.1 60.285,-34.8 114.66,-40.5 152.528,-21.2 l 8.375,4.9 3501.079,2015.5 v 2 c 1.3,0.6 2.48,1.1 3.66,1.7 l 8.37,4.9 c 29.14,18.8 46.6,54.3 46.6,104 0,56.2 -22.41,120.1 -58.63,178.4" style="fill:url(#linearGradient2274);fill-opacity:1;fill-rule:nonzero;stroke:none" id="path2276"/>
    </g>
  </g>
  <path d="m 0,11313.6 c 0,-47.6 16.043,-100.6 42.9375,-151.1 37.8672,-71.2 97.5545,-137.5 164.5585,-176.1 60.277,-34.8 114.656,-40.5 152.52,-21.2 l 8.379,4.9 c 29.132,18.8 46.593,54.4 46.593,104 0,114.6 -92.953,261.1 -207.492,327.2 -67.004,38.7 -126.6913,41.3 -164.5585,13.8 C 16.043,11395.7 0,11361.1 0,11313.6" style="fill:#223954;fill-opacity:1;fill-rule:nonzero;stroke:none" id="path2278" transform="matrix(0.133333, 0, 0, -0.133333, 0, 5287.013184)"/>
  <path d="m 0,11313.6 c 0,-47.6 16.043,-100.6 42.9375,-151.1 37.8672,-71.2 97.5545,-137.5 164.5585,-176.1 60.277,-34.8 114.656,-40.5 152.52,-21.2 l 8.379,4.9 c 29.132,18.8 46.593,54.4 46.593,104 0,114.6 -92.953,261.1 -207.492,327.2 -67.004,38.7 -126.6913,41.3 -164.5585,13.8 C 16.043,11395.7 0,11361.1 0,11313.6" style="fill:#634d99;fill-opacity:1;fill-rule:nonzero;stroke:none" id="path2280" transform="matrix(0.133333, 0, 0, -0.133333, 0, 5287.013184)"/>
  <path d="m 8233.56,12141 v -293.9 h -1.4 c -6.03,-74.5 -30.97,-148.6 -74.82,-219.6 -5.07,-8.4 -10.52,-16.7 -16.19,-24.9 -53.04,-77.3 -128.89,-150.6 -227.7,-216.5 -5.3,-3.5 -10.67,-7 -16.11,-10.6 -15.74,-10 -32.08,-20 -49,-29.8 -56.06,-32.3 -115.95,-61.2 -178.78,-86.5 -5.37,-2.1 -10.74,-4.2 -16.11,-6.3 -72.54,-28.3 -148.84,-52 -227.7,-70.9 -5.37,-1.4 -10.75,-2.7 -16.12,-3.9 -74.08,-17.2 -150.38,-30.3 -227.77,-39.4 -5.38,-0.7 -10.75,-1.3 -16.11,-1.8 -75.19,-8.3 -151.41,-12.8 -227.71,-13.4 -5.37,-0.1 -10.74,-0.2 -16.11,-0.2 -76.22,-0.1 -152.44,3.6 -227.77,11.1 -5.38,0.5 -10.75,1.1 -16.12,1.7 -77.25,8.1 -153.54,20.4 -227.7,36.7 -5.37,1.2 -10.75,2.3 -16.12,3.6 -78.72,17.9 -155.08,40.4 -227.77,67.5 -5.37,2 -10.82,4 -16.11,6.1 -71.52,27.4 -139.28,59.3 -202.33,95.7 -8.61,5 -17.06,10.1 -25.38,15.1 -5.44,3.3 -10.81,6.6 -16.11,10 -96.09,60.7 -172.08,128.2 -227.77,199.7 -5.67,7.1 -10.97,14.3 -16.12,21.5 -58.64,81.7 -91.45,168.1 -98.44,255.1 h -1.47 v 293.9 h 78.13 c 6.77,10.9 14.06,21.7 21.78,32.3 5.15,7.3 10.52,14.5 16.12,21.6 20.44,26.3 43.7,52.1 69.67,77.2 31.78,30.7 67.61,60.4 107.63,88.8 28.54,20.3 59.23,40 91.96,58.9 513.68,296.6 1346.58,296.6 1860.33,0 32.74,-18.9 63.34,-38.5 91.89,-58.9 39.95,-28.4 75.85,-58.1 107.64,-88.8 36.49,-35.3 67.61,-71.9 93.28,-109.4 5.01,-7.2 9.71,-14.4 14.27,-21.7 h 78.14" style="fill:#ff9d4d;fill-opacity:1;fill-rule:nonzero;stroke:none" id="path2282" transform="matrix(0.133333, 0, 0, -0.133333, 0, 5287.013184)"/>
  <path d="m 6918.15,12642.2 c -336.66,0 -673.3,-74.1 -930.14,-222.4 -32.73,-18.9 -63.42,-38.6 -91.96,-58.9 -40.02,-28.4 -75.85,-58.1 -107.63,-88.8 -25.97,-25.1 -49.23,-50.9 -69.67,-77.2 -5.6,-7.1 -10.97,-14.3 -16.12,-21.6 -7.72,-10.6 -15.01,-21.4 -21.78,-32.3 h -78.13 v -293.9 h 1.47 c 6.99,-87 39.8,-173.4 98.44,-255.1 5.15,-7.2 10.45,-14.4 16.12,-21.5 55.69,-71.5 131.68,-139 227.77,-199.7 5.3,-3.4 10.67,-6.7 16.11,-10 8.32,-5 16.77,-10.1 25.38,-15.1 63.05,-36.4 130.81,-68.3 202.33,-95.7 5.29,-2.1 10.74,-4.1 16.11,-6.1 72.69,-27.1 149.05,-49.6 227.77,-67.5 5.37,-1.3 10.75,-2.4 16.12,-3.6 74.16,-16.3 150.45,-28.6 227.7,-36.7 5.37,-0.6 10.74,-1.2 16.12,-1.7 73.88,-7.4 148.61,-11.1 223.37,-11.1 1.46,0 2.93,0 4.4,0 5.37,0 10.74,0.1 16.11,0.2 76.3,0.6 152.52,5.1 227.71,13.4 5.36,0.5 10.73,1.1 16.11,1.8 77.39,9.1 153.69,22.2 227.77,39.4 5.37,1.2 10.75,2.5 16.12,3.9 78.86,18.9 155.16,42.6 227.7,70.9 5.37,2.1 10.74,4.2 16.11,6.3 62.83,25.3 122.72,54.2 178.78,86.5 16.92,9.8 33.26,19.8 49,29.8 5.44,3.6 10.81,7.1 16.11,10.6 98.81,65.9 174.66,139.2 227.7,216.5 5.67,8.2 11.12,16.5 16.19,24.9 43.85,71 68.79,145.1 74.82,219.6 h 1.4 v 35.6 0.1 258.2 h -78.14 c -4.56,7.3 -9.26,14.5 -14.27,21.7 -25.67,37.5 -56.79,74.1 -93.28,109.4 -31.79,30.7 -67.69,60.4 -107.64,88.8 -28.55,20.4 -59.15,40 -91.89,58.9 -256.88,148.3 -593.54,222.4 -930.19,222.4 z m 0,-16.1 c 348.58,0 676.07,-78.2 922.13,-220.3 32.01,-18.4 62.49,-38 90.61,-58.1 39.01,-27.7 74.6,-57 105.78,-87.2 35.27,-34.1 65.95,-70 91.24,-107 4.57,-6.6 9.1,-13.5 13.85,-21.1 l 4.74,-7.5 h 8.92 62.02 v -242.2 -19.5 h -0.14 l -1.21,-14.8 c -5.87,-72.6 -30.26,-144.1 -72.51,-212.6 -4.65,-7.6 -9.93,-15.7 -15.72,-24.1 -53.08,-77.4 -128.23,-148.8 -223.35,-212.2 -5.24,-3.4 -10.55,-6.9 -15.86,-10.4 -15.53,-9.9 -31.8,-19.8 -48.37,-29.4 -54.47,-31.4 -113.93,-60.2 -176.67,-85.5 -5.31,-2.1 -10.62,-4.2 -16.02,-6.3 -71.22,-27.8 -147.13,-51.4 -225.9,-70.3 -5.23,-1.4 -10.47,-2.6 -15.7,-3.8 -72.59,-16.9 -148.63,-30 -226.11,-39.1 -5.23,-0.6 -10.45,-1.3 -15.91,-1.8 -74.52,-8.2 -150.57,-12.7 -226.15,-13.3 -5.3,-0.1 -10.59,-0.1 -15.93,-0.1 h -4.36 c -74.38,0 -148.99,3.7 -222.07,11 -5.11,0.4 -10.23,1 -15.72,1.6 -76.63,8.1 -152.65,20.4 -225.96,36.4 -5.3,1.2 -10.6,2.3 -15.97,3.6 -78.79,18 -154.74,40.5 -225.77,66.9 l -1.94,0.8 c -4.59,1.7 -9.23,3.4 -14,5.3 -71.2,27.2 -138.5,59.1 -199.99,94.6 -8.5,4.9 -16.86,9.9 -25.1,14.9 -5.39,3.3 -10.7,6.6 -15.88,9.8 -92.74,58.6 -168,124.5 -223.76,196.1 -4.98,6.3 -10.09,13.1 -15.65,20.9 -56.5,78.7 -88.62,161.8 -95.46,246.9 l -1.19,14.9 h -0.23 v 261.7 h 62.01 8.96 l 4.74,7.6 c 6.49,10.4 13.6,21 21.24,31.5 4.69,6.7 9.81,13.5 15.68,21 19.89,25.6 42.82,51 68.14,75.5 31.66,30.5 67.25,59.9 105.78,87.2 28.46,20.3 58.97,39.8 90.68,58.1 246.03,142.1 573.5,220.3 922.08,220.3" style="fill:#ffe840;fill-opacity:1;fill-rule:nonzero;stroke:none" id="path2284" transform="matrix(0.133333, 0, 0, -0.133333, 0, 5287.013184)"/>
  <path d="m 7848.31,12686.1 c 513.71,-296.6 513.71,-777.5 0,-1074.1 -513.71,-296.6 -1346.6,-296.6 -1860.3,0 -513.71,296.6 -513.71,777.5 0,1074.1 513.7,296.6 1346.59,296.6 1860.3,0" style="fill:#ffe840;fill-opacity:1;fill-rule:nonzero;stroke:none" id="path2286" transform="matrix(0.133333, 0, 0, -0.133333, 0, 5287.013184)"/>
  <path d="m 7913.45,11898.1 c -5.15,-6.8 -10.52,-13.7 -16.11,-20.4 -51.65,-62.3 -122.06,-120.5 -211.23,-172 -5.44,-3.2 -10.96,-6.3 -16.55,-9.4 -5.3,-2.9 -10.67,-5.9 -16.11,-8.7 -70.12,-37.3 -146.7,-68.3 -227.7,-93 -5.3,-1.6 -10.75,-3.2 -16.12,-4.7 -73.13,-21.5 -149.57,-37.8 -227.77,-49 -5.3,-0.8 -10.67,-1.5 -16.11,-2.2 -74.83,-10.1 -151.19,-15.5 -227.71,-16.2 -5.37,-0.1 -10.74,-0.2 -16.11,-0.2 -76.37,-0.1 -152.81,4.3 -227.77,13.4 -5.38,0.7 -10.83,1.3 -16.12,2.1 -77.99,10 -154.43,25.2 -227.7,45.4 -5.37,1.4 -10.82,2.9 -16.12,4.4 -80.63,23.1 -157.22,52.4 -227.77,87.8 -5.44,2.7 -10.82,5.5 -16.11,8.3 -13.62,7 -27.01,14.4 -40.1,22 -76.29,44 -138.83,93 -187.61,145.2 -5.52,5.9 -10.89,11.9 -16.11,17.9 -132.57,153.6 -149.43,332.2 -50.47,492.1 52.38,84.6 137.07,163.9 254.19,231.5 423.4,244.5 1112.4,244.5 1535.87,0 117.13,-67.6 201.81,-146.9 254.12,-231.5 92.7,-149.8 83.8,-316.1 -26.78,-462.8 z m 134.42,374 c -42.09,130.4 -151.05,250.3 -317.03,346.1 -217.1,125.4 -505.72,194.4 -812.66,194.4 -307.02,0 -595.64,-69 -812.67,-194.4 -165.98,-95.8 -275.01,-215.7 -317.09,-346.1 -12.95,-40.2 -19.57,-81.3 -19.57,-123 0,-127.6 61.94,-249.7 177.67,-354.9 5.22,-4.8 10.59,-9.5 16.11,-14.2 41.42,-35.6 89.17,-69.1 142.88,-100.2 27.22,-15.6 55.54,-30.5 84.83,-44.3 5.37,-2.6 10.74,-5.1 16.11,-7.5 70.7,-32.4 147.14,-59.6 227.77,-81.1 5.37,-1.5 10.75,-3 16.12,-4.4 72.91,-18.6 149.13,-33 227.7,-42.5 5.37,-0.7 10.74,-1.4 16.12,-2 72.97,-8.3 147.94,-12.5 224.02,-12.5 h 3.75 c 5.37,0 10.74,0.1 16.11,0.2 77.47,0.7 153.62,5.8 227.71,15.2 5.36,0.7 10.73,1.3 16.11,2.1 78.72,10.6 155.01,26 227.77,45.9 5.45,1.4 10.82,2.9 16.12,4.5 80.92,23 157.29,51.7 227.7,85.7 5.37,2.5 10.81,5.1 16.11,7.8 20.97,10.5 41.42,21.4 61.28,32.9 64.23,37.1 119.93,77.9 166.5,121.4 5.52,5.1 10.89,10.2 16.11,15.5 100.43,99.9 153.99,213.8 153.99,332.4 0,41.7 -6.62,82.8 -19.57,123" style="fill:#ff9d4d;fill-opacity:1;fill-rule:nonzero;stroke:none" id="path2288" transform="matrix(0.133333, 0, 0, -0.133333, 0, 5287.013184)"/>
  <path d="m 6960.25,12256.1 123.86,-71.5 c -2.8,-1.3 -5.57,-2.8 -8.25,-4.3 l -67.98,-39.3 -115.75,66.8 38.24,22.1 c 13.67,7.9 23.64,16.7 29.88,26.2" style="fill:#d1975d;fill-opacity:1;fill-rule:nonzero;stroke:none" id="path2290" transform="matrix(0.133333, 0, 0, -0.133333, 0, 5287.013184)"/>
  <path d="m 6678.04,12303.7 16.12,9.4 7.85,4.5 h 0.04 l 44.62,25.7 c 2.57,1.5 5.41,2.6 8.11,3.9 9.1,4.5 18.68,8.2 29.13,10.7 14.42,3.5 30.16,5 47.16,4.7 32.15,-0.5 62.46,-8.8 90.86,-24.8 l 2.06,-1.2 c 5.15,-2.9 9.78,-6 14.05,-9 20.31,-14.6 30.31,-30.1 30.02,-46.5 -0.15,-8.9 -2.72,-17.2 -7.8,-25 -5,-7.6 -12.43,-14.9 -22.22,-21.4 -2.42,-1.6 -4.93,-3.2 -7.65,-4.8 l -8.46,-4.8 -29.8,-17.2 -92.3,-53.4 h -0.02 l -25.19,-14.5 -39.63,-22.9 -22,12.7 -24.59,14.2 -10.36,6 -46.48,26.8 -86.64,50.1 24.06,13.9 40.75,23.5 h -0.01 z m 397.8,-123.4 c 2.72,1.5 5.44,3 8.24,4.3 10.59,5.1 22.22,8.9 34.72,11.3 15.16,2.9 30.83,4 46.95,3.4 l 2.5,-0.1 c 4.56,-0.2 9.04,-0.5 13.61,-1 12.43,-1.3 24.94,-3.6 37.37,-6.9 16.92,-4.5 32.23,-10.7 45.61,-18.4 13.47,-7.8 23.7,-16.6 30.83,-26.3 7.06,-9.9 10.74,-19.8 11.11,-29.8 0.37,-10 -2.8,-19.8 -9.49,-29.5 -4.12,-5.8 -9.49,-11.3 -16.11,-16.4 -3.27,-2.6 -6.98,-5.1 -10.89,-7.5 -1.11,-0.7 -2.14,-1.4 -3.29,-2.1 l -58.48,-33.7 -2.09,-1.3 -24.57,-14.2 -16.11,-9.2 -51.58,-29.8 -64.87,-37.4 -198.55,114.6 21.18,12.2 43.63,25.2 h -0.01 l 6.38,3.7 16.11,9.3 69.82,40.3 z m 254.85,-225.7 h 0.02 l 126.93,-73.3 75.89,43.9 -127.27,73.4 c 1.1,0.8 2.28,1.4 3.37,2.2 5.59,3.5 10.97,7.1 16.12,10.7 18.02,12.7 33.55,26 46.72,39.7 20.89,21.9 34.35,43.9 40.31,66.2 6.03,22.3 3.39,44 -7.95,65.3 -11.32,21.3 -32.88,41.1 -64.74,59.5 -4.78,2.7 -9.56,5.4 -14.34,7.9 -5.3,2.8 -10.67,5.3 -16.12,7.9 -40.97,18.9 -84.6,30.2 -130.95,33.9 -32.6,2.5 -64.82,1.5 -96.82,-2.9 -5.37,-0.7 -10.74,-1.6 -16.11,-2.6 -19.5,-3.4 -38.85,-8.1 -58.05,-14.2 19.79,29.5 22.8,58.7 9.05,88 -13.83,29.2 -39.14,54.5 -75.93,75.7 -23.39,13.5 -50.61,24.5 -81.81,33.1 -31.12,8.6 -63.13,13.8 -96.09,15.6 -32.88,1.9 -65.62,0 -98.21,-5.8 -32.6,-5.7 -61.95,-16.1 -88.14,-31.3 l -23.91,-13.8 -122.29,70.6 -75.88,-43.8 122.24,-70.6 -92.25,-53.3 h -0.01 l -122.3,70.6 -75.88,-43.8 122.25,-70.6 -135.43,-78.2 161.11,-93 16.12,-9.3 227.7,-131.5 16.12,-9.3 227.77,-131.5 16.11,-9.3 88.95,-51.4 135.51,78.2 h 0.02 l 126.92,-73.3 75.88,43.8 -126.93,73.3 0.04,0.1 92.26,53.2" style="fill:#ff9d4d;fill-opacity:1;fill-rule:nonzero;stroke:none" id="path2292" transform="matrix(0.133333, 0, 0, -0.133333, 0, 5287.013184)"/>
  <path d="m 5753.08,11803.6 v -266.2 c -5.67,7.1 -10.97,14.3 -16.12,21.5 v 266.2 c 5.15,-7.2 10.53,-14.4 16.12,-21.5" style="fill:#ffe840;fill-opacity:1;fill-rule:nonzero;stroke:none" id="path2294" transform="matrix(0.133333, 0, 0, -0.133333, 0, 5287.013184)"/>
  <path d="m 5962.63,11627.1 v -266.3 c -5.44,3.3 -10.81,6.6 -16.11,10 v 266.3 c 5.3,-3.4 10.67,-6.7 16.11,-10" style="fill:#ffe840;fill-opacity:1;fill-rule:nonzero;stroke:none" id="path2296" transform="matrix(0.133333, 0, 0, -0.133333, 0, 5287.013184)"/>
  <path d="m 6206.45,11510.2 v -266.3 c -5.37,2 -10.82,4 -16.11,6.1 v 266.3 c 5.29,-2.1 10.74,-4.1 16.11,-6.1" style="fill:#ffe840;fill-opacity:1;fill-rule:nonzero;stroke:none" id="path2298" transform="matrix(0.133333, 0, 0, -0.133333, 0, 5287.013184)"/>
  <path d="m 6450.34,11439 v -266.2 c -5.37,1.2 -10.75,2.3 -16.12,3.6 v 266.3 c 5.37,-1.2 10.75,-2.5 16.12,-3.7" style="fill:#ffe840;fill-opacity:1;fill-rule:nonzero;stroke:none" id="path2300" transform="matrix(0.133333, 0, 0, -0.133333, 0, 5287.013184)"/>
  <path d="m 6694.16,11400.7 v -266.3 c -5.38,0.5 -10.75,1.1 -16.12,1.7 v 266.2 c 5.37,-0.6 10.74,-1.2 16.12,-1.6" style="fill:#ffe840;fill-opacity:1;fill-rule:nonzero;stroke:none" id="path2302" transform="matrix(0.133333, 0, 0, -0.133333, 0, 5287.013184)"/>
  <path d="m 6938.04,11389.7 v -266.2 c -5.37,-0.1 -10.74,-0.2 -16.11,-0.2 v 266.3 c 5.37,0 10.74,0.1 16.11,0.1" style="fill:#ffe840;fill-opacity:1;fill-rule:nonzero;stroke:none" id="path2304" transform="matrix(0.133333, 0, 0, -0.133333, 0, 5287.013184)"/>
  <path d="m 7181.86,11405 v -266.3 c -5.38,-0.7 -10.75,-1.3 -16.11,-1.8 v 266.2 c 5.36,0.5 10.73,1.2 16.11,1.9" style="fill:#ffe840;fill-opacity:1;fill-rule:nonzero;stroke:none" id="path2306" transform="matrix(0.133333, 0, 0, -0.133333, 0, 5287.013184)"/>
  <path d="M 7425.75,11448.2 V 11182 c -5.37,-1.4 -10.75,-2.7 -16.12,-3.9 v 266.3 c 5.37,1.3 10.75,2.5 16.12,3.8" style="fill:#ffe840;fill-opacity:1;fill-rule:nonzero;stroke:none" id="path2308" transform="matrix(0.133333, 0, 0, -0.133333, 0, 5287.013184)"/>
  <path d="m 7669.56,11525.5 v -266.3 c -5.37,-2.1 -10.74,-4.2 -16.11,-6.3 v 266.3 c 5.37,2 10.74,4.1 16.11,6.3" style="fill:#ffe840;fill-opacity:1;fill-rule:nonzero;stroke:none" id="path2310" transform="matrix(0.133333, 0, 0, -0.133333, 0, 5287.013184)"/>
  <path d="m 7913.45,11652.4 v -266.3 c -5.3,-3.5 -10.67,-7 -16.11,-10.6 v 266.4 c 5.44,3.4 10.81,7 16.11,10.5" style="fill:#ffe840;fill-opacity:1;fill-rule:nonzero;stroke:none" id="path2312" transform="matrix(0.133333, 0, 0, -0.133333, 0, 5287.013184)"/>
  <path d="m 8129.75,11867 v -266.2 c -5.08,-8.3 -10.52,-16.6 -16.19,-24.9 v 266.3 c 5.67,8.2 11.04,16.5 16.19,24.8" style="fill:#ffe840;fill-opacity:1;fill-rule:nonzero;stroke:none" id="path2314" transform="matrix(0.133333, 0, 0, -0.133333, 0, 5287.013184)"/>
</svg>