<?xml version="1.0" encoding="utf-8"?>
<svg viewBox="132.351 1836.459 630.429 968.451" width="630.429" height="968.451" xmlns="http://www.w3.org/2000/svg">
  <defs>
    <clipPath clipPathUnits="userSpaceOnUse" id="clipPath1484">
      <path d="m 3240.64,22231.6 -1051.32,-746.2 -187.75,-1605.5 -319.52,9.7 -33.69,1846.1 c -1.92,83 35.15,157.8 94.47,207 l 24.92,20.3 1042.7,853.5 c 155.37,127.1 384.4,104.3 511.57,-51.1 127.16,-155.3 104.3,-384.4 -51.06,-511.5 -9.71,-8 -20.09,-15.6 -30.32,-22.3 z" id="path1482"/>
    </clipPath>
    <linearGradient x1="0" y1="0" x2="1" y2="0" gradientUnits="userSpaceOnUse" gradientTransform="matrix(1755.95,0,0,-1755.95,1648.29,21389.3)" spreadMethod="pad" id="linearGradient1490">
      <stop style="stop-opacity:1;stop-color:#6a5ebf" offset="0" id="stop1486"/>
      <stop style="stop-opacity:1;stop-color:#6e3aa5" offset="1" id="stop1488"/>
    </linearGradient>
    <clipPath clipPathUnits="userSpaceOnUse" id="clipPath1500">
      <path d="m 3955.41,22130.1 c -10.64,-8 -21.98,-15.4 -33.17,-22 l -1042.54,-740.7 -247.95,-1793.6 -324.38,21.4 1.11,56.4 30.54,1984.8 c 1.65,84 42.57,158.1 105.04,205 l 24.88,18.3 1062.85,788.5 c 77.26,57.4 169.72,79.5 258.45,69.3 h 0.14 c 96.2,-11.2 187.7,-60.6 250.03,-144.6 119.69,-161.3 76.29,-323.3 -85,-442.8 z" id="path1498"/>
    </clipPath>
    <linearGradient x1="0" y1="0" x2="1" y2="0" gradientUnits="userSpaceOnUse" gradientTransform="matrix(1801.34,0,0,-1801.34,2307.37,21146.8)" spreadMethod="pad" id="linearGradient1506">
      <stop style="stop-opacity:1;stop-color:#2e256b" offset="0" id="stop1502"/>
      <stop style="stop-opacity:1;stop-color:#5a3087" offset="1" id="stop1504"/>
    </linearGradient>
    <clipPath clipPathUnits="userSpaceOnUse" id="clipPath1516">
      <path d="m 3782.23,22197.9 c -10.65,-7.8 -21.98,-15.3 -33.17,-21.9 l -1042.53,-740.6 -247.96,-1793.6 -150.09,9.8 30.54,1984.8 c 1.65,84 42.57,158.1 105.04,205 l 24.88,18.3 1062.85,788.5 c 77.26,57.4 169.72,79.5 258.45,69.3 h 0.14 c 28.61,-21.2 54.6,-46.7 76.85,-76.7 119.69,-161.3 76.29,-323.2 -85,-442.9 z" id="path1514"/>
    </clipPath>
    <linearGradient x1="0" y1="0" x2="1" y2="0" gradientUnits="userSpaceOnUse" gradientTransform="matrix(1627.06,0,0,-1627.06,2308.48,21180.8)" spreadMethod="pad" id="linearGradient1522">
      <stop style="stop-opacity:1;stop-color:#6a5ebf" offset="0" id="stop1518"/>
      <stop style="stop-opacity:1;stop-color:#6e3aa5" offset="1" id="stop1520"/>
    </linearGradient>
    <clipPath clipPathUnits="userSpaceOnUse" id="clipPath1534">
      <path d="m 3489.1,24557 -152.37,-1119.1 -1.88,-13.8 c -7.71,-56.7 -50.26,-100.1 -102.93,-112 l -1050.54,-234 c -51.1,-11.3 -101.75,20.9 -113.13,72 -10.74,48.2 17.7,96.1 63.81,110.9 l 1025.71,326 -104.81,-125.7 33.09,1128.9 c 3.28,111.8 96.55,199.8 208.33,196.5 111.79,-3.3 199.76,-96.6 196.48,-208.4 -0.21,-7.1 -0.84,-14.4 -1.76,-21.3 z" id="path1532"/>
    </clipPath>
    <linearGradient x1="0" y1="0" x2="1" y2="0" gradientUnits="userSpaceOnUse" gradientTransform="matrix(1424.96,0,0,-1424.96,2065.99,23931.3)" spreadMethod="pad" id="linearGradient1540">
      <stop style="stop-opacity:1;stop-color:#6a5ebf" offset="0" id="stop1536"/>
      <stop style="stop-opacity:1;stop-color:#6e3aa5" offset="1" id="stop1538"/>
    </linearGradient>
    <clipPath clipPathUnits="userSpaceOnUse" id="clipPath1550">
      <path d="m 3500.11,24747.4 c 0,0 -184.89,24.6 -265.58,35.5 -23.04,3.1 -45.99,-5.8 -61.48,-24.4 l -1.98,-2.3 c -164.69,-197 -201.52,-451.5 -191.89,-708.1 l -32.74,-430.2 -74.39,-934 c -5.17,-64.9 28.45,-126.7 85.73,-157.7 l 283.73,-153.2 c 102.84,-55.6 213.92,-94.3 329.01,-114.6 l 274.99,-48.5 c 162.82,-28.7 313.77,92.2 321.23,257.4 9.52,210.7 17.27,477.1 5.16,626.5 -17.25,212.8 89.53,859.1 137.5,1134 13.39,76.7 -22.97,153.4 -90.78,191.7 -153.88,86.8 -398.39,220.4 -398.39,220.4 z" id="path1548"/>
    </clipPath>
    <linearGradient x1="0" y1="0" x2="1" y2="0" gradientUnits="userSpaceOnUse" gradientTransform="matrix(1440.62,0,0,-1440.62,2871.53,23494.6)" spreadMethod="pad" id="linearGradient1556">
      <stop style="stop-opacity:1;stop-color:#2e256b" offset="0" id="stop1552"/>
      <stop style="stop-opacity:1;stop-color:#5a3087" offset="1" id="stop1554"/>
    </linearGradient>
    <clipPath clipPathUnits="userSpaceOnUse" id="clipPath1592">
      <path d="m 4422.24,24120 -133.33,-1183.5 -2.21,-19.6 c -8.52,-75.6 -65.01,-134.3 -135.53,-149.3 l -1112.19,-235.8 c -62.42,-13.3 -123.76,26.6 -136.99,89 -12.18,57.4 20.61,113.9 74.53,132.9 l 1071.94,378.8 -137.74,-168.9 36.58,1190.4 c 4.05,131.5 113.95,234.9 245.48,230.8 131.53,-4 234.88,-113.9 230.84,-245.5 -0.2,-6.3 -0.7,-13.1 -1.38,-19.3 z" id="path1590"/>
    </clipPath>
    <linearGradient x1="0" y1="0" x2="1" y2="0" gradientUnits="userSpaceOnUse" gradientTransform="matrix(1524.28,0,0,-1524.28,2899.46,23457.1)" spreadMethod="pad" id="linearGradient1598">
      <stop style="stop-opacity:1;stop-color:#6a5ebf" offset="0" id="stop1594"/>
      <stop style="stop-opacity:1;stop-color:#6e3aa5" offset="1" id="stop1596"/>
    </linearGradient>
    <clipPath clipPathUnits="userSpaceOnUse" id="clipPath1624">
      <path d="m 1134.44,24040 97,-1207 1552.36,-733.5 -73.45,914.7 -23.63,293.9 c -2.86,35.6 -13.23,69.4 -29.94,99.6 -24.59,44.8 -63.09,81.9 -111.06,104.4 l -1292.03,610.4 c -29.17,13.8 -60.35,9.1 -83.67,-7 l -0.13,-0.1 c -22.95,-16.1 -38.05,-43.5 -35.45,-75.4 z" id="path1622"/>
    </clipPath>
    <linearGradient x1="0" y1="0" x2="1" y2="0" gradientUnits="userSpaceOnUse" gradientTransform="matrix(1649.65,0,0,-1649.65,1134.15,23115.1)" spreadMethod="pad" id="linearGradient1630">
      <stop style="stop-opacity:1;stop-color:#2e256b" offset="0" id="stop1626"/>
      <stop style="stop-opacity:1;stop-color:#5a3087" offset="1" id="stop1628"/>
    </linearGradient>
  </defs>
  <path d="m 5028.42,20945.9 c 923.24,-533.1 923.24,-1397.3 0,-1930.3 -923.24,-533.1 -2420.11,-533.1 -3343.36,0 -923.236,533 -923.236,1397.2 0,1930.3 923.25,533 2420.12,533 3343.36,0" style="fill:#e3dfea;fill-opacity:1;fill-rule:nonzero;stroke:none" id="path1306" transform="matrix(0.133333, 0, 0, -0.133333, 0, 5287.013184)"/>
  <path d="m 4887.4,20412.8 v -278.7 h -1.32 c -5.72,-70.7 -29.38,-140.9 -70.96,-208.3 -4.82,-7.9 -9.98,-15.8 -15.35,-23.6 -50.31,-73.3 -122.24,-142.8 -215.95,-205.3 -5.02,-3.3 -10.11,-6.7 -15.28,-10 -14.93,-9.6 -30.41,-19 -46.46,-28.3 -53.17,-30.7 -109.97,-58 -169.55,-82 -5.09,-2 -10.19,-4.1 -15.28,-6 -68.79,-26.9 -141.15,-49.4 -215.95,-67.3 -5.09,-1.3 -10.18,-2.5 -15.27,-3.7 -70.26,-16.3 -142.62,-28.7 -216.02,-37.3 -5.09,-0.6 -10.19,-1.3 -15.28,-1.8 -71.31,-7.8 -143.59,-12.1 -215.95,-12.7 -5.09,0 -10.18,-0.1 -15.27,-0.1 -72.29,-0.1 -144.57,3.4 -216.02,10.5 -5.09,0.5 -10.19,1 -15.28,1.6 -73.26,7.7 -145.61,19.4 -215.95,34.8 -5.09,1.1 -10.18,2.2 -15.27,3.4 -74.66,17 -147.08,38.4 -216.02,64.1 -5.09,1.8 -10.25,3.7 -15.28,5.8 -67.81,25.9 -132.08,56.2 -191.87,90.7 -8.17,4.8 -16.19,9.5 -24.07,14.3 -5.17,3.2 -10.26,6.3 -15.28,9.4 -91.13,57.6 -163.2,121.7 -216.02,189.5 -5.37,6.7 -10.39,13.5 -15.28,20.4 -55.61,77.4 -86.73,159.4 -93.35,241.9 h -1.4 v 278.7 h 74.1 c 6.42,10.3 13.33,20.6 20.65,30.7 4.89,6.9 9.98,13.7 15.28,20.4 19.4,25 41.45,49.4 66.08,73.2 30.14,29.1 64.12,57.3 102.08,84.2 27.07,19.3 56.16,38 87.21,55.9 487.15,281.3 1277.04,281.3 1764.26,0 31.05,-17.9 60.07,-36.5 87.14,-55.9 37.89,-26.9 71.94,-55 102.08,-84.2 34.6,-33.4 64.12,-68.1 88.47,-103.7 4.74,-6.9 9.21,-13.7 13.54,-20.6 h 74.09" style="fill:#ff9d4d;fill-opacity:1;fill-rule:nonzero;stroke:none" id="path1308" transform="matrix(0.133333, 0, 0, -0.133333, 0, 5287.013184)"/>
  <path d="m 3639.92,20888.2 c -319.27,0 -638.53,-70.3 -882.1,-211 -31.05,-17.9 -60.14,-36.6 -87.21,-55.9 -37.96,-26.9 -71.94,-55.1 -102.08,-84.2 -24.63,-23.8 -46.68,-48.2 -66.08,-73.2 -5.3,-6.7 -10.39,-13.5 -15.28,-20.4 -7.32,-10.1 -14.23,-20.4 -20.65,-30.7 h -74.1 v -278.7 h 1.4 c 6.62,-82.5 37.74,-164.5 93.35,-241.9 4.89,-6.9 9.91,-13.7 15.28,-20.4 52.82,-67.8 124.89,-131.9 216.02,-189.5 5.02,-3.1 10.11,-6.2 15.28,-9.4 7.88,-4.8 15.9,-9.5 24.07,-14.3 59.79,-34.5 124.06,-64.8 191.87,-90.7 5.03,-2.1 10.19,-4 15.28,-5.8 68.94,-25.7 141.36,-47.1 216.02,-64.1 5.09,-1.2 10.18,-2.3 15.27,-3.4 70.34,-15.4 142.69,-27.1 215.95,-34.8 5.09,-0.6 10.19,-1.1 15.28,-1.6 70.07,-7 140.95,-10.5 211.84,-10.5 1.39,0 2.78,0 4.18,0 5.09,0 10.18,0.1 15.27,0.1 72.36,0.6 144.64,4.9 215.95,12.7 5.09,0.5 10.19,1.2 15.28,1.8 73.4,8.6 145.76,21 216.02,37.3 5.09,1.2 10.18,2.4 15.27,3.7 74.8,17.9 147.15,40.4 215.95,67.3 5.09,1.9 10.19,4 15.28,6 59.58,24 116.38,51.3 169.55,82 16.05,9.3 31.53,18.7 46.46,28.3 5.17,3.3 10.26,6.7 15.28,10 93.71,62.5 165.64,132 215.95,205.3 5.37,7.8 10.53,15.7 15.35,23.6 41.58,67.4 65.24,137.6 70.96,208.3 h 1.32 v 33.8 0.1 244.8 h -74.09 c -4.33,6.9 -8.8,13.7 -13.54,20.6 -24.35,35.6 -53.87,70.3 -88.47,103.7 -30.14,29.2 -64.19,57.3 -102.08,84.2 -27.07,19.4 -56.09,38 -87.14,55.9 -243.61,140.7 -562.89,211 -882.16,211 z m 0,-15.3 c 330.59,0 641.16,-74.2 874.51,-208.9 30.36,-17.5 59.26,-36.1 85.94,-55.1 36.98,-26.3 70.73,-54.2 100.31,-82.8 33.45,-32.3 62.54,-66.4 86.53,-101.4 4.33,-6.3 8.62,-12.8 13.14,-20 l 4.49,-7.2 h 8.47 58.81 v -229.6 -18.6 h -0.14 l -1.14,-14 c -5.57,-68.8 -28.7,-136.6 -68.76,-201.6 -4.41,-7.2 -9.43,-14.9 -14.92,-22.9 -50.34,-73.3 -121.61,-141 -211.81,-201.2 -4.97,-3.3 -10.02,-6.6 -15.05,-9.8 -14.67,-9.4 -30.1,-18.8 -45.87,-27.9 -51.65,-29.9 -108.05,-57.2 -167.6,-81.1 -5.02,-2 -10.04,-4 -15.14,-6 -67.55,-26.4 -139.53,-48.8 -214.23,-66.7 -4.97,-1.3 -9.94,-2.4 -14.9,-3.6 -68.82,-16 -140.93,-28.5 -214.42,-37 -4.96,-0.7 -9.91,-1.3 -15.09,-1.8 -70.68,-7.8 -142.81,-12 -214.48,-12.6 -5.02,0 -10.04,-0.1 -15.09,-0.1 h -4.15 c -70.53,0 -141.28,3.5 -210.59,10.5 -4.96,0.4 -9.91,0.9 -14.92,1.5 -72.67,7.7 -144.77,19.3 -214.28,34.5 -5.03,1.1 -10.06,2.2 -15.16,3.4 -74.72,17.1 -146.74,38.4 -214.11,63.5 l -1.83,0.7 c -4.36,1.6 -8.75,3.2 -13.28,5 -67.53,25.9 -131.35,56.1 -189.66,89.7 -8.07,4.7 -16,9.4 -23.81,14.2 -5.11,3.1 -10.15,6.2 -15.06,9.3 -87.95,55.5 -159.32,118.1 -212.21,186 -4.7,5.9 -9.55,12.4 -14.83,19.8 -53.58,74.6 -84.04,153.4 -90.54,234.2 l -1.13,14 h -0.21 v 248.2 h 58.81 8.49 l 4.49,7.2 c 6.16,9.9 12.91,20 20.15,30 4.44,6.2 9.29,12.7 14.88,19.9 18.86,24.3 40.61,48.3 64.61,71.5 30.03,29 63.78,56.9 100.32,82.8 26.98,19.2 55.91,37.7 86,55.1 233.32,134.7 543.88,208.9 874.46,208.9" style="fill:#ffe840;fill-opacity:1;fill-rule:nonzero;stroke:none" id="path1310" transform="matrix(0.133333, 0, 0, -0.133333, 0, 5287.013184)"/>
  <path d="m 4522.05,20929.7 c 487.17,-281.2 487.17,-737.3 0,-1018.5 -487.19,-281.3 -1277.06,-281.3 -1764.24,0 -487.18,281.2 -487.18,737.3 0,1018.5 487.18,281.3 1277.05,281.3 1764.24,0" style="fill:#ffe840;fill-opacity:1;fill-rule:nonzero;stroke:none" id="path1312" transform="matrix(0.133333, 0, 0, -0.133333, 0, 5287.013184)"/>
  <path d="m 4583.82,20182.5 c -4.88,-6.5 -9.97,-13 -15.28,-19.4 -48.97,-59.1 -115.75,-114.3 -200.31,-163.1 -5.16,-3.1 -10.4,-6 -15.7,-8.9 -5.03,-2.8 -10.12,-5.6 -15.28,-8.2 -66.49,-35.5 -139.12,-64.9 -215.95,-88.2 -5.02,-1.6 -10.18,-3.1 -15.27,-4.6 -69.36,-20.3 -141.85,-35.8 -216.02,-46.4 -5.02,-0.7 -10.12,-1.4 -15.28,-2.1 -70.96,-9.5 -143.38,-14.7 -215.95,-15.4 -5.09,-0.1 -10.18,-0.1 -15.27,-0.1 -72.43,-0.2 -144.92,4 -216.02,12.7 -5.09,0.6 -10.25,1.2 -15.28,1.9 -73.96,9.6 -146.45,24 -215.95,43.1 -5.09,1.4 -10.25,2.8 -15.27,4.2 -76.47,21.9 -149.11,49.7 -216.02,83.3 -5.16,2.6 -10.25,5.1 -15.28,7.8 -12.91,6.7 -25.61,13.7 -38.02,20.9 -72.36,41.7 -131.67,88.2 -177.92,137.7 -5.23,5.6 -10.33,11.3 -15.28,17 -125.73,145.6 -141.71,315 -47.86,466.6 49.67,80.3 129.98,155.5 241.06,219.6 401.53,231.9 1054.95,231.9 1456.56,0 111.08,-64.1 191.38,-139.3 240.99,-219.6 87.91,-142 79.47,-299.7 -25.4,-438.8 z m 127.48,354.6 c -39.91,123.7 -143.24,237.5 -300.65,328.3 -205.9,118.9 -479.61,184.3 -770.7,184.3 -291.16,0 -564.88,-65.4 -770.71,-184.3 -157.4,-90.8 -260.8,-204.6 -300.71,-328.3 -12.28,-38.1 -18.56,-77.1 -18.56,-116.6 0,-121 58.75,-236.8 168.5,-336.5 4.95,-4.6 10.05,-9.1 15.28,-13.5 39.28,-33.8 84.56,-65.6 135.49,-95 25.82,-14.9 52.68,-29 80.45,-42.1 5.1,-2.5 10.19,-4.8 15.28,-7.1 67.05,-30.7 139.55,-56.5 216.02,-76.9 5.09,-1.4 10.18,-2.8 15.27,-4.1 69.15,-17.8 141.44,-31.4 215.95,-40.4 5.09,-0.7 10.19,-1.3 15.28,-1.8 69.21,-7.9 140.31,-11.9 212.46,-11.9 h 3.56 c 5.09,0 10.18,0.1 15.27,0.1 73.48,0.7 145.69,5.5 215.95,14.5 5.09,0.6 10.19,1.2 15.28,2 74.66,10 147.01,24.6 216.02,43.5 5.16,1.4 10.25,2.8 15.27,4.3 76.76,21.8 149.18,49 215.95,81.2 5.09,2.4 10.25,4.9 15.28,7.5 19.88,9.9 39.28,20.3 58.12,31.2 60.91,35.1 113.73,73.8 157.89,115 5.23,4.9 10.33,9.8 15.28,14.7 95.24,94.8 146.04,202.8 146.04,315.3 0,39.5 -6.28,78.5 -18.56,116.6" style="fill:#ff9d4d;fill-opacity:1;fill-rule:nonzero;stroke:none" id="path1314" transform="matrix(0.133333, 0, 0, -0.133333, 0, 5287.013184)"/>
  <path d="m 3679.84,20522 117.47,-67.8 c -2.66,-1.3 -5.27,-2.7 -7.83,-4.2 l -64.46,-37.2 -109.77,63.4 36.25,20.9 c 12.98,7.5 22.43,15.8 28.34,24.9" style="fill:#d1975d;fill-opacity:1;fill-rule:nonzero;stroke:none" id="path1316" transform="matrix(0.133333, 0, 0, -0.133333, 0, 5287.013184)"/>
  <path d="m 3412.21,20567.1 15.28,8.9 7.45,4.3 h 0.04 l 42.31,24.4 c 2.45,1.4 5.14,2.5 7.7,3.7 8.63,4.2 17.71,7.8 27.62,10.1 13.68,3.3 28.61,4.8 44.72,4.5 30.5,-0.5 59.25,-8.4 86.18,-23.6 l 1.95,-1.1 c 4.88,-2.8 9.28,-5.6 13.32,-8.6 19.26,-13.8 28.75,-28.4 28.47,-44 -0.14,-8.4 -2.58,-16.3 -7.39,-23.7 -4.75,-7.3 -11.79,-14.1 -21.08,-20.3 -2.3,-1.6 -4.67,-3.1 -7.25,-4.6 l -8.02,-4.6 -28.26,-16.3 -87.54,-50.6 -0.01,0.1 -23.89,-13.8 -37.59,-21.7 -20.86,12 -23.32,13.5 -9.83,5.7 -44.08,25.4 -82.17,47.4 22.82,13.2 38.65,22.3 h -0.02 z m 377.26,-117.1 c 2.58,1.5 5.16,2.9 7.82,4.2 10.04,4.8 21.06,8.4 32.92,10.6 14.38,2.8 29.24,3.9 44.52,3.3 h 2.37 c 4.33,-0.3 8.58,-0.6 12.91,-1 11.79,-1.3 23.65,-3.4 35.44,-6.6 16.05,-4.2 30.57,-10.1 43.27,-17.4 12.76,-7.4 22.46,-15.7 29.23,-25 6.7,-9.4 10.18,-18.8 10.53,-28.3 0.35,-9.5 -2.65,-18.7 -9,-27.9 -3.9,-5.5 -9,-10.7 -15.28,-15.6 -3.1,-2.4 -6.61,-4.8 -10.32,-7.1 -1.05,-0.7 -2.03,-1.3 -3.13,-2 l -55.46,-32 -1.97,-1.1 -23.31,-13.5 -15.28,-8.8 -48.91,-28.2 -61.52,-35.5 -188.3,108.7 20.09,11.6 41.38,23.9 h -0.01 l 6.05,3.5 15.27,8.8 66.22,38.2 z m 241.69,-213.9 h 0.01 l 120.38,-69.5 71.97,41.5 -120.69,69.7 c 1.04,0.7 2.15,1.3 3.2,2.1 5.3,3.3 10.39,6.7 15.27,10.1 17.1,12.1 31.82,24.6 44.31,37.7 19.81,20.7 32.58,41.6 38.24,62.8 5.72,21.1 3.21,41.7 -7.54,61.9 -10.74,20.1 -31.19,39 -61.4,56.4 -4.53,2.6 -9.07,5.1 -13.61,7.5 -5.02,2.6 -10.11,5.1 -15.27,7.4 -38.87,18 -80.24,28.7 -124.2,32.2 -30.91,2.4 -61.47,1.5 -91.82,-2.7 -5.09,-0.7 -10.19,-1.6 -15.28,-2.5 -18.49,-3.2 -36.84,-7.7 -55.05,-13.4 18.77,27.9 21.63,55.6 8.58,83.4 -13.11,27.7 -37.12,51.6 -72.01,71.8 -22.18,12.8 -47.99,23.2 -77.58,31.4 -29.51,8.1 -59.87,13.1 -91.12,14.8 -31.19,1.7 -62.24,-0.1 -93.15,-5.5 -30.91,-5.5 -58.75,-15.3 -83.58,-29.7 l -22.68,-13.1 -115.98,67 -71.96,-41.6 115.93,-66.9 -87.49,-50.6 v 0 l -115.99,67 -71.96,-41.6 115.94,-66.9 -128.45,-74.2 152.81,-88.2 15.27,-8.8 215.95,-124.7 15.28,-8.9 216.02,-124.6 15.27,-8.9 84.36,-48.7 128.52,74.2 h 0.01 l 120.37,-69.5 71.96,41.5 -120.38,69.5 h 0.04 l 87.5,50.6" style="fill:#ff9d4d;fill-opacity:1;fill-rule:nonzero;stroke:none" id="path1318" transform="matrix(0.133333, 0, 0, -0.133333, 0, 5287.013184)"/>
  <path d="m 2535.01,20092.8 v -252.4 c -5.37,6.7 -10.4,13.5 -15.28,20.4 v 252.5 c 4.88,-6.9 9.98,-13.7 15.28,-20.5" style="fill:#ffe840;fill-opacity:1;fill-rule:nonzero;stroke:none" id="path1320" transform="matrix(0.133333, 0, 0, -0.133333, 0, 5287.013184)"/>
  <path d="m 2733.75,19925.4 v -252.5 c -5.17,3.2 -10.26,6.3 -15.28,9.4 v 252.6 c 5.02,-3.2 10.11,-6.3 15.28,-9.5" style="fill:#ffe840;fill-opacity:1;fill-rule:nonzero;stroke:none" id="path1322" transform="matrix(0.133333, 0, 0, -0.133333, 0, 5287.013184)"/>
  <path d="m 2964.97,19814.6 v -252.5 c -5.09,1.8 -10.25,3.7 -15.28,5.8 v 252.5 c 5.03,-2 10.19,-3.9 15.28,-5.8" style="fill:#ffe840;fill-opacity:1;fill-rule:nonzero;stroke:none" id="path1324" transform="matrix(0.133333, 0, 0, -0.133333, 0, 5287.013184)"/>
  <path d="m 3196.26,19747.1 v -252.5 c -5.09,1.1 -10.18,2.2 -15.27,3.4 v 252.6 c 5.09,-1.2 10.18,-2.4 15.27,-3.5" style="fill:#ffe840;fill-opacity:1;fill-rule:nonzero;stroke:none" id="path1326" transform="matrix(0.133333, 0, 0, -0.133333, 0, 5287.013184)"/>
  <path d="m 3427.49,19710.7 v -252.5 c -5.09,0.5 -10.19,1 -15.28,1.6 v 252.5 c 5.09,-0.6 10.19,-1.1 15.28,-1.6" style="fill:#ffe840;fill-opacity:1;fill-rule:nonzero;stroke:none" id="path1328" transform="matrix(0.133333, 0, 0, -0.133333, 0, 5287.013184)"/>
  <path d="m 3658.78,19700.3 v -252.5 c -5.09,0 -10.18,-0.1 -15.27,-0.1 v 252.5 c 5.09,0 10.18,0.1 15.27,0.1" style="fill:#ffe840;fill-opacity:1;fill-rule:nonzero;stroke:none" id="path1330" transform="matrix(0.133333, 0, 0, -0.133333, 0, 5287.013184)"/>
  <path d="m 3890.01,19714.8 v -252.5 c -5.09,-0.6 -10.19,-1.3 -15.28,-1.8 v 252.5 c 5.09,0.5 10.19,1.2 15.28,1.8" style="fill:#ffe840;fill-opacity:1;fill-rule:nonzero;stroke:none" id="path1332" transform="matrix(0.133333, 0, 0, -0.133333, 0, 5287.013184)"/>
  <path d="m 4121.3,19755.8 v -252.5 c -5.09,-1.3 -10.18,-2.5 -15.27,-3.7 v 252.6 c 5.09,1.2 10.18,2.4 15.27,3.6" style="fill:#ffe840;fill-opacity:1;fill-rule:nonzero;stroke:none" id="path1334" transform="matrix(0.133333, 0, 0, -0.133333, 0, 5287.013184)"/>
  <path d="m 4352.53,19829.1 v -252.5 c -5.09,-2 -10.19,-4.1 -15.28,-6 v 252.5 c 5.09,1.9 10.19,4 15.28,6" style="fill:#ffe840;fill-opacity:1;fill-rule:nonzero;stroke:none" id="path1336" transform="matrix(0.133333, 0, 0, -0.133333, 0, 5287.013184)"/>
  <path d="m 4583.82,19949.4 v -252.5 c -5.02,-3.3 -10.11,-6.7 -15.28,-10 v 252.6 c 5.17,3.2 10.26,6.6 15.28,9.9" style="fill:#ffe840;fill-opacity:1;fill-rule:nonzero;stroke:none" id="path1338" transform="matrix(0.133333, 0, 0, -0.133333, 0, 5287.013184)"/>
  <path d="m 4788.96,20153 v -252.5 c -4.82,-7.9 -9.98,-15.8 -15.36,-23.6 v 252.5 c 5.38,7.8 10.47,15.7 15.36,23.6" style="fill:#ffe840;fill-opacity:1;fill-rule:nonzero;stroke:none" id="path1340" transform="matrix(0.133333, 0, 0, -0.133333, 0, 5287.013184)"/>
  <path d="m 5691.56,20607.5 v -278.8 h -1.33 c -5.72,-70.6 -29.38,-140.8 -70.96,-208.2 -4.81,-7.9 -9.98,-15.8 -15.35,-23.6 -50.31,-73.3 -122.24,-142.8 -215.94,-205.3 -5.03,-3.3 -10.12,-6.7 -15.28,-10 -14.94,-9.6 -30.42,-19 -46.47,-28.3 -53.17,-30.7 -109.96,-58 -169.55,-82 -5.09,-2.1 -10.19,-4.1 -15.28,-6 -68.79,-26.9 -141.15,-49.4 -215.94,-67.3 -5.1,-1.3 -10.19,-2.5 -15.28,-3.7 -70.26,-16.3 -142.62,-28.7 -216.02,-37.3 -5.09,-0.7 -10.19,-1.3 -15.28,-1.8 -71.31,-7.9 -143.59,-12.1 -215.94,-12.7 -5.09,0 -10.19,-0.1 -15.28,-0.1 -72.29,-0.1 -144.57,3.3 -216.01,10.5 -5.1,0.4 -10.19,1 -15.29,1.6 -73.26,7.7 -145.61,19.4 -215.94,34.8 -5.09,1.1 -10.19,2.2 -15.28,3.4 -74.66,17 -147.08,38.4 -216.01,64.1 -5.1,1.8 -10.26,3.7 -15.29,5.7 -67.81,26 -132.08,56.3 -191.87,90.8 -8.17,4.8 -16.19,9.5 -24.07,14.3 -5.17,3.2 -10.26,6.3 -15.28,9.4 -91.12,57.6 -163.2,121.6 -216.01,189.5 -5.38,6.7 -10.4,13.5 -15.29,20.3 -55.61,77.5 -86.73,159.5 -93.35,241.9 h -1.4 v 278.8 h 74.1 c 6.42,10.3 13.33,20.6 20.65,30.7 4.89,6.9 9.98,13.7 15.29,20.4 19.39,25 41.44,49.4 66.07,73.2 30.14,29.1 64.12,57.3 102.08,84.2 27.07,19.3 56.16,38 87.21,55.9 487.15,281.3 1277.04,281.3 1764.26,0 31.05,-17.9 60.07,-36.5 87.14,-55.9 37.89,-26.9 71.94,-55 102.08,-84.2 34.61,-33.4 64.12,-68.2 88.47,-103.7 4.75,-6.9 9.21,-13.7 13.54,-20.6 h 74.1" style="fill:#ff9d4d;fill-opacity:1;fill-rule:nonzero;stroke:none" id="path1342" transform="matrix(0.133333, 0, 0, -0.133333, 0, 5287.013184)"/>
  <path d="m 4444.07,21082.9 c -319.27,0 -638.53,-70.4 -882.1,-211 -31.05,-17.9 -60.14,-36.6 -87.21,-55.9 -37.96,-26.9 -71.94,-55.1 -102.08,-84.2 -24.63,-23.8 -46.68,-48.2 -66.07,-73.2 -5.31,-6.7 -10.4,-13.5 -15.29,-20.4 -7.32,-10.1 -14.23,-20.4 -20.65,-30.7 h -74.1 v -278.8 h 1.4 c 6.62,-82.4 37.75,-164.4 93.35,-241.9 4.89,-6.8 9.91,-13.6 15.29,-20.3 52.81,-67.9 124.88,-131.9 216.01,-189.5 5.02,-3.1 10.11,-6.2 15.28,-9.4 7.88,-4.8 15.9,-9.5 24.07,-14.3 59.79,-34.5 124.06,-64.8 191.87,-90.8 5.03,-2 10.19,-3.9 15.29,-5.7 68.93,-25.7 141.35,-47.1 216.01,-64.1 5.09,-1.2 10.18,-2.3 15.28,-3.4 70.33,-15.4 142.68,-27.1 215.94,-34.8 5.1,-0.6 10.19,-1.2 15.29,-1.6 70.07,-7 140.94,-10.5 211.84,-10.5 1.38,0 2.78,0 4.17,0 5.09,0 10.18,0.1 15.28,0.1 72.35,0.6 144.63,4.8 215.94,12.7 5.09,0.5 10.19,1.1 15.28,1.8 73.4,8.6 145.76,21 216.02,37.3 5.09,1.2 10.19,2.4 15.28,3.7 74.79,17.9 147.15,40.4 215.94,67.3 5.09,1.9 10.19,3.9 15.28,6 59.59,24 116.38,51.3 169.55,82 16.05,9.3 31.53,18.7 46.47,28.3 5.16,3.3 10.25,6.7 15.28,10 93.7,62.5 165.63,132 215.94,205.3 5.37,7.8 10.54,15.7 15.35,23.6 41.58,67.4 65.24,137.6 70.96,208.2 h 1.33 v 33.9 0.1 244.8 h -74.1 c -4.33,6.9 -8.79,13.7 -13.54,20.6 -24.35,35.5 -53.86,70.3 -88.47,103.7 -30.14,29.2 -64.19,57.3 -102.08,84.2 -27.07,19.4 -56.09,38 -87.14,55.9 -243.61,140.6 -562.89,211 -882.16,211 z m 0,-15.3 c 330.59,0 641.16,-74.2 874.51,-208.9 30.36,-17.6 59.27,-36.1 85.94,-55.1 36.99,-26.3 70.73,-54.2 100.31,-82.8 33.45,-32.3 62.54,-66.4 86.53,-101.4 4.33,-6.3 8.63,-12.8 13.14,-20 l 4.49,-7.2 h 8.47 58.81 v -229.6 -18.6 h -0.14 l -1.13,-14 c -5.58,-68.8 -28.71,-136.6 -68.77,-201.6 -4.41,-7.2 -9.42,-14.9 -14.91,-22.9 -50.35,-73.4 -121.61,-141 -211.82,-201.2 -4.97,-3.3 -10.01,-6.6 -15.04,-9.9 -14.67,-9.3 -30.11,-18.7 -45.88,-27.8 -51.65,-29.9 -108.04,-57.2 -167.6,-81.2 -5.02,-1.9 -10.04,-3.9 -15.14,-5.9 -67.55,-26.4 -139.53,-48.8 -214.23,-66.7 -4.97,-1.3 -9.94,-2.5 -14.89,-3.6 -68.83,-16 -140.94,-28.5 -214.43,-37.1 -4.96,-0.6 -9.91,-1.2 -15.09,-1.7 -70.68,-7.8 -142.81,-12 -214.48,-12.6 -5.01,-0.1 -10.04,-0.1 -15.09,-0.1 h -4.14 c -70.53,0 -141.29,3.5 -210.59,10.5 -4.96,0.4 -9.92,0.9 -14.93,1.5 -72.67,7.6 -144.76,19.3 -214.28,34.5 -5.03,1.1 -10.06,2.2 -15.15,3.4 -74.73,17 -146.75,38.4 -214.11,63.5 l -1.84,0.7 c -4.36,1.6 -8.75,3.2 -13.28,5 -67.53,25.9 -131.35,56.1 -189.66,89.7 -8.07,4.7 -15.99,9.4 -23.81,14.2 -5.11,3.1 -10.15,6.2 -15.06,9.3 -87.95,55.5 -159.32,118.1 -212.21,186 -4.7,5.9 -9.55,12.4 -14.83,19.8 -53.58,74.6 -84.04,153.4 -90.54,234.2 l -1.12,14 h -0.22 v 248.2 h 58.81 8.5 l 4.48,7.2 c 6.16,9.9 12.91,20 20.15,30 4.44,6.2 9.29,12.7 14.88,19.8 18.86,24.3 40.61,48.4 64.62,71.6 30.03,29 63.78,56.8 100.31,82.8 26.98,19.2 55.91,37.7 86,55.1 233.32,134.7 543.88,208.9 874.46,208.9" style="fill:#ffe840;fill-opacity:1;fill-rule:nonzero;stroke:none" id="path1344" transform="matrix(0.133333, 0, 0, -0.133333, 0, 5287.013184)"/>
  <path d="m 5326.2,21124.4 c 487.18,-281.3 487.18,-737.3 0,-1018.6 -487.18,-281.2 -1277.06,-281.2 -1764.24,0 -487.18,281.3 -487.18,737.3 0,1018.6 487.18,281.3 1277.06,281.3 1764.24,0" style="fill:#ffe840;fill-opacity:1;fill-rule:nonzero;stroke:none" id="path1346" transform="matrix(0.133333, 0, 0, -0.133333, 0, 5287.013184)"/>
  <path d="m 5387.98,20377.2 c -4.89,-6.5 -9.98,-13 -15.28,-19.4 -48.98,-59.1 -115.76,-114.3 -200.32,-163.2 -5.16,-3 -10.4,-5.9 -15.7,-8.8 -5.02,-2.8 -10.12,-5.6 -15.28,-8.3 -66.49,-35.4 -139.12,-64.8 -215.94,-88.1 -5.03,-1.6 -10.19,-3.1 -15.28,-4.6 -69.35,-20.3 -141.85,-35.8 -216.02,-46.4 -5.02,-0.7 -10.12,-1.4 -15.28,-2.1 -70.96,-9.5 -143.38,-14.7 -215.94,-15.4 -5.09,-0.1 -10.19,-0.1 -15.28,-0.1 -72.43,-0.2 -144.92,4 -216.01,12.7 -5.1,0.6 -10.26,1.2 -15.29,1.9 -73.96,9.6 -146.45,24 -215.94,43.1 -5.09,1.4 -10.26,2.8 -15.28,4.2 -76.47,21.9 -149.1,49.7 -216.01,83.3 -5.17,2.5 -10.26,5.1 -15.29,7.8 -12.9,6.7 -25.6,13.7 -38.02,20.8 -72.35,41.8 -131.66,88.3 -177.92,137.8 -5.23,5.6 -10.33,11.3 -15.28,17 -125.73,145.6 -141.71,315 -47.86,466.6 49.67,80.3 129.98,155.5 241.06,219.6 401.53,231.9 1054.95,231.9 1456.56,0 111.08,-64.1 191.38,-139.3 240.99,-219.6 87.92,-142 79.48,-299.7 -25.39,-438.8 z m 127.47,354.6 c -39.91,123.7 -143.24,237.5 -300.65,328.3 -205.89,118.9 -479.61,184.3 -770.7,184.3 -291.16,0 -564.88,-65.4 -770.7,-184.3 -157.41,-90.8 -260.81,-204.6 -300.72,-328.3 -12.28,-38.1 -18.56,-77.1 -18.56,-116.6 0,-121 58.75,-236.9 168.5,-336.6 4.95,-4.6 10.05,-9 15.28,-13.4 39.28,-33.9 84.56,-65.6 135.5,-95 25.81,-14.9 52.67,-29 80.44,-42.1 5.1,-2.5 10.19,-4.8 15.29,-7.1 67.05,-30.7 139.54,-56.5 216.01,-76.9 5.09,-1.4 10.19,-2.8 15.28,-4.1 69.14,-17.8 141.43,-31.4 215.94,-40.4 5.1,-0.7 10.19,-1.3 15.29,-1.9 69.2,-7.8 140.3,-11.8 212.45,-11.8 h 3.56 c 5.09,0 10.19,0.1 15.28,0.1 73.47,0.7 145.68,5.5 215.94,14.5 5.09,0.6 10.19,1.2 15.28,2 74.66,10 147.01,24.6 216.02,43.5 5.16,1.4 10.25,2.7 15.28,4.3 76.75,21.8 149.17,49 215.94,81.2 5.09,2.4 10.26,4.9 15.28,7.5 19.89,9.9 39.28,20.3 58.12,31.2 60.91,35.1 113.73,73.8 157.9,115 5.23,4.9 10.32,9.8 15.28,14.7 95.24,94.8 146.03,202.8 146.03,315.3 0,39.5 -6.28,78.5 -18.56,116.6" style="fill:#ff9d4d;fill-opacity:1;fill-rule:nonzero;stroke:none" id="path1348" transform="matrix(0.133333, 0, 0, -0.133333, 0, 5287.013184)"/>
  <path d="m 4484,20716.7 117.46,-67.8 c -2.66,-1.3 -5.27,-2.7 -7.82,-4.2 l -64.47,-37.2 -109.77,63.4 36.26,20.9 c 12.97,7.5 22.42,15.8 28.34,24.9" style="fill:#d1975d;fill-opacity:1;fill-rule:nonzero;stroke:none" id="path1350" transform="matrix(0.133333, 0, 0, -0.133333, 0, 5287.013184)"/>
  <path d="m 4216.36,20761.8 15.29,8.9 7.44,4.3 h 0.04 l 42.31,24.4 c 2.45,1.4 5.15,2.5 7.7,3.7 8.63,4.2 17.72,7.8 27.63,10.1 13.67,3.3 28.6,4.8 44.72,4.5 30.49,-0.6 59.24,-8.4 86.17,-23.6 l 1.95,-1.1 c 4.89,-2.8 9.28,-5.6 13.33,-8.6 19.26,-13.8 28.74,-28.4 28.47,-44 -0.15,-8.4 -2.59,-16.3 -7.4,-23.7 -4.75,-7.3 -11.79,-14.1 -21.07,-20.3 -2.31,-1.6 -4.68,-3.1 -7.26,-4.6 l -8.02,-4.6 -28.26,-16.3 -87.53,-50.6 h -0.02 l -23.89,-13.7 -37.59,-21.7 -20.86,12 -23.32,13.5 -9.83,5.7 -44.07,25.4 -82.18,47.4 22.83,13.2 38.64,22.3 h -0.01 z m 377.26,-117.1 c 2.58,1.5 5.16,2.9 7.82,4.2 10.04,4.8 21.07,8.4 32.93,10.6 14.37,2.8 29.23,3.9 44.51,3.3 l 2.37,-0.1 c 4.33,-0.2 8.59,-0.5 12.92,-0.9 11.78,-1.3 23.65,-3.5 35.44,-6.6 16.04,-4.2 30.56,-10.1 43.26,-17.4 12.76,-7.4 22.46,-15.7 29.23,-25 6.7,-9.4 10.19,-18.8 10.54,-28.3 0.34,-9.5 -2.65,-18.7 -9.01,-27.9 -3.9,-5.5 -9,-10.7 -15.28,-15.6 -3.09,-2.5 -6.61,-4.8 -10.32,-7.1 -1.05,-0.7 -2.03,-1.3 -3.12,-2 l -55.46,-32 -1.98,-1.1 -23.3,-13.5 -15.29,-8.8 -48.91,-28.2 -61.52,-35.5 -188.29,108.7 20.08,11.6 41.38,23.9 h -0.01 l 6.05,3.5 15.28,8.7 66.21,38.3 z m 241.69,-214 0.02,0.1 120.38,-69.5 71.96,41.5 -120.69,69.7 c 1.04,0.7 2.16,1.3 3.2,2.1 5.3,3.2 10.39,6.7 15.28,10.1 17.09,12.1 31.82,24.6 44.3,37.7 19.82,20.7 32.58,41.6 38.24,62.8 5.72,21.1 3.21,41.7 -7.54,61.8 -10.74,20.2 -31.19,39 -61.4,56.5 -4.53,2.6 -9.07,5.1 -13.6,7.5 -5.03,2.6 -10.12,5 -15.28,7.4 -38.87,18 -80.24,28.7 -124.2,32.2 -30.91,2.4 -61.47,1.5 -91.81,-2.7 -5.1,-0.7 -10.2,-1.6 -15.29,-2.5 -18.48,-3.3 -36.84,-7.7 -55.05,-13.4 18.77,27.9 21.63,55.6 8.58,83.4 -13.11,27.7 -37.11,51.6 -72,71.8 -22.19,12.8 -48,23.2 -77.59,31.4 -29.51,8.1 -59.86,13 -91.12,14.8 -31.19,1.7 -62.24,-0.1 -93.15,-5.5 -30.9,-5.5 -58.75,-15.3 -83.58,-29.7 l -22.68,-13.1 -115.98,67 -71.96,-41.6 115.93,-66.9 -87.49,-50.6 -115.99,67 -71.96,-41.6 115.94,-66.9 -128.44,-74.2 152.8,-88.2 15.28,-8.8 215.94,-124.7 15.29,-8.9 216.01,-124.7 15.28,-8.8 84.35,-48.7 128.52,74.2 h 0.02 l 120.37,-69.5 71.95,41.5 -120.38,69.5 h 0.05 l 87.49,50.5" style="fill:#ff9d4d;fill-opacity:1;fill-rule:nonzero;stroke:none" id="path1352" transform="matrix(0.133333, 0, 0, -0.133333, 0, 5287.013184)"/>
  <path d="m 3339.17,20287.5 v -252.4 c -5.38,6.7 -10.4,13.5 -15.28,20.3 v 252.5 c 4.88,-6.8 9.97,-13.6 15.28,-20.4" style="fill:#ffe840;fill-opacity:1;fill-rule:nonzero;stroke:none" id="path1354" transform="matrix(0.133333, 0, 0, -0.133333, 0, 5287.013184)"/>
  <path d="m 3537.9,20120.1 v -252.5 c -5.17,3.2 -10.26,6.3 -15.28,9.4 v 252.6 c 5.02,-3.2 10.11,-6.3 15.28,-9.5" style="fill:#ffe840;fill-opacity:1;fill-rule:nonzero;stroke:none" id="path1356" transform="matrix(0.133333, 0, 0, -0.133333, 0, 5287.013184)"/>
  <path d="m 3769.13,20009.3 v -252.5 c -5.1,1.8 -10.26,3.7 -15.29,5.7 v 252.5 c 5.03,-1.9 10.19,-3.9 15.29,-5.7" style="fill:#ffe840;fill-opacity:1;fill-rule:nonzero;stroke:none" id="path1358" transform="matrix(0.133333, 0, 0, -0.133333, 0, 5287.013184)"/>
  <path d="m 4000.42,19941.8 v -252.5 c -5.09,1.1 -10.19,2.2 -15.28,3.4 v 252.6 c 5.09,-1.2 10.19,-2.4 15.28,-3.5" style="fill:#ffe840;fill-opacity:1;fill-rule:nonzero;stroke:none" id="path1360" transform="matrix(0.133333, 0, 0, -0.133333, 0, 5287.013184)"/>
  <path d="m 4231.65,19905.4 v -252.5 c -5.1,0.4 -10.19,1 -15.29,1.6 v 252.5 c 5.1,-0.6 10.19,-1.1 15.29,-1.6" style="fill:#ffe840;fill-opacity:1;fill-rule:nonzero;stroke:none" id="path1362" transform="matrix(0.133333, 0, 0, -0.133333, 0, 5287.013184)"/>
  <path d="m 4462.94,19895 v -252.5 c -5.09,0 -10.19,-0.1 -15.28,-0.1 v 252.5 c 5.09,0 10.19,0.1 15.28,0.1" style="fill:#ffe840;fill-opacity:1;fill-rule:nonzero;stroke:none" id="path1364" transform="matrix(0.133333, 0, 0, -0.133333, 0, 5287.013184)"/>
  <path d="M 4694.16,19909.5 V 19657 c -5.09,-0.7 -10.19,-1.3 -15.28,-1.8 v 252.5 c 5.09,0.5 10.19,1.2 15.28,1.8" style="fill:#ffe840;fill-opacity:1;fill-rule:nonzero;stroke:none" id="path1366" transform="matrix(0.133333, 0, 0, -0.133333, 0, 5287.013184)"/>
  <path d="M 4925.46,19950.5 V 19698 c -5.1,-1.3 -10.19,-2.5 -15.28,-3.7 v 252.6 c 5.09,1.2 10.18,2.4 15.28,3.6" style="fill:#ffe840;fill-opacity:1;fill-rule:nonzero;stroke:none" id="path1368" transform="matrix(0.133333, 0, 0, -0.133333, 0, 5287.013184)"/>
  <path d="m 5156.68,20023.8 v -252.5 c -5.09,-2.1 -10.19,-4.1 -15.28,-6 v 252.5 c 5.09,1.9 10.19,3.9 15.28,6" style="fill:#ffe840;fill-opacity:1;fill-rule:nonzero;stroke:none" id="path1370" transform="matrix(0.133333, 0, 0, -0.133333, 0, 5287.013184)"/>
  <path d="m 5387.98,20144.1 v -252.5 c -5.03,-3.3 -10.12,-6.7 -15.28,-10 v 252.6 c 5.16,3.2 10.25,6.6 15.28,9.9" style="fill:#ffe840;fill-opacity:1;fill-rule:nonzero;stroke:none" id="path1372" transform="matrix(0.133333, 0, 0, -0.133333, 0, 5287.013184)"/>
  <path d="m 5593.11,20347.7 v -252.5 c -4.82,-7.9 -9.98,-15.8 -15.36,-23.6 v 252.5 c 5.38,7.8 10.47,15.7 15.36,23.6" style="fill:#ffe840;fill-opacity:1;fill-rule:nonzero;stroke:none" id="path1374" transform="matrix(0.133333, 0, 0, -0.133333, 0, 5287.013184)"/>
  <path d="m 4803.22,21110.5 v -278.7 h -1.33 c -5.72,-70.7 -29.37,-140.9 -70.96,-208.3 -4.81,-7.9 -9.97,-15.8 -15.35,-23.6 -50.3,-73.3 -122.24,-142.8 -215.94,-205.3 -5.03,-3.3 -10.12,-6.7 -15.28,-10 -14.93,-9.6 -30.42,-19 -46.47,-28.3 -53.17,-30.7 -109.96,-58 -169.55,-82 -5.09,-2 -10.18,-4.1 -15.27,-6 -68.8,-26.9 -141.16,-49.4 -215.95,-67.3 -5.09,-1.3 -10.19,-2.5 -15.28,-3.7 -70.26,-16.3 -142.62,-28.7 -216.01,-37.3 -5.1,-0.6 -10.19,-1.3 -15.28,-1.8 -71.31,-7.8 -143.6,-12.1 -215.95,-12.7 -5.09,0 -10.19,-0.1 -15.28,-0.1 -72.28,-0.1 -144.57,3.4 -216.01,10.5 -5.1,0.5 -10.19,1 -15.28,1.6 -73.26,7.7 -145.62,19.4 -215.95,34.8 -5.09,1.1 -10.19,2.2 -15.28,3.4 -74.66,17 -147.08,38.4 -216.01,64.1 -5.1,1.8 -10.26,3.7 -15.28,5.8 -67.82,25.9 -132.08,56.2 -191.88,90.7 -8.16,4.8 -16.18,9.5 -24.07,14.3 -5.16,3.2 -10.26,6.3 -15.28,9.4 -91.12,57.6 -163.2,121.7 -216.01,189.5 -5.37,6.7 -10.4,13.5 -15.29,20.4 -55.6,77.4 -86.72,159.4 -93.35,241.9 h -1.39 v 278.7 h 74.09 c 6.42,10.3 13.33,20.6 20.65,30.7 4.89,6.9 9.98,13.7 15.29,20.4 19.39,25 41.44,49.4 66.07,73.2 30.14,29.1 64.12,57.3 102.08,84.2 27.07,19.3 56.16,38 87.21,55.9 487.15,281.3 1277.04,281.3 1764.26,0 31.05,-17.9 60.07,-36.5 87.14,-55.9 37.89,-26.9 71.94,-55 102.08,-84.2 34.61,-33.4 64.13,-68.1 88.47,-103.7 4.75,-6.9 9.21,-13.7 13.54,-20.6 h 74.1" style="fill:#ff9d4d;fill-opacity:1;fill-rule:nonzero;stroke:none" id="path1376" transform="matrix(0.133333, 0, 0, -0.133333, 0, 5287.013184)"/>
  <path d="m 3555.73,21585.9 c -319.27,0 -638.52,-70.3 -882.1,-211 -31.05,-17.9 -60.14,-36.6 -87.21,-55.9 -37.96,-26.9 -71.94,-55.1 -102.08,-84.2 -24.63,-23.8 -46.68,-48.2 -66.07,-73.2 -5.31,-6.7 -10.4,-13.5 -15.29,-20.4 -7.32,-10.1 -14.23,-20.4 -20.65,-30.7 h -74.09 v -278.7 h 1.39 c 6.63,-82.5 37.75,-164.5 93.35,-241.9 4.89,-6.9 9.92,-13.7 15.29,-20.4 52.81,-67.8 124.89,-131.9 216.01,-189.5 5.02,-3.1 10.12,-6.2 15.28,-9.4 7.89,-4.8 15.91,-9.5 24.07,-14.3 59.8,-34.5 124.06,-64.8 191.88,-90.7 5.02,-2.1 10.18,-4 15.28,-5.8 68.93,-25.7 141.35,-47.1 216.01,-64.1 5.09,-1.2 10.19,-2.3 15.28,-3.4 70.33,-15.4 142.69,-27.1 215.95,-34.8 5.09,-0.6 10.18,-1.1 15.28,-1.6 70.07,-7 140.94,-10.5 211.84,-10.5 1.39,0 2.78,0 4.17,0 5.09,0 10.19,0.1 15.28,0.1 72.35,0.6 144.64,4.9 215.95,12.7 5.09,0.5 10.18,1.2 15.28,1.8 73.39,8.6 145.75,21 216.01,37.3 5.09,1.2 10.19,2.4 15.28,3.7 74.79,17.9 147.15,40.4 215.95,67.3 5.09,1.9 10.18,4 15.27,6 59.59,24 116.38,51.3 169.55,82 16.05,9.3 31.54,18.7 46.47,28.3 5.16,3.3 10.25,6.7 15.28,10 93.7,62.5 165.64,132 215.94,205.3 5.38,7.8 10.54,15.7 15.35,23.6 41.59,67.4 65.24,137.6 70.96,208.3 h 1.33 v 33.8 0.1 244.8 h -74.1 c -4.33,6.9 -8.79,13.7 -13.54,20.6 -24.34,35.6 -53.86,70.3 -88.47,103.7 -30.14,29.2 -64.19,57.3 -102.08,84.2 -27.07,19.4 -56.09,38 -87.14,55.9 -243.61,140.7 -562.89,211 -882.16,211 z m 0,-15.3 c 330.59,0 641.16,-74.2 874.51,-208.9 30.36,-17.5 59.27,-36.1 85.94,-55.1 36.99,-26.3 70.74,-54.2 100.31,-82.8 33.45,-32.3 62.54,-66.4 86.53,-101.4 4.33,-6.3 8.63,-12.8 13.15,-20 l 4.48,-7.2 h 8.47 58.81 v -229.6 -18.6 h -0.14 l -1.13,-14 c -5.58,-68.8 -28.71,-136.6 -68.77,-201.5 -4.41,-7.3 -9.42,-15 -14.91,-23 -50.35,-73.3 -121.61,-141 -211.82,-201.2 -4.97,-3.3 -10.01,-6.6 -15.04,-9.8 -14.67,-9.4 -30.1,-18.8 -45.88,-27.9 -51.65,-29.9 -108.04,-57.2 -167.6,-81.1 -5.02,-2 -10.03,-4 -15.14,-6 -67.54,-26.4 -139.53,-48.8 -214.23,-66.7 -4.96,-1.3 -9.93,-2.4 -14.89,-3.6 -68.82,-16 -140.94,-28.5 -214.42,-37 -4.96,-0.7 -9.92,-1.3 -15.1,-1.8 -70.68,-7.8 -142.81,-12 -214.48,-12.6 -5.01,0 -10.04,-0.1 -15.09,-0.1 h -4.14 c -70.53,0 -141.29,3.5 -210.59,10.5 -4.96,0.4 -9.91,0.9 -14.93,1.5 -72.67,7.7 -144.76,19.3 -214.28,34.5 -5.03,1.1 -10.05,2.2 -15.15,3.4 -74.72,17.1 -146.75,38.4 -214.11,63.5 l -1.84,0.7 c -4.36,1.6 -8.75,3.2 -13.28,5 -67.53,25.9 -131.35,56.1 -189.66,89.7 -8.06,4.7 -15.99,9.4 -23.81,14.2 -5.11,3.1 -10.15,6.2 -15.05,9.3 -87.96,55.5 -159.32,118.1 -212.21,186 -4.71,5.9 -9.56,12.4 -14.84,19.8 -53.58,74.6 -84.04,153.4 -90.53,234.2 l -1.13,14 h -0.22 v 248.2 h 58.81 8.5 l 4.49,7.2 c 6.16,9.9 12.9,20 20.15,30 4.43,6.2 9.29,12.7 14.87,19.9 18.86,24.3 40.61,48.3 64.62,71.5 30.03,29 63.78,56.9 100.32,82.8 26.97,19.2 55.9,37.7 85.99,55.1 233.32,134.7 543.88,208.9 874.46,208.9" style="fill:#ffe840;fill-opacity:1;fill-rule:nonzero;stroke:none" id="path1378" transform="matrix(0.133333, 0, 0, -0.133333, 0, 5287.013184)"/>
  <path d="m 4437.86,21627.4 c 487.18,-281.2 487.18,-737.3 0,-1018.5 -487.18,-281.3 -1277.05,-281.3 -1764.24,0 -487.17,281.2 -487.17,737.3 0,1018.5 487.19,281.3 1277.06,281.3 1764.24,0" style="fill:#ffe840;fill-opacity:1;fill-rule:nonzero;stroke:none" id="path1380" transform="matrix(0.133333, 0, 0, -0.133333, 0, 5287.013184)"/>
  <path d="m 4499.64,20880.2 c -4.88,-6.5 -9.98,-13 -15.28,-19.4 -48.98,-59.1 -115.75,-114.3 -200.32,-163.1 -5.16,-3.1 -10.39,-6 -15.7,-8.9 -5.02,-2.8 -10.11,-5.6 -15.27,-8.2 -66.5,-35.5 -139.13,-64.9 -215.95,-88.2 -5.03,-1.6 -10.19,-3.1 -15.28,-4.6 -69.35,-20.3 -141.85,-35.8 -216.01,-46.4 -5.03,-0.7 -10.12,-1.4 -15.28,-2.1 -70.97,-9.5 -143.39,-14.7 -215.95,-15.4 -5.09,-0.1 -10.19,-0.1 -15.28,-0.1 -72.43,-0.2 -144.92,4 -216.01,12.7 -5.1,0.6 -10.26,1.2 -15.28,1.9 -73.96,9.6 -146.46,24 -215.95,43.1 -5.09,1.4 -10.26,2.8 -15.28,4.2 -76.47,21.9 -149.1,49.7 -216.01,83.3 -5.17,2.6 -10.26,5.1 -15.28,7.8 -12.91,6.7 -25.61,13.7 -38.03,20.9 -72.35,41.7 -131.66,88.2 -177.92,137.7 -5.23,5.6 -10.33,11.3 -15.28,17 -125.73,145.6 -141.71,315 -47.86,466.6 49.67,80.3 129.98,155.5 241.06,219.6 401.54,231.9 1054.96,231.9 1456.56,0 111.08,-64.1 191.39,-139.3 240.99,-219.6 87.92,-142 79.48,-299.7 -25.39,-438.8 z m 127.47,354.6 c -39.91,123.7 -143.24,237.5 -300.65,328.3 -205.89,118.9 -479.61,184.3 -770.7,184.3 -291.16,0 -564.87,-65.4 -770.7,-184.3 -157.41,-90.8 -260.81,-204.6 -300.72,-328.3 -12.28,-38.1 -18.56,-77.1 -18.56,-116.6 0,-121 58.75,-236.8 168.5,-336.5 4.95,-4.6 10.05,-9.1 15.28,-13.5 39.28,-33.8 84.57,-65.6 135.5,-95 25.81,-14.9 52.67,-29 80.45,-42.1 5.09,-2.5 10.18,-4.8 15.28,-7.1 67.05,-30.7 139.54,-56.5 216.01,-76.9 5.09,-1.4 10.19,-2.8 15.28,-4.1 69.15,-17.8 141.43,-31.4 215.95,-40.4 5.09,-0.7 10.18,-1.3 15.28,-1.8 69.21,-7.9 140.31,-11.9 212.45,-11.9 h 3.56 c 5.09,0 10.19,0.1 15.28,0.1 73.47,0.7 145.68,5.5 215.95,14.5 5.09,0.6 10.18,1.2 15.28,2 74.65,10 147.01,24.6 216.01,43.5 5.16,1.4 10.25,2.8 15.28,4.3 76.75,21.8 149.17,49 215.95,81.2 5.09,2.4 10.25,4.9 15.27,7.5 19.89,9.9 39.29,20.3 58.12,31.2 60.91,35.1 113.73,73.8 157.9,115 5.23,4.9 10.32,9.8 15.28,14.7 95.24,94.8 146.03,202.8 146.03,315.3 0,39.5 -6.28,78.5 -18.56,116.6" style="fill:#ff9d4d;fill-opacity:1;fill-rule:nonzero;stroke:none" id="path1382" transform="matrix(0.133333, 0, 0, -0.133333, 0, 5287.013184)"/>
  <path d="m 3595.66,21219.7 117.47,-67.8 c -2.67,-1.3 -5.28,-2.7 -7.83,-4.2 l -64.47,-37.2 -109.77,63.4 36.26,20.9 c 12.97,7.5 22.42,15.8 28.34,24.9" style="fill:#d1975d;fill-opacity:1;fill-rule:nonzero;stroke:none" id="path1384" transform="matrix(0.133333, 0, 0, -0.133333, 0, 5287.013184)"/>
  <path d="m 3328.03,21264.8 15.28,8.9 7.44,4.3 h 0.04 l 42.32,24.4 c 2.44,1.4 5.14,2.5 7.69,3.7 8.63,4.2 17.72,7.8 27.63,10.1 13.67,3.3 28.6,4.8 44.72,4.5 30.49,-0.5 59.24,-8.4 86.17,-23.6 l 1.95,-1.1 c 4.89,-2.8 9.28,-5.6 13.33,-8.6 19.26,-13.8 28.74,-28.4 28.47,-44 -0.15,-8.4 -2.59,-16.3 -7.4,-23.7 -4.74,-7.3 -11.79,-14.1 -21.07,-20.3 -2.3,-1.6 -4.67,-3.1 -7.26,-4.6 l -8.02,-4.6 -28.26,-16.3 -87.53,-50.6 -0.02,0.1 -23.89,-13.8 -37.59,-21.7 -20.86,12 -23.32,13.5 -9.82,5.7 -44.08,25.4 -82.17,47.4 22.82,13.2 38.64,22.3 h -0.01 z m 377.25,-117.1 c 2.59,1.5 5.16,2.9 7.82,4.2 10.04,4.8 21.07,8.4 32.93,10.6 14.37,2.8 29.23,3.9 44.52,3.3 h 2.37 c 4.32,-0.3 8.58,-0.6 12.91,-1 11.79,-1.3 23.65,-3.4 35.44,-6.6 16.04,-4.2 30.56,-10.1 43.26,-17.4 12.76,-7.4 22.46,-15.7 29.23,-25 6.7,-9.4 10.19,-18.8 10.54,-28.3 0.34,-9.5 -2.65,-18.7 -9,-27.9 -3.91,-5.5 -9,-10.7 -15.29,-15.6 -3.09,-2.4 -6.61,-4.8 -10.32,-7.1 -1.05,-0.7 -2.03,-1.3 -3.12,-2 l -55.46,-32 -1.98,-1.1 -23.3,-13.5 -15.28,-8.8 -48.91,-28.2 -61.53,-35.5 -188.29,108.7 20.08,11.6 41.38,23.9 h -0.01 l 6.05,3.5 15.28,8.8 66.21,38.2 z m 241.69,-213.9 h 0.02 l 120.38,-69.5 71.96,41.5 -120.69,69.7 c 1.05,0.7 2.16,1.3 3.2,2.1 5.3,3.3 10.4,6.7 15.28,10.1 17.09,12.1 31.82,24.6 44.31,37.7 19.81,20.7 32.58,41.6 38.23,62.8 5.72,21.1 3.21,41.7 -7.54,61.9 -10.74,20.1 -31.18,39 -61.4,56.4 -4.53,2.6 -9.06,5.1 -13.6,7.5 -5.03,2.6 -10.12,5.1 -15.28,7.4 -38.86,18 -80.24,28.7 -124.2,32.2 -30.91,2.4 -61.46,1.5 -91.81,-2.7 -5.1,-0.7 -10.19,-1.6 -15.28,-2.5 -18.49,-3.2 -36.84,-7.7 -55.06,-13.4 18.77,27.9 21.63,55.6 8.59,83.4 -13.12,27.7 -37.12,51.6 -72.01,71.8 -22.19,12.8 -48,23.2 -77.59,31.4 -29.51,8.1 -59.86,13.1 -91.12,14.8 -31.19,1.7 -62.23,-0.1 -93.15,-5.5 -30.9,-5.5 -58.74,-15.3 -83.58,-29.7 l -22.67,-13.1 -115.99,67 -71.95,-41.6 115.92,-66.9 -87.49,-50.6 -115.99,67 -71.96,-41.6 115.94,-66.9 -128.44,-74.2 152.8,-88.2 15.28,-8.8 215.95,-124.7 15.28,-8.9 216.01,-124.6 15.28,-8.9 84.36,-48.7 128.52,74.2 h 0.01 l 120.37,-69.5 71.95,41.5 -120.37,69.5 h 0.04 l 87.49,50.6" style="fill:#ff9d4d;fill-opacity:1;fill-rule:nonzero;stroke:none" id="path1386" transform="matrix(0.133333, 0, 0, -0.133333, 0, 5287.013184)"/>
  <path d="m 2450.83,20790.5 v -252.4 c -5.38,6.7 -10.4,13.5 -15.28,20.4 v 252.5 c 4.88,-6.9 9.97,-13.7 15.28,-20.5" style="fill:#ffe840;fill-opacity:1;fill-rule:nonzero;stroke:none" id="path1388" transform="matrix(0.133333, 0, 0, -0.133333, 0, 5287.013184)"/>
  <path d="m 2649.56,20623.1 v -252.5 c -5.16,3.2 -10.26,6.3 -15.28,9.4 v 252.6 c 5.02,-3.2 10.12,-6.3 15.28,-9.5" style="fill:#ffe840;fill-opacity:1;fill-rule:nonzero;stroke:none" id="path1390" transform="matrix(0.133333, 0, 0, -0.133333, 0, 5287.013184)"/>
  <path d="m 2880.79,20512.3 v -252.5 c -5.1,1.8 -10.26,3.7 -15.28,5.8 v 252.5 c 5.02,-2 10.18,-3.9 15.28,-5.8" style="fill:#ffe840;fill-opacity:1;fill-rule:nonzero;stroke:none" id="path1392" transform="matrix(0.133333, 0, 0, -0.133333, 0, 5287.013184)"/>
  <path d="m 3112.08,20444.8 v -252.5 c -5.09,1.1 -10.19,2.2 -15.28,3.4 v 252.6 c 5.09,-1.2 10.19,-2.4 15.28,-3.5" style="fill:#ffe840;fill-opacity:1;fill-rule:nonzero;stroke:none" id="path1394" transform="matrix(0.133333, 0, 0, -0.133333, 0, 5287.013184)"/>
  <path d="m 3343.31,20408.4 v -252.5 c -5.1,0.5 -10.19,1 -15.28,1.6 v 252.5 c 5.09,-0.6 10.18,-1.1 15.28,-1.6" style="fill:#ffe840;fill-opacity:1;fill-rule:nonzero;stroke:none" id="path1396" transform="matrix(0.133333, 0, 0, -0.133333, 0, 5287.013184)"/>
  <path d="m 3574.6,20398.1 v -252.6 c -5.09,0 -10.19,-0.1 -15.28,-0.1 v 252.5 c 5.09,0 10.19,0.1 15.28,0.2" style="fill:#ffe840;fill-opacity:1;fill-rule:nonzero;stroke:none" id="path1398" transform="matrix(0.133333, 0, 0, -0.133333, 0, 5287.013184)"/>
  <path d="M 3805.83,20412.5 V 20160 c -5.1,-0.6 -10.19,-1.3 -15.28,-1.8 v 252.5 c 5.09,0.5 10.18,1.2 15.28,1.8" style="fill:#ffe840;fill-opacity:1;fill-rule:nonzero;stroke:none" id="path1400" transform="matrix(0.133333, 0, 0, -0.133333, 0, 5287.013184)"/>
  <path d="M 4037.12,20453.5 V 20201 c -5.09,-1.3 -10.19,-2.5 -15.28,-3.7 v 252.6 c 5.09,1.2 10.19,2.4 15.28,3.6" style="fill:#ffe840;fill-opacity:1;fill-rule:nonzero;stroke:none" id="path1402" transform="matrix(0.133333, 0, 0, -0.133333, 0, 5287.013184)"/>
  <path d="m 4268.34,20526.8 v -252.5 c -5.09,-2 -10.18,-4.1 -15.27,-6 v 252.5 c 5.09,1.9 10.18,4 15.27,6" style="fill:#ffe840;fill-opacity:1;fill-rule:nonzero;stroke:none" id="path1404" transform="matrix(0.133333, 0, 0, -0.133333, 0, 5287.013184)"/>
  <path d="m 4499.64,20647.1 v -252.5 c -5.03,-3.3 -10.12,-6.7 -15.28,-10 v 252.6 c 5.16,3.2 10.25,6.6 15.28,9.9" style="fill:#ffe840;fill-opacity:1;fill-rule:nonzero;stroke:none" id="path1406" transform="matrix(0.133333, 0, 0, -0.133333, 0, 5287.013184)"/>
  <path d="m 4704.77,20850.7 v -252.5 c -4.81,-7.9 -9.98,-15.8 -15.35,-23.6 v 252.5 c 5.37,7.8 10.46,15.7 15.35,23.6" style="fill:#ffe840;fill-opacity:1;fill-rule:nonzero;stroke:none" id="path1408" transform="matrix(0.133333, 0, 0, -0.133333, 0, 5287.013184)"/>
  <path d="m 5171.8,21532.8 v -278.7 h -1.33 c -5.71,-70.6 -29.37,-140.9 -70.95,-208.3 -4.82,-7.9 -9.98,-15.8 -15.35,-23.6 -50.31,-73.3 -122.25,-142.8 -215.95,-205.3 -5.02,-3.3 -10.11,-6.7 -15.28,-10 -14.93,-9.6 -30.42,-19 -46.47,-28.3 -53.16,-30.7 -109.96,-58 -169.54,-82 -5.09,-2 -10.19,-4.1 -15.28,-6 -68.8,-26.9 -141.15,-49.3 -215.95,-67.3 -5.09,-1.3 -10.18,-2.5 -15.28,-3.7 -70.26,-16.3 -142.61,-28.7 -216.01,-37.3 -5.09,-0.6 -10.19,-1.3 -15.28,-1.7 -71.31,-7.9 -143.59,-12.2 -215.95,-12.7 -5.09,-0.1 -10.18,-0.2 -15.27,-0.2 -72.29,-0.1 -144.58,3.4 -216.02,10.6 -5.09,0.4 -10.19,0.9 -15.28,1.5 -73.26,7.7 -145.61,19.4 -215.95,34.8 -5.09,1.1 -10.18,2.2 -15.27,3.4 -74.66,17 -147.08,38.4 -216.02,64.1 -5.09,1.9 -10.26,3.7 -15.28,5.8 -67.82,25.9 -132.08,56.2 -191.87,90.7 -8.17,4.8 -16.19,9.5 -24.08,14.3 -5.16,3.2 -10.25,6.3 -15.27,9.5 -91.13,57.5 -163.2,121.6 -216.02,189.4 -5.38,6.8 -10.39,13.5 -15.28,20.4 -55.61,77.4 -86.73,159.4 -93.36,241.9 h -1.39 v 278.7 h 74.1 c 6.41,10.3 13.32,20.6 20.65,30.7 4.89,6.9 9.98,13.7 15.28,20.4 19.4,25 41.45,49.4 66.07,73.2 30.15,29.1 64.13,57.3 102.08,84.3 27.07,19.2 56.17,37.9 87.22,55.8 487.15,281.3 1277.03,281.3 1764.25,0 31.05,-17.9 60.08,-36.5 87.15,-55.8 37.88,-27 71.93,-55.1 102.08,-84.3 34.6,-33.4 64.12,-68.1 88.47,-103.7 4.74,-6.9 9.21,-13.7 13.54,-20.6 h 74.09" style="fill:#ff9d4d;fill-opacity:1;fill-rule:nonzero;stroke:none" id="path1410" transform="matrix(0.133333, 0, 0, -0.133333, 0, 5287.013184)"/>
  <path d="m 3924.32,22008.2 c -319.27,0 -638.53,-70.3 -882.1,-211 -31.05,-17.9 -60.15,-36.6 -87.22,-55.8 -37.95,-27 -71.93,-55.2 -102.08,-84.3 -24.62,-23.8 -46.67,-48.2 -66.07,-73.2 -5.3,-6.7 -10.39,-13.5 -15.28,-20.4 -7.33,-10.1 -14.24,-20.4 -20.65,-30.7 h -74.1 v -278.7 h 1.39 c 6.63,-82.5 37.75,-164.5 93.36,-241.9 4.89,-6.9 9.9,-13.6 15.28,-20.4 52.82,-67.8 124.89,-131.9 216.02,-189.4 5.02,-3.2 10.11,-6.3 15.27,-9.5 7.89,-4.8 15.91,-9.5 24.08,-14.3 59.79,-34.5 124.05,-64.8 191.87,-90.7 5.02,-2.1 10.19,-3.9 15.28,-5.8 68.94,-25.7 141.36,-47.1 216.02,-64.1 5.09,-1.2 10.18,-2.3 15.27,-3.4 70.34,-15.4 142.69,-27.1 215.95,-34.8 5.09,-0.6 10.19,-1.1 15.28,-1.5 70.07,-7.1 140.94,-10.6 211.84,-10.6 1.39,0 2.78,0 4.18,0 5.09,0 10.18,0.1 15.27,0.2 72.36,0.5 144.64,4.8 215.95,12.7 5.09,0.4 10.19,1.1 15.28,1.7 73.4,8.6 145.75,21 216.01,37.3 5.1,1.2 10.19,2.4 15.28,3.7 74.8,18 147.15,40.4 215.95,67.3 5.09,1.9 10.18,4 15.28,6 59.58,24 116.38,51.3 169.54,82 16.05,9.3 31.54,18.7 46.47,28.3 5.17,3.3 10.26,6.7 15.28,10 93.7,62.5 165.64,132 215.95,205.3 5.37,7.8 10.53,15.7 15.35,23.6 41.58,67.4 65.24,137.7 70.95,208.3 h 1.33 v 33.8 0.1 244.8 h -74.09 c -4.33,6.9 -8.8,13.7 -13.54,20.6 -24.36,35.6 -53.87,70.3 -88.48,103.7 -30.13,29.2 -64.19,57.3 -102.07,84.3 -27.07,19.3 -56.1,37.9 -87.15,55.8 -243.6,140.7 -562.88,211 -882.15,211 z m 0,-15.3 c 330.58,0 641.16,-74.2 874.51,-208.9 30.35,-17.5 59.26,-36.1 85.93,-55.1 36.99,-26.3 70.74,-54.1 100.32,-82.8 33.45,-32.3 62.54,-66.4 86.53,-101.4 4.31,-6.2 8.61,-12.8 13.14,-20 l 4.49,-7.2 h 8.47 58.8 v -229.6 -18.5 h -0.13 l -1.14,-14.1 c -5.58,-68.8 -28.7,-136.6 -68.77,-201.5 -4.41,-7.3 -9.42,-15 -14.91,-22.9 -50.34,-73.4 -121.61,-141.1 -211.82,-201.2 -4.97,-3.4 -10.01,-6.7 -15.04,-9.9 -14.66,-9.4 -30.1,-18.8 -45.87,-27.9 -51.66,-29.9 -108.05,-57.1 -167.61,-81.1 -5.01,-2 -10.03,-4 -15.13,-6 -67.54,-26.4 -139.53,-48.8 -214.23,-66.7 -4.97,-1.3 -9.94,-2.4 -14.9,-3.6 -68.82,-16 -140.93,-28.4 -214.42,-37 -4.96,-0.6 -9.91,-1.3 -15.09,-1.8 -70.67,-7.8 -142.8,-12 -214.48,-12.6 -5.02,0 -10.05,-0.1 -15.1,-0.1 h -4.14 c -70.54,0 -141.3,3.5 -210.59,10.5 -4.94,0.4 -9.88,0.9 -14.92,1.5 -72.67,7.7 -144.77,19.3 -214.29,34.5 -5.02,1.1 -10.05,2.2 -15.15,3.4 -74.72,17.1 -146.74,38.4 -214.11,63.5 l -1.83,0.7 c -4.36,1.6 -8.75,3.2 -13.29,5 -67.52,25.9 -131.34,56.1 -189.65,89.8 -8.07,4.6 -16,9.3 -23.82,14.1 -5.1,3.1 -10.14,6.2 -15.05,9.3 -87.95,55.5 -159.32,118.1 -212.21,186 -4.71,5.9 -9.56,12.4 -14.84,19.8 -53.57,74.6 -84.04,153.4 -90.53,234.2 l -1.13,14.1 h -0.22 v 248.1 h 58.82 8.49 l 4.49,7.2 c 6.16,9.9 12.91,20 20.15,30 4.45,6.3 9.3,12.8 14.87,19.9 18.87,24.3 40.61,48.3 64.62,71.5 30.03,29 63.77,56.9 100.32,82.8 26.97,19.2 55.9,37.7 86,55.1 233.32,134.7 543.88,208.9 874.46,208.9" style="fill:#ffe840;fill-opacity:1;fill-rule:nonzero;stroke:none" id="path1412" transform="matrix(0.133333, 0, 0, -0.133333, 0, 5287.013184)"/>
  <path d="m 4806.45,22049.7 c 487.17,-281.2 487.17,-737.3 0,-1018.5 -487.19,-281.3 -1277.06,-281.3 -1764.24,0 -487.18,281.2 -487.18,737.3 0,1018.5 487.18,281.3 1277.05,281.3 1764.24,0" style="fill:#ffe840;fill-opacity:1;fill-rule:nonzero;stroke:none" id="path1414" transform="matrix(0.133333, 0, 0, -0.133333, 0, 5287.013184)"/>
  <path d="m 4868.22,21302.5 c -4.88,-6.5 -9.98,-13 -15.28,-19.4 -48.98,-59 -115.75,-114.3 -200.31,-163.1 -5.17,-3 -10.4,-6 -15.7,-8.9 -5.03,-2.8 -10.12,-5.6 -15.28,-8.2 -66.49,-35.5 -139.13,-64.9 -215.95,-88.2 -5.02,-1.6 -10.18,-3.1 -15.28,-4.6 -69.35,-20.3 -141.85,-35.8 -216.01,-46.4 -5.03,-0.7 -10.12,-1.4 -15.28,-2 -70.96,-9.6 -143.38,-14.8 -215.95,-15.5 -5.09,0 -10.18,-0.1 -15.27,-0.1 -72.43,-0.1 -144.92,4 -216.02,12.7 -5.09,0.6 -10.26,1.2 -15.28,1.9 -73.96,9.6 -146.45,24 -215.95,43.1 -5.09,1.4 -10.25,2.8 -15.27,4.2 -76.48,22 -149.11,49.7 -216.02,83.3 -5.17,2.6 -10.26,5.2 -15.28,7.8 -12.91,6.7 -25.61,13.7 -38.03,20.9 -72.35,41.8 -131.66,88.2 -177.92,137.7 -5.23,5.6 -10.32,11.3 -15.27,17 -125.74,145.6 -141.71,315 -47.87,466.7 49.68,80.2 129.99,155.4 241.06,219.5 401.54,231.9 1054.96,231.9 1456.57,0 111.07,-64.1 191.38,-139.3 240.99,-219.5 87.91,-142.1 79.47,-299.8 -25.4,-438.9 z m 127.48,354.6 c -39.91,123.7 -143.25,237.5 -300.65,328.3 -205.9,118.9 -479.62,184.4 -770.7,184.4 -291.17,0 -564.88,-65.5 -770.71,-184.4 -157.4,-90.8 -260.81,-204.6 -300.72,-328.3 -12.28,-38.1 -18.55,-77.1 -18.55,-116.6 0,-121 58.74,-236.8 168.5,-336.5 4.95,-4.6 10.04,-9.1 15.27,-13.5 39.29,-33.8 84.57,-65.6 135.5,-95 25.82,-14.9 52.68,-29 80.45,-42.1 5.09,-2.4 10.19,-4.8 15.28,-7.1 67.05,-30.7 139.54,-56.5 216.02,-76.9 5.09,-1.4 10.18,-2.8 15.27,-4.1 69.15,-17.7 141.43,-31.3 215.95,-40.3 5.09,-0.7 10.19,-1.4 15.28,-1.9 69.21,-7.9 140.31,-11.9 212.46,-11.9 h 3.56 c 5.09,0 10.18,0.1 15.27,0.1 73.48,0.7 145.69,5.6 215.95,14.5 5.09,0.6 10.19,1.2 15.28,2 74.65,10 147.01,24.6 216.01,43.5 5.17,1.4 10.26,2.8 15.28,4.3 76.75,21.8 149.17,49 215.95,81.2 5.09,2.4 10.25,4.9 15.28,7.5 19.88,9.9 39.28,20.3 58.12,31.2 60.91,35.1 113.72,73.8 157.89,115 5.23,4.9 10.33,9.8 15.28,14.7 95.24,94.8 146.03,202.8 146.03,315.3 0,39.5 -6.28,78.5 -18.55,116.6" style="fill:#ff9d4d;fill-opacity:1;fill-rule:nonzero;stroke:none" id="path1416" transform="matrix(0.133333, 0, 0, -0.133333, 0, 5287.013184)"/>
  <path d="m 3964.24,21642 117.47,-67.8 c -2.66,-1.3 -5.27,-2.7 -7.83,-4.1 l -64.46,-37.3 -109.78,63.4 36.26,20.9 c 12.98,7.5 22.43,15.8 28.34,24.9" style="fill:#d1975d;fill-opacity:1;fill-rule:nonzero;stroke:none" id="path1418" transform="matrix(0.133333, 0, 0, -0.133333, 0, 5287.013184)"/>
  <path d="m 3696.61,21687.1 15.28,8.9 7.45,4.3 h 0.04 l 42.31,24.4 c 2.45,1.4 5.14,2.5 7.69,3.7 8.64,4.2 17.72,7.8 27.63,10.2 13.67,3.2 28.61,4.7 44.72,4.4 30.5,-0.5 59.24,-8.3 86.18,-23.6 l 1.95,-1.1 c 4.88,-2.8 9.28,-5.6 13.32,-8.6 19.26,-13.8 28.75,-28.4 28.47,-44 -0.14,-8.4 -2.58,-16.3 -7.4,-23.7 -4.74,-7.3 -11.78,-14.1 -21.07,-20.3 -2.3,-1.5 -4.67,-3.1 -7.25,-4.5 l -8.02,-4.6 -28.27,-16.4 -87.53,-50.5 h -0.02 l -23.89,-13.8 -37.59,-21.7 -20.85,12 -23.33,13.5 -9.82,5.7 -44.08,25.4 -82.17,47.5 22.82,13.1 38.65,22.3 -0.02,0.1 z m 377.26,-117 c 2.58,1.4 5.16,2.8 7.81,4.1 10.05,4.8 21.07,8.4 32.93,10.7 14.37,2.7 29.24,3.8 44.52,3.2 h 2.37 c 4.33,-0.2 8.58,-0.6 12.91,-1 11.79,-1.3 23.65,-3.4 35.44,-6.6 16.05,-4.2 30.56,-10.1 43.26,-17.4 12.77,-7.4 22.47,-15.7 29.23,-25 6.7,-9.3 10.19,-18.8 10.54,-28.3 0.35,-9.4 -2.65,-18.7 -9,-27.9 -3.9,-5.5 -9,-10.7 -15.28,-15.6 -3.1,-2.4 -6.62,-4.8 -10.33,-7.1 -1.04,-0.6 -2.03,-1.3 -3.12,-1.9 l -55.46,-32.1 -1.98,-1.1 -23.3,-13.5 -15.28,-8.8 -48.91,-28.2 -61.52,-35.5 -188.3,108.7 20.09,11.6 41.38,23.9 h -0.02 l 6.06,3.5 15.27,8.8 66.21,38.2 z m 241.69,-214 h 0.01 l 120.38,-69.5 71.97,41.5 -120.69,69.7 c 1.04,0.7 2.15,1.3 3.19,2.1 5.31,3.3 10.4,6.7 15.28,10.1 17.1,12.1 31.82,24.6 44.31,37.7 19.81,20.7 32.58,41.6 38.23,62.8 5.72,21.1 3.21,41.7 -7.53,61.9 -10.75,20.1 -31.19,39 -61.4,56.4 -4.54,2.6 -9.07,5.1 -13.61,7.5 -5.02,2.6 -10.11,5.1 -15.28,7.4 -38.86,18 -80.23,28.7 -124.19,32.2 -30.91,2.4 -61.47,1.5 -91.82,-2.7 -5.09,-0.7 -10.19,-1.5 -15.28,-2.5 -18.49,-3.2 -36.84,-7.7 -55.05,-13.4 18.77,27.9 21.63,55.7 8.58,83.4 -13.12,27.7 -37.12,51.7 -72.01,71.8 -22.18,12.8 -48,23.3 -77.58,31.4 -29.52,8.1 -59.87,13.1 -91.12,14.8 -31.19,1.8 -62.24,-0.1 -93.15,-5.5 -30.91,-5.4 -58.75,-15.3 -83.59,-29.7 l -22.67,-13.1 -115.98,67 -71.96,-41.6 115.93,-66.9 -87.49,-50.6 -115.99,67 -71.97,-41.6 115.95,-66.9 -128.45,-74.2 152.8,-88.2 15.28,-8.8 215.95,-124.7 15.28,-8.9 216.02,-124.6 15.27,-8.9 84.36,-48.7 128.52,74.2 h 0.01 l 120.37,-69.5 71.96,41.5 -120.38,69.5 0.04,0.1 87.5,50.5" style="fill:#ff9d4d;fill-opacity:1;fill-rule:nonzero;stroke:none" id="path1420" transform="matrix(0.133333, 0, 0, -0.133333, 0, 5287.013184)"/>
  <path d="m 2819.41,21212.8 v -252.4 c -5.37,6.8 -10.4,13.5 -15.28,20.4 v 252.5 c 4.88,-6.9 9.98,-13.7 15.28,-20.5" style="fill:#ffe840;fill-opacity:1;fill-rule:nonzero;stroke:none" id="path1422" transform="matrix(0.133333, 0, 0, -0.133333, 0, 5287.013184)"/>
  <path d="m 3018.14,21045.4 v -252.5 c -5.16,3.2 -10.25,6.3 -15.27,9.5 v 252.5 c 5.02,-3.2 10.11,-6.3 15.27,-9.5" style="fill:#ffe840;fill-opacity:1;fill-rule:nonzero;stroke:none" id="path1424" transform="matrix(0.133333, 0, 0, -0.133333, 0, 5287.013184)"/>
  <path d="m 3249.37,20934.6 v -252.5 c -5.09,1.9 -10.26,3.7 -15.28,5.8 v 252.5 c 5.02,-2 10.19,-3.9 15.28,-5.8" style="fill:#ffe840;fill-opacity:1;fill-rule:nonzero;stroke:none" id="path1426" transform="matrix(0.133333, 0, 0, -0.133333, 0, 5287.013184)"/>
  <path d="m 3480.66,20867.1 v -252.5 c -5.09,1.1 -10.18,2.2 -15.27,3.4 v 252.6 c 5.09,-1.2 10.18,-2.4 15.27,-3.5" style="fill:#ffe840;fill-opacity:1;fill-rule:nonzero;stroke:none" id="path1428" transform="matrix(0.133333, 0, 0, -0.133333, 0, 5287.013184)"/>
  <path d="m 3711.89,20830.8 v -252.5 c -5.09,0.4 -10.19,0.9 -15.28,1.5 v 252.5 c 5.09,-0.6 10.19,-1.1 15.28,-1.5" style="fill:#ffe840;fill-opacity:1;fill-rule:nonzero;stroke:none" id="path1430" transform="matrix(0.133333, 0, 0, -0.133333, 0, 5287.013184)"/>
  <path d="m 3943.18,20820.4 v -252.5 c -5.09,-0.1 -10.18,-0.2 -15.27,-0.2 v 252.5 c 5.09,0 10.18,0.1 15.27,0.2" style="fill:#ffe840;fill-opacity:1;fill-rule:nonzero;stroke:none" id="path1432" transform="matrix(0.133333, 0, 0, -0.133333, 0, 5287.013184)"/>
  <path d="m 4174.41,20834.8 v -252.5 c -5.09,-0.6 -10.19,-1.3 -15.28,-1.7 v 252.5 c 5.09,0.4 10.19,1.1 15.28,1.7" style="fill:#ffe840;fill-opacity:1;fill-rule:nonzero;stroke:none" id="path1434" transform="matrix(0.133333, 0, 0, -0.133333, 0, 5287.013184)"/>
  <path d="m 4405.7,20875.8 v -252.5 c -5.09,-1.3 -10.18,-2.5 -15.28,-3.7 v 252.6 c 5.1,1.2 10.19,2.4 15.28,3.6" style="fill:#ffe840;fill-opacity:1;fill-rule:nonzero;stroke:none" id="path1436" transform="matrix(0.133333, 0, 0, -0.133333, 0, 5287.013184)"/>
  <path d="m 4636.93,20949.1 v -252.5 c -5.09,-2 -10.19,-4.1 -15.28,-6 v 252.6 c 5.09,1.8 10.19,3.9 15.28,5.9" style="fill:#ffe840;fill-opacity:1;fill-rule:nonzero;stroke:none" id="path1438" transform="matrix(0.133333, 0, 0, -0.133333, 0, 5287.013184)"/>
  <path d="m 4868.22,21069.4 v -252.5 c -5.02,-3.3 -10.11,-6.7 -15.28,-10 v 252.6 c 5.17,3.2 10.26,6.6 15.28,9.9" style="fill:#ffe840;fill-opacity:1;fill-rule:nonzero;stroke:none" id="path1440" transform="matrix(0.133333, 0, 0, -0.133333, 0, 5287.013184)"/>
  <path d="m 5073.35,21273 v -252.5 c -4.81,-7.9 -9.98,-15.8 -15.35,-23.6 v 252.5 c 5.37,7.8 10.47,15.7 15.35,23.6" style="fill:#ffe840;fill-opacity:1;fill-rule:nonzero;stroke:none" id="path1442" transform="matrix(0.133333, 0, 0, -0.133333, 0, 5287.013184)"/>
  <path d="M 4590.78,22126.8 V 21848 h -1.32 c -5.72,-70.6 -29.38,-140.8 -70.96,-208.2 -4.82,-7.9 -9.98,-15.8 -15.35,-23.6 -50.31,-73.3 -122.24,-142.8 -215.95,-205.3 -5.02,-3.3 -10.12,-6.7 -15.28,-10 -14.93,-9.6 -30.42,-19 -46.47,-28.3 -53.16,-30.7 -109.96,-58 -169.54,-82 -5.09,-2.1 -10.19,-4.1 -15.28,-6 -68.8,-26.9 -141.15,-49.4 -215.95,-67.3 -5.09,-1.3 -10.18,-2.5 -15.28,-3.7 -70.25,-16.3 -142.61,-28.7 -216.01,-37.3 -5.09,-0.7 -10.19,-1.3 -15.28,-1.8 -71.31,-7.9 -143.59,-12.1 -215.95,-12.7 -5.09,0 -10.18,-0.1 -15.28,-0.1 -72.28,-0.2 -144.57,3.3 -216.01,10.5 -5.09,0.4 -10.19,1 -15.28,1.6 -73.26,7.7 -145.61,19.4 -215.95,34.8 -5.09,1.1 -10.18,2.2 -15.27,3.4 -74.66,17 -147.08,38.4 -216.02,64 -5.09,1.9 -10.25,3.8 -15.28,5.8 -67.82,26 -132.08,56.3 -191.87,90.8 -8.17,4.8 -16.19,9.5 -24.08,14.3 -5.16,3.2 -10.25,6.3 -15.27,9.4 -91.13,57.6 -163.2,121.6 -216.02,189.5 -5.37,6.7 -10.4,13.5 -15.28,20.3 -55.61,77.5 -86.73,159.5 -93.35,241.9 h -1.4 v 278.8 h 74.1 c 6.42,10.3 13.32,20.6 20.65,30.7 4.88,6.9 9.98,13.7 15.28,20.4 19.4,25 41.45,49.4 66.07,73.2 30.15,29.1 64.13,57.3 102.08,84.2 27.07,19.3 56.17,38 87.22,55.9 487.14,281.3 1277.04,281.3 1764.25,0 31.05,-17.9 60.08,-36.6 87.15,-55.9 37.89,-26.9 71.94,-55 102.08,-84.2 34.6,-33.4 64.12,-68.2 88.47,-103.7 4.74,-6.9 9.21,-13.7 13.53,-20.6 h 74.1" style="fill:#ff9d4d;fill-opacity:1;fill-rule:nonzero;stroke:none" id="path1444" transform="matrix(0.133333, 0, 0, -0.133333, 0, 5287.013184)"/>
  <path d="m 3343.3,22602.2 c -319.27,0 -638.53,-70.4 -882.1,-211 -31.05,-17.9 -60.15,-36.6 -87.22,-55.9 -37.95,-26.9 -71.93,-55.1 -102.08,-84.2 -24.62,-23.8 -46.67,-48.2 -66.07,-73.2 -5.3,-6.7 -10.4,-13.5 -15.28,-20.4 -7.33,-10.1 -14.23,-20.4 -20.65,-30.7 h -74.1 V 21848 h 1.4 c 6.62,-82.4 37.74,-164.4 93.35,-241.9 4.88,-6.8 9.91,-13.6 15.28,-20.3 52.82,-67.9 124.89,-131.9 216.02,-189.5 5.02,-3.1 10.11,-6.2 15.27,-9.4 7.89,-4.8 15.91,-9.5 24.08,-14.3 59.79,-34.5 124.05,-64.8 191.87,-90.8 5.03,-2 10.19,-3.9 15.28,-5.8 68.94,-25.6 141.36,-47 216.02,-64 5.09,-1.2 10.18,-2.3 15.27,-3.4 70.34,-15.4 142.69,-27.1 215.95,-34.8 5.09,-0.6 10.19,-1.2 15.28,-1.6 70.07,-7 140.95,-10.5 211.84,-10.5 1.39,0 2.78,0 4.17,0 5.1,0 10.19,0.1 15.28,0.1 72.36,0.6 144.64,4.8 215.95,12.7 5.09,0.5 10.19,1.1 15.28,1.8 73.4,8.6 145.76,21 216.01,37.3 5.1,1.2 10.19,2.4 15.28,3.7 74.8,17.9 147.15,40.4 215.95,67.3 5.09,1.9 10.19,3.9 15.28,6 59.58,24 116.38,51.3 169.54,82 16.05,9.3 31.54,18.7 46.47,28.3 5.16,3.3 10.26,6.7 15.28,10 93.71,62.5 165.64,132 215.95,205.3 5.37,7.8 10.54,15.7 15.35,23.6 41.58,67.4 65.24,137.6 70.96,208.2 h 1.32 v 33.9 0 244.9 h -74.1 c -4.32,6.9 -8.79,13.7 -13.53,20.6 -24.35,35.5 -53.87,70.3 -88.47,103.7 -30.14,29.2 -64.19,57.3 -102.08,84.2 -27.07,19.4 -56.1,38 -87.15,55.9 -243.6,140.6 -562.88,211 -882.15,211 z m 0,-15.3 c 330.59,0 641.16,-74.2 874.51,-208.9 30.36,-17.6 59.26,-36.1 85.94,-55.1 36.99,-26.3 70.73,-54.2 100.31,-82.8 33.44,-32.3 62.54,-66.4 86.53,-101.5 4.31,-6.2 8.61,-12.7 13.14,-19.9 l 4.49,-7.2 h 8.46 58.82 v -229.6 -18.6 h -0.14 l -1.14,-14 c -5.57,-68.8 -28.7,-136.6 -68.77,-201.6 -4.41,-7.2 -9.42,-14.9 -14.91,-22.9 -50.34,-73.4 -121.61,-141.1 -211.82,-201.2 -4.97,-3.3 -10.01,-6.6 -15.04,-9.9 -14.67,-9.3 -30.1,-18.7 -45.87,-27.9 -51.65,-29.8 -108.05,-57.1 -167.6,-81.1 -5.02,-2 -10.04,-3.9 -15.14,-5.9 -67.54,-26.4 -139.52,-48.8 -214.24,-66.7 -4.97,-1.3 -9.93,-2.5 -14.89,-3.6 -68.82,-16 -140.93,-28.5 -214.42,-37.1 -4.96,-0.6 -9.91,-1.2 -15.09,-1.7 -70.66,-7.8 -142.79,-12 -214.47,-12.6 -5.03,-0.1 -10.05,-0.1 -15.1,-0.1 h -4.15 c -70.54,0 -141.3,3.5 -210.59,10.5 -4.96,0.4 -9.91,0.9 -14.92,1.5 -72.67,7.6 -144.76,19.3 -214.28,34.5 -5.03,1.1 -10.06,2.2 -15.16,3.4 -74.72,17 -146.74,38.4 -214.11,63.5 l -1.83,0.7 c -4.36,1.6 -8.75,3.2 -13.28,5 -67.53,25.9 -131.35,56 -189.66,89.7 -8.07,4.7 -15.99,9.4 -23.82,14.2 -5.1,3.1 -10.14,6.2 -15.05,9.3 -87.95,55.5 -159.32,118.1 -212.21,186 -4.71,5.9 -9.55,12.4 -14.83,19.8 -53.59,74.6 -84.04,153.4 -90.54,234.2 l -1.13,14 h -0.22 v 248.2 h 58.82 8.49 l 4.49,7.2 c 6.16,9.9 12.91,20 20.15,30 4.45,6.2 9.3,12.7 14.87,19.8 18.87,24.3 40.62,48.4 64.62,71.6 30.03,29 63.78,56.8 100.32,82.8 26.97,19.2 55.91,37.7 86,55.1 233.32,134.7 543.87,208.9 874.46,208.9" style="fill:#ffe840;fill-opacity:1;fill-rule:nonzero;stroke:none" id="path1446" transform="matrix(0.133333, 0, 0, -0.133333, 0, 5287.013184)"/>
  <path d="m 4225.42,22643.7 c 487.19,-281.3 487.19,-737.3 0,-1018.6 -487.18,-281.2 -1277.05,-281.2 -1764.23,0 -487.18,281.3 -487.18,737.3 0,1018.6 487.18,281.3 1277.05,281.3 1764.23,0" style="fill:#ffe840;fill-opacity:1;fill-rule:nonzero;stroke:none" id="path1448" transform="matrix(0.133333, 0, 0, -0.133333, 0, 5287.013184)"/>
  <path d="m 4287.2,21896.5 c -4.88,-6.5 -9.97,-13 -15.28,-19.4 -48.98,-59.1 -115.75,-114.3 -200.31,-163.2 -5.16,-3 -10.4,-5.9 -15.7,-8.8 -5.03,-2.8 -10.12,-5.6 -15.28,-8.3 -66.49,-35.4 -139.13,-64.8 -215.95,-88.2 -5.02,-1.5 -10.18,-3 -15.28,-4.5 -69.35,-20.3 -141.84,-35.8 -216.01,-46.4 -5.03,-0.8 -10.12,-1.5 -15.28,-2.1 -70.96,-9.5 -143.38,-14.7 -215.95,-15.4 -5.09,-0.1 -10.18,-0.1 -15.28,-0.1 -72.42,-0.2 -144.91,4 -216.01,12.7 -5.09,0.6 -10.25,1.2 -15.28,1.9 -73.96,9.6 -146.45,23.9 -215.95,43.1 -5.09,1.4 -10.25,2.8 -15.27,4.2 -76.47,21.9 -149.11,49.7 -216.02,83.3 -5.16,2.5 -10.25,5.1 -15.28,7.8 -12.91,6.7 -25.6,13.6 -38.03,20.8 -72.35,41.8 -131.66,88.3 -177.92,137.8 -5.23,5.6 -10.32,11.3 -15.27,17 -125.73,145.6 -141.71,315 -47.87,466.6 49.68,80.3 129.98,155.5 241.06,219.6 401.54,231.8 1054.96,231.8 1456.57,0 111.08,-64.1 191.38,-139.3 240.99,-219.6 87.91,-142 79.47,-299.7 -25.4,-438.8 z m 127.48,354.6 c -39.91,123.6 -143.24,237.4 -300.65,328.3 -205.9,118.9 -479.62,184.3 -770.7,184.3 -291.16,0 -564.88,-65.4 -770.71,-184.3 -157.41,-90.9 -260.8,-204.7 -300.72,-328.3 -12.28,-38.1 -18.56,-77.1 -18.56,-116.7 0,-120.9 58.75,-236.8 168.51,-336.5 4.95,-4.6 10.04,-9 15.27,-13.4 39.29,-33.9 84.57,-65.6 135.5,-95.1 25.82,-14.8 52.68,-28.9 80.45,-42 5.09,-2.5 10.19,-4.8 15.28,-7.1 67.05,-30.7 139.55,-56.5 216.02,-76.9 5.09,-1.4 10.18,-2.8 15.27,-4.2 69.15,-17.7 141.43,-31.3 215.95,-40.3 5.09,-0.7 10.19,-1.3 15.28,-1.9 69.21,-7.8 140.31,-11.8 212.46,-11.8 h 3.55 c 5.1,0 10.19,0 15.28,0.1 73.47,0.7 145.69,5.5 215.95,14.5 5.09,0.6 10.19,1.2 15.28,2 74.66,10 147.01,24.6 216.01,43.4 5.17,1.4 10.26,2.8 15.28,4.4 76.76,21.7 149.18,49 215.95,81.2 5.09,2.4 10.25,4.9 15.28,7.5 19.89,9.9 39.28,20.3 58.12,31.1 60.91,35.2 113.73,73.9 157.89,115.1 5.24,4.9 10.33,9.8 15.28,14.7 95.24,94.8 146.04,202.8 146.04,315.2 0,39.6 -6.28,78.6 -18.56,116.7" style="fill:#ff9d4d;fill-opacity:1;fill-rule:nonzero;stroke:none" id="path1450" transform="matrix(0.133333, 0, 0, -0.133333, 0, 5287.013184)"/>
  <path d="m 3383.23,22236 117.46,-67.8 c -2.66,-1.3 -5.27,-2.7 -7.82,-4.2 l -64.47,-37.2 -109.77,63.4 36.25,20.9 c 12.98,7.5 22.42,15.8 28.35,24.9" style="fill:#d1975d;fill-opacity:1;fill-rule:nonzero;stroke:none" id="path1452" transform="matrix(0.133333, 0, 0, -0.133333, 0, 5287.013184)"/>
  <path d="m 3115.59,22281.1 15.28,8.9 7.45,4.3 h 0.04 l 42.31,24.4 c 2.45,1.4 5.14,2.4 7.7,3.7 8.63,4.2 17.71,7.8 27.62,10.1 13.68,3.3 28.61,4.8 44.72,4.5 30.5,-0.6 59.24,-8.4 86.17,-23.6 l 1.96,-1.1 c 4.88,-2.8 9.28,-5.6 13.32,-8.6 19.26,-13.8 28.75,-28.4 28.47,-44 -0.14,-8.5 -2.58,-16.3 -7.39,-23.7 -4.75,-7.3 -11.79,-14.1 -21.08,-20.3 -2.3,-1.6 -4.67,-3.1 -7.25,-4.6 l -8.03,-4.6 -28.25,-16.3 -87.54,-50.6 h -0.02 l -23.88,-13.8 -37.6,-21.6 -20.85,12 -23.32,13.5 -9.83,5.7 -44.08,25.4 -82.17,47.4 22.82,13.2 38.65,22.3 h -0.02 z m 377.26,-117.1 c 2.58,1.5 5.16,2.9 7.81,4.1 10.05,4.9 21.07,8.5 32.93,10.7 14.38,2.8 29.24,3.9 44.52,3.3 l 2.37,-0.1 c 4.33,-0.2 8.58,-0.5 12.91,-0.9 11.79,-1.3 23.65,-3.5 35.44,-6.6 16.05,-4.3 30.56,-10.1 43.26,-17.4 12.77,-7.4 22.47,-15.7 29.24,-25 6.69,-9.4 10.18,-18.8 10.53,-28.3 0.35,-9.5 -2.65,-18.7 -9,-27.9 -3.9,-5.5 -9,-10.7 -15.28,-15.6 -3.1,-2.5 -6.62,-4.8 -10.32,-7.1 -1.05,-0.7 -2.04,-1.3 -3.13,-2 l -55.46,-32 -1.98,-1.1 -23.3,-13.5 -15.28,-8.8 -48.91,-28.2 -61.52,-35.5 -188.3,108.7 20.09,11.6 41.38,23.9 h -0.02 l 6.05,3.5 15.28,8.7 66.22,38.3 z m 241.69,-214 0.02,0.1 120.37,-69.5 71.96,41.5 -120.68,69.7 c 1.04,0.7 2.15,1.3 3.19,2.1 5.31,3.2 10.4,6.7 15.28,10.1 17.1,12 31.82,24.6 44.31,37.7 19.81,20.7 32.58,41.6 38.24,62.7 5.71,21.2 3.2,41.8 -7.54,61.9 -10.74,20.2 -31.19,39 -61.4,56.5 -4.54,2.6 -9.07,5.1 -13.61,7.4 -5.02,2.7 -10.11,5.1 -15.28,7.5 -38.86,18 -80.23,28.7 -124.19,32.2 -30.91,2.4 -61.47,1.4 -91.82,-2.7 -5.09,-0.7 -10.19,-1.6 -15.28,-2.5 -18.49,-3.3 -36.84,-7.7 -55.05,-13.5 18.77,28 21.63,55.7 8.58,83.5 -13.11,27.7 -37.12,51.6 -72.01,71.8 -22.18,12.8 -47.99,23.2 -77.58,31.4 -29.52,8.1 -59.87,13 -91.12,14.8 -31.19,1.7 -62.24,-0.1 -93.15,-5.5 -30.91,-5.5 -58.75,-15.3 -83.59,-29.7 l -22.67,-13.1 -115.98,67 -71.96,-41.6 115.93,-66.9 -87.49,-50.6 v 0 l -115.99,67 -71.96,-41.6 115.93,-66.9 -128.44,-74.2 152.81,-88.2 15.27,-8.8 215.95,-124.7 15.28,-8.9 216.01,-124.7 15.28,-8.8 84.36,-48.7 128.52,74.1 h 0.01 l 120.37,-69.4 71.96,41.5 -120.38,69.5 h 0.05 l 87.49,50.5" style="fill:#ff9d4d;fill-opacity:1;fill-rule:nonzero;stroke:none" id="path1454" transform="matrix(0.133333, 0, 0, -0.133333, 0, 5287.013184)"/>
  <path d="m 2238.39,21806.8 v -252.4 c -5.37,6.7 -10.4,13.5 -15.28,20.3 v 252.5 c 4.88,-6.8 9.98,-13.6 15.28,-20.4" style="fill:#ffe840;fill-opacity:1;fill-rule:nonzero;stroke:none" id="path1456" transform="matrix(0.133333, 0, 0, -0.133333, 0, 5287.013184)"/>
  <path d="m 2437.12,21639.4 v -252.5 c -5.16,3.2 -10.25,6.3 -15.27,9.4 v 252.6 c 5.02,-3.2 10.11,-6.3 15.27,-9.5" style="fill:#ffe840;fill-opacity:1;fill-rule:nonzero;stroke:none" id="path1458" transform="matrix(0.133333, 0, 0, -0.133333, 0, 5287.013184)"/>
  <path d="M 2668.35,21528.6 V 21276 c -5.09,1.9 -10.25,3.8 -15.28,5.8 v 252.5 c 5.03,-1.9 10.19,-3.9 15.28,-5.7" style="fill:#ffe840;fill-opacity:1;fill-rule:nonzero;stroke:none" id="path1460" transform="matrix(0.133333, 0, 0, -0.133333, 0, 5287.013184)"/>
  <path d="m 2899.64,21461.1 v -252.5 c -5.09,1.1 -10.18,2.2 -15.27,3.4 v 252.6 c 5.09,-1.2 10.18,-2.4 15.27,-3.5" style="fill:#ffe840;fill-opacity:1;fill-rule:nonzero;stroke:none" id="path1462" transform="matrix(0.133333, 0, 0, -0.133333, 0, 5287.013184)"/>
  <path d="m 3130.87,21424.7 v -252.5 c -5.09,0.4 -10.19,1 -15.28,1.6 v 252.5 c 5.09,-0.6 10.19,-1.2 15.28,-1.6" style="fill:#ffe840;fill-opacity:1;fill-rule:nonzero;stroke:none" id="path1464" transform="matrix(0.133333, 0, 0, -0.133333, 0, 5287.013184)"/>
  <path d="m 3362.16,21414.3 v -252.5 c -5.09,0 -10.18,-0.1 -15.28,-0.1 v 252.5 c 5.1,0 10.19,0.1 15.28,0.1" style="fill:#ffe840;fill-opacity:1;fill-rule:nonzero;stroke:none" id="path1466" transform="matrix(0.133333, 0, 0, -0.133333, 0, 5287.013184)"/>
  <path d="m 3593.39,21428.8 v -252.5 c -5.09,-0.7 -10.19,-1.3 -15.28,-1.8 v 252.5 c 5.09,0.5 10.19,1.1 15.28,1.8" style="fill:#ffe840;fill-opacity:1;fill-rule:nonzero;stroke:none" id="path1468" transform="matrix(0.133333, 0, 0, -0.133333, 0, 5287.013184)"/>
  <path d="m 3824.68,21469.8 v -252.5 c -5.09,-1.3 -10.18,-2.5 -15.28,-3.7 v 252.6 c 5.1,1.2 10.19,2.3 15.28,3.6" style="fill:#ffe840;fill-opacity:1;fill-rule:nonzero;stroke:none" id="path1470" transform="matrix(0.133333, 0, 0, -0.133333, 0, 5287.013184)"/>
  <path d="m 4055.91,21543.1 v -252.5 c -5.09,-2.1 -10.19,-4.1 -15.28,-6 v 252.5 c 5.09,1.9 10.19,3.9 15.28,6" style="fill:#ffe840;fill-opacity:1;fill-rule:nonzero;stroke:none" id="path1472" transform="matrix(0.133333, 0, 0, -0.133333, 0, 5287.013184)"/>
  <path d="m 4287.2,21663.4 v -252.5 c -5.02,-3.3 -10.12,-6.7 -15.28,-10 v 252.5 c 5.16,3.3 10.26,6.7 15.28,10" style="fill:#ffe840;fill-opacity:1;fill-rule:nonzero;stroke:none" id="path1474" transform="matrix(0.133333, 0, 0, -0.133333, 0, 5287.013184)"/>
  <path d="m 4492.33,21867 v -252.5 c -4.81,-7.9 -9.98,-15.8 -15.35,-23.6 v 252.5 c 5.37,7.8 10.47,15.7 15.35,23.6" style="fill:#ffe840;fill-opacity:1;fill-rule:nonzero;stroke:none" id="path1476" transform="matrix(0.133333, 0, 0, -0.133333, 0, 5287.013184)"/>
  <g id="g1478" transform="matrix(0.133333, 0, 0, -0.133333, 0, 5287.013184)">
    <g id="g1480" clip-path="url(#clipPath1484)">
      <path d="m 3240.64,22231.6 -1051.32,-746.2 -187.75,-1605.5 -319.52,9.7 -33.69,1846.1 c -1.92,83 35.15,157.8 94.47,207 l 24.92,20.3 1042.7,853.5 c 155.37,127.1 384.4,104.3 511.57,-51.1 127.16,-155.3 104.3,-384.4 -51.06,-511.5 -9.71,-8 -20.09,-15.6 -30.32,-22.3" style="fill:url(#linearGradient1490);fill-opacity:1;fill-rule:nonzero;stroke:none" id="path1492"/>
    </g>
  </g>
  <g id="g1494" transform="matrix(0.133333, 0, 0, -0.133333, 0, 5287.013184)">
    <g id="g1496" clip-path="url(#clipPath1500)">
      <path d="m 3955.41,22130.1 c -10.64,-8 -21.98,-15.4 -33.17,-22 l -1042.54,-740.7 -247.95,-1793.6 -324.38,21.4 1.11,56.4 30.54,1984.8 c 1.65,84 42.57,158.1 105.04,205 l 24.88,18.3 1062.85,788.5 c 77.26,57.4 169.72,79.5 258.45,69.3 h 0.14 c 96.2,-11.2 187.7,-60.6 250.03,-144.6 119.69,-161.3 76.29,-323.3 -85,-442.8" style="fill:url(#linearGradient1506);fill-opacity:1;fill-rule:nonzero;stroke:none" id="path1508"/>
    </g>
  </g>
  <g id="g1510" transform="matrix(0.133333, 0, 0, -0.133333, 0, 5287.013184)">
    <g id="g1512" clip-path="url(#clipPath1516)">
      <path d="m 3782.23,22197.9 c -10.65,-7.8 -21.98,-15.3 -33.17,-21.9 l -1042.53,-740.6 -247.96,-1793.6 -150.09,9.8 30.54,1984.8 c 1.65,84 42.57,158.1 105.04,205 l 24.88,18.3 1062.85,788.5 c 77.26,57.4 169.72,79.5 258.45,69.3 h 0.14 c 28.61,-21.2 54.6,-46.7 76.85,-76.7 119.69,-161.3 76.29,-323.2 -85,-442.9" style="fill:url(#linearGradient1522);fill-opacity:1;fill-rule:nonzero;stroke:none" id="path1524"/>
    </g>
  </g>
  <path d="m 2313.46,19595.1 -12.21,0.2 31.69,2041.2 c 1.63,83.2 40.79,159.7 107.43,209.7 l 1087.77,807 7.28,-9.8 -1087.74,-807 c -63.59,-47.7 -100.97,-120.7 -102.53,-200.2 l -31.69,-2041.1" style="fill:#7b5baa;fill-opacity:1;fill-rule:nonzero;stroke:none" id="path1526" transform="matrix(0.133333, 0, 0, -0.133333, 0, 5287.013184)"/>
  <g id="g1528" transform="matrix(0.133333, 0, 0, -0.133333, 0, 5287.013184)">
    <g id="g1530" clip-path="url(#clipPath1534)">
      <path d="m 3489.1,24557 -152.37,-1119.1 -1.88,-13.8 c -7.71,-56.7 -50.26,-100.1 -102.93,-112 l -1050.54,-234 c -51.1,-11.3 -101.75,20.9 -113.13,72 -10.74,48.2 17.7,96.1 63.81,110.9 l 1025.71,326 -104.81,-125.7 33.09,1128.9 c 3.28,111.8 96.55,199.8 208.33,196.5 111.79,-3.3 199.76,-96.6 196.48,-208.4 -0.21,-7.1 -0.84,-14.4 -1.76,-21.3" style="fill:url(#linearGradient1540);fill-opacity:1;fill-rule:nonzero;stroke:none" id="path1542"/>
    </g>
  </g>
  <g id="g1544" transform="matrix(0.133333, 0, 0, -0.133333, 0, 5287.013184)">
    <g id="g1546" clip-path="url(#clipPath1550)">
      <path d="m 3500.11,24747.4 c 0,0 -184.89,24.6 -265.58,35.5 -23.04,3.1 -45.99,-5.8 -61.48,-24.4 l -1.98,-2.3 c -164.69,-197 -201.52,-451.5 -191.89,-708.1 l -32.74,-430.2 -74.39,-934 c -5.17,-64.9 28.45,-126.7 85.73,-157.7 l 283.73,-153.2 c 102.84,-55.6 213.92,-94.3 329.01,-114.6 l 274.99,-48.5 c 162.82,-28.7 313.77,92.2 321.23,257.4 9.52,210.7 17.27,477.1 5.16,626.5 -17.25,212.8 89.53,859.1 137.5,1134 13.39,76.7 -22.97,153.4 -90.78,191.7 -153.88,86.8 -398.39,220.4 -398.39,220.4 l -320.12,107.5" style="fill:url(#linearGradient1556);fill-opacity:1;fill-rule:nonzero;stroke:none" id="path1558"/>
    </g>
  </g>
  <path d="m 3231.03,24777 c -5.03,0 -11.58,-1.6 -19.16,-4.6 -20.15,-8.1 -38.75,-22.7 -53.8,-42.2 -129,-166.9 -183.9,-382.5 -172.79,-678.5 l -32.75,-434.2 -74.4,-934.1 c -4.97,-62.4 27.43,-122 82.55,-151.8 l 283.74,-153.3 c 102.44,-55.3 212.51,-93.6 327.17,-113.8 l 274.98,-48.6 c 75.92,-13.4 153.91,6.6 214.06,54.8 60.08,48.1 96.53,119.8 100,196.7 9.13,202.1 17.44,474.8 5.19,625.9 -17.36,214 90.43,865.4 137.57,1135.6 12.9,73.9 -22.34,148.4 -87.68,185.2 -152.08,85.8 -395.96,219.1 -398.41,220.5 l -318.57,106.8 c -11.39,1.6 -186.96,24.9 -265.02,35.4 -0.83,0.1 -1.73,0.2 -2.68,0.2 z m 662.09,-2577.4 c -16.2,0 -32.48,1.4 -48.67,4.3 l -274.99,48.5 c -115.94,20.5 -227.25,59.2 -330.85,115.2 l -283.73,153.3 c -59.38,32 -94.28,96.2 -88.92,163.5 l 74.39,934 32.74,433.5 c -11.24,298.4 44.47,516.5 175.31,685.8 16.39,21.2 36.76,37.1 58.92,46 11.11,4.5 20.55,6.2 28.01,5.2 80.71,-10.8 265.58,-35.4 265.59,-35.4 l 1.14,-0.3 320.12,-107.5 c 3.43,-1.7 247.39,-135.1 399.53,-220.9 69.85,-39.4 107.5,-119 93.71,-198 -47.06,-269.7 -154.67,-919.9 -137.43,-1132.5 12.31,-151.8 3.99,-425 -5.16,-627.4 -3.63,-80.4 -41.74,-155.4 -104.57,-205.8 -50.05,-40.1 -111.95,-61.5 -175.14,-61.5" style="fill:#7b5baa;fill-opacity:1;fill-rule:nonzero;stroke:none" id="path1560" transform="matrix(0.133333, 0, 0, -0.133333, 0, 5287.013184)"/>
  <path d="m 3195.88,25615.5 c 0,0 -8.27,-180 18.27,-239.3 32.91,-73.7 128.06,-135.7 128.06,-135.7 l 46.15,390.1 -192.48,-15.1" style="fill:#704e34;fill-opacity:1;fill-rule:nonzero;stroke:none" id="path1562" transform="matrix(0.133333, 0, 0, -0.133333, 0, 5287.013184)"/>
  <path d="m 3829.82,24863.5 c 0,0 -171.82,102.8 -260.41,63.5 -88.58,-39.4 -153.92,-251.2 -153.92,-251.2 l -36.19,-208.3 c -8.05,-46.3 38.48,-83.1 81.69,-64.6 l 334.05,143.2 c 28.37,12.2 43.72,42.9 36.46,72.9 -22.51,93 -1.68,244.5 -1.68,244.5" style="fill:#efc392;fill-opacity:1;fill-rule:nonzero;stroke:none" id="path1564" transform="matrix(0.133333, 0, 0, -0.133333, 0, 5287.013184)"/>
  <path d="m 3222.99,25221.6 c 3.77,-89.7 41.91,-175.4 45.01,-265.2 2.98,-85.8 -20.71,-187.9 43.05,-245.4 44.22,-39.9 111.05,-37.4 170.43,-32.5 129.92,10.8 275.05,29.3 356.18,131.4 27.41,34.5 44.73,75.7 61.72,116.3 24.09,57.6 48.17,115.3 72.26,172.9 35.76,85.5 72.18,174.5 68.73,267.2 -3.8,102.1 -55.42,195.5 -105.82,284.5 -76.64,135.2 -372.1,166.5 -507.71,87.8 -147.08,-85.2 -210.01,-363.1 -203.85,-517" style="fill:#ffd89f;fill-opacity:1;fill-rule:nonzero;stroke:none" id="path1566" transform="matrix(0.133333, 0, 0, -0.133333, 0, 5287.013184)"/>
  <path d="m 3318,25508.6 v 0 c 26.31,8 54.88,1.1 74.71,-17.9 l 42.05,-40.4 c 10.38,-10 23.39,-16.8 37.51,-19.7 l 160.88,-32.7 c 24.44,-4.9 44.88,-21.6 54.7,-44.5 l 13.78,-32.1 c 13.3,-31.1 45.52,-49.6 79.05,-45.5 l 55.42,6.8 c 34,4.1 35.96,-33.9 48.92,-65.6 l 6.93,-90 c 21.29,-52.1 123.3,21.2 160.64,63.2 l 9.25,10.4 c 6.84,7.7 12,16.6 15.27,26.4 10.66,31.8 28.1,111.5 10.39,263.4 -24.23,207.6 -89.99,321.9 -207.67,335.7 -117.67,13.9 -311.5,86.5 -398.02,34.6 -86.53,-51.9 -297.65,-79.6 -301.12,-166.1 -1.98,-49.6 25.36,-109 49.05,-150.6 17.61,-31 54.17,-45.8 88.26,-35.4" style="fill:#89603e;fill-opacity:1;fill-rule:nonzero;stroke:none" id="path1568" transform="matrix(0.133333, 0, 0, -0.133333, 0, 5287.013184)"/>
  <path d="m 3937.31,25192.3 c 0,0 19.76,-131.4 -21.52,-226.8 -41.29,-95.5 43.65,12.6 43.65,12.6 l 117.67,248.9 -139.8,-34.7" style="fill:#89603e;fill-opacity:1;fill-rule:nonzero;stroke:none" id="path1570" transform="matrix(0.133333, 0, 0, -0.133333, 0, 5287.013184)"/>
  <path d="m 2313.12,19612.7 c 0,0 -141.62,-174.9 -195.56,-199.5 -53.93,-24.5 -365.19,-236.1 -213.19,-294.9 151.99,-58.8 375.04,-43.9 451.08,29.4 112.69,108.6 247.52,93.9 267.14,147.9 19.61,53.9 26.97,313.4 26.97,313.4 l -336.44,3.7" style="fill:#1a142d;fill-opacity:1;fill-rule:nonzero;stroke:none" id="path1572" transform="matrix(0.133333, 0, 0, -0.133333, 0, 5287.013184)"/>
  <path d="m 1692.66,19924.9 c 0,0 -120.28,-171.4 -174.21,-195.9 -53.94,-24.5 -365.2,-236.1 -213.2,-294.9 152,-58.9 375.05,-43.9 451.09,29.4 112.68,108.6 247.52,93.9 267.13,147.8 19.62,54 2.06,313.6 2.06,313.6 h -332.87" style="fill:#1a142d;fill-opacity:1;fill-rule:nonzero;stroke:none" id="path1574" transform="matrix(0.133333, 0, 0, -0.133333, 0, 5287.013184)"/>
  <path d="m 2867.11,22156.7 -83.31,-57.2 -1.49,-50.8 c 7.8,-0.6 15.68,1.5 22.42,6.1 l 646.2,445.6 c 31.05,21.4 44.76,55.6 42.31,88.4 l -4.56,56.9 -15.52,-4.1 c -9.06,12 -21.1,22.1 -36.17,29.3 l -635.28,300.2 65.4,-814.4" style="fill:#7b5baa;fill-opacity:1;fill-rule:nonzero;stroke:none" id="path1576" transform="matrix(0.133333, 0, 0, -0.133333, 0, 5287.013184)"/>
  <path d="m 1231.44,22833 1.77,-23.1 c 1.72,-20.3 14.15,-38.3 32.59,-47 L 2770.31,22052 c 3.85,-1.8 7.98,-2.9 12,-3.3 l 1.49,50.8 -1552.36,733.5" style="fill:#634d99;fill-opacity:1;fill-rule:nonzero;stroke:none" id="path1578" transform="matrix(0.133333, 0, 0, -0.133333, 0, 5287.013184)"/>
  <path d="m 1231.44,22833 1552.36,-733.5 83.31,57.2 -65.4,814.4 -91.36,43.1 -482.7,228.2 c -116.42,55 -253.37,43.8 -359.39,-29.3 l -565.38,-389.9 -71.44,9.8" style="fill:#7b5baa;fill-opacity:1;fill-rule:nonzero;stroke:none" id="path1580" transform="matrix(0.133333, 0, 0, -0.133333, 0, 5287.013184)"/>
  <path d="m 2783.78,22099.6 -1552.39,733.6 632.37,436.1 c 106.03,73.1 242.97,84.3 359.42,29.2 l 1209.33,-571.4 c 68.78,-32.5 76.49,-127.3 13.87,-170.5 l -662.6,-457" style="fill:#ffffff;fill-opacity:1;fill-rule:nonzero;stroke:none" id="path1582" transform="matrix(0.133333, 0, 0, -0.133333, 0, 5287.013184)"/>
  <path d="m 2878.01,22377.3 -1205,572.4 397.03,273.8 1204.99,-572.4 -397.02,-273.8" style="fill:#bf89ef;fill-opacity:1;fill-rule:nonzero;stroke:none" id="path1584" transform="matrix(0.133333, 0, 0, -0.133333, 0, 5287.013184)"/>
  <g id="g1586" transform="matrix(0.133333, 0, 0, -0.133333, 0, 5287.013184)">
    <g id="g1588" clip-path="url(#clipPath1592)">
      <path d="m 4422.24,24120 -133.33,-1183.5 -2.21,-19.6 c -8.52,-75.6 -65.01,-134.3 -135.53,-149.3 l -1112.19,-235.8 c -62.42,-13.3 -123.76,26.6 -136.99,89 -12.18,57.4 20.61,113.9 74.53,132.9 l 1071.94,378.8 -137.74,-168.9 36.58,1190.4 c 4.05,131.5 113.95,234.9 245.48,230.8 131.53,-4 234.88,-113.9 230.84,-245.5 -0.2,-6.3 -0.7,-13.1 -1.38,-19.3" style="fill:url(#linearGradient1598);fill-opacity:1;fill-rule:nonzero;stroke:none" id="path1600"/>
    </g>
  </g>
  <path d="m 3046.37,22780.4 v 0 c 27.69,-25.7 45.23,-58.4 48.59,-90.5 l -7.67,-113.2 c 3.52,-33.6 -18.82,-59.4 -53.96,-62.3 l -179.32,-32.1 -20.9,247.9 133.48,5.2 -55.24,13.3 c -45.19,10.8 -89.48,30.9 -129.27,58.7 -27.17,19 -44.17,47.9 -44.28,75.4 -0.05,13.7 16.63,18.7 30.17,9.2 l 24.06,-16.8 c 38.25,-26.7 82.29,-42.8 125.13,-45.6 l 22.83,-1.6 c 37.74,-2.5 76.44,-19.9 106.38,-47.6" style="fill:#ffd89f;fill-opacity:1;fill-rule:nonzero;stroke:none" id="path1602" transform="matrix(0.133333, 0, 0, -0.133333, 0, 5287.013184)"/>
  <path d="m 2833.11,22730.2 -130.1,-18.6 -124.92,4.7 c -3.16,0.2 -5.05,-2.3 -4.04,-5.3 0.39,-1.1 0.95,-2.4 1.61,-3.8 8.46,-17.2 26.91,-30.1 46.05,-32.9 l 98.17,-14.6 150.01,-6 -36.78,76.5" style="fill:#ffd89f;fill-opacity:1;fill-rule:nonzero;stroke:none" id="path1604" transform="matrix(0.133333, 0, 0, -0.133333, 0, 5287.013184)"/>
  <path d="m 2854.85,22592.5 -43.19,-6.9 c -15.35,-2.5 -32.02,-1.4 -48.67,3.2 l -79.56,21.9 c -7.2,2 -14.08,5.9 -19.7,11.1 l -30.85,29 c -5.8,5.4 -7.76,13.2 -4.1,18.2 3.91,5.3 12.4,5.8 19.47,1.3 l 15.67,-9.9 c 7.66,-4.8 16.05,-8.2 24.49,-9.8 l 75.97,-14.7 c 9.48,-1.8 18.76,-1.7 27.12,0.5 l 63,16.2 0.35,-60.1" style="fill:#ffd89f;fill-opacity:1;fill-rule:nonzero;stroke:none" id="path1606" transform="matrix(0.133333, 0, 0, -0.133333, 0, 5287.013184)"/>
  <path d="m 2853.61,22591.2 -65.9,-15.8 c -3.74,-0.9 -7.8,-1.1 -11.97,-0.6 l -50.13,5.8 c -4.59,0.6 -9.24,2 -13.64,4.2 l -52.41,26.5 c -7.34,3.7 -15.04,1.1 -16.14,-5.4 -1.11,-6.6 2.71,-14.2 9.57,-19 l 43.46,-30.3 c 9.36,-6.6 19.83,-11.2 30.45,-13.4 l 59.42,-12.5 c 4.79,-1 9.56,-1.4 14.14,-1.1 l 54.9,3.3 -1.75,58.3" style="fill:#ffd89f;fill-opacity:1;fill-rule:nonzero;stroke:none" id="path1608" transform="matrix(0.133333, 0, 0, -0.133333, 0, 5287.013184)"/>
  <path d="m 2861.09,22532.1 -64.46,-6.3 c -10.58,-1.1 -22.17,1.6 -32.61,7.6 l -23.3,13.3 c -7.57,4.3 -16.17,3.4 -20.03,-2.2 v 0 c -2.4,-3.4 -0.73,-8.7 3.73,-11.9 l 16.79,-11.7 c 16.64,-11.6 35.17,-20 54.07,-24.5 l 58.73,-14.1 7.08,49.8" style="fill:#ffd89f;fill-opacity:1;fill-rule:nonzero;stroke:none" id="path1610" transform="matrix(0.133333, 0, 0, -0.133333, 0, 5287.013184)"/>
  <path d="m 2656.78,23407.7 c 16.71,-30.2 27.08,-64 29.94,-99.6 l 23.63,-293.9 73.45,-914.7 83.31,57.2 -65.4,814.4 -31.68,394.2 c -2.98,35.7 -13.35,69.7 -30.18,100 l -83.07,-57.6" style="fill:#7b5baa;fill-opacity:1;fill-rule:nonzero;stroke:none" id="path1612" transform="matrix(0.133333, 0, 0, -0.133333, 0, 5287.013184)"/>
  <path d="m 2739.82,23465.3 -83,-57.6 c -24.68,44.9 -63.18,81.9 -111.12,104.5 l -1291.98,610.3 c -29.21,13.8 -60.41,9.1 -83.66,-7 l 83.34,57.2 c 23.26,16.1 54.39,20.7 83.59,7 l 1291.91,-610.4 c 47.76,-22.5 86.16,-59.3 110.92,-104" style="fill:#bf89ef;fill-opacity:1;fill-rule:nonzero;stroke:none" id="path1614" transform="matrix(0.133333, 0, 0, -0.133333, 0, 5287.013184)"/>
  <path d="m 2686.71,23308.1 89.04,-1108.2 -1461.13,690.2 -95.83,1192.7 -0.46,-1.3 -48.43,33.9 0.16,0.1 c 23.25,16.1 54.45,20.8 83.66,7 l 1291.98,-610.3 c 47.94,-22.6 86.44,-59.6 111.12,-104.5 16.64,-30.2 27.03,-64 29.89,-99.6" style="fill:#00cbfc;fill-opacity:1;fill-rule:nonzero;stroke:none" id="path1616" transform="matrix(0.133333, 0, 0, -0.133333, 0, 5287.013184)"/>
  <g id="g1618" transform="matrix(0.133333, 0, 0, -0.133333, 0, 5287.013184)">
    <g id="g1620" clip-path="url(#clipPath1624)">
      <path d="m 1134.44,24040 97,-1207 1552.36,-733.5 -73.45,914.7 -23.63,293.9 c -2.86,35.6 -13.23,69.4 -29.94,99.6 -24.59,44.8 -63.09,81.9 -111.06,104.4 l -1292.03,610.4 c -29.17,13.8 -60.35,9.1 -83.67,-7 l -0.13,-0.1 c -22.95,-16.1 -38.05,-43.5 -35.45,-75.4" style="fill:url(#linearGradient1630);fill-opacity:1;fill-rule:nonzero;stroke:none" id="path1632"/>
    </g>
  </g>
</svg>