<?xml version="1.0" encoding="utf-8"?>
<svg viewBox="0 0 1093.017 1336.87" width="1093.017" height="1336.87" xmlns="http://www.w3.org/2000/svg">
  <path d="m 5859.14,31844.6 c 879.04,-507.5 879.04,-1330.3 0,-1837.9 -879.05,-507.5 -2304.26,-507.5 -3183.31,0 -879.04,507.6 -879.04,1330.4 0,1837.9 879.05,507.5 2304.26,507.5 3183.31,0" style="fill:#e3dfea;fill-opacity:1;fill-rule:nonzero;stroke:none" id="path12" transform="matrix(0.133333, 0, 0, -0.133333, 0, 5287.013184)"/>
  <path d="m 7645.09,34042.9 -3369.46,1060.2 26.44,84 3369.45,-1060.2 -26.43,-84" style="fill:#d1975d;fill-opacity:1;fill-rule:nonzero;stroke:none" id="path14" transform="matrix(0.133333, 0, 0, -0.133333, 0, 5287.013184)"/>
  <path d="m 4319.49,35046 -3786.658,563.5 12.969,87.1 3786.659,-563.5 -12.97,-87.1" style="fill:#d1975d;fill-opacity:1;fill-rule:nonzero;stroke:none" id="path16" transform="matrix(0.133333, 0, 0, -0.133333, 0, 5287.013184)"/>
  <path d="m 4259.19,35112.6 -2692.91,2453.8 59.32,65.1 2692.91,-2453.8 -59.32,-65.1" style="fill:#d1975d;fill-opacity:1;fill-rule:nonzero;stroke:none" id="path18" transform="matrix(0.133333, 0, 0, -0.133333, 0, 5287.013184)"/>
  <path d="m 5816.61,36660.9 -44.12,76.2 1554.56,900 44.12,-76.2 -1554.56,-900" style="fill:#d1975d;fill-opacity:1;fill-rule:nonzero;stroke:none" id="path20" transform="matrix(0.133333, 0, 0, -0.133333, 0, 5287.013184)"/>
  <path d="m 1312.88,32671.4 -44.12,76.2 1554.56,900 44.11,-76.2 -1554.55,-900" style="fill:#d1975d;fill-opacity:1;fill-rule:nonzero;stroke:none" id="path22" transform="matrix(0.133333, 0, 0, -0.133333, 0, 5287.013184)"/>
  <path d="m 4367.92,36747.9 h -88.05 v 2310.5 h 88.05 v -2310.5" style="fill:#d1975d;fill-opacity:1;fill-rule:nonzero;stroke:none" id="path24" transform="matrix(0.133333, 0, 0, -0.133333, 0, 5287.013184)"/>
  <path d="m 4367.92,31649.6 h -88.05 v 2310.6 h 88.05 v -2310.6" style="fill:#d1975d;fill-opacity:1;fill-rule:nonzero;stroke:none" id="path26" transform="matrix(0.133333, 0, 0, -0.133333, 0, 5287.013184)"/>
  <path d="m 5512.22,36798.4 69.42,100.2 -353.81,201 c -6.6,3.9 -13.26,7.7 -19.99,11.4 l -0.25,0.1 h -0.01 c -311.26,170 -764.79,128.4 -1269.77,-163.1 -938.55,-541.9 -1699.39,-1742 -1699.39,-2680.6 0,-393.9 134.06,-679.1 359.01,-837.4 v 0 l 0.12,-0.1 c 33.39,-23.5 68.78,-44.2 106.04,-62 l 307.28,-179.8 67.85,97.9 c 252.07,-2.4 545.66,82.2 859.09,263.2 938.55,541.9 1699.39,1742 1699.39,2680.5 0,226.8 -44.4,417.5 -124.98,568.7" style="fill:#ff9d4d;fill-opacity:1;fill-rule:nonzero;stroke:none" id="path28" transform="matrix(0.133333, 0, 0, -0.133333, 0, 5287.013184)"/>
  <path d="m 4786.24,37211.2 c -115.88,0 -240.42,-18.3 -371.49,-55.7 -11.94,-3.4 -23.92,-7 -35.96,-10.7 h -0.05 c -125.91,-39 -257.58,-95.4 -393.29,-170 -9.2,-5 -18.41,-10.2 -27.67,-15.5 -6.65,-3.7 -13.3,-7.5 -19.94,-11.3 -102.59,-59.3 -202.99,-126.3 -300.56,-200.1 -7.85,-5.9 -15.69,-11.9 -23.48,-17.9 -94.96,-73.2 -187.13,-152.6 -275.77,-237.2 -6.81,-6.5 -13.62,-13.1 -20.43,-19.7 -83.95,-81.4 -164.64,-167.3 -241.45,-257 -5.99,-7 -11.99,-14 -17.93,-21.1 -74.63,-88.2 -145.45,-179.9 -211.92,-274.1 -5.28,-7.4 -10.57,-15 -15.74,-22.4 -65.87,-94.6 -127.32,-191.7 -183.81,-290.3 -4.58,-7.9 -9.04,-15.8 -13.46,-23.7 -57.09,-101.1 -108.85,-203.8 -154.72,-307.1 -3.76,-8.4 -7.46,-16.7 -11.06,-25.1 -47.29,-108.7 -88.03,-217.8 -121.48,-326.3 -2.73,-9 -5.45,-17.9 -8.07,-26.8 -35.25,-118.5 -61.72,-236 -78.45,-351.1 -1.41,-9.8 -2.78,-19.5 -3.97,-29.2 -11.28,-85.4 -17.11,-169.4 -17.11,-251.5 0,-47.7 1.96,-93.9 5.88,-138.4 0.93,-11.3 2.02,-22.4 3.27,-33.4 33.62,-305.8 159.03,-531.3 349.87,-665.7 h 0.1 c 33.4,-23.5 68.81,-44.2 106.02,-62.1 l 307.31,-179.7 67.83,98 c 3.55,-0.1 7.1,-0.1 10.67,-0.1 249.66,0 539.4,84.8 848.46,263.2 938.5,541.8 1699.35,1742 1699.35,2680.5 0,226.8 -44.4,417.5 -124.97,568.7 l 69.4,100.2 -353.78,201 c -6.59,3.9 -13.24,7.7 -20,11.4 l -0.27,0.1 c -120.78,66 -262.97,100.1 -421.33,100.1 z m 0,-27.2 c 153.39,0 290.75,-32.6 408.27,-96.8 l 1.5,-0.8 c 6.08,-3.3 12.11,-6.8 18.37,-10.5 l 327.89,-186.3 -52.45,-75.7 -9.46,-13.6 7.82,-14.7 c 80.8,-151.7 121.77,-338.7 121.77,-555.9 0,-928.4 -756.21,-2120.3 -1685.73,-2656.9 -294.09,-169.8 -582.77,-259.5 -834.84,-259.5 -3.49,0 -6.94,0 -10.41,0 l -14.43,0.1 -8.23,-11.8 -53.46,-77.2 -285.53,167 -0.96,0.5 -1,0.5 c -35.84,17.2 -70.2,37.3 -102.14,59.8 l -1.45,1 c -188.82,133.6 -305.38,356.7 -337.12,645.5 -1.22,10.7 -2.29,21.6 -3.2,32.6 -3.84,43.6 -5.78,89.4 -5.78,136.1 0,79.7 5.68,163.2 16.9,248.2 1.18,9.5 2.51,19 3.9,28.6 16.28,112.1 42.39,228.9 77.64,347.3 2.56,8.8 5.24,17.6 7.95,26.5 32.74,106.2 73.26,215 120.49,323.6 3.54,8.2 7.18,16.4 10.92,24.8 45.31,102 96.97,204.5 153.6,304.8 4.33,7.8 8.72,15.5 13.31,23.4 55.99,97.7 117.4,194.7 182.56,288.4 5.11,7.3 10.33,14.7 15.62,22.2 66.1,93.6 136.91,185.2 210.54,272.3 5.87,7 11.79,14 17.74,20.9 76.39,89.2 157.05,175 239.7,255.1 6.72,6.5 13.43,13 20.3,19.6 88.33,84.3 180.39,163.5 273.57,235.4 7.7,5.9 15.46,11.8 23.3,17.7 97.64,73.8 197.82,140.5 297.68,198.1 6.55,3.8 13.1,7.5 19.88,11.3 9.15,5.2 18.23,10.4 27.3,15.3 130.45,71.7 259.72,127.8 384.3,166.6 h 0.01 l 3.92,1.3 c 13.66,4.2 24.9,7.5 35.43,10.5 126.89,36.3 249.36,54.7 364.01,54.7" style="fill:#ffe840;fill-opacity:1;fill-rule:nonzero;stroke:none" id="path30" transform="matrix(0.133333, 0, 0, -0.133333, 0, 5287.013184)"/>
  <path d="m 5981.78,36030.9 c 0,-938.6 -760.84,-2138.7 -1699.39,-2680.6 -938.55,-541.8 -1699.4,-220.3 -1699.4,718.3 0,938.5 760.85,2138.7 1699.4,2680.5 938.55,541.9 1699.39,220.3 1699.39,-718.2" style="fill:#ffd071;fill-opacity:1;fill-rule:nonzero;stroke:none" id="path32" transform="matrix(0.133333, 0, 0, -0.133333, 0, 5287.013184)"/>
  <path d="m 5981.78,36030.9 c 0,-938.6 -760.84,-2138.7 -1699.39,-2680.6 -938.55,-541.8 -1699.4,-220.3 -1699.4,718.3 0,938.5 760.85,2138.7 1699.4,2680.5 938.55,541.9 1699.39,220.3 1699.39,-718.2" style="fill:#ffe840;fill-opacity:1;fill-rule:nonzero;stroke:none" id="path34" transform="matrix(0.133333, 0, 0, -0.133333, 0, 5287.013184)"/>
  <path d="m 4325.97,36452.8 c -773.64,-446.7 -1403.05,-1439.5 -1403.05,-2213.1 0,-773.7 629.41,-1039.7 1403.05,-593 773.64,446.7 1403.05,1439.4 1403.05,2213.1 0,773.6 -629.41,1039.6 -1403.05,593 z m 0,-2887.8 c -396.59,-229 -769.45,-289.8 -1049.89,-171.3 -280.43,118.5 -434.87,402.2 -434.87,798.8 0,396.6 154.44,858.6 434.87,1301 280.44,442.3 653.3,812 1049.89,1041 396.59,229 769.45,289.8 1049.88,171.3 280.44,-118.5 434.89,-402.2 434.89,-798.8 0,-396.6 -154.45,-858.7 -434.89,-1301 -280.43,-442.3 -653.29,-812.1 -1049.88,-1041" style="fill:#ff9d4d;fill-opacity:1;fill-rule:nonzero;stroke:none" id="path36" transform="matrix(0.133333, 0, 0, -0.133333, 0, 5287.013184)"/>
  <path d="m 4533.86,35300.7 v -226.3 c -4.7,-2.2 -9.53,-4.8 -14.44,-7.6 l -124.2,-71.8 v 211.5 l 69.86,40.4 c 24.99,14.4 47.93,32.4 68.78,53.8" style="fill:#d1975d;fill-opacity:1;fill-rule:nonzero;stroke:none" id="path38" transform="matrix(0.133333, 0, 0, -0.133333, 0, 5287.013184)"/>
  <path d="m 4666.86,34897.7 c -9.06,-27.2 -21.37,-53.4 -36.87,-78.5 -15.51,-25.1 -33.97,-48.4 -55.29,-69.7 -13.03,-13.1 -26.61,-24.8 -40.84,-35.1 -9.1,-6.7 -18.45,-12.8 -28.03,-18.3 l -110.61,-63.8 -287.09,-165.8 v 362.8 l 118.43,68.4 292.86,169.1 c 4.91,2.8 9.74,5.4 14.44,7.6 17.73,8.7 34.27,13.6 49.56,14.8 19.39,1.5 36.18,-2.1 50.45,-10.7 14.23,-8.6 25.51,-21.8 33.97,-39.5 8.37,-17.8 12.6,-39 12.6,-63.6 0,-24.6 -4.57,-50.5 -13.58,-77.7 z m -558.73,490.4 368.61,212.8 c 20.64,11.9 39.65,19.2 57.12,22.1 18.67,3 35.5,0.8 50.54,-6.5 29.09,-14.3 43.66,-47.9 43.66,-100.9 0,-54.3 -15.85,-106.2 -47.55,-155.5 -14.18,-22.2 -29.73,-41.9 -46.65,-59.4 -20.85,-21.4 -43.79,-39.4 -68.78,-53.8 l -238.52,-137.8 -118.43,-68.3 z m 773.1,-121.2 c -45.92,33.7 -108.34,39.3 -187.21,17.1 64.64,65.8 113.77,137.7 147.44,216 33.62,78.3 50.45,151.1 50.45,218.3 0,42.7 -7.47,80.7 -22.34,114.2 -14.87,33.5 -35.89,58.8 -63.02,76.2 -27.17,17.2 -60.15,25 -98.94,23.4 -38.84,-1.8 -82.16,-16.5 -130,-44.1 l -43.75,-25.2 v 223.4 l -138.64,-80.1 v -223.4 l -168.66,-97.4 v 223.4 l -138.64,-80 v -223.4 l -247.52,-142.9 v -1377.5 l 247.52,143 v -232 l 138.64,80.1 v 231.9 l 168.66,97.4 v -232 l 138.64,80.1 v 232.5 c 50.41,31.1 98.3,66.3 143.67,105.6 53.66,46.6 100.87,96.4 141.63,149.7 40.71,53.3 72.75,108.6 96.04,166.1 23.28,57.4 34.9,115.2 34.9,173.4 0,90.5 -22.99,152.6 -68.87,186.2" style="fill:#ff9d4d;fill-opacity:1;fill-rule:nonzero;stroke:none" id="path40" transform="matrix(0.133333, 0, 0, -0.133333, 0, 5287.013184)"/>
  <path d="m 4451.79,36705.5 -13.62,-23.6 -480.39,277.4 c 9.26,5.3 18.47,10.5 27.67,15.5 l 466.34,-269.3" style="fill:#ffe840;fill-opacity:1;fill-rule:nonzero;stroke:none" id="path42" transform="matrix(0.133333, 0, 0, -0.133333, 0, 5287.013184)"/>
  <path d="m 4027.29,36522.8 -13.62,-23.6 -399.87,230.8 c 7.79,6 15.63,12 23.48,17.9 l 390.01,-225.1" style="fill:#ffe840;fill-opacity:1;fill-rule:nonzero;stroke:none" id="path44" transform="matrix(0.133333, 0, 0, -0.133333, 0, 5287.013184)"/>
  <path d="m 3731.74,36265.4 -13.61,-23.5 -400.53,231.2 c 6.81,6.6 13.62,13.2 20.43,19.7 l 393.71,-227.4" style="fill:#ffe840;fill-opacity:1;fill-rule:nonzero;stroke:none" id="path46" transform="matrix(0.133333, 0, 0, -0.133333, 0, 5287.013184)"/>
  <path d="m 3436.2,36008.2 -13.62,-23.6 -364.36,210.4 c 5.94,7.1 11.94,14.1 17.93,21.1 l 360.05,-207.9" style="fill:#ffe840;fill-opacity:1;fill-rule:nonzero;stroke:none" id="path48" transform="matrix(0.133333, 0, 0, -0.133333, 0, 5287.013184)"/>
  <path d="m 3269.28,35676.6 -13.63,-23.5 -425.09,245.4 c 5.17,7.4 10.46,15 15.74,22.4 l 422.98,-244.3" style="fill:#ffe840;fill-opacity:1;fill-rule:nonzero;stroke:none" id="path50" transform="matrix(0.133333, 0, 0, -0.133333, 0, 5287.013184)"/>
  <path d="m 3161.99,35308.5 -13.62,-23.6 -515.08,299.6 c 4.42,7.9 8.88,15.8 13.46,23.7 l 515.24,-299.7" style="fill:#ffe840;fill-opacity:1;fill-rule:nonzero;stroke:none" id="path52" transform="matrix(0.133333, 0, 0, -0.133333, 0, 5287.013184)"/>
  <path d="m 2952.32,35003.9 -13.62,-23.6 -471.19,272 c 3.6,8.4 7.3,16.7 11.06,25.1 l 473.75,-273.5" style="fill:#ffe840;fill-opacity:1;fill-rule:nonzero;stroke:none" id="path54" transform="matrix(0.133333, 0, 0, -0.133333, 0, 5287.013184)"/>
  <path d="m 2872.56,34622 -13.62,-23.6 -520.98,300.8 c 2.62,8.9 5.34,17.8 8.07,26.8 l 526.53,-304" style="fill:#ffe840;fill-opacity:1;fill-rule:nonzero;stroke:none" id="path56" transform="matrix(0.133333, 0, 0, -0.133333, 0, 5287.013184)"/>
  <path d="m 2737.94,34271.9 -13.61,-23.6 -468.79,270.6 c 1.19,9.7 2.56,19.4 3.97,29.2 l 478.43,-276.2" style="fill:#ffe840;fill-opacity:1;fill-rule:nonzero;stroke:none" id="path58" transform="matrix(0.133333, 0, 0, -0.133333, 0, 5287.013184)"/>
  <path d="m 2757.99,33832.4 -13.61,-23.6 -496.8,286.8 c -1.25,11 -2.34,22.1 -3.27,33.4 l 513.68,-296.6" style="fill:#ffe840;fill-opacity:1;fill-rule:nonzero;stroke:none" id="path60" transform="matrix(0.133333, 0, 0, -0.133333, 0, 5287.013184)"/>
  <path d="m 4859.94,36898.4 -13.62,-23.6 -467.53,270 c 12.04,3.7 24.02,7.3 35.96,10.7 l 445.19,-257.1" style="fill:#ffe840;fill-opacity:1;fill-rule:nonzero;stroke:none" id="path62" transform="matrix(0.133333, 0, 0, -0.133333, 0, 5287.013184)"/>
  <path d="m 7753.12,38074.2 20,28.8 -101.95,58 c -1.9,1.1 -3.82,2.2 -5.76,3.2 l -0.07,0.1 v 0 c -89.69,49 -220.37,37 -365.88,-47 -270.44,-156.2 -489.67,-502 -489.67,-772.4 0,-113.5 38.62,-195.7 103.45,-241.3 h -0.01 0.04 c 9.62,-6.8 19.82,-12.8 30.55,-17.9 l 88.55,-51.8 19.54,28.2 c 72.64,-0.7 157.24,23.7 247.55,75.8 270.44,156.2 489.67,502 489.67,772.4 0,65.3 -12.79,120.3 -36.01,163.9" style="fill:#ff9d4d;fill-opacity:1;fill-rule:nonzero;stroke:none" id="path64" transform="matrix(0.133333, 0, 0, -0.133333, 0, 5287.013184)"/>
  <path d="m 7888.42,37853 c 0,-270.4 -219.24,-616.2 -489.67,-772.4 -270.44,-156.1 -489.67,-63.4 -489.67,207 0,270.4 219.23,616.2 489.67,772.4 270.43,156.1 489.67,63.5 489.67,-207" style="fill:#ffe840;fill-opacity:1;fill-rule:nonzero;stroke:none" id="path66" transform="matrix(0.133333, 0, 0, -0.133333, 0, 5287.013184)"/>
  <path d="m 4727.91,39533.7 20.01,28.8 -101.95,58 c -1.91,1.1 -3.83,2.2 -5.76,3.2 l -0.08,0.1 v 0 c -89.69,48.9 -220.37,37 -365.88,-47 -270.44,-156.2 -489.67,-502 -489.67,-772.4 0,-113.5 38.63,-195.7 103.45,-241.3 l 0.03,-0.1 c 9.63,-6.7 19.83,-12.7 30.56,-17.8 l 88.54,-51.8 19.55,28.2 c 72.63,-0.7 157.23,23.7 247.54,75.8 270.44,156.2 489.68,502 489.68,772.4 0,65.3 -12.8,120.3 -36.02,163.9" style="fill:#ff9d4d;fill-opacity:1;fill-rule:nonzero;stroke:none" id="path68" transform="matrix(0.133333, 0, 0, -0.133333, 0, 5287.013184)"/>
  <path d="m 4863.21,39312.5 c 0,-270.4 -219.23,-616.2 -489.67,-772.4 -270.43,-156.1 -489.67,-63.5 -489.67,207 0,270.4 219.24,616.2 489.67,772.4 270.44,156.1 489.67,63.4 489.67,-207" style="fill:#ffe840;fill-opacity:1;fill-rule:nonzero;stroke:none" id="path70" transform="matrix(0.133333, 0, 0, -0.133333, 0, 5287.013184)"/>
  <path d="m 8062.32,34595.4 20.01,28.9 -101.95,57.9 c -1.9,1.2 -3.82,2.3 -5.76,3.3 l -0.07,0.1 v 0 c -89.69,48.9 -220.38,37 -365.88,-47.1 -270.44,-156.1 -489.68,-501.9 -489.68,-772.3 0,-113.5 38.63,-195.7 103.45,-241.4 h 0.04 c 9.62,-6.7 19.81,-12.7 30.55,-17.9 l 88.54,-51.7 19.55,28.2 c 72.63,-0.7 157.23,23.7 247.55,75.8 270.44,156.1 489.67,501.9 489.67,772.4 0,65.3 -12.8,120.3 -36.02,163.8" style="fill:#ff9d4d;fill-opacity:1;fill-rule:nonzero;stroke:none" id="path72" transform="matrix(0.133333, 0, 0, -0.133333, 0, 5287.013184)"/>
  <path d="m 8197.63,34374.3 c 0,-270.5 -219.24,-616.3 -489.68,-772.4 -270.44,-156.1 -489.67,-63.5 -489.67,207 0,270.4 219.23,616.2 489.67,772.3 270.44,156.2 489.68,63.5 489.68,-206.9" style="fill:#ffe840;fill-opacity:1;fill-rule:nonzero;stroke:none" id="path74" transform="matrix(0.133333, 0, 0, -0.133333, 0, 5287.013184)"/>
  <path d="m 4729.99,32124.9 20,28.8 -101.95,58 c -1.9,1.1 -3.82,2.2 -5.76,3.2 l -0.07,0.1 v 0 c -89.7,48.9 -220.37,37 -365.88,-47 -270.44,-156.2 -489.67,-502 -489.67,-772.4 0,-113.5 38.62,-195.7 103.44,-241.3 l 0.04,-0.1 c 9.62,-6.7 19.82,-12.7 30.55,-17.8 l 88.55,-51.8 19.54,28.2 c 72.64,-0.7 157.24,23.7 247.55,75.8 270.44,156.1 489.67,502 489.67,772.4 0,65.3 -12.8,120.3 -36.01,163.9" style="fill:#ff9d4d;fill-opacity:1;fill-rule:nonzero;stroke:none" id="path76" transform="matrix(0.133333, 0, 0, -0.133333, 0, 5287.013184)"/>
  <path d="m 4865.29,31903.7 c 0,-270.4 -219.24,-616.2 -489.67,-772.4 -270.44,-156.1 -489.68,-63.5 -489.68,207 0,270.4 219.24,616.2 489.68,772.4 270.43,156.1 489.67,63.4 489.67,-207" style="fill:#ffe840;fill-opacity:1;fill-rule:nonzero;stroke:none" id="path78" transform="matrix(0.133333, 0, 0, -0.133333, 0, 5287.013184)"/>
  <path d="m 1694.83,33163.1 20,28.8 -101.95,58 c -1.9,1.1 -3.82,2.2 -5.76,3.2 l -0.07,0.1 c -89.69,49 -220.37,37 -365.88,-47 -270.44,-156.2 -489.67,-502 -489.67,-772.4 0,-113.5 38.629,-195.7 103.445,-241.3 l 0.035,-0.1 c 9.625,-6.7 19.821,-12.7 30.555,-17.8 l 88.543,-51.8 19.551,28.2 c 72.631,-0.7 157.231,23.7 247.541,75.8 270.44,156.2 489.67,502 489.67,772.4 0,65.3 -12.79,120.3 -36.01,163.9" style="fill:#ff9d4d;fill-opacity:1;fill-rule:nonzero;stroke:none" id="path80" transform="matrix(0.133333, 0, 0, -0.133333, 0, 5287.013184)"/>
  <path d="m 1830.13,32941.9 c 0,-270.4 -219.23,-616.2 -489.67,-772.4 -270.44,-156.1 -489.675,-63.5 -489.675,207 0,270.4 219.235,616.2 489.675,772.4 270.44,156.1 489.67,63.4 489.67,-207" style="fill:#ffe840;fill-opacity:1;fill-rule:nonzero;stroke:none" id="path82" transform="matrix(0.133333, 0, 0, -0.133333, 0, 5287.013184)"/>
  <path d="m 943.328,36128.3 20.008,28.8 -101.949,58 c -1.907,1.1 -3.824,2.2 -5.762,3.2 l -0.074,0.1 c -89.688,49 -220.371,37 -365.879,-47 C 219.234,36015.2 0,35669.4 0,35399 c 0,-113.5 38.6289,-195.7 103.445,-241.3 v 0 h 0.035 c 9.625,-6.8 19.821,-12.8 30.559,-17.9 l 88.543,-51.8 19.547,28.2 c 72.633,-0.7 157.23,23.7 247.543,75.8 270.441,156.2 489.676,502 489.676,772.4 0,65.3 -12.801,120.3 -36.02,163.9" style="fill:#ff9d4d;fill-opacity:1;fill-rule:nonzero;stroke:none" id="path84" transform="matrix(0.133333, 0, 0, -0.133333, 0, 5287.013184)"/>
  <path d="m 1078.63,35907.1 c 0,-270.4 -219.232,-616.2 -489.669,-772.4 -270.441,-156.1 -489.6758,-63.4 -489.6758,207 0,270.4 219.2348,616.2 489.6758,772.4 270.437,156.1 489.669,63.5 489.669,-207" style="fill:#ffe840;fill-opacity:1;fill-rule:nonzero;stroke:none" id="path86" transform="matrix(0.133333, 0, 0, -0.133333, 0, 5287.013184)"/>
  <path d="m 1999.95,38074.2 20.01,28.8 -101.95,58 c -1.91,1.1 -3.82,2.2 -5.76,3.2 l -0.08,0.1 v 0 c -89.68,49 -220.37,37 -365.88,-47 -270.44,-156.2 -489.67,-502 -489.67,-772.4 0,-113.5 38.63,-195.7 103.45,-241.3 v 0 h 0.04 c 9.62,-6.8 19.82,-12.8 30.55,-17.9 l 88.54,-51.8 19.55,28.2 c 72.64,-0.7 157.23,23.7 247.54,75.8 270.44,156.2 489.68,502 489.68,772.4 0,65.3 -12.8,120.3 -36.02,163.9" style="fill:#ff9d4d;fill-opacity:1;fill-rule:nonzero;stroke:none" id="path88" transform="matrix(0.133333, 0, 0, -0.133333, 0, 5287.013184)"/>
  <path d="m 2135.25,37853 c 0,-270.4 -219.23,-616.2 -489.67,-772.4 -270.43,-156.1 -489.67,-63.4 -489.67,207 0,270.4 219.24,616.2 489.67,772.4 270.44,156.1 489.67,63.5 489.67,-207" style="fill:#ffe840;fill-opacity:1;fill-rule:nonzero;stroke:none" id="path90" transform="matrix(0.133333, 0, 0, -0.133333, 0, 5287.013184)"/>
</svg>