<?xml version="1.0" encoding="utf-8"?>
<svg viewBox="3809.16 3954.133 1400.855 1332.88" width="1400.855" height="1332.88" xmlns="http://www.w3.org/2000/svg">
  <defs>
    <clipPath clipPathUnits="userSpaceOnUse" id="clipPath3694">
      <path d="m 33821.9,817.703 c -72.5,0 -144.9,18.797 -209.8,56.195 L 29076.3,3492.7 28680.9,3721 c -34.4,19.8 -59.3,47.9 -74.7,79.7 v 51.4 h 1.6 l -1.3,19.9 c -4,64.5 28,124.5 83.8,156.7 l 2935.3,1694.6 v -945.1 c -17.2,-128.4 -0.3,-258.1 50.7,-384.2 v -0.1 c 0.3,-0.6 0.5,-1.2 0.8,-1.8 0,-0.2 0.1,-0.3 0.2,-0.5 0.2,-0.5 0.3,-0.9 0.5,-1.4 0.1,-0.2 0.2,-0.5 0.3,-0.7 0.2,-0.4 0.3,-0.8 0.5,-1.2 0.1,-0.2 0.3,-0.6 0.4,-0.9 0.1,-0.3 0.2,-0.6 0.4,-0.9 0.1,-0.4 0.3,-0.7 0.4,-1.1 0.1,-0.2 0.2,-0.4 0.3,-0.6 0.2,-0.5 0.4,-0.9 0.6,-1.4 v -0.2 c 88.6,-210.7 272.5,-410.8 551.8,-577.3 0.2,-0.1 0.4,-0.3 0.6,-0.4 0.3,-0.2 0.7,-0.4 1,-0.6 0.6,-0.3 1.1,-0.6 1.6,-1 0.3,-0.1 0.6,-0.3 0.8,-0.4 0.6,-0.4 1.3,-0.8 1.9,-1.2 0.2,-0.1 0.4,-0.2 0.6,-0.3 0.8,-0.4 1.4,-0.8 2.1,-1.3 0.2,-0.1 0.3,-0.1 0.5,-0.2 0.7,-0.5 1.6,-1 2.4,-1.4 0,-0.1 0,-0.1 0.1,-0.1 4.5,-2.7 9.1,-5.3 13.6,-7.9 425.8,-245.9 983.8,-368.8 1541.8,-368.8 558,0 1116.1,122.9 1541.8,368.8 851.5,491.6 851.5,1288.6 0,1780.3 v 542.8 l 3612.2,-2085.5 c 55.8,-32.2 87.9,-92.3 83.8,-156.7 l -0.1,-1.1 c -0.9,-13 -3.3,-26 -7.2,-38.5 l 7.2,-2.2 v -30.3 c -15.4,-31.5 -40.2,-59.3 -74.3,-78.9 L 38673.4,3553.8 34031.8,873.898 c -32.5,-18.695 -66.8,-32.695 -102.1,-42.097 l -4.8,18.101 c -33.6,-8.898 -68.3,-13.402 -103,-13.402 v -18.797 0 M 32858.1,5817.1 c 296.8,82 619.1,123 941.4,123 227.7,0 455.4,-20.5 674.1,-61.4 -218.7,40.9 -446.4,61.4 -674.1,61.4 -322.2,0 -644.6,-41 -941.4,-123" id="path3692"/>
    </clipPath>
    <linearGradient x1="0" y1="0" x2="1" y2="0" gradientUnits="userSpaceOnUse" gradientTransform="matrix(10468.9,0,0,-10468.9,28587.4,3870.8)" spreadMethod="pad" id="linearGradient3700">
      <stop style="stop-opacity:1;stop-color:#6a5ebf" offset="0" id="stop3696"/>
      <stop style="stop-opacity:1;stop-color:#6e3aa5" offset="1" id="stop3698"/>
    </linearGradient>
    <clipPath clipPathUnits="userSpaceOnUse" id="clipPath3712">
      <path d="m 35461.8,4681.2 c -38.1,25.9 -78.2,51.1 -120.5,75.5 -851.5,491.6 -2232.1,491.6 -3083.6,0 -42.3,-24.4 -82.4,-49.6 -120.5,-75.5 h -518.1 v -814.7 c 0,-322.1 212.9,-644.3 638.6,-890.1 851.5,-491.6 2232.1,-491.6 3083.6,0 425.8,245.8 638.6,568 638.6,890.1 v 814.7 z" id="path3710"/>
    </clipPath>
    <linearGradient x1="0" y1="0" x2="1" y2="0" gradientUnits="userSpaceOnUse" gradientTransform="matrix(4360.85,0,0,-4360.85,31619.1,3866.5)" spreadMethod="pad" id="linearGradient3718">
      <stop style="stop-opacity:1;stop-color:#2e256b" offset="0" id="stop3714"/>
      <stop style="stop-opacity:1;stop-color:#5a3087" offset="1" id="stop3716"/>
    </linearGradient>
    <clipPath clipPathUnits="userSpaceOnUse" id="clipPath3728">
      <path d="m 33799.5,3422.3 c -558,0 -1116,122.9 -1541.8,368.8 -4.5,2.6 -9.1,5.2 -13.6,7.9 4.5,-2.6 9,-5.3 13.6,-7.9 v 1780.2 0 c 179.9,103.9 383.3,185.8 600.4,245.8 296.8,82 619.2,123 941.4,123 227.7,0 455.4,-20.5 674.1,-61.4 317.3,-59.4 615.7,-161.8 867.7,-307.4 v 0 c 851.5,-491.6 851.5,-1288.6 0,-1780.2 -425.7,-245.9 -983.8,-368.8 -1541.8,-368.8 M 32244,3799.1 c -0.8,0.4 -1.7,0.9 -2.4,1.4 0.7,-0.5 1.6,-1 2.4,-1.4 m -2.9,1.6 c -0.7,0.5 -1.3,0.9 -2.1,1.3 0.7,-0.4 1.4,-0.9 2.1,-1.3 m -2.7,1.6 c -0.6,0.4 -1.3,0.8 -1.9,1.2 0.7,-0.4 1.3,-0.8 1.9,-1.2 m -2.7,1.6 c -0.5,0.4 -1,0.7 -1.6,1 0.5,-0.3 1.1,-0.6 1.6,-1 m -2.6,1.6 c -0.2,0.1 -0.4,0.3 -0.6,0.4 0.2,-0.1 0.4,-0.3 0.6,-0.4 m -552.4,577.7 v 0.2 c 0,-0.1 0,-0.1 0,-0.2 m -0.6,1.6 c -0.1,0.2 -0.2,0.4 -0.3,0.6 0.1,-0.2 0.2,-0.4 0.3,-0.6 m -0.7,1.7 c -0.2,0.3 -0.3,0.6 -0.4,0.9 0.1,-0.3 0.2,-0.6 0.4,-0.9 m -0.8,1.8 c -0.2,0.4 -0.3,0.8 -0.5,1.2 0.2,-0.4 0.3,-0.8 0.5,-1.2 m -0.8,1.9 c -0.2,0.5 -0.3,0.9 -0.5,1.4 0.2,-0.4 0.3,-0.9 0.5,-1.4 m -0.7,1.9 c -0.3,0.6 -0.5,1.2 -0.8,1.8 0.3,-0.6 0.5,-1.2 0.8,-1.8 m -0.8,1.9 c -51,126.1 -67.9,255.8 -50.7,384.4 v -0.2 0 c -17.1,-128.5 -0.2,-258.1 50.7,-384.2" id="path3726"/>
    </clipPath>
    <linearGradient x1="0" y1="0" x2="1" y2="0" gradientUnits="userSpaceOnUse" gradientTransform="matrix(4360.85,0,0,-4360.85,31619.1,4681.2)" spreadMethod="pad" id="linearGradient3734">
      <stop style="stop-opacity:1;stop-color:#7fc1e2" offset="0" id="stop3730"/>
      <stop style="stop-opacity:1;stop-color:#304d87" offset="1" id="stop3732"/>
    </linearGradient>
    <clipPath clipPathUnits="userSpaceOnUse" id="clipPath3748">
      <path d="m 32257.7,5571.3 v 517 l 1285.7,742.2 c 85.9,49.7 182.2,74.5 278.5,74.5 96.4,0 192.7,-24.8 278.6,-74.5 l 1240.8,-716.3 v -542.9 c 0,0.1 0,0.1 0,0.1 -252.1,145.5 -550.4,247.9 -867.7,307.3 -218.7,40.9 -446.4,61.4 -674.1,61.4 -322.3,0 -644.6,-41 -941.4,-123 -217.1,-60 -420.5,-141.9 -600.4,-245.7 v 0" id="path3746"/>
    </clipPath>
    <linearGradient x1="0" y1="0" x2="1" y2="0" gradientUnits="userSpaceOnUse" gradientTransform="matrix(10468.9,0,0,-10468.9,28587.4,3870.8)" spreadMethod="pad" id="linearGradient3754">
      <stop style="stop-opacity:1;stop-color:#626eb3" offset="0" id="stop3750"/>
      <stop style="stop-opacity:1;stop-color:#645ca7" offset="1" id="stop3752"/>
    </linearGradient>
    <clipPath clipPathUnits="userSpaceOnUse" id="clipPath3766">
      <path d="m 35341.3,5571.3 c -252,145.6 -550.4,248 -867.7,307.4 317.3,-59.4 615.6,-161.8 867.7,-307.3 v 0 -0.1 m -3083.6,0 v 0 c 0,0.1 0,0.1 0,0.1 179.9,103.8 383.3,185.7 600.4,245.7 -217.1,-60 -420.5,-141.9 -600.4,-245.8" id="path3764"/>
    </clipPath>
    <linearGradient x1="0" y1="0" x2="1" y2="0" gradientUnits="userSpaceOnUse" gradientTransform="matrix(4360.85,0,0,-4360.85,31619.1,4681.2)" spreadMethod="pad" id="linearGradient3772">
      <stop style="stop-opacity:1;stop-color:#6d9fc5" offset="0" id="stop3768"/>
      <stop style="stop-opacity:1;stop-color:#466698" offset="1" id="stop3770"/>
    </linearGradient>
    <clipPath clipPathUnits="userSpaceOnUse" id="clipPath3784">
      <path d="m 31625.6,4778.2 v 945.1 l 632.1,365 v -517 c -145.1,-83.7 -265.4,-176.3 -361.1,-274.8 0,-0.1 -0.1,-0.1 -0.1,-0.1 -0.4,-0.5 -0.8,-0.9 -1.2,-1.3 -0.2,-0.2 -0.4,-0.4 -0.6,-0.6 -0.3,-0.3 -0.6,-0.6 -0.8,-0.9 -0.4,-0.3 -0.7,-0.7 -1,-1 -0.2,-0.2 -0.3,-0.3 -0.5,-0.5 -136.5,-141.8 -221.9,-295.7 -256.1,-452.5 0,-0.1 0,-0.2 0,-0.2 -0.1,-0.4 -0.2,-0.7 -0.3,-1.1 -4.3,-19.9 -7.8,-39.9 -10.4,-59.9" id="path3782"/>
    </clipPath>
    <linearGradient x1="0" y1="0" x2="1" y2="0" gradientUnits="userSpaceOnUse" gradientTransform="matrix(10468.9,0,0,-10468.9,28587.4,3870.8)" spreadMethod="pad" id="linearGradient3790">
      <stop style="stop-opacity:1;stop-color:#5e69ac" offset="0" id="stop3786"/>
      <stop style="stop-opacity:1;stop-color:#60579f" offset="1" id="stop3788"/>
    </linearGradient>
    <clipPath clipPathUnits="userSpaceOnUse" id="clipPath3802">
      <path d="m 31625.6,4778.2 v 0 c 2.6,20.2 6.1,40.2 10.4,60.1 -4.3,-20 -7.8,-40 -10.4,-60.1 m 10.7,61.2 c 0,0 0,0.1 0,0.2 0,-0.1 0,-0.2 0,-0.2 m 256.1,452.7 c 0.2,0.2 0.3,0.3 0.5,0.5 -0.2,-0.2 -0.3,-0.3 -0.5,-0.5 m 1.5,1.5 c 0.2,0.3 0.5,0.6 0.8,0.9 -0.3,-0.3 -0.6,-0.6 -0.8,-0.9 m 1.4,1.5 c 0.4,0.4 0.8,0.8 1.2,1.3 -0.4,-0.5 -0.8,-0.9 -1.2,-1.3 m 1.3,1.4 c 95.7,98.5 216,191.1 361.1,274.9 v -0.1 0 0 c -145.1,-83.7 -265.4,-176.4 -361.1,-274.8" id="path3800"/>
    </clipPath>
    <linearGradient x1="0" y1="0" x2="1" y2="0" gradientUnits="userSpaceOnUse" gradientTransform="matrix(4360.85,0,0,-4360.85,31619.1,4681.2)" spreadMethod="pad" id="linearGradient3808">
      <stop style="stop-opacity:1;stop-color:#689abd" offset="0" id="stop3804"/>
      <stop style="stop-opacity:1;stop-color:#416190" offset="1" id="stop3806"/>
    </linearGradient>
  </defs>
  <path d="m 38862.7,2967.5 193.3,588.7 -655.9,-4.1 -4290.2,2476.9 c -178.2,102.9 -397.7,102.9 -575.9,0 l -4392.5,-2535.9 -553.7,-3.5 85.1,-470 c -0.4,-7.8 -0.5,-15.6 0,-23.4 3.8,-58.8 34.9,-116.2 93.1,-149.8 L 33612.1,56.2031 C 33677,18.7031 33749.4,0 33821.9,0 c 72.5,0 144.9,18.7031 209.9,56.2031 L 38769.6,2793.5 c 58.1,33.5 89.3,90.7 93.1,149.3 v 0.6 c 0.5,8 0.5,16.1 0,24.1" style="fill:#e3dfea;fill-opacity:1;fill-rule:nonzero;stroke:none" id="path3680" transform="matrix(0.133333, 0, 0, -0.133333, 0, 5287.013184)"/>
  <path d="M 33821.9,817.703 V 479 c -72.5,0 -144.9,18.703 -209.8,56.203 L 28680.9,3382.2 c -62.3,36 -93.4,99 -93.4,162 v 326.6 h 0.3 c 3.8,-58.8 34.9,-116.2 93.1,-149.8 L 33612.1,873.898 c 64.9,-37.398 137.3,-56.195 209.8,-56.195" style="fill:#7b5baa;fill-opacity:1;fill-rule:nonzero;stroke:none" id="path3682" transform="matrix(0.133333, 0, 0, -0.133333, 0, 5287.013184)"/>
  <path d="M 38962.9,3382.2 34031.8,535.203 C 33966.9,497.703 33894.4,479 33821.9,479 v 338.703 c 72.5,0 145,18.797 209.9,56.195 L 38962.9,3721 c 58.1,33.5 89.2,90.6 93.1,149.2 v -314 c 4.3,-66.8 -26.7,-135.7 -93.1,-174" style="fill:#634d99;fill-opacity:1;fill-rule:nonzero;stroke:none" id="path3684" transform="matrix(0.133333, 0, 0, -0.133333, 0, 5287.013184)"/>
  <path d="m 39056,3870.8 v -0.6 c -3.9,-58.6 -35,-115.7 -93.1,-149.2 L 34031.8,873.898 c -65,-37.398 -137.4,-56.195 -209.9,-56.195 -72.5,0 -144.9,18.797 -209.8,56.195 L 28680.9,3721 c -58.2,33.6 -89.3,91 -93.1,149.8 h 378.4 L 33534,6508 c 178.2,102.9 397.7,102.9 575.9,0 l 4567.8,-2637.2 h 378.3" style="fill:#7b5baa;fill-opacity:1;fill-rule:nonzero;stroke:none" id="path3686" transform="matrix(0.133333, 0, 0, -0.133333, 0, 5287.013184)"/>
  <g id="g3688" transform="matrix(0.133333, 0, 0, -0.133333, 0, 5287.013184)">
    <g id="g3690" clip-path="url(#clipPath3694)">
      <path d="m 33821.9,817.703 c -72.5,0 -144.9,18.797 -209.8,56.195 L 29076.3,3492.7 28680.9,3721 c -34.4,19.8 -59.3,47.9 -74.7,79.7 v 51.4 h 1.6 l -1.3,19.9 c -4,64.5 28,124.5 83.8,156.7 l 2935.3,1694.6 v -945.1 c -17.2,-128.4 -0.3,-258.1 50.7,-384.2 v -0.1 c 0.3,-0.6 0.5,-1.2 0.8,-1.8 0,-0.2 0.1,-0.3 0.2,-0.5 0.2,-0.5 0.3,-0.9 0.5,-1.4 0.1,-0.2 0.2,-0.5 0.3,-0.7 0.2,-0.4 0.3,-0.8 0.5,-1.2 0.1,-0.2 0.3,-0.6 0.4,-0.9 0.1,-0.3 0.2,-0.6 0.4,-0.9 0.1,-0.4 0.3,-0.7 0.4,-1.1 0.1,-0.2 0.2,-0.4 0.3,-0.6 0.2,-0.5 0.4,-0.9 0.6,-1.4 v -0.2 c 88.6,-210.7 272.5,-410.8 551.8,-577.3 0.2,-0.1 0.4,-0.3 0.6,-0.4 0.3,-0.2 0.7,-0.4 1,-0.6 0.6,-0.3 1.1,-0.6 1.6,-1 0.3,-0.1 0.6,-0.3 0.8,-0.4 0.6,-0.4 1.3,-0.8 1.9,-1.2 0.2,-0.1 0.4,-0.2 0.6,-0.3 0.8,-0.4 1.4,-0.8 2.1,-1.3 0.2,-0.1 0.3,-0.1 0.5,-0.2 0.7,-0.5 1.6,-1 2.4,-1.4 0,-0.1 0,-0.1 0.1,-0.1 4.5,-2.7 9.1,-5.3 13.6,-7.9 425.8,-245.9 983.8,-368.8 1541.8,-368.8 558,0 1116.1,122.9 1541.8,368.8 851.5,491.6 851.5,1288.6 0,1780.3 v 542.8 l 3612.2,-2085.5 c 55.8,-32.2 87.9,-92.3 83.8,-156.7 l -0.1,-1.1 c -0.9,-13 -3.3,-26 -7.2,-38.5 l 7.2,-2.2 v -30.3 c -15.4,-31.5 -40.2,-59.3 -74.3,-78.9 L 38673.4,3553.8 34031.8,873.898 c -32.5,-18.695 -66.8,-32.695 -102.1,-42.097 l -4.8,18.101 c -33.6,-8.898 -68.3,-13.402 -103,-13.402 v -18.797 0 M 32858.1,5817.1 c 296.8,82 619.1,123 941.4,123 227.7,0 455.4,-20.5 674.1,-61.4 -218.7,40.9 -446.4,61.4 -674.1,61.4 -322.2,0 -644.6,-41 -941.4,-123" style="fill:url(#linearGradient3700);fill-opacity:1;fill-rule:nonzero;stroke:none" id="path3702"/>
    </g>
  </g>
  <path d="m 33821.9,799 v 37.5 c 34.7,0 69.4,4.504 103,13.402 l 9.6,-36.199 C 33897.8,803.898 33859.9,799 33821.9,799 m -5215.7,3053.1 v -307.9 c 0,-60.9 31.4,-115.4 84.1,-145.7 L 33621.5,551.398 c 60.8,-35.093 130.1,-53.695 200.4,-53.695 70.3,0 139.6,18.602 200.5,53.695 L 38953.5,3398.5 c 55.8,32.2 87.9,92.2 83.8,156.5 l -0.1,1.2 v 274 l -7.2,2.2 c 3.9,12.5 6.3,25.5 7.2,38.5 l 0.1,1.1 c 4.1,64.4 -28,124.5 -83.8,156.7 l -4853,2801.8 c -171.8,99.3 -385.3,99.3 -557.1,0 L 28690.3,4028.7 c -55.8,-32.2 -87.8,-92.2 -83.8,-156.7 l 1.3,-19.9 h -1.6 M 33821.9,460.203 c -76.9,0 -152.7,20.297 -219.2,58.797 l -4931.2,2847 c -64.4,37.1 -102.8,103.8 -102.8,178.2 v 337 c 0,1.3 0,2.4 0,3.6 l 0.1,4.8 c 2.2,71 40.3,135.6 102.7,171.6 L 33524.6,6863 c 183.4,105.9 411.3,105.9 594.7,0 l 4853,-2801.8 c 68.1,-39.3 107.3,-112.5 102.4,-191 v -313.3 c 4.9,-78.5 -34.3,-151.6 -102.4,-190.9 L 34041.2,518.898 c -66.6,-38.398 -142.4,-58.695 -219.3,-58.695" style="fill:#bf89ef;fill-opacity:1;fill-rule:nonzero;stroke:none" id="path3704" transform="matrix(0.133333, 0, 0, -0.133333, 0, 5287.013184)"/>
  <g id="g3706" transform="matrix(0.133333, 0, 0, -0.133333, 0, 5287.013184)">
    <g id="g3708" clip-path="url(#clipPath3712)">
      <path d="m 35461.8,4681.2 c -38.1,25.9 -78.2,51.1 -120.5,75.5 -851.5,491.6 -2232.1,491.6 -3083.6,0 -42.3,-24.4 -82.4,-49.6 -120.5,-75.5 h -518.1 v -814.7 c 0,-322.1 212.9,-644.3 638.6,-890.1 851.5,-491.6 2232.1,-491.6 3083.6,0 425.8,245.8 638.6,568 638.6,890.1 v 814.7 h -518.1" style="fill:url(#linearGradient3718);fill-opacity:1;fill-rule:nonzero;stroke:none" id="path3720"/>
    </g>
  </g>
  <g id="g3722" transform="matrix(0.133333, 0, 0, -0.133333, 0, 5287.013184)">
    <g id="g3724" clip-path="url(#clipPath3728)">
      <path d="m 33799.5,3422.3 c -558,0 -1116,122.9 -1541.8,368.8 -4.5,2.6 -9.1,5.2 -13.6,7.9 4.5,-2.6 9,-5.3 13.6,-7.9 v 1780.2 0 c 179.9,103.9 383.3,185.8 600.4,245.8 296.8,82 619.2,123 941.4,123 227.7,0 455.4,-20.5 674.1,-61.4 317.3,-59.4 615.7,-161.8 867.7,-307.4 v 0 c 851.5,-491.6 851.5,-1288.6 0,-1780.2 -425.7,-245.9 -983.8,-368.8 -1541.8,-368.8 M 32244,3799.1 c -0.8,0.4 -1.7,0.9 -2.4,1.4 0.7,-0.5 1.6,-1 2.4,-1.4 m -2.9,1.6 c -0.7,0.5 -1.3,0.9 -2.1,1.3 0.7,-0.4 1.4,-0.9 2.1,-1.3 m -2.7,1.6 c -0.6,0.4 -1.3,0.8 -1.9,1.2 0.7,-0.4 1.3,-0.8 1.9,-1.2 m -2.7,1.6 c -0.5,0.4 -1,0.7 -1.6,1 0.5,-0.3 1.1,-0.6 1.6,-1 m -2.6,1.6 c -0.2,0.1 -0.4,0.3 -0.6,0.4 0.2,-0.1 0.4,-0.3 0.6,-0.4 m -552.4,577.7 v 0.2 c 0,-0.1 0,-0.1 0,-0.2 m -0.6,1.6 c -0.1,0.2 -0.2,0.4 -0.3,0.6 0.1,-0.2 0.2,-0.4 0.3,-0.6 m -0.7,1.7 c -0.2,0.3 -0.3,0.6 -0.4,0.9 0.1,-0.3 0.2,-0.6 0.4,-0.9 m -0.8,1.8 c -0.2,0.4 -0.3,0.8 -0.5,1.2 0.2,-0.4 0.3,-0.8 0.5,-1.2 m -0.8,1.9 c -0.2,0.5 -0.3,0.9 -0.5,1.4 0.2,-0.4 0.3,-0.9 0.5,-1.4 m -0.7,1.9 c -0.3,0.6 -0.5,1.2 -0.8,1.8 0.3,-0.6 0.5,-1.2 0.8,-1.8 m -0.8,1.9 c -51,126.1 -67.9,255.8 -50.7,384.4 v -0.2 0 c -17.1,-128.5 -0.2,-258.1 50.7,-384.2" style="fill:url(#linearGradient3734);fill-opacity:1;fill-rule:nonzero;stroke:none" id="path3736"/>
    </g>
  </g>
  <path d="M 32257.7,5571.3 V 3791.1 c -468.6,270.5 -679.2,633.4 -632.1,987.1 38.4,289.2 249.2,572 632.1,793.1" style="fill:#586699;fill-opacity:1;fill-rule:nonzero;stroke:none" id="path3738" transform="matrix(0.133333, 0, 0, -0.133333, 0, 5287.013184)"/>
  <path d="m 32257.7,6131.6 v 1716 c -382.9,221.1 -593.7,504 -632.1,793.1 -8.6,64.5 -8.6,129.4 0,193.9 38.3,289.2 249.1,572.1 632.1,793.3 425.7,245.8 983.8,368.7 1541.8,368.7 558,0 1116.1,-122.9 1541.8,-368.7 V 6157.5 l -1222,705.5 c -91.7,53 -194.5,79.4 -297.3,79.4 -102.9,0 -205.7,-26.4 -297.4,-79.4 l -1266.9,-731.4" style="fill:#adbed3;fill-opacity:1;fill-rule:nonzero;stroke:none" id="path3740" transform="matrix(0.133333, 0, 0, -0.133333, 0, 5287.013184)"/>
  <g id="g3742" transform="matrix(0.133333, 0, 0, -0.133333, 0, 5287.013184)">
    <g id="g3744" clip-path="url(#clipPath3748)">
      <path d="m 32257.7,5571.3 v 517 l 1285.7,742.2 c 85.9,49.7 182.2,74.5 278.5,74.5 96.4,0 192.7,-24.8 278.6,-74.5 l 1240.8,-716.3 v -542.9 c 0,0.1 0,0.1 0,0.1 -252.1,145.5 -550.4,247.9 -867.7,307.3 -218.7,40.9 -446.4,61.4 -674.1,61.4 -322.3,0 -644.6,-41 -941.4,-123 -217.1,-60 -420.5,-141.9 -600.4,-245.7 v 0" style="fill:url(#linearGradient3754);fill-opacity:1;fill-rule:nonzero;stroke:none" id="path3756"/>
    </g>
  </g>
  <path d="m 32257.7,6088.3 v 43.3 l 1266.9,731.4 c 91.7,53 194.5,79.4 297.4,79.4 102.8,0 205.6,-26.4 297.3,-79.4 l 1222,-705.5 v -43.3 l -1240.8,716.3 c -85.9,49.7 -182.2,74.5 -278.6,74.5 -96.3,0 -192.6,-24.8 -278.5,-74.5 l -1285.7,-742.2" style="fill:#8d83cb;fill-opacity:1;fill-rule:nonzero;stroke:none" id="path3758" transform="matrix(0.133333, 0, 0, -0.133333, 0, 5287.013184)"/>
  <g id="g3760" transform="matrix(0.133333, 0, 0, -0.133333, 0, 5287.013184)">
    <g id="g3762" clip-path="url(#clipPath3766)">
      <path d="m 35341.3,5571.3 c -252,145.6 -550.4,248 -867.7,307.4 317.3,-59.4 615.6,-161.8 867.7,-307.3 v 0 -0.1 m -3083.6,0 v 0 c 0,0.1 0,0.1 0,0.1 179.9,103.8 383.3,185.7 600.4,245.7 -217.1,-60 -420.5,-141.9 -600.4,-245.8" style="fill:url(#linearGradient3772);fill-opacity:1;fill-rule:nonzero;stroke:none" id="path3774"/>
    </g>
  </g>
  <path d="m 31625.6,5766.6 v 2874.1 c 38.4,-289.1 249.2,-572 632.1,-793.1 v -1716 l -632.1,-365" style="fill:#a8b9cc;fill-opacity:1;fill-rule:nonzero;stroke:none" id="path3776" transform="matrix(0.133333, 0, 0, -0.133333, 0, 5287.013184)"/>
  <g id="g3778" transform="matrix(0.133333, 0, 0, -0.133333, 0, 5287.013184)">
    <g id="g3780" clip-path="url(#clipPath3784)">
      <path d="m 31625.6,4778.2 v 945.1 l 632.1,365 v -517 c -145.1,-83.7 -265.4,-176.3 -361.1,-274.8 0,-0.1 -0.1,-0.1 -0.1,-0.1 -0.4,-0.5 -0.8,-0.9 -1.2,-1.3 -0.2,-0.2 -0.4,-0.4 -0.6,-0.6 -0.3,-0.3 -0.6,-0.6 -0.8,-0.9 -0.4,-0.3 -0.7,-0.7 -1,-1 -0.2,-0.2 -0.3,-0.3 -0.5,-0.5 -136.5,-141.8 -221.9,-295.7 -256.1,-452.5 0,-0.1 0,-0.2 0,-0.2 -0.1,-0.4 -0.2,-0.7 -0.3,-1.1 -4.3,-19.9 -7.8,-39.9 -10.4,-59.9" style="fill:url(#linearGradient3790);fill-opacity:1;fill-rule:nonzero;stroke:none" id="path3792"/>
    </g>
  </g>
  <path d="m 31625.6,5723.3 v 43.3 l 632.1,365 v -43.3 l -632.1,-365" style="fill:#887ec4;fill-opacity:1;fill-rule:nonzero;stroke:none" id="path3794" transform="matrix(0.133333, 0, 0, -0.133333, 0, 5287.013184)"/>
  <g id="g3796" transform="matrix(0.133333, 0, 0, -0.133333, 0, 5287.013184)">
    <g id="g3798" clip-path="url(#clipPath3802)">
      <path d="m 31625.6,4778.2 v 0 c 2.6,20.2 6.1,40.2 10.4,60.1 -4.3,-20 -7.8,-40 -10.4,-60.1 m 10.7,61.2 c 0,0 0,0.1 0,0.2 0,-0.1 0,-0.2 0,-0.2 m 256.1,452.7 c 0.2,0.2 0.3,0.3 0.5,0.5 -0.2,-0.2 -0.3,-0.3 -0.5,-0.5 m 1.5,1.5 c 0.2,0.3 0.5,0.6 0.8,0.9 -0.3,-0.3 -0.6,-0.6 -0.8,-0.9 m 1.4,1.5 c 0.4,0.4 0.8,0.8 1.2,1.3 -0.4,-0.5 -0.8,-0.9 -1.2,-1.3 m 1.3,1.4 c 95.7,98.5 216,191.1 361.1,274.9 v -0.1 0 0 c -145.1,-83.7 -265.4,-176.4 -361.1,-274.8" style="fill:url(#linearGradient3808);fill-opacity:1;fill-rule:nonzero;stroke:none" id="path3810"/>
    </g>
  </g>
  <path d="m 31625.6,4778.2 v 0 c 2.6,20.1 6.1,40.1 10.4,60.1 0.1,0.4 0.2,0.7 0.3,1.1 0,0 0,0.1 0,0.2 34.2,156.8 119.6,310.7 256.1,452.5 0.2,0.2 0.3,0.3 0.5,0.5 0.3,0.3 0.6,0.7 1,1 0.2,0.3 0.5,0.6 0.8,0.9 0.2,0.2 0.4,0.4 0.6,0.6 0.4,0.4 0.8,0.8 1.2,1.3 0,0 0.1,0 0.1,0.1 95.7,98.4 216,191.1 361.1,274.8 v 0 c -382.9,-221.1 -593.7,-503.9 -632.1,-793.1" style="fill:#556d99;fill-opacity:1;fill-rule:nonzero;stroke:none" id="path3812" transform="matrix(0.133333, 0, 0, -0.133333, 0, 5287.013184)"/>
  <path d="m 35901.1,6530.3 c -13,0 -23.5,10.6 -23.5,23.6 v 1607.5 c 0,13 10.5,23.5 23.5,23.5 13,0 23.6,-10.5 23.6,-23.5 V 6553.9 c 0,-13 -10.6,-23.6 -23.6,-23.6" style="fill:#e9caff;fill-opacity:1;fill-rule:nonzero;stroke:none" id="path3814" transform="matrix(0.133333, 0, 0, -0.133333, 0, 5287.013184)"/>
  <path d="m 35901.1,4993.8 c -13,0 -23.5,10.5 -23.5,23.5 v 1116.3 c 0,12.9 10.5,23.5 23.5,23.5 13,0 23.6,-10.6 23.6,-23.5 V 5017.3 c 0,-13 -10.6,-23.5 -23.6,-23.5" style="fill:#e9caff;fill-opacity:1;fill-rule:nonzero;stroke:none" id="path3816" transform="matrix(0.133333, 0, 0, -0.133333, 0, 5287.013184)"/>
  <path d="m 35128.1,4993.8 c -13,0 -23.6,10.5 -23.6,23.5 v 1432.9 c 0,13 10.6,23.5 23.6,23.5 12.9,0 23.5,-10.5 23.5,-23.5 V 5017.3 c 0,-13 -10.6,-23.5 -23.5,-23.5" style="fill:#e9caff;fill-opacity:1;fill-rule:nonzero;stroke:none" id="path3818" transform="matrix(0.133333, 0, 0, -0.133333, 0, 5287.013184)"/>
  <path d="m 35128.1,3659.3 c -13,0 -23.6,10.6 -23.6,23.6 v 659.8 c 0,13 10.6,23.5 23.6,23.5 12.9,0 23.5,-10.5 23.5,-23.5 v -659.8 c 0,-13 -10.6,-23.6 -23.5,-23.6" style="fill:#e9caff;fill-opacity:1;fill-rule:nonzero;stroke:none" id="path3820" transform="matrix(0.133333, 0, 0, -0.133333, 0, 5287.013184)"/>
  <path d="m 33095.5,5190 c -12.9,0 -23.5,10.6 -23.5,23.6 v 375 c 0,13 10.6,23.6 23.5,23.6 13,0 23.6,-10.6 23.6,-23.6 v -375 c 0,-13 -10.6,-23.6 -23.6,-23.6" style="fill:#bbe6ea;fill-opacity:1;fill-rule:nonzero;stroke:none" id="path3822" transform="matrix(0.133333, 0, 0, -0.133333, 0, 5287.013184)"/>
  <path d="m 33095.5,3466 c -12.9,0 -23.5,10.6 -23.5,23.6 v 1242.1 c 0,13 10.6,23.5 23.5,23.5 13,0 23.6,-10.5 23.6,-23.5 V 3489.6 c 0,-13 -10.6,-23.6 -23.6,-23.6" style="fill:#e9caff;fill-opacity:1;fill-rule:nonzero;stroke:none" id="path3824" transform="matrix(0.133333, 0, 0, -0.133333, 0, 5287.013184)"/>
  <path d="m 34604.3,7059.5 43.6,62.9 -222.1,126.2 c -4.2,2.4 -8.3,4.8 -12.6,7.1 l -0.1,0.1 v 0 c -195.4,106.7 -480.1,80.6 -797.1,-102.4 -589.2,-340.2 -1066.8,-1093.6 -1066.8,-1682.7 0,-247.3 84.1,-426.4 225.3,-525.8 v 0 h 0.1 c 21,-14.8 43.2,-27.8 66.6,-39 l 192.9,-112.8 42.6,61.5 c 158.2,-1.6 342.5,51.6 539.3,165.2 589.2,340.1 1066.8,1093.5 1066.8,1682.7 0,142.3 -27.9,262.1 -78.5,357" style="fill:#ff9d4d;fill-opacity:1;fill-rule:nonzero;stroke:none" id="path3826" transform="matrix(0.133333, 0, 0, -0.133333, 0, 5287.013184)"/>
  <path d="m 34148.6,7318.6 c -72.8,0 -150.9,-11.4 -233.2,-35 -7.5,-2.1 -15,-4.3 -22.6,-6.7 v 0 c -79.1,-24.4 -161.7,-59.8 -246.9,-106.7 -5.8,-3.1 -11.6,-6.4 -17.4,-9.7 -4.2,-2.3 -8.3,-4.7 -12.5,-7.1 -64.4,-37.2 -127.4,-79.3 -188.7,-125.6 -4.9,-3.7 -9.8,-7.5 -14.7,-11.2 -59.6,-46 -117.5,-95.8 -173.1,-149 -4.3,-4.1 -8.6,-8.2 -12.9,-12.3 -52.7,-51.1 -103.3,-105.1 -151.5,-161.4 -3.8,-4.3 -7.6,-8.7 -11.3,-13.2 -46.8,-55.4 -91.3,-113 -133,-172.1 -3.3,-4.6 -6.7,-9.4 -9.9,-14 -41.4,-59.4 -79.9,-120.4 -115.4,-182.3 -2.9,-4.9 -5.7,-9.9 -8.4,-14.8 -35.9,-63.5 -68.4,-128 -97.2,-192.8 -2.3,-5.3 -4.7,-10.5 -6.9,-15.8 -29.7,-68.2 -55.3,-136.7 -76.3,-204.8 -1.7,-5.6 -3.4,-11.2 -5,-16.9 -22.2,-74.3 -38.8,-148.1 -49.3,-220.4 -0.9,-6.1 -1.7,-12.2 -2.5,-18.3 -7.1,-53.6 -10.7,-106.3 -10.7,-157.8 0,-30 1.2,-59 3.7,-87 0.6,-7 1.2,-14 2,-20.9 21.1,-192 99.9,-333.5 219.7,-417.9 v 0 c 21,-14.8 43.2,-27.8 66.6,-39 l 192.9,-112.8 42.6,61.5 c 2.2,0 4.4,0 6.7,0 156.7,0 338.6,53.2 532.6,165.2 589.1,340.1 1066.8,1093.5 1066.8,1682.7 0,142.3 -27.9,262.1 -78.5,357 l 43.6,62.9 -222.1,126.2 c -4.1,2.4 -8.3,4.8 -12.6,7.1 l -0.1,0.1 c -75.8,41.4 -165.1,62.8 -264.5,62.8 z m 0,-17.1 c 96.3,0 182.5,-20.4 256.3,-60.7 l 0.9,-0.5 c 3.8,-2.1 7.6,-4.3 11.5,-6.6 l 205.9,-116.9 -32.9,-47.6 -6,-8.5 4.9,-9.2 c 50.8,-95.2 76.5,-212.7 76.5,-349 0,-582.8 -474.7,-1331 -1058.3,-1667.9 -184.6,-106.6 -365.8,-162.9 -524,-162.9 -2.2,0 -4.4,0 -6.6,0 l -9,0.1 -5.2,-7.5 -33.6,-48.4 -179.2,104.8 -0.6,0.3 -0.6,0.3 c -22.5,10.8 -44.1,23.5 -64.1,37.6 l -1.1,0.7 c -118.5,83.9 -191.6,223.9 -211.5,405.1 -0.8,6.8 -1.4,13.6 -2,20.5 -2.4,27.4 -3.6,56.1 -3.6,85.5 0,50 3.5,102.4 10.6,155.7 0.7,6 1.6,12 2.4,18 10.3,70.4 26.7,143.7 48.8,218 1.6,5.6 3.3,11.1 5,16.6 20.5,66.7 46,135.1 75.6,203.2 2.2,5.2 4.5,10.3 6.9,15.5 28.4,64.1 60.8,128.4 96.4,191.4 2.7,4.9 5.5,9.8 8.3,14.7 35.2,61.4 73.7,122.3 114.6,181 3.2,4.6 6.5,9.3 9.9,14 41.5,58.8 85.9,116.3 132.1,170.9 3.7,4.4 7.4,8.8 11.2,13.1 47.9,56 98.5,109.9 150.4,160.2 4.3,4.1 8.5,8.2 12.8,12.3 55.4,52.9 113.2,102.6 171.7,147.7 4.8,3.7 9.7,7.5 14.6,11.2 61.3,46.3 124.2,88.2 187.2,124.5 4,2.3 8,4.6 12.2,6.9 5.7,3.3 11.4,6.5 17.1,9.7 81.9,45 163.1,80.1 241.3,104.5 v 0 l 2.4,0.8 c 7.5,2.3 14.9,4.5 22.3,6.6 79.6,22.8 156.5,34.3 228.5,34.3" style="fill:#ffe840;fill-opacity:1;fill-rule:nonzero;stroke:none" id="path3828" transform="matrix(0.133333, 0, 0, -0.133333, 0, 5287.013184)"/>
  <path d="m 34899.1,6577.7 c 0,-589.2 -477.6,-1342.6 -1066.8,-1682.7 -589.2,-340.2 -1066.8,-138.3 -1066.8,450.8 0,589.2 477.6,1342.6 1066.8,1682.8 589.2,340.1 1066.8,138.3 1066.8,-450.9" style="fill:#ffd071;fill-opacity:1;fill-rule:nonzero;stroke:none" id="path3830" transform="matrix(0.133333, 0, 0, -0.133333, 0, 5287.013184)"/>
  <path d="m 34899.1,6577.7 c 0,-589.2 -477.6,-1342.6 -1066.8,-1682.7 -589.2,-340.2 -1066.8,-138.3 -1066.8,450.8 0,589.2 477.6,1342.6 1066.8,1682.8 589.2,340.1 1066.8,138.3 1066.8,-450.9" style="fill:#ffe840;fill-opacity:1;fill-rule:nonzero;stroke:none" id="path3832" transform="matrix(0.133333, 0, 0, -0.133333, 0, 5287.013184)"/>
  <path d="m 33859.6,6842.5 c -485.6,-280.4 -880.7,-903.6 -880.7,-1389.3 0,-485.6 395.1,-652.6 880.7,-372.2 485.7,280.4 880.8,903.6 880.8,1389.3 0,485.6 -395.1,652.6 -880.8,372.2 z m 0,-1812.8 c -248.9,-143.8 -483,-181.9 -659,-107.5 -176.1,74.4 -273,252.5 -273,501.4 0,249 96.9,539 273,816.7 176,277.7 410.1,509.8 659,653.5 249,143.8 483.1,182 659.1,107.5 176.1,-74.4 273,-252.4 273,-501.4 0,-249 -96.9,-539 -273,-816.7 -176,-277.7 -410.1,-509.8 -659.1,-653.5" style="fill:#ff9d4d;fill-opacity:1;fill-rule:nonzero;stroke:none" id="path3834" transform="matrix(0.133333, 0, 0, -0.133333, 0, 5287.013184)"/>
  <path d="m 33990.2,6119.3 v -142 c -3,-1.5 -6,-3.1 -9.1,-4.9 l -78,-45 v 132.8 l 43.9,25.3 c 15.7,9.1 30.1,20.3 43.2,33.8" style="fill:#d1975d;fill-opacity:1;fill-rule:nonzero;stroke:none" id="path3836" transform="matrix(0.133333, 0, 0, -0.133333, 0, 5287.013184)"/>
  <path d="m 34073.6,5866.3 c -5.6,-17.1 -13.4,-33.5 -23.1,-49.2 -9.7,-15.8 -21.3,-30.4 -34.7,-43.8 -8.2,-8.2 -16.7,-15.6 -25.6,-22.1 -5.8,-4.1 -11.6,-8 -17.6,-11.4 l -69.5,-40.1 -180.2,-104.1 v 227.8 l 74.3,42.9 183.9,106.1 c 3.1,1.8 6.1,3.4 9.1,4.9 11.1,5.4 21.5,8.5 31.1,9.2 12.1,1 22.7,-1.3 31.6,-6.7 9,-5.4 16,-13.7 21.4,-24.8 5.2,-11.2 7.9,-24.5 7.9,-39.9 0,-15.4 -2.9,-31.7 -8.6,-48.8 z m -350.7,307.8 231.4,133.6 c 12.9,7.5 24.9,12.1 35.9,13.9 11.7,1.9 22.2,0.5 31.7,-4.1 18.2,-8.9 27.4,-30 27.4,-63.3 0,-34.1 -10,-66.6 -29.9,-97.6 -8.9,-13.9 -18.6,-26.3 -29.2,-37.3 -13.1,-13.5 -27.5,-24.7 -43.2,-33.8 l -149.8,-86.4 -74.3,-43 z m 485.3,-76 c -28.8,21.1 -68,24.7 -117.5,10.7 40.6,41.3 71.4,86.5 92.5,135.6 21.2,49.2 31.7,94.8 31.7,137.1 0,26.8 -4.7,50.6 -14,71.6 -9.3,21 -22.5,37 -39.6,47.8 -17,10.9 -37.7,15.8 -62.1,14.7 -24.4,-1.1 -51.5,-10.3 -81.6,-27.6 l -27.4,-15.9 v 140.3 l -87.1,-50.3 v -140.2 l -105.9,-61.1 V 6501 l -87,-50.2 v -140.3 l -155.4,-89.7 v -864.7 l 155.4,89.7 v -145.6 l 87,50.3 v 145.6 l 105.9,61.1 v -145.6 l 87.1,50.2 v 146 c 31.6,19.5 61.7,41.6 90.1,66.3 33.7,29.2 63.4,60.5 88.9,94 25.6,33.4 45.7,68.2 60.3,104.2 14.7,36 22,72.3 22,108.9 0,56.8 -14.5,95.8 -43.3,116.9" style="fill:#ff9d4d;fill-opacity:1;fill-rule:nonzero;stroke:none" id="path3838" transform="matrix(0.133333, 0, 0, -0.133333, 0, 5287.013184)"/>
  <path d="m 33938.6,7001.2 -8.5,-14.8 -301.6,174.1 c 5.8,3.3 11.6,6.6 17.4,9.7 l 292.7,-169" style="fill:#ffe840;fill-opacity:1;fill-rule:nonzero;stroke:none" id="path3840" transform="matrix(0.133333, 0, 0, -0.133333, 0, 5287.013184)"/>
  <path d="m 33672.1,6886.5 -8.5,-14.9 -251,145 c 4.9,3.7 9.8,7.5 14.7,11.2 l 244.8,-141.3" style="fill:#ffe840;fill-opacity:1;fill-rule:nonzero;stroke:none" id="path3842" transform="matrix(0.133333, 0, 0, -0.133333, 0, 5287.013184)"/>
  <path d="m 33486.6,6724.9 -8.5,-14.8 -251.5,145.2 c 4.3,4.1 8.6,8.2 12.9,12.3 l 247.1,-142.7" style="fill:#ffe840;fill-opacity:1;fill-rule:nonzero;stroke:none" id="path3844" transform="matrix(0.133333, 0, 0, -0.133333, 0, 5287.013184)"/>
  <path d="m 33301.1,6563.4 -8.6,-14.8 -228.7,132.1 c 3.7,4.5 7.5,8.9 11.3,13.2 l 226,-130.5" style="fill:#ffe840;fill-opacity:1;fill-rule:nonzero;stroke:none" id="path3846" transform="matrix(0.133333, 0, 0, -0.133333, 0, 5287.013184)"/>
  <path d="m 33196.3,6355.3 -8.6,-14.8 -266.8,154.1 c 3.2,4.6 6.6,9.4 9.9,14 l 265.5,-153.3" style="fill:#ffe840;fill-opacity:1;fill-rule:nonzero;stroke:none" id="path3848" transform="matrix(0.133333, 0, 0, -0.133333, 0, 5287.013184)"/>
  <path d="m 33129,6124.2 -8.6,-14.8 -323.3,188.1 c 2.7,4.9 5.5,9.9 8.4,14.8 l 323.5,-188.1" style="fill:#ffe840;fill-opacity:1;fill-rule:nonzero;stroke:none" id="path3850" transform="matrix(0.133333, 0, 0, -0.133333, 0, 5287.013184)"/>
  <path d="m 32997.3,5933 -8.5,-14.8 -295.8,170.7 c 2.2,5.3 4.6,10.5 6.9,15.8 l 297.4,-171.7" style="fill:#ffe840;fill-opacity:1;fill-rule:nonzero;stroke:none" id="path3852" transform="matrix(0.133333, 0, 0, -0.133333, 0, 5287.013184)"/>
  <path d="m 32947.3,5693.2 -8.6,-14.8 -327,188.8 c 1.6,5.7 3.3,11.3 5,16.9 l 330.6,-190.9" style="fill:#ffe840;fill-opacity:1;fill-rule:nonzero;stroke:none" id="path3854" transform="matrix(0.133333, 0, 0, -0.133333, 0, 5287.013184)"/>
  <path d="m 32862.7,5473.4 -8.5,-14.8 -294.3,169.9 c 0.8,6.1 1.6,12.2 2.5,18.3 l 300.3,-173.4" style="fill:#ffe840;fill-opacity:1;fill-rule:nonzero;stroke:none" id="path3856" transform="matrix(0.133333, 0, 0, -0.133333, 0, 5287.013184)"/>
  <path d="m 32875.3,5197.5 -8.5,-14.8 -311.9,180.1 c -0.8,6.9 -1.4,13.9 -2,20.9 l 322.4,-186.2" style="fill:#ffe840;fill-opacity:1;fill-rule:nonzero;stroke:none" id="path3858" transform="matrix(0.133333, 0, 0, -0.133333, 0, 5287.013184)"/>
  <path d="m 34194.8,7122.3 -8.5,-14.8 -293.5,169.4 c 7.6,2.4 15.1,4.6 22.6,6.7 l 279.4,-161.3" style="fill:#ffe840;fill-opacity:1;fill-rule:nonzero;stroke:none" id="path3860" transform="matrix(0.133333, 0, 0, -0.133333, 0, 5287.013184)"/>
</svg>