<?xml version="1.0" encoding="utf-8"?>
<svg viewBox="4184.28 2903.35 1025.738 689.925" width="1025.738" height="689.925" xmlns="http://www.w3.org/2000/svg">
  <defs>
    <clipPath clipPathUnits="userSpaceOnUse" id="clipPath2754">
      <path d="m 36254.7,13281.3 68.8,496 14.1,102.2 H 35846 l 96.1,-140.8 0.3,-0.4 -2387.3,1384.3 -1164.2,675.2 c -65.8,38 -148,-9.3 -148,-85.1 v -46.6 -255.8 c 0,-61.9 33,-119 86.4,-150 l 3482.2,-2019.2 144.7,-85.7 c 85.7,-50.4 191.7,-51.3 278,-2.1 l 77.7,44.5 -213.3,109.1 v 202.9 z" id="path2752"/>
    </clipPath>
    <linearGradient x1="0" y1="0" x2="1" y2="0" gradientUnits="userSpaceOnUse" gradientTransform="matrix(4094.65,0,0,-4094.65,32242.9,14464.1)" spreadMethod="pad" id="linearGradient2760">
      <stop style="stop-opacity:1;stop-color:#483ca6" offset="0" id="stop2756"/>
      <stop style="stop-opacity:1;stop-color:#59278f" offset="1" id="stop2758"/>
    </linearGradient>
    <clipPath clipPathUnits="userSpaceOnUse" id="clipPath2770">
      <path d="m 38411.9,14829.3 v -86.8 l -197.4,126.9 -1815.4,-1048.4 -75.6,-43.7 -47.9,-27.6 -32.9,-19 c -88.9,-51.3 -198.4,-51.2 -287.2,0.3 l -13.4,7.7 -1954,1132.9 -125.8,72.9 -307.2,178.1 -1164.2,675.2 c -65.8,38 -148,-9.3 -148,-85.1 v 43.5 c 0,80.5 43.1,154.9 113.1,195 l 115.3,66 1805.9,1042.9 c 170.1,98.3 379.2,99.4 550.2,3.2 2.4,-1.1 4.6,-2.4 6.9,-3.8 l 89,-51.7 2089.1,-1212.3 112.4,-65.2 1130.3,-656 c 4.9,-2.7 9.4,-5.9 13.6,-9.3 l 13.6,-8.1 c 80.4,-47.6 129.6,-134.1 129.6,-227.6 z" id="path2768"/>
    </clipPath>
    <linearGradient x1="0" y1="0" x2="1" y2="0" gradientUnits="userSpaceOnUse" gradientTransform="matrix(6168.99,0,0,-6168.99,32242.9,15413.5)" spreadMethod="pad" id="linearGradient2776">
      <stop style="stop-opacity:1;stop-color:#6a5ebf" offset="0" id="stop2772"/>
      <stop style="stop-opacity:1;stop-color:#6e3aa5" offset="1" id="stop2774"/>
    </linearGradient>
    <clipPath clipPathUnits="userSpaceOnUse" id="clipPath2786">
      <path d="m 38749,14604.7 -2498.2,-1442.2 c -67.7,-39.1 -152.2,9.7 -152.2,87.8 v 336.2 c 0,37.9 20.2,73 53.1,91.9 l 2548.8,1471.5 c 70,40.4 157.4,-10.1 157.4,-90.9 v -265.6 c 0,-77.8 -41.5,-149.7 -108.9,-188.7 z" id="path2784"/>
    </clipPath>
    <linearGradient x1="0" y1="0" x2="1" y2="0" gradientUnits="userSpaceOnUse" gradientTransform="matrix(2759.32,0,0,-2759.32,36098.6,14156.4)" spreadMethod="pad" id="linearGradient2792">
      <stop style="stop-opacity:1;stop-color:#2e256b" offset="0" id="stop2788"/>
      <stop style="stop-opacity:1;stop-color:#5a3087" offset="1" id="stop2790"/>
    </linearGradient>
    <clipPath clipPathUnits="userSpaceOnUse" id="clipPath2804">
      <path d="m 37124.8,15730.3 -725.7,-1909.3 -75.6,-43.7 -47.9,-27.6 c -8,13.8 -9.9,31 -3.7,47.3 l 713.3,1877 -2997.1,-802.4 -125.8,72.9 962.7,2114.1 c 0.8,1.6 1.6,3.1 2.4,4.7 2.4,-1.1 4.6,-2.4 6.9,-3.8 l 89,-51.7 -918.9,-2017.4 3008,805.1 z" id="path2802"/>
    </clipPath>
    <linearGradient x1="0" y1="0" x2="1" y2="0" gradientUnits="userSpaceOnUse" gradientTransform="matrix(3262.58,0,0,-3262.58,33862.2,15406.5)" spreadMethod="pad" id="linearGradient2810">
      <stop style="stop-opacity:1;stop-color:#2e256b" offset="0" id="stop2806"/>
      <stop style="stop-opacity:1;stop-color:#5a3087" offset="1" id="stop2808"/>
    </linearGradient>
  </defs>
  <path d="m 38857.9,14793.4 -1139.6,115.2 -2705,1572.6 -1915.2,-1105.7 -855.2,86.4 94.2,-539.6 c 11.7,-67.2 52.5,-125.8 111.5,-160.1 L 35917,12745.7 c 97.6,-56.7 218,-56.9 315.8,-0.5 l 2288.8,1321.4 c 109.9,63.5 189.9,168.4 222.1,291.2 l 114.2,435.6" style="fill:#e3dfea;fill-opacity:1;fill-rule:nonzero;stroke:none" id="path2746" transform="matrix(0.133333, 0, 0, -0.133333, 0, 5287.013184)"/>
  <g id="g2748" transform="matrix(0.133333, 0, 0, -0.133333, 0, 5287.013184)">
    <g id="g2750" clip-path="url(#clipPath2754)">
      <path d="m 36254.7,13281.3 68.8,496 14.1,102.2 H 35846 l 96.1,-140.8 0.3,-0.4 -2387.3,1384.3 -1164.2,675.2 c -65.8,38 -148,-9.3 -148,-85.1 v -46.6 -255.8 c 0,-61.9 33,-119 86.4,-150 l 3482.2,-2019.2 144.7,-85.7 c 85.7,-50.4 191.7,-51.3 278,-2.1 l 77.7,44.5 -213.3,109.1 v 202.9 l 156.1,-228.5" style="fill:url(#linearGradient2760);fill-opacity:1;fill-rule:nonzero;stroke:none" id="path2762"/>
    </g>
  </g>
  <g id="g2764" transform="matrix(0.133333, 0, 0, -0.133333, 0, 5287.013184)">
    <g id="g2766" clip-path="url(#clipPath2770)">
      <path d="m 38411.9,14829.3 v -86.8 l -197.4,126.9 -1815.4,-1048.4 -75.6,-43.7 -47.9,-27.6 -32.9,-19 c -88.9,-51.3 -198.4,-51.2 -287.2,0.3 l -13.4,7.7 -1954,1132.9 -125.8,72.9 -307.2,178.1 -1164.2,675.2 c -65.8,38 -148,-9.3 -148,-85.1 v 43.5 c 0,80.5 43.1,154.9 113.1,195 l 115.3,66 1805.9,1042.9 c 170.1,98.3 379.2,99.4 550.2,3.2 2.4,-1.1 4.6,-2.4 6.9,-3.8 l 89,-51.7 2089.1,-1212.3 112.4,-65.2 1130.3,-656 c 4.9,-2.7 9.4,-5.9 13.6,-9.3 l 13.6,-8.1 c 80.4,-47.6 129.6,-134.1 129.6,-227.6" style="fill:url(#linearGradient2776);fill-opacity:1;fill-rule:nonzero;stroke:none" id="path2778"/>
    </g>
  </g>
  <g id="g2780" transform="matrix(0.133333, 0, 0, -0.133333, 0, 5287.013184)">
    <g id="g2782" clip-path="url(#clipPath2786)">
      <path d="m 38749,14604.7 -2498.2,-1442.2 c -67.7,-39.1 -152.2,9.7 -152.2,87.8 v 336.2 c 0,37.9 20.2,73 53.1,91.9 l 2548.8,1471.5 c 70,40.4 157.4,-10.1 157.4,-90.9 v -265.6 c 0,-77.8 -41.5,-149.7 -108.9,-188.7" style="fill:url(#linearGradient2792);fill-opacity:1;fill-rule:nonzero;stroke:none" id="path2794"/>
    </g>
  </g>
  <path d="m 34554.9,17118.6 c -93.5,0 -186.8,-24 -269.9,-72.1 l -1805.9,-1042.8 -115.4,-66.1 c -64.8,-37.2 -105.1,-106.7 -105.1,-181.4 v -345.9 c 0,-56.1 30.1,-108.4 78.6,-136.5 l 3482.2,-2019.2 144.8,-85.7 c 80.6,-47.5 181.1,-48.3 262.3,-2 l 12.2,7 c 1.4,0.8 2.2,1.1 3,1.5 l 1.3,0.6 2498.1,1442.3 c 62.4,36 101.2,103.1 101.2,175.1 v 265.6 c 0,32.3 -16.7,61.2 -44.7,77.4 -28,16.1 -61.3,16.1 -89.3,0 l -338.1,-195.2 -7.8,13.5 c -21.3,36.5 -51.8,67.3 -88,88.7 l -15.6,9.4 c -4.1,3.4 -7.7,5.9 -11.3,7.9 l -1243,721.3 -2179.3,1264.7 c -1.5,0.9 -3,1.8 -4.5,2.5 -82.3,46.3 -174.1,69.4 -265.8,69.4 z m 1542.2,-4017.1 c -51.5,0 -103,13.5 -148.8,40.5 l -144.7,85.6 -3482.1,2019.1 c -58.1,33.8 -94.2,96.4 -94.2,163.6 v 345.9 c 0,85.9 46.3,165.8 120.9,208.5 l 115.3,66.1 1805.9,1042.8 c 173.9,100.5 390.7,101.8 565.7,3.3 1.3,-0.6 3.5,-1.8 5.7,-3.1 l 90.4,-52.5 2089,-1212.3 112.5,-65.2 1130.2,-655.9 c 4.7,-2.7 9.5,-5.9 14.7,-10.1 l 12.7,-7.4 c 36.4,-21.6 67.6,-51.4 90.9,-86.8 l 311.5,179.8 c 37.7,21.8 82.8,21.9 120.5,0 37.8,-21.8 60.3,-60.8 60.3,-104.4 v -265.6 c 0,-83.1 -44.7,-160.6 -116.7,-202.2 l -2498.2,-1442.3 c -1.3,-0.7 -2.6,-1.3 -3.8,-1.9 l -1.2,-0.5 -11.6,-6.7 c -44.8,-25.6 -94.8,-38.3 -144.9,-38.3" style="fill:#bf89ef;fill-opacity:1;fill-rule:nonzero;stroke:none" id="path2796" transform="matrix(0.133333, 0, 0, -0.133333, 0, 5287.013184)"/>
  <g id="g2798" transform="matrix(0.133333, 0, 0, -0.133333, 0, 5287.013184)">
    <g id="g2800" clip-path="url(#clipPath2804)">
      <path d="m 37124.8,15730.3 -725.7,-1909.3 -75.6,-43.7 -47.9,-27.6 c -8,13.8 -9.9,31 -3.7,47.3 l 713.3,1877 -2997.1,-802.4 -125.8,72.9 962.7,2114.1 c 0.8,1.6 1.6,3.1 2.4,4.7 2.4,-1.1 4.6,-2.4 6.9,-3.8 l 89,-51.7 -918.9,-2017.4 3008,805.1 112.4,-65.2" style="fill:url(#linearGradient2810);fill-opacity:1;fill-rule:nonzero;stroke:none" id="path2812"/>
    </g>
  </g>
  <path d="m 35686.9,15803.2 c -33,-145.8 -146.5,-286.7 -340.6,-398.8 -467.6,-270.1 -1225.9,-270.1 -1693.5,0 -194.1,112.1 -307.6,253 -340.6,398.8 -46.5,205.6 67,420.9 340.6,578.9 467.6,270 1225.9,270 1693.5,0 273.7,-158 387.1,-373.3 340.6,-578.9" style="fill:#ff9d4d;fill-opacity:1;fill-rule:nonzero;stroke:none" id="path2814" transform="matrix(0.133333, 0, 0, -0.133333, 0, 5287.013184)"/>
  <path d="m 35686.9,15803.2 c -33,-145.8 -146.5,-286.7 -340.6,-398.8 -467.6,-270.1 -1225.9,-270.1 -1693.5,0 -194.1,112.1 -307.6,253 -340.6,398.8 32.9,145.9 146.5,286.9 340.6,399 467.6,269.9 1225.9,269.9 1693.5,0 194.1,-112.1 307.7,-253.1 340.6,-399" style="fill:#ffe840;fill-opacity:1;fill-rule:nonzero;stroke:none" id="path2816" transform="matrix(0.133333, 0, 0, -0.133333, 0, 5287.013184)"/>
  <path d="m 34548.6,15960.2 c -170.8,137.1 -468.7,279.2 -754.8,295.3 -93.4,5.3 -185.7,-14.8 -249.6,-54.5 l -48.9,-30.3 c -14.2,-8.9 -2.2,-23.2 18.6,-22.3 l 45.4,2.1 12.6,0.5 c 345.5,12 682.3,-81.8 884.3,-244.1 l 92.4,53.3" style="fill:#634d99;fill-opacity:1;fill-rule:nonzero;stroke:none" id="path2818" transform="matrix(0.133333, 0, 0, -0.133333, 0, 5287.013184)"/>
  <path d="m 34517.5,15970.6 c -266.6,69.4 -647.6,106.4 -909.4,37.9 -85.4,-22.4 -148,-66.5 -169,-119.3 l -16,-40.4 c -4.7,-11.8 18.1,-20.7 35.4,-13.9 l 37.4,14.9 10.6,4 c 288.7,110.2 661.7,126.1 977.2,44 l 33.8,72.8" style="fill:#634d99;fill-opacity:1;fill-rule:nonzero;stroke:none" id="path2820" transform="matrix(0.133333, 0, 0, -0.133333, 0, 5287.013184)"/>
  <path d="m 34481.6,15970.6 c -291,-16.8 -653.1,-94.8 -820.3,-229.7 -54.7,-44.1 -70.7,-100.3 -43.1,-152.1 l 21.1,-39.6 c 6.2,-11.6 33.7,-12.7 42.6,-1.8 l 19.6,23.7 5.7,6.5 c 154.6,178.8 463.8,300.3 808.2,320.2 l -33.8,72.8" style="fill:#634d99;fill-opacity:1;fill-rule:nonzero;stroke:none" id="path2822" transform="matrix(0.133333, 0, 0, -0.133333, 0, 5287.013184)"/>
  <path d="m 34450.5,15960.2 c -237.4,-98.5 -483.5,-270.6 -511.5,-435.7 -9.1,-53.9 25.7,-107.3 94.4,-144.1 l 52.6,-28.3 c 15.3,-8.2 40.2,-1.3 38.5,10.8 l -3.6,26.2 -0.7,7.3 c -20.9,199.4 141.7,393.9 422.6,510.5 l -92.3,53.3" style="fill:#634d99;fill-opacity:1;fill-rule:nonzero;stroke:none" id="path2824" transform="matrix(0.133333, 0, 0, -0.133333, 0, 5287.013184)"/>
  <path d="m 34432.6,15942.3 c -120.3,-153.9 -184.4,-373.9 -65.6,-525 38.8,-49.4 115.1,-85.5 206.5,-97.6 l 70,-9.3 c 20.4,-2.7 35.9,10.5 24.1,20.5 l -25.8,21.6 -7,6.1 c -190.8,166.7 -218.4,382 -76.1,564.2 l -126.1,19.5" style="fill:#634d99;fill-opacity:1;fill-rule:nonzero;stroke:none" id="path2826" transform="matrix(0.133333, 0, 0, -0.133333, 0, 5287.013184)"/>
  <path d="m 34432.6,15921.6 c 29.1,-168.1 164.1,-377.1 397.8,-473.7 76.4,-31.5 173.7,-40.7 263.4,-24.8 l 68.7,12.2 c 19.9,3.5 22,19.4 3.1,24.6 l -41.1,11.3 -11.3,3.3 c -309.6,89.2 -520,267.8 -554.5,466.6 l -126.1,-19.5" style="fill:#634d99;fill-opacity:1;fill-rule:nonzero;stroke:none" id="path2828" transform="matrix(0.133333, 0, 0, -0.133333, 0, 5287.013184)"/>
  <path d="m 34450.5,15903.6 c 170.8,-137.1 468.7,-279.1 754.8,-295.3 93.3,-5.3 185.7,14.8 249.6,54.5 l 48.9,30.4 c 14.2,8.8 2.2,23.1 -18.6,22.2 l -45.4,-2.1 -12.6,-0.4 c -345.5,-12.1 -682.3,81.8 -884.4,244 l -92.3,-53.3" style="fill:#634d99;fill-opacity:1;fill-rule:nonzero;stroke:none" id="path2830" transform="matrix(0.133333, 0, 0, -0.133333, 0, 5287.013184)"/>
  <path d="m 34481.6,15893.3 c 266.6,-69.5 647.6,-106.5 909.4,-37.9 85.4,22.4 148,66.4 168.9,119.2 l 16.1,40.5 c 4.6,11.7 -18.2,20.7 -35.4,13.8 l -37.5,-14.9 -10.5,-4 c -288.8,-110.1 -661.7,-126.1 -977.2,-43.9 l -33.8,-72.8" style="fill:#634d99;fill-opacity:1;fill-rule:nonzero;stroke:none" id="path2832" transform="matrix(0.133333, 0, 0, -0.133333, 0, 5287.013184)"/>
  <path d="m 34517.5,15893.3 c 291,16.8 653,94.7 820.3,229.7 54.6,44 70.7,100.2 43.1,152 l -21.1,39.7 c -6.2,11.5 -33.7,12.7 -42.7,1.8 l -19.5,-23.7 -5.7,-6.6 c -154.6,-178.7 -463.8,-300.2 -808.2,-320.1 l 33.8,-72.8" style="fill:#634d99;fill-opacity:1;fill-rule:nonzero;stroke:none" id="path2834" transform="matrix(0.133333, 0, 0, -0.133333, 0, 5287.013184)"/>
  <path d="m 34548.6,15903.6 c 237.4,98.6 483.5,270.6 511.5,435.8 9.1,53.9 -25.7,107.2 -94.4,144.1 l -52.6,28.2 c -15.4,8.2 -40.2,1.3 -38.5,-10.7 l 3.6,-26.2 0.7,-7.3 c 20.9,-199.5 -141.7,-393.9 -422.7,-510.6 l 92.4,-53.3" style="fill:#634d99;fill-opacity:1;fill-rule:nonzero;stroke:none" id="path2836" transform="matrix(0.133333, 0, 0, -0.133333, 0, 5287.013184)"/>
  <path d="m 34566.5,15921.6 c 120.3,153.9 184.4,373.9 65.6,525 -38.8,49.3 -115.1,85.4 -206.5,97.5 l -70,9.3 c -20.4,2.7 -35.9,-10.5 -24.1,-20.4 l 25.8,-21.6 7,-6.1 c 190.8,-166.8 218.4,-382.1 76.1,-564.2 l 126.1,-19.5" style="fill:#634d99;fill-opacity:1;fill-rule:nonzero;stroke:none" id="path2838" transform="matrix(0.133333, 0, 0, -0.133333, 0, 5287.013184)"/>
  <path d="m 34566.5,15942.3 c -29.1,168 -164.1,377 -397.9,473.6 -76.3,31.5 -173.6,40.8 -263.3,24.9 l -68.7,-12.2 c -20,-3.6 -22,-19.4 -3.1,-24.6 l 41.1,-11.3 11.3,-3.3 c 309.6,-89.3 520,-267.8 554.5,-466.6 l 126.1,19.5" style="fill:#634d99;fill-opacity:1;fill-rule:nonzero;stroke:none" id="path2840" transform="matrix(0.133333, 0, 0, -0.133333, 0, 5287.013184)"/>
  <path d="m 34548.6,15960.2 c -170.8,137.1 -468.7,279.2 -754.8,295.3 -93.4,5.3 -185.7,-14.8 -249.6,-54.5 l -48.9,-30.3 c -14.2,-8.9 -2.2,-23.2 18.6,-22.3 l 45.4,2.1 12.6,0.5 c 345.5,12 682.3,-81.8 884.3,-244.1 l 92.4,53.3" style="fill:#634d99;fill-opacity:1;fill-rule:nonzero;stroke:none" id="path2842" transform="matrix(0.133333, 0, 0, -0.133333, 0, 5287.013184)"/>
  <path d="m 34615,16008.9 c 63.8,-36.8 63.8,-96.5 0,-133.3 -63.8,-36.8 -167.1,-36.8 -230.9,0 -63.8,36.8 -63.8,96.5 0,133.3 63.8,36.9 167.1,36.9 230.9,0" style="fill:#ffe840;fill-opacity:1;fill-rule:nonzero;stroke:none" id="path2844" transform="matrix(0.133333, 0, 0, -0.133333, 0, 5287.013184)"/>
  <path d="m 37164.8,15395.6 c 467.7,-270 467.7,-707.8 0,-977.8 -467.6,-270 -1225.9,-270 -1693.5,0 -467.7,270 -467.7,707.8 0,977.8 467.6,270 1225.9,270 1693.5,0" style="fill:#ff9d4d;fill-opacity:1;fill-rule:nonzero;stroke:none" id="path2846" transform="matrix(0.133333, 0, 0, -0.133333, 0, 5287.013184)"/>
  <path d="m 37505.4,14816.2 c -33,-145.8 -146.5,-286.7 -340.6,-398.8 -467.6,-270.1 -1225.9,-270.1 -1693.5,0 -194.1,112.1 -307.6,253 -340.6,398.8 32.9,145.9 146.5,286.9 340.6,399 467.6,270 1225.9,270 1693.5,0 194.1,-112.1 307.7,-253.1 340.6,-399" style="fill:#ffe840;fill-opacity:1;fill-rule:nonzero;stroke:none" id="path2848" transform="matrix(0.133333, 0, 0, -0.133333, 0, 5287.013184)"/>
  <path d="m 36367.1,14973.7 c -170.8,137.1 -468.7,279.1 -754.8,295.3 -93.4,5.3 -185.7,-14.8 -249.6,-54.5 l -48.9,-30.4 c -14.2,-8.8 -2.2,-23.2 18.6,-22.2 l 45.4,2.1 12.6,0.4 c 345.5,12.1 682.3,-81.8 884.3,-244 l 92.4,53.3" style="fill:#634d99;fill-opacity:1;fill-rule:nonzero;stroke:none" id="path2850" transform="matrix(0.133333, 0, 0, -0.133333, 0, 5287.013184)"/>
  <path d="m 36336,14984 c -266.6,69.5 -647.6,106.5 -909.4,37.9 -85.4,-22.4 -148,-66.4 -168.9,-119.2 l -16.1,-40.5 c -4.7,-11.7 18.1,-20.7 35.4,-13.8 l 37.4,14.9 10.6,4 c 288.8,110.1 661.7,126.1 977.2,43.9 l 33.8,72.8" style="fill:#634d99;fill-opacity:1;fill-rule:nonzero;stroke:none" id="path2852" transform="matrix(0.133333, 0, 0, -0.133333, 0, 5287.013184)"/>
  <path d="m 36300.1,14984 c -291,-16.8 -653,-94.7 -820.3,-229.7 -54.6,-44 -70.7,-100.2 -43.1,-152 l 21.1,-39.7 c 6.2,-11.5 33.7,-12.7 42.7,-1.8 l 19.5,23.7 5.7,6.6 c 154.6,178.7 463.8,300.2 808.2,320.1 l -33.8,72.8" style="fill:#634d99;fill-opacity:1;fill-rule:nonzero;stroke:none" id="path2854" transform="matrix(0.133333, 0, 0, -0.133333, 0, 5287.013184)"/>
  <path d="m 36269,14973.7 c -237.4,-98.6 -483.5,-270.6 -511.5,-435.8 -9.1,-53.9 25.7,-107.2 94.4,-144.1 l 52.6,-28.2 c 15.3,-8.2 40.2,-1.3 38.5,10.7 l -3.6,26.2 -0.7,7.3 c -20.9,199.5 141.7,393.9 422.7,510.6 l -92.4,53.3" style="fill:#634d99;fill-opacity:1;fill-rule:nonzero;stroke:none" id="path2856" transform="matrix(0.133333, 0, 0, -0.133333, 0, 5287.013184)"/>
  <path d="m 36251.1,14955.7 c -120.3,-153.9 -184.4,-373.9 -65.6,-525 38.8,-49.3 115.1,-85.4 206.5,-97.5 l 70,-9.3 c 20.4,-2.7 35.9,10.5 24.1,20.4 l -25.8,21.6 -7,6.2 c -190.8,166.6 -218.4,382 -76.1,564.1 l -126.1,19.5" style="fill:#634d99;fill-opacity:1;fill-rule:nonzero;stroke:none" id="path2858" transform="matrix(0.133333, 0, 0, -0.133333, 0, 5287.013184)"/>
  <path d="m 36251.1,14935 c 29.1,-168 164.1,-377 397.9,-473.6 76.3,-31.5 173.6,-40.8 263.3,-24.9 l 68.7,12.2 c 20,3.6 22,19.4 3.1,24.6 l -41.1,11.3 -11.3,3.3 c -309.6,89.3 -520,267.8 -554.5,466.6 l -126.1,-19.5" style="fill:#634d99;fill-opacity:1;fill-rule:nonzero;stroke:none" id="path2860" transform="matrix(0.133333, 0, 0, -0.133333, 0, 5287.013184)"/>
  <path d="m 36269,14917.1 c 170.8,-137.1 468.7,-279.2 754.8,-295.3 93.4,-5.3 185.7,14.8 249.6,54.5 l 48.9,30.3 c 14.2,8.9 2.2,23.2 -18.6,22.3 l -45.4,-2.1 -12.6,-0.5 c -345.5,-12 -682.3,81.8 -884.3,244.1 l -92.4,-53.3" style="fill:#634d99;fill-opacity:1;fill-rule:nonzero;stroke:none" id="path2862" transform="matrix(0.133333, 0, 0, -0.133333, 0, 5287.013184)"/>
  <path d="m 36300.1,14906.7 c 266.6,-69.4 647.6,-106.4 909.4,-37.9 85.4,22.4 148,66.5 168.9,119.3 l 16.1,40.4 c 4.6,11.8 -18.1,20.7 -35.4,13.9 l -37.4,-14.9 -10.6,-4 c -288.8,-110.2 -661.7,-126.1 -977.2,-44 l -33.8,-72.8" style="fill:#634d99;fill-opacity:1;fill-rule:nonzero;stroke:none" id="path2864" transform="matrix(0.133333, 0, 0, -0.133333, 0, 5287.013184)"/>
  <path d="m 36336,14906.7 c 291,16.8 653,94.8 820.3,229.7 54.6,44.1 70.7,100.3 43.1,152.1 l -21.1,39.6 c -6.2,11.5 -33.7,12.7 -42.7,1.8 l -19.5,-23.7 -5.7,-6.5 c -154.6,-178.8 -463.8,-300.3 -808.2,-320.2 l 33.8,-72.8" style="fill:#634d99;fill-opacity:1;fill-rule:nonzero;stroke:none" id="path2866" transform="matrix(0.133333, 0, 0, -0.133333, 0, 5287.013184)"/>
  <path d="m 36367.1,14917.1 c 237.4,98.6 483.5,270.6 511.5,435.7 9.1,53.9 -25.7,107.3 -94.4,144.1 l -52.6,28.3 c -15.4,8.2 -40.2,1.3 -38.5,-10.8 l 3.6,-26.2 0.7,-7.3 c 20.9,-199.4 -141.7,-393.9 -422.7,-510.5 l 92.4,-53.3" style="fill:#634d99;fill-opacity:1;fill-rule:nonzero;stroke:none" id="path2868" transform="matrix(0.133333, 0, 0, -0.133333, 0, 5287.013184)"/>
  <path d="m 36385,14935 c 120.3,153.9 184.4,373.9 65.6,525 -38.8,49.4 -115.1,85.5 -206.6,97.6 l -70,9.3 c -20.3,2.7 -35.8,-10.5 -24,-20.5 l 25.8,-21.6 7,-6.1 c 190.8,-166.7 218.4,-382 76.1,-564.2 l 126.1,-19.5" style="fill:#634d99;fill-opacity:1;fill-rule:nonzero;stroke:none" id="path2870" transform="matrix(0.133333, 0, 0, -0.133333, 0, 5287.013184)"/>
  <path d="m 36385,14955.7 c -29.1,168.1 -164.1,377.1 -397.9,473.7 -76.3,31.5 -173.6,40.7 -263.3,24.8 l -68.7,-12.2 c -20,-3.5 -22,-19.4 -3.1,-24.6 l 41.1,-11.3 11.3,-3.2 c 309.6,-89.3 520,-267.9 554.5,-466.7 l 126.1,19.5" style="fill:#634d99;fill-opacity:1;fill-rule:nonzero;stroke:none" id="path2872" transform="matrix(0.133333, 0, 0, -0.133333, 0, 5287.013184)"/>
  <path d="m 36367.1,14973.7 c -170.8,137.1 -468.7,279.1 -754.8,295.3 -93.4,5.3 -185.7,-14.8 -249.6,-54.5 l -48.9,-30.4 c -14.2,-8.8 -2.2,-23.2 18.6,-22.2 l 45.4,2.1 12.6,0.4 c 345.5,12.1 682.3,-81.8 884.3,-244 l 92.4,53.3" style="fill:#634d99;fill-opacity:1;fill-rule:nonzero;stroke:none" id="path2874" transform="matrix(0.133333, 0, 0, -0.133333, 0, 5287.013184)"/>
  <path d="m 36433.5,15022.4 c 63.8,-36.8 63.8,-96.5 0,-133.3 -63.8,-36.8 -167.1,-36.8 -230.9,0 -63.8,36.8 -63.8,96.5 0,133.3 63.8,36.8 167.1,36.8 230.9,0" style="fill:#ffe840;fill-opacity:1;fill-rule:nonzero;stroke:none" id="path2876" transform="matrix(0.133333, 0, 0, -0.133333, 0, 5287.013184)"/>
  <path d="m 36734.1,13737.5 -361.9,-209 v 120.1 l 361.9,209 v -120.1" style="fill:#312c54;fill-opacity:1;fill-rule:nonzero;stroke:none" id="path2878" transform="matrix(0.133333, 0, 0, -0.133333, 0, 5287.013184)"/>
  <path d="m 36734.1,13548.9 -361.9,-208.9 v 120.1 l 361.9,208.9 v -120.1" style="fill:#312c54;fill-opacity:1;fill-rule:nonzero;stroke:none" id="path2880" transform="matrix(0.133333, 0, 0, -0.133333, 0, 5287.013184)"/>
  <path d="m 38293.7,14498.6 -568.2,-328 v 188.6 l 568.2,328 v -188.6" style="fill:#312c54;fill-opacity:1;fill-rule:nonzero;stroke:none" id="path2882" transform="matrix(0.133333, 0, 0, -0.133333, 0, 5287.013184)"/>
  <path d="m 34011.1,13423.4 v -192.3 h -0.9 c -4,-48.7 -20.3,-97.2 -49,-143.7 -3.3,-5.5 -6.9,-10.9 -10.6,-16.3 -34.7,-50.6 -84.3,-98.6 -149,-141.6 -3.5,-2.4 -7,-4.7 -10.5,-7 -10.3,-6.6 -21,-13.1 -32.1,-19.5 -36.7,-21.2 -75.9,-40 -117,-56.6 -3.5,-1.4 -7,-2.8 -10.5,-4.1 -47.5,-18.6 -97.4,-34.1 -149,-46.5 -3.6,-0.9 -7.1,-1.7 -10.6,-2.5 -48.5,-11.3 -98.4,-19.8 -149,-25.8 -3.6,-0.4 -7.1,-0.8 -10.6,-1.2 -49.2,-5.4 -99.1,-8.3 -149,-8.7 -3.5,-0.1 -7,-0.1 -10.6,-0.1 -49.8,-0.1 -99.7,2.3 -149,7.3 -3.5,0.2 -7,0.6 -10.6,1 -50.5,5.4 -100.4,13.4 -149,24 -3.5,0.8 -7,1.6 -10.5,2.4 -51.5,11.7 -101.5,26.5 -149.1,44.2 -3.5,1.3 -7,2.6 -10.5,4 -46.8,17.9 -91.1,38.8 -132.4,62.6 -5.6,3.3 -11.2,6.6 -16.6,9.9 -3.6,2.2 -7.1,4.3 -10.6,6.5 -62.8,39.7 -112.6,83.9 -149,130.7 -3.7,4.7 -7.2,9.4 -10.6,14.1 -38.3,53.4 -59.8,110 -64.4,166.9 h -1 v 192.3 h 51.2 c 4.4,7.2 9.2,14.2 14.2,21.2 3.4,4.8 6.9,9.5 10.6,14.1 13.4,17.3 28.6,34.1 45.6,50.5 20.8,20.1 44.2,39.6 70.4,58.1 18.7,13.3 38.8,26.2 60.2,38.6 336.1,194.1 881.2,194.1 1217.4,0 21.4,-12.4 41.5,-25.2 60.1,-38.6 26.2,-18.5 49.7,-37.9 70.5,-58.1 23.9,-23 44.2,-47 61,-71.6 3.3,-4.7 6.4,-9.4 9.4,-14.2 h 51.1" style="fill:#ff9d4d;fill-opacity:1;fill-rule:nonzero;stroke:none" id="path2884" transform="matrix(0.133333, 0, 0, -0.133333, 0, 5287.013184)"/>
  <path d="m 33150.3,13751.5 c -220.3,0 -440.6,-48.6 -608.7,-145.6 -21.4,-12.4 -41.5,-25.3 -60.2,-38.6 -26.2,-18.5 -49.6,-38 -70.4,-58.1 -17,-16.4 -32.2,-33.2 -45.6,-50.5 -3.7,-4.6 -7.2,-9.3 -10.6,-14.1 -5,-7 -9.8,-14 -14.2,-21.2 h -51.2 v -192.3 h 1 c 4.6,-56.9 26.1,-113.5 64.4,-166.9 3.4,-4.7 6.9,-9.4 10.6,-14.1 36.4,-46.8 86.2,-91 149,-130.7 3.5,-2.2 7,-4.3 10.6,-6.5 5.4,-3.3 11,-6.6 16.6,-9.9 41.3,-23.8 85.6,-44.7 132.4,-62.6 3.5,-1.4 7,-2.7 10.5,-4 47.6,-17.7 97.6,-32.5 149.1,-44.2 3.5,-0.8 7,-1.6 10.5,-2.4 48.6,-10.6 98.5,-18.6 149,-24 3.6,-0.4 7.1,-0.8 10.6,-1 48.3,-4.9 97.2,-7.3 146.1,-7.3 1,0 2,0 3,0 3.5,0 7,0 10.5,0.1 49.9,0.4 99.8,3.3 149,8.7 3.5,0.4 7,0.8 10.6,1.2 50.6,6 100.5,14.5 149,25.8 3.5,0.8 7,1.6 10.6,2.5 51.6,12.4 101.5,27.9 149,46.5 3.5,1.3 7,2.7 10.5,4.1 41.1,16.6 80.3,35.4 117,56.6 11.1,6.4 21.8,12.9 32.1,19.5 3.5,2.3 7,4.6 10.5,7 64.7,43 114.3,91 149,141.6 3.7,5.4 7.3,10.8 10.6,16.3 28.7,46.5 45,95 49,143.7 h 0.9 v 23.3 0.1 168.9 h -51.1 c -3,4.8 -6.1,9.5 -9.4,14.2 -16.8,24.6 -37.1,48.6 -61,71.6 -20.8,20.2 -44.3,39.6 -70.5,58.1 -18.6,13.4 -38.7,26.2 -60.1,38.6 -168.1,97 -388.4,145.6 -608.7,145.6 z m 0,-10.6 c 228.1,0 442.4,-51.2 603.4,-144.1 21,-12.1 40.9,-24.9 59.3,-38.1 25.6,-18.1 48.9,-37.3 69.3,-57.1 23,-22.2 43.1,-45.8 59.7,-70 3,-4.3 5.9,-8.8 9,-13.8 l 3.1,-4.9 h 5.9 40.6 v -158.5 -12.8 h -0.1 l -0.8,-9.7 c -3.9,-47.4 -19.8,-94.2 -47.5,-139 -3.1,-5 -6.4,-10.2 -10.3,-15.8 -34.7,-50.7 -83.9,-97.4 -146.1,-138.9 -3.5,-2.3 -6.9,-4.5 -10.4,-6.8 -10.2,-6.5 -20.8,-13 -31.7,-19.2 -35.6,-20.6 -74.5,-39.4 -115.8,-56.1 -3.4,-1.3 -6.8,-2.7 -10.3,-4 -46.6,-18.2 -96.3,-33.7 -147.8,-46 -3.4,-0.9 -6.8,-1.7 -10.3,-2.5 -47.5,-11.1 -97.2,-19.7 -148.2,-25.6 -3.3,-0.4 -6.7,-0.8 -10.2,-1.2 -48.7,-5.4 -98.5,-8.3 -147.9,-8.7 h -0.7 c -3.2,0 -6.5,-0.1 -9.8,-0.1 h -2.9 c -48.6,0 -97.4,2.5 -145.2,7.3 -3.4,0.2 -6.7,0.6 -10.3,1 -50.2,5.3 -99.9,13.3 -147.9,23.8 -3.5,0.8 -6.9,1.6 -10.5,2.4 -51.5,11.7 -101.2,26.5 -147.7,43.8 l -1.4,0.5 c -3,1.1 -6,2.2 -9,3.4 -46.6,17.9 -90.7,38.7 -130.9,61.9 -5.6,3.3 -11,6.5 -16.4,9.8 -3.6,2.2 -7,4.3 -10.4,6.4 -60.7,38.4 -110,81.5 -146.5,128.4 -3.2,4.1 -6.6,8.5 -10.2,13.6 -37,51.5 -58,105.9 -62.5,161.6 l -0.7,9.7 h -0.2 v 171.3 h 40.6 5.9 l 3,5 c 4.3,6.8 9,13.7 13.9,20.6 3.1,4.4 6.5,8.9 10.3,13.8 13,16.7 28,33.3 44.6,49.3 20.7,20 44,39.2 69.2,57.1 18.6,13.3 38.6,26.1 59.4,38.1 161,92.9 375.3,144.1 603.4,144.1" style="fill:#ffe840;fill-opacity:1;fill-rule:nonzero;stroke:none" id="path2886" transform="matrix(0.133333, 0, 0, -0.133333, 0, 5287.013184)"/>
  <path d="m 33759,13780.1 c 336.2,-194 336.2,-508.7 0,-702.8 -336.2,-194.1 -881.2,-194.1 -1217.4,0 -336.2,194.1 -336.2,508.8 0,702.8 336.2,194.1 881.2,194.1 1217.4,0" style="fill:#ffe840;fill-opacity:1;fill-rule:nonzero;stroke:none" id="path2888" transform="matrix(0.133333, 0, 0, -0.133333, 0, 5287.013184)"/>
  <path d="m 33801.6,13264.5 c -3.4,-4.5 -6.9,-9 -10.5,-13.4 -33.8,-40.7 -79.9,-78.8 -138.3,-112.5 -3.5,-2.1 -7.1,-4.1 -10.8,-6.2 -3.5,-1.9 -7,-3.8 -10.5,-5.6 -45.9,-24.5 -96,-44.8 -149,-60.9 -3.5,-1.1 -7.1,-2.1 -10.6,-3.1 -47.8,-14 -97.9,-24.7 -149,-32 -3.5,-0.6 -7,-1.1 -10.6,-1.5 -49,-6.6 -98.9,-10.1 -149,-10.6 -3.5,-0.1 -7,-0.1 -10.6,-0.1 -49.9,-0.1 -99.9,2.8 -149,8.7 -3.5,0.5 -7.1,0.9 -10.6,1.4 -51,6.6 -101,16.5 -149,29.7 -3.5,1 -7,1.9 -10.5,2.9 -52.8,15.1 -102.9,34.3 -149.1,57.5 -3.5,1.7 -7,3.5 -10.5,5.4 -8.9,4.6 -17.7,9.4 -26.3,14.4 -49.9,28.8 -90.8,60.9 -122.7,95 -3.6,3.9 -7.1,7.8 -10.6,11.7 -86.7,100.5 -97.7,217.4 -33,322 34.3,55.4 89.7,107.3 166.3,151.6 277.1,159.9 728,159.9 1005.1,0 76.7,-44.3 132.1,-96.2 166.3,-151.6 60.7,-98 54.9,-206.8 -17.5,-302.8 z m 88,244.7 c -27.6,85.3 -98.9,163.9 -207.5,226.6 -142.1,82 -330.9,127.2 -531.8,127.2 -200.9,0 -389.8,-45.2 -531.8,-127.2 -108.6,-62.7 -180,-141.3 -207.5,-226.6 -8.5,-26.3 -12.8,-53.2 -12.8,-80.5 0,-83.5 40.5,-163.4 116.2,-232.2 3.5,-3.2 7,-6.2 10.6,-9.3 27.1,-23.3 58.3,-45.2 93.5,-65.5 17.8,-10.3 36.3,-20 55.5,-29.1 3.5,-1.7 7,-3.3 10.5,-4.9 46.3,-21.2 96.3,-38.9 149.1,-53 3.5,-1 7,-2 10.5,-2.9 47.8,-12.2 97.6,-21.6 149,-27.8 3.6,-0.5 7.1,-0.9 10.6,-1.3 47.8,-5.5 96.8,-8.2 146.6,-8.2 h 2.4 c 3.6,0 7.1,0.1 10.6,0.1 50.7,0.5 100.5,3.8 149,10 3.5,0.4 7,0.8 10.6,1.4 51.5,6.9 101.4,17 149,30 3.6,0.9 7.1,1.9 10.6,2.9 52.9,15.1 102.9,33.8 149,56.1 3.5,1.6 7,3.3 10.5,5.1 13.7,6.9 27.1,14 40.1,21.6 42,24.2 78.5,50.9 109,79.3 3.6,3.4 7.1,6.8 10.5,10.2 65.7,65.4 100.8,139.9 100.8,217.5 0,27.3 -4.3,54.2 -12.8,80.5" style="fill:#ff9d4d;fill-opacity:1;fill-rule:nonzero;stroke:none" id="path2890" transform="matrix(0.133333, 0, 0, -0.133333, 0, 5287.013184)"/>
  <path d="m 33177.8,13498.8 81.1,-46.8 c -1.8,-0.9 -3.7,-1.8 -5.4,-2.9 l -44.5,-25.6 -75.7,43.7 25,14.4 c 8.9,5.2 15.4,10.9 19.5,17.2" style="fill:#d1975d;fill-opacity:1;fill-rule:nonzero;stroke:none" id="path2892" transform="matrix(0.133333, 0, 0, -0.133333, 0, 5287.013184)"/>
  <path d="m 32993.1,13529.9 10.6,6.1 5.1,3 h 0.1 l 29.2,16.9 c 1.6,0.9 3.5,1.7 5.3,2.5 5.9,2.9 12.2,5.4 19,7 9.5,2.3 19.8,3.3 30.9,3.1 21,-0.4 40.9,-5.8 59.4,-16.3 l 1.4,-0.7 c 3.4,-2 6.4,-4 9.2,-6 13.3,-9.5 19.8,-19.6 19.6,-30.3 -0.1,-5.9 -1.7,-11.3 -5.1,-16.4 -3.2,-5 -8.1,-9.7 -14.5,-14 -1.6,-1.1 -3.2,-2.1 -5,-3.2 l -5.6,-3.1 -19.4,-11.3 -60.5,-34.9 v 0 l -16.4,-9.5 -26,-15 -14.4,8.3 -16.1,9.3 -6.8,4 -30.4,17.5 -56.7,32.7 15.8,9.1 26.6,15.4 z m 260.4,-80.8 c 1.8,1.1 3.5,2 5.4,2.9 6.9,3.3 14.5,5.8 22.7,7.4 9.9,1.9 20.2,2.6 30.7,2.2 h 1.6 c 3,-0.2 6,-0.4 9,-0.7 8.1,-0.9 16.3,-2.4 24.4,-4.5 11.1,-3 21.1,-7 29.9,-12.1 8.8,-5.1 15.5,-10.8 20.1,-17.2 4.7,-6.5 7.1,-13 7.3,-19.5 0.2,-6.6 -1.8,-13 -6.2,-19.3 -2.7,-3.8 -6.2,-7.4 -10.6,-10.8 -2.1,-1.6 -4.5,-3.3 -7.1,-4.9 l -2.1,-1.3 -38.3,-22.1 -1.4,-0.8 -16,-9.3 -10.6,-6 -33.7,-19.5 -42.5,-24.5 -129.9,75 13.8,8 28.6,16.5 v 0 l 4.1,2.4 10.6,6.1 45.7,26.3 z m 166.7,-147.6 h 0.1 l 83,-48 49.7,28.7 -83.3,48.1 2.2,1.4 c 3.7,2.3 7.2,4.6 10.6,7 11.8,8.3 21.9,17 30.5,26 13.7,14.3 22.5,28.7 26.4,43.3 4,14.6 2.2,28.8 -5.2,42.7 -7.4,13.9 -21.5,26.9 -42.4,39 -3.1,1.8 -6.2,3.5 -9.3,5.1 -3.5,1.9 -7,3.5 -10.6,5.2 -26.8,12.4 -55.4,19.8 -85.7,22.2 -21.3,1.6 -42.4,1 -63.3,-1.9 -3.6,-0.5 -7.1,-1.1 -10.6,-1.7 -12.8,-2.2 -25.4,-5.3 -38,-9.3 13,19.3 14.9,38.4 5.9,57.6 -9,19.1 -25.6,35.6 -49.6,49.6 -15.4,8.8 -33.2,16 -53.6,21.6 -20.3,5.6 -41.3,9 -62.9,10.2 -21.5,1.2 -42.9,0 -64.2,-3.8 -21.4,-3.7 -40.6,-10.5 -57.7,-20.4 l -15.7,-9.1 -80,46.2 -49.6,-28.7 80,-46.1 -60.4,-34.9 -80.1,46.2 -49.6,-28.7 80,-46.2 -88.6,-51.2 105.4,-60.9 10.5,-6 149,-86.1 10.6,-6.1 149,-86 10.6,-6.1 58.2,-33.7 88.7,51.2 v 0 l 83.1,-47.9 49.6,28.7 -83.1,47.9 h 0.1 l 60.3,34.9" style="fill:#ff9d4d;fill-opacity:1;fill-rule:nonzero;stroke:none" id="path2894" transform="matrix(0.133333, 0, 0, -0.133333, 0, 5287.013184)"/>
  <path d="m 32387.8,13202.6 v -174.2 c -3.7,4.7 -7.1,9.4 -10.5,14.1 v 174.2 c 3.4,-4.7 6.9,-9.4 10.5,-14.1" style="fill:#ffe840;fill-opacity:1;fill-rule:nonzero;stroke:none" id="path2896" transform="matrix(0.133333, 0, 0, -0.133333, 0, 5287.013184)"/>
  <path d="m 32525,13087.1 v -174.2 c -3.6,2.2 -7.1,4.3 -10.6,6.5 v 174.3 c 3.5,-2.2 7,-4.4 10.6,-6.6" style="fill:#ffe840;fill-opacity:1;fill-rule:nonzero;stroke:none" id="path2898" transform="matrix(0.133333, 0, 0, -0.133333, 0, 5287.013184)"/>
  <path d="m 32684.5,13010.7 v -174.3 c -3.5,1.3 -7,2.6 -10.5,4 v 174.2 c 3.5,-1.3 7,-2.7 10.5,-3.9" style="fill:#ffe840;fill-opacity:1;fill-rule:nonzero;stroke:none" id="path2900" transform="matrix(0.133333, 0, 0, -0.133333, 0, 5287.013184)"/>
  <path d="m 32844.1,12964.1 v -174.3 c -3.5,0.8 -7,1.6 -10.5,2.4 v 174.3 c 3.5,-0.8 7,-1.7 10.5,-2.4" style="fill:#ffe840;fill-opacity:1;fill-rule:nonzero;stroke:none" id="path2902" transform="matrix(0.133333, 0, 0, -0.133333, 0, 5287.013184)"/>
  <path d="m 33003.7,12939 v -174.2 c -3.5,0.2 -7,0.6 -10.6,1 v 174.2 c 3.6,-0.3 7.1,-0.7 10.6,-1" style="fill:#ffe840;fill-opacity:1;fill-rule:nonzero;stroke:none" id="path2904" transform="matrix(0.133333, 0, 0, -0.133333, 0, 5287.013184)"/>
  <path d="m 33163.3,12931.8 v -174.2 c -3.5,-0.1 -7,-0.1 -10.6,-0.1 v 174.2 c 3.6,0 7.1,0.1 10.6,0.1" style="fill:#ffe840;fill-opacity:1;fill-rule:nonzero;stroke:none" id="path2906" transform="matrix(0.133333, 0, 0, -0.133333, 0, 5287.013184)"/>
  <path d="m 33322.9,12941.8 v -174.3 c -3.6,-0.4 -7.1,-0.8 -10.6,-1.2 v 174.3 c 3.5,0.3 7,0.7 10.6,1.2" style="fill:#ffe840;fill-opacity:1;fill-rule:nonzero;stroke:none" id="path2908" transform="matrix(0.133333, 0, 0, -0.133333, 0, 5287.013184)"/>
  <path d="m 33482.5,12970.1 v -174.3 c -3.6,-0.9 -7.1,-1.7 -10.6,-2.5 v 174.3 c 3.5,0.8 7,1.6 10.6,2.5" style="fill:#ffe840;fill-opacity:1;fill-rule:nonzero;stroke:none" id="path2910" transform="matrix(0.133333, 0, 0, -0.133333, 0, 5287.013184)"/>
  <path d="m 33642,13020.6 v -174.2 c -3.5,-1.4 -7,-2.8 -10.5,-4.1 v 174.3 c 3.5,1.3 7,2.6 10.5,4" style="fill:#ffe840;fill-opacity:1;fill-rule:nonzero;stroke:none" id="path2912" transform="matrix(0.133333, 0, 0, -0.133333, 0, 5287.013184)"/>
  <path d="m 33801.6,13103.7 v -174.2 c -3.5,-2.4 -7,-4.7 -10.5,-7 v 174.3 c 3.5,2.3 7,4.6 10.5,6.9" style="fill:#ffe840;fill-opacity:1;fill-rule:nonzero;stroke:none" id="path2914" transform="matrix(0.133333, 0, 0, -0.133333, 0, 5287.013184)"/>
  <path d="m 33943.2,13244.2 v -174.3 c -3.4,-5.4 -6.9,-10.9 -10.6,-16.2 v 174.2 c 3.7,5.4 7.2,10.8 10.6,16.3" style="fill:#ffe840;fill-opacity:1;fill-rule:nonzero;stroke:none" id="path2916" transform="matrix(0.133333, 0, 0, -0.133333, 0, 5287.013184)"/>
  <path d="m 33103.8,17375.2 v -192.3 h -1 c -3.9,-48.8 -20.2,-97.2 -48.9,-143.8 -3.3,-5.4 -6.9,-10.8 -10.6,-16.2 -34.7,-50.6 -84.4,-98.6 -149,-141.7 -3.5,-2.3 -7,-4.6 -10.6,-6.9 -10.3,-6.6 -21,-13.1 -32,-19.5 -36.7,-21.2 -75.9,-40.1 -117,-56.6 -3.5,-1.4 -7.1,-2.8 -10.6,-4.2 -47.4,-18.5 -97.4,-34 -149,-46.4 -3.5,-0.9 -7,-1.7 -10.5,-2.5 -48.5,-11.3 -98.4,-19.9 -149.1,-25.8 -3.5,-0.4 -7,-0.9 -10.5,-1.2 -49.2,-5.4 -99.1,-8.4 -149,-8.8 -3.6,0 -7.1,-0.1 -10.6,-0.1 -49.9,0 -99.7,2.4 -149,7.3 -3.6,0.3 -7.1,0.7 -10.6,1.1 -50.5,5.3 -100.5,13.4 -149,24 -3.5,0.8 -7,1.5 -10.5,2.4 -51.6,11.7 -101.5,26.4 -149.1,44.2 -3.5,1.3 -7.1,2.6 -10.5,4 -46.8,17.9 -91.2,38.8 -132.4,62.6 -5.7,3.3 -11.2,6.5 -16.7,9.9 -3.5,2.1 -7,4.3 -10.5,6.5 -62.9,39.7 -112.6,83.9 -149.1,130.7 -3.7,4.7 -7.1,9.3 -10.5,14 -38.4,53.5 -59.8,110 -64.4,167 h -1 v 192.3 h 51.1 c 4.5,7.1 9.2,14.2 14.3,21.2 3.4,4.8 6.9,9.4 10.5,14.1 13.4,17.2 28.6,34.1 45.6,50.5 20.8,20.1 44.3,39.5 70.5,58.1 18.6,13.3 38.7,26.2 60.2,38.6 336.1,194 881.2,194 1217.4,0 21.4,-12.4 41.4,-25.3 60.1,-38.6 26.1,-18.6 49.6,-38 70.4,-58.1 23.9,-23.1 44.3,-47 61.1,-71.6 3.3,-4.7 6.3,-9.4 9.3,-14.2 h 51.2" style="fill:#ff9d4d;fill-opacity:1;fill-rule:nonzero;stroke:none" id="path2918" transform="matrix(0.133333, 0, 0, -0.133333, 0, 5287.013184)"/>
  <path d="m 32242.9,17703.2 c -220.3,0 -440.6,-48.5 -608.6,-145.5 -21.5,-12.4 -41.6,-25.3 -60.2,-38.6 -26.2,-18.6 -49.7,-38 -70.5,-58.1 -17,-16.4 -32.2,-33.3 -45.6,-50.5 -3.6,-4.7 -7.1,-9.3 -10.5,-14.1 -5.1,-7 -9.8,-14.1 -14.3,-21.2 h -51.1 v -192.3 h 1 c 4.6,-57 26,-113.5 64.4,-167 3.4,-4.7 6.8,-9.3 10.5,-14 36.5,-46.8 86.2,-91 149.1,-130.7 3.5,-2.2 7,-4.4 10.5,-6.5 5.5,-3.4 11,-6.6 16.7,-9.9 41.2,-23.8 85.6,-44.7 132.4,-62.6 3.4,-1.4 7,-2.7 10.5,-4 47.6,-17.8 97.5,-32.5 149.1,-44.2 3.5,-0.9 7,-1.6 10.5,-2.4 48.5,-10.6 98.5,-18.7 149,-24 3.5,-0.4 7,-0.8 10.6,-1.1 48.3,-4.8 97.2,-7.3 146.2,-7.3 0.9,0 1.9,0 2.8,0 3.5,0 7,0.1 10.6,0.1 49.9,0.4 99.8,3.4 149,8.8 3.5,0.3 7,0.8 10.5,1.2 50.7,5.9 100.6,14.5 149.1,25.8 3.5,0.8 7,1.6 10.5,2.5 51.6,12.4 101.6,27.9 149,46.4 3.5,1.4 7.1,2.8 10.6,4.2 41.1,16.5 80.3,35.4 117,56.6 11,6.4 21.7,12.9 32,19.5 3.6,2.3 7.1,4.6 10.6,6.9 64.6,43.1 114.3,91.1 149,141.7 3.7,5.4 7.3,10.8 10.6,16.2 28.7,46.6 45,95 48.9,143.8 h 1 v 23.3 0.1 168.9 h -51.2 c -3,4.8 -6,9.5 -9.3,14.2 -16.8,24.6 -37.2,48.5 -61.1,71.6 -20.8,20.1 -44.3,39.5 -70.4,58.1 -18.7,13.4 -38.7,26.2 -60.1,38.6 -168.1,97 -388.5,145.5 -608.8,145.5 z m 0,-10.5 c 228.2,0 442.5,-51.2 603.5,-144.2 20.9,-12 40.9,-24.8 59.3,-38 25.5,-18.1 48.8,-37.3 69.2,-57.1 23.1,-22.3 43.2,-45.8 59.7,-70 3,-4.3 6,-8.8 9.1,-13.8 l 3.1,-4.9 h 5.8 40.6 v -158.5 -12.8 h -0.1 l -0.8,-9.7 c -3.8,-47.5 -19.8,-94.2 -47.4,-139.1 -3.1,-4.9 -6.5,-10.2 -10.3,-15.8 -34.8,-50.6 -83.9,-97.3 -146.2,-138.8 -3.4,-2.3 -6.9,-4.6 -10.4,-6.8 -10.1,-6.5 -20.7,-13 -31.6,-19.3 -35.7,-20.6 -74.6,-39.4 -115.9,-56 -3.4,-1.4 -6.8,-2.7 -10.2,-4 -46.6,-18.2 -96.3,-33.7 -147.8,-46.1 -3.4,-0.8 -6.7,-1.6 -10.3,-2.5 -47.5,-11 -97.3,-19.6 -148,-25.5 -3.4,-0.4 -6.8,-0.9 -10.4,-1.2 -48.7,-5.4 -98.5,-8.3 -148,-8.7 -3.5,-0.1 -6.9,-0.1 -10.4,-0.1 h -2.8 c -48.7,0 -97.6,2.4 -145.4,7.2 -3.3,0.3 -6.6,0.7 -10.3,1.1 -50.1,5.3 -99.9,13.3 -147.9,23.8 -3.4,0.8 -6.9,1.5 -10.4,2.3 -51.6,11.8 -101.3,26.5 -147.7,43.9 l -1.1,0.4 c -3.1,1.1 -6.2,2.2 -9.4,3.5 -46.6,17.8 -90.6,38.7 -130.8,61.9 -5.6,3.2 -11.1,6.5 -16.5,9.8 -3.5,2.1 -7,4.3 -10.4,6.4 -60.7,38.3 -109.9,81.5 -146.4,128.3 -3.3,4.2 -6.6,8.6 -10.2,13.7 -37,51.5 -58,105.9 -62.5,161.6 l -0.8,9.7 h -0.1 v 171.3 h 40.5 5.9 l 3.1,4.9 c 4.3,6.9 8.9,13.8 13.9,20.7 3.1,4.4 6.4,8.8 10.3,13.7 13,16.8 28,33.4 44.6,49.4 20.7,20 44,39.2 69.2,57.1 18.6,13.3 38.6,26.1 59.3,38 161,93 375.3,144.2 603.4,144.2" style="fill:#ffe840;fill-opacity:1;fill-rule:nonzero;stroke:none" id="path2920" transform="matrix(0.133333, 0, 0, -0.133333, 0, 5287.013184)"/>
  <path d="m 32851.6,17731.9 c 336.2,-194.1 336.2,-508.8 0,-702.8 -336.1,-194.1 -881.2,-194.1 -1217.4,0 -336.1,194 -336.1,508.7 0,702.8 336.2,194.1 881.3,194.1 1217.4,0" style="fill:#ffe840;fill-opacity:1;fill-rule:nonzero;stroke:none" id="path2922" transform="matrix(0.133333, 0, 0, -0.133333, 0, 5287.013184)"/>
  <path d="m 32894.3,17216.3 c -3.4,-4.5 -6.9,-9 -10.6,-13.4 -33.8,-40.7 -79.8,-78.9 -138.2,-112.6 -3.6,-2 -7.2,-4.1 -10.8,-6.1 -3.5,-1.9 -7,-3.8 -10.6,-5.7 -45.9,-24.4 -96,-44.7 -149,-60.8 -3.4,-1.1 -7,-2.1 -10.5,-3.2 -47.9,-14 -97.9,-24.7 -149.1,-32 -3.5,-0.5 -7,-1 -10.5,-1.4 -49,-6.6 -99,-10.2 -149,-10.7 -3.6,0 -7.1,-0.1 -10.6,-0.1 -50,-0.1 -100,2.8 -149,8.8 -3.6,0.4 -7.1,0.9 -10.6,1.4 -51,6.6 -101,16.5 -149,29.7 -3.5,0.9 -7.1,1.9 -10.5,2.9 -52.8,15.1 -102.9,34.3 -149.1,57.4 -3.6,1.8 -7.1,3.6 -10.5,5.4 -9,4.6 -17.7,9.5 -26.3,14.4 -49.9,28.9 -90.8,60.9 -122.8,95.1 -3.6,3.9 -7.1,7.8 -10.5,11.7 -86.8,100.5 -97.8,217.4 -33,322 34.3,55.4 89.7,107.3 166.3,151.5 277.1,160 728,160 1005.1,0 76.7,-44.2 132.1,-96.1 166.3,-151.5 60.7,-98 54.8,-206.8 -17.5,-302.8 z m 87.9,244.7 c -27.5,85.3 -98.8,163.8 -207.4,226.5 -142.1,82.1 -331,127.2 -531.8,127.2 -201,0 -389.8,-45.1 -531.9,-127.2 -108.6,-62.7 -179.9,-141.2 -207.5,-226.5 -8.4,-26.3 -12.8,-53.2 -12.8,-80.5 0,-83.5 40.6,-163.4 116.3,-232.2 3.4,-3.2 6.9,-6.3 10.5,-9.3 27.2,-23.4 58.4,-45.3 93.5,-65.6 17.9,-10.2 36.4,-20 55.6,-29 3.5,-1.7 7,-3.3 10.5,-4.9 46.3,-21.2 96.3,-39 149.1,-53.1 3.5,-0.9 7,-1.9 10.5,-2.8 47.7,-12.2 97.6,-21.6 149,-27.8 3.5,-0.5 7,-1 10.6,-1.3 47.7,-5.5 96.8,-8.2 146.6,-8.2 h 2.4 c 3.5,0 7,0 10.6,0.1 50.7,0.4 100.5,3.8 149,9.9 3.5,0.5 7,0.9 10.5,1.4 51.5,6.9 101.5,17 149.1,30 3.5,1 7.1,1.9 10.5,3 53,15 103,33.8 149,56 3.5,1.7 7.1,3.4 10.6,5.2 13.7,6.8 27.1,14 40.1,21.5 42,24.3 78.5,51 108.9,79.4 3.6,3.4 7.2,6.8 10.6,10.2 65.7,65.4 100.7,139.9 100.7,217.5 0,27.3 -4.3,54.2 -12.8,80.5" style="fill:#ff9d4d;fill-opacity:1;fill-rule:nonzero;stroke:none" id="path2924" transform="matrix(0.133333, 0, 0, -0.133333, 0, 5287.013184)"/>
  <path d="m 32270.5,17450.6 81,-46.8 c -1.8,-0.9 -3.6,-1.9 -5.4,-2.9 l -44.4,-25.7 -75.8,43.8 25,14.4 c 9,5.2 15.5,10.9 19.6,17.2" style="fill:#d1975d;fill-opacity:1;fill-rule:nonzero;stroke:none" id="path2926" transform="matrix(0.133333, 0, 0, -0.133333, 0, 5287.013184)"/>
  <path d="m 32085.8,17481.7 10.6,6.1 5.1,3 v 0 l 29.2,16.8 c 1.7,1 3.6,1.7 5.3,2.6 6,2.9 12.3,5.3 19.1,7 9.4,2.2 19.7,3.3 30.9,3.1 21,-0.4 40.8,-5.8 59.4,-16.3 l 1.4,-0.8 c 3.3,-1.9 6.4,-3.9 9.2,-5.9 13.3,-9.5 19.8,-19.6 19.6,-30.4 -0.1,-5.8 -1.8,-11.2 -5.1,-16.4 -3.3,-5 -8.1,-9.7 -14.5,-14 -1.6,-1 -3.3,-2.1 -5,-3.1 l -5.6,-3.2 -19.5,-11.2 -60.4,-34.9 v 0 l -16.5,-9.5 -25.9,-15 -14.4,8.3 -16.1,9.3 -6.8,3.9 -30.4,17.6 -56.7,32.7 15.7,9.1 26.7,15.4 v 0 z m 260.3,-80.8 c 1.8,1 3.6,2 5.4,2.8 7,3.4 14.6,5.9 22.8,7.4 9.9,1.9 20.1,2.7 30.7,2.3 l 1.6,-0.1 c 3,-0.1 5.9,-0.4 8.9,-0.6 8.1,-0.9 16.3,-2.4 24.5,-4.6 11,-2.9 21.1,-6.9 29.8,-12 8.8,-5.1 15.5,-10.8 20.2,-17.2 4.6,-6.5 7,-13 7.3,-19.5 0.2,-6.6 -1.9,-13 -6.2,-19.3 -2.7,-3.8 -6.3,-7.4 -10.6,-10.8 -2.1,-1.7 -4.6,-3.3 -7.1,-4.9 l -2.2,-1.3 -38.2,-22.1 -1.4,-0.8 -16.1,-9.3 -10.5,-6.1 -33.8,-19.5 -42.4,-24.5 -130,75 13.9,8.1 28.6,16.4 -0.1,0.1 4.2,2.4 10.6,6 45.6,26.4 z m 166.8,-147.6 v 0 l 83.1,-48 49.6,28.7 -83.2,48.1 2.2,1.4 c 3.6,2.2 7.2,4.6 10.5,7 11.8,8.3 22,17 30.6,26 13.7,14.3 22.5,28.7 26.4,43.3 3.9,14.6 2.2,28.8 -5.2,42.7 -7.4,13.9 -21.5,26.9 -42.4,39 -3.1,1.7 -6.3,3.5 -9.4,5.1 -3.4,1.8 -7,3.5 -10.5,5.2 -26.8,12.4 -55.4,19.7 -85.7,22.1 -21.4,1.7 -42.4,1.1 -63.4,-1.8 -3.5,-0.5 -7,-1.1 -10.5,-1.7 -12.8,-2.3 -25.5,-5.4 -38,-9.3 12.9,19.3 14.9,38.4 5.9,57.6 -9,19.1 -25.6,35.6 -49.7,49.5 -15.3,8.8 -33.1,16 -53.5,21.7 -20.4,5.6 -41.3,9 -62.9,10.2 -21.5,1.2 -42.9,-0.1 -64.3,-3.8 -21.3,-3.8 -40.5,-10.6 -57.7,-20.5 l -15.6,-9 -80,46.2 -49.7,-28.7 80,-46.2 -60.4,-34.9 -80,46.2 -49.7,-28.6 80,-46.2 -88.6,-51.2 105.5,-60.9 10.5,-6.1 149,-86 10.6,-6.1 149,-86.1 10.6,-6.1 58.2,-33.6 88.6,51.2 h 0.1 l 83,-48 49.7,28.7 -83.1,48 v 0 l 60.4,34.9" style="fill:#ff9d4d;fill-opacity:1;fill-rule:nonzero;stroke:none" id="path2928" transform="matrix(0.133333, 0, 0, -0.133333, 0, 5287.013184)"/>
  <path d="m 31480.5,17154.4 v -174.2 c -3.7,4.7 -7.2,9.4 -10.5,14.1 v 174.2 c 3.3,-4.7 6.9,-9.4 10.5,-14.1" style="fill:#ffe840;fill-opacity:1;fill-rule:nonzero;stroke:none" id="path2930" transform="matrix(0.133333, 0, 0, -0.133333, 0, 5287.013184)"/>
  <path d="m 31617.6,17038.9 v -174.2 c -3.5,2.1 -7,4.3 -10.5,6.5 v 174.2 c 3.5,-2.2 7,-4.3 10.5,-6.5" style="fill:#ffe840;fill-opacity:1;fill-rule:nonzero;stroke:none" id="path2932" transform="matrix(0.133333, 0, 0, -0.133333, 0, 5287.013184)"/>
  <path d="m 31777.2,16962.5 v -174.3 c -3.5,1.3 -7.1,2.6 -10.5,4 v 174.2 c 3.4,-1.4 7,-2.7 10.5,-3.9" style="fill:#ffe840;fill-opacity:1;fill-rule:nonzero;stroke:none" id="path2934" transform="matrix(0.133333, 0, 0, -0.133333, 0, 5287.013184)"/>
  <path d="m 31936.8,16915.8 v -174.2 c -3.5,0.8 -7,1.5 -10.5,2.4 v 174.3 c 3.5,-0.9 7,-1.7 10.5,-2.5" style="fill:#ffe840;fill-opacity:1;fill-rule:nonzero;stroke:none" id="path2936" transform="matrix(0.133333, 0, 0, -0.133333, 0, 5287.013184)"/>
  <path d="m 32096.4,16890.8 v -174.3 c -3.6,0.3 -7.1,0.7 -10.6,1.1 v 174.2 c 3.5,-0.4 7,-0.8 10.6,-1" style="fill:#ffe840;fill-opacity:1;fill-rule:nonzero;stroke:none" id="path2938" transform="matrix(0.133333, 0, 0, -0.133333, 0, 5287.013184)"/>
  <path d="m 32256,16883.6 v -174.3 c -3.6,0 -7.1,-0.1 -10.6,-0.1 v 174.3 c 3.5,0 7,0 10.6,0.1" style="fill:#ffe840;fill-opacity:1;fill-rule:nonzero;stroke:none" id="path2940" transform="matrix(0.133333, 0, 0, -0.133333, 0, 5287.013184)"/>
  <path d="m 32415.5,16893.6 v -174.3 c -3.5,-0.4 -7,-0.9 -10.5,-1.2 v 174.3 c 3.5,0.3 7,0.7 10.5,1.2" style="fill:#ffe840;fill-opacity:1;fill-rule:nonzero;stroke:none" id="path2942" transform="matrix(0.133333, 0, 0, -0.133333, 0, 5287.013184)"/>
  <path d="m 32575.1,16921.9 v -174.3 c -3.5,-0.9 -7,-1.7 -10.5,-2.5 v 174.3 c 3.5,0.8 7,1.6 10.5,2.5" style="fill:#ffe840;fill-opacity:1;fill-rule:nonzero;stroke:none" id="path2944" transform="matrix(0.133333, 0, 0, -0.133333, 0, 5287.013184)"/>
  <path d="m 32734.7,16972.4 v -174.2 c -3.5,-1.4 -7.1,-2.8 -10.6,-4.2 v 174.3 c 3.5,1.3 7.1,2.7 10.6,4.1" style="fill:#ffe840;fill-opacity:1;fill-rule:nonzero;stroke:none" id="path2946" transform="matrix(0.133333, 0, 0, -0.133333, 0, 5287.013184)"/>
  <path d="m 32894.3,17055.5 v -174.3 c -3.5,-2.3 -7,-4.6 -10.6,-6.9 v 174.3 c 3.6,2.2 7.1,4.6 10.6,6.9" style="fill:#ffe840;fill-opacity:1;fill-rule:nonzero;stroke:none" id="path2948" transform="matrix(0.133333, 0, 0, -0.133333, 0, 5287.013184)"/>
  <path d="m 33035.8,17195.9 v -174.2 c -3.3,-5.5 -6.9,-10.9 -10.6,-16.3 v 174.3 c 3.7,5.3 7.3,10.8 10.6,16.2" style="fill:#ffe840;fill-opacity:1;fill-rule:nonzero;stroke:none" id="path2950" transform="matrix(0.133333, 0, 0, -0.133333, 0, 5287.013184)"/>
  <path d="m 39075,16564.8 -2.1,-169 v 0 l -0.3,-23.3 h -1 c -4.5,-48.7 -21.5,-97 -50.7,-143.1 -3.4,-5.4 -7.1,-10.8 -10.8,-16.2 -35.4,-50.1 -85.7,-97.4 -150.9,-139.7 -3.5,-2.3 -7,-4.5 -10.6,-6.8 -10.4,-6.4 -21.1,-12.8 -32.3,-19.1 -37,-20.7 -76.4,-39.1 -117.7,-55.1 -3.5,-1.3 -7.1,-2.7 -10.6,-4 -47.7,-17.9 -97.8,-32.8 -149.6,-44.5 -3.5,-0.9 -7,-1.6 -10.6,-2.4 -48.6,-10.7 -98.6,-18.6 -149.3,-23.9 -3.6,-0.3 -7.1,-0.7 -10.6,-1 -49.3,-4.8 -99.2,-7.1 -149.1,-6.9 -3.5,0 -7,0 -10.6,0.1 -49.8,0.5 -99.7,3.5 -148.9,9.1 -3.5,0.4 -7,0.8 -10.5,1.2 -50.5,6 -100.3,14.7 -148.7,26 -3.5,0.8 -7,1.6 -10.6,2.5 -51.3,12.4 -101.1,27.7 -148.4,46 -3.5,1.4 -7.1,2.7 -10.5,4.2 -46.6,18.5 -90.7,39.9 -131.6,64.3 -5.6,3.4 -11.1,6.7 -16.5,10.1 -3.5,2.2 -7,4.4 -10.5,6.6 -62.3,40.5 -111.5,85.4 -147.3,132.6 -3.7,4.7 -7.1,9.5 -10.4,14.2 -37.7,54 -58.4,110.8 -62.3,167.8 h -0.9 l 2.4,192.3 51.2,-0.7 c 4.5,7.1 9.3,14.1 14.5,21 3.4,4.8 7,9.4 10.7,14 13.6,17.1 29,33.7 46.2,49.9 21.1,19.8 44.8,39 71.2,57.2 18.9,13.1 39.1,25.7 60.7,37.8 338.6,189.8 883.6,182.8 1217.3,-15.5 21.3,-12.7 41.1,-25.8 59.6,-39.4 25.9,-18.9 49.2,-38.6 69.7,-59 23.6,-23.4 43.7,-47.6 60.1,-72.4 3.3,-4.7 6.3,-9.5 9.2,-14.3 l 51.1,-0.6" style="fill:#ff9d4d;fill-opacity:1;fill-rule:nonzero;stroke:none" id="path2952" transform="matrix(0.133333, 0, 0, -0.133333, 0, 5287.013184)"/>
  <path d="m 38199.3,16903.9 c -213.9,0 -426.9,-45.7 -591.3,-137.9 -21.6,-12.1 -41.8,-24.7 -60.7,-37.8 -26.4,-18.2 -50.1,-37.4 -71.2,-57.2 -17.2,-16.2 -32.6,-32.8 -46.2,-49.9 -3.7,-4.6 -7.3,-9.2 -10.7,-14 -5.2,-6.9 -10,-13.9 -14.5,-21 l -51.2,0.7 -2.4,-192.3 h 0.9 c 3.9,-57 24.6,-113.8 62.3,-167.8 3.3,-4.7 6.7,-9.5 10.4,-14.2 35.8,-47.2 85,-92.1 147.3,-132.6 3.5,-2.2 7,-4.4 10.5,-6.6 5.4,-3.4 10.9,-6.7 16.5,-10.1 40.9,-24.4 85,-45.8 131.6,-64.3 3.4,-1.5 7,-2.8 10.5,-4.2 47.3,-18.3 97.1,-33.6 148.4,-46 3.6,-0.9 7.1,-1.7 10.6,-2.5 48.4,-11.3 98.2,-20 148.7,-26 3.5,-0.4 7,-0.8 10.5,-1.2 49.2,-5.6 99.1,-8.6 148.9,-9.1 2.5,-0.1 5,-0.1 7.5,-0.1 1,0 2,0 3.1,0 2.5,0 4.9,0 7.4,0 47.5,0 94.9,2.3 141.7,6.9 3.5,0.3 7,0.7 10.6,1 50.7,5.3 100.7,13.2 149.3,23.9 3.6,0.8 7.1,1.5 10.6,2.4 51.8,11.7 101.9,26.6 149.6,44.5 3.5,1.3 7.1,2.7 10.6,4 41.3,16 80.7,34.4 117.7,55.1 11.2,6.3 21.9,12.7 32.3,19.1 3.6,2.3 7.1,4.5 10.6,6.8 65.2,42.3 115.5,89.6 150.9,139.7 3.7,5.4 7.4,10.8 10.8,16.2 29.2,46.1 46.2,94.4 50.8,143.1 h 0.9 l 0.3,23.3 v 0 l 2.1,169 -51.1,0.6 c -2.9,4.8 -5.9,9.6 -9.2,14.3 -16.4,24.8 -36.5,49 -60.1,72.4 -20.5,20.4 -43.8,40.1 -69.7,59 -18.5,13.6 -38.3,26.7 -59.6,39.3 -171.7,102.1 -399.3,153.5 -626,153.5 z m 0,0 v -10.5 c 235.3,0 455.7,-54 620.6,-152 20.8,-12.4 40.6,-25.4 58.8,-38.8 25.3,-18.5 48.3,-38 68.5,-58 22.8,-22.6 42.6,-46.3 58.8,-70.8 2.9,-4.3 5.8,-8.8 8.9,-13.9 l 3,-4.9 5.9,-0.1 40.5,-0.5 -2,-158.5 -0.1,-12.8 h -0.1 l -1,-9.7 c -4.4,-47.4 -21,-94 -49.2,-138.4 -3.1,-5 -6.6,-10.2 -10.5,-15.7 -35.4,-50.2 -85.1,-96.3 -147.9,-136.9 -3.5,-2.3 -7,-4.5 -10.5,-6.7 -10.2,-6.4 -20.9,-12.7 -31.9,-18.9 -35.9,-20.1 -75,-38.4 -116.3,-54.4 -3.5,-1.4 -7,-2.7 -10.5,-4 -46.9,-17.6 -96.7,-32.5 -148.4,-44.2 -3.5,-0.8 -6.9,-1.6 -10.3,-2.3 -47.6,-10.4 -97.5,-18.4 -148.6,-23.7 -3.3,-0.4 -6.6,-0.7 -10.1,-1 -46.4,-4.6 -93.7,-6.8 -140.7,-6.8 h -7.4 -3.1 c -2.5,0 -4.9,0 -7.4,0 -49.6,0.5 -99.3,3.6 -148,9.1 -3.4,0.3 -6.7,0.8 -10.3,1.2 -50.1,5.9 -99.7,14.6 -147.6,25.7 -3.4,0.8 -6.9,1.6 -10.4,2.5 -51.4,12.4 -100.9,27.8 -147.2,45.7 l -1.1,0.4 c -3,1.2 -6.1,2.4 -9.2,3.7 -46.4,18.4 -90.2,39.8 -130.1,63.6 -5.5,3.3 -10.9,6.6 -16.3,9.9 -3.5,2.2 -7,4.4 -10.3,6.6 -60.2,39.1 -108.9,82.9 -144.8,130.2 -3.2,4.2 -6.5,8.7 -10,13.8 -36.4,51.9 -56.7,106.6 -60.4,162.4 l -0.7,9.7 h -0.2 l 2.2,171.2 40.6,-0.5 5.9,-0.1 3.1,5 c 4.4,6.8 9.1,13.6 14.2,20.4 3.1,4.3 6.5,8.8 10.4,13.6 13.3,16.6 28.5,33.1 45.3,48.8 20.9,19.8 44.5,38.7 69.9,56.3 18.8,13 38.9,25.5 59.8,37.2 157.1,88.1 365.3,136.6 586.2,136.6 v 10.5" style="fill:#ffe840;fill-opacity:1;fill-rule:nonzero;stroke:none" id="path2954" transform="matrix(0.133333, 0, 0, -0.133333, 0, 5287.013184)"/>
  <path d="m 38827.5,16924.7 c 333.7,-198.4 329.6,-513 -9,-702.8 -338.6,-189.8 -883.6,-182.8 -1217.3,15.6 -333.7,198.3 -329.6,513 9,702.8 338.6,189.7 883.6,182.8 1217.3,-15.6" style="fill:#ffe840;fill-opacity:1;fill-rule:nonzero;stroke:none" id="path2956" transform="matrix(0.133333, 0, 0, -0.133333, 0, 5287.013184)"/>
  <path d="m 38863.5,16408.5 c -3.4,-4.4 -7,-8.8 -10.7,-13.2 -34.3,-40.3 -80.9,-77.8 -139.6,-110.8 -3.6,-2 -7.3,-4 -10.9,-6 -3.5,-1.9 -7.1,-3.7 -10.7,-5.5 -46.2,-23.9 -96.5,-43.5 -149.7,-59 -3.5,-1 -7.1,-2 -10.6,-3 -48.1,-13.4 -98.2,-23.4 -149.5,-30.1 -3.5,-0.5 -7,-0.9 -10.5,-1.3 -49.1,-5.9 -99.1,-8.9 -149.2,-8.7 -3.5,0 -7,0 -10.5,0 -50,0.6 -100,4.1 -149,10.7 -3.5,0.5 -7,1 -10.5,1.5 -50.9,7.2 -100.8,17.8 -148.6,31.6 -3.5,1 -7.1,2 -10.5,3.1 -52.6,15.8 -102.4,35.5 -148.3,59.3 -3.6,1.8 -7.1,3.7 -10.5,5.5 -8.8,4.8 -17.5,9.7 -26.1,14.8 -49.5,29.4 -90,62 -121.5,96.6 -3.6,3.9 -7,7.8 -10.4,11.8 -85.5,101.6 -95,218.7 -28.9,322.4 35,55 91.1,106.1 168.3,149.4 279.1,156.4 729.9,150.7 1005,-12.8 76.1,-45.3 130.8,-97.9 164.3,-153.7 59.4,-98.8 52.2,-207.5 -21.4,-302.6 z m 91.1,243.6 c -26.4,85.7 -96.7,165.1 -204.5,229.2 -141.1,83.8 -329.3,131.4 -530.2,134 -200.9,2.5 -390.3,-40.2 -533.4,-120.4 -109.4,-61.3 -181.7,-138.9 -210.4,-223.9 -8.8,-26.1 -13.5,-53 -13.8,-80.3 -1.1,-83.5 38.4,-163.9 113.3,-233.7 3.4,-3.2 6.8,-6.3 10.4,-9.4 26.8,-23.7 57.8,-46 92.7,-66.8 17.6,-10.4 36.1,-20.4 55.1,-29.7 3.5,-1.7 7,-3.4 10.5,-5.1 46,-21.7 95.8,-40.1 148.4,-54.9 3.4,-1 7,-2 10.5,-3 47.5,-12.8 97.3,-22.8 148.6,-29.7 3.5,-0.5 7,-1 10.5,-1.5 47.7,-6 96.7,-9.4 146.5,-10 h 2.5 c 3.5,-0.1 7,-0.1 10.5,-0.1 50.7,-0.1 100.6,2.5 149.1,8.1 3.6,0.4 7.1,0.8 10.6,1.2 51.6,6.3 101.6,15.7 149.4,28.1 3.6,0.9 7.1,1.9 10.6,2.9 53.2,14.3 103.4,32.5 149.7,54.1 3.6,1.6 7.1,3.3 10.6,5 13.8,6.7 27.3,13.7 40.4,21 42.4,23.8 79.1,50 110,78 3.6,3.3 7.2,6.7 10.6,10 66.6,64.6 102.6,138.7 103.6,216.3 0.3,27.2 -3.7,54.2 -11.8,80.6" style="fill:#ff9d4d;fill-opacity:1;fill-rule:nonzero;stroke:none" id="path2958" transform="matrix(0.133333, 0, 0, -0.133333, 0, 5287.013184)"/>
  <path d="m 38242.8,16650.8 80.4,-47.9 c -1.8,-0.8 -3.6,-1.7 -5.4,-2.7 l -44.8,-25.1 -75.2,44.7 25.2,14.1 c 9,5 15.6,10.7 19.8,16.9" style="fill:#d1975d;fill-opacity:1;fill-rule:nonzero;stroke:none" id="path2960" transform="matrix(0.133333, 0, 0, -0.133333, 0, 5287.013184)"/>
  <path d="m 38058.5,16684.3 10.6,6 5.2,2.9 h 0.1 l 29.4,16.4 c 1.7,1 3.5,1.7 5.3,2.5 6,2.9 12.3,5.2 19.2,6.8 9.4,2.1 19.7,3 30.9,2.7 21,-0.7 40.8,-6.3 59.2,-17.1 l 1.3,-0.8 c 3.4,-1.9 6.4,-3.9 9.2,-6 13.1,-9.7 19.5,-19.9 19.2,-30.6 -0.2,-5.9 -1.9,-11.3 -5.3,-16.3 -3.3,-5 -8.3,-9.6 -14.7,-13.8 -1.6,-1.1 -3.3,-2.1 -5.1,-3.1 l -5.5,-3.1 -19.7,-11 -60.8,-34.2 v 0.1 l -16.6,-9.4 -26.2,-14.6 -14.3,8.5 -15.9,9.5 -6.8,4 -30.2,18 -56.2,33.4 15.8,8.9 26.9,15.1 v 0 z m 259.3,-84.1 c 1.8,1 3.6,1.9 5.4,2.7 7,3.3 14.6,5.7 22.8,7.1 10,1.8 20.2,2.4 30.8,1.9 l 1.6,-0.1 c 3,-0.2 5.9,-0.4 8.9,-0.8 8.1,-0.9 16.3,-2.5 24.4,-4.8 11,-3.1 21,-7.3 29.7,-12.4 8.8,-5.2 15.4,-11.1 20,-17.5 4.5,-6.5 6.8,-13.1 7,-19.6 0.1,-6.6 -2,-12.9 -6.5,-19.2 -2.7,-3.8 -6.3,-7.3 -10.7,-10.6 -2.1,-1.7 -4.6,-3.3 -7.1,-4.8 l -2.2,-1.4 -38.6,-21.6 -1.3,-0.7 -16.2,-9.1 -10.7,-6 -34,-19 -42.7,-24 -129,76.7 14,7.8 28.7,16.2 v 0 l 4.2,2.3 10.7,5.9 46,25.8 z m 164.9,-149.8 v 0 l 82.4,-49 50,28 -82.6,49.1 2.2,1.5 c 3.7,2.2 7.2,4.5 10.6,6.8 11.9,8.2 22.2,16.7 30.9,25.6 13.9,14.1 22.9,28.5 27,43 4.1,14.5 2.6,28.8 -4.7,42.8 -7.2,14 -21.1,27.2 -41.8,39.5 -3.1,1.8 -6.2,3.5 -9.4,5.2 -3.4,1.9 -6.9,3.6 -10.4,5.3 -26.7,12.8 -55.1,20.5 -85.4,23.3 -21.3,1.9 -42.4,1.6 -63.4,-1.1 -3.5,-0.4 -7.1,-0.9 -10.6,-1.5 -12.8,-2.1 -25.5,-5 -38.1,-8.8 13.2,19.1 15.4,38.2 6.7,57.5 -8.8,19.2 -25.2,35.9 -49.1,50.2 -15.2,9 -32.9,16.4 -53.2,22.3 -20.3,5.8 -41.2,9.5 -62.8,11 -21.5,1.5 -42.9,0.5 -64.3,-3 -21.4,-3.4 -40.7,-10 -57.9,-19.7 l -15.8,-8.8 -79.4,47.2 -50,-28 79.4,-47.2 -60.9,-34.2 -79.4,47.3 -50,-28.1 79.4,-47.2 -89.3,-50 104.7,-62.3 10.4,-6.2 147.9,-87.9 10.5,-6.3 147.9,-87.9 10.5,-6.2 57.8,-34.4 89.3,50.1 v 0 l 82.5,-49.1 50,28.1 -82.5,49 h 0.1 l 60.8,34.1" style="fill:#ff9d4d;fill-opacity:1;fill-rule:nonzero;stroke:none" id="path2962" transform="matrix(0.133333, 0, 0, -0.133333, 0, 5287.013184)"/>
  <path d="m 37449.1,16364.8 -2.2,-174.2 c -3.7,4.7 -7.1,9.4 -10.4,14.2 l 2.2,174.2 c 3.3,-4.8 6.8,-9.5 10.4,-14.2" style="fill:#ffe840;fill-opacity:1;fill-rule:nonzero;stroke:none" id="path2964" transform="matrix(0.133333, 0, 0, -0.133333, 0, 5287.013184)"/>
  <path d="m 37584.7,16247.5 -2.2,-174.2 c -3.5,2.2 -7,4.4 -10.5,6.6 l 2.3,174.3 c 3.4,-2.3 6.9,-4.5 10.4,-6.7" style="fill:#ffe840;fill-opacity:1;fill-rule:nonzero;stroke:none" id="path2966" transform="matrix(0.133333, 0, 0, -0.133333, 0, 5287.013184)"/>
  <path d="m 37743.3,16169 -2.2,-174.3 c -3.5,1.4 -7.1,2.7 -10.5,4.2 l 2.2,174.2 c 3.5,-1.4 7,-2.8 10.5,-4.1" style="fill:#ffe840;fill-opacity:1;fill-rule:nonzero;stroke:none" id="path2968" transform="matrix(0.133333, 0, 0, -0.133333, 0, 5287.013184)"/>
  <path d="m 37902.3,16120.4 -2.2,-174.2 c -3.5,0.8 -7,1.6 -10.6,2.5 l 2.3,174.2 c 3.5,-0.8 7,-1.7 10.5,-2.5" style="fill:#ffe840;fill-opacity:1;fill-rule:nonzero;stroke:none" id="path2970" transform="matrix(0.133333, 0, 0, -0.133333, 0, 5287.013184)"/>
  <path d="m 38061.5,16093.3 -2.2,-174.3 c -3.5,0.4 -7,0.8 -10.5,1.2 l 2.2,174.3 c 3.5,-0.5 7,-0.9 10.5,-1.2" style="fill:#ffe840;fill-opacity:1;fill-rule:nonzero;stroke:none" id="path2972" transform="matrix(0.133333, 0, 0, -0.133333, 0, 5287.013184)"/>
  <path d="m 38221,16084 -2.2,-174.2 c -3.5,0 -7,0 -10.6,0.1 l 2.3,174.2 c 3.5,-0.1 7,-0.1 10.5,-0.1" style="fill:#ffe840;fill-opacity:1;fill-rule:nonzero;stroke:none" id="path2974" transform="matrix(0.133333, 0, 0, -0.133333, 0, 5287.013184)"/>
  <path d="m 38380.7,16092 -2.2,-174.3 c -3.6,-0.3 -7.1,-0.7 -10.6,-1 l 2.2,174.2 c 3.5,0.3 7.1,0.7 10.6,1.1" style="fill:#ffe840;fill-opacity:1;fill-rule:nonzero;stroke:none" id="path2976" transform="matrix(0.133333, 0, 0, -0.133333, 0, 5287.013184)"/>
  <path d="m 38540.6,16118.2 -2.2,-174.2 c -3.5,-0.9 -7,-1.6 -10.6,-2.4 l 2.3,174.3 c 3.5,0.7 7,1.5 10.5,2.3" style="fill:#ffe840;fill-opacity:1;fill-rule:nonzero;stroke:none" id="path2978" transform="matrix(0.133333, 0, 0, -0.133333, 0, 5287.013184)"/>
  <path d="m 38700.8,16166.7 -2.2,-174.2 c -3.5,-1.3 -7.1,-2.7 -10.6,-4 l 2.2,174.3 c 3.6,1.2 7.1,2.6 10.6,3.9" style="fill:#ffe840;fill-opacity:1;fill-rule:nonzero;stroke:none" id="path2980" transform="matrix(0.133333, 0, 0, -0.133333, 0, 5287.013184)"/>
  <path d="m 38861.5,16247.7 -2.3,-174.2 c -3.5,-2.3 -7,-4.5 -10.6,-6.8 l 2.2,174.3 c 3.6,2.2 7.2,4.5 10.7,6.7" style="fill:#ffe840;fill-opacity:1;fill-rule:nonzero;stroke:none" id="path2982" transform="matrix(0.133333, 0, 0, -0.133333, 0, 5287.013184)"/>
  <path d="m 39004.8,16386.4 -2.2,-174.2 c -3.4,-5.4 -7,-10.8 -10.8,-16.2 l 2.2,174.2 c 3.8,5.4 7.4,10.8 10.8,16.2" style="fill:#ffe840;fill-opacity:1;fill-rule:nonzero;stroke:none" id="path2984" transform="matrix(0.133333, 0, 0, -0.133333, 0, 5287.013184)"/>
</svg>