<?xml version="1.0" encoding="utf-8"?>
<svg viewBox="4077 1422.848 953.447 1256.086" width="953.447" height="1256.086" xmlns="http://www.w3.org/2000/svg">
  <defs>
    <clipPath clipPathUnits="userSpaceOnUse" id="clipPath2082">
      <path d="m 36052.7,25739.7 143.8,-915.5 c 10.6,-67.7 -6,-137 -46.3,-192.5 l -358.2,-493.4 -169,351.2 262.8,435.4 -262.8,814.8 z" id="path2080"/>
    </clipPath>
    <linearGradient x1="0" y1="0" x2="1" y2="0" gradientUnits="userSpaceOnUse" gradientTransform="matrix(576.645,0,0,-576.645,35623,24939)" spreadMethod="pad" id="linearGradient2088">
      <stop style="stop-opacity:1;stop-color:#6a5ebf" offset="0" id="stop2084"/>
      <stop style="stop-opacity:1;stop-color:#6e3aa5" offset="1" id="stop2086"/>
    </linearGradient>
    <clipPath clipPathUnits="userSpaceOnUse" id="clipPath2104">
      <path d="m 36016.5,21393.6 v -2 l -415.3,7.3 -239.5,1096.4 -72.5,1331.1 676,81.3 -1.1,-13.7 -118.6,-1350.7 c 50.7,-168 89.9,-338.9 118,-511.9 28.1,-172.7 44.5,-347.4 49.7,-522.7 z" id="path2102"/>
    </clipPath>
    <linearGradient x1="0" y1="0" x2="1" y2="0" gradientUnits="userSpaceOnUse" gradientTransform="matrix(727.297,0,0,-727.297,35289.2,22649.7)" spreadMethod="pad" id="linearGradient2110">
      <stop style="stop-opacity:1;stop-color:#6a5ebf" offset="0" id="stop2106"/>
      <stop style="stop-opacity:1;stop-color:#6e3aa5" offset="1" id="stop2108"/>
    </linearGradient>
    <clipPath clipPathUnits="userSpaceOnUse" id="clipPath2120">
      <path d="m 36016.5,21393.6 -301.2,5.3 -239.4,1096.4 -155.8,1321 644,77.7 -118.6,-1350.7 c 50.7,-168 89.9,-338.9 118,-511.9 28.1,-172.7 44.5,-347.4 49.7,-522.7 z" id="path2118"/>
    </clipPath>
    <linearGradient x1="0" y1="0" x2="1" y2="0" gradientUnits="userSpaceOnUse" gradientTransform="matrix(696.333,0,0,-696.333,35320.1,22643.8)" spreadMethod="pad" id="linearGradient2126">
      <stop style="stop-opacity:1;stop-color:#2e256b" offset="0" id="stop2122"/>
      <stop style="stop-opacity:1;stop-color:#5a3087" offset="1" id="stop2124"/>
    </linearGradient>
    <clipPath clipPathUnits="userSpaceOnUse" id="clipPath2136">
      <path d="m 35481.5,20988.6 v -3 l -466,8.2 -268.7,1230.2 -81.6,1493.5 758.6,91 -1.8,-19.3 -132.2,-1511.4 c 56.7,-188.8 100.6,-380.5 132.2,-574.5 31.4,-193.8 49.8,-389.9 55.6,-586.5 z" id="path2134"/>
    </clipPath>
    <linearGradient x1="0" y1="0" x2="1" y2="0" gradientUnits="userSpaceOnUse" gradientTransform="matrix(816.271,0,0,-816.271,34665.2,22397.1)" spreadMethod="pad" id="linearGradient2142">
      <stop style="stop-opacity:1;stop-color:#6a5ebf" offset="0" id="stop2138"/>
      <stop style="stop-opacity:1;stop-color:#6e3aa5" offset="1" id="stop2140"/>
    </linearGradient>
    <clipPath clipPathUnits="userSpaceOnUse" id="clipPath2152">
      <path d="m 35481.5,20988.6 -307.6,5.2 -268.7,1230.2 -81.4,1493.5 598.2,71.7 -132.2,-1511.4 c 56.7,-188.8 100.6,-380.5 132.2,-574.5 31.4,-193.8 49.8,-389.9 55.6,-586.5 z" id="path2150"/>
    </clipPath>
    <linearGradient x1="0" y1="0" x2="1" y2="0" gradientUnits="userSpaceOnUse" gradientTransform="matrix(657.642,0,0,-657.642,34823.8,22388.9)" spreadMethod="pad" id="linearGradient2158">
      <stop style="stop-opacity:1;stop-color:#2e256b" offset="0" id="stop2154"/>
      <stop style="stop-opacity:1;stop-color:#5a3087" offset="1" id="stop2156"/>
    </linearGradient>
    <clipPath clipPathUnits="userSpaceOnUse" id="clipPath2168">
      <path d="m 35081.7,25824.5 c -285.4,-49 -496.5,-330 -501.7,-619.6 -8.8,-490.9 -65.8,-1242.3 2.7,-1713.9 9.7,-66.5 64,-117.5 131.1,-122.1 l 240.3,-16.4 c 353.7,-24.3 552.8,180.5 886.1,301.2 131.2,47.5 214.9,176.2 205.2,315.3 l -135.3,841.2 142.6,929.5 c 2.7,225.5 -209.6,392 -428,335.6 z" id="path2166"/>
    </clipPath>
    <linearGradient x1="0" y1="0" x2="1" y2="0" gradientUnits="userSpaceOnUse" gradientTransform="matrix(1503.34,0,0,-1503.34,34549.4,24718.4)" spreadMethod="pad" id="linearGradient2174">
      <stop style="stop-opacity:1;stop-color:#2e256b" offset="0" id="stop2170"/>
      <stop style="stop-opacity:1;stop-color:#5a3087" offset="1" id="stop2172"/>
    </linearGradient>
    <clipPath clipPathUnits="userSpaceOnUse" id="clipPath2192">
      <path d="m 34726.5,25095.6 -1018.8,164.5 -37.3,6 c -58.4,9.4 -104.4,49.6 -124.1,101.2 l -409.5,976.3 192.5,93.3 461.1,-768.5 967.6,29.4 c 167.2,9.3 310.4,-118.7 319.7,-286 9.3,-167.2 -118.7,-310.3 -286,-319.6 -21.7,-1.3 -44.6,0.2 -65.2,3.4 z" id="path2190"/>
    </clipPath>
    <linearGradient x1="0" y1="0" x2="1" y2="0" gradientUnits="userSpaceOnUse" gradientTransform="matrix(1941.35,0,0,-1941.35,33136.8,25764.3)" spreadMethod="pad" id="linearGradient2198">
      <stop style="stop-opacity:1;stop-color:#6a5ebf" offset="0" id="stop2194"/>
      <stop style="stop-opacity:1;stop-color:#6e3aa5" offset="1" id="stop2196"/>
    </linearGradient>
  </defs>
  <path d="m 34204.1,28524 76.9,111 -392,222.7 c -7.3,4.3 -14.6,8.5 -22.1,12.5 l -0.3,0.2 v 0 c -344.8,188.3 -847.2,142.2 -1406.6,-180.7 -1039.7,-600.3 -1882.5,-1929.7 -1882.5,-2969.4 0,-436.4 148.5,-752.3 397.7,-927.7 v 0 l 0.1,-0.1 c 37,-26 76.2,-49 117.5,-68.7 l 340.4,-199.1 75.2,108.4 c 279.2,-2.7 604.4,91.1 951.6,291.5 1039.7,600.3 1882.5,1929.7 1882.5,2969.4 0,251.2 -49.2,462.4 -138.4,630" style="fill:#ff9d4d;fill-opacity:1;fill-rule:nonzero;stroke:none" id="path2036" transform="matrix(0.133333, 0, 0, -0.133333, 0, 5287.013184)"/>
  <path d="m 33399.9,28981.2 c -128.4,0 -266.4,-20.2 -411.5,-61.7 -13.3,-3.7 -26.5,-7.7 -39.9,-11.8 v 0 c -139.5,-43.2 -285.4,-105.7 -435.7,-188.3 -10.2,-5.6 -20.4,-11.3 -30.7,-17.2 -7.3,-4.1 -14.7,-8.3 -22,-12.6 -113.7,-65.6 -224.9,-139.8 -333,-221.6 -8.7,-6.5 -17.4,-13.1 -26,-19.8 -105.2,-81.1 -207.3,-169 -305.5,-262.8 -7.5,-7.2 -15.1,-14.5 -22.6,-21.8 -93,-90.1 -182.4,-185.3 -267.5,-284.7 -6.6,-7.7 -13.3,-15.5 -19.8,-23.3 -82.7,-97.8 -161.2,-199.4 -234.8,-303.7 -5.8,-8.2 -11.7,-16.5 -17.4,-24.8 -73,-104.8 -141.1,-212.4 -203.7,-321.6 -5,-8.7 -10,-17.5 -14.9,-26.2 -63.2,-112.1 -120.5,-225.8 -171.4,-340.2 -4.1,-9.3 -8.2,-18.5 -12.2,-27.8 -52.4,-120.4 -97.5,-241.3 -134.6,-361.5 -3,-9.9 -6,-19.8 -8.9,-29.7 -39.1,-131.2 -68.4,-261.4 -86.9,-388.9 -1.6,-10.8 -3.1,-21.6 -4.4,-32.3 -12.5,-94.7 -19,-187.7 -19,-278.6 0,-52.9 2.2,-104 6.5,-153.4 1.1,-12.4 2.3,-24.8 3.7,-36.9 37.2,-338.8 176.1,-588.6 387.5,-737.4 l 0.2,-0.1 c 36.9,-26 76.2,-49 117.4,-68.7 l 340.4,-199.1 75.2,108.5 c 3.9,-0.1 7.8,-0.1 11.8,-0.1 276.5,0 597.5,93.9 939.9,291.6 1039.6,600.2 1882.4,1929.7 1882.4,2969.3 0,251.2 -49.2,462.5 -138.4,630 l 76.9,111 -391.9,222.7 c -7.3,4.2 -14.7,8.5 -22.2,12.6 l -0.3,0.1 c -133.8,73.1 -291.3,110.8 -466.7,110.8 z m 0,-30.1 c 169.9,0 322.1,-36.1 452.2,-107.2 l 1.7,-0.8 c 6.7,-3.8 13.4,-7.6 20.4,-11.7 l 363.2,-206.4 -58.1,-83.8 -10.5,-15.2 8.7,-16.2 c 89.5,-168 134.8,-375.2 134.8,-615.8 0,-1028.4 -837.7,-2348.7 -1867.3,-2943.2 -325.8,-188.1 -645.6,-287.5 -924.8,-287.5 -3.9,0 -7.7,0 -11.6,0 l -15.9,0.2 -9.2,-13.1 -59.2,-85.6 -316.3,185 -1,0.6 -1.1,0.6 c -39.7,19 -77.8,41.3 -113.2,66.2 l -1.6,1.1 c -209.2,147.9 -338.3,395.1 -373.4,715.1 -1.4,11.8 -2.6,24 -3.6,36.1 -4.2,48.3 -6.4,99 -6.4,150.8 0,88.3 6.3,180.7 18.7,274.9 1.3,10.5 2.8,21 4.3,31.6 18.1,124.2 47,253.6 86.1,384.8 2.8,9.8 5.8,19.5 8.8,29.3 36.2,117.7 81.1,238.2 133.4,358.5 4,9.1 8,18.2 12.1,27.5 50.2,112.9 107.4,226.5 170.2,337.7 4.8,8.6 9.6,17.2 14.7,25.9 62,108.2 130.1,215.7 202.3,319.4 5.6,8.1 11.4,16.4 17.3,24.6 73.2,103.8 151.6,205.2 233.2,301.7 6.5,7.7 13,15.4 19.6,23.1 84.7,98.8 174,193.9 265.6,282.7 7.4,7.2 14.8,14.3 22.5,21.6 97.8,93.4 199.8,181.1 303,260.7 8.5,6.6 17.1,13.2 25.8,19.7 108.2,81.7 219.1,155.6 329.9,219.5 7.2,4.2 14.4,8.3 21.9,12.5 10.1,5.8 20.2,11.4 30.2,17 144.5,79.4 287.7,141.5 425.7,184.5 h 0.1 l 4.3,1.3 c 15.1,4.7 27.5,8.4 39.2,11.7 140.6,40.2 276.3,60.6 403.3,60.6" style="fill:#ffe840;fill-opacity:1;fill-rule:nonzero;stroke:none" id="path2038" transform="matrix(0.133333, 0, 0, -0.133333, 0, 5287.013184)"/>
  <path d="m 34724.2,27673.7 c 0,-1039.6 -842.8,-2369.1 -1882.5,-2969.3 -1039.6,-600.3 -1882.5,-244.1 -1882.5,795.6 0,1039.7 842.9,2369.1 1882.5,2969.4 1039.7,600.3 1882.5,244 1882.5,-795.7" style="fill:#ffd071;fill-opacity:1;fill-rule:nonzero;stroke:none" id="path2040" transform="matrix(0.133333, 0, 0, -0.133333, 0, 5287.013184)"/>
  <path d="m 34724.2,27673.7 c 0,-1039.6 -842.8,-2369.1 -1882.5,-2969.3 -1039.6,-600.3 -1882.5,-244.1 -1882.5,795.6 0,1039.7 842.9,2369.1 1882.5,2969.4 1039.7,600.3 1882.5,244 1882.5,-795.7" style="fill:#ffe840;fill-opacity:1;fill-rule:nonzero;stroke:none" id="path2042" transform="matrix(0.133333, 0, 0, -0.133333, 0, 5287.013184)"/>
  <path d="m 32890,28141.1 c -857,-494.8 -1554.2,-1594.5 -1554.2,-2451.5 0,-857.1 697.2,-1151.7 1554.2,-656.9 857,494.7 1554.2,1594.5 1554.2,2451.5 0,857 -697.2,1151.7 -1554.2,656.9 z m 0,-3199 c -439.3,-253.6 -852.3,-321 -1163,-189.7 -310.7,131.3 -481.7,445.6 -481.7,884.9 0,439.3 171,951.1 481.7,1441.1 310.7,490 723.7,899.6 1163,1153.2 439.3,253.7 852.4,321.1 1163,189.8 310.7,-131.3 481.8,-445.6 481.8,-884.9 0,-439.3 -171.1,-951.2 -481.8,-1441.2 -310.6,-490 -723.7,-899.5 -1163,-1153.2" style="fill:#ff9d4d;fill-opacity:1;fill-rule:nonzero;stroke:none" id="path2044" transform="matrix(0.133333, 0, 0, -0.133333, 0, 5287.013184)"/>
  <path d="m 33120.3,26864.9 v -250.6 c -5.2,-2.6 -10.5,-5.4 -16,-8.6 l -137.6,-79.4 v 234.3 l 77.4,44.6 c 27.7,16 53.1,35.9 76.2,59.7" style="fill:#d1975d;fill-opacity:1;fill-rule:nonzero;stroke:none" id="path2046" transform="matrix(0.133333, 0, 0, -0.133333, 0, 5287.013184)"/>
  <path d="m 33267.6,26418.5 c -10,-30.2 -23.6,-59.2 -40.8,-87 -17.2,-27.8 -37.6,-53.6 -61.2,-77.2 -14.5,-14.5 -29.5,-27.4 -45.3,-38.9 -10.1,-7.4 -20.4,-14.1 -31,-20.2 l -122.6,-70.8 -318,-183.6 v 401.9 l 131.2,75.7 324.4,187.3 c 5.5,3.2 10.8,6 16,8.6 19.6,9.5 38,15 54.9,16.3 21.5,1.6 40.1,-2.3 55.9,-11.8 15.8,-9.6 28.3,-24.2 37.6,-43.8 9.3,-19.8 14,-43.2 14,-70.4 0,-27.3 -5.1,-56 -15.1,-86.1 z m -618.9,543.2 408.3,235.7 c 22.9,13.2 44,21.3 63.3,24.5 20.7,3.3 39.3,0.9 56,-7.2 32.2,-15.8 48.4,-53.1 48.4,-111.8 0,-60.2 -17.6,-117.6 -52.7,-172.2 -15.7,-24.5 -33,-46.4 -51.7,-65.8 -23.1,-23.7 -48.5,-43.7 -76.2,-59.7 l -264.2,-152.5 -131.2,-75.7 z m 856.4,-134.2 c -50.9,37.2 -120,43.5 -207.4,18.9 71.6,72.8 126.1,152.6 163.3,239.3 37.3,86.7 55.9,167.3 55.9,241.8 0,47.3 -8.2,89.4 -24.7,126.5 -16.5,37.1 -39.8,65.2 -69.8,84.3 -30.1,19.2 -66.7,27.8 -109.6,26 -43,-2 -91,-18.2 -144,-48.8 l -48.5,-28 v 247.5 l -153.6,-88.7 v -247.5 l -186.8,-107.8 v 247.4 l -153.6,-88.6 v -247.5 l -274.2,-158.3 v -1525.9 l 274.2,158.3 v -256.9 l 153.6,88.7 v 256.9 l 186.8,107.9 v -257 l 153.6,88.7 v 257.6 c 55.8,34.5 108.9,73.5 159.2,117 59.4,51.6 111.7,106.8 156.8,165.8 45.1,59 80.6,120.4 106.4,183.9 25.8,63.6 38.7,127.7 38.7,192.2 0,100.2 -25.5,169 -76.3,206.3" style="fill:#ff9d4d;fill-opacity:1;fill-rule:nonzero;stroke:none" id="path2048" transform="matrix(0.133333, 0, 0, -0.133333, 0, 5287.013184)"/>
  <path d="m 33029.4,28421.1 -15.1,-26.1 -532.2,307.2 c 10.3,5.9 20.5,11.6 30.7,17.2 l 516.6,-298.3" style="fill:#ffe840;fill-opacity:1;fill-rule:nonzero;stroke:none" id="path2050" transform="matrix(0.133333, 0, 0, -0.133333, 0, 5287.013184)"/>
  <path d="m 32559.2,28218.6 -15.1,-26.1 -443,255.7 c 8.6,6.7 17.3,13.3 26,19.8 l 432.1,-249.4" style="fill:#ffe840;fill-opacity:1;fill-rule:nonzero;stroke:none" id="path2052" transform="matrix(0.133333, 0, 0, -0.133333, 0, 5287.013184)"/>
  <path d="m 32231.8,27933.6 -15.1,-26.1 -443.7,256.1 c 7.5,7.3 15.1,14.6 22.6,21.8 l 436.2,-251.8" style="fill:#ffe840;fill-opacity:1;fill-rule:nonzero;stroke:none" id="path2054" transform="matrix(0.133333, 0, 0, -0.133333, 0, 5287.013184)"/>
  <path d="m 31904.4,27648.6 -15.1,-26.1 -403.6,233.1 c 6.5,7.8 13.2,15.6 19.8,23.3 l 398.9,-230.3" style="fill:#ffe840;fill-opacity:1;fill-rule:nonzero;stroke:none" id="path2056" transform="matrix(0.133333, 0, 0, -0.133333, 0, 5287.013184)"/>
  <path d="m 31719.5,27281.3 -15.1,-26.1 -470.9,271.9 c 5.7,8.3 11.6,16.6 17.4,24.8 l 468.6,-270.6" style="fill:#ffe840;fill-opacity:1;fill-rule:nonzero;stroke:none" id="path2058" transform="matrix(0.133333, 0, 0, -0.133333, 0, 5287.013184)"/>
  <path d="m 31600.6,26873.5 -15.1,-26.1 -570.6,331.9 c 4.9,8.7 9.9,17.5 14.9,26.2 l 570.8,-332" style="fill:#ffe840;fill-opacity:1;fill-rule:nonzero;stroke:none" id="path2060" transform="matrix(0.133333, 0, 0, -0.133333, 0, 5287.013184)"/>
  <path d="m 31368.3,26536.1 -15,-26.1 -522,301.3 c 4,9.3 8.1,18.5 12.2,27.8 l 524.8,-303" style="fill:#ffe840;fill-opacity:1;fill-rule:nonzero;stroke:none" id="path2062" transform="matrix(0.133333, 0, 0, -0.133333, 0, 5287.013184)"/>
  <path d="m 31280,26113 -15.1,-26.1 -577.1,333.2 c 2.9,9.9 5.9,19.8 8.9,29.7 L 31280,26113" style="fill:#ffe840;fill-opacity:1;fill-rule:nonzero;stroke:none" id="path2064" transform="matrix(0.133333, 0, 0, -0.133333, 0, 5287.013184)"/>
  <path d="m 31130.9,25725.2 -15.1,-26.1 -519.3,299.8 c 1.3,10.7 2.8,21.5 4.4,32.3 l 530,-306" style="fill:#ffe840;fill-opacity:1;fill-rule:nonzero;stroke:none" id="path2066" transform="matrix(0.133333, 0, 0, -0.133333, 0, 5287.013184)"/>
  <path d="m 31153.1,25238.3 -15.1,-26.1 -550.3,317.8 c -1.4,12.1 -2.6,24.5 -3.7,36.9 l 569.1,-328.6" style="fill:#ffe840;fill-opacity:1;fill-rule:nonzero;stroke:none" id="path2068" transform="matrix(0.133333, 0, 0, -0.133333, 0, 5287.013184)"/>
  <path d="m 33481.5,28634.8 -15.1,-26.1 -517.9,299 c 13.4,4.1 26.6,8.1 39.9,11.8 l 493.1,-284.7" style="fill:#ffe840;fill-opacity:1;fill-rule:nonzero;stroke:none" id="path2070" transform="matrix(0.133333, 0, 0, -0.133333, 0, 5287.013184)"/>
  <path d="m 37218.5,21276.2 c 679.8,-392.5 679.8,-1028.8 0,-1421.3 -679.8,-392.4 -1781.9,-392.4 -2461.7,0 -679.8,392.5 -679.8,1028.8 0,1421.3 679.8,392.5 1781.9,392.5 2461.7,0" style="fill:#e3dfea;fill-opacity:1;fill-rule:nonzero;stroke:none" id="path2072" transform="matrix(0.133333, 0, 0, -0.133333, 0, 5287.013184)"/>
  <path d="m 33140,26339.3 -146.8,125.1 c -11.8,10.1 -21.5,22.5 -28.4,36.4 l -7.9,16 c -11.9,23.9 -9,52.6 7.3,73.7 l 47.8,61.7 c 1.3,1.7 2.9,3 4.8,3.8 l 80.5,35 c 6.2,2.7 9,9.9 6.4,16.2 l -102.1,241.1 c -2.5,5.9 0,12.7 5.6,15.7 15.2,8 34,2.7 42.7,-12 l 125.8,-212.6 1.7,-2.2 74.5,-78.4 c 7.8,-8.3 21.6,-2.5 21.2,8.9 l -3.5,109.8 c -0.8,24.5 14.8,46.5 38.1,53.7 l 2.3,0.7 c 8.1,2.5 16.2,-3.6 16.1,-12 l -1.3,-68.1 c -0.3,-20 2.6,-39.9 8.6,-58.9 l 20.6,-64.6 c 6.5,-20.6 4.3,-43 -6.2,-61.9 l -33.3,-60.3 c -1.6,-2.8 -2,-6.1 -1.2,-9.2 l 18.5,-69.4 c 1.6,-5.9 -1.3,-12.1 -6.9,-14.5 l -171.9,-75.6 c -4.4,-1.9 -9.4,-1.2 -13,1.9" style="fill:#ffd0a6;fill-opacity:1;fill-rule:nonzero;stroke:none" id="path2074" transform="matrix(0.133333, 0, 0, -0.133333, 0, 5287.013184)"/>
  <g id="g2076" transform="matrix(0.133333, 0, 0, -0.133333, 0, 5287.013184)">
    <g id="g2078" clip-path="url(#clipPath2082)">
      <path d="m 36052.7,25739.7 143.8,-915.5 c 10.6,-67.7 -6,-137 -46.3,-192.5 l -358.2,-493.4 -169,351.2 262.8,435.4 -262.8,814.8 h 429.7" style="fill:url(#linearGradient2088);fill-opacity:1;fill-rule:nonzero;stroke:none" id="path2090"/>
    </g>
  </g>
  <path d="m 35481.2,20711.9 c 0.2,3.1 0.2,6.3 0,9.5 l -95.5,336 h -299.9 l 4.3,-39.6 14,-123.1 c -82,25.8 -171.8,13 -243.1,-35.5 l -29.6,-23.7 c -24.6,-19.3 -31,-49.5 -22.8,-74.9 6.7,-20.5 22.8,-38.1 47.1,-45.1 l 410,-143.7 c 100.4,-45.1 215.2,26.6 215.8,134.9 v 1.2 c 0,0 -0.1,1.7 -0.3,4" style="fill:#281a10;fill-opacity:1;fill-rule:nonzero;stroke:none" id="path2092" transform="matrix(0.133333, 0, 0, -0.133333, 0, 5287.013184)"/>
  <path d="m 35958.9,21184.4 v -1.2 c -0.6,-108.5 -115.3,-180.2 -215.7,-134.9 l -399.5,139.9 c -8.2,25.5 -1.8,55.6 22.8,74.9 l 29.6,23.8 c 74.9,50.9 170.3,62.6 255.5,31.3 l 303.8,-112.1 c 0.9,-2.7 1.4,-5.3 2,-7.9 1.2,-4.4 1.5,-13.8 1.5,-13.8" style="fill:#281a10;fill-opacity:1;fill-rule:nonzero;stroke:none" id="path2094" transform="matrix(0.133333, 0, 0, -0.133333, 0, 5287.013184)"/>
  <path d="m 36016.3,21139.6 c 0.2,3.1 0.2,6.2 0,9.4 l -95.5,336 h -300 l 4.4,-39.5 14,-123.2 c -82,25.9 -171.8,13 -243.1,-35.4 l -29.6,-23.8 c -24.6,-19.3 -31,-49.4 -22.8,-74.9 6.7,-20.5 22.8,-38 47.1,-45 l 410,-143.8 c 100.4,-45 215.2,26.7 215.7,135 v 1.1 c 0,0 0,1.8 -0.2,4.1" style="fill:#281a10;fill-opacity:1;fill-rule:nonzero;stroke:none" id="path2096" transform="matrix(0.133333, 0, 0, -0.133333, 0, 5287.013184)"/>
  <g id="g2098" transform="matrix(0.133333, 0, 0, -0.133333, 0, 5287.013184)">
    <g id="g2100" clip-path="url(#clipPath2104)">
      <path d="m 36016.5,21393.6 v -2 l -415.3,7.3 -239.5,1096.4 -72.5,1331.1 676,81.3 -1.1,-13.7 -118.6,-1350.7 c 50.7,-168 89.9,-338.9 118,-511.9 28.1,-172.7 44.5,-347.4 49.7,-522.7 l 3.3,-115.1" style="fill:url(#linearGradient2110);fill-opacity:1;fill-rule:nonzero;stroke:none" id="path2112"/>
    </g>
  </g>
  <g id="g2114" transform="matrix(0.133333, 0, 0, -0.133333, 0, 5287.013184)">
    <g id="g2116" clip-path="url(#clipPath2120)">
      <path d="m 36016.5,21393.6 -301.2,5.3 -239.4,1096.4 -155.8,1321 644,77.7 -118.6,-1350.7 c 50.7,-168 89.9,-338.9 118,-511.9 28.1,-172.7 44.5,-347.4 49.7,-522.7 l 3.3,-115.1" style="fill:url(#linearGradient2126);fill-opacity:1;fill-rule:nonzero;stroke:none" id="path2128"/>
    </g>
  </g>
  <g id="g2130" transform="matrix(0.133333, 0, 0, -0.133333, 0, 5287.013184)">
    <g id="g2132" clip-path="url(#clipPath2136)">
      <path d="m 35481.5,20988.6 v -3 l -466,8.2 -268.7,1230.2 -81.6,1493.5 758.6,91 -1.8,-19.3 -132.2,-1511.4 c 56.7,-188.8 100.6,-380.5 132.2,-574.5 31.4,-193.8 49.8,-389.9 55.6,-586.5 l 3.9,-128.2" style="fill:url(#linearGradient2142);fill-opacity:1;fill-rule:nonzero;stroke:none" id="path2144"/>
    </g>
  </g>
  <g id="g2146" transform="matrix(0.133333, 0, 0, -0.133333, 0, 5287.013184)">
    <g id="g2148" clip-path="url(#clipPath2152)">
      <path d="m 35481.5,20988.6 -307.6,5.2 -268.7,1230.2 -81.4,1493.5 598.2,71.7 -132.2,-1511.4 c 56.7,-188.8 100.6,-380.5 132.2,-574.5 31.4,-193.8 49.8,-389.9 55.6,-586.5 l 3.9,-128.2" style="fill:url(#linearGradient2158);fill-opacity:1;fill-rule:nonzero;stroke:none" id="path2160"/>
    </g>
  </g>
  <g id="g2162" transform="matrix(0.133333, 0, 0, -0.133333, 0, 5287.013184)">
    <g id="g2164" clip-path="url(#clipPath2168)">
      <path d="m 35081.7,25824.5 c -285.4,-49 -496.5,-330 -501.7,-619.6 -8.8,-490.9 -65.8,-1242.3 2.7,-1713.9 9.7,-66.5 64,-117.5 131.1,-122.1 l 240.3,-16.4 c 353.7,-24.3 552.8,180.5 886.1,301.2 131.2,47.5 214.9,176.2 205.2,315.3 l -135.3,841.2 142.6,929.5 c 2.7,225.5 -209.6,392 -428,335.6 l -543,-250.8" style="fill:url(#linearGradient2174);fill-opacity:1;fill-rule:nonzero;stroke:none" id="path2176"/>
    </g>
  </g>
  <path d="m 35592.2,26050.8 -67.2,163.7 97.1,279.4 c 87.5,149.6 74.5,337.5 -32.7,473.7 v 0 c -99.8,126.9 -263,186.3 -421.1,153.2 L 34978,27081 c -79.6,-16.6 -129.8,-95.7 -111,-174.9 l 0.5,-2.1 c 8.2,-34.3 9.9,-69.1 5.4,-103.5 l -21.5,-160.9 c -17.8,-56.1 -21,-115.9 -9.2,-173.7 l 13.7,-67.3 c 35.6,-109.9 153.3,-170.4 263.4,-135.4 l 34.7,-417.8 438.2,205.4" style="fill:#ffd0a6;fill-opacity:1;fill-rule:nonzero;stroke:none" id="path2178" transform="matrix(0.133333, 0, 0, -0.133333, 0, 5287.013184)"/>
  <path d="m 34874.7,26820.8 132.2,-112.2 c 0,0 21.6,-82.3 7.7,-175 -13.9,-92.8 165.5,-214.7 165.5,-214.7 l 103.2,-131.9 c 22,-28.1 56.5,-43.3 92.1,-40.5 l 120.7,9.5 c 66.1,5.2 123.6,47.6 147.5,109.4 21.8,56.1 44.9,121.1 49.1,154.3 4.4,33.9 34.3,102.7 62.3,161.2 36.5,76.6 46.9,163.3 27.1,245.7 -11.9,49.3 -29.3,100.5 -54.3,134.7 -63.2,86.3 -76.3,177.2 -242.6,216.2 -166.3,39 -431.6,51.1 -499.3,12.5 -67.8,-38.5 -57.9,-62.8 -120.3,-160 -62.5,-97.3 9.1,-209.2 9.1,-209.2" style="fill:#89603e;fill-opacity:1;fill-rule:nonzero;stroke:none" id="path2180" transform="matrix(0.133333, 0, 0, -0.133333, 0, 5287.013184)"/>
  <path d="m 35623,26057.6 -66.7,80.8 -412.7,-167.7 -11.1,-136.9 490.5,223.8" style="fill:#7b5baa;fill-opacity:1;fill-rule:nonzero;stroke:none" id="path2182" transform="matrix(0.133333, 0, 0, -0.133333, 0, 5287.013184)"/>
  <path d="m 35021.8,26448.1 41,59.6 c 16.4,23.8 56.1,29.2 81.3,11 14.9,-10.8 20.9,-27.3 15.7,-42.8 l -54.4,-159.4 -120.3,51.3 36.7,80.3" style="fill:#ffd0a6;fill-opacity:1;fill-rule:nonzero;stroke:none" id="path2184" transform="matrix(0.133333, 0, 0, -0.133333, 0, 5287.013184)"/>
  <g id="g2186" transform="matrix(0.133333, 0, 0, -0.133333, 0, 5287.013184)">
    <g id="g2188" clip-path="url(#clipPath2192)">
      <path d="m 34726.5,25095.6 -1018.8,164.5 -37.3,6 c -58.4,9.4 -104.4,49.6 -124.1,101.2 l -409.5,976.3 192.5,93.3 461.1,-768.5 967.6,29.4 c 167.2,9.3 310.4,-118.7 319.7,-286 9.3,-167.2 -118.7,-310.3 -286,-319.6 -21.7,-1.3 -44.6,0.2 -65.2,3.4" style="fill:url(#linearGradient2198);fill-opacity:1;fill-rule:nonzero;stroke:none" id="path2200"/>
    </g>
  </g>
</svg>