<?xml version="1.0" encoding="utf-8"?>
<svg viewBox="3784.746 170.122 1425.277 785.345" width="1425.277" height="785.345" xmlns="http://www.w3.org/2000/svg">
  <defs>
    <clipPath clipPathUnits="userSpaceOnUse" id="clipPath1090">
      <path d="m 38001.6,36093.6 h 841.5 v 479.3 h -841.5 c -49.9,136 -142.6,267.8 -278.3,388.1 l 594.9,343.5 -587.1,338.9 -595,-343.5 c -208.4,78.3 -436.6,131.7 -672.1,160.5 v 486.1 h -830.2 v -486.1 c -235.5,-28.8 -463.7,-82.2 -672.2,-160.5 l -595,343.5 -230.1,-132.8 -357,204.3 v -410.4 l 594.9,-343.5 c -135.6,-120.3 -228.4,-252.1 -278.2,-388.1 h -841.5 v -479.3 h 841.5 c 49.8,-136 142.6,-267.8 278.2,-388.1 l -594.9,-343.5 587.1,-338.9 595,343.5 c 208.5,-78.3 436.7,-131.7 672.2,-160.5 V 34720 h 830.2 v 486.1 c 235.5,28.8 463.7,82.2 672.1,160.5 l 595,-343.5 587.1,338.9 -594.9,343.5 c 135.7,120.3 228.4,252.1 278.3,388.1 z" id="path1088"/>
    </clipPath>
    <linearGradient x1="0" y1="0" x2="1" y2="0" gradientUnits="userSpaceOnUse" gradientTransform="matrix(5588.41,0,0,-5588.41,33254.7,36333.2)" spreadMethod="pad" id="linearGradient1096">
      <stop style="stop-opacity:1;stop-color:#2e256b" offset="0" id="stop1092"/>
      <stop style="stop-opacity:1;stop-color:#5a3087" offset="1" id="stop1094"/>
    </linearGradient>
    <clipPath clipPathUnits="userSpaceOnUse" id="clipPath1112">
      <path d="m 38001.6,36504 h 841.5 v 479.3 h -841.5 c -49.8,136 -142.6,267.8 -278.3,388.1 l 594.9,343.5 -587.1,338.9 -595,-343.5 c -208.4,78.3 -436.6,131.7 -672.1,160.5 v 486.1 h -830.2 v -486.1 c -235.5,-28.8 -463.7,-82.2 -672.2,-160.5 l -595,343.5 -587.1,-338.9 594.9,-343.5 c -135.6,-120.3 -228.4,-252.1 -278.2,-388.1 h -841.5 V 36504 h 841.5 c 49.8,-136 142.6,-267.8 278.2,-388.2 l -594.9,-343.4 587.1,-339 595,343.6 c 208.5,-78.3 436.7,-131.7 672.2,-160.5 v -486.1 h 830.2 v 486.1 c 235.5,28.8 463.7,82.2 672.1,160.5 l 595,-343.5 587.1,338.9 -594.9,343.4 c 135.7,120.4 228.5,252.2 278.3,388.2 z" id="path1110"/>
    </clipPath>
    <linearGradient x1="0" y1="0" x2="1" y2="0" gradientUnits="userSpaceOnUse" gradientTransform="matrix(5588.41,0,0,-5588.41,33254.7,36743.6)" spreadMethod="pad" id="linearGradient1118">
      <stop style="stop-opacity:1;stop-color:#6a5ebf" offset="0" id="stop1114"/>
      <stop style="stop-opacity:1;stop-color:#6e3aa5" offset="1" id="stop1116"/>
    </linearGradient>
    <clipPath clipPathUnits="userSpaceOnUse" id="clipPath1130">
      <path d="m 32783.7,35478 h 776.1 v 442.1 h -776.1 c -46,125.4 -131.5,246.9 -256.7,358 l 548.7,316.7 -541.4,312.7 -548.8,-316.9 c -192.3,72.2 -402.8,121.5 -620,148 v 448.4 h -765.7 v -448.4 c -217.2,-26.5 -427.7,-75.8 -620,-148 l -548.8,316.9 -212.2,-122.6 -329.2,188.5 v -378.6 l 548.7,-316.7 c -125.2,-111.1 -210.7,-232.6 -256.7,-358 h -776.2 V 35478 h 776.2 c 46,-125.5 131.5,-247 256.7,-358 l -548.7,-316.8 541.4,-312.6 548.8,316.8 c 192.3,-72.2 402.8,-121.5 620,-148 v -448.3 h 765.7 v 448.3 c 217.2,26.5 427.7,75.8 620,148 l 548.8,-316.8 541.4,312.6 -548.7,316.8 c 125.2,111 210.7,232.5 256.7,358 z" id="path1128"/>
    </clipPath>
    <linearGradient x1="0" y1="0" x2="1" y2="0" gradientUnits="userSpaceOnUse" gradientTransform="matrix(5154.41,0,0,-5154.41,28405.4,35699)" spreadMethod="pad" id="linearGradient1136">
      <stop style="stop-opacity:1;stop-color:#2e256b" offset="0" id="stop1132"/>
      <stop style="stop-opacity:1;stop-color:#5a3087" offset="1" id="stop1134"/>
    </linearGradient>
    <clipPath clipPathUnits="userSpaceOnUse" id="clipPath1152">
      <path d="m 32783.7,35856.5 h 776.1 v 442.1 h -776.1 c -46,125.4 -131.5,247 -256.7,358 l 548.7,316.8 -541.4,312.6 -548.8,-316.9 c -192.3,72.3 -402.8,121.6 -620,148.1 v 448.3 h -765.7 v -448.3 c -217.2,-26.5 -427.7,-75.8 -620,-148.1 l -548.8,316.9 -541.4,-312.6 548.7,-316.8 c -125.2,-111 -210.7,-232.6 -256.7,-358 h -776.2 v -442.1 h 776.2 c 46,-125.4 131.5,-247 256.7,-358 l -548.7,-316.8 541.4,-312.6 548.8,316.8 c 192.3,-72.2 402.8,-121.4 620,-148 v -448.3 h 765.7 v 448.3 c 217.2,26.6 427.7,75.8 620,148 l 548.8,-316.8 541.4,312.6 -548.7,316.8 c 125.2,111 210.7,232.6 256.7,358 z" id="path1150"/>
    </clipPath>
    <linearGradient x1="0" y1="0" x2="1" y2="0" gradientUnits="userSpaceOnUse" gradientTransform="matrix(5154.41,0,0,-5154.41,28405.4,36077.5)" spreadMethod="pad" id="linearGradient1158">
      <stop style="stop-opacity:1;stop-color:#6a5ebf" offset="0" id="stop1154"/>
      <stop style="stop-opacity:1;stop-color:#6e3aa5" offset="1" id="stop1156"/>
    </linearGradient>
    <clipPath clipPathUnits="userSpaceOnUse" id="clipPath1170">
      <path d="m 34932.5,33450.3 h 578.3 v 329.4 h -578.3 c -34.3,93.5 -98,184.1 -191.2,266.8 l 408.8,236 -403.5,232.9 -408.9,-236.1 c -143.2,53.9 -300,90.6 -461.9,110.3 v 334.1 h -570.5 v -334.1 c -161.8,-19.7 -318.7,-56.4 -461.9,-110.3 l -408.9,236.1 -158.2,-91.3 -245.3,140.4 v -282 l 408.9,-236 c -93.3,-82.7 -157,-173.3 -191.3,-266.8 h -578.3 v -329.4 h 578.3 c 34.3,-93.4 98,-184 191.3,-266.7 l -408.9,-236 403.5,-232.9 408.9,236 c 143.2,-53.8 300.1,-90.5 461.9,-110.3 v -334 h 570.5 v 334 c 161.9,19.8 318.7,56.5 461.9,110.3 l 408.9,-236 403.5,232.9 -408.8,236 c 93.2,82.7 156.9,173.3 191.2,266.7 z" id="path1168"/>
    </clipPath>
    <linearGradient x1="0" y1="0" x2="1" y2="0" gradientUnits="userSpaceOnUse" gradientTransform="matrix(3840.43,0,0,-3840.43,31670.4,33615)" spreadMethod="pad" id="linearGradient1176">
      <stop style="stop-opacity:1;stop-color:#2e256b" offset="0" id="stop1172"/>
      <stop style="stop-opacity:1;stop-color:#5a3087" offset="1" id="stop1174"/>
    </linearGradient>
    <clipPath clipPathUnits="userSpaceOnUse" id="clipPath1192">
      <path d="m 34932.5,33732.4 h 578.3 v 329.4 h -578.3 c -34.3,93.4 -98,184 -191.2,266.7 l 408.8,236 -403.5,233 -408.9,-236.1 c -143.2,53.8 -300,90.5 -461.9,110.3 v 334 h -570.5 v -334 c -161.8,-19.8 -318.7,-56.5 -461.9,-110.3 l -408.9,236.1 -403.5,-233 408.9,-236 c -93.3,-82.7 -157,-173.3 -191.3,-266.7 h -578.3 v -329.4 h 578.3 c 34.3,-93.5 98,-184 191.3,-266.8 l -408.9,-236 403.5,-232.9 408.9,236.1 c 143.2,-53.9 300.1,-90.5 461.9,-110.3 v -334.1 h 570.5 v 334.1 c 161.9,19.8 318.7,56.4 461.9,110.3 l 408.9,-236.1 403.5,232.9 -408.8,236 c 93.2,82.8 156.9,173.3 191.2,266.8 z" id="path1190"/>
    </clipPath>
    <linearGradient x1="0" y1="0" x2="1" y2="0" gradientUnits="userSpaceOnUse" gradientTransform="matrix(3840.43,0,0,-3840.43,31670.3,33897.1)" spreadMethod="pad" id="linearGradient1198">
      <stop style="stop-opacity:1;stop-color:#6a5ebf" offset="0" id="stop1194"/>
      <stop style="stop-opacity:1;stop-color:#6e3aa5" offset="1" id="stop1196"/>
    </linearGradient>
  </defs>
  <path d="m 32441.5,36263.3 c 923.3,-533 923.3,-1397.3 0,-1930.4 -923.3,-533.1 -2420.3,-533.1 -3343.6,0 -923.3,533.1 -923.3,1397.4 0,1930.4 923.3,533.1 2420.3,533.1 3343.6,0" style="fill:#e3dfea;fill-opacity:1;fill-rule:nonzero;stroke:none" id="path1078" transform="matrix(0.133333, 0, 0, -0.133333, 0, 5287.013184)"/>
  <path d="m 35780.5,34439 c 736.5,-425.2 736.5,-1114.6 0,-1539.8 -736.5,-425.2 -1930.6,-425.2 -2667.1,0 -736.5,425.2 -736.5,1114.6 0,1539.8 736.5,425.3 1930.6,425.3 2667.1,0" style="fill:#e3dfea;fill-opacity:1;fill-rule:nonzero;stroke:none" id="path1080" transform="matrix(0.133333, 0, 0, -0.133333, 0, 5287.013184)"/>
  <path d="m 38057.8,36743.9 c 1356.5,-783.2 1356.5,-2052.9 0,-2836 -1356.5,-783.2 -3555.7,-783.2 -4912.2,0 -1356.4,783.1 -1356.4,2052.8 0,2836 1356.5,783.1 3555.7,783.1 4912.2,0" style="fill:#e3dfea;fill-opacity:1;fill-rule:nonzero;stroke:none" id="path1082" transform="matrix(0.133333, 0, 0, -0.133333, 0, 5287.013184)"/>
  <g id="g1084" transform="matrix(0.133333, 0, 0, -0.133333, 0, 5287.013184)">
    <g id="g1086" clip-path="url(#clipPath1090)">
      <path d="m 38001.6,36093.6 h 841.5 v 479.3 h -841.5 c -49.9,136 -142.6,267.8 -278.3,388.1 l 594.9,343.5 -587.1,338.9 -595,-343.5 c -208.4,78.3 -436.6,131.7 -672.1,160.5 v 486.1 h -830.2 v -486.1 c -235.5,-28.8 -463.7,-82.2 -672.2,-160.5 l -595,343.5 -230.1,-132.8 -357,204.3 v -410.4 l 594.9,-343.5 c -135.6,-120.3 -228.4,-252.1 -278.2,-388.1 h -841.5 v -479.3 h 841.5 c 49.8,-136 142.6,-267.8 278.2,-388.1 l -594.9,-343.5 587.1,-338.9 595,343.5 c 208.5,-78.3 436.7,-131.7 672.2,-160.5 V 34720 h 830.2 v 486.1 c 235.5,28.8 463.7,82.2 672.1,160.5 l 595,-343.5 587.1,338.9 -594.9,343.5 c 135.7,120.3 228.4,252.1 278.3,388.1" style="fill:url(#linearGradient1096);fill-opacity:1;fill-rule:nonzero;stroke:none" id="path1098"/>
    </g>
  </g>
  <path d="M 33779.5,35772.4 V 35362 l 355.5,205.2 z" style="fill:#614893;fill-opacity:1;fill-rule:nonzero;stroke:none" id="path1100" transform="matrix(0.133333, 0, 0, -0.133333, 0, 5287.013184)"/>
  <path d="m 37964.3,37510.6 353.9,-206.1 v 410.4 z" style="fill:#614893;fill-opacity:1;fill-rule:nonzero;stroke:none" id="path1102" transform="matrix(0.133333, 0, 0, -0.133333, 0, 5287.013184)"/>
  <path d="m 37964.3,35568.1 353.9,-206.1 v 410.4 z" style="fill:#614893;fill-opacity:1;fill-rule:nonzero;stroke:none" id="path1104" transform="matrix(0.133333, 0, 0, -0.133333, 0, 5287.013184)"/>
  <g id="g1106" transform="matrix(0.133333, 0, 0, -0.133333, 0, 5287.013184)">
    <g id="g1108" clip-path="url(#clipPath1112)">
      <path d="m 38001.6,36504 h 841.5 v 479.3 h -841.5 c -49.8,136 -142.6,267.8 -278.3,388.1 l 594.9,343.5 -587.1,338.9 -595,-343.5 c -208.4,78.3 -436.6,131.7 -672.1,160.5 v 486.1 h -830.2 v -486.1 c -235.5,-28.8 -463.7,-82.2 -672.2,-160.5 l -595,343.5 -587.1,-338.9 594.9,-343.5 c -135.6,-120.3 -228.4,-252.1 -278.2,-388.1 h -841.5 V 36504 h 841.5 c 49.8,-136 142.6,-267.8 278.2,-388.2 l -594.9,-343.4 587.1,-339 595,343.6 c 208.5,-78.3 436.7,-131.7 672.2,-160.5 v -486.1 h 830.2 v 486.1 c 235.5,28.8 463.7,82.2 672.1,160.5 l 595,-343.5 587.1,338.9 -594.9,343.4 c 135.7,120.4 228.5,252.2 278.3,388.2" style="fill:url(#linearGradient1118);fill-opacity:1;fill-rule:nonzero;stroke:none" id="path1120"/>
    </g>
  </g>
  <path d="m 35653.6,34739.8 h 790.6 v 483.8 l 17.4,2.2 c 239.3,29.2 463.9,82.8 667.6,159.3 l 8.7,3.3 593.2,-342.5 567.3,327.5 v 387.5 l -373.6,215.7 9.3,17 c 19.4,35.4 35.9,71.3 48.9,106.8 l 4.7,13 h 835.6 v 850.1 h -835.6 l -4.7,13 c -13.2,36 -29.6,71.9 -48.8,106.8 l -9.3,17 373.5,215.7 v 387.5 l -567.3,327.5 -593.2,-342.5 -8.7,3.3 c -203.7,76.5 -428.3,130.1 -667.6,159.3 l -17.4,2.2 v 483.8 h -790.6 v -483.8 l -17.4,-2.2 c -239.4,-29.2 -464,-82.8 -667.6,-159.3 l -8.8,-3.3 -593.2,342.5 -567.2,-327.5 V 37316 l 373.4,-215.7 -9.3,-17 c -19.2,-34.9 -35.6,-70.8 -48.7,-106.8 l -4.8,-13 h -835.5 v -850.1 h 835.5 l 4.8,-13 c 12.9,-35.4 29.4,-71.3 48.8,-106.8 l 9.3,-17 -373.5,-215.7 v -387.5 l 567.2,-327.5 593.2,342.5 8.8,-3.3 c 203.6,-76.5 428.2,-130.1 667.6,-159.3 l 17.4,-2.2 z m 830.2,-39.6 h -869.9 v 488.4 c -232.5,29.6 -451.2,82.1 -650.5,156.2 l -596.8,-344.6 -606.9,350.4 v 433.2 l 360,207.9 c -14.2,27.3 -26.7,54.8 -37.2,82.1 h -847.7 v 929.3 h 847.6 c 10.7,27.6 23.2,55.2 37.2,82.2 l -359.9,207.8 v 433.2 l 606.9,350.4 596.8,-344.6 c 199.3,74 418,126.5 650.5,156.2 v 488.4 h 869.9 v -488.4 c 232.5,-29.6 451.3,-82.2 650.5,-156.2 l 596.8,344.6 606.9,-350.4 v -433.2 l -359.9,-207.8 c 14,-27 26.5,-54.6 37.2,-82.2 h 847.6 v -929.3 h -847.6 c -10.6,-27.4 -23.1,-54.9 -37.3,-82.1 l 360,-207.9 v -433.2 l -606.9,-350.4 -596.8,344.6 c -199.3,-74.1 -418,-126.6 -650.5,-156.2 v -488.4" style="fill:#bf89ef;fill-opacity:1;fill-rule:nonzero;stroke:none" id="path1122" transform="matrix(0.133333, 0, 0, -0.133333, 0, 5287.013184)"/>
  <g id="g1124" transform="matrix(0.133333, 0, 0, -0.133333, 0, 5287.013184)">
    <g id="g1126" clip-path="url(#clipPath1130)">
      <path d="m 32783.7,35478 h 776.1 v 442.1 h -776.1 c -46,125.4 -131.5,246.9 -256.7,358 l 548.7,316.7 -541.4,312.7 -548.8,-316.9 c -192.3,72.2 -402.8,121.5 -620,148 v 448.4 h -765.7 v -448.4 c -217.2,-26.5 -427.7,-75.8 -620,-148 l -548.8,316.9 -212.2,-122.6 -329.2,188.5 v -378.6 l 548.7,-316.7 c -125.2,-111.1 -210.7,-232.6 -256.7,-358 h -776.2 V 35478 h 776.2 c 46,-125.5 131.5,-247 256.7,-358 l -548.7,-316.8 541.4,-312.6 548.8,316.8 c 192.3,-72.2 402.8,-121.5 620,-148 v -448.3 h 765.7 v 448.3 c 217.2,26.5 427.7,75.8 620,148 l 548.8,-316.8 541.4,312.6 -548.7,316.8 c 125.2,111 210.7,232.5 256.7,358" style="fill:url(#linearGradient1136);fill-opacity:1;fill-rule:nonzero;stroke:none" id="path1138"/>
    </g>
  </g>
  <path d="m 28889.6,35181.7 v -378.5 l 327.8,189.2 z" style="fill:#614893;fill-opacity:1;fill-rule:nonzero;stroke:none" id="path1140" transform="matrix(0.133333, 0, 0, -0.133333, 0, 5287.013184)"/>
  <path d="m 32749.3,36784.9 326.4,-190.1 v 378.6 z" style="fill:#614893;fill-opacity:1;fill-rule:nonzero;stroke:none" id="path1142" transform="matrix(0.133333, 0, 0, -0.133333, 0, 5287.013184)"/>
  <path d="m 32749.3,34993.2 326.4,-190 v 378.5 z" style="fill:#614893;fill-opacity:1;fill-rule:nonzero;stroke:none" id="path1144" transform="matrix(0.133333, 0, 0, -0.133333, 0, 5287.013184)"/>
  <g id="g1146" transform="matrix(0.133333, 0, 0, -0.133333, 0, 5287.013184)">
    <g id="g1148" clip-path="url(#clipPath1152)">
      <path d="m 32783.7,35856.5 h 776.1 v 442.1 h -776.1 c -46,125.4 -131.5,247 -256.7,358 l 548.7,316.8 -541.4,312.6 -548.8,-316.9 c -192.3,72.3 -402.8,121.6 -620,148.1 v 448.3 h -765.7 v -448.3 c -217.2,-26.5 -427.7,-75.8 -620,-148.1 l -548.8,316.9 -541.4,-312.6 548.7,-316.8 c -125.2,-111 -210.7,-232.6 -256.7,-358 h -776.2 v -442.1 h 776.2 c 46,-125.4 131.5,-247 256.7,-358 l -548.7,-316.8 541.4,-312.6 548.8,316.8 c 192.3,-72.2 402.8,-121.4 620,-148 v -448.3 h 765.7 v 448.3 c 217.2,26.6 427.7,75.8 620,148 l 548.8,-316.8 541.4,312.6 -548.7,316.8 c 125.2,111 210.7,232.6 256.7,358" style="fill:url(#linearGradient1158);fill-opacity:1;fill-rule:nonzero;stroke:none" id="path1160"/>
    </g>
  </g>
  <path d="m 30619.6,34230.9 h 726.1 v 446 l 17.4,2.2 c 220.7,26.9 427.7,76.3 615.4,146.9 l 8.8,3.3 547,-315.9 521.6,301.2 v 355.7 l -345.1,199.2 9.3,17 c 17.9,32.6 33.1,65.7 45,98.3 l 4.8,13 h 770.1 v 781 h -770.1 l -4.8,13 c -12.1,33.1 -27.3,66.2 -44.9,98.3 l -9.3,17 345,199.2 v 355.6 l -521.6,301.2 -547,-315.8 -8.8,3.3 c -187.7,70.5 -394.7,119.9 -615.4,146.9 l -17.4,2.1 v 446.1 h -726.1 v -446.1 l -17.4,-2.1 c -220.7,-27 -427.7,-76.4 -615.4,-146.9 l -8.8,-3.3 -547,315.8 -521.6,-301.2 v -355.6 l 345,-199.2 -9.3,-17 c -17.7,-32.1 -32.8,-65.2 -44.9,-98.3 l -4.8,-13 h -770.1 v -781 h 770.1 l 4.8,-13 c 11.9,-32.6 27.1,-65.7 45,-98.3 l 9.3,-17 -345.1,-199.2 v -355.7 l 521.6,-301.2 547,315.9 8.8,-3.3 c 187.7,-70.6 394.7,-120 615.4,-146.9 l 17.4,-2.2 z m 765.7,-39.6 H 30580 v 450.6 c -213.9,27.4 -415,75.7 -598.3,143.7 l -550.7,-317.9 -561.3,324 v 401.4 l 331.6,191.5 c -12.7,24.4 -23.9,49.1 -33.4,73.6 h -782.3 v 860.2 h 782.3 c 9.6,24.8 20.8,49.4 33.3,73.7 l -331.5,191.3 v 401.4 l 561.3,324.1 550.6,-317.9 c 183.4,68 384.5,116.3 598.4,143.6 v 450.7 h 805.3 v -450.7 c 213.9,-27.3 415,-75.6 598.3,-143.6 l 550.7,317.9 561.2,-324.1 v -401.4 l -331.4,-191.3 c 12.5,-24.2 23.7,-48.9 33.3,-73.7 h 782.3 v -860.2 h -782.3 c -9.5,-24.5 -20.7,-49.2 -33.4,-73.6 l 331.5,-191.5 v -401.4 l -561.2,-324 -550.7,317.9 c -183.3,-68 -384.4,-116.3 -598.3,-143.7 v -450.6" style="fill:#bf89ef;fill-opacity:1;fill-rule:nonzero;stroke:none" id="path1162" transform="matrix(0.133333, 0, 0, -0.133333, 0, 5287.013184)"/>
  <g id="g1164" transform="matrix(0.133333, 0, 0, -0.133333, 0, 5287.013184)">
    <g id="g1166" clip-path="url(#clipPath1170)">
      <path d="m 34932.5,33450.3 h 578.3 v 329.4 h -578.3 c -34.3,93.5 -98,184.1 -191.2,266.8 l 408.8,236 -403.5,232.9 -408.9,-236.1 c -143.2,53.9 -300,90.6 -461.9,110.3 v 334.1 h -570.5 v -334.1 c -161.8,-19.7 -318.7,-56.4 -461.9,-110.3 l -408.9,236.1 -158.2,-91.3 -245.3,140.4 v -282 l 408.9,-236 c -93.3,-82.7 -157,-173.3 -191.3,-266.8 h -578.3 v -329.4 h 578.3 c 34.3,-93.4 98,-184 191.3,-266.7 l -408.9,-236 403.5,-232.9 408.9,236 c 143.2,-53.8 300.1,-90.5 461.9,-110.3 v -334 h 570.5 v 334 c 161.9,19.8 318.7,56.5 461.9,110.3 l 408.9,-236 403.5,232.9 -408.8,236 c 93.2,82.7 156.9,173.3 191.2,266.7" style="fill:url(#linearGradient1176);fill-opacity:1;fill-rule:nonzero;stroke:none" id="path1178"/>
    </g>
  </g>
  <path d="m 32031,33229.6 v -282 l 244.3,141 z" style="fill:#614893;fill-opacity:1;fill-rule:nonzero;stroke:none" id="path1180" transform="matrix(0.133333, 0, 0, -0.133333, 0, 5287.013184)"/>
  <path d="m 34906.9,34424.1 243.2,-141.6 v 282 z" style="fill:#614893;fill-opacity:1;fill-rule:nonzero;stroke:none" id="path1182" transform="matrix(0.133333, 0, 0, -0.133333, 0, 5287.013184)"/>
  <path d="m 34906.9,33089.2 243.2,-141.6 v 282 z" style="fill:#614893;fill-opacity:1;fill-rule:nonzero;stroke:none" id="path1184" transform="matrix(0.133333, 0, 0, -0.133333, 0, 5287.013184)"/>
  <g id="g1186" transform="matrix(0.133333, 0, 0, -0.133333, 0, 5287.013184)">
    <g id="g1188" clip-path="url(#clipPath1192)">
      <path d="m 34932.5,33732.4 h 578.3 v 329.4 h -578.3 c -34.3,93.4 -98,184 -191.2,266.7 l 408.8,236 -403.5,233 -408.9,-236.1 c -143.2,53.8 -300,90.5 -461.9,110.3 v 334 h -570.5 v -334 c -161.8,-19.8 -318.7,-56.5 -461.9,-110.3 l -408.9,236.1 -403.5,-233 408.9,-236 c -93.3,-82.7 -157,-173.3 -191.3,-266.7 h -578.3 v -329.4 h 578.3 c 34.3,-93.5 98,-184 191.3,-266.8 l -408.9,-236 403.5,-232.9 408.9,236.1 c 143.2,-53.9 300.1,-90.5 461.9,-110.3 v -334.1 h 570.5 v 334.1 c 161.9,19.8 318.7,56.4 461.9,110.3 l 408.9,-236.1 403.5,232.9 -408.8,236 c 93.2,82.8 156.9,173.3 191.2,266.8" style="fill:url(#linearGradient1198);fill-opacity:1;fill-rule:nonzero;stroke:none" id="path1200"/>
    </g>
  </g>
  <path d="m 33325.1,32526.2 h 530.9 v 331.8 l 17.4,2.1 c 164,20.1 317.9,56.8 457.4,109.2 l 8.7,3.3 407.1,-235.1 383.7,221.5 v 259.2 l -259,149.5 9.3,17 c 13.5,24.5 24.7,48.9 33.3,72.5 l 4.8,13 h 572.3 v 571.8 h -572.3 l -4.8,13 c -8.9,24.4 -20.1,48.8 -33.1,72.5 l -9.3,17 258.8,149.4 v 259.2 l -383.7,221.5 -407.1,-235.1 -8.7,3.3 c -139.5,52.4 -293.3,89.2 -457.4,109.2 l -17.4,2.1 v 331.8 h -530.9 v -331.8 l -17.4,-2.1 c -164,-20 -317.9,-56.8 -457.3,-109.2 l -8.8,-3.3 -407.1,235.1 -383.6,-221.5 v -259.2 l 258.8,-149.4 -9.4,-17 c -13,-23.7 -24.1,-48.1 -33.1,-72.5 l -4.7,-13 h -572.3 v -571.8 h 572.3 l 4.7,-13 c 8.7,-23.7 19.9,-48.1 33.3,-72.5 l 9.3,-17 -258.9,-149.5 V 32959 l 383.6,-221.5 407.1,235.1 8.8,-3.3 c 139.4,-52.4 293.3,-89.1 457.3,-109.2 l 17.4,-2.1 z m 570.5,-39.6 h -610.1 v 336.4 c -157.2,20.4 -305.2,56 -440.3,105.9 l -410.7,-237.1 -423.3,244.3 v 304.9 l 245.5,141.8 c -8.2,16 -15.4,32 -21.7,47.7 h -584.5 v 651.1 h 584.5 c 6.4,16 13.6,32 21.6,47.8 l -245.4,141.7 v 304.9 l 423.3,244.3 410.7,-237.1 c 135.1,49.9 283.1,85.5 440.3,105.9 v 336.4 h 610.1 v -336.4 c 157.3,-20.4 305.3,-56 440.3,-105.9 l 410.7,237.1 423.3,-244.3 v -304.9 l -245.3,-141.7 c 8,-15.8 15.2,-31.8 21.5,-47.8 h 584.5 v -651.1 h -584.5 c -6.2,-15.7 -13.5,-31.7 -21.7,-47.7 l 245.5,-141.8 v -304.9 l -423.3,-244.3 -410.7,237.1 c -135.1,-49.9 -283.1,-85.5 -440.3,-105.9 v -336.4" style="fill:#bf89ef;fill-opacity:1;fill-rule:nonzero;stroke:none" id="path1202" transform="matrix(0.133333, 0, 0, -0.133333, 0, 5287.013184)"/>
  <path d="m 32338.6,36332.7 v -301.4 h -1.5 c -6.2,-76.3 -31.7,-152.3 -76.7,-225.1 -5.2,-8.6 -10.8,-17.1 -16.6,-25.5 -54.4,-79.3 -132.2,-154.5 -233.5,-222 -5.4,-3.6 -10.9,-7.2 -16.5,-10.8 -16.1,-10.4 -32.9,-20.6 -50.2,-30.6 -57.5,-33.2 -118.9,-62.8 -183.4,-88.7 -5.5,-2.2 -11,-4.4 -16.5,-6.5 -74.3,-29 -152.6,-53.3 -233.5,-72.7 -5.5,-1.5 -11,-2.7 -16.5,-4 -75.9,-17.7 -154.2,-31.1 -233.5,-40.4 -5.5,-0.7 -11,-1.3 -16.6,-1.9 -77.1,-8.5 -155.2,-13.1 -233.4,-13.7 -5.5,-0.1 -11,-0.1 -16.6,-0.1 -78.1,-0.2 -156.3,3.6 -233.5,11.3 -5.5,0.5 -11,1.1 -16.5,1.7 -79.2,8.4 -157.5,21 -233.5,37.7 -5.5,1.2 -11,2.4 -16.5,3.7 -80.8,18.4 -159.1,41.4 -233.6,69.2 -5.5,2 -11.1,4.1 -16.5,6.3 -73.3,28 -142.8,60.8 -207.5,98.1 -8.8,5.1 -17.5,10.3 -26,15.5 -5.6,3.4 -11.1,6.8 -16.5,10.2 -98.5,62.2 -176.5,131.4 -233.6,204.8 -5.8,7.3 -11.2,14.6 -16.5,22 -60.1,83.7 -93.8,172.4 -100.9,261.5 h -1.5 v 301.4 h 80.1 c 6.9,11.2 14.4,22.3 22.3,33.2 5.3,7.5 10.8,14.8 16.5,22.1 21,27 44.8,53.4 71.5,79.2 32.6,31.4 69.3,61.9 110.3,91 29.3,20.8 60.8,41 94.3,60.4 526.7,304.1 1380.8,304.1 1907.6,0 33.5,-19.4 64.9,-39.5 94.2,-60.4 41,-29.1 77.8,-59.5 110.4,-91 37.4,-36.2 69.3,-73.8 95.6,-112.2 5.1,-7.4 10,-14.8 14.6,-22.3 h 80.2" style="fill:#ff9d4d;fill-opacity:1;fill-rule:nonzero;stroke:none" id="path1204" transform="matrix(0.133333, 0, 0, -0.133333, 0, 5287.013184)"/>
  <path d="m 30989.8,36846.7 c -345.2,0 -690.4,-76 -953.8,-228.1 -33.5,-19.4 -65,-39.6 -94.3,-60.4 -41,-29.1 -77.7,-59.6 -110.3,-91 -26.7,-25.8 -50.5,-52.2 -71.5,-79.2 -5.7,-7.3 -11.2,-14.6 -16.5,-22.1 -7.9,-10.9 -15.4,-22 -22.3,-33.2 h -80.1 v -301.4 h 1.5 c 7.1,-89.1 40.8,-177.8 100.9,-261.5 5.3,-7.4 10.7,-14.7 16.5,-22 57.1,-73.4 135.1,-142.6 233.6,-204.8 5.4,-3.4 10.9,-6.8 16.5,-10.2 8.5,-5.2 17.2,-10.4 26,-15.5 64.7,-37.3 134.2,-70.1 207.5,-98.1 5.4,-2.2 11,-4.3 16.5,-6.3 74.5,-27.8 152.8,-50.8 233.6,-69.2 5.5,-1.3 11,-2.5 16.5,-3.7 76,-16.7 154.3,-29.3 233.5,-37.7 5.5,-0.6 11,-1.2 16.5,-1.7 75.8,-7.6 152.4,-11.3 229,-11.3 1.5,0 3.1,0 4.5,0 5.6,0 11.1,0 16.6,0.1 78.2,0.6 156.4,5.2 233.4,13.7 5.6,0.6 11.1,1.2 16.6,1.9 79.3,9.3 157.6,22.7 233.5,40.4 5.5,1.3 11,2.5 16.5,4 80.9,19.4 159.2,43.7 233.5,72.7 5.5,2.1 11,4.3 16.5,6.5 64.5,25.9 125.9,55.5 183.4,88.7 17.3,10 34.1,20.2 50.2,30.6 5.6,3.6 11.1,7.2 16.5,10.8 101.3,67.5 179.1,142.7 233.5,222 5.8,8.4 11.4,16.9 16.6,25.5 45,72.8 70.5,148.8 76.7,225.1 h 1.5 v 36.6 0.1 264.7 h -80.2 c -4.6,7.5 -9.5,14.9 -14.6,22.3 -26.3,38.5 -58.2,76 -95.6,112.2 -32.6,31.5 -69.4,61.9 -110.4,91 -29.3,20.9 -60.7,41 -94.2,60.4 -263.4,152.1 -608.6,228.1 -953.8,228.1 z m 0,-16.5 c 357.4,0 693.2,-80.2 945.5,-225.9 32.8,-18.9 64.1,-39 92.9,-59.6 40,-28.4 76.5,-58.5 108.5,-89.4 36.1,-35 67.6,-71.8 93.5,-109.7 4.7,-6.8 9.3,-13.8 14.2,-21.6 l 4.9,-7.8 h 9.1 63.6 v -248.3 -20 h -0.1 l -1.2,-15.2 c -6.1,-74.4 -31.1,-147.7 -74.4,-217.9 -4.8,-7.8 -10.2,-16.2 -16.1,-24.8 -54.5,-79.3 -131.5,-152.5 -229,-217.5 -5.4,-3.6 -10.9,-7.2 -16.3,-10.7 -15.9,-10.2 -32.6,-20.3 -49.6,-30.2 -55.9,-32.2 -116.8,-61.7 -181.2,-87.6 -5.4,-2.2 -10.8,-4.4 -16.4,-6.5 -73,-28.5 -150.8,-52.8 -231.6,-72.1 -5.4,-1.4 -10.7,-2.7 -16.1,-3.9 -74.4,-17.3 -152.4,-30.8 -231.9,-40.1 -5.3,-0.6 -10.7,-1.3 -16.3,-1.8 -76.4,-8.5 -154.4,-13.1 -231.9,-13.7 -5.4,0 -10.8,-0.1 -16.3,-0.1 h -4.5 c -76.2,0 -152.7,3.8 -227.7,11.3 -5.3,0.5 -10.7,1.1 -16.1,1.6 -78.6,8.4 -156.5,20.9 -231.7,37.4 -5.4,1.2 -10.9,2.4 -16.4,3.7 -80.7,18.4 -158.6,41.5 -231.5,68.6 l -1.9,0.7 c -4.8,1.8 -9.5,3.5 -14.4,5.5 -73,27.9 -142,60.6 -205.1,97 -8.7,5.1 -17.3,10.1 -25.7,15.3 -5.5,3.4 -11,6.7 -16.3,10 -95.1,60.1 -172.2,127.7 -229.4,201.1 -5.1,6.5 -10.4,13.5 -16.1,21.4 -57.9,80.7 -90.8,165.9 -97.9,253.3 l -1.2,15.2 h -0.2 v 268.3 h 63.6 9.2 l 4.8,7.8 c 6.7,10.7 14,21.6 21.8,32.4 4.8,6.8 10.1,13.8 16.1,21.5 20.4,26.3 43.9,52.3 69.8,77.4 32.5,31.3 69,61.4 108.5,89.4 29.2,20.8 60.5,40.8 93,59.6 252.3,145.7 588,225.9 945.5,225.9" style="fill:#ffe840;fill-opacity:1;fill-rule:nonzero;stroke:none" id="path1206" transform="matrix(0.133333, 0, 0, -0.133333, 0, 5287.013184)"/>
  <path d="m 31943.5,36891.6 c 526.8,-304.1 526.8,-797.1 0,-1101.3 -526.7,-304.1 -1380.7,-304.1 -1907.5,0 -526.7,304.2 -526.7,797.2 0,1101.3 526.8,304.2 1380.8,304.2 1907.5,0" style="fill:#ffe840;fill-opacity:1;fill-rule:nonzero;stroke:none" id="path1208" transform="matrix(0.133333, 0, 0, -0.133333, 0, 5287.013184)"/>
  <path d="m 32010.3,36083.7 c -5.3,-7 -10.8,-14 -16.5,-21 -52.9,-63.8 -125.1,-123.5 -216.6,-176.3 -5.6,-3.3 -11.2,-6.5 -17,-9.6 -5.4,-3 -10.9,-6.1 -16.5,-8.9 -71.9,-38.4 -150.4,-70.1 -233.5,-95.4 -5.4,-1.6 -11,-3.3 -16.5,-4.9 -75,-21.9 -153.3,-38.7 -233.5,-50.2 -5.5,-0.8 -11,-1.5 -16.6,-2.2 -76.7,-10.4 -155,-15.9 -233.4,-16.7 -5.5,-0.1 -11,-0.1 -16.6,-0.1 -78.3,-0.2 -156.6,4.3 -233.5,13.7 -5.5,0.7 -11.1,1.3 -16.5,2.1 -80,10.3 -158.4,25.9 -233.5,46.5 -5.5,1.6 -11.1,3.1 -16.5,4.7 -82.7,23.6 -161.2,53.7 -233.6,89.9 -5.6,2.8 -11.1,5.6 -16.5,8.5 -14,7.2 -27.7,14.8 -41.1,22.6 -78.3,45.1 -142.4,95.4 -192.4,148.9 -5.6,6.1 -11.2,12.2 -16.5,18.4 -136,157.4 -153.2,340.6 -51.8,504.5 53.7,86.8 140.6,168.1 260.7,237.4 434.1,250.7 1140.6,250.7 1574.8,0 120.1,-69.3 207,-150.6 260.6,-237.4 95,-153.6 85.9,-324.1 -27.5,-474.5 z m 137.9,383.5 c -43.2,133.6 -154.9,256.7 -325.1,354.9 -222.6,128.5 -518.6,199.3 -833.3,199.3 -314.8,0 -610.8,-70.8 -833.3,-199.3 -170.2,-98.2 -282,-221.3 -325.1,-354.9 -13.3,-41.2 -20.1,-83.4 -20.1,-126.2 0,-130.8 63.5,-256 182.2,-363.8 5.3,-5 10.9,-9.8 16.5,-14.6 42.5,-36.6 91.4,-70.9 146.5,-102.7 27.9,-16.1 57,-31.3 87,-45.5 5.5,-2.7 11,-5.2 16.5,-7.7 72.5,-33.2 150.9,-61 233.6,-83.1 5.5,-1.5 11,-3.1 16.5,-4.5 74.7,-19.2 152.9,-33.9 233.5,-43.6 5.5,-0.8 11,-1.4 16.5,-2 74.8,-8.6 151.7,-12.9 229.7,-12.9 h 3.8 c 5.6,0 11.1,0.1 16.6,0.2 79.4,0.7 157.5,6 233.4,15.6 5.6,0.7 11.1,1.4 16.6,2.2 80.7,10.8 158.9,26.6 233.5,47 5.6,1.5 11.1,3 16.5,4.7 83,23.5 161.3,52.9 233.5,87.8 5.5,2.5 11.1,5.3 16.5,8.1 21.6,10.7 42.5,21.9 62.9,33.7 65.9,38 123,79.8 170.7,124.4 5.7,5.3 11.2,10.5 16.5,15.9 103,102.4 157.9,219.2 157.9,340.8 0,42.8 -6.8,85 -20,126.2" style="fill:#ff9d4d;fill-opacity:1;fill-rule:nonzero;stroke:none" id="path1210" transform="matrix(0.133333, 0, 0, -0.133333, 0, 5287.013184)"/>
  <path d="m 31032.9,36450.8 127,-73.3 c -2.8,-1.4 -5.7,-2.9 -8.4,-4.5 l -69.7,-40.2 -118.7,68.5 39.2,22.6 c 14,8.1 24.2,17.1 30.6,26.9" style="fill:#d1975d;fill-opacity:1;fill-rule:nonzero;stroke:none" id="path1212" transform="matrix(0.133333, 0, 0, -0.133333, 0, 5287.013184)"/>
  <path d="m 30743.6,36499.6 16.5,9.6 8,4.6 h 0.1 l 45.7,26.4 c 2.7,1.6 5.6,2.7 8.4,4 9.3,4.6 19.1,8.4 29.8,11 14.8,3.5 31,5.1 48.4,4.8 32.9,-0.6 64,-9 93.1,-25.5 l 2.2,-1.2 c 5.2,-3 10,-6.1 14.4,-9.3 20.8,-14.9 31,-30.7 30.7,-47.6 -0.1,-9.1 -2.7,-17.6 -7.9,-25.6 -5.2,-7.9 -12.8,-15.3 -22.8,-22 -2.5,-1.6 -5.1,-3.3 -7.9,-4.9 l -8.7,-5 -30.5,-17.6 -94.6,-54.7 h -0.1 l -25.8,-14.9 -40.6,-23.4 -22.6,13 -25.2,14.5 -10.6,6.2 -47.7,27.5 -88.8,51.3 24.6,14.2 41.8,24.2 v 0 z m 407.9,-126.6 c 2.8,1.6 5.5,3.1 8.4,4.5 10.9,5.2 22.8,9.1 35.6,11.5 15.6,3 31.6,4.1 48.1,3.5 h 2.6 c 4.7,-0.3 9.3,-0.6 14,-1.1 12.7,-1.3 25.5,-3.7 38.3,-7.1 17.3,-4.6 33,-10.9 46.8,-18.8 13.8,-8 24.3,-17 31.6,-27 7.2,-10.2 11,-20.3 11.4,-30.6 0.3,-10.3 -2.9,-20.3 -9.8,-30.2 -4.2,-5.9 -9.7,-11.6 -16.5,-16.9 -3.3,-2.6 -7.1,-5.2 -11.2,-7.7 -1.1,-0.7 -2.2,-1.4 -3.3,-2.1 l -60,-34.6 -2.1,-1.2 -25.2,-14.6 -16.6,-9.5 -52.8,-30.5 -66.5,-38.4 -203.6,117.5 21.7,12.6 44.7,25.8 v 0 l 6.5,3.8 16.6,9.5 71.6,41.3 z m 261.3,-231.4 v 0 l 130.2,-75.1 77.8,44.9 -130.5,75.4 c 1.1,0.7 2.3,1.4 3.4,2.2 5.8,3.6 11.3,7.3 16.5,11 18.5,13 34.5,26.6 47.9,40.7 21.5,22.4 35.3,45 41.4,67.9 6.2,22.8 3.5,45.1 -8.2,66.9 -11.6,21.8 -33.7,42.2 -66.3,61 -4.9,2.8 -9.8,5.5 -14.8,8.1 -5.4,2.9 -10.9,5.5 -16.5,8.1 -42,19.4 -86.7,31 -134.3,34.7 -33.4,2.6 -66.4,1.6 -99.2,-2.9 -5.5,-0.7 -11,-1.7 -16.6,-2.6 -19.9,-3.6 -39.8,-8.4 -59.5,-14.6 20.3,30.2 23.4,60.2 9.3,90.2 -14.2,30 -40.1,55.9 -77.8,77.7 -24,13.8 -51.9,25.1 -83.9,33.9 -31.9,8.8 -64.8,14.1 -98.6,16 -33.7,1.9 -67.2,-0.1 -100.7,-6 -33.4,-5.8 -63.5,-16.5 -90.3,-32 l -24.6,-14.2 -125.4,72.4 -77.8,-44.9 125.4,-72.4 -94.6,-54.7 -125.4,72.4 -77.8,-44.9 125.3,-72.4 -138.8,-80.2 165.2,-95.4 16.5,-9.5 233.5,-134.8 16.5,-9.6 233.5,-134.8 16.6,-9.6 91.2,-52.6 138.9,80.2 v 0 l 130.2,-75.2 77.8,45 -130.2,75.1 h 0.1 l 94.6,54.6" style="fill:#ff9d4d;fill-opacity:1;fill-rule:nonzero;stroke:none" id="path1214" transform="matrix(0.133333, 0, 0, -0.133333, 0, 5287.013184)"/>
  <path d="m 29795.1,35986.8 v -273 c -5.8,7.3 -11.2,14.7 -16.5,22.1 v 273 c 5.3,-7.4 10.8,-14.8 16.5,-22.1" style="fill:#ffe840;fill-opacity:1;fill-rule:nonzero;stroke:none" id="path1216" transform="matrix(0.133333, 0, 0, -0.133333, 0, 5287.013184)"/>
  <path d="m 30010,35805.8 v -273 c -5.6,3.4 -11.1,6.8 -16.5,10.2 v 273 c 5.4,-3.4 10.9,-6.8 16.5,-10.2" style="fill:#ffe840;fill-opacity:1;fill-rule:nonzero;stroke:none" id="path1218" transform="matrix(0.133333, 0, 0, -0.133333, 0, 5287.013184)"/>
  <path d="m 30260,35686 v -273.1 c -5.5,2 -11.1,4.1 -16.5,6.3 v 273 c 5.4,-2.1 11,-4.3 16.5,-6.2" style="fill:#ffe840;fill-opacity:1;fill-rule:nonzero;stroke:none" id="path1220" transform="matrix(0.133333, 0, 0, -0.133333, 0, 5287.013184)"/>
  <path d="m 30510.1,35613 v -273 c -5.5,1.2 -11,2.4 -16.5,3.7 v 273 c 5.5,-1.2 11,-2.5 16.5,-3.7" style="fill:#ffe840;fill-opacity:1;fill-rule:nonzero;stroke:none" id="path1222" transform="matrix(0.133333, 0, 0, -0.133333, 0, 5287.013184)"/>
  <path d="m 30760.1,35573.7 v -273.1 c -5.5,0.5 -11,1.1 -16.5,1.7 v 273 c 5.5,-0.6 11,-1.2 16.5,-1.6" style="fill:#ffe840;fill-opacity:1;fill-rule:nonzero;stroke:none" id="path1224" transform="matrix(0.133333, 0, 0, -0.133333, 0, 5287.013184)"/>
  <path d="m 31010.2,35562.4 v -273 c -5.5,-0.1 -11,-0.1 -16.6,-0.1 v 273 c 5.6,0 11.1,0 16.6,0.1" style="fill:#ffe840;fill-opacity:1;fill-rule:nonzero;stroke:none" id="path1226" transform="matrix(0.133333, 0, 0, -0.133333, 0, 5287.013184)"/>
  <path d="m 31260.2,35578 v -273 c -5.5,-0.7 -11,-1.3 -16.6,-1.9 v 273.1 c 5.6,0.5 11.1,1.2 16.6,1.8" style="fill:#ffe840;fill-opacity:1;fill-rule:nonzero;stroke:none" id="path1228" transform="matrix(0.133333, 0, 0, -0.133333, 0, 5287.013184)"/>
  <path d="m 31510.2,35622.4 v -273 c -5.5,-1.5 -11,-2.7 -16.5,-4 v 273.1 c 5.5,1.3 11,2.5 16.5,3.9" style="fill:#ffe840;fill-opacity:1;fill-rule:nonzero;stroke:none" id="path1230" transform="matrix(0.133333, 0, 0, -0.133333, 0, 5287.013184)"/>
  <path d="m 31760.2,35701.6 v -273 c -5.5,-2.2 -11,-4.4 -16.5,-6.5 v 273.1 c 5.5,2 11,4.2 16.5,6.4" style="fill:#ffe840;fill-opacity:1;fill-rule:nonzero;stroke:none" id="path1232" transform="matrix(0.133333, 0, 0, -0.133333, 0, 5287.013184)"/>
  <path d="m 32010.3,35831.7 v -273 c -5.4,-3.6 -10.9,-7.2 -16.5,-10.8 v 273 c 5.6,3.6 11.1,7.2 16.5,10.8" style="fill:#ffe840;fill-opacity:1;fill-rule:nonzero;stroke:none" id="path1234" transform="matrix(0.133333, 0, 0, -0.133333, 0, 5287.013184)"/>
  <path d="m 32232.1,36051.8 v -273 c -5.2,-8.5 -10.8,-17 -16.6,-25.5 v 273 c 5.8,8.5 11.3,17 16.6,25.5" style="fill:#ffe840;fill-opacity:1;fill-rule:nonzero;stroke:none" id="path1236" transform="matrix(0.133333, 0, 0, -0.133333, 0, 5287.013184)"/>
  <path d="m 37397.7,37101.6 v -301.4 h -1.5 c -6.2,-76.3 -31.7,-152.3 -76.7,-225.2 -5.2,-8.5 -10.8,-17 -16.6,-25.5 -54.4,-79.2 -132.2,-154.4 -233.5,-221.9 -5.4,-3.6 -10.9,-7.2 -16.5,-10.9 -16.1,-10.3 -32.9,-20.5 -50.2,-30.5 -57.5,-33.2 -118.9,-62.8 -183.4,-88.7 -5.5,-2.2 -11,-4.4 -16.5,-6.5 -74.4,-29.1 -152.6,-53.4 -233.5,-72.7 -5.5,-1.5 -11,-2.8 -16.5,-4 -75.9,-17.7 -154.2,-31.1 -233.5,-40.4 -5.5,-0.7 -11.1,-1.4 -16.6,-1.9 -77.1,-8.5 -155.2,-13.1 -233.4,-13.7 -5.5,-0.1 -11.1,-0.2 -16.6,-0.2 -78.1,-0.1 -156.3,3.7 -233.5,11.4 -5.5,0.5 -11,1.1 -16.5,1.7 -79.2,8.4 -157.5,21 -233.5,37.6 -5.5,1.2 -11,2.4 -16.5,3.7 -80.8,18.4 -159.1,41.5 -233.6,69.3 -5.5,2 -11.1,4.1 -16.5,6.2 -73.3,28.1 -142.8,60.8 -207.5,98.2 -8.8,5.1 -17.5,10.2 -26,15.5 -5.6,3.3 -11.1,6.7 -16.5,10.1 -98.5,62.3 -176.5,131.5 -233.6,204.9 -5.8,7.3 -11.2,14.6 -16.5,22 -60.1,83.7 -93.8,172.4 -100.9,261.5 h -1.5 v 301.4 h 80.1 c 6.9,11.2 14.4,22.3 22.3,33.2 5.3,7.5 10.8,14.8 16.5,22.1 21,27 44.8,53.4 71.5,79.1 32.6,31.5 69.3,62 110.3,91.1 29.3,20.8 60.8,41 94.3,60.4 526.7,304.1 1380.8,304.1 1907.6,0 33.5,-19.4 64.9,-39.5 94.2,-60.4 40.9,-29.1 77.8,-59.5 110.4,-91.1 37.4,-36.1 69.3,-73.7 95.6,-112.1 5.1,-7.4 10,-14.8 14.6,-22.3 h 80.2" style="fill:#ff9d4d;fill-opacity:1;fill-rule:nonzero;stroke:none" id="path1238" transform="matrix(0.133333, 0, 0, -0.133333, 0, 5287.013184)"/>
  <path d="m 36048.9,37615.6 c -345.2,0 -690.4,-76 -953.8,-228.1 -33.5,-19.4 -65,-39.6 -94.3,-60.4 -41,-29.1 -77.7,-59.6 -110.3,-91.1 -26.7,-25.7 -50.5,-52.1 -71.5,-79.1 -5.7,-7.3 -11.2,-14.6 -16.5,-22.1 -7.9,-10.9 -15.4,-22 -22.3,-33.2 h -80.1 v -301.4 h 1.5 c 7.1,-89.1 40.8,-177.8 100.9,-261.5 5.3,-7.4 10.7,-14.7 16.5,-22 57.1,-73.4 135.1,-142.6 233.6,-204.9 5.4,-3.4 10.9,-6.8 16.5,-10.1 8.5,-5.3 17.2,-10.4 26,-15.5 64.7,-37.4 134.2,-70.1 207.5,-98.2 5.4,-2.1 11,-4.2 16.5,-6.2 74.5,-27.8 152.8,-50.9 233.6,-69.3 5.5,-1.3 11,-2.5 16.5,-3.7 76,-16.6 154.3,-29.2 233.5,-37.6 5.5,-0.6 11,-1.2 16.5,-1.7 75.7,-7.6 152.4,-11.4 229,-11.4 1.5,0 3,0 4.5,0 5.5,0 11.1,0.1 16.6,0.2 78.2,0.6 156.3,5.2 233.4,13.7 5.5,0.5 11.1,1.2 16.6,1.9 79.3,9.3 157.6,22.7 233.5,40.4 5.5,1.2 11,2.5 16.5,4 80.9,19.3 159.1,43.6 233.5,72.7 5.5,2.1 11,4.3 16.5,6.5 64.5,25.9 125.9,55.5 183.4,88.7 17.3,10 34.1,20.2 50.2,30.5 5.6,3.7 11.1,7.3 16.5,10.9 101.3,67.5 179.1,142.7 233.5,221.9 5.8,8.5 11.4,17 16.6,25.5 45,72.9 70.5,148.9 76.7,225.2 h 1.5 v 36.6 0.1 264.7 h -80.2 c -4.6,7.5 -9.5,14.9 -14.6,22.3 -26.3,38.4 -58.2,76 -95.6,112.1 -32.6,31.6 -69.5,62 -110.4,91.1 -29.3,20.9 -60.7,41 -94.2,60.4 -263.4,152.1 -608.6,228.1 -953.8,228.1 z m 0,-16.5 c 357.4,0 693.2,-80.3 945.5,-225.9 32.8,-19 64.1,-39 92.9,-59.6 40,-28.4 76.5,-58.5 108.5,-89.5 36.1,-34.9 67.6,-71.8 93.5,-109.7 4.7,-6.7 9.3,-13.8 14.2,-21.6 l 4.9,-7.7 h 9.1 63.6 v -248.3 -20.1 h -0.1 l -1.2,-15.1 c -6.1,-74.4 -31.1,-147.7 -74.4,-217.9 -4.8,-7.8 -10.2,-16.2 -16.1,-24.8 -54.5,-79.4 -131.5,-152.6 -229.1,-217.5 -5.3,-3.6 -10.8,-7.2 -16.2,-10.7 -15.9,-10.2 -32.6,-20.4 -49.6,-30.2 -55.9,-32.3 -116.8,-61.8 -181.2,-87.7 -5.4,-2.1 -10.9,-4.3 -16.4,-6.4 -73,-28.5 -150.8,-52.8 -231.6,-72.1 -5.4,-1.4 -10.8,-2.7 -16.1,-3.9 -74.4,-17.3 -152.4,-30.8 -231.9,-40.1 -5.3,-0.7 -10.7,-1.3 -16.3,-1.9 -76.4,-8.4 -154.4,-13 -231.9,-13.6 -5.4,-0.1 -10.8,-0.1 -16.3,-0.1 h -4.5 c -76.2,0 -152.7,3.8 -227.7,11.3 -5.3,0.4 -10.6,1 -16.1,1.6 -78.6,8.3 -156.5,20.9 -231.8,37.4 -5.4,1.2 -10.8,2.4 -16.3,3.6 -80.8,18.5 -158.6,41.6 -231.5,68.7 l -1.9,0.7 c -4.7,1.7 -9.5,3.5 -14.4,5.5 -73,27.9 -142,60.6 -205.1,97 -8.7,5 -17.3,10.1 -25.7,15.3 -5.5,3.3 -11,6.7 -16.3,10 -95.1,60.1 -172.3,127.7 -229.4,201.1 -5.1,6.5 -10.4,13.5 -16.1,21.4 -57.9,80.7 -90.8,165.9 -97.9,253.2 l -1.2,15.2 h -0.2 v 268.4 h 63.6 9.2 l 4.8,7.8 c 6.7,10.7 14,21.5 21.8,32.4 4.8,6.7 10,13.8 16.1,21.5 20.4,26.2 43.9,52.2 69.8,77.3 32.5,31.4 69,61.5 108.5,89.5 29.2,20.8 60.4,40.8 93,59.6 252.3,145.6 588,225.9 945.5,225.9" style="fill:#ffe840;fill-opacity:1;fill-rule:nonzero;stroke:none" id="path1240" transform="matrix(0.133333, 0, 0, -0.133333, 0, 5287.013184)"/>
  <path d="m 37002.6,37660.5 c 526.8,-304.1 526.8,-797.2 0,-1101.3 -526.7,-304.1 -1380.7,-304.1 -1907.5,0 -526.7,304.1 -526.7,797.2 0,1101.3 526.8,304.1 1380.8,304.1 1907.5,0" style="fill:#ffe840;fill-opacity:1;fill-rule:nonzero;stroke:none" id="path1242" transform="matrix(0.133333, 0, 0, -0.133333, 0, 5287.013184)"/>
  <path d="m 37069.4,36852.6 c -5.3,-7 -10.8,-14.1 -16.5,-21 -53,-63.8 -125.2,-123.6 -216.6,-176.4 -5.6,-3.2 -11.2,-6.4 -17,-9.6 -5.4,-3 -10.9,-6 -16.5,-8.9 -71.9,-38.3 -150.4,-70 -233.5,-95.3 -5.4,-1.7 -11,-3.3 -16.5,-4.9 -75,-22 -153.3,-38.7 -233.5,-50.2 -5.5,-0.8 -11,-1.6 -16.6,-2.2 -76.7,-10.4 -155,-16 -233.4,-16.7 -5.5,-0.1 -11.1,-0.2 -16.6,-0.2 -78.3,-0.1 -156.7,4.4 -233.5,13.8 -5.5,0.6 -11.1,1.3 -16.5,2.1 -80,10.3 -158.4,25.9 -233.5,46.5 -5.5,1.5 -11.1,3 -16.5,4.6 -82.7,23.7 -161.2,53.7 -233.6,90 -5.6,2.8 -11.1,5.6 -16.5,8.5 -14,7.2 -27.7,14.8 -41.1,22.5 -78.3,45.2 -142.4,95.5 -192.4,148.9 -5.7,6.2 -11.2,12.3 -16.5,18.5 -136,157.4 -153.2,340.6 -51.8,504.5 53.7,86.7 140.6,168.1 260.7,237.4 434.1,250.7 1140.6,250.7 1574.8,0 120.1,-69.3 206.9,-150.7 260.6,-237.4 95,-153.6 85.9,-324.1 -27.5,-474.5 z m 137.9,383.4 c -43.2,133.7 -154.9,256.7 -325.1,355 -222.6,128.5 -518.6,199.3 -833.3,199.3 -314.8,0 -610.8,-70.8 -833.3,-199.3 -170.2,-98.3 -282,-221.3 -325.1,-355 -13.3,-41.2 -20.1,-83.3 -20.1,-126.1 0,-130.8 63.5,-256 182.2,-363.8 5.3,-5 10.8,-9.8 16.5,-14.6 42.5,-36.6 91.4,-70.9 146.5,-102.7 27.9,-16.1 57,-31.4 87,-45.5 5.5,-2.7 11,-5.2 16.5,-7.7 72.5,-33.2 150.9,-61.1 233.6,-83.2 5.5,-1.5 11,-3 16.5,-4.4 74.7,-19.2 152.9,-33.9 233.5,-43.6 5.5,-0.8 11,-1.5 16.5,-2.1 74.8,-8.5 151.7,-12.8 229.7,-12.8 h 3.8 c 5.5,0 11.1,0.1 16.6,0.2 79.4,0.7 157.5,5.9 233.4,15.6 5.5,0.7 11.1,1.3 16.6,2.2 80.7,10.8 158.9,26.6 233.5,47 5.6,1.5 11.1,3 16.5,4.7 83,23.5 161.3,52.9 233.5,87.8 5.5,2.5 11.1,5.2 16.5,8 21.5,10.7 42.5,22 62.9,33.8 65.8,38 123,79.8 170.7,124.3 5.7,5.3 11.2,10.6 16.5,16 103,102.4 157.9,219.2 157.9,340.8 0,42.8 -6.8,84.9 -20,126.1" style="fill:#ff9d4d;fill-opacity:1;fill-rule:nonzero;stroke:none" id="path1244" transform="matrix(0.133333, 0, 0, -0.133333, 0, 5287.013184)"/>
  <path d="m 36092,37219.7 127,-73.4 c -2.8,-1.3 -5.7,-2.8 -8.4,-4.4 l -69.7,-40.3 -118.7,68.6 39.2,22.6 c 14,8.1 24.2,17.1 30.6,26.9" style="fill:#d1975d;fill-opacity:1;fill-rule:nonzero;stroke:none" id="path1246" transform="matrix(0.133333, 0, 0, -0.133333, 0, 5287.013184)"/>
  <path d="m 35802.7,37268.5 16.5,9.5 8,4.7 h 0.1 l 45.7,26.4 c 2.7,1.5 5.6,2.7 8.4,4 9.3,4.5 19.1,8.4 29.8,11 14.8,3.5 30.9,5.1 48.4,4.8 32.9,-0.6 64,-9.1 93.1,-25.5 l 2.1,-1.2 c 5.3,-3 10.1,-6.1 14.5,-9.3 20.8,-14.9 31,-30.8 30.7,-47.6 -0.1,-9.1 -2.7,-17.6 -8,-25.6 -5.1,-7.9 -12.7,-15.3 -22.7,-22 -2.5,-1.7 -5.1,-3.3 -7.9,-4.9 l -8.7,-5 -30.5,-17.6 -94.7,-54.7 v 0 l -25.8,-14.9 -40.7,-23.4 -22.5,13 -25.2,14.5 -10.6,6.2 -47.7,27.5 -88.8,51.3 24.6,14.2 41.8,24.1 v 0 z m 407.9,-126.6 c 2.7,1.6 5.5,3.1 8.4,4.4 10.9,5.2 22.8,9.2 35.6,11.6 15.6,3 31.6,4.1 48.1,3.5 l 2.6,-0.1 c 4.7,-0.2 9.3,-0.6 14,-1 12.7,-1.4 25.5,-3.7 38.3,-7.1 17.3,-4.6 33,-10.9 46.8,-18.9 13.8,-8 24.2,-16.9 31.6,-27 7.2,-10.1 11,-20.3 11.4,-30.5 0.3,-10.3 -2.9,-20.3 -9.8,-30.2 -4.2,-6 -9.7,-11.6 -16.5,-16.9 -3.3,-2.6 -7.1,-5.2 -11.2,-7.7 -1.1,-0.7 -2.2,-1.4 -3.3,-2.1 l -60,-34.6 -2.1,-1.2 -25.2,-14.6 -16.6,-9.5 -52.8,-30.6 -66.6,-38.3 -203.5,117.5 21.7,12.6 44.7,25.8 v 0 l 6.5,3.8 16.6,9.5 71.6,41.3 z m 261.3,-231.4 v 0 l 130.1,-75.1 77.8,44.9 -130.4,75.3 c 1.1,0.8 2.3,1.5 3.4,2.3 5.7,3.5 11.3,7.2 16.5,10.9 18.5,13.1 34.4,26.7 47.9,40.8 21.5,22.4 35.3,45 41.4,67.9 6.2,22.8 3.5,45.1 -8.2,66.9 -11.6,21.8 -33.7,42.1 -66.4,61 -4.9,2.8 -9.8,5.5 -14.7,8.1 -5.4,2.8 -10.9,5.5 -16.5,8 -42,19.5 -86.7,31 -134.3,34.8 -33.4,2.6 -66.4,1.6 -99.2,-2.9 -5.5,-0.8 -11.1,-1.7 -16.6,-2.7 -20,-3.5 -39.8,-8.3 -59.5,-14.5 20.3,30.2 23.4,60.2 9.3,90.2 -14.2,30 -40.1,55.8 -77.9,77.6 -23.9,13.8 -51.9,25.2 -83.8,34 -31.9,8.7 -64.8,14.1 -98.6,16 -33.7,1.9 -67.3,-0.1 -100.7,-6 -33.4,-5.9 -63.5,-16.5 -90.3,-32.1 l -24.6,-14.1 -125.4,72.4 -77.8,-45 125.4,-72.3 -94.6,-54.7 -125.4,72.4 -77.8,-44.9 125.3,-72.4 -138.9,-80.2 165.3,-95.4 16.5,-9.5 233.5,-134.8 16.5,-9.6 233.5,-134.8 16.6,-9.6 91.2,-52.7 138.9,80.2 v 0 l 130.2,-75.1 77.8,44.9 -130.2,75.2 h 0.1 l 94.6,54.6" style="fill:#ff9d4d;fill-opacity:1;fill-rule:nonzero;stroke:none" id="path1248" transform="matrix(0.133333, 0, 0, -0.133333, 0, 5287.013184)"/>
  <path d="m 34854.2,36755.6 v -272.9 c -5.8,7.3 -11.2,14.6 -16.5,22 v 273 c 5.3,-7.4 10.8,-14.7 16.5,-22.1" style="fill:#ffe840;fill-opacity:1;fill-rule:nonzero;stroke:none" id="path1250" transform="matrix(0.133333, 0, 0, -0.133333, 0, 5287.013184)"/>
  <path d="m 35069.1,36574.7 v -273 c -5.6,3.3 -11.1,6.7 -16.5,10.1 v 273.1 c 5.4,-3.4 10.9,-6.8 16.5,-10.2" style="fill:#ffe840;fill-opacity:1;fill-rule:nonzero;stroke:none" id="path1252" transform="matrix(0.133333, 0, 0, -0.133333, 0, 5287.013184)"/>
  <path d="m 35319.1,36454.9 v -273.1 c -5.5,2 -11.1,4.1 -16.5,6.2 v 273 c 5.4,-2.1 11,-4.2 16.5,-6.1" style="fill:#ffe840;fill-opacity:1;fill-rule:nonzero;stroke:none" id="path1254" transform="matrix(0.133333, 0, 0, -0.133333, 0, 5287.013184)"/>
  <path d="m 35569.2,36381.8 v -273 c -5.5,1.2 -11,2.4 -16.5,3.7 v 273.1 c 5.5,-1.3 11,-2.6 16.5,-3.8" style="fill:#ffe840;fill-opacity:1;fill-rule:nonzero;stroke:none" id="path1256" transform="matrix(0.133333, 0, 0, -0.133333, 0, 5287.013184)"/>
  <path d="m 35819.2,36342.5 v -273 c -5.5,0.5 -11,1.1 -16.5,1.7 v 273 c 5.5,-0.6 11,-1.2 16.5,-1.7" style="fill:#ffe840;fill-opacity:1;fill-rule:nonzero;stroke:none" id="path1258" transform="matrix(0.133333, 0, 0, -0.133333, 0, 5287.013184)"/>
  <path d="m 36069.3,36331.3 v -273 c -5.5,-0.1 -11.1,-0.2 -16.6,-0.2 v 273 c 5.5,0 11.1,0.1 16.6,0.2" style="fill:#ffe840;fill-opacity:1;fill-rule:nonzero;stroke:none" id="path1260" transform="matrix(0.133333, 0, 0, -0.133333, 0, 5287.013184)"/>
  <path d="m 36319.3,36346.9 v -273 c -5.5,-0.7 -11.1,-1.4 -16.6,-1.9 v 273 c 5.5,0.6 11.1,1.2 16.6,1.9" style="fill:#ffe840;fill-opacity:1;fill-rule:nonzero;stroke:none" id="path1262" transform="matrix(0.133333, 0, 0, -0.133333, 0, 5287.013184)"/>
  <path d="m 36569.3,36391.3 v -273 c -5.5,-1.5 -11,-2.8 -16.5,-4 v 273 c 5.5,1.3 11,2.6 16.5,4" style="fill:#ffe840;fill-opacity:1;fill-rule:nonzero;stroke:none" id="path1264" transform="matrix(0.133333, 0, 0, -0.133333, 0, 5287.013184)"/>
  <path d="m 36819.3,36470.5 v -273 c -5.5,-2.2 -11,-4.4 -16.5,-6.5 v 273.1 c 5.5,2 11,4.2 16.5,6.4" style="fill:#ffe840;fill-opacity:1;fill-rule:nonzero;stroke:none" id="path1266" transform="matrix(0.133333, 0, 0, -0.133333, 0, 5287.013184)"/>
  <path d="m 37069.4,36600.6 v -273 c -5.4,-3.6 -10.9,-7.2 -16.5,-10.9 v 273.1 c 5.6,3.6 11.1,7.2 16.5,10.8" style="fill:#ffe840;fill-opacity:1;fill-rule:nonzero;stroke:none" id="path1268" transform="matrix(0.133333, 0, 0, -0.133333, 0, 5287.013184)"/>
  <path d="m 37291.2,36820.7 v -273 c -5.2,-8.5 -10.8,-17.1 -16.6,-25.5 v 273 c 5.8,8.5 11.3,17 16.6,25.5" style="fill:#ffe840;fill-opacity:1;fill-rule:nonzero;stroke:none" id="path1270" transform="matrix(0.133333, 0, 0, -0.133333, 0, 5287.013184)"/>
  <path d="m 34982.2,34190 v -301.4 h -1.5 c -6.1,-76.3 -31.7,-152.3 -76.7,-225.2 -5.2,-8.5 -10.8,-17 -16.6,-25.5 -54.4,-79.2 -132.2,-154.4 -233.5,-221.9 -5.4,-3.6 -10.9,-7.2 -16.5,-10.9 -16.1,-10.3 -32.9,-20.5 -50.2,-30.5 -57.5,-33.2 -118.9,-62.8 -183.3,-88.7 -5.5,-2.2 -11.1,-4.4 -16.6,-6.5 -74.3,-29.1 -152.6,-53.4 -233.4,-72.7 -5.5,-1.5 -11.1,-2.8 -16.6,-4 -75.9,-17.7 -154.2,-31.1 -233.5,-40.4 -5.5,-0.7 -11,-1.4 -16.5,-1.9 -77.1,-8.5 -155.3,-13.1 -233.5,-13.7 -5.5,-0.1 -11,-0.2 -16.5,-0.2 -78.2,-0.1 -156.3,3.7 -233.6,11.4 -5.5,0.5 -11,1.1 -16.5,1.7 -79.2,8.4 -157.5,21 -233.5,37.6 -5.5,1.2 -11,2.4 -16.5,3.7 -80.7,18.4 -159.1,41.5 -233.6,69.3 -5.5,2 -11.1,4.1 -16.5,6.2 -73.3,28.1 -142.8,60.8 -207.5,98.2 -8.8,5.1 -17.5,10.2 -26,15.5 -5.6,3.3 -11.1,6.7 -16.5,10.1 -98.5,62.3 -176.5,131.5 -233.6,204.9 -5.8,7.3 -11.2,14.6 -16.5,22 -60.1,83.7 -93.8,172.4 -100.9,261.5 h -1.5 v 301.4 h 80.1 c 6.9,11.2 14.4,22.3 22.3,33.2 5.3,7.5 10.8,14.8 16.5,22.1 21,27 44.9,53.4 71.5,79.1 32.6,31.5 69.3,62 110.3,91.1 29.3,20.8 60.8,41 94.3,60.4 526.8,304.1 1380.8,304.1 1907.6,0 33.5,-19.4 64.9,-39.5 94.2,-60.4 41,-29.1 77.8,-59.5 110.4,-91.1 37.4,-36.1 69.3,-73.7 95.6,-112.1 5.2,-7.4 10,-14.8 14.7,-22.3 h 80.1" style="fill:#ff9d4d;fill-opacity:1;fill-rule:nonzero;stroke:none" id="path1272" transform="matrix(0.133333, 0, 0, -0.133333, 0, 5287.013184)"/>
  <path d="m 33633.4,34704 c -345.2,0 -690.4,-76 -953.8,-228.1 -33.5,-19.4 -65,-39.6 -94.3,-60.4 -41,-29.1 -77.7,-59.6 -110.3,-91.1 -26.6,-25.7 -50.5,-52.1 -71.5,-79.1 -5.7,-7.3 -11.2,-14.6 -16.5,-22.1 -7.9,-10.9 -15.4,-22 -22.3,-33.2 h -80.1 v -301.4 h 1.5 c 7.1,-89.1 40.8,-177.8 100.9,-261.5 5.3,-7.4 10.7,-14.7 16.5,-22 57.1,-73.4 135.1,-142.6 233.6,-204.9 5.4,-3.4 10.9,-6.8 16.5,-10.1 8.5,-5.3 17.2,-10.4 26,-15.5 64.7,-37.4 134.2,-70.1 207.5,-98.2 5.4,-2.1 11,-4.2 16.5,-6.2 74.6,-27.8 152.9,-50.9 233.6,-69.3 5.5,-1.3 11,-2.5 16.5,-3.7 76,-16.6 154.3,-29.2 233.5,-37.6 5.5,-0.6 11,-1.2 16.5,-1.7 75.8,-7.6 152.4,-11.4 229.1,-11.4 1.5,0 3,0 4.5,0 5.5,0 11,0.1 16.5,0.2 78.2,0.6 156.4,5.2 233.5,13.7 5.5,0.5 11,1.2 16.5,1.9 79.3,9.3 157.6,22.7 233.5,40.4 5.5,1.2 11.1,2.5 16.6,4 80.8,19.3 159.1,43.6 233.4,72.7 5.5,2.1 11.1,4.3 16.6,6.5 64.4,25.9 125.8,55.5 183.3,88.7 17.3,10 34.1,20.2 50.2,30.5 5.6,3.7 11.1,7.3 16.5,10.9 101.3,67.5 179.1,142.7 233.5,221.9 5.8,8.5 11.4,17 16.6,25.5 45,72.9 70.6,148.9 76.7,225.2 h 1.5 v 36.6 0.1 264.7 h -80.1 c -4.7,7.5 -9.5,14.9 -14.7,22.3 -26.3,38.4 -58.2,76 -95.6,112.1 -32.6,31.6 -69.4,62 -110.4,91.1 -29.3,20.9 -60.7,41 -94.2,60.4 -263.4,152.1 -608.6,228.1 -953.8,228.1 z m 0,-16.5 c 357.4,0 693.2,-80.3 945.5,-225.9 32.8,-19 64.1,-39 92.9,-59.6 40,-28.4 76.5,-58.5 108.5,-89.5 36.1,-34.9 67.6,-71.8 93.5,-109.7 4.7,-6.7 9.4,-13.8 14.2,-21.6 l 4.9,-7.7 h 9.2 63.5 v -248.3 -20 h -0.1 l -1.2,-15.2 c -6.1,-74.4 -31.1,-147.7 -74.4,-217.9 -4.8,-7.9 -10.2,-16.2 -16.1,-24.8 -54.4,-79.4 -131.5,-152.5 -229,-217.5 -5.4,-3.6 -10.9,-7.2 -16.3,-10.7 -15.8,-10.2 -32.5,-20.3 -49.6,-30.2 -55.8,-32.2 -116.8,-61.8 -181.2,-87.7 -5.4,-2.1 -10.8,-4.3 -16.4,-6.4 -73,-28.5 -150.8,-52.8 -231.6,-72.1 -5.4,-1.4 -10.7,-2.7 -16.1,-3.9 -74.4,-17.3 -152.4,-30.8 -231.8,-40.1 -5.4,-0.7 -10.8,-1.3 -16.4,-1.9 -76.4,-8.4 -154.4,-13 -232.2,-13.6 -5.3,-0.1 -10.6,-0.1 -16,-0.1 h -4.4 c -76.3,0 -152.8,3.8 -227.7,11.3 -5.3,0.4 -10.7,1 -16.2,1.6 -78.6,8.3 -156.5,20.9 -231.7,37.4 -5.4,1.2 -10.8,2.4 -16.3,3.6 -80.8,18.5 -158.7,41.6 -231.5,68.7 l -2,0.7 c -4.7,1.8 -9.5,3.5 -14.4,5.5 -73,27.9 -142,60.6 -205,97 -8.8,5 -17.3,10.1 -25.8,15.3 -5.5,3.3 -11,6.7 -16.3,10 -95.1,60.1 -172.2,127.7 -229.4,201.1 -5.1,6.4 -10.3,13.4 -16.1,21.4 -57.9,80.7 -90.8,165.9 -97.8,253.2 l -1.3,15.3 h -0.2 v 268.3 h 63.6 9.2 l 4.8,7.8 c 6.7,10.7 14,21.5 21.8,32.4 4.8,6.7 10.1,13.8 16.1,21.5 20.4,26.2 43.9,52.3 69.9,77.3 32.4,31.4 68.9,61.5 108.4,89.5 29.2,20.8 60.5,40.8 93,59.6 252.3,145.6 588.1,225.9 945.5,225.9" style="fill:#ffe840;fill-opacity:1;fill-rule:nonzero;stroke:none" id="path1274" transform="matrix(0.133333, 0, 0, -0.133333, 0, 5287.013184)"/>
  <path d="m 34587.1,34748.9 c 526.8,-304.1 526.8,-797.2 0,-1101.3 -526.7,-304.1 -1380.7,-304.1 -1907.5,0 -526.7,304.1 -526.7,797.2 0,1101.3 526.8,304.1 1380.8,304.1 1907.5,0" style="fill:#ffe840;fill-opacity:1;fill-rule:nonzero;stroke:none" id="path1276" transform="matrix(0.133333, 0, 0, -0.133333, 0, 5287.013184)"/>
  <path d="m 34653.9,33941 c -5.2,-7 -10.8,-14.1 -16.5,-21 -52.9,-63.8 -125.1,-123.6 -216.6,-176.4 -5.6,-3.2 -11.2,-6.4 -16.9,-9.5 -5.5,-3.1 -11,-6.1 -16.6,-8.9 -71.9,-38.4 -150.4,-70.1 -233.4,-95.4 -5.5,-1.7 -11.1,-3.3 -16.6,-4.9 -75,-22 -153.3,-38.7 -233.5,-50.2 -5.4,-0.8 -11,-1.6 -16.5,-2.2 -76.8,-10.4 -155.1,-16 -233.5,-16.7 -5.5,-0.1 -11,-0.2 -16.5,-0.2 -78.3,-0.1 -156.7,4.4 -233.6,13.8 -5.5,0.6 -11.1,1.3 -16.5,2.1 -80,10.3 -158.4,25.9 -233.5,46.5 -5.5,1.5 -11.1,3 -16.5,4.6 -82.7,23.7 -161.2,53.7 -233.6,90 -5.6,2.8 -11.1,5.6 -16.5,8.5 -14,7.2 -27.7,14.8 -41.1,22.5 -78.2,45.2 -142.4,95.5 -192.4,148.9 -5.6,6.2 -11.1,12.3 -16.5,18.5 -135.9,157.4 -153.2,340.6 -51.8,504.5 53.8,86.7 140.6,168.1 260.7,237.4 434.1,250.7 1140.6,250.7 1574.8,0 120.1,-69.3 207,-150.7 260.6,-237.4 95.1,-153.6 85.9,-324.1 -27.5,-474.5 z m 137.9,383.4 c -43.2,133.7 -154.9,256.7 -325.1,355 -222.6,128.5 -518.6,199.3 -833.3,199.3 -314.8,0 -610.7,-70.8 -833.3,-199.3 -170.2,-98.3 -282,-221.3 -325.1,-355 -13.3,-41.2 -20.1,-83.3 -20.1,-126.1 0,-130.8 63.5,-256 182.2,-363.8 5.4,-5 10.9,-9.8 16.5,-14.6 42.5,-36.6 91.5,-70.9 146.5,-102.7 27.9,-16.1 57,-31.4 87,-45.5 5.5,-2.7 11,-5.2 16.5,-7.7 72.5,-33.2 150.9,-61.1 233.6,-83.2 5.5,-1.5 11,-3 16.5,-4.4 74.8,-19.2 152.9,-33.9 233.5,-43.6 5.5,-0.8 11,-1.5 16.5,-2.1 74.8,-8.5 151.7,-12.8 229.7,-12.8 h 3.9 c 5.5,0 11,0.1 16.5,0.2 79.4,0.7 157.5,5.9 233.5,15.6 5.5,0.7 11,1.3 16.5,2.2 80.7,10.8 158.9,26.6 233.5,47 5.6,1.5 11.1,3 16.6,4.6 82.9,23.6 161.2,53 233.4,87.9 5.5,2.5 11.1,5.2 16.6,8 21.5,10.7 42.4,22 62.8,33.8 65.9,38 123,79.8 170.7,124.4 5.7,5.2 11.2,10.5 16.5,15.9 103,102.4 157.9,219.2 157.9,340.8 0,42.8 -6.8,84.9 -20,126.1" style="fill:#ff9d4d;fill-opacity:1;fill-rule:nonzero;stroke:none" id="path1278" transform="matrix(0.133333, 0, 0, -0.133333, 0, 5287.013184)"/>
  <path d="m 33676.5,34308.1 127.1,-73.3 c -2.9,-1.4 -5.8,-2.9 -8.5,-4.5 l -69.7,-40.3 -118.7,68.6 39.2,22.6 c 14,8.1 24.3,17.1 30.6,26.9" style="fill:#d1975d;fill-opacity:1;fill-rule:nonzero;stroke:none" id="path1280" transform="matrix(0.133333, 0, 0, -0.133333, 0, 5287.013184)"/>
  <path d="m 33387.2,34356.9 16.5,9.6 8.1,4.6 v 0 l 45.7,26.4 c 2.7,1.5 5.6,2.7 8.4,4 9.3,4.5 19.1,8.4 29.8,11 14.8,3.5 31,5.1 48.4,4.8 33,-0.6 64,-9.1 93.2,-25.5 l 2.1,-1.2 c 5.3,-3 10,-6.1 14.4,-9.3 20.8,-14.9 31.1,-30.8 30.8,-47.6 -0.2,-9.1 -2.8,-17.6 -8,-25.6 -5.2,-7.9 -12.8,-15.3 -22.8,-22 -2.5,-1.7 -5.1,-3.3 -7.9,-4.9 l -8.6,-5 -30.6,-17.6 -94.6,-54.7 h -0.1 l -25.8,-14.9 -40.6,-23.4 -22.6,13 -25.2,14.5 -10.6,6.2 -47.7,27.5 -88.8,51.3 24.7,14.2 41.7,24.1 v 0.1 z m 407.9,-126.6 c 2.8,1.6 5.6,3.1 8.4,4.4 10.9,5.2 22.8,9.2 35.6,11.6 15.6,3 31.6,4.1 48.2,3.5 l 2.5,-0.1 c 4.7,-0.2 9.3,-0.6 14,-1 12.7,-1.4 25.6,-3.7 38.3,-7.1 17.4,-4.6 33.1,-10.9 46.8,-18.9 13.8,-8 24.3,-16.9 31.6,-27 7.2,-10.1 11,-20.3 11.4,-30.5 0.4,-10.3 -2.9,-20.3 -9.8,-30.2 -4.2,-6 -9.7,-11.6 -16.5,-16.9 -3.3,-2.6 -7.1,-5.2 -11.1,-7.7 -1.2,-0.7 -2.2,-1.4 -3.4,-2.1 l -60,-34.6 -2.1,-1.2 -25.2,-14.6 -16.5,-9.5 -52.9,-30.5 -66.5,-38.4 -203.6,117.5 21.7,12.6 44.7,25.8 v 0 l 6.6,3.8 16.5,9.5 71.6,41.3 z m 261.3,-231.4 v 0 l 130.2,-75.1 77.8,44.9 -130.5,75.3 c 1.1,0.8 2.3,1.5 3.4,2.3 5.8,3.5 11.3,7.2 16.6,10.9 18.4,13.1 34.4,26.7 47.9,40.8 21.4,22.4 35.2,45 41.3,67.9 6.2,22.8 3.5,45.1 -8.1,66.9 -11.7,21.8 -33.8,42.1 -66.4,61 -4.9,2.8 -9.8,5.5 -14.7,8.1 -5.5,2.8 -11,5.5 -16.6,8.1 -42,19.4 -86.7,31 -134.2,34.7 -33.5,2.6 -66.5,1.6 -99.3,-2.9 -5.5,-0.8 -11,-1.7 -16.5,-2.7 -20,-3.5 -39.9,-8.3 -59.6,-14.5 20.3,30.2 23.4,60.2 9.3,90.2 -14.2,30 -40.1,55.8 -77.8,77.6 -24,13.8 -51.9,25.2 -83.9,34 -31.9,8.7 -64.7,14.1 -98.5,16 -33.8,1.9 -67.3,-0.1 -100.8,-6 -33.4,-5.9 -63.5,-16.5 -90.3,-32 l -24.5,-14.2 -125.4,72.4 -77.8,-44.9 125.3,-72.4 -94.6,-54.7 -125.4,72.4 -77.8,-44.9 125.3,-72.4 -138.8,-80.2 165.2,-95.4 16.5,-9.5 233.5,-134.8 16.5,-9.6 233.6,-134.8 16.5,-9.6 91.2,-52.7 138.9,80.2 h 0.1 l 130.1,-75.1 77.8,44.9 -130.2,75.2 h 0.1 l 94.6,54.6" style="fill:#ff9d4d;fill-opacity:1;fill-rule:nonzero;stroke:none" id="path1282" transform="matrix(0.133333, 0, 0, -0.133333, 0, 5287.013184)"/>
  <path d="m 32438.7,33844 v -272.9 c -5.8,7.3 -11.2,14.6 -16.5,22 v 273 c 5.3,-7.3 10.8,-14.7 16.5,-22.1" style="fill:#ffe840;fill-opacity:1;fill-rule:nonzero;stroke:none" id="path1284" transform="matrix(0.133333, 0, 0, -0.133333, 0, 5287.013184)"/>
  <path d="m 32653.6,33663.1 v -273 c -5.6,3.3 -11.1,6.7 -16.5,10.1 v 273.1 c 5.4,-3.4 10.9,-6.8 16.5,-10.2" style="fill:#ffe840;fill-opacity:1;fill-rule:nonzero;stroke:none" id="path1286" transform="matrix(0.133333, 0, 0, -0.133333, 0, 5287.013184)"/>
  <path d="m 32903.6,33543.3 v -273.1 c -5.5,2 -11.1,4.1 -16.5,6.2 v 273.1 c 5.4,-2.2 11,-4.3 16.5,-6.2" style="fill:#ffe840;fill-opacity:1;fill-rule:nonzero;stroke:none" id="path1288" transform="matrix(0.133333, 0, 0, -0.133333, 0, 5287.013184)"/>
  <path d="m 33153.7,33470.2 v -273 c -5.5,1.2 -11,2.4 -16.5,3.7 v 273.1 c 5.5,-1.3 11,-2.5 16.5,-3.8" style="fill:#ffe840;fill-opacity:1;fill-rule:nonzero;stroke:none" id="path1290" transform="matrix(0.133333, 0, 0, -0.133333, 0, 5287.013184)"/>
  <path d="m 33403.7,33430.9 v -273 c -5.5,0.5 -11,1.1 -16.5,1.7 v 273 c 5.5,-0.6 11,-1.2 16.5,-1.7" style="fill:#ffe840;fill-opacity:1;fill-rule:nonzero;stroke:none" id="path1292" transform="matrix(0.133333, 0, 0, -0.133333, 0, 5287.013184)"/>
  <path d="m 33653.8,33419.7 v -273 c -5.5,-0.1 -11,-0.2 -16.5,-0.2 v 273.1 c 5.5,0 11,0 16.5,0.1" style="fill:#ffe840;fill-opacity:1;fill-rule:nonzero;stroke:none" id="path1294" transform="matrix(0.133333, 0, 0, -0.133333, 0, 5287.013184)"/>
  <path d="m 33903.8,33435.3 v -273 c -5.5,-0.7 -11,-1.4 -16.5,-1.9 v 273 c 5.5,0.6 11,1.2 16.5,1.9" style="fill:#ffe840;fill-opacity:1;fill-rule:nonzero;stroke:none" id="path1296" transform="matrix(0.133333, 0, 0, -0.133333, 0, 5287.013184)"/>
  <path d="m 34153.9,33479.7 v -273 c -5.5,-1.5 -11.1,-2.8 -16.6,-4 v 273.1 c 5.5,1.2 11.1,2.5 16.6,3.9" style="fill:#ffe840;fill-opacity:1;fill-rule:nonzero;stroke:none" id="path1298" transform="matrix(0.133333, 0, 0, -0.133333, 0, 5287.013184)"/>
  <path d="m 34403.9,33558.9 v -273 c -5.5,-2.2 -11.1,-4.4 -16.6,-6.5 v 273.1 c 5.5,2 11.1,4.2 16.6,6.4" style="fill:#ffe840;fill-opacity:1;fill-rule:nonzero;stroke:none" id="path1300" transform="matrix(0.133333, 0, 0, -0.133333, 0, 5287.013184)"/>
  <path d="m 34653.9,33689 v -273 c -5.4,-3.6 -10.9,-7.2 -16.5,-10.9 v 273.1 c 5.6,3.6 11.1,7.2 16.5,10.8" style="fill:#ffe840;fill-opacity:1;fill-rule:nonzero;stroke:none" id="path1302" transform="matrix(0.133333, 0, 0, -0.133333, 0, 5287.013184)"/>
  <path d="m 34875.7,33909.1 v -273 c -5.2,-8.5 -10.8,-17.1 -16.6,-25.5 v 273 c 5.8,8.5 11.3,17 16.6,25.5" style="fill:#ffe840;fill-opacity:1;fill-rule:nonzero;stroke:none" id="path1304" transform="matrix(0.133333, 0, 0, -0.133333, 0, 5287.013184)"/>
</svg>