<?xml version="1.0" encoding="utf-8"?>
<svg viewBox="2533.854 75.567 1006.547 1184.419" width="1006.547" height="1184.419" xmlns="http://www.w3.org/2000/svg">
  <defs>
    <clipPath clipPathUnits="userSpaceOnUse" id="clipPath436">
      <path d="m 26318,37110.9 -3250.2,1876.2 c -179.5,103.7 -400.6,103.7 -580.1,0 L 19238,37110.9 c -131.7,-76 -212.8,-216.5 -212.8,-368.6 l 180,-70.9 37.3,191.2 3353.6,-2029.4 14.2,-315.6 301.4,24.8 70.9,281.9 3330.9,2038.3 37.3,-191.2 180,70.9 c 0,152.1 -81.1,292.6 -212.8,368.6 z" id="path434"/>
    </clipPath>
    <linearGradient x1="0" y1="0" x2="1" y2="0" gradientUnits="userSpaceOnUse" gradientTransform="matrix(7505.61,0,0,-7505.61,19025.2,36791.2)" spreadMethod="pad" id="linearGradient442">
      <stop style="stop-opacity:1;stop-color:#6a5ebf" offset="0" id="stop438"/>
      <stop style="stop-opacity:1;stop-color:#6e3aa5" offset="1" id="stop440"/>
    </linearGradient>
    <clipPath clipPathUnits="userSpaceOnUse" id="clipPath454">
      <path d="m 26319,36865.2 -3347.3,-1932.6 c -119.3,-68.8 -192.8,-196.1 -192.8,-333.8 v -2962.7 l -381.7,-347.7 154.3,-76.8 c 142.9,-71.1 310.6,-72.1 454.2,-2.6 l 72.5,35.1 c 9.9,3.9 19.8,8.6 29.4,14.2 l 3353.2,1936 c 43.9,25.3 70.9,72.2 70.9,122.8 v 3425.2 c 0,109.2 -118.2,177.5 -212.7,122.9 z" id="path452"/>
    </clipPath>
    <linearGradient x1="0" y1="0" x2="1" y2="0" gradientUnits="userSpaceOnUse" gradientTransform="matrix(4134.56,0,0,-4134.56,22397.2,34021)" spreadMethod="pad" id="linearGradient460">
      <stop style="stop-opacity:1;stop-color:#2e256b" offset="0" id="stop456"/>
      <stop style="stop-opacity:1;stop-color:#5a3087" offset="1" id="stop458"/>
    </linearGradient>
    <clipPath clipPathUnits="userSpaceOnUse" id="clipPath472">
      <path d="m 22449.3,31258.3 -3353.2,1936 c -43.9,25.3 -70.9,72.2 -70.9,122.8 v 3425.2 c 0,109.2 118.2,177.5 212.8,122.9 l 3347.3,-1932.6 c 119.2,-68.8 192.7,-196.1 192.7,-333.8 v -3150.7 c 0,-168.7 -182.6,-274.1 -328.7,-189.8 z" id="path470"/>
    </clipPath>
    <linearGradient x1="0" y1="0" x2="1" y2="0" gradientUnits="userSpaceOnUse" gradientTransform="matrix(3752.8,0,0,-3752.8,19025.2,34056.5)" spreadMethod="pad" id="linearGradient478">
      <stop style="stop-opacity:1;stop-color:#483ca6" offset="0" id="stop474"/>
      <stop style="stop-opacity:1;stop-color:#59278f" offset="1" id="stop476"/>
    </linearGradient>
    <clipPath clipPathUnits="userSpaceOnUse" id="clipPath490">
      <path d="m 22190.2,34529.9 v -2715 l -2715,1567.5 v 2715.1 l 189,-109.2 z" id="path488"/>
    </clipPath>
    <linearGradient x1="0" y1="0" x2="1" y2="0" gradientUnits="userSpaceOnUse" gradientTransform="matrix(2715.05,0,0,-2715.05,19475.2,33956.2)" spreadMethod="pad" id="linearGradient496">
      <stop style="stop-opacity:1;stop-color:#2e256b" offset="0" id="stop492"/>
      <stop style="stop-opacity:1;stop-color:#5a3087" offset="1" id="stop494"/>
    </linearGradient>
    <clipPath clipPathUnits="userSpaceOnUse" id="clipPath506">
      <path d="m 22190.2,34529.9 v -2501.6 l -2526,1458.4 v 2501.6 z" id="path504"/>
    </clipPath>
    <linearGradient x1="0" y1="0" x2="1" y2="0" gradientUnits="userSpaceOnUse" gradientTransform="matrix(2526.05,0,0,-2526.05,19664.2,34008.3)" spreadMethod="pad" id="linearGradient512">
      <stop style="stop-opacity:1;stop-color:#483ca6" offset="0" id="stop508"/>
      <stop style="stop-opacity:1;stop-color:#59278f" offset="1" id="stop510"/>
    </linearGradient>
    <clipPath clipPathUnits="userSpaceOnUse" id="clipPath522">
      <path d="m 19664.2,35988.3 v -2501.6 l 2526,-1458.4 v 2501.6 l -2526,1458.4 m 34.4,-59.6 2457.2,-1418.7 v -2422 l -2457.2,1418.6 v 2422.1" id="path520"/>
    </clipPath>
    <clipPath clipPathUnits="userSpaceOnUse" id="clipPath712">
      <path d="m 19470.4,36394.8 c 0,-40.7 -33,-54.7 -73.8,-31.2 -40.7,23.6 -73.8,75.7 -73.8,116.4 0,40.8 33.1,54.8 73.8,31.2 40.8,-23.5 73.8,-75.6 73.8,-116.4 z" id="path710"/>
    </clipPath>
    <linearGradient x1="0" y1="0" x2="1" y2="0" gradientUnits="userSpaceOnUse" gradientTransform="matrix(147.579,0,0,-147.579,19322.8,36437.4)" spreadMethod="pad" id="linearGradient718">
      <stop style="stop-opacity:1;stop-color:#2e256b" offset="0" id="stop714"/>
      <stop style="stop-opacity:1;stop-color:#5a3087" offset="1" id="stop716"/>
    </linearGradient>
    <clipPath clipPathUnits="userSpaceOnUse" id="clipPath728">
      <path d="m 20214.7,35962.1 c 0,-40.8 -33.1,-54.7 -73.8,-31.2 -40.8,23.5 -73.8,75.6 -73.8,116.4 0,40.7 33,54.7 73.8,31.2 40.7,-23.6 73.8,-75.7 73.8,-116.4 z" id="path726"/>
    </clipPath>
    <linearGradient x1="0" y1="0" x2="1" y2="0" gradientUnits="userSpaceOnUse" gradientTransform="matrix(147.579,0,0,-147.579,20067.1,36004.7)" spreadMethod="pad" id="linearGradient734">
      <stop style="stop-opacity:1;stop-color:#2e256b" offset="0" id="stop730"/>
      <stop style="stop-opacity:1;stop-color:#5a3087" offset="1" id="stop732"/>
    </linearGradient>
    <clipPath clipPathUnits="userSpaceOnUse" id="clipPath744">
      <path d="m 20958.9,35529.3 c 0,-40.7 -33,-54.7 -73.8,-31.2 -40.7,23.6 -73.8,75.7 -73.8,116.4 0,40.8 33.1,54.8 73.8,31.2 40.8,-23.5 73.8,-75.6 73.8,-116.4 z" id="path742"/>
    </clipPath>
    <linearGradient x1="0" y1="0" x2="1" y2="0" gradientUnits="userSpaceOnUse" gradientTransform="matrix(147.58,0,0,-147.58,20811.3,35571.9)" spreadMethod="pad" id="linearGradient750">
      <stop style="stop-opacity:1;stop-color:#2e256b" offset="0" id="stop746"/>
      <stop style="stop-opacity:1;stop-color:#5a3087" offset="1" id="stop748"/>
    </linearGradient>
    <clipPath clipPathUnits="userSpaceOnUse" id="clipPath760">
      <path d="m 21703.1,35096.6 c 0,-40.8 -33,-54.7 -73.7,-31.2 -40.8,23.5 -73.8,75.6 -73.8,116.4 0,40.7 33,54.7 73.8,31.2 40.7,-23.5 73.7,-75.7 73.7,-116.4 z" id="path758"/>
    </clipPath>
    <linearGradient x1="0" y1="0" x2="1" y2="0" gradientUnits="userSpaceOnUse" gradientTransform="matrix(147.579,0,0,-147.579,21555.6,35139.2)" spreadMethod="pad" id="linearGradient766">
      <stop style="stop-opacity:1;stop-color:#2e256b" offset="0" id="stop762"/>
      <stop style="stop-opacity:1;stop-color:#5a3087" offset="1" id="stop764"/>
    </linearGradient>
    <clipPath clipPathUnits="userSpaceOnUse" id="clipPath776">
      <path d="m 22447.4,34663.8 c 0,-40.7 -33,-54.7 -73.8,-31.1 -40.8,23.5 -73.8,75.6 -73.8,116.3 0,40.8 33,54.8 73.8,31.2 40.8,-23.5 73.8,-75.6 73.8,-116.4 z" id="path774"/>
    </clipPath>
    <linearGradient x1="0" y1="0" x2="1" y2="0" gradientUnits="userSpaceOnUse" gradientTransform="matrix(147.579,0,0,-147.579,22299.8,34706.4)" spreadMethod="pad" id="linearGradient782">
      <stop style="stop-opacity:1;stop-color:#2e256b" offset="0" id="stop778"/>
      <stop style="stop-opacity:1;stop-color:#5a3087" offset="1" id="stop780"/>
    </linearGradient>
    <clipPath clipPathUnits="userSpaceOnUse" id="clipPath794">
      <path d="m 26129.1,36321.2 c 0,-40.7 33.1,-54.7 73.8,-31.2 40.8,23.6 73.8,75.7 73.8,116.4 0,40.8 -33,54.8 -73.8,31.2 -40.7,-23.5 -73.8,-75.6 -73.8,-116.4 z" id="path792"/>
    </clipPath>
    <linearGradient x1="0" y1="0" x2="1" y2="0" gradientUnits="userSpaceOnUse" gradientTransform="matrix(147.579,0,0,-147.579,26129.1,36363.8)" spreadMethod="pad" id="linearGradient800">
      <stop style="stop-opacity:1;stop-color:#483ca6" offset="0" id="stop796"/>
      <stop style="stop-opacity:1;stop-color:#59278f" offset="1" id="stop798"/>
    </linearGradient>
    <clipPath clipPathUnits="userSpaceOnUse" id="clipPath810">
      <path d="m 25384.9,35888.5 c 0,-40.8 33,-54.7 73.8,-31.2 40.7,23.5 73.8,75.6 73.8,116.4 0,40.7 -33.1,54.7 -73.8,31.2 -40.8,-23.5 -73.8,-75.7 -73.8,-116.4 z" id="path808"/>
    </clipPath>
    <linearGradient x1="0" y1="0" x2="1" y2="0" gradientUnits="userSpaceOnUse" gradientTransform="matrix(147.579,0,0,-147.579,25384.9,35931.1)" spreadMethod="pad" id="linearGradient816">
      <stop style="stop-opacity:1;stop-color:#483ca6" offset="0" id="stop812"/>
      <stop style="stop-opacity:1;stop-color:#59278f" offset="1" id="stop814"/>
    </linearGradient>
    <clipPath clipPathUnits="userSpaceOnUse" id="clipPath826">
      <path d="m 24640.7,35455.7 c 0,-40.7 33,-54.7 73.7,-31.1 40.8,23.5 73.8,75.6 73.8,116.3 0,40.8 -33,54.8 -73.8,31.2 -40.7,-23.5 -73.7,-75.6 -73.7,-116.4 z" id="path824"/>
    </clipPath>
    <linearGradient x1="0" y1="0" x2="1" y2="0" gradientUnits="userSpaceOnUse" gradientTransform="matrix(147.58,0,0,-147.58,24640.7,35498.3)" spreadMethod="pad" id="linearGradient832">
      <stop style="stop-opacity:1;stop-color:#483ca6" offset="0" id="stop828"/>
      <stop style="stop-opacity:1;stop-color:#59278f" offset="1" id="stop830"/>
    </linearGradient>
    <clipPath clipPathUnits="userSpaceOnUse" id="clipPath842">
      <path d="m 23896.4,35023 c 0,-40.8 33,-54.7 73.8,-31.2 40.8,23.5 73.8,75.6 73.8,116.4 0,40.8 -33,54.7 -73.8,31.2 -40.8,-23.5 -73.8,-75.6 -73.8,-116.4 z" id="path840"/>
    </clipPath>
    <linearGradient x1="0" y1="0" x2="1" y2="0" gradientUnits="userSpaceOnUse" gradientTransform="matrix(147.579,0,0,-147.579,23896.4,35065.6)" spreadMethod="pad" id="linearGradient848">
      <stop style="stop-opacity:1;stop-color:#483ca6" offset="0" id="stop844"/>
      <stop style="stop-opacity:1;stop-color:#59278f" offset="1" id="stop846"/>
    </linearGradient>
    <clipPath clipPathUnits="userSpaceOnUse" id="clipPath858">
      <path d="m 23152.2,34590.2 c 0,-40.7 33,-54.7 73.8,-31.1 40.7,23.5 73.8,75.6 73.8,116.4 0,40.7 -33.1,54.7 -73.8,31.1 -40.8,-23.5 -73.8,-75.6 -73.8,-116.4 z" id="path856"/>
    </clipPath>
    <linearGradient x1="0" y1="0" x2="1" y2="0" gradientUnits="userSpaceOnUse" gradientTransform="matrix(147.58,0,0,-147.58,23152.2,34632.8)" spreadMethod="pad" id="linearGradient864">
      <stop style="stop-opacity:1;stop-color:#483ca6" offset="0" id="stop860"/>
      <stop style="stop-opacity:1;stop-color:#59278f" offset="1" id="stop862"/>
    </linearGradient>
    <clipPath clipPathUnits="userSpaceOnUse" id="clipPath876">
      <path d="m 26087.6,33285.5 c 0,-40.8 33.1,-54.7 73.8,-31.2 40.8,23.5 73.8,75.6 73.8,116.4 0,40.7 -33,54.7 -73.8,31.2 -40.7,-23.5 -73.8,-75.7 -73.8,-116.4 z" id="path874"/>
    </clipPath>
    <linearGradient x1="0" y1="0" x2="1" y2="0" gradientUnits="userSpaceOnUse" gradientTransform="matrix(147.58,0,0,-147.58,26087.6,33328.1)" spreadMethod="pad" id="linearGradient882">
      <stop style="stop-opacity:1;stop-color:#483ca6" offset="0" id="stop878"/>
      <stop style="stop-opacity:1;stop-color:#59278f" offset="1" id="stop880"/>
    </linearGradient>
    <clipPath clipPathUnits="userSpaceOnUse" id="clipPath892">
      <path d="m 25343.4,32852.7 c 0,-40.7 33,-54.7 73.8,-31.1 40.7,23.5 73.8,75.6 73.8,116.3 0,40.8 -33.1,54.8 -73.8,31.2 -40.8,-23.5 -73.8,-75.6 -73.8,-116.4 z" id="path890"/>
    </clipPath>
    <linearGradient x1="0" y1="0" x2="1" y2="0" gradientUnits="userSpaceOnUse" gradientTransform="matrix(147.579,0,0,-147.579,25343.4,32895.3)" spreadMethod="pad" id="linearGradient898">
      <stop style="stop-opacity:1;stop-color:#483ca6" offset="0" id="stop894"/>
      <stop style="stop-opacity:1;stop-color:#59278f" offset="1" id="stop896"/>
    </linearGradient>
    <clipPath clipPathUnits="userSpaceOnUse" id="clipPath908">
      <path d="m 24599.1,32420 c 0,-40.8 33.1,-54.7 73.8,-31.2 40.8,23.5 73.8,75.6 73.8,116.4 0,40.8 -33,54.7 -73.8,31.2 -40.7,-23.5 -73.8,-75.7 -73.8,-116.4 z" id="path906"/>
    </clipPath>
    <linearGradient x1="0" y1="0" x2="1" y2="0" gradientUnits="userSpaceOnUse" gradientTransform="matrix(147.579,0,0,-147.579,24599.1,32462.6)" spreadMethod="pad" id="linearGradient914">
      <stop style="stop-opacity:1;stop-color:#483ca6" offset="0" id="stop910"/>
      <stop style="stop-opacity:1;stop-color:#59278f" offset="1" id="stop912"/>
    </linearGradient>
    <clipPath clipPathUnits="userSpaceOnUse" id="clipPath924">
      <path d="m 23854.9,31987.2 c 0,-40.7 33,-54.7 73.8,-31.1 40.7,23.5 73.8,75.6 73.8,116.4 0,40.7 -33.1,54.7 -73.8,31.1 -40.8,-23.5 -73.8,-75.6 -73.8,-116.4 z" id="path922"/>
    </clipPath>
    <linearGradient x1="0" y1="0" x2="1" y2="0" gradientUnits="userSpaceOnUse" gradientTransform="matrix(147.58,0,0,-147.58,23854.9,32029.8)" spreadMethod="pad" id="linearGradient930">
      <stop style="stop-opacity:1;stop-color:#483ca6" offset="0" id="stop926"/>
      <stop style="stop-opacity:1;stop-color:#59278f" offset="1" id="stop928"/>
    </linearGradient>
    <clipPath clipPathUnits="userSpaceOnUse" id="clipPath940">
      <path d="m 23110.7,31554.5 c 0,-40.8 33,-54.7 73.7,-31.2 40.8,23.5 73.8,75.7 73.8,116.4 0,40.8 -33,54.7 -73.8,31.2 -40.7,-23.5 -73.7,-75.6 -73.7,-116.4 z" id="path938"/>
    </clipPath>
    <linearGradient x1="0" y1="0" x2="1" y2="0" gradientUnits="userSpaceOnUse" gradientTransform="matrix(147.579,0,0,-147.579,23110.7,31597.1)" spreadMethod="pad" id="linearGradient946">
      <stop style="stop-opacity:1;stop-color:#483ca6" offset="0" id="stop942"/>
      <stop style="stop-opacity:1;stop-color:#59278f" offset="1" id="stop944"/>
    </linearGradient>
    <clipPath clipPathUnits="userSpaceOnUse" id="clipPath958">
      <path d="m 19396.6,33254.3 c 0,-40.8 -33,-54.7 -73.8,-31.2 -40.7,23.5 -73.8,75.6 -73.8,116.4 0,40.7 33.1,54.7 73.8,31.2 40.8,-23.6 73.8,-75.7 73.8,-116.4 z" id="path956"/>
    </clipPath>
    <linearGradient x1="0" y1="0" x2="1" y2="0" gradientUnits="userSpaceOnUse" gradientTransform="matrix(147.58,0,0,-147.58,19249,33296.9)" spreadMethod="pad" id="linearGradient964">
      <stop style="stop-opacity:1;stop-color:#2e256b" offset="0" id="stop960"/>
      <stop style="stop-opacity:1;stop-color:#5a3087" offset="1" id="stop962"/>
    </linearGradient>
    <clipPath clipPathUnits="userSpaceOnUse" id="clipPath974">
      <path d="m 20140.9,32821.5 c 0,-40.7 -33.1,-54.7 -73.8,-31.2 -40.8,23.6 -73.8,75.7 -73.8,116.4 0,40.8 33,54.7 73.8,31.2 40.7,-23.5 73.8,-75.6 73.8,-116.4 z" id="path972"/>
    </clipPath>
    <linearGradient x1="0" y1="0" x2="1" y2="0" gradientUnits="userSpaceOnUse" gradientTransform="matrix(147.579,0,0,-147.579,19993.3,32864.1)" spreadMethod="pad" id="linearGradient980">
      <stop style="stop-opacity:1;stop-color:#2e256b" offset="0" id="stop976"/>
      <stop style="stop-opacity:1;stop-color:#5a3087" offset="1" id="stop978"/>
    </linearGradient>
    <clipPath clipPathUnits="userSpaceOnUse" id="clipPath990">
      <path d="m 20885.1,32388.8 c 0,-40.8 -33,-54.7 -73.8,-31.2 -40.7,23.5 -73.8,75.6 -73.8,116.4 0,40.7 33.1,54.7 73.8,31.2 40.8,-23.6 73.8,-75.7 73.8,-116.4 z" id="path988"/>
    </clipPath>
    <linearGradient x1="0" y1="0" x2="1" y2="0" gradientUnits="userSpaceOnUse" gradientTransform="matrix(147.579,0,0,-147.579,20737.5,32431.4)" spreadMethod="pad" id="linearGradient996">
      <stop style="stop-opacity:1;stop-color:#2e256b" offset="0" id="stop992"/>
      <stop style="stop-opacity:1;stop-color:#5a3087" offset="1" id="stop994"/>
    </linearGradient>
    <clipPath clipPathUnits="userSpaceOnUse" id="clipPath1006">
      <path d="m 21629.4,31956 c 0,-40.7 -33.1,-54.7 -73.8,-31.2 -40.8,23.6 -73.8,75.7 -73.8,116.4 0,40.8 33,54.7 73.8,31.2 40.7,-23.5 73.8,-75.6 73.8,-116.4 z" id="path1004"/>
    </clipPath>
    <linearGradient x1="0" y1="0" x2="1" y2="0" gradientUnits="userSpaceOnUse" gradientTransform="matrix(147.58,0,0,-147.58,21481.8,31998.6)" spreadMethod="pad" id="linearGradient1012">
      <stop style="stop-opacity:1;stop-color:#2e256b" offset="0" id="stop1008"/>
      <stop style="stop-opacity:1;stop-color:#5a3087" offset="1" id="stop1010"/>
    </linearGradient>
    <clipPath clipPathUnits="userSpaceOnUse" id="clipPath1022">
      <path d="m 22373.6,31523.3 c 0,-40.8 -33,-54.7 -73.8,-31.2 -40.7,23.5 -73.8,75.6 -73.8,116.4 0,40.7 33.1,54.7 73.8,31.2 40.8,-23.6 73.8,-75.7 73.8,-116.4 z" id="path1020"/>
    </clipPath>
    <linearGradient x1="0" y1="0" x2="1" y2="0" gradientUnits="userSpaceOnUse" gradientTransform="matrix(147.579,0,0,-147.579,22226,31565.9)" spreadMethod="pad" id="linearGradient1028">
      <stop style="stop-opacity:1;stop-color:#2e256b" offset="0" id="stop1024"/>
      <stop style="stop-opacity:1;stop-color:#5a3087" offset="1" id="stop1026"/>
    </linearGradient>
  </defs>
  <path d="M 24490.7,33317.1 22778,34306 21065.3,33317.1 h -2041 l 200.2,-1062.7 3553.5,-2051.7 3512.6,2028 241.1,1086.4 h -2041" style="fill:#e3dfea;fill-opacity:1;fill-rule:nonzero;stroke:none" id="path428" transform="matrix(0.133333, 0, 0, -0.133333, 0, 5287.013184)"/>
  <g id="g430" transform="matrix(0.133333, 0, 0, -0.133333, 0, 5287.013184)">
    <g id="g432" clip-path="url(#clipPath436)">
      <path d="m 26318,37110.9 -3250.2,1876.2 c -179.5,103.7 -400.6,103.7 -580.1,0 L 19238,37110.9 c -131.7,-76 -212.8,-216.5 -212.8,-368.6 l 180,-70.9 37.3,191.2 3353.6,-2029.4 14.2,-315.6 301.4,24.8 70.9,281.9 3330.9,2038.3 37.3,-191.2 180,70.9 c 0,152.1 -81.1,292.6 -212.8,368.6" style="fill:url(#linearGradient442);fill-opacity:1;fill-rule:nonzero;stroke:none" id="path444"/>
    </g>
  </g>
  <path d="m 19219,36853.4 3397.8,-2007.7 13.7,-305.1 264.3,21.7 69.3,275.6 7.4,4.6 3357,2054.2 38.3,-196.1 142.5,56.1 c -5,138.5 -81.4,266.2 -201.9,335.8 l -3250.2,1876.2 c -172.4,99.5 -386.5,99.5 -558.8,0 l -3249.8,-1876.2 c -120.5,-69.6 -196.9,-197.3 -201.9,-335.8 l 142.5,-56.1 z m 3371,-2358.9 -14.7,326.2 -3326.1,1965.4 -28.1,-143.9 -217.2,85.7 v 14.4 c 0,159.2 85.6,307.4 223.4,387 l 3249.8,1876.3 c 185.5,107 415.9,107 601.3,0 l 3250.3,-1876.3 c 137.8,-79.6 223.4,-227.8 223.4,-387 v -14.4 l -217.2,-85.7 -36.4,186.2 -3297.3,-2017.7 -72.6,-288.3 -338.6,-27.9" style="fill:#bf89ef;fill-opacity:1;fill-rule:nonzero;stroke:none" id="path446" transform="matrix(0.133333, 0, 0, -0.133333, 0, 5287.013184)"/>
  <g id="g448" transform="matrix(0.133333, 0, 0, -0.133333, 0, 5287.013184)">
    <g id="g450" clip-path="url(#clipPath454)">
      <path d="m 26319,36865.2 -3347.3,-1932.6 c -119.3,-68.8 -192.8,-196.1 -192.8,-333.8 v -2962.7 l -381.7,-347.7 154.3,-76.8 c 142.9,-71.1 310.6,-72.1 454.2,-2.6 l 72.5,35.1 c 9.9,3.9 19.8,8.6 29.4,14.2 l 3353.2,1936 c 43.9,25.3 70.9,72.2 70.9,122.8 v 3425.2 c 0,109.2 -118.2,177.5 -212.7,122.9" style="fill:url(#linearGradient460);fill-opacity:1;fill-rule:nonzero;stroke:none" id="path462"/>
    </g>
  </g>
  <path d="m 22434.5,31293.6 126.5,-63 c 136,-67.6 298.8,-68.6 435.4,-2.4 l 73.9,35.7 c 9.3,3.7 18.3,8 26.7,12.8 l 3353.2,1936 c 37.2,21.5 60.3,61.5 60.3,104.4 v 3425.2 c 0,43.6 -22.6,82.7 -60.3,104.5 -37.8,21.7 -82.8,21.8 -120.6,0 l -3347.3,-1932.6 c -112.3,-64.9 -182.1,-185.7 -182.1,-315.4 v -2972.1 z m 346.8,-156.9 c -82.3,0 -164.5,18.6 -239.2,55.8 l -182.2,90.7 397.8,362.3 v 2953.3 c 0,144.9 77.9,279.8 203.3,352.2 l 3347.3,1932.6 10.7,-18.4 -10.7,18.4 c 51.1,29.5 112.1,29.5 163.2,0 51,-29.5 81.5,-82.3 81.5,-141.3 v -3425.2 c 0,-58.1 -31.2,-112.2 -81.5,-141.2 l -3353.2,-1936 c -10,-5.8 -20.6,-10.9 -31.5,-15.3 l -71.8,-34.7 c -73.3,-35.5 -153.5,-53.2 -233.7,-53.2" style="fill:#bf89ef;fill-opacity:1;fill-rule:nonzero;stroke:none" id="path464" transform="matrix(0.133333, 0, 0, -0.133333, 0, 5287.013184)"/>
  <g id="g466" transform="matrix(0.133333, 0, 0, -0.133333, 0, 5287.013184)">
    <g id="g468" clip-path="url(#clipPath472)">
      <path d="m 22449.3,31258.3 -3353.2,1936 c -43.9,25.3 -70.9,72.2 -70.9,122.8 v 3425.2 c 0,109.2 118.2,177.5 212.8,122.9 l 3347.3,-1932.6 c 119.2,-68.8 192.7,-196.1 192.7,-333.8 v -3150.7 c 0,-168.7 -182.6,-274.1 -328.7,-189.8" style="fill:url(#linearGradient478);fill-opacity:1;fill-rule:nonzero;stroke:none" id="path480"/>
    </g>
  </g>
  <path d="m 22459.9,31276.7 c 62,-35.7 136,-35.7 197.9,0 61.9,35.8 98.9,99.9 98.9,171.4 v 3150.7 c 0,129.7 -69.8,250.5 -182.1,315.4 l -3347.3,1932.6 c -37.7,21.8 -82.8,21.7 -120.5,0 -37.8,-21.8 -60.3,-60.9 -60.3,-104.5 v -3425.2 c 0,-42.9 23.1,-82.9 60.3,-104.4 z m 99,-69.4 c -41.3,0 -82.6,10.9 -120.2,32.6 l -3353.2,1936 c -50.3,29 -81.6,83.1 -81.6,141.2 v 3425.2 c 0,59 30.5,111.8 81.6,141.3 51,29.5 112,29.5 163.1,0 L 22595.9,34951 c 125.5,-72.4 203.4,-207.3 203.4,-352.2 v -3150.7 c 0,-86.9 -45,-164.7 -120.2,-208.2 -37.7,-21.7 -78.9,-32.6 -120.2,-32.6" style="fill:#bf89ef;fill-opacity:1;fill-rule:nonzero;stroke:none" id="path482" transform="matrix(0.133333, 0, 0, -0.133333, 0, 5287.013184)"/>
  <g id="g484" transform="matrix(0.133333, 0, 0, -0.133333, 0, 5287.013184)">
    <g id="g486" clip-path="url(#clipPath490)">
      <path d="m 22190.2,34529.9 v -2715 l -2715,1567.5 v 2715.1 l 189,-109.2 2526,-1458.4" style="fill:url(#linearGradient496);fill-opacity:1;fill-rule:nonzero;stroke:none" id="path498"/>
    </g>
  </g>
  <g id="g500" transform="matrix(0.133333, 0, 0, -0.133333, 0, 5287.013184)">
    <g id="g502" clip-path="url(#clipPath506)">
      <path d="m 22190.2,34529.9 v -2501.6 l -2526,1458.4 v 2501.6 l 2526,-1458.4" style="fill:url(#linearGradient512);fill-opacity:1;fill-rule:nonzero;stroke:none" id="path514"/>
    </g>
  </g>
  <g id="g516" transform="matrix(0.133333, 0, 0, -0.133333, 0, 5287.013184)">
    <g id="g518" clip-path="url(#clipPath522)">
      <path d="m 19664.2,35988.3 v -3960 3960" style="fill:#2e256b;fill-opacity:1;fill-rule:nonzero;stroke:none" id="path524"/>
      <path d="m 19721.6,35988.3 v -3960 h -57.4 v 3960 h 57.4" style="fill:#2e256b;fill-opacity:1;fill-rule:nonzero;stroke:none" id="path526"/>
      <path d="m 19779,35988.3 v -3960 h -57.4 v 3960 h 57.4" style="fill:#2f256c;fill-opacity:1;fill-rule:nonzero;stroke:none" id="path528"/>
      <path d="m 19836.4,35988.3 v -3960 h -57.4 v 3960 h 57.4" style="fill:#30266c;fill-opacity:1;fill-rule:nonzero;stroke:none" id="path530"/>
      <path d="m 19893.8,35988.3 v -3960 h -57.4 v 3960 h 57.4" style="fill:#31266d;fill-opacity:1;fill-rule:nonzero;stroke:none" id="path532"/>
      <path d="m 19951.2,35988.3 v -3960 h -57.4 v 3960 h 57.4" style="fill:#32266e;fill-opacity:1;fill-rule:nonzero;stroke:none" id="path534"/>
      <path d="m 20008.7,35988.3 v -3960 h -57.5 v 3960 h 57.5" style="fill:#33266e;fill-opacity:1;fill-rule:nonzero;stroke:none" id="path536"/>
      <path d="m 20066.1,35988.3 v -3960 h -57.4 v 3960 h 57.4" style="fill:#34276f;fill-opacity:1;fill-rule:nonzero;stroke:none" id="path538"/>
      <path d="m 20123.5,35988.3 v -3960 h -57.4 v 3960 h 57.4" style="fill:#352770;fill-opacity:1;fill-rule:nonzero;stroke:none" id="path540"/>
      <path d="m 20180.9,35988.3 v -3960 h -57.4 v 3960 h 57.4" style="fill:#362770;fill-opacity:1;fill-rule:nonzero;stroke:none" id="path542"/>
      <path d="m 20238.3,35988.3 v -3960 h -57.4 v 3960 h 57.4" style="fill:#372771;fill-opacity:1;fill-rule:nonzero;stroke:none" id="path544"/>
      <path d="m 20295.7,35988.3 v -3960 h -57.4 v 3960 h 57.4" style="fill:#382872;fill-opacity:1;fill-rule:nonzero;stroke:none" id="path546"/>
      <path d="m 20353.1,35988.3 v -3960 h -57.4 v 3960 h 57.4" style="fill:#392872;fill-opacity:1;fill-rule:nonzero;stroke:none" id="path548"/>
      <path d="m 20410.5,35988.3 v -3960 h -57.4 v 3960 h 57.4" style="fill:#3a2873;fill-opacity:1;fill-rule:nonzero;stroke:none" id="path550"/>
      <path d="m 20467.9,35988.3 v -3960 h -57.4 v 3960 h 57.4" style="fill:#3b2873;fill-opacity:1;fill-rule:nonzero;stroke:none" id="path552"/>
      <path d="m 20525.3,35988.3 v -3960 h -57.4 v 3960 h 57.4" style="fill:#3c2974;fill-opacity:1;fill-rule:nonzero;stroke:none" id="path554"/>
      <path d="m 20582.8,35988.3 v -3960 h -57.5 v 3960 h 57.5" style="fill:#3d2975;fill-opacity:1;fill-rule:nonzero;stroke:none" id="path556"/>
      <path d="m 20640.2,35988.3 v -3960 h -57.4 v 3960 h 57.4" style="fill:#3e2975;fill-opacity:1;fill-rule:nonzero;stroke:none" id="path558"/>
      <path d="m 20697.6,35988.3 v -3960 h -57.4 v 3960 h 57.4" style="fill:#3f2976;fill-opacity:1;fill-rule:nonzero;stroke:none" id="path560"/>
      <path d="m 20755,35988.3 v -3960 h -57.4 v 3960 h 57.4" style="fill:#402a77;fill-opacity:1;fill-rule:nonzero;stroke:none" id="path562"/>
      <path d="m 20812.4,35988.3 v -3960 h -57.4 v 3960 h 57.4" style="fill:#412a77;fill-opacity:1;fill-rule:nonzero;stroke:none" id="path564"/>
      <path d="m 20869.8,35988.3 v -3960 h -57.4 v 3960 h 57.4" style="fill:#422a78;fill-opacity:1;fill-rule:nonzero;stroke:none" id="path566"/>
      <path d="m 20927.2,35988.3 v -3960 h -57.4 v 3960 h 57.4" style="fill:#432a79;fill-opacity:1;fill-rule:nonzero;stroke:none" id="path568"/>
      <path d="m 20984.6,35988.3 v -3960 h -57.4 v 3960 h 57.4" style="fill:#452b79;fill-opacity:1;fill-rule:nonzero;stroke:none" id="path570"/>
      <path d="m 21042,35988.3 v -3960 h -57.4 v 3960 h 57.4" style="fill:#462b7a;fill-opacity:1;fill-rule:nonzero;stroke:none" id="path572"/>
      <path d="m 21099.4,35988.3 v -3960 h -57.4 v 3960 h 57.4" style="fill:#472b7b;fill-opacity:1;fill-rule:nonzero;stroke:none" id="path574"/>
      <path d="m 21156.9,35988.3 v -3960 h -57.5 v 3960 h 57.5" style="fill:#482b7b;fill-opacity:1;fill-rule:nonzero;stroke:none" id="path576"/>
      <path d="m 21214.3,35988.3 v -3960 h -57.4 v 3960 h 57.4" style="fill:#492c7c;fill-opacity:1;fill-rule:nonzero;stroke:none" id="path578"/>
      <path d="m 21271.7,35988.3 v -3960 h -57.4 v 3960 h 57.4" style="fill:#4a2c7d;fill-opacity:1;fill-rule:nonzero;stroke:none" id="path580"/>
      <path d="m 21329.1,35988.3 v -3960 h -57.4 v 3960 h 57.4" style="fill:#4b2c7d;fill-opacity:1;fill-rule:nonzero;stroke:none" id="path582"/>
      <path d="m 21386.5,35988.3 v -3960 h -57.4 v 3960 h 57.4" style="fill:#4c2c7e;fill-opacity:1;fill-rule:nonzero;stroke:none" id="path584"/>
      <path d="m 21443.9,35988.3 v -3960 h -57.4 v 3960 h 57.4" style="fill:#4d2d7f;fill-opacity:1;fill-rule:nonzero;stroke:none" id="path586"/>
      <path d="m 21501.3,35988.3 v -3960 h -57.4 v 3960 h 57.4" style="fill:#4e2d7f;fill-opacity:1;fill-rule:nonzero;stroke:none" id="path588"/>
      <path d="m 21558.7,35988.3 v -3960 h -57.4 v 3960 h 57.4" style="fill:#4f2d80;fill-opacity:1;fill-rule:nonzero;stroke:none" id="path590"/>
      <path d="m 21616.1,35988.3 v -3960 h -57.4 v 3960 h 57.4" style="fill:#502d80;fill-opacity:1;fill-rule:nonzero;stroke:none" id="path592"/>
      <path d="m 21673.5,35988.3 v -3960 h -57.4 v 3960 h 57.4" style="fill:#512e81;fill-opacity:1;fill-rule:nonzero;stroke:none" id="path594"/>
      <path d="m 21731,35988.3 v -3960 h -57.5 v 3960 h 57.5" style="fill:#522e82;fill-opacity:1;fill-rule:nonzero;stroke:none" id="path596"/>
      <path d="m 21788.4,35988.3 v -3960 h -57.4 v 3960 h 57.4" style="fill:#532e82;fill-opacity:1;fill-rule:nonzero;stroke:none" id="path598"/>
      <path d="m 21845.8,35988.3 v -3960 h -57.4 v 3960 h 57.4" style="fill:#542e83;fill-opacity:1;fill-rule:nonzero;stroke:none" id="path600"/>
      <path d="m 21903.2,35988.3 v -3960 h -57.4 v 3960 h 57.4" style="fill:#552f84;fill-opacity:1;fill-rule:nonzero;stroke:none" id="path602"/>
      <path d="m 21960.6,35988.3 v -3960 h -57.4 v 3960 h 57.4" style="fill:#562f84;fill-opacity:1;fill-rule:nonzero;stroke:none" id="path604"/>
      <path d="m 22018,35988.3 v -3960 h -57.4 v 3960 h 57.4" style="fill:#572f85;fill-opacity:1;fill-rule:nonzero;stroke:none" id="path606"/>
      <path d="m 22075.4,35988.3 v -3960 h -57.4 v 3960 h 57.4" style="fill:#582f86;fill-opacity:1;fill-rule:nonzero;stroke:none" id="path608"/>
      <path d="m 22132.8,35988.3 v -3960 h -57.4 v 3960 h 57.4" style="fill:#593086;fill-opacity:1;fill-rule:nonzero;stroke:none" id="path610"/>
      <path d="m 22190.2,35988.3 v -3960 h -57.4 v 3960 h 57.4" style="fill:#5a3087;fill-opacity:1;fill-rule:nonzero;stroke:none" id="path612"/>
      <path d="m 22190.2,32028.3 v 3960 -3960" style="fill:#5a3087;fill-opacity:1;fill-rule:nonzero;stroke:none" id="path614"/>
      <path d="M 19721.6,35928.7 V 32088 h -23 v 3840.7 h 23" style="fill:#2e256b;fill-opacity:1;fill-rule:nonzero;stroke:none" id="path616"/>
      <path d="M 19779,35928.7 V 32088 h -57.4 v 3840.7 h 57.4" style="fill:#2f256c;fill-opacity:1;fill-rule:nonzero;stroke:none" id="path618"/>
      <path d="M 19836.4,35928.7 V 32088 h -57.4 v 3840.7 h 57.4" style="fill:#30266c;fill-opacity:1;fill-rule:nonzero;stroke:none" id="path620"/>
      <path d="M 19893.8,35928.7 V 32088 h -57.4 v 3840.7 h 57.4" style="fill:#31266d;fill-opacity:1;fill-rule:nonzero;stroke:none" id="path622"/>
      <path d="M 19951.2,35928.7 V 32088 h -57.4 v 3840.7 h 57.4" style="fill:#32266e;fill-opacity:1;fill-rule:nonzero;stroke:none" id="path624"/>
      <path d="M 20008.7,35928.7 V 32088 h -57.5 v 3840.7 h 57.5" style="fill:#33266e;fill-opacity:1;fill-rule:nonzero;stroke:none" id="path626"/>
      <path d="M 20066.1,35928.7 V 32088 h -57.4 v 3840.7 h 57.4" style="fill:#34276f;fill-opacity:1;fill-rule:nonzero;stroke:none" id="path628"/>
      <path d="M 20123.5,35928.7 V 32088 h -57.4 v 3840.7 h 57.4" style="fill:#352770;fill-opacity:1;fill-rule:nonzero;stroke:none" id="path630"/>
      <path d="M 20180.9,35928.7 V 32088 h -57.4 v 3840.7 h 57.4" style="fill:#362770;fill-opacity:1;fill-rule:nonzero;stroke:none" id="path632"/>
      <path d="M 20238.3,35928.7 V 32088 h -57.4 v 3840.7 h 57.4" style="fill:#372771;fill-opacity:1;fill-rule:nonzero;stroke:none" id="path634"/>
      <path d="M 20295.7,35928.7 V 32088 h -57.4 v 3840.7 h 57.4" style="fill:#382872;fill-opacity:1;fill-rule:nonzero;stroke:none" id="path636"/>
      <path d="M 20353.1,35928.7 V 32088 h -57.4 v 3840.7 h 57.4" style="fill:#392872;fill-opacity:1;fill-rule:nonzero;stroke:none" id="path638"/>
      <path d="M 20410.5,35928.7 V 32088 h -57.4 v 3840.7 h 57.4" style="fill:#3a2873;fill-opacity:1;fill-rule:nonzero;stroke:none" id="path640"/>
      <path d="M 20467.9,35928.7 V 32088 h -57.4 v 3840.7 h 57.4" style="fill:#3b2873;fill-opacity:1;fill-rule:nonzero;stroke:none" id="path642"/>
      <path d="M 20525.3,35928.7 V 32088 h -57.4 v 3840.7 h 57.4" style="fill:#3c2974;fill-opacity:1;fill-rule:nonzero;stroke:none" id="path644"/>
      <path d="M 20582.8,35928.7 V 32088 h -57.5 v 3840.7 h 57.5" style="fill:#3d2975;fill-opacity:1;fill-rule:nonzero;stroke:none" id="path646"/>
      <path d="M 20640.2,35928.7 V 32088 h -57.4 v 3840.7 h 57.4" style="fill:#3e2975;fill-opacity:1;fill-rule:nonzero;stroke:none" id="path648"/>
      <path d="M 20697.6,35928.7 V 32088 h -57.4 v 3840.7 h 57.4" style="fill:#3f2976;fill-opacity:1;fill-rule:nonzero;stroke:none" id="path650"/>
      <path d="M 20755,35928.7 V 32088 h -57.4 v 3840.7 h 57.4" style="fill:#402a77;fill-opacity:1;fill-rule:nonzero;stroke:none" id="path652"/>
      <path d="M 20812.4,35928.7 V 32088 h -57.4 v 3840.7 h 57.4" style="fill:#412a77;fill-opacity:1;fill-rule:nonzero;stroke:none" id="path654"/>
      <path d="M 20869.8,35928.7 V 32088 h -57.4 v 3840.7 h 57.4" style="fill:#422a78;fill-opacity:1;fill-rule:nonzero;stroke:none" id="path656"/>
      <path d="M 20927.2,35928.7 V 32088 h -57.4 v 3840.7 h 57.4" style="fill:#432a79;fill-opacity:1;fill-rule:nonzero;stroke:none" id="path658"/>
      <path d="M 20984.6,35928.7 V 32088 h -57.4 v 3840.7 h 57.4" style="fill:#452b79;fill-opacity:1;fill-rule:nonzero;stroke:none" id="path660"/>
      <path d="M 21042,35928.7 V 32088 h -57.4 v 3840.7 h 57.4" style="fill:#462b7a;fill-opacity:1;fill-rule:nonzero;stroke:none" id="path662"/>
      <path d="M 21099.4,35928.7 V 32088 h -57.4 v 3840.7 h 57.4" style="fill:#472b7b;fill-opacity:1;fill-rule:nonzero;stroke:none" id="path664"/>
      <path d="M 21156.9,35928.7 V 32088 h -57.5 v 3840.7 h 57.5" style="fill:#482b7b;fill-opacity:1;fill-rule:nonzero;stroke:none" id="path666"/>
      <path d="M 21214.3,35928.7 V 32088 h -57.4 v 3840.7 h 57.4" style="fill:#492c7c;fill-opacity:1;fill-rule:nonzero;stroke:none" id="path668"/>
      <path d="M 21271.7,35928.7 V 32088 h -57.4 v 3840.7 h 57.4" style="fill:#4a2c7d;fill-opacity:1;fill-rule:nonzero;stroke:none" id="path670"/>
      <path d="M 21329.1,35928.7 V 32088 h -57.4 v 3840.7 h 57.4" style="fill:#4b2c7d;fill-opacity:1;fill-rule:nonzero;stroke:none" id="path672"/>
      <path d="M 21386.5,35928.7 V 32088 h -57.4 v 3840.7 h 57.4" style="fill:#4c2c7e;fill-opacity:1;fill-rule:nonzero;stroke:none" id="path674"/>
      <path d="M 21443.9,35928.7 V 32088 h -57.4 v 3840.7 h 57.4" style="fill:#4d2d7f;fill-opacity:1;fill-rule:nonzero;stroke:none" id="path676"/>
      <path d="M 21501.3,35928.7 V 32088 h -57.4 v 3840.7 h 57.4" style="fill:#4e2d7f;fill-opacity:1;fill-rule:nonzero;stroke:none" id="path678"/>
      <path d="M 21558.7,35928.7 V 32088 h -57.4 v 3840.7 h 57.4" style="fill:#4f2d80;fill-opacity:1;fill-rule:nonzero;stroke:none" id="path680"/>
      <path d="M 21616.1,35928.7 V 32088 h -57.4 v 3840.7 h 57.4" style="fill:#502d80;fill-opacity:1;fill-rule:nonzero;stroke:none" id="path682"/>
      <path d="M 21673.5,35928.7 V 32088 h -57.4 v 3840.7 h 57.4" style="fill:#512e81;fill-opacity:1;fill-rule:nonzero;stroke:none" id="path684"/>
      <path d="M 21731,35928.7 V 32088 h -57.5 v 3840.7 h 57.5" style="fill:#522e82;fill-opacity:1;fill-rule:nonzero;stroke:none" id="path686"/>
      <path d="M 21788.4,35928.7 V 32088 h -57.4 v 3840.7 h 57.4" style="fill:#532e82;fill-opacity:1;fill-rule:nonzero;stroke:none" id="path688"/>
      <path d="M 21845.8,35928.7 V 32088 h -57.4 v 3840.7 h 57.4" style="fill:#542e83;fill-opacity:1;fill-rule:nonzero;stroke:none" id="path690"/>
      <path d="M 21903.2,35928.7 V 32088 h -57.4 v 3840.7 h 57.4" style="fill:#552f84;fill-opacity:1;fill-rule:nonzero;stroke:none" id="path692"/>
      <path d="M 21960.6,35928.7 V 32088 h -57.4 v 3840.7 h 57.4" style="fill:#562f84;fill-opacity:1;fill-rule:nonzero;stroke:none" id="path694"/>
      <path d="M 22018,35928.7 V 32088 h -57.4 v 3840.7 h 57.4" style="fill:#572f85;fill-opacity:1;fill-rule:nonzero;stroke:none" id="path696"/>
      <path d="M 22075.4,35928.7 V 32088 h -57.4 v 3840.7 h 57.4" style="fill:#582f86;fill-opacity:1;fill-rule:nonzero;stroke:none" id="path698"/>
      <path d="M 22132.8,35928.7 V 32088 h -57.4 v 3840.7 h 57.4" style="fill:#593086;fill-opacity:1;fill-rule:nonzero;stroke:none" id="path700"/>
      <path d="m 22132.8,32088 v 3840.7 h 23 V 32088 h -23" style="fill:#5a3087;fill-opacity:1;fill-rule:nonzero;stroke:none" id="path702"/>
    </g>
  </g>
  <path d="m 19470.4,36394.8 c 0,-40.7 -33,-54.7 -73.8,-31.2 -40.7,23.6 -73.8,75.7 -73.8,116.4 0,40.8 33.1,54.8 73.8,31.2 40.8,-23.5 73.8,-75.6 73.8,-116.4" style="fill:#634d99;fill-opacity:1;fill-rule:nonzero;stroke:none" id="path704" transform="matrix(0.133333, 0, 0, -0.133333, 0, 5287.013184)"/>
  <g id="g706" transform="matrix(0.133333, 0, 0, -0.133333, 0, 5287.013184)">
    <g id="g708" clip-path="url(#clipPath712)">
      <path d="m 19470.4,36394.8 c 0,-40.7 -33,-54.7 -73.8,-31.2 -40.7,23.6 -73.8,75.7 -73.8,116.4 0,40.8 33.1,54.8 73.8,31.2 40.8,-23.5 73.8,-75.6 73.8,-116.4" style="fill:url(#linearGradient718);fill-opacity:1;fill-rule:nonzero;stroke:none" id="path720"/>
    </g>
  </g>
  <g id="g722" transform="matrix(0.133333, 0, 0, -0.133333, 0, 5287.013184)">
    <g id="g724" clip-path="url(#clipPath728)">
      <path d="m 20214.7,35962.1 c 0,-40.8 -33.1,-54.7 -73.8,-31.2 -40.8,23.5 -73.8,75.6 -73.8,116.4 0,40.7 33,54.7 73.8,31.2 40.7,-23.6 73.8,-75.7 73.8,-116.4" style="fill:url(#linearGradient734);fill-opacity:1;fill-rule:nonzero;stroke:none" id="path736"/>
    </g>
  </g>
  <g id="g738" transform="matrix(0.133333, 0, 0, -0.133333, 0, 5287.013184)">
    <g id="g740" clip-path="url(#clipPath744)">
      <path d="m 20958.9,35529.3 c 0,-40.7 -33,-54.7 -73.8,-31.2 -40.7,23.6 -73.8,75.7 -73.8,116.4 0,40.8 33.1,54.8 73.8,31.2 40.8,-23.5 73.8,-75.6 73.8,-116.4" style="fill:url(#linearGradient750);fill-opacity:1;fill-rule:nonzero;stroke:none" id="path752"/>
    </g>
  </g>
  <g id="g754" transform="matrix(0.133333, 0, 0, -0.133333, 0, 5287.013184)">
    <g id="g756" clip-path="url(#clipPath760)">
      <path d="m 21703.1,35096.6 c 0,-40.8 -33,-54.7 -73.7,-31.2 -40.8,23.5 -73.8,75.6 -73.8,116.4 0,40.7 33,54.7 73.8,31.2 40.7,-23.5 73.7,-75.7 73.7,-116.4" style="fill:url(#linearGradient766);fill-opacity:1;fill-rule:nonzero;stroke:none" id="path768"/>
    </g>
  </g>
  <g id="g770" transform="matrix(0.133333, 0, 0, -0.133333, 0, 5287.013184)">
    <g id="g772" clip-path="url(#clipPath776)">
      <path d="m 22447.4,34663.8 c 0,-40.7 -33,-54.7 -73.8,-31.1 -40.8,23.5 -73.8,75.6 -73.8,116.3 0,40.8 33,54.8 73.8,31.2 40.8,-23.5 73.8,-75.6 73.8,-116.4" style="fill:url(#linearGradient782);fill-opacity:1;fill-rule:nonzero;stroke:none" id="path784"/>
    </g>
  </g>
  <path d="m 26129.1,36321.2 c 0,-40.7 33.1,-54.7 73.8,-31.2 40.8,23.6 73.8,75.7 73.8,116.4 0,40.8 -33,54.8 -73.8,31.2 -40.7,-23.5 -73.8,-75.6 -73.8,-116.4" style="fill:#925fc4;fill-opacity:1;fill-rule:nonzero;stroke:none" id="path786" transform="matrix(0.133333, 0, 0, -0.133333, 0, 5287.013184)"/>
  <g id="g788" transform="matrix(0.133333, 0, 0, -0.133333, 0, 5287.013184)">
    <g id="g790" clip-path="url(#clipPath794)">
      <path d="m 26129.1,36321.2 c 0,-40.7 33.1,-54.7 73.8,-31.2 40.8,23.6 73.8,75.7 73.8,116.4 0,40.8 -33,54.8 -73.8,31.2 -40.7,-23.5 -73.8,-75.6 -73.8,-116.4" style="fill:url(#linearGradient800);fill-opacity:1;fill-rule:nonzero;stroke:none" id="path802"/>
    </g>
  </g>
  <g id="g804" transform="matrix(0.133333, 0, 0, -0.133333, 0, 5287.013184)">
    <g id="g806" clip-path="url(#clipPath810)">
      <path d="m 25384.9,35888.5 c 0,-40.8 33,-54.7 73.8,-31.2 40.7,23.5 73.8,75.6 73.8,116.4 0,40.7 -33.1,54.7 -73.8,31.2 -40.8,-23.5 -73.8,-75.7 -73.8,-116.4" style="fill:url(#linearGradient816);fill-opacity:1;fill-rule:nonzero;stroke:none" id="path818"/>
    </g>
  </g>
  <g id="g820" transform="matrix(0.133333, 0, 0, -0.133333, 0, 5287.013184)">
    <g id="g822" clip-path="url(#clipPath826)">
      <path d="m 24640.7,35455.7 c 0,-40.7 33,-54.7 73.7,-31.1 40.8,23.5 73.8,75.6 73.8,116.3 0,40.8 -33,54.8 -73.8,31.2 -40.7,-23.5 -73.7,-75.6 -73.7,-116.4" style="fill:url(#linearGradient832);fill-opacity:1;fill-rule:nonzero;stroke:none" id="path834"/>
    </g>
  </g>
  <g id="g836" transform="matrix(0.133333, 0, 0, -0.133333, 0, 5287.013184)">
    <g id="g838" clip-path="url(#clipPath842)">
      <path d="m 23896.4,35023 c 0,-40.8 33,-54.7 73.8,-31.2 40.8,23.5 73.8,75.6 73.8,116.4 0,40.8 -33,54.7 -73.8,31.2 -40.8,-23.5 -73.8,-75.6 -73.8,-116.4" style="fill:url(#linearGradient848);fill-opacity:1;fill-rule:nonzero;stroke:none" id="path850"/>
    </g>
  </g>
  <g id="g852" transform="matrix(0.133333, 0, 0, -0.133333, 0, 5287.013184)">
    <g id="g854" clip-path="url(#clipPath858)">
      <path d="m 23152.2,34590.2 c 0,-40.7 33,-54.7 73.8,-31.1 40.7,23.5 73.8,75.6 73.8,116.4 0,40.7 -33.1,54.7 -73.8,31.1 -40.8,-23.5 -73.8,-75.6 -73.8,-116.4" style="fill:url(#linearGradient864);fill-opacity:1;fill-rule:nonzero;stroke:none" id="path866"/>
    </g>
  </g>
  <path d="m 26087.6,33285.5 c 0,-40.8 33.1,-54.7 73.8,-31.2 40.8,23.5 73.8,75.6 73.8,116.4 0,40.7 -33,54.7 -73.8,31.2 -40.7,-23.5 -73.8,-75.7 -73.8,-116.4" style="fill:#925fc4;fill-opacity:1;fill-rule:nonzero;stroke:none" id="path868" transform="matrix(0.133333, 0, 0, -0.133333, 0, 5287.013184)"/>
  <g id="g870" transform="matrix(0.133333, 0, 0, -0.133333, 0, 5287.013184)">
    <g id="g872" clip-path="url(#clipPath876)">
      <path d="m 26087.6,33285.5 c 0,-40.8 33.1,-54.7 73.8,-31.2 40.8,23.5 73.8,75.6 73.8,116.4 0,40.7 -33,54.7 -73.8,31.2 -40.7,-23.5 -73.8,-75.7 -73.8,-116.4" style="fill:url(#linearGradient882);fill-opacity:1;fill-rule:nonzero;stroke:none" id="path884"/>
    </g>
  </g>
  <g id="g886" transform="matrix(0.133333, 0, 0, -0.133333, 0, 5287.013184)">
    <g id="g888" clip-path="url(#clipPath892)">
      <path d="m 25343.4,32852.7 c 0,-40.7 33,-54.7 73.8,-31.1 40.7,23.5 73.8,75.6 73.8,116.3 0,40.8 -33.1,54.8 -73.8,31.2 -40.8,-23.5 -73.8,-75.6 -73.8,-116.4" style="fill:url(#linearGradient898);fill-opacity:1;fill-rule:nonzero;stroke:none" id="path900"/>
    </g>
  </g>
  <g id="g902" transform="matrix(0.133333, 0, 0, -0.133333, 0, 5287.013184)">
    <g id="g904" clip-path="url(#clipPath908)">
      <path d="m 24599.1,32420 c 0,-40.8 33.1,-54.7 73.8,-31.2 40.8,23.5 73.8,75.6 73.8,116.4 0,40.8 -33,54.7 -73.8,31.2 -40.7,-23.5 -73.8,-75.7 -73.8,-116.4" style="fill:url(#linearGradient914);fill-opacity:1;fill-rule:nonzero;stroke:none" id="path916"/>
    </g>
  </g>
  <g id="g918" transform="matrix(0.133333, 0, 0, -0.133333, 0, 5287.013184)">
    <g id="g920" clip-path="url(#clipPath924)">
      <path d="m 23854.9,31987.2 c 0,-40.7 33,-54.7 73.8,-31.1 40.7,23.5 73.8,75.6 73.8,116.4 0,40.7 -33.1,54.7 -73.8,31.1 -40.8,-23.5 -73.8,-75.6 -73.8,-116.4" style="fill:url(#linearGradient930);fill-opacity:1;fill-rule:nonzero;stroke:none" id="path932"/>
    </g>
  </g>
  <g id="g934" transform="matrix(0.133333, 0, 0, -0.133333, 0, 5287.013184)">
    <g id="g936" clip-path="url(#clipPath940)">
      <path d="m 23110.7,31554.5 c 0,-40.8 33,-54.7 73.7,-31.2 40.8,23.5 73.8,75.7 73.8,116.4 0,40.8 -33,54.7 -73.8,31.2 -40.7,-23.5 -73.7,-75.6 -73.7,-116.4" style="fill:url(#linearGradient946);fill-opacity:1;fill-rule:nonzero;stroke:none" id="path948"/>
    </g>
  </g>
  <path d="m 19396.6,33254.3 c 0,-40.8 -33,-54.7 -73.8,-31.2 -40.7,23.5 -73.8,75.6 -73.8,116.4 0,40.7 33.1,54.7 73.8,31.2 40.8,-23.6 73.8,-75.7 73.8,-116.4" style="fill:#634d99;fill-opacity:1;fill-rule:nonzero;stroke:none" id="path950" transform="matrix(0.133333, 0, 0, -0.133333, 0, 5287.013184)"/>
  <g id="g952" transform="matrix(0.133333, 0, 0, -0.133333, 0, 5287.013184)">
    <g id="g954" clip-path="url(#clipPath958)">
      <path d="m 19396.6,33254.3 c 0,-40.8 -33,-54.7 -73.8,-31.2 -40.7,23.5 -73.8,75.6 -73.8,116.4 0,40.7 33.1,54.7 73.8,31.2 40.8,-23.6 73.8,-75.7 73.8,-116.4" style="fill:url(#linearGradient964);fill-opacity:1;fill-rule:nonzero;stroke:none" id="path966"/>
    </g>
  </g>
  <g id="g968" transform="matrix(0.133333, 0, 0, -0.133333, 0, 5287.013184)">
    <g id="g970" clip-path="url(#clipPath974)">
      <path d="m 20140.9,32821.5 c 0,-40.7 -33.1,-54.7 -73.8,-31.2 -40.8,23.6 -73.8,75.7 -73.8,116.4 0,40.8 33,54.7 73.8,31.2 40.7,-23.5 73.8,-75.6 73.8,-116.4" style="fill:url(#linearGradient980);fill-opacity:1;fill-rule:nonzero;stroke:none" id="path982"/>
    </g>
  </g>
  <g id="g984" transform="matrix(0.133333, 0, 0, -0.133333, 0, 5287.013184)">
    <g id="g986" clip-path="url(#clipPath990)">
      <path d="m 20885.1,32388.8 c 0,-40.8 -33,-54.7 -73.8,-31.2 -40.7,23.5 -73.8,75.6 -73.8,116.4 0,40.7 33.1,54.7 73.8,31.2 40.8,-23.6 73.8,-75.7 73.8,-116.4" style="fill:url(#linearGradient996);fill-opacity:1;fill-rule:nonzero;stroke:none" id="path998"/>
    </g>
  </g>
  <g id="g1000" transform="matrix(0.133333, 0, 0, -0.133333, 0, 5287.013184)">
    <g id="g1002" clip-path="url(#clipPath1006)">
      <path d="m 21629.4,31956 c 0,-40.7 -33.1,-54.7 -73.8,-31.2 -40.8,23.6 -73.8,75.7 -73.8,116.4 0,40.8 33,54.7 73.8,31.2 40.7,-23.5 73.8,-75.6 73.8,-116.4" style="fill:url(#linearGradient1012);fill-opacity:1;fill-rule:nonzero;stroke:none" id="path1014"/>
    </g>
  </g>
  <g id="g1016" transform="matrix(0.133333, 0, 0, -0.133333, 0, 5287.013184)">
    <g id="g1018" clip-path="url(#clipPath1022)">
      <path d="m 22373.6,31523.3 c 0,-40.8 -33,-54.7 -73.8,-31.2 -40.7,23.5 -73.8,75.6 -73.8,116.4 0,40.7 33.1,54.7 73.8,31.2 40.8,-23.6 73.8,-75.7 73.8,-116.4" style="fill:url(#linearGradient1028);fill-opacity:1;fill-rule:nonzero;stroke:none" id="path1030"/>
    </g>
  </g>
  <path d="m 24553.5,33038 c -98.2,-9.6 -185.7,5.7 -256.5,46.6 -14.1,8.1 -27.4,17.2 -39.9,27.4 -96.3,77.5 -148.9,213 -148.9,387.7 0,502.2 411.9,1148.7 918.2,1441 99.1,57.2 195.2,96.8 284.8,118.3 52.7,12.5 102.9,18.9 150.2,18.9 43.5,0 84.4,-5.4 122.2,-16.2 28.3,-8 54.8,-19.1 79.4,-33.3 121.7,-70.3 188.8,-217.7 188.8,-415.1 0,-502.3 -411.9,-1148.6 -918.2,-1441 -135.3,-78 -265,-123.2 -380.1,-134.3 z m 1202.1,2151 c -27.1,15.7 -55.7,28.9 -85.5,39.4 -114.8,41 -248,45 -390.7,12.9 -111,-25 -227.7,-71.9 -345.8,-140 -270.3,-156.1 -523.8,-407.1 -714,-706.9 -191.3,-302 -296.9,-619.7 -296.9,-894.7 0,-249.3 87.6,-444.4 247.7,-554.3 11,-7.5 22.2,-14.8 33.8,-21.4 85.5,-49.2 184.8,-73.6 293.1,-73.6 28.4,0 57.4,1.7 87,5.1 138.8,15.6 289.2,67.9 442.1,156.3 270.3,156 523.8,407.1 713.8,706.9 191.5,302 296.9,619.7 296.9,894.6 0,266.5 -99.9,470.9 -281.5,575.7" style="fill:#ffd071;fill-opacity:1;fill-rule:nonzero;stroke:none" id="path1032" transform="matrix(0.133333, 0, 0, -0.133333, 0, 5287.013184)"/>
  <path d="m 24795.6,33038 -66.1,1120.2 1007.8,946.4 127,-135.2 -944.5,-887 60.9,-1033.5 -185.1,-10.9" style="fill:#ffd071;fill-opacity:1;fill-rule:nonzero;stroke:none" id="path1034" transform="matrix(0.133333, 0, 0, -0.133333, 0, 5287.013184)"/>
  <path d="m 24553.5,33038 c 288.9,-32.6 577.4,68 781.6,274.9 114,115.5 218.7,247 309,389.5 169.6,267.5 271.7,547.4 292.8,798.9 4.5,53.8 -32,102.3 -85.1,112 0,-502.3 -411.9,-1148.6 -918.2,-1441 -135.3,-78 -265,-123.2 -380.1,-134.3" style="fill:#d1975d;fill-opacity:1;fill-rule:nonzero;stroke:none" id="path1036" transform="matrix(0.133333, 0, 0, -0.133333, 0, 5287.013184)"/>
  <path d="m 24772.2,34023.1 -469.5,333.5 107.4,151.2 469.5,-333.5 -107.4,-151.2" style="fill:#ffd071;fill-opacity:1;fill-rule:nonzero;stroke:none" id="path1038" transform="matrix(0.133333, 0, 0, -0.133333, 0, 5287.013184)"/>
  <path d="m 25107.7,34438.6 13.9,20.1 -71.1,40.4 c -1.3,0.8 -2.6,1.6 -4,2.3 v 0 c -62.6,34.2 -153.7,25.8 -255.2,-32.8 -188.6,-108.8 -341.5,-350 -341.5,-538.6 0,-79.2 27,-136.5 72.2,-168.3 v 0 0 c 6.7,-4.7 13.8,-8.9 21.3,-12.5 l 61.7,-36.1 13.7,19.7 c 50.6,-0.5 109.6,16.5 172.6,52.9 188.6,108.9 341.5,350 341.5,538.6 0,45.6 -8.9,83.9 -25.1,114.3" style="fill:#d1975d;fill-opacity:1;fill-rule:nonzero;stroke:none" id="path1040" transform="matrix(0.133333, 0, 0, -0.133333, 0, 5287.013184)"/>
  <path d="m 25202,34284.4 c 0,-188.6 -152.9,-429.8 -341.5,-538.7 -188.6,-108.9 -341.4,-44.2 -341.4,144.3 0,188.6 152.8,429.8 341.4,538.7 188.6,108.9 341.5,44.3 341.5,-144.3" style="fill:#ffd071;fill-opacity:1;fill-rule:nonzero;stroke:none" id="path1042" transform="matrix(0.133333, 0, 0, -0.133333, 0, 5287.013184)"/>
  <path d="m 24226.8,37511.4 v -323.7 h -1.6 c -6.6,-82 -34.1,-163.6 -82.4,-241.9 -5.6,-9.2 -11.6,-18.3 -17.8,-27.4 -58.4,-85.1 -142,-165.9 -250.8,-238.4 -5.8,-3.9 -11.7,-7.8 -17.7,-11.6 -17.4,-11.1 -35.4,-22.1 -54,-32.9 -61.7,-35.6 -127.7,-67.4 -196.9,-95.3 -5.9,-2.3 -11.8,-4.7 -17.8,-6.9 -79.8,-31.2 -163.9,-57.3 -250.7,-78.1 -6,-1.6 -11.9,-3 -17.8,-4.3 -81.6,-19 -165.6,-33.4 -250.9,-43.4 -5.9,-0.7 -11.8,-1.4 -17.7,-2 -82.8,-9.2 -166.8,-14.1 -250.8,-14.8 -5.9,0 -11.8,-0.1 -17.7,-0.1 -84,-0.2 -167.9,3.9 -250.9,12.2 -5.9,0.5 -11.9,1.2 -17.8,1.8 -85,9 -169.1,22.5 -250.8,40.4 -5.9,1.3 -11.8,2.6 -17.7,4 -86.7,19.8 -170.8,44.6 -250.9,74.4 -5.9,2.2 -11.9,4.4 -17.7,6.7 -78.8,30.2 -153.4,65.3 -222.9,105.4 -9.4,5.5 -18.7,11.1 -27.9,16.6 -6,3.7 -11.9,7.3 -17.8,11 -105.8,66.8 -189.5,141.2 -250.8,220 -6.3,7.8 -12.1,15.7 -17.8,23.6 -64.6,90 -100.7,185.2 -108.4,281 h -1.6 v 323.7 h 86 c 7.5,12 15.5,23.9 24,35.7 5.7,8 11.6,15.8 17.8,23.7 22.5,29 48.1,57.4 76.7,85 35,33.8 74.5,66.5 118.6,97.8 31.4,22.4 65.2,44.1 101.2,64.9 565.8,326.6 1483.2,326.6 2049,0 36.1,-20.8 69.8,-42.5 101.2,-64.9 44,-31.3 83.6,-63.9 118.6,-97.8 40.1,-38.8 74.4,-79.2 102.7,-120.5 5.5,-7.9 10.7,-15.9 15.7,-23.9 h 86.1" style="fill:#ff9d4d;fill-opacity:1;fill-rule:nonzero;stroke:none" id="path1044" transform="matrix(0.133333, 0, 0, -0.133333, 0, 5287.013184)"/>
  <path d="m 22778,38063.5 c -370.8,0 -741.6,-81.7 -1024.5,-245 -36,-20.8 -69.8,-42.5 -101.2,-64.9 -44.1,-31.3 -83.6,-64 -118.6,-97.8 -28.6,-27.6 -54.2,-56 -76.7,-85 -6.2,-7.9 -12.1,-15.7 -17.8,-23.7 -8.5,-11.8 -16.5,-23.7 -24,-35.7 h -86 v -323.7 h 1.6 c 7.7,-95.8 43.8,-191 108.4,-281 5.7,-7.9 11.5,-15.8 17.8,-23.6 61.3,-78.8 145,-153.2 250.8,-220 5.9,-3.7 11.8,-7.3 17.8,-11 9.2,-5.5 18.5,-11.1 27.9,-16.6 69.5,-40.1 144.1,-75.2 222.9,-105.4 5.8,-2.3 11.8,-4.5 17.7,-6.7 80.1,-29.8 164.2,-54.6 250.9,-74.4 5.9,-1.4 11.8,-2.7 17.7,-4 81.7,-17.9 165.8,-31.4 250.8,-40.4 6,-0.6 11.9,-1.3 17.8,-1.8 81.4,-8.2 163.7,-12.2 246,-12.2 1.6,0 3.2,0 4.9,0 5.9,0 11.8,0.1 17.7,0.1 84,0.7 168,5.6 250.8,14.8 5.9,0.6 11.8,1.3 17.7,2 85.3,10 169.3,24.4 250.9,43.4 5.9,1.3 11.8,2.7 17.8,4.3 86.8,20.8 170.9,46.9 250.7,78.1 6,2.2 11.9,4.6 17.8,6.9 69.2,27.9 135.1,59.7 196.9,95.3 18.6,10.8 36.6,21.8 54,32.9 6,3.8 11.9,7.7 17.7,11.6 108.8,72.5 192.4,153.3 250.8,238.4 6.2,9.1 12.2,18.2 17.8,27.4 48.3,78.3 75.8,159.9 82.4,241.9 h 1.6 v 39.3 0.1 284.3 h -86.1 c -5,8 -10.2,16 -15.7,23.9 -28.3,41.3 -62.6,81.7 -102.7,120.5 -35,33.9 -74.6,66.5 -118.6,97.8 -31.4,22.4 -65.1,44.1 -101.2,64.9 -282.9,163.3 -653.7,245 -1024.5,245 z m 0,-17.8 c 383.9,0 744.6,-86.1 1015.6,-242.6 35.3,-20.3 68.8,-41.9 99.8,-64 43,-30.5 82.2,-62.8 116.5,-96.1 38.9,-37.5 72.7,-77.1 100.5,-117.8 5,-7.3 10,-14.8 15.3,-23.2 l 5.2,-8.4 h 9.8 68.3 v -266.6 -21.6 h -0.1 l -1.4,-16.3 c -6.4,-79.9 -33.3,-158.6 -79.8,-234 -5.2,-8.4 -11,-17.4 -17.3,-26.6 -58.5,-85.3 -141.3,-163.9 -246,-233.7 -5.8,-3.9 -11.7,-7.7 -17.5,-11.5 -17.1,-10.9 -35,-21.8 -53.3,-32.4 -60,-34.6 -125.5,-66.3 -194.6,-94.2 -5.8,-2.3 -11.7,-4.6 -17.6,-6.9 -78.5,-30.6 -162,-56.7 -248.8,-77.5 -5.8,-1.5 -11.6,-2.8 -17.3,-4.1 -79.9,-18.6 -163.7,-33.1 -249,-43.1 -5.8,-0.7 -11.5,-1.4 -17.6,-2 -82,-9 -165.8,-14 -249,-14.6 -5.9,-0.1 -11.7,-0.2 -17.6,-0.2 h -4.8 c -81.9,0 -164.1,4.1 -244.6,12.2 -5.7,0.5 -11.3,1.1 -17.3,1.8 -84.4,8.9 -168.1,22.4 -248.9,40.1 -5.8,1.3 -11.6,2.5 -17.5,3.9 -86.8,19.8 -170.5,44.6 -248.7,73.7 l -2.2,0.8 c -5,1.9 -10.1,3.8 -15.4,5.9 -78.4,30 -152.5,65.1 -220.2,104.2 -9.4,5.4 -18.6,10.9 -27.7,16.4 -5.9,3.6 -11.8,7.2 -17.5,10.8 -102.1,64.5 -185,137.2 -246.4,216 -5.5,6.9 -11.1,14.4 -17.3,23 -62.2,86.7 -97.6,178.2 -105.1,272 l -1.3,16.3 h -0.3 v 288.2 h 68.3 9.9 l 5.2,8.4 c 7.2,11.5 15,23.2 23.4,34.8 5.2,7.3 10.8,14.9 17.3,23.1 21.9,28.2 47.2,56.2 75,83.1 34.9,33.7 74.1,66 116.6,96.1 31.3,22.3 64.9,43.8 99.8,64 271,156.5 631.7,242.6 1015.6,242.6" style="fill:#ffe840;fill-opacity:1;fill-rule:nonzero;stroke:none" id="path1046" transform="matrix(0.133333, 0, 0, -0.133333, 0, 5287.013184)"/>
  <path d="m 23802.5,38111.8 c 565.8,-326.7 565.8,-856.3 0,-1183 -565.8,-326.7 -1483.2,-326.7 -2049,0 -565.8,326.7 -565.8,856.3 0,1183 565.8,326.6 1483.2,326.6 2049,0" style="fill:#ffe840;fill-opacity:1;fill-rule:nonzero;stroke:none" id="path1048" transform="matrix(0.133333, 0, 0, -0.133333, 0, 5287.013184)"/>
  <path d="m 23874.2,37243.9 c -5.7,-7.5 -11.6,-15.1 -17.7,-22.5 -56.9,-68.6 -134.5,-132.7 -232.7,-189.5 -6,-3.4 -12,-6.9 -18.2,-10.3 -5.8,-3.2 -11.8,-6.4 -17.8,-9.5 -77.2,-41.2 -161.5,-75.3 -250.7,-102.4 -5.9,-1.8 -11.9,-3.6 -17.8,-5.3 -80.5,-23.6 -164.7,-41.6 -250.9,-53.9 -5.8,-0.9 -11.7,-1.7 -17.7,-2.4 -82.4,-11.1 -166.5,-17.1 -250.8,-17.9 -5.9,-0.1 -11.8,-0.2 -17.7,-0.2 -84.2,-0.2 -168.3,4.7 -250.9,14.8 -5.9,0.7 -11.9,1.4 -17.8,2.2 -85.9,11.1 -170,27.8 -250.8,50 -5.9,1.6 -11.9,3.3 -17.7,5 -88.8,25.4 -173.2,57.7 -250.9,96.6 -6,3 -11.9,6 -17.7,9.1 -15,7.8 -29.8,15.9 -44.2,24.2 -84,48.6 -152.9,102.5 -206.6,160 -6.1,6.6 -12,13.1 -17.8,19.8 -146,169.1 -164.5,365.8 -55.5,541.9 57.7,93.2 150.9,180.5 279.9,255 466.4,269.3 1225.2,269.3 1691.6,0 129,-74.5 222.3,-161.8 279.9,-255 102.1,-165 92.3,-348.1 -29.5,-509.7 z m 148.1,411.9 c -46.4,143.6 -166.4,275.7 -349.2,381.2 -239.1,138.1 -557,214.1 -895.1,214.1 -338.1,0 -656,-76 -895,-214.1 -182.8,-105.5 -302.9,-237.6 -349.3,-381.2 -14.3,-44.2 -21.5,-89.5 -21.5,-135.5 0,-140.5 68.2,-275 195.6,-390.8 5.8,-5.3 11.7,-10.5 17.8,-15.6 45.6,-39.3 98.2,-76.2 157.4,-110.4 29.9,-17.3 61.1,-33.6 93.4,-48.9 5.9,-2.8 11.8,-5.6 17.7,-8.2 77.9,-35.7 162.1,-65.6 250.9,-89.3 5.9,-1.6 11.8,-3.3 17.7,-4.8 80.4,-20.6 164.3,-36.4 250.8,-46.8 5.9,-0.9 11.9,-1.6 17.8,-2.2 80.4,-9.2 162.9,-13.8 246.7,-13.8 h 4.2 c 5.9,0 11.8,0.1 17.7,0.2 85.3,0.8 169.2,6.4 250.8,16.7 5.9,0.8 11.8,1.5 17.7,2.4 86.7,11.6 170.8,28.6 250.9,50.5 6,1.6 11.9,3.2 17.8,5 89.1,25.3 173.2,56.9 250.7,94.3 6,2.8 12,5.7 17.8,8.7 23.1,11.5 45.6,23.6 67.5,36.2 70.7,40.8 132.1,85.7 183.4,133.6 6,5.7 12,11.4 17.7,17.1 110.6,110.1 169.6,235.5 169.6,366.1 0,46 -7.3,91.3 -21.5,135.5" style="fill:#ff9d4d;fill-opacity:1;fill-rule:nonzero;stroke:none" id="path1050" transform="matrix(0.133333, 0, 0, -0.133333, 0, 5287.013184)"/>
  <path d="m 22824.4,37638.2 136.4,-78.7 c -3.1,-1.5 -6.1,-3.1 -9.1,-4.8 l -74.9,-43.3 -127.5,73.6 42.2,24.4 c 15,8.7 26,18.3 32.9,28.8" style="fill:#d1975d;fill-opacity:1;fill-rule:nonzero;stroke:none" id="path1052" transform="matrix(0.133333, 0, 0, -0.133333, 0, 5287.013184)"/>
  <path d="m 22513.5,37690.6 17.8,10.3 8.6,5 h 0.1 l 49.1,28.4 c 2.9,1.6 6,2.8 9,4.3 10,4.9 20.5,9 32,11.8 15.9,3.8 33.3,5.5 52,5.1 35.4,-0.6 68.8,-9.7 100.1,-27.3 l 2.2,-1.3 c 5.7,-3.3 10.8,-6.6 15.5,-10 22.4,-16.1 33.4,-33.1 33.1,-51.1 -0.2,-9.8 -3,-19 -8.6,-27.6 -5.5,-8.4 -13.7,-16.4 -24.5,-23.6 -2.7,-1.7 -5.4,-3.5 -8.4,-5.2 l -9.3,-5.4 -32.9,-18.9 -101.6,-58.8 v 0 l -27.8,-16 -43.6,-25.2 -24.3,14 -27.1,15.7 -11.4,6.6 -51.2,29.5 -95.4,55.1 26.5,15.3 44.9,25.9 v 0 z m 438.2,-135.9 c 3,1.7 6,3.3 9,4.8 11.7,5.5 24.5,9.8 38.3,12.4 16.7,3.2 33.9,4.4 51.7,3.8 l 2.7,-0.1 c 5.1,-0.3 10,-0.7 15,-1.2 13.7,-1.4 27.5,-3.9 41.2,-7.6 18.6,-4.9 35.5,-11.7 50.2,-20.2 14.9,-8.6 26.1,-18.3 34,-29 7.8,-10.9 11.8,-21.8 12.2,-32.9 0.4,-11 -3.1,-21.8 -10.4,-32.4 -4.6,-6.4 -10.5,-12.5 -17.8,-18.1 -3.6,-2.9 -7.7,-5.6 -12,-8.3 -1.2,-0.7 -2.3,-1.5 -3.6,-2.2 l -64.4,-37.2 -2.3,-1.3 -27.1,-15.7 -17.7,-10.2 -56.8,-32.8 -71.5,-41.2 -218.6,126.2 23.3,13.5 48,27.7 v 0 l 7.1,4.1 17.7,10.2 76.9,44.4 z m 280.7,-248.6 v 0.1 l 139.8,-80.8 83.6,48.3 -140.2,80.9 c 1.2,0.8 2.5,1.5 3.7,2.4 6.2,3.8 12.1,7.8 17.8,11.8 19.8,14 36.9,28.6 51.4,43.7 23,24.1 37.9,48.4 44.4,73 6.7,24.5 3.7,48.4 -8.7,71.8 -12.5,23.5 -36.3,45.3 -71.3,65.6 -5.3,3 -10.6,5.9 -15.8,8.7 -5.9,3 -11.8,5.9 -17.8,8.6 -45.1,20.9 -93.2,33.3 -144.2,37.4 -35.9,2.8 -71.4,1.7 -106.7,-3.2 -5.9,-0.8 -11.8,-1.7 -17.7,-2.8 -21.5,-3.8 -42.8,-9 -63.9,-15.6 21.8,32.4 25.1,64.6 9.9,96.9 -15.2,32.1 -43.1,59.9 -83.6,83.4 -25.8,14.8 -55.8,26.9 -90.1,36.4 -34.3,9.4 -69.5,15.2 -105.8,17.2 -36.2,2 -72.3,-0.1 -108.2,-6.4 -35.9,-6.3 -68.2,-17.8 -97.1,-34.4 l -26.3,-15.3 -134.7,77.8 -83.6,-48.3 134.7,-77.7 -101.7,-58.7 -134.7,77.7 -83.5,-48.2 134.6,-77.8 -149.2,-86.1 177.5,-102.5 17.7,-10.2 250.8,-144.8 17.8,-10.3 250.9,-144.8 17.7,-10.3 98,-56.5 149.2,86.1 v 0 l 139.8,-80.7 83.6,48.2 -139.8,80.8 v 0 l 101.7,58.6" style="fill:#ff9d4d;fill-opacity:1;fill-rule:nonzero;stroke:none" id="path1054" transform="matrix(0.133333, 0, 0, -0.133333, 0, 5287.013184)"/>
  <path d="m 21494.8,37139.8 v -293.2 c -6.3,7.9 -12.1,15.7 -17.8,23.7 v 293.2 c 5.7,-7.9 11.6,-15.8 17.8,-23.7" style="fill:#ffe840;fill-opacity:1;fill-rule:nonzero;stroke:none" id="path1056" transform="matrix(0.133333, 0, 0, -0.133333, 0, 5287.013184)"/>
  <path d="m 21725.6,36945.4 v -293.3 c -6,3.7 -11.9,7.3 -17.8,11 v 293.3 c 5.9,-3.7 11.8,-7.4 17.8,-11" style="fill:#ffe840;fill-opacity:1;fill-rule:nonzero;stroke:none" id="path1058" transform="matrix(0.133333, 0, 0, -0.133333, 0, 5287.013184)"/>
  <path d="m 21994.1,36816.7 v -293.3 c -5.9,2.2 -11.9,4.4 -17.7,6.7 v 293.3 c 5.8,-2.3 11.8,-4.6 17.7,-6.7" style="fill:#ffe840;fill-opacity:1;fill-rule:nonzero;stroke:none" id="path1060" transform="matrix(0.133333, 0, 0, -0.133333, 0, 5287.013184)"/>
  <path d="M 22262.7,36738.3 V 36445 c -5.9,1.3 -11.8,2.6 -17.7,4 v 293.3 c 5.9,-1.3 11.8,-2.7 17.7,-4" style="fill:#ffe840;fill-opacity:1;fill-rule:nonzero;stroke:none" id="path1062" transform="matrix(0.133333, 0, 0, -0.133333, 0, 5287.013184)"/>
  <path d="m 22531.3,36696.1 v -293.3 c -5.9,0.5 -11.9,1.2 -17.8,1.8 v 293.2 c 5.9,-0.6 11.9,-1.2 17.8,-1.7" style="fill:#ffe840;fill-opacity:1;fill-rule:nonzero;stroke:none" id="path1064" transform="matrix(0.133333, 0, 0, -0.133333, 0, 5287.013184)"/>
  <path d="m 22799.9,36684 v -293.3 c -5.9,0 -11.8,-0.1 -17.7,-0.1 v 293.2 c 5.9,0 11.8,0.1 17.7,0.2" style="fill:#ffe840;fill-opacity:1;fill-rule:nonzero;stroke:none" id="path1066" transform="matrix(0.133333, 0, 0, -0.133333, 0, 5287.013184)"/>
  <path d="m 23068.4,36700.8 v -293.3 c -5.9,-0.7 -11.8,-1.4 -17.7,-2 v 293.2 c 5.9,0.6 11.8,1.3 17.7,2.1" style="fill:#ffe840;fill-opacity:1;fill-rule:nonzero;stroke:none" id="path1068" transform="matrix(0.133333, 0, 0, -0.133333, 0, 5287.013184)"/>
  <path d="m 23337.1,36748.4 v -293.2 c -6,-1.6 -11.9,-3 -17.8,-4.3 v 293.3 c 5.9,1.4 11.8,2.8 17.8,4.2" style="fill:#ffe840;fill-opacity:1;fill-rule:nonzero;stroke:none" id="path1070" transform="matrix(0.133333, 0, 0, -0.133333, 0, 5287.013184)"/>
  <path d="m 23605.6,36833.5 v -293.3 c -5.9,-2.3 -11.8,-4.7 -17.8,-6.9 v 293.3 c 6,2.2 11.9,4.5 17.8,6.9" style="fill:#ffe840;fill-opacity:1;fill-rule:nonzero;stroke:none" id="path1072" transform="matrix(0.133333, 0, 0, -0.133333, 0, 5287.013184)"/>
  <path d="M 23874.2,36973.3 V 36680 c -5.8,-3.9 -11.7,-7.8 -17.7,-11.6 v 293.3 c 6,3.8 11.9,7.7 17.7,11.6" style="fill:#ffe840;fill-opacity:1;fill-rule:nonzero;stroke:none" id="path1074" transform="matrix(0.133333, 0, 0, -0.133333, 0, 5287.013184)"/>
  <path d="m 24112.4,37209.7 v -293.3 c -5.5,-9.1 -11.5,-18.3 -17.8,-27.4 v 293.3 c 6.3,9.1 12.2,18.2 17.8,27.4" style="fill:#ffe840;fill-opacity:1;fill-rule:nonzero;stroke:none" id="path1076" transform="matrix(0.133333, 0, 0, -0.133333, 0, 5287.013184)"/>
</svg>