<?xml version="1.0" encoding="utf-8"?>
<svg viewBox="2600.093 1604.251 1207.854 914.823" width="1207.854" height="914.823" xmlns="http://www.w3.org/2000/svg">
  <defs>
    <clipPath clipPathUnits="userSpaceOnUse" id="clipPath1836">
      <path d="m 28541.6,23405.8 c -9.3,-66.1 -57.7,-130.8 -145.4,-181.4 l -2605.8,-1504.5 c -95.6,-55.1 -220.1,-83.5 -345.3,-84.8 -131.6,-1.5 -264.1,26.8 -364.6,84.8 L 19664.1,24847 c -89.1,51.5 -137.7,117.5 -145.8,184.8 -9.7,80.8 38.9,163.4 145.8,225.1 l 2605.9,1504.5 c 196,113.2 513.8,113.2 709.8,0 l 5416.4,-3127.2 c 108.4,-62.6 156.9,-146.6 145.4,-228.4 z" id="path1834"/>
    </clipPath>
    <linearGradient x1="0" y1="0" x2="1" y2="0" gradientUnits="userSpaceOnUse" gradientTransform="matrix(9026.1,0,0,-9026.1,19517.1,24240.6)" spreadMethod="pad" id="linearGradient1842">
      <stop style="stop-opacity:1;stop-color:#6a5ebf" offset="0" id="stop1838"/>
      <stop style="stop-opacity:1;stop-color:#6e3aa5" offset="1" id="stop1840"/>
    </linearGradient>
    <clipPath clipPathUnits="userSpaceOnUse" id="clipPath1852">
      <path d="m 28543.2,23405.5 v -340.2 c 0.1,-74.2 -48.9,-148.4 -147,-204.9 l -2605.8,-1504.6 c -95.6,-55.1 -220.1,-83.4 -345.3,-84.7 v 364 c 125.2,1.3 249.7,29.7 345.3,84.8 l 2605.8,1504.5 c 87.7,50.6 136.1,115.3 145.4,181.4 z" id="path1850"/>
    </clipPath>
    <linearGradient x1="0" y1="0" x2="1" y2="0" gradientUnits="userSpaceOnUse" gradientTransform="matrix(3098.11,0,0,-3098.11,25445.1,22338.4)" spreadMethod="pad" id="linearGradient1858">
      <stop style="stop-opacity:1;stop-color:#2e256b" offset="0" id="stop1854"/>
      <stop style="stop-opacity:1;stop-color:#5a3087" offset="1" id="stop1856"/>
    </linearGradient>
    <clipPath clipPathUnits="userSpaceOnUse" id="clipPath1868">
      <path d="m 25445.1,21635.1 v -364 c -131.6,-1.5 -264.1,26.7 -364.6,84.7 L 19664.1,24483 c -88.9,51.3 -137.4,117.1 -145.7,184.2 l -1.3,0.2 v 364.6 l 1.2,-0.2 c 8.1,-67.3 56.7,-133.3 145.8,-184.8 l 5416.4,-3127.1 c 100.5,-58 233,-86.3 364.6,-84.8 z" id="path1866"/>
    </clipPath>
    <linearGradient x1="0" y1="0" x2="1" y2="0" gradientUnits="userSpaceOnUse" gradientTransform="matrix(5928.03,0,0,-5928.03,19517.1,23151.5)" spreadMethod="pad" id="linearGradient1874">
      <stop style="stop-opacity:1;stop-color:#483ca6" offset="0" id="stop1870"/>
      <stop style="stop-opacity:1;stop-color:#59278f" offset="1" id="stop1872"/>
    </linearGradient>
    <clipPath clipPathUnits="userSpaceOnUse" id="clipPath1888">
      <path d="m 27478.3,23930.2 -2831,-1634.5 -4550.2,2627 2831.1,1634.5 z" id="path1886"/>
    </clipPath>
    <linearGradient x1="0" y1="0" x2="1" y2="0" gradientUnits="userSpaceOnUse" gradientTransform="matrix(7381.17,0,0,-7381.17,20097.1,24426.5)" spreadMethod="pad" id="linearGradient1894">
      <stop style="stop-opacity:1;stop-color:#7fc1e2" offset="0" id="stop1890"/>
      <stop style="stop-opacity:1;stop-color:#304d87" offset="1" id="stop1892"/>
    </linearGradient>
    <clipPath clipPathUnits="userSpaceOnUse" id="clipPath2026">
      <path d="m 26944.3,23052.2 c 161,-93 161,-243.7 0,-336.6 -160.9,-92.9 -421.9,-92.9 -582.9,0 -161,92.9 -161,243.6 0,336.6 161,92.9 422,92.9 582.9,0 z" id="path2024"/>
    </clipPath>
    <linearGradient x1="0" y1="0" x2="1" y2="0" gradientUnits="userSpaceOnUse" gradientTransform="matrix(824.409,0,0,-824.409,26240.7,22883.9)" spreadMethod="pad" id="linearGradient2032">
      <stop style="stop-opacity:1;stop-color:#2e256b" offset="0" id="stop2028"/>
      <stop style="stop-opacity:1;stop-color:#5a3087" offset="1" id="stop2030"/>
    </linearGradient>
  </defs>
  <path d="m 28543.2,23065.3 -986,177.8 -4577.4,2642.8 c -196,113.1 -513.8,113.1 -709.8,0 l -2229.4,-1287.1 -522.3,94.2 115.4,-573.6 c -1.5,-13 -1.6,-26 0,-39 8,-67.3 56.6,-133.3 145.7,-184.8 l 5301.1,-3051.2 c 100.5,-58 233,-86.3 364.6,-84.8 125.2,1.3 249.7,29.6 345.3,84.8 l 2495.2,1451.3 c 87.6,50.6 136.1,115.3 145.3,181.4 l 0.1,0.3 1.6,-0.3 110.6,588.2" style="fill:#e3dfea;fill-opacity:1;fill-rule:nonzero;stroke:none" id="path1822" transform="matrix(0.133333, 0, 0, -0.133333, 0, 5287.013184)"/>
  <path d="m 28543.2,23405.5 v -340.2 c 0.1,-74.2 -48.9,-148.4 -147,-204.9 l -2605.8,-1504.6 c -95.6,-55.1 -220.1,-83.4 -345.3,-84.7 v 364 c 125.2,1.3 249.7,29.7 345.3,84.8 l 2605.8,1504.5 c 87.7,50.6 136.1,115.3 145.4,181.4 l 1.6,-0.3" style="fill:#634d99;fill-opacity:1;fill-rule:nonzero;stroke:none" id="path1824" transform="matrix(0.133333, 0, 0, -0.133333, 0, 5287.013184)"/>
  <path d="m 25445.1,21635.1 v -364 c -131.6,-1.5 -264.1,26.7 -364.6,84.7 L 19664.1,24483 c -88.9,51.3 -137.4,117.1 -145.7,184.2 l -1.3,0.2 v 364.6 l 1.2,-0.2 c 8.1,-67.3 56.7,-133.3 145.8,-184.8 l 5416.4,-3127.1 c 100.5,-58 233,-86.3 364.6,-84.8" style="fill:#7b5baa;fill-opacity:1;fill-rule:nonzero;stroke:none" id="path1826" transform="matrix(0.133333, 0, 0, -0.133333, 0, 5287.013184)"/>
  <path d="m 28541.6,23405.8 c -9.3,-66.1 -57.7,-130.8 -145.4,-181.4 l -2605.8,-1504.5 c -95.6,-55.1 -220.1,-83.5 -345.3,-84.8 -131.6,-1.5 -264.1,26.8 -364.6,84.8 L 19664.1,24847 c -89.1,51.5 -137.7,117.5 -145.8,184.8 l 294.5,-53.1 2457.2,1418.7 c 196,113.1 513.8,113.1 709.8,0 l 5009.1,-2892 552.7,-99.6" style="fill:#223954;fill-opacity:1;fill-rule:nonzero;stroke:none" id="path1828" transform="matrix(0.133333, 0, 0, -0.133333, 0, 5287.013184)"/>
  <g id="g1830" transform="matrix(0.133333, 0, 0, -0.133333, 0, 5287.013184)">
    <g id="g1832" clip-path="url(#clipPath1836)">
      <path d="m 28541.6,23405.8 c -9.3,-66.1 -57.7,-130.8 -145.4,-181.4 l -2605.8,-1504.5 c -95.6,-55.1 -220.1,-83.5 -345.3,-84.8 -131.6,-1.5 -264.1,26.8 -364.6,84.8 L 19664.1,24847 c -89.1,51.5 -137.7,117.5 -145.8,184.8 -9.7,80.8 38.9,163.4 145.8,225.1 l 2605.9,1504.5 c 196,113.2 513.8,113.2 709.8,0 l 5416.4,-3127.2 c 108.4,-62.6 156.9,-146.6 145.4,-228.4" style="fill:url(#linearGradient1842);fill-opacity:1;fill-rule:nonzero;stroke:none" id="path1844"/>
    </g>
  </g>
  <g id="g1846" transform="matrix(0.133333, 0, 0, -0.133333, 0, 5287.013184)">
    <g id="g1848" clip-path="url(#clipPath1852)">
      <path d="m 28543.2,23405.5 v -340.2 c 0.1,-74.2 -48.9,-148.4 -147,-204.9 l -2605.8,-1504.6 c -95.6,-55.1 -220.1,-83.4 -345.3,-84.7 v 364 c 125.2,1.3 249.7,29.7 345.3,84.8 l 2605.8,1504.5 c 87.7,50.6 136.1,115.3 145.4,181.4 l 1.6,-0.3" style="fill:url(#linearGradient1858);fill-opacity:1;fill-rule:nonzero;stroke:none" id="path1860"/>
    </g>
  </g>
  <g id="g1862" transform="matrix(0.133333, 0, 0, -0.133333, 0, 5287.013184)">
    <g id="g1864" clip-path="url(#clipPath1868)">
      <path d="m 25445.1,21635.1 v -364 c -131.6,-1.5 -264.1,26.7 -364.6,84.7 L 19664.1,24483 c -88.9,51.3 -137.4,117.1 -145.7,184.2 l -1.3,0.2 v 364.6 l 1.2,-0.2 c 8.1,-67.3 56.7,-133.3 145.8,-184.8 l 5416.4,-3127.1 c 100.5,-58 233,-86.3 364.6,-84.8" style="fill:url(#linearGradient1874);fill-opacity:1;fill-rule:nonzero;stroke:none" id="path1876"/>
    </g>
  </g>
  <path d="m 19533.5,24678.6 1.2,-9.4 c 7.9,-64.3 56.8,-125.3 137.6,-172 L 25088.7,21370 c 94.9,-54.8 221.4,-84.1 356.3,-82.6 127.5,1.4 247.2,30.7 337.2,82.6 l 2605.8,1504.6 c 89.6,51.6 138.9,119.4 138.9,190.7 v 326.4 l -3.8,0.7 2.2,15.7 c 11,78 -39,155.2 -137.3,211.9 l -5416.4,3127.2 c -191.1,110.4 -502.2,110.4 -693.5,0 l -2605.8,-1504.5 c -96.8,-55.9 -147,-132 -137.7,-209 l 2.6,-21.6 -3.7,0.6 z m 5901.5,-3424 c -136.8,0 -265.2,30.8 -362.7,87.1 l -5416.4,3127.1 c -85.1,49.2 -138.6,114.3 -151.9,184.4 l -3.3,0.6 v 397.5 c -0.3,82.8 55.1,162 155.2,219.8 l 2605.9,1504.5 c 200.3,115.6 526.1,115.6 726.2,0 l 5416.4,-3127.2 c 104.1,-60.1 159.7,-142.8 154.9,-229.1 l 0.3,-0.1 v -353.9 c 0.1,-83.5 -55,-161.3 -155.2,-219.1 l -2605.8,-1504.5 c -94.8,-54.7 -220.2,-85.6 -353.3,-87 -3.4,-0.1 -6.8,-0.1 -10.3,-0.1" style="fill:#bf89ef;fill-opacity:1;fill-rule:nonzero;stroke:none" id="path1878" transform="matrix(0.133333, 0, 0, -0.133333, 0, 5287.013184)"/>
  <path d="M 19664.1,25256.9 22270,26761.4 19664.1,25256.9" style="fill:#925fc4;fill-opacity:1;fill-rule:nonzero;stroke:none" id="path1880" transform="matrix(0.133333, 0, 0, -0.133333, 0, 5287.013184)"/>
  <g id="g1882" transform="matrix(0.133333, 0, 0, -0.133333, 0, 5287.013184)">
    <g id="g1884" clip-path="url(#clipPath1888)">
      <path d="m 27478.3,23930.2 -2831,-1634.5 -4550.2,2627 2831.1,1634.5 4550.1,-2627" style="fill:url(#linearGradient1894);fill-opacity:1;fill-rule:nonzero;stroke:none" id="path1896"/>
    </g>
  </g>
  <path d="m 22637.8,25876.9 -1847.6,-1066.7 -260.8,150.6 1847.5,1066.7 260.9,-150.6" style="fill:#ffffff;fill-opacity:1;fill-rule:nonzero;stroke:none" id="path1898" transform="matrix(0.133333, 0, 0, -0.133333, 0, 5287.013184)"/>
  <path d="m 23025.6,25646.7 -1136.8,-656.3 -160.6,92.7 1136.8,656.3 160.6,-92.7" style="fill:#ffffff;fill-opacity:1;fill-rule:nonzero;stroke:none" id="path1900" transform="matrix(0.133333, 0, 0, -0.133333, 0, 5287.013184)"/>
  <path d="m 23304.4,25498 -1136.8,-656.3 -160.5,92.7 1136.8,656.3 160.5,-92.7" style="fill:#ffffff;fill-opacity:1;fill-rule:nonzero;stroke:none" id="path1902" transform="matrix(0.133333, 0, 0, -0.133333, 0, 5287.013184)"/>
  <path d="m 23583.2,25349.3 -1136.8,-656.3 -160.5,92.7 1136.8,656.3 160.5,-92.7" style="fill:#ffffff;fill-opacity:1;fill-rule:nonzero;stroke:none" id="path1904" transform="matrix(0.133333, 0, 0, -0.133333, 0, 5287.013184)"/>
  <path d="m 25383.5,23379.2 -1136.8,-656.3 -160.5,92.7 1136.8,656.3 160.5,-92.7" style="fill:#ffffff;fill-opacity:1;fill-rule:nonzero;stroke:none" id="path1906" transform="matrix(0.133333, 0, 0, -0.133333, 0, 5287.013184)"/>
  <path d="m 26737,23494.1 -4367.1,2521.3 14,24.2 4367,-2521.3 -13.9,-24.2" style="fill:#ffffff;fill-opacity:1;fill-rule:nonzero;stroke:none" id="path1908" transform="matrix(0.133333, 0, 0, -0.133333, 0, 5287.013184)"/>
  <path d="m 23070.9,27514.5 -17.8,25.8 91,51.7 c 1.7,1 3.4,2 5.1,2.9 l 0.1,0.1 c 80.1,43.7 196.7,33 326.7,-42 241.4,-139.4 437.1,-448.2 437.1,-689.6 0,-101.3 -34.4,-174.7 -92.3,-215.4 v 0 -0.1 c -8.6,-6 -17.7,-11.3 -27.3,-15.9 l -79.1,-46.3 -17.4,25.2 c -64.9,-0.6 -140.4,21.2 -221,67.7 -241.5,139.4 -437.2,448.2 -437.2,689.6 0,58.3 11.4,107.4 32.1,146.3" style="fill:#ff9d4d;fill-opacity:1;fill-rule:nonzero;stroke:none" id="path1910" transform="matrix(0.133333, 0, 0, -0.133333, 0, 5287.013184)"/>
  <path d="m 23257.7,27620.7 c -40.7,0 -77.3,-8.8 -108.4,-25.7 l -0.1,-0.1 c -1.7,-0.9 -3.4,-1.9 -5.1,-2.9 l -91,-51.7 17.8,-25.8 c -20.7,-38.9 -32.1,-88 -32.1,-146.3 0,-241.4 195.7,-550.2 437.2,-689.6 79.5,-45.9 154,-67.7 218.2,-67.7 1,0 1.9,0 2.8,0 l 17.4,-25.2 79.1,46.3 c 9.6,4.6 18.7,9.9 27.2,15.9 l 0.1,0.1 c 49.1,34.5 81.3,92.5 90,171.2 0.3,2.8 0.6,5.7 0.8,8.6 1,11.4 1.5,23.3 1.5,35.6 0,21.1 -1.5,42.7 -4.4,64.7 -0.3,2.5 -0.6,5 -1,7.5 -4.3,29.6 -11.1,59.9 -20.2,90.3 -0.6,2.3 -1.3,4.6 -2,6.9 -8.6,27.9 -19.1,56 -31.3,84 -0.9,2.1 -1.9,4.3 -2.8,6.4 -11.8,26.6 -25.2,53 -39.8,79 -1.2,2.1 -2.3,4.1 -3.5,6.1 -14.5,25.4 -30.3,50.4 -47.3,74.7 -1.3,1.9 -2.7,3.9 -4,5.8 -17.1,24.2 -35.4,47.8 -54.6,70.5 -1.5,1.8 -3,3.6 -4.6,5.4 -19.7,23.1 -40.5,45.2 -62.1,66.1 -1.7,1.7 -3.5,3.4 -5.2,5.1 -22.8,21.8 -46.6,42.2 -71,61 -2,1.6 -4,3.1 -6,4.6 -25.1,19 -51,36.2 -77.3,51.5 -1.8,1 -3.5,1.9 -5.2,2.9 -2.4,1.4 -4.7,2.7 -7.1,4 -34.9,19.2 -68.8,33.7 -101.2,43.7 v 0 c -3.1,1 -6.2,1.9 -9.2,2.8 -33.8,9.6 -65.8,14.3 -95.6,14.3 z m 0,-7 c 29.5,0 61,-4.7 93.7,-14.1 3,-0.8 6,-1.7 9.1,-2.7 l 0.6,-0.2 c 32.2,-10 65.5,-24.4 99.2,-42.9 2.4,-1.3 4.7,-2.6 7.1,-4 1.7,-1 3.4,-1.9 5.1,-2.9 25.7,-14.8 51.4,-32 76.6,-51 2,-1.5 4,-3 5.9,-4.5 24,-18.5 47.7,-38.9 70.4,-60.6 l 0.7,-0.6 4.5,-4.4 c 21.3,-20.6 42.1,-42.7 61.7,-65.7 1.5,-1.7 3.1,-3.5 4.6,-5.3 18.9,-22.4 37.1,-46 54.2,-70.1 1.3,-1.9 2.6,-3.8 4,-5.7 16.7,-24.1 32.5,-49 46.9,-74.2 1.2,-2 2.3,-4 3.5,-6 14.5,-25.8 27.8,-52.2 39.5,-78.4 0.9,-2.2 1.9,-4.3 2.8,-6.4 12.1,-27.9 22.5,-55.9 31,-83.4 0.7,-2.2 1.4,-4.4 2,-6.7 9.1,-30.4 15.8,-60.5 20,-89.3 0.3,-2.5 0.7,-4.9 1,-7.4 2.9,-21.8 4.3,-43.3 4.3,-63.8 0,-12 -0.5,-23.8 -1.5,-35.1 -0.2,-2.8 -0.5,-5.5 -0.8,-8.3 -8.1,-74.3 -38.1,-131.6 -86.6,-166 h -0.1 l -0.4,-0.3 c -8.2,-5.8 -17,-11 -26.8,-15.7 l -73.4,-42.9 -13.8,19.8 -2.1,3.1 -3.7,-0.1 h -2.7 c -64.8,0 -139.1,23.1 -214.7,66.8 -239.2,138.1 -433.7,444.7 -433.7,683.5 0,55.9 10.5,104 31.3,143 l 2,3.8 -2.4,3.5 -13.5,19.5 84.4,48 c 1.6,0.8 3.1,1.7 4.6,2.6 h 0.1 l 0.4,0.2 c 30.2,16.5 65.5,24.9 105,24.9" style="fill:#ffe840;fill-opacity:1;fill-rule:nonzero;stroke:none" id="path1912" transform="matrix(0.133333, 0, 0, -0.133333, 0, 5287.013184)"/>
  <path d="m 22950.1,27317.1 c 0,-241.5 195.8,-550.2 437.2,-689.6 241.5,-139.4 437.2,-56.7 437.2,184.7 0,241.5 -195.7,550.2 -437.2,689.6 -241.4,139.4 -437.2,56.7 -437.2,-184.7" style="fill:#ffd071;fill-opacity:1;fill-rule:nonzero;stroke:none" id="path1914" transform="matrix(0.133333, 0, 0, -0.133333, 0, 5287.013184)"/>
  <path d="m 22950.1,27317.1 c 0,-241.5 195.8,-550.2 437.2,-689.6 241.5,-139.4 437.2,-56.7 437.2,184.7 0,241.5 -195.7,550.2 -437.2,689.6 -241.4,139.4 -437.2,56.7 -437.2,-184.7" style="fill:#ffe840;fill-opacity:1;fill-rule:nonzero;stroke:none" id="path1916" transform="matrix(0.133333, 0, 0, -0.133333, 0, 5287.013184)"/>
  <path d="m 23015.2,27273 c 0,-199 161.9,-454.4 360.9,-569.3 199,-114.9 360.9,-46.5 360.9,152.6 0,199 -161.9,454.4 -360.9,569.3 -199,114.9 -360.9,46.5 -360.9,-152.6 z m 90.8,-322.5 c -72.1,113.8 -111.9,232.7 -111.9,334.7 0,102 39.8,175 111.9,205.5 72.2,30.5 168.1,14.8 270.1,-44.1 102,-58.9 197.9,-154 270.1,-267.8 72.1,-113.8 111.9,-232.6 111.9,-334.7 0,-102 -39.8,-175 -111.9,-205.5 -72.2,-30.5 -168.1,-14.8 -270.1,44.1 -102,58.9 -197.9,154 -270.1,267.8" style="fill:#ff9d4d;fill-opacity:1;fill-rule:nonzero;stroke:none" id="path1918" transform="matrix(0.133333, 0, 0, -0.133333, 0, 5287.013184)"/>
  <path d="m 23343.7,27490.6 3.5,-6 123.6,71.3 c -2.4,1.4 -4.7,2.7 -7.1,4 l -120,-69.3" style="fill:#ffe840;fill-opacity:1;fill-rule:nonzero;stroke:none" id="path1920" transform="matrix(0.133333, 0, 0, -0.133333, 0, 5287.013184)"/>
  <path d="m 23452.9,27443.6 3.6,-6.1 102.8,59.4 c -2,1.6 -4,3.1 -6,4.6 l -100.4,-57.9" style="fill:#ffe840;fill-opacity:1;fill-rule:nonzero;stroke:none" id="path1922" transform="matrix(0.133333, 0, 0, -0.133333, 0, 5287.013184)"/>
  <path d="m 23529,27377.4 3.5,-6.1 103,59.5 c -1.7,1.7 -3.5,3.4 -5.2,5.1 l -101.3,-58.5" style="fill:#ffe840;fill-opacity:1;fill-rule:nonzero;stroke:none" id="path1924" transform="matrix(0.133333, 0, 0, -0.133333, 0, 5287.013184)"/>
  <path d="m 23605,27311.2 3.5,-6 93.7,54.1 c -1.5,1.8 -3,3.6 -4.6,5.4 l -92.6,-53.5" style="fill:#ffe840;fill-opacity:1;fill-rule:nonzero;stroke:none" id="path1926" transform="matrix(0.133333, 0, 0, -0.133333, 0, 5287.013184)"/>
  <path d="m 23647.9,27225.9 3.6,-6 109.3,63.1 c -1.3,1.9 -2.7,3.9 -4,5.8 l -108.9,-62.9" style="fill:#ffe840;fill-opacity:1;fill-rule:nonzero;stroke:none" id="path1928" transform="matrix(0.133333, 0, 0, -0.133333, 0, 5287.013184)"/>
  <path d="m 23689.2,27139 3.5,-6.1 118.9,69.3 c -1.2,2.1 -2.3,4.1 -3.5,6.1 l -118.9,-69.3" style="fill:#ffe840;fill-opacity:1;fill-rule:nonzero;stroke:none" id="path1930" transform="matrix(0.133333, 0, 0, -0.133333, 0, 5287.013184)"/>
  <path d="m 23729.5,27052.9 3.5,-6.1 121.2,70 c -0.9,2.1 -1.9,4.3 -2.8,6.4 l -121.9,-70.3" style="fill:#ffe840;fill-opacity:1;fill-rule:nonzero;stroke:none" id="path1932" transform="matrix(0.133333, 0, 0, -0.133333, 0, 5287.013184)"/>
  <path d="m 23750,26954.6 3.5,-6.1 134,77.4 c -0.6,2.3 -1.3,4.6 -2,6.9 l -135.5,-78.2" style="fill:#ffe840;fill-opacity:1;fill-rule:nonzero;stroke:none" id="path1934" transform="matrix(0.133333, 0, 0, -0.133333, 0, 5287.013184)"/>
  <path d="m 23784.6,26864.5 3.5,-6 120.6,69.6 c -0.3,2.5 -0.6,5 -1,7.5 l -123.1,-71.1" style="fill:#ffe840;fill-opacity:1;fill-rule:nonzero;stroke:none" id="path1936" transform="matrix(0.133333, 0, 0, -0.133333, 0, 5287.013184)"/>
  <path d="m 23779.5,26751.5 3.5,-6.1 127.8,73.8 c 0.3,2.8 0.6,5.7 0.8,8.6 l -132.1,-76.3" style="fill:#ffe840;fill-opacity:1;fill-rule:nonzero;stroke:none" id="path1938" transform="matrix(0.133333, 0, 0, -0.133333, 0, 5287.013184)"/>
  <path d="m 23238.7,27540.2 3.5,-6 120.3,69.4 c -3.1,1 -6.2,1.9 -9.2,2.8 l -114.6,-66.2" style="fill:#ffe840;fill-opacity:1;fill-rule:nonzero;stroke:none" id="path1940" transform="matrix(0.133333, 0, 0, -0.133333, 0, 5287.013184)"/>
  <path d="m 23423.1,27074.9 v -58.3 c -1.3,0.8 -2.5,1.5 -3.8,2.3 l -32,18.5 v 54.5 l 18,-10.4 c 6.5,-3.7 12.4,-5.9 17.8,-6.6" style="fill:#d1975d;fill-opacity:1;fill-rule:nonzero;stroke:none" id="path1942" transform="matrix(0.133333, 0, 0, -0.133333, 0, 5287.013184)"/>
  <path d="m 23457.3,26931.4 c -2.3,-4.3 -5.5,-7.4 -9.5,-9.3 -4,-1.8 -8.7,-2.3 -14.2,-1.5 -3.4,0.5 -6.9,1.6 -10.5,3.1 -2.4,1 -4.8,2.2 -7.3,3.7 l -72,41.5 -30.5,17.7 v 93.5 l 106,-61.2 c 1.3,-0.8 2.5,-1.5 3.8,-2.3 4.5,-3.1 8.8,-6.7 12.7,-11 5,-5.4 9.4,-11.3 13,-17.8 3.7,-6.4 6.6,-13.2 8.8,-20.3 2.2,-7.1 3.2,-13.8 3.2,-20.1 0,-6.3 -1.1,-11.7 -3.5,-16 z m -70,250 v 0 l 21,-12.1 c 5.3,-3.1 10.2,-6.8 14.8,-11.3 4.8,-4.8 9.1,-10.4 13,-16.7 7.5,-12.4 11.2,-25.4 11.2,-39.1 0,-14 -4,-22.6 -12.2,-25.9 -3.7,-1.5 -7.7,-1.9 -12,-1.4 -5.4,0.7 -11.3,2.9 -17.8,6.6 l -61.5,35.5 -30.5,17.6 v 89.6 l 30.5,-17.7 z m 125.3,-218.6 c -11.8,22.3 -27.9,42.4 -48.2,60.1 16.6,-2.3 29.3,1.7 38,11.8 8.6,10.2 13,23.9 13,41.3 0,11 -2,23 -5.8,36.1 -3.8,13 -9.2,25.8 -16.2,38.4 -7,12.5 -15.6,24.3 -25.6,35.4 -10,11.2 -21.1,20.3 -33.5,27.4 l -11.2,6.5 v 57.6 l -35.8,20.6 v -57.6 l -43.5,25.1 v 57.6 l -35.7,20.7 v -57.6 l -63.8,36.8 v -355.1 l 63.8,-36.8 v -59.8 l 35.7,-20.7 v 59.8 l 43.5,-25.1 v -59.8 l 35.8,-20.6 v 59.9 c 12.9,-7 25.3,-12.1 37,-15.5 13.8,-4 26,-5.2 36.5,-3.6 10.5,1.6 18.8,6.4 24.8,14.2 6,7.9 9,19.3 9,34.4 0,23.3 -6,46.1 -17.8,68.5" style="fill:#ff9d4d;fill-opacity:1;fill-rule:nonzero;stroke:none" id="path1944" transform="matrix(0.133333, 0, 0, -0.133333, 0, 5287.013184)"/>
  <path d="m 24306.6,26150.3 -17.8,25.8 91,51.7 c 1.7,1 3.4,2 5.1,2.9 l 0.1,0.1 c 80.1,43.7 196.7,33 326.6,-42 241.5,-139.4 437.2,-448.1 437.2,-689.6 0,-101.3 -34.5,-174.7 -92.3,-215.4 v 0 l -0.1,-0.1 c -8.6,-6 -17.7,-11.3 -27.2,-15.9 l -79.1,-46.2 -17.4,25.1 c -64.9,-0.6 -140.4,21.2 -221.1,67.7 -241.4,139.4 -437.1,448.2 -437.1,689.6 0,58.4 11.4,107.4 32.1,146.3" style="fill:#ff9d4d;fill-opacity:1;fill-rule:nonzero;stroke:none" id="path1946" transform="matrix(0.133333, 0, 0, -0.133333, 0, 5287.013184)"/>
  <path d="m 24493.4,26256.5 c -40.8,0 -77.3,-8.8 -108.4,-25.7 l -0.1,-0.1 c -1.7,-0.9 -3.4,-1.9 -5.1,-2.9 l -91,-51.7 17.8,-25.8 c -20.7,-38.9 -32.1,-87.9 -32.1,-146.3 0,-241.4 195.7,-550.2 437.1,-689.6 79.5,-45.9 154.1,-67.7 218.3,-67.7 0.9,0 1.8,0 2.8,0.1 l 17.4,-25.2 79.1,46.2 c 9.5,4.6 18.6,9.9 27.2,15.9 l 0.1,0.1 c 49.1,34.5 81.3,92.5 90,171.2 0.3,2.8 0.6,5.7 0.8,8.6 1,11.5 1.5,23.3 1.5,35.6 0,21.1 -1.5,42.7 -4.4,64.7 -0.3,2.5 -0.6,5 -1,7.5 -4.3,29.6 -11.1,59.9 -20.2,90.3 -0.7,2.3 -1.4,4.6 -2.1,6.9 -8.6,28 -19,56 -31.2,84 -0.9,2.1 -1.9,4.3 -2.9,6.4 -11.8,26.6 -25.1,53 -39.8,79 -1.1,2.1 -2.2,4.1 -3.4,6.1 -14.6,25.4 -30.4,50.4 -47.3,74.7 -1.3,1.9 -2.7,3.9 -4.1,5.8 -17.1,24.2 -35.3,47.8 -54.5,70.5 -1.5,1.8 -3.1,3.6 -4.6,5.4 -19.8,23.1 -40.5,45.2 -62.1,66.1 -1.8,1.7 -3.5,3.4 -5.3,5.1 -22.8,21.8 -46.5,42.2 -70.9,61 -2,1.6 -4,3.1 -6,4.6 -25.1,19 -51,36.3 -77.4,51.5 -1.7,1 -3.4,2 -5.1,2.9 -2.4,1.4 -4.7,2.7 -7.1,4 -34.9,19.2 -68.8,33.7 -101.2,43.7 v 0 c -3.1,1 -6.2,1.9 -9.2,2.8 -33.8,9.6 -65.8,14.3 -95.6,14.3 z m 0,-7 c 29.5,0 61,-4.7 93.6,-14.1 3.1,-0.8 6.1,-1.7 9.1,-2.7 l 0.6,-0.1 c 32.2,-10.1 65.6,-24.5 99.3,-43 2.3,-1.3 4.7,-2.6 7.1,-4 1.7,-0.9 3.4,-1.9 5,-2.9 25.8,-14.8 51.5,-32 76.7,-51 1.9,-1.5 3.9,-3 5.9,-4.5 24,-18.5 47.7,-38.9 70.4,-60.6 l 5.2,-5 c 21.3,-20.6 42,-42.7 61.7,-65.6 1.5,-1.8 3,-3.6 4.6,-5.4 18.9,-22.4 37.1,-46 54.1,-70.1 1.4,-1.9 2.7,-3.8 4,-5.7 16.8,-24.1 32.6,-49 47,-74.2 1.2,-2 2.3,-4 3.4,-6 14.6,-25.8 27.9,-52.2 39.5,-78.4 1,-2.1 1.9,-4.3 2.9,-6.4 12.1,-27.9 22.5,-55.9 30.9,-83.2 l 0.3,-0.8 c 0.6,-2 1.2,-4 1.8,-6.1 9.1,-30.4 15.8,-60.5 20,-89.3 0.3,-2.5 0.7,-4.9 1,-7.4 2.8,-21.8 4.3,-43.3 4.3,-63.8 0,-12 -0.5,-23.8 -1.5,-35 -0.2,-2.8 -0.5,-5.6 -0.8,-8.4 -8.2,-74.3 -38.2,-131.7 -86.8,-166.1 v 0 l -0.3,-0.2 c -8.2,-5.8 -17.1,-11 -26.8,-15.7 l -73.4,-42.9 -13.8,19.8 -2.1,3.1 h -3.7 l -2.7,-0.1 c -64.8,0 -139.1,23.1 -214.8,66.8 -239.1,138.1 -433.6,444.7 -433.6,683.5 0,55.9 10.5,104 31.3,143 l 2,3.8 -2.4,3.5 -13.5,19.5 84.4,48 c 1.5,0.9 3.1,1.7 4.6,2.6 h 0.1 l 0.3,0.2 c 30.3,16.5 65.6,24.9 105.1,24.9" style="fill:#ffe840;fill-opacity:1;fill-rule:nonzero;stroke:none" id="path1948" transform="matrix(0.133333, 0, 0, -0.133333, 0, 5287.013184)"/>
  <path d="m 24185.8,25952.9 c 0,-241.5 195.7,-550.2 437.2,-689.6 241.4,-139.4 437.2,-56.7 437.2,184.8 0,241.4 -195.8,550.1 -437.2,689.6 -241.5,139.4 -437.2,56.6 -437.2,-184.8" style="fill:#ffd071;fill-opacity:1;fill-rule:nonzero;stroke:none" id="path1950" transform="matrix(0.133333, 0, 0, -0.133333, 0, 5287.013184)"/>
  <path d="m 24185.8,25952.9 c 0,-241.5 195.7,-550.2 437.2,-689.6 241.4,-139.4 437.2,-56.7 437.2,184.8 0,241.4 -195.8,550.1 -437.2,689.6 -241.5,139.4 -437.2,56.6 -437.2,-184.8" style="fill:#ffe840;fill-opacity:1;fill-rule:nonzero;stroke:none" id="path1952" transform="matrix(0.133333, 0, 0, -0.133333, 0, 5287.013184)"/>
  <path d="m 24250.8,25908.9 c 0,-199.1 162,-454.5 361,-569.4 199,-114.9 360.9,-46.4 360.9,152.6 0,199 -161.9,454.4 -360.9,569.3 -199,114.9 -361,46.5 -361,-152.5 z m 90.9,-322.6 c -72.2,113.8 -111.9,232.7 -111.9,334.7 0,102 39.7,175 111.9,205.5 72.1,30.5 168.1,14.8 270.1,-44.1 102,-58.9 197.9,-154 270.1,-267.8 72.1,-113.8 111.8,-232.6 111.8,-334.7 0,-102 -39.7,-175 -111.8,-205.5 -72.2,-30.4 -168.1,-14.8 -270.1,44.1 -102,58.9 -198,154 -270.1,267.8" style="fill:#ff9d4d;fill-opacity:1;fill-rule:nonzero;stroke:none" id="path1954" transform="matrix(0.133333, 0, 0, -0.133333, 0, 5287.013184)"/>
  <path d="m 24579.4,26126.4 3.5,-6 123.6,71.3 c -2.4,1.4 -4.7,2.7 -7.1,4 l -120,-69.3" style="fill:#ffe840;fill-opacity:1;fill-rule:nonzero;stroke:none" id="path1956" transform="matrix(0.133333, 0, 0, -0.133333, 0, 5287.013184)"/>
  <path d="m 24688.6,26079.4 3.5,-6.1 102.9,59.4 c -2,1.6 -4,3.1 -6,4.6 l -100.4,-57.9" style="fill:#ffe840;fill-opacity:1;fill-rule:nonzero;stroke:none" id="path1958" transform="matrix(0.133333, 0, 0, -0.133333, 0, 5287.013184)"/>
  <path d="m 24764.7,26013.2 3.5,-6.1 103,59.5 c -1.8,1.7 -3.5,3.4 -5.3,5.1 l -101.2,-58.5" style="fill:#ffe840;fill-opacity:1;fill-rule:nonzero;stroke:none" id="path1960" transform="matrix(0.133333, 0, 0, -0.133333, 0, 5287.013184)"/>
  <path d="m 24840.7,25947 3.5,-6 93.7,54.1 c -1.5,1.8 -3.1,3.6 -4.6,5.4 l -92.6,-53.5" style="fill:#ffe840;fill-opacity:1;fill-rule:nonzero;stroke:none" id="path1962" transform="matrix(0.133333, 0, 0, -0.133333, 0, 5287.013184)"/>
  <path d="m 24883.6,25861.7 3.5,-6 109.4,63.1 c -1.3,1.9 -2.7,3.9 -4.1,5.8 l -108.8,-62.9" style="fill:#ffe840;fill-opacity:1;fill-rule:nonzero;stroke:none" id="path1964" transform="matrix(0.133333, 0, 0, -0.133333, 0, 5287.013184)"/>
  <path d="m 24924.9,25774.8 3.5,-6.1 118.8,69.3 c -1.1,2.1 -2.2,4.1 -3.4,6.1 l -118.9,-69.3" style="fill:#ffe840;fill-opacity:1;fill-rule:nonzero;stroke:none" id="path1966" transform="matrix(0.133333, 0, 0, -0.133333, 0, 5287.013184)"/>
  <path d="m 24965.2,25688.7 3.5,-6.1 121.2,70 c -0.9,2.1 -1.9,4.3 -2.9,6.4 l -121.8,-70.3" style="fill:#ffe840;fill-opacity:1;fill-rule:nonzero;stroke:none" id="path1968" transform="matrix(0.133333, 0, 0, -0.133333, 0, 5287.013184)"/>
  <path d="m 24985.7,25590.4 3.5,-6 134,77.3 c -0.7,2.3 -1.4,4.6 -2.1,6.9 l -135.4,-78.2" style="fill:#ffe840;fill-opacity:1;fill-rule:nonzero;stroke:none" id="path1970" transform="matrix(0.133333, 0, 0, -0.133333, 0, 5287.013184)"/>
  <path d="m 25020.3,25500.4 3.5,-6.1 120.6,69.6 c -0.3,2.5 -0.6,5 -1,7.5 l -123.1,-71" style="fill:#ffe840;fill-opacity:1;fill-rule:nonzero;stroke:none" id="path1972" transform="matrix(0.133333, 0, 0, -0.133333, 0, 5287.013184)"/>
  <path d="m 25015.2,25387.3 3.5,-6.1 127.8,73.8 c 0.3,2.8 0.6,5.7 0.8,8.6 l -132.1,-76.3" style="fill:#ffe840;fill-opacity:1;fill-rule:nonzero;stroke:none" id="path1974" transform="matrix(0.133333, 0, 0, -0.133333, 0, 5287.013184)"/>
  <path d="m 24474.4,26176.1 3.5,-6.1 120.3,69.4 c -3.1,1 -6.2,1.9 -9.2,2.8 l -114.6,-66.1" style="fill:#ffe840;fill-opacity:1;fill-rule:nonzero;stroke:none" id="path1976" transform="matrix(0.133333, 0, 0, -0.133333, 0, 5287.013184)"/>
  <path d="m 24658.7,25710.7 v -58.3 c -1.2,0.8 -2.4,1.6 -3.7,2.3 l -32,18.5 v 54.5 l 18,-10.4 c 6.4,-3.7 12.4,-5.9 17.7,-6.6" style="fill:#d1975d;fill-opacity:1;fill-rule:nonzero;stroke:none" id="path1978" transform="matrix(0.133333, 0, 0, -0.133333, 0, 5287.013184)"/>
  <path d="m 24693,25567.2 c -2.3,-4.3 -5.5,-7.4 -9.5,-9.2 -4,-1.9 -8.7,-2.4 -14.2,-1.6 -3.4,0.6 -6.9,1.6 -10.6,3.2 -2.3,0.9 -4.7,2.2 -7.2,3.6 l -28.5,16.4 -74,42.8 v 93.5 l 106,-61.2 c 1.3,-0.7 2.5,-1.5 3.7,-2.3 4.6,-3.1 8.9,-6.7 12.8,-11 5,-5.4 9.3,-11.3 13,-17.7 3.7,-6.5 6.6,-13.3 8.8,-20.4 2.1,-7 3.2,-13.8 3.2,-20.1 0,-6.3 -1.2,-11.6 -3.5,-16 z m -70,250 v 0 l 21,-12.1 c 5.3,-3.1 10.2,-6.8 14.7,-11.3 4.8,-4.8 9.2,-10.4 13.1,-16.7 7.5,-12.4 11.2,-25.4 11.2,-39 0,-14 -4.1,-22.7 -12.2,-26 -3.7,-1.5 -7.7,-1.9 -12.1,-1.4 -5.3,0.7 -11.3,2.9 -17.7,6.6 l -61.5,35.5 -30.5,17.6 v 89.6 l 30.5,-17.7 z m 125.3,-218.6 c -11.8,22.3 -27.9,42.4 -48.3,60.1 16.7,-2.3 29.4,1.7 38,11.8 8.7,10.2 13,23.9 13,41.3 0,11 -1.9,23 -5.7,36.1 -3.8,13 -9.3,25.8 -16.3,38.4 -7,12.5 -15.5,24.3 -25.5,35.5 -10,11.1 -21.2,20.2 -33.5,27.3 l -11.3,6.5 v 57.6 l -35.7,20.6 v -57.6 l -43.5,25.2 v 57.6 l -35.7,20.6 v -57.6 l -63.9,36.8 v -355.1 l 63.9,-36.8 v -59.8 l 35.7,-20.7 v 59.8 l 43.5,-25.1 v -59.8 l 35.7,-20.6 v 59.9 c 13,-6.9 25.4,-12.1 37.1,-15.5 13.8,-4 26,-5.2 36.5,-3.6 10.5,1.6 18.7,6.4 24.7,14.3 6.1,7.8 9,19.3 9,34.3 0,23.3 -5.9,46.2 -17.7,68.5" style="fill:#ff9d4d;fill-opacity:1;fill-rule:nonzero;stroke:none" id="path1980" transform="matrix(0.133333, 0, 0, -0.133333, 0, 5287.013184)"/>
  <path d="m 23041.7,25680.7 -17.8,25.7 91,51.8 c 1.7,1 3.4,1.9 5.1,2.9 h 0.1 c 80.1,43.7 196.8,33 326.7,-42 241.4,-139.4 437.1,-448.1 437.1,-689.5 0,-101.4 -34.5,-174.8 -92.3,-215.5 v 0 h -0.1 c -8.5,-6.1 -17.6,-11.4 -27.2,-16 l -79.1,-46.2 -17.4,25.2 c -64.9,-0.6 -140.4,21.1 -221,67.7 -241.5,139.4 -437.2,448.1 -437.2,689.6 0,58.3 11.4,107.4 32.1,146.3" style="fill:#ff9d4d;fill-opacity:1;fill-rule:nonzero;stroke:none" id="path1982" transform="matrix(0.133333, 0, 0, -0.133333, 0, 5287.013184)"/>
  <path d="m 23228.5,25786.9 c -40.8,0 -77.3,-8.8 -108.4,-25.8 h -0.1 c -1.7,-1 -3.4,-1.9 -5.1,-2.9 l -91,-51.8 17.8,-25.7 c -20.7,-38.9 -32.1,-88 -32.1,-146.3 0,-241.5 195.7,-550.2 437.2,-689.6 79.5,-45.9 154,-67.7 218.2,-67.7 0.9,0 1.9,0 2.8,0 l 17.4,-25.2 79.1,46.2 c 9.6,4.6 18.7,10 27.2,16 h 0.1 c 49.1,34.6 81.3,92.6 90,171.3 0.3,2.8 0.6,5.6 0.8,8.5 1,11.5 1.5,23.4 1.5,35.7 0,21.1 -1.5,42.7 -4.4,64.6 -0.3,2.5 -0.6,5 -1,7.5 -4.3,29.7 -11.1,59.9 -20.2,90.4 -0.6,2.3 -1.3,4.6 -2,6.9 -8.6,27.9 -19.1,56 -31.3,83.9 -0.9,2.2 -1.9,4.3 -2.8,6.5 -11.8,26.5 -25.2,53 -39.9,79 -1.1,2 -2.2,4 -3.4,6.1 -14.5,25.3 -30.4,50.3 -47.3,74.7 -1.3,1.9 -2.7,3.8 -4,5.7 -17.1,24.2 -35.4,47.8 -54.6,70.5 -1.5,1.9 -3,3.7 -4.6,5.5 -19.7,23 -40.5,45.1 -62.1,66.1 -1.7,1.7 -3.5,3.4 -5.2,5 -22.8,21.8 -46.6,42.2 -71,61.1 -2,1.5 -4,3.1 -6,4.6 -25.1,19 -51,36.2 -77.3,51.4 -1.8,1 -3.5,2 -5.2,3 -2.4,1.3 -4.7,2.6 -7.1,3.9 -34.9,19.2 -68.8,33.8 -101.2,43.8 v 0 c -3.1,0.9 -6.2,1.9 -9.2,2.7 -33.8,9.7 -65.8,14.4 -95.6,14.4 z m 0,-7.1 c 29.5,0 61,-4.7 93.7,-14 3,-0.9 6,-1.8 9.1,-2.7 l 0.6,-0.2 c 32.1,-10 65.5,-24.5 99.2,-43 2.4,-1.3 4.7,-2.6 7.1,-4 1.7,-0.9 3.4,-1.9 5,-2.8 25.8,-14.9 51.5,-32 76.7,-51 2,-1.5 4,-3.1 5.9,-4.6 24,-18.5 47.7,-38.8 70.5,-60.6 l 5.1,-5 c 21.3,-20.6 42.1,-42.7 61.7,-65.6 1.5,-1.8 3.1,-3.6 4.6,-5.4 18.9,-22.4 37.1,-45.9 54.2,-70.1 1.3,-1.8 2.6,-3.7 4,-5.6 16.7,-24.1 32.5,-49.1 46.9,-74.3 1.2,-1.9 2.3,-3.9 3.5,-6 14.5,-25.7 27.8,-52.1 39.5,-78.4 0.9,-2.1 1.9,-4.2 2.8,-6.4 12.1,-27.9 22.5,-55.9 31,-83.3 0.7,-2.2 1.4,-4.5 2,-6.7 9.1,-30.5 15.8,-60.5 20,-89.4 0.3,-2.4 0.7,-4.9 1,-7.4 2.9,-21.8 4.3,-43.2 4.3,-63.7 0,-12.1 -0.5,-23.8 -1.5,-35.1 -0.2,-2.8 -0.5,-5.6 -0.8,-8.4 -8.1,-74.2 -38.1,-131.6 -86.6,-166 h -0.1 l -0.4,-0.3 c -8.2,-5.8 -17.1,-10.9 -26.8,-15.6 l -73.4,-43 -13.8,19.9 -2.1,3 h -3.7 -2.7 c -64.8,0 -139.1,23.1 -214.8,66.7 -239.1,138.1 -433.6,444.7 -433.6,683.6 0,55.8 10.5,103.9 31.3,143 l 2,3.7 -2.4,3.6 -13.5,19.4 84.4,48 c 1.6,0.9 3.1,1.8 4.7,2.7 v 0 l 0.4,0.2 c 30.2,16.5 65.5,24.8 105,24.8" style="fill:#ffe840;fill-opacity:1;fill-rule:nonzero;stroke:none" id="path1984" transform="matrix(0.133333, 0, 0, -0.133333, 0, 5287.013184)"/>
  <path d="m 22920.9,25483.2 c 0,-241.4 195.8,-550.2 437.2,-689.6 241.5,-139.4 437.2,-56.6 437.2,184.8 0,241.4 -195.7,550.2 -437.2,689.6 -241.4,139.4 -437.2,56.7 -437.2,-184.8" style="fill:#ffd071;fill-opacity:1;fill-rule:nonzero;stroke:none" id="path1986" transform="matrix(0.133333, 0, 0, -0.133333, 0, 5287.013184)"/>
  <path d="m 22920.9,25483.2 c 0,-241.4 195.8,-550.2 437.2,-689.6 241.5,-139.4 437.2,-56.6 437.2,184.8 0,241.4 -195.7,550.2 -437.2,689.6 -241.4,139.4 -437.2,56.7 -437.2,-184.8" style="fill:#ffe840;fill-opacity:1;fill-rule:nonzero;stroke:none" id="path1988" transform="matrix(0.133333, 0, 0, -0.133333, 0, 5287.013184)"/>
  <path d="m 22986,25439.2 c 0,-199 161.9,-454.4 360.9,-569.3 199,-114.9 360.9,-46.5 360.9,152.5 0,199 -161.9,454.4 -360.9,569.3 -199,115 -360.9,46.5 -360.9,-152.5 z m 90.8,-322.5 c -72.1,113.7 -111.9,232.6 -111.9,334.6 0,102.1 39.8,175 111.9,205.5 72.2,30.5 168.1,14.9 270.1,-44 102,-58.9 197.9,-154 270.1,-267.8 72.1,-113.8 111.9,-232.7 111.9,-334.7 0,-102 -39.8,-175 -111.9,-205.5 -72.2,-30.5 -168.1,-14.9 -270.1,44 -102,58.9 -197.9,154.1 -270.1,267.9" style="fill:#ff9d4d;fill-opacity:1;fill-rule:nonzero;stroke:none" id="path1990" transform="matrix(0.133333, 0, 0, -0.133333, 0, 5287.013184)"/>
  <path d="m 23314.5,25656.8 3.5,-6.1 123.6,71.4 c -2.4,1.3 -4.7,2.6 -7.1,3.9 l -120,-69.2" style="fill:#ffe840;fill-opacity:1;fill-rule:nonzero;stroke:none" id="path1992" transform="matrix(0.133333, 0, 0, -0.133333, 0, 5287.013184)"/>
  <path d="m 23423.7,25609.8 3.5,-6.1 102.9,59.4 c -2,1.5 -4,3.1 -6,4.6 l -100.4,-57.9" style="fill:#ffe840;fill-opacity:1;fill-rule:nonzero;stroke:none" id="path1994" transform="matrix(0.133333, 0, 0, -0.133333, 0, 5287.013184)"/>
  <path d="m 23499.8,25543.6 3.5,-6.1 103,59.5 c -1.7,1.7 -3.5,3.4 -5.2,5 l -101.3,-58.4" style="fill:#ffe840;fill-opacity:1;fill-rule:nonzero;stroke:none" id="path1996" transform="matrix(0.133333, 0, 0, -0.133333, 0, 5287.013184)"/>
  <path d="m 23575.8,25477.4 3.5,-6.1 93.7,54.1 c -1.5,1.9 -3,3.7 -4.6,5.5 l -92.6,-53.5" style="fill:#ffe840;fill-opacity:1;fill-rule:nonzero;stroke:none" id="path1998" transform="matrix(0.133333, 0, 0, -0.133333, 0, 5287.013184)"/>
  <path d="m 23618.7,25392.1 3.6,-6.1 109.3,63.2 c -1.3,1.9 -2.7,3.8 -4,5.7 l -108.9,-62.8" style="fill:#ffe840;fill-opacity:1;fill-rule:nonzero;stroke:none" id="path2000" transform="matrix(0.133333, 0, 0, -0.133333, 0, 5287.013184)"/>
  <path d="m 23660,25305.1 3.5,-6.1 118.9,69.4 c -1.2,2 -2.3,4 -3.5,6.1 l -118.9,-69.4" style="fill:#ffe840;fill-opacity:1;fill-rule:nonzero;stroke:none" id="path2002" transform="matrix(0.133333, 0, 0, -0.133333, 0, 5287.013184)"/>
  <path d="m 23700.3,25219 3.5,-6.1 121.2,70 c -0.9,2.2 -1.9,4.3 -2.8,6.5 l -121.9,-70.4" style="fill:#ffe840;fill-opacity:1;fill-rule:nonzero;stroke:none" id="path2004" transform="matrix(0.133333, 0, 0, -0.133333, 0, 5287.013184)"/>
  <path d="m 23720.8,25120.8 3.5,-6.1 134,77.4 c -0.6,2.3 -1.3,4.6 -2,6.9 l -135.5,-78.2" style="fill:#ffe840;fill-opacity:1;fill-rule:nonzero;stroke:none" id="path2006" transform="matrix(0.133333, 0, 0, -0.133333, 0, 5287.013184)"/>
  <path d="m 23755.4,25030.7 3.5,-6.1 120.6,69.6 c -0.3,2.5 -0.6,5 -1,7.5 l -123.1,-71" style="fill:#ffe840;fill-opacity:1;fill-rule:nonzero;stroke:none" id="path2008" transform="matrix(0.133333, 0, 0, -0.133333, 0, 5287.013184)"/>
  <path d="m 23750.3,24917.6 3.5,-6 127.8,73.8 c 0.3,2.8 0.6,5.6 0.8,8.5 l -132.1,-76.3" style="fill:#ffe840;fill-opacity:1;fill-rule:nonzero;stroke:none" id="path2010" transform="matrix(0.133333, 0, 0, -0.133333, 0, 5287.013184)"/>
  <path d="m 23209.5,25706.4 3.5,-6.1 120.3,69.5 c -3.1,0.9 -6.2,1.9 -9.2,2.7 l -114.6,-66.1" style="fill:#ffe840;fill-opacity:1;fill-rule:nonzero;stroke:none" id="path2012" transform="matrix(0.133333, 0, 0, -0.133333, 0, 5287.013184)"/>
  <path d="m 23393.9,25241.1 v -58.4 c -1.3,0.8 -2.5,1.6 -3.8,2.3 l -32,18.5 v 54.5 l 18,-10.4 c 6.5,-3.7 12.4,-5.9 17.8,-6.5" style="fill:#d1975d;fill-opacity:1;fill-rule:nonzero;stroke:none" id="path2014" transform="matrix(0.133333, 0, 0, -0.133333, 0, 5287.013184)"/>
  <path d="m 23386.6,25093.5 c 2.5,-1.4 4.9,-2.6 7.3,-3.6 V 24971 l -35.8,20.7 v 118.3 l 28.5,-16.5" style="fill:#d1975d;fill-opacity:1;fill-rule:nonzero;stroke:none" id="path2016" transform="matrix(0.133333, 0, 0, -0.133333, 0, 5287.013184)"/>
  <path d="m 23428.1,25097.6 c -2.3,-4.4 -5.5,-7.4 -9.5,-9.3 -4,-1.9 -8.7,-2.4 -14.2,-1.5 -3.4,0.5 -6.9,1.5 -10.5,3.1 -2.4,1 -4.8,2.2 -7.3,3.6 l -72,41.6 -30.5,17.6 v 93.5 l 106,-61.2 c 1.3,-0.7 2.5,-1.5 3.8,-2.3 4.5,-3 8.8,-6.7 12.7,-10.9 5,-5.4 9.4,-11.4 13,-17.8 3.7,-6.5 6.6,-13.2 8.8,-20.3 2.2,-7.1 3.2,-13.8 3.2,-20.2 0,-6.3 -1.1,-11.6 -3.5,-15.9 z m -49,237.8 c 5.3,-3 10.2,-6.8 14.8,-11.3 4.8,-4.7 9.1,-10.3 13,-16.7 7.5,-12.3 11.2,-25.3 11.2,-39 0,-14 -4.1,-22.6 -12.2,-25.9 -3.7,-1.5 -7.7,-2 -12,-1.4 -5.4,0.6 -11.3,2.8 -17.8,6.5 l -61.5,35.5 -30.5,17.7 v 89.5 l 74,-42.7 z m 104.3,-206.5 c -11.8,22.4 -27.9,42.4 -48.3,60.2 16.7,-2.3 29.4,1.6 38,11.8 8.7,10.1 13.1,23.9 13.1,41.2 0,11 -2,23.1 -5.8,36.1 -3.8,13.1 -9.3,25.9 -16.2,38.4 -7,12.6 -15.6,24.4 -25.6,35.5 -10,11.1 -21.1,20.2 -33.5,27.3 l -11.2,6.6 v 57.5 l -35.8,20.7 v -57.6 l -43.5,25.1 v 57.6 l -35.7,20.6 v -57.6 l -63.8,36.9 v -355.1 l 63.8,-36.9 v -59.8 l 35.7,-20.6 v 59.8 l 72,-41.6 c 2.5,-1.4 4.9,-2.7 7.3,-4 13,-7 25.3,-12.2 37,-15.6 13.8,-3.9 26,-5.1 36.5,-3.5 10.5,1.6 18.8,6.3 24.8,14.2 6,7.9 9,19.3 9,34.3 0,23.3 -6,46.2 -17.8,68.5" style="fill:#ff9d4d;fill-opacity:1;fill-rule:nonzero;stroke:none" id="path2018" transform="matrix(0.133333, 0, 0, -0.133333, 0, 5287.013184)"/>
  <g id="g2020" transform="matrix(0.133333, 0, 0, -0.133333, 0, 5287.013184)">
    <g id="g2022" clip-path="url(#clipPath2026)">
      <path d="m 26944.3,23052.2 c 161,-93 161,-243.7 0,-336.6 -160.9,-92.9 -421.9,-92.9 -582.9,0 -161,92.9 -161,243.6 0,336.6 161,92.9 422,92.9 582.9,0" style="fill:url(#linearGradient2032);fill-opacity:1;fill-rule:nonzero;stroke:none" id="path2034"/>
    </g>
  </g>
</svg>