<?xml version="1.0" encoding="utf-8"?>
<svg viewBox="1195.631 0 966.303 1220.041" width="966.303" height="1220.041" xmlns="http://www.w3.org/2000/svg">
  <defs>
    <clipPath clipPathUnits="userSpaceOnUse" id="clipPath212">
      <path d="m 12868.7,37063.5 314.4,-989.9 6.9,-21.7 c 11.6,-36.5 35.1,-66.1 64.8,-85.6 l 937.6,-618 c 54.4,-35.9 129.2,-25 167,28.1 36.3,50.8 27.2,119.5 -17.8,159.4 l -770.5,641.8 -221.9,1009 c -29.9,136 -166.4,226.1 -301.8,193.6 -131.3,-31.5 -213.7,-162.4 -184.6,-294.8 1.6,-7.3 3.7,-14.9 5.9,-21.9 z" id="path210"/>
    </clipPath>
    <linearGradient x1="0" y1="0" x2="1" y2="0" gradientUnits="userSpaceOnUse" gradientTransform="matrix(1524.87,0,0,-1524.87,12857,36357.1)" spreadMethod="pad" id="linearGradient218">
      <stop style="stop-opacity:1;stop-color:#6a5ebf" offset="0" id="stop214"/>
      <stop style="stop-opacity:1;stop-color:#6e3aa5" offset="1" id="stop216"/>
    </linearGradient>
    <clipPath clipPathUnits="userSpaceOnUse" id="clipPath228">
      <path d="m 12353.7,32317.2 135.7,2.4 347.6,6.1 278.8,1276.1 84.4,1549.4 -649.5,78 -137.5,16.4 139.3,-1587.9 c -58.6,-195.9 -104.4,-394.8 -136.9,-596.1 -32.8,-201 -52.2,-404.4 -58,-608.4 z" id="path226"/>
    </clipPath>
    <linearGradient x1="0" y1="0" x2="1" y2="0" gradientUnits="userSpaceOnUse" gradientTransform="matrix(846.506,0,0,-846.506,12353.7,33781.4)" spreadMethod="pad" id="linearGradient234">
      <stop style="stop-opacity:1;stop-color:#2e256b" offset="0" id="stop230"/>
      <stop style="stop-opacity:1;stop-color:#5a3087" offset="1" id="stop232"/>
    </linearGradient>
    <clipPath clipPathUnits="userSpaceOnUse" id="clipPath244">
      <path d="m 12489.4,32319.6 347.6,6.1 278.8,1276.1 84.4,1549.4 -649.5,78 137.9,-1571.5 c -58.6,-195.9 -104.5,-394.8 -137,-596.1 -32.8,-201 -52.2,-404.4 -58,-608.4 z" id="path242"/>
    </clipPath>
    <linearGradient x1="0" y1="0" x2="1" y2="0" gradientUnits="userSpaceOnUse" gradientTransform="matrix(710.785,0,0,-710.785,12489.4,33774.4)" spreadMethod="pad" id="linearGradient250">
      <stop style="stop-opacity:1;stop-color:#6a5ebf" offset="0" id="stop246"/>
      <stop style="stop-opacity:1;stop-color:#6e3aa5" offset="1" id="stop248"/>
    </linearGradient>
    <clipPath clipPathUnits="userSpaceOnUse" id="clipPath260">
      <path d="m 11501.4,32090.3 481.8,-40.9 4.9,14.8 402,1226.4 241.7,1533 -593.9,133.6 -179.5,40.4 -22.7,-1594.1 c -78.4,-188.8 -143.9,-381.9 -196.8,-578.7 -52.8,-196.7 -92.9,-397.1 -119.6,-599.6 z" id="path258"/>
    </clipPath>
    <linearGradient x1="0" y1="0" x2="1" y2="0" gradientUnits="userSpaceOnUse" gradientTransform="matrix(1130.4,0,0,-1130.4,11501.4,33523.5)" spreadMethod="pad" id="linearGradient266">
      <stop style="stop-opacity:1;stop-color:#2e256b" offset="0" id="stop262"/>
      <stop style="stop-opacity:1;stop-color:#5a3087" offset="1" id="stop264"/>
    </linearGradient>
    <clipPath clipPathUnits="userSpaceOnUse" id="clipPath276">
      <path d="m 11681.4,32090.3 306.7,-26.1 402,1226.4 241.7,1533 -593.9,133.6 -22.2,-1553.7 c -78.3,-188.8 -144.2,-381.9 -197,-578.7 -52.9,-196.7 -92.6,-397.1 -119.4,-599.6 z" id="path274"/>
    </clipPath>
    <linearGradient x1="0" y1="0" x2="1" y2="0" gradientUnits="userSpaceOnUse" gradientTransform="matrix(950.346,0,0,-950.346,11681.4,33510.7)" spreadMethod="pad" id="linearGradient282">
      <stop style="stop-opacity:1;stop-color:#6a5ebf" offset="0" id="stop278"/>
      <stop style="stop-opacity:1;stop-color:#6e3aa5" offset="1" id="stop280"/>
    </linearGradient>
    <clipPath clipPathUnits="userSpaceOnUse" id="clipPath294">
      <path d="m 12916,37451.5 -40.2,-6.6 -236.5,91 -545.7,-461.6 c -27.6,-6.3 -384.7,-251.6 -492.6,-503.8 -17.2,-40.1 -21.6,-84.6 -14.3,-127.7 28.2,-167.6 115,-682.1 178.2,-1054.9 l -11.6,-680.1 c 22,-129.8 147.4,-215.2 276.2,-188.2 l 1037.7,218.1 c 113.2,23.8 191.6,127.4 183.6,242.9 l -64,922.2 c -10.4,149.6 3.9,235.7 25.6,329.4 37.5,161.4 135.3,243.5 123.8,408.8 l 9.6,77.8 c -5.2,73.5 35.3,212.1 36.7,285.9 0.7,36.3 -3,75.8 -9.4,116.3 -34.3,217.4 -239.9,366.1 -457.1,330.5 z" id="path292"/>
    </clipPath>
    <linearGradient x1="0" y1="0" x2="1" y2="0" gradientUnits="userSpaceOnUse" gradientTransform="matrix(1799.27,0,0,-1799.27,11583.3,36025.3)" spreadMethod="pad" id="linearGradient300">
      <stop style="stop-opacity:1;stop-color:#2e256b" offset="0" id="stop296"/>
      <stop style="stop-opacity:1;stop-color:#5a3087" offset="1" id="stop298"/>
    </linearGradient>
    <clipPath clipPathUnits="userSpaceOnUse" id="clipPath316">
      <path d="m 11605,36256.1 231.8,-1012.6 5.1,-22.1 c 8.5,-37.3 29.5,-68.7 57.5,-90.7 l 886.7,-695.7 c 52.1,-40.9 127.5,-31.8 168.4,20.3 37.3,47.5 33,114.4 -7.5,156.8 l -777.5,816 62.5,-112.8 -138.7,1029.4 c -18.3,135.9 -143.4,231.3 -279.3,212.9 -136,-18.3 -231.3,-143.4 -213,-279.3 1,-7.4 2.4,-15.1 4,-22.2 z" id="path314"/>
    </clipPath>
    <linearGradient x1="0" y1="0" x2="1" y2="0" gradientUnits="userSpaceOnUse" gradientTransform="matrix(1381.37,0,0,-1381.37,11598.7,35484.6)" spreadMethod="pad" id="linearGradient322">
      <stop style="stop-opacity:1;stop-color:#6a5ebf" offset="0" id="stop318"/>
      <stop style="stop-opacity:1;stop-color:#6e3aa5" offset="1" id="stop320"/>
    </linearGradient>
    <clipPath clipPathUnits="userSpaceOnUse" id="clipPath332">
      <path d="m 12949.1,34560.1 83,-60.7 v -51.7 c -7.9,-0.4 -15.9,2 -22.6,6.8 l -644.2,472.8 c -30.9,22.7 -43.9,57.9 -40.4,91.2 l 6.4,57.7 15.6,-4.6 c 9.6,11.9 22.2,21.9 37.7,28.7 l 655.4,286.5 z" id="path330"/>
    </clipPath>
    <linearGradient x1="0" y1="0" x2="1" y2="0" gradientUnits="userSpaceOnUse" gradientTransform="matrix(715.596,0,0,-715.596,12324.4,34917.2)" spreadMethod="pad" id="linearGradient338">
      <stop style="stop-opacity:1;stop-color:#483ca6" offset="0" id="stop334"/>
      <stop style="stop-opacity:1;stop-color:#59278f" offset="1" id="stop336"/>
    </linearGradient>
    <clipPath clipPathUnits="userSpaceOnUse" id="clipPath348">
      <path d="m 14633.5,35199.3 -2.4,-23.4 c -2.4,-20.6 -15.6,-38.5 -34.6,-46.8 l -1552.1,-678.4 c -3.9,-1.7 -8.2,-2.7 -12.3,-3 v 51.7 z" id="path346"/>
    </clipPath>
    <linearGradient x1="0" y1="0" x2="1" y2="0" gradientUnits="userSpaceOnUse" gradientTransform="matrix(1601.42,0,0,-1601.42,13032.1,34823.5)" spreadMethod="pad" id="linearGradient354">
      <stop style="stop-opacity:1;stop-color:#2e256b" offset="0" id="stop350"/>
      <stop style="stop-opacity:1;stop-color:#5a3087" offset="1" id="stop352"/>
    </linearGradient>
    <clipPath clipPathUnits="userSpaceOnUse" id="clipPath368">
      <path d="m 12944.6,34784.9 1243.1,546.3 -395.7,290.5 -1243.2,-546.3 z" id="path366"/>
    </clipPath>
    <linearGradient x1="0" y1="0" x2="1" y2="0" gradientUnits="userSpaceOnUse" gradientTransform="matrix(1638.95,0,0,-1638.95,12548.8,35203.3)" spreadMethod="pad" id="linearGradient374">
      <stop style="stop-opacity:1;stop-color:#7fc1e2" offset="0" id="stop370"/>
      <stop style="stop-opacity:1;stop-color:#304d87" offset="1" id="stop372"/>
    </linearGradient>
    <clipPath clipPathUnits="userSpaceOnUse" id="clipPath384">
      <path d="m 13200.5,35826.7 c -17.9,-30.2 -29.5,-64.3 -33.5,-100.5 l -32.8,-298.2 -102.1,-928.6 -83,60.7 90.9,826.7 44,400.1 c 4.1,36.3 15.6,70.5 33.7,100.8 z" id="path382"/>
    </clipPath>
    <linearGradient x1="0" y1="0" x2="1" y2="0" gradientUnits="userSpaceOnUse" gradientTransform="matrix(251.405,0,0,-251.405,12949.1,35193.6)" spreadMethod="pad" id="linearGradient390">
      <stop style="stop-opacity:1;stop-color:#483ca6" offset="0" id="stop386"/>
      <stop style="stop-opacity:1;stop-color:#59278f" offset="1" id="stop388"/>
    </linearGradient>
    <clipPath clipPathUnits="userSpaceOnUse" id="clipPath400">
      <path d="m 13117.7,35887.8 82.7,-61.1 c 26.5,44.9 66.8,81.4 116.2,103 l 1332.8,582.4 c 30.2,13.1 61.8,7.4 84.9,-9.7 l -83,60.7 c -23.2,17.1 -54.8,22.7 -84.9,9.6 l -1332.7,-582.4 c -49.3,-21.5 -89.5,-57.7 -116,-102.5 z" id="path398"/>
    </clipPath>
    <linearGradient x1="0" y1="0" x2="1" y2="0" gradientUnits="userSpaceOnUse" gradientTransform="matrix(1616.64,0,0,-1616.64,13117.7,36203.3)" spreadMethod="pad" id="linearGradient406">
      <stop style="stop-opacity:1;stop-color:#6a5ebf" offset="0" id="stop402"/>
      <stop style="stop-opacity:1;stop-color:#6e3aa5" offset="1" id="stop404"/>
    </linearGradient>
    <clipPath clipPathUnits="userSpaceOnUse" id="clipPath418">
      <path d="m 14768.3,36424.5 -134.8,-1225.2 -1601.4,-699.9 102.1,928.6 32.8,298.2 c 4,36.2 15.6,70.3 33.5,100.5 26.3,44.9 66.6,81.4 116.1,102.9 l 1332.9,582.4 c 30.1,13.2 61.6,7.5 84.9,-9.6 l 0.1,-0.1 c 22.9,-17 37.4,-45.4 33.8,-77.8 z" id="path416"/>
    </clipPath>
    <linearGradient x1="0" y1="0" x2="1" y2="0" gradientUnits="userSpaceOnUse" gradientTransform="matrix(1736.74,0,0,-1736.74,13032.1,35509.4)" spreadMethod="pad" id="linearGradient424">
      <stop style="stop-opacity:1;stop-color:#2e256b" offset="0" id="stop420"/>
      <stop style="stop-opacity:1;stop-color:#5a3087" offset="1" id="stop422"/>
    </linearGradient>
  </defs>
  <path d="m 10379.7,36500.6 29.9,43.3 -152.6,86.7 c -2.9,1.7 -5.7,3.3 -8.6,4.9 l -0.2,0.1 v 0 c -134.2,73.3 -329.91,55.4 -547.78,-70.4 -404.93,-233.8 -733.19,-751.6 -733.19,-1156.5 0,-170 57.84,-293 154.89,-361.3 v 0 l 0.05,-0.1 c 14.41,-10.1 29.68,-19 45.75,-26.7 l 132.58,-77.6 29.27,42.3 c 108.76,-1.1 235.42,35.4 370.65,113.5 404.88,233.8 733.18,751.6 733.18,1156.5 0,97.8 -19.2,180.1 -53.9,245.3" style="fill:#ff9d4d;fill-opacity:1;fill-rule:nonzero;stroke:none" id="path92" transform="matrix(0.133333, 0, 0, -0.133333, 0, 5287.013184)"/>
  <path d="m 10066.5,36678.7 c -50,0 -103.77,-7.8 -160.31,-24 -5.15,-1.5 -10.33,-3 -15.52,-4.6 h -0.03 c -54.31,-16.8 -111.12,-41.2 -169.67,-73.3 -3.97,-2.2 -7.94,-4.5 -11.94,-6.7 -2.87,-1.6 -5.73,-3.3 -8.6,-4.9 -44.26,-25.6 -87.58,-54.5 -129.68,-86.3 -3.38,-2.6 -6.77,-5.2 -10.12,-7.7 -40.97,-31.6 -80.74,-65.9 -118.98,-102.4 -2.94,-2.8 -5.88,-5.7 -8.82,-8.5 -36.22,-35.1 -71.03,-72.2 -104.17,-110.9 -2.59,-3 -5.17,-6 -7.73,-9.1 -32.2,-38.1 -62.76,-77.6 -91.43,-118.3 -2.28,-3.2 -4.56,-6.4 -6.79,-9.6 -28.42,-40.8 -54.93,-82.7 -79.31,-125.3 -1.97,-3.4 -3.9,-6.8 -5.8,-10.2 -24.64,-43.6 -46.97,-87.9 -66.76,-132.5 -1.62,-3.6 -3.21,-7.2 -4.77,-10.8 -20.4,-46.9 -37.98,-94 -52.41,-140.8 -1.17,-3.8 -2.35,-7.7 -3.48,-11.6 -15.21,-51.1 -26.63,-101.8 -33.85,-151.4 -0.61,-4.2 -1.19,-8.4 -1.71,-12.6 -4.87,-36.9 -7.38,-73.1 -7.38,-108.5 0,-20.6 0.85,-40.5 2.54,-59.8 0.4,-4.8 0.86,-9.6 1.41,-14.3 14.5,-132 68.6,-229.3 150.94,-287.2 l 0.05,-0.1 c 14.41,-10.1 29.69,-19 45.74,-26.7 l 132.58,-77.6 29.27,42.3 c 1.53,0 3.06,0 4.6,0 107.71,0 232.72,36.5 366.06,113.5 404.87,233.8 733.17,751.6 733.17,1156.5 0,97.8 -19.2,180.1 -53.9,245.3 l 29.9,43.3 -152.6,86.7 c -2.9,1.7 -5.7,3.3 -8.6,4.9 l -0.2,0.1 c -52.1,28.4 -113.4,43.1 -181.7,43.1 z m 0,-11.7 c 66.1,0 125.4,-14.1 176.1,-41.8 l 0.6,-0.3 c 2.7,-1.4 5.3,-2.9 8,-4.5 l 141.4,-80.4 -22.6,-32.7 -4.1,-5.8 3.4,-6.4 c 34.9,-65.4 52.5,-146.1 52.5,-239.8 0,-400.5 -326.2,-914.8 -727.25,-1146.3 -126.88,-73.3 -251.43,-112 -360.18,-112 h -4.49 l -6.23,0.1 -3.54,-5.1 -23.07,-33.3 -123.19,72 -0.42,0.3 -0.43,0.2 c -15.46,7.4 -30.28,16.1 -44.06,25.8 l -0.67,0.4 c -81.44,57.7 -131.71,153.9 -145.41,278.5 -0.53,4.6 -0.98,9.3 -1.38,14.1 -1.65,18.8 -2.49,38.5 -2.49,58.7 0,34.4 2.45,70.4 7.29,107 0.51,4.1 1.08,8.2 1.68,12.4 7.03,48.3 18.29,98.8 33.5,149.8 1.11,3.9 2.28,7.7 3.43,11.4 14.13,45.9 31.61,92.8 51.99,139.7 1.52,3.5 3.1,7.1 4.71,10.7 19.55,44 41.83,88.2 66.27,131.5 1.87,3.3 3.76,6.7 5.74,10.1 24.16,42.2 50.65,84 78.76,124.4 2.21,3.2 4.46,6.4 6.74,9.6 28.52,40.4 59.07,79.9 90.84,117.5 2.53,3 5.08,6 7.65,9 32.95,38.4 67.75,75.5 103.42,110.1 l 8.75,8.4 c 38.12,36.4 77.83,70.5 118.03,101.5 3.32,2.6 6.67,5.1 10.05,7.7 42.13,31.8 85.35,60.6 128.59,85.6 2.77,1.6 5.55,3.1 8.42,4.7 3.95,2.3 7.86,4.5 11.78,6.7 56.28,30.9 112.06,55.1 165.8,71.8 h 0.01 l 1.69,0.6 c 5.1,1.5 10.19,3.1 15.28,4.5 54.75,15.6 107.59,23.6 157.09,23.6" style="fill:#ffe840;fill-opacity:1;fill-rule:nonzero;stroke:none" id="path94" transform="matrix(0.133333, 0, 0, -0.133333, 0, 5287.013184)"/>
  <path d="m 10582.3,36169.5 c 0,-404.9 -328.3,-922.7 -733.22,-1156.5 -404.92,-233.8 -733.18,-95 -733.18,309.9 0,404.9 328.26,922.7 733.18,1156.5 404.92,233.8 733.22,95 733.22,-309.9" style="fill:#ffd071;fill-opacity:1;fill-rule:nonzero;stroke:none" id="path96" transform="matrix(0.133333, 0, 0, -0.133333, 0, 5287.013184)"/>
  <path d="m 10582.3,36169.5 c 0,-404.9 -328.3,-922.7 -733.22,-1156.5 -404.92,-233.8 -733.18,-95 -733.18,309.9 0,404.9 328.26,922.7 733.18,1156.5 404.92,233.8 733.22,95 733.22,-309.9" style="fill:#ffe840;fill-opacity:1;fill-rule:nonzero;stroke:none" id="path98" transform="matrix(0.133333, 0, 0, -0.133333, 0, 5287.013184)"/>
  <path d="m 9867.89,36351.5 c -333.78,-192.7 -605.34,-621 -605.34,-954.8 0,-333.8 271.56,-448.5 605.34,-255.8 333.81,192.7 605.31,621 605.31,954.8 0,333.8 -271.5,448.5 -605.31,255.8 z m 0,-1245.9 c -171.11,-98.8 -331.98,-125 -452.97,-73.9 -120.99,51.2 -187.62,173.6 -187.62,344.7 0,171.1 66.63,370.4 187.62,561.2 120.99,190.9 281.86,350.4 452.97,449.2 171.11,98.8 332.01,125 452.91,73.9 121,-51.2 187.7,-173.6 187.7,-344.7 0,-171.1 -66.7,-370.4 -187.7,-561.2 -120.9,-190.9 -281.8,-350.4 -452.91,-449.2" style="fill:#ff9d4d;fill-opacity:1;fill-rule:nonzero;stroke:none" id="path100" transform="matrix(0.133333, 0, 0, -0.133333, 0, 5287.013184)"/>
  <path d="m 9957.57,35854.5 v -97.6 c -2.02,-1 -4.11,-2.1 -6.23,-3.4 l -53.58,-30.9 v 91.2 l 30.14,17.4 c 10.78,6.3 20.68,14 29.67,23.3" style="fill:#d1975d;fill-opacity:1;fill-rule:nonzero;stroke:none" id="path102" transform="matrix(0.133333, 0, 0, -0.133333, 0, 5287.013184)"/>
  <path d="m 10015,35680.6 c -4,-11.7 -9.3,-23 -15.95,-33.8 -6.7,-10.9 -14.66,-20.9 -23.85,-30.1 -5.62,-5.7 -11.49,-10.7 -17.63,-15.2 -3.92,-2.9 -7.96,-5.5 -12.09,-7.9 l -47.72,-27.5 -123.86,-71.5 v 156.5 l 51.1,29.5 126.34,72.9 c 2.12,1.3 4.21,2.4 6.23,3.4 7.65,3.7 14.79,5.8 21.39,6.3 8.36,0.7 15.61,-0.9 21.74,-4.6 6.2,-3.7 11,-9.4 14.7,-17 3.6,-7.7 5.4,-16.9 5.4,-27.5 0,-10.6 -2,-21.7 -5.8,-33.5 z m -241.1,211.6 159.03,91.8 c 8.91,5.1 17.1,8.3 24.64,9.5 8.06,1.3 15.32,0.4 21.81,-2.8 12.55,-6.1 18.84,-20.7 18.84,-43.5 0,-23.5 -6.84,-45.8 -20.52,-67.1 -6.12,-9.6 -12.83,-18.1 -20.13,-25.6 -8.99,-9.3 -18.89,-17 -29.67,-23.3 l -102.9,-59.4 -51.1,-29.5 z m 333.5,-52.3 c -19.8,14.5 -46.7,17 -80.7,7.4 27.9,28.3 49.1,59.4 63.6,93.2 14.5,33.7 21.8,65.1 21.8,94.2 0,18.4 -3.3,34.8 -9.7,49.2 -6.4,14.4 -15.5,25.4 -27.2,32.9 -11.7,7.4 -25.9,10.8 -42.7,10.1 -16.7,-0.8 -35.41,-7.1 -56.05,-19 l -18.88,-10.9 v 96.3 l -59.81,-34.5 v -96.4 l -72.76,-42 v 96.4 l -59.82,-34.5 v -96.4 l -106.79,-61.7 V 35330 l 106.79,61.6 v -100.1 l 59.82,34.6 v 100 l 72.76,42.1 v -100.1 l 59.81,34.5 v 100.3 c 21.76,13.5 42.42,28.7 62.03,45.6 23.1,20.1 43.5,41.6 61.1,64.6 17.5,23 31.4,46.9 41.4,71.6 10,24.8 15.1,49.7 15.1,74.9 0,39 -10,65.8 -29.8,80.3" style="fill:#ff9d4d;fill-opacity:1;fill-rule:nonzero;stroke:none" id="path104" transform="matrix(0.133333, 0, 0, -0.133333, 0, 5287.013184)"/>
  <path d="m 9922.17,36460.6 -5.88,-10.2 -207.26,119.7 c 4,2.2 7.97,4.5 11.94,6.7 l 201.2,-116.2" style="fill:#ffe840;fill-opacity:1;fill-rule:nonzero;stroke:none" id="path106" transform="matrix(0.133333, 0, 0, -0.133333, 0, 5287.013184)"/>
  <path d="m 9739.02,36381.7 -5.88,-10.2 -172.51,99.7 c 3.35,2.5 6.74,5.1 10.13,7.7 l 168.26,-97.2" style="fill:#ffe840;fill-opacity:1;fill-rule:nonzero;stroke:none" id="path108" transform="matrix(0.133333, 0, 0, -0.133333, 0, 5287.013184)"/>
  <path d="m 9611.51,36270.7 -5.88,-10.2 -172.8,99.8 c 2.94,2.8 5.88,5.7 8.82,8.5 l 169.86,-98.1" style="fill:#ffe840;fill-opacity:1;fill-rule:nonzero;stroke:none" id="path110" transform="matrix(0.133333, 0, 0, -0.133333, 0, 5287.013184)"/>
  <path d="m 9484,36159.7 -5.87,-10.2 -157.2,90.8 c 2.56,3.1 5.14,6.1 7.73,9.1 l 155.34,-89.7" style="fill:#ffe840;fill-opacity:1;fill-rule:nonzero;stroke:none" id="path112" transform="matrix(0.133333, 0, 0, -0.133333, 0, 5287.013184)"/>
  <path d="m 9411.98,36016.7 -5.87,-10.2 -183.4,105.9 c 2.23,3.2 4.51,6.4 6.79,9.6 l 182.48,-105.3" style="fill:#ffe840;fill-opacity:1;fill-rule:nonzero;stroke:none" id="path114" transform="matrix(0.133333, 0, 0, -0.133333, 0, 5287.013184)"/>
  <path d="m 9365.69,35857.8 -5.87,-10.1 -222.22,129.2 c 1.9,3.4 3.83,6.8 5.8,10.2 l 222.29,-129.3" style="fill:#ffe840;fill-opacity:1;fill-rule:nonzero;stroke:none" id="path116" transform="matrix(0.133333, 0, 0, -0.133333, 0, 5287.013184)"/>
  <path d="m 9275.24,35726.4 -5.88,-10.2 -203.29,117.4 c 1.55,3.6 3.15,7.2 4.77,10.8 l 204.4,-118" style="fill:#ffe840;fill-opacity:1;fill-rule:nonzero;stroke:none" id="path118" transform="matrix(0.133333, 0, 0, -0.133333, 0, 5287.013184)"/>
  <path d="m 9240.83,35561.7 -5.88,-10.2 -224.77,129.7 c 1.13,3.9 2.31,7.8 3.48,11.6 l 227.17,-131.1" style="fill:#ffe840;fill-opacity:1;fill-rule:nonzero;stroke:none" id="path120" transform="matrix(0.133333, 0, 0, -0.133333, 0, 5287.013184)"/>
  <path d="m 9182.75,35410.6 -5.88,-10.2 -202.25,116.8 c 0.52,4.2 1.1,8.4 1.71,12.6 l 206.42,-119.2" style="fill:#ffe840;fill-opacity:1;fill-rule:nonzero;stroke:none" id="path122" transform="matrix(0.133333, 0, 0, -0.133333, 0, 5287.013184)"/>
  <path d="m 9191.4,35221 -5.88,-10.2 -214.33,123.8 c -0.55,4.7 -1.01,9.5 -1.41,14.3 L 9191.4,35221" style="fill:#ffe840;fill-opacity:1;fill-rule:nonzero;stroke:none" id="path124" transform="matrix(0.133333, 0, 0, -0.133333, 0, 5287.013184)"/>
  <path d="m 10098.3,36543.8 -5.9,-10.2 -201.73,116.5 c 5.19,1.6 10.37,3.1 15.51,4.6 l 192.12,-110.9" style="fill:#ffe840;fill-opacity:1;fill-rule:nonzero;stroke:none" id="path126" transform="matrix(0.133333, 0, 0, -0.133333, 0, 5287.013184)"/>
  <path d="m 15437,39474.5 29.9,43.2 -152.6,86.8 c -2.9,1.6 -5.8,3.3 -8.7,4.9 h -0.1 v 0 c -134.3,73.4 -329.9,55.4 -547.8,-70.4 -404.9,-233.7 -733.2,-751.5 -733.2,-1156.4 0,-170 57.9,-293.1 154.9,-361.4 v 0 h 0.1 c 14.4,-10.1 29.6,-19.1 45.7,-26.8 l 132.6,-77.5 29.3,42.2 c 108.7,-1 235.4,35.5 370.6,113.6 404.9,233.8 733.2,751.5 733.2,1156.5 0,97.8 -19.2,180.1 -53.9,245.3" style="fill:#ff9d4d;fill-opacity:1;fill-rule:nonzero;stroke:none" id="path128" transform="matrix(0.133333, 0, 0, -0.133333, 0, 5287.013184)"/>
  <path d="m 15123.7,39652.6 c -49.9,0 -103.7,-7.9 -160.2,-24 -5.2,-1.5 -10.4,-3.1 -15.5,-4.6 h -0.1 c -54.3,-16.9 -111.1,-41.2 -169.6,-73.4 -4,-2.2 -8,-4.4 -12,-6.7 -2.9,-1.6 -5.7,-3.2 -8.6,-4.9 -44.2,-25.5 -87.6,-54.5 -129.7,-86.3 -3.3,-2.5 -6.7,-5.1 -10.1,-7.7 -41,-31.6 -80.7,-65.8 -119,-102.3 -2.9,-2.9 -5.8,-5.7 -8.8,-8.5 -36.2,-35.1 -71,-72.2 -104.2,-110.9 -2.5,-3 -5.1,-6.1 -7.7,-9.1 -32.2,-38.1 -62.7,-77.7 -91.4,-118.3 -2.3,-3.2 -4.6,-6.4 -6.8,-9.7 -28.4,-40.8 -54.9,-82.7 -79.3,-125.2 -2,-3.4 -3.9,-6.8 -5.8,-10.2 -24.7,-43.7 -47,-88 -66.8,-132.5 -1.6,-3.6 -3.2,-7.2 -4.7,-10.8 -20.4,-46.9 -38,-94 -52.5,-140.8 -1.1,-3.9 -2.3,-7.7 -3.4,-11.6 -15.2,-51.1 -26.7,-101.8 -33.9,-151.5 -0.6,-4.2 -1.2,-8.4 -1.7,-12.6 -4.9,-36.8 -7.4,-73 -7.4,-108.4 0,-20.7 0.9,-40.6 2.6,-59.8 0.4,-4.8 0.8,-9.6 1.4,-14.4 14.5,-131.9 68.6,-229.2 150.9,-287.2 h 0.1 c 14.4,-10.1 29.7,-19.1 45.7,-26.8 l 132.6,-77.5 29.3,42.3 c 1.5,-0.1 3,-0.1 4.6,-0.1 107.7,0 232.7,36.6 366,113.6 404.9,233.8 733.2,751.5 733.2,1156.5 0,97.8 -19.2,180.1 -53.9,245.3 l 29.9,43.2 -152.6,86.8 c -2.9,1.6 -5.7,3.3 -8.7,4.9 h -0.1 c -52.1,28.5 -113.4,43.2 -181.8,43.2 z m 0,-11.7 c 66.2,0 125.5,-14.1 176.2,-41.8 l 0.6,-0.3 c 2.7,-1.5 5.3,-3 8,-4.5 l 141.4,-80.4 -22.6,-32.7 -4.1,-5.9 3.4,-6.3 c 34.9,-65.4 52.5,-146.1 52.5,-239.8 0,-400.6 -326.2,-914.8 -727.3,-1146.3 -126.8,-73.3 -251.4,-112 -360.1,-112 h -4.5 l -6.3,0.1 -3.5,-5.2 -23.1,-33.3 -123.2,72.1 -0.4,0.2 -0.4,0.2 c -15.5,7.5 -30.3,16.1 -44.1,25.8 l -0.6,0.5 c -81.5,57.6 -131.8,153.9 -145.5,278.5 -0.5,4.6 -0.9,9.3 -1.3,14 -1.7,18.8 -2.5,38.6 -2.5,58.8 0,34.3 2.4,70.3 7.3,107 0.5,4.1 1,8.2 1.6,12.3 7.1,48.4 18.3,98.8 33.5,149.9 1.2,3.8 2.3,7.6 3.5,11.4 14.1,45.8 31.6,92.8 52,139.6 1.5,3.6 3.1,7.1 4.7,10.7 19.5,44 41.8,88.3 66.2,131.6 1.9,3.3 3.8,6.7 5.8,10 24.1,42.2 50.6,84.1 78.7,124.4 2.3,3.2 4.5,6.4 6.8,9.6 28.5,40.4 59.1,80 90.8,117.5 2.6,3 5.1,6 7.7,9 32.9,38.5 67.7,75.5 103.4,110.1 l 8.7,8.5 c 38.2,36.3 77.9,70.5 118.1,101.5 3.3,2.6 6.6,5.1 10,7.6 42.2,31.9 85.4,60.7 128.5,85.5 2.8,1.7 5.6,3.3 8.5,4.9 4,2.3 7.9,4.5 11.8,6.6 56.3,30.9 112.1,55.1 165.8,71.9 v 0 l 1.7,0.5 c 5.1,1.6 10.2,3.1 15.3,4.6 54.7,15.6 107.6,23.6 157,23.6" style="fill:#ffe840;fill-opacity:1;fill-rule:nonzero;stroke:none" id="path130" transform="matrix(0.133333, 0, 0, -0.133333, 0, 5287.013184)"/>
  <path d="m 15639.6,39143.4 c 0,-405 -328.3,-922.7 -733.2,-1156.5 -405,-233.8 -733.2,-95.1 -733.2,309.9 0,404.9 328.2,922.7 733.2,1156.5 404.9,233.7 733.2,95 733.2,-309.9" style="fill:#ffd071;fill-opacity:1;fill-rule:nonzero;stroke:none" id="path132" transform="matrix(0.133333, 0, 0, -0.133333, 0, 5287.013184)"/>
  <path d="m 15639.6,39143.4 c 0,-405 -328.3,-922.7 -733.2,-1156.5 -405,-233.8 -733.2,-95.1 -733.2,309.9 0,404.9 328.2,922.7 733.2,1156.5 404.9,233.7 733.2,95 733.2,-309.9" style="fill:#ffe840;fill-opacity:1;fill-rule:nonzero;stroke:none" id="path134" transform="matrix(0.133333, 0, 0, -0.133333, 0, 5287.013184)"/>
  <path d="m 14925.2,39325.4 c -333.8,-192.7 -605.4,-621 -605.4,-954.8 0,-333.8 271.6,-448.6 605.4,-255.9 333.7,192.7 605.3,621.1 605.3,954.9 0,333.7 -271.6,448.5 -605.3,255.8 z m 0,-1245.9 c -171.1,-98.8 -332,-125 -453,-73.9 -121,51.1 -187.6,173.5 -187.6,344.6 0,171.1 66.6,370.5 187.6,561.3 121,190.9 281.9,350.4 453,449.2 171.1,98.7 331.9,125 452.9,73.8 121,-51.1 187.7,-173.5 187.7,-344.6 0,-171.1 -66.7,-370.4 -187.7,-561.3 -121,-190.8 -281.8,-350.3 -452.9,-449.1" style="fill:#ff9d4d;fill-opacity:1;fill-rule:nonzero;stroke:none" id="path136" transform="matrix(0.133333, 0, 0, -0.133333, 0, 5287.013184)"/>
  <path d="m 15014.9,38828.4 v -97.7 c -2.1,-1 -4.2,-2.1 -6.3,-3.3 l -53.6,-30.9 v 91.2 l 30.2,17.4 c 10.8,6.2 20.7,14 29.7,23.3" style="fill:#d1975d;fill-opacity:1;fill-rule:nonzero;stroke:none" id="path138" transform="matrix(0.133333, 0, 0, -0.133333, 0, 5287.013184)"/>
  <path d="m 15072.2,38654.5 c -3.9,-11.8 -9.2,-23 -15.9,-33.9 -6.7,-10.8 -14.6,-20.9 -23.8,-30.1 -5.6,-5.6 -11.5,-10.7 -17.6,-15.1 -4,-2.9 -8,-5.5 -12.1,-7.9 l -47.8,-27.6 -123.8,-71.5 v 156.6 l 51.1,29.5 126.3,72.9 c 2.1,1.2 4.2,2.3 6.3,3.3 7.6,3.7 14.7,5.9 21.3,6.4 8.4,0.6 15.7,-0.9 21.8,-4.6 6.1,-3.7 11,-9.4 14.7,-17.1 3.6,-7.7 5.4,-16.8 5.4,-27.4 0,-10.6 -2,-21.8 -5.9,-33.5 z m -241,211.5 159,91.8 c 8.9,5.2 17.1,8.4 24.7,9.6 8,1.3 15.3,0.3 21.8,-2.8 12.5,-6.2 18.8,-20.7 18.8,-43.6 0,-23.4 -6.8,-45.8 -20.5,-67 -6.1,-9.6 -12.8,-18.1 -20.1,-25.6 -9,-9.3 -18.9,-17.1 -29.7,-23.3 l -102.9,-59.4 -51.1,-29.5 z m 333.5,-52.2 c -19.8,14.5 -46.7,16.9 -80.7,7.3 27.8,28.4 49,59.5 63.6,93.2 14.5,33.8 21.7,65.2 21.7,94.2 0,18.4 -3.2,34.8 -9.6,49.3 -6.4,14.4 -15.5,25.4 -27.2,32.8 -11.7,7.5 -25.9,10.9 -42.7,10.1 -16.7,-0.7 -35.4,-7.1 -56.1,-19 l -18.8,-10.9 v 96.4 l -59.9,-34.5 v -96.4 l -72.7,-42 v 96.4 l -59.8,-34.6 v -96.3 l -106.8,-61.7 v -594.3 l 106.8,61.7 v -100.1 l 59.8,34.5 v 100.1 l 72.7,42 v -100 l 59.9,34.5 v 100.3 c 21.7,13.4 42.4,28.6 61.9,45.6 23.2,20.1 43.6,41.6 61.1,64.6 17.6,22.9 31.4,46.8 41.5,71.6 10,24.8 15,49.7 15,74.8 0,39.1 -9.9,65.8 -29.7,80.4" style="fill:#ff9d4d;fill-opacity:1;fill-rule:nonzero;stroke:none" id="path140" transform="matrix(0.133333, 0, 0, -0.133333, 0, 5287.013184)"/>
  <path d="m 14979.5,39434.4 -5.9,-10.1 -207.3,119.6 c 4,2.3 8,4.5 12,6.7 l 201.2,-116.2" style="fill:#ffe840;fill-opacity:1;fill-rule:nonzero;stroke:none" id="path142" transform="matrix(0.133333, 0, 0, -0.133333, 0, 5287.013184)"/>
  <path d="m 14796.3,39355.6 -5.9,-10.2 -172.5,99.6 c 3.4,2.6 6.8,5.2 10.1,7.7 l 168.3,-97.1" style="fill:#ffe840;fill-opacity:1;fill-rule:nonzero;stroke:none" id="path144" transform="matrix(0.133333, 0, 0, -0.133333, 0, 5287.013184)"/>
  <path d="m 14668.8,39244.6 -5.9,-10.2 -172.8,99.8 c 3,2.8 5.9,5.6 8.8,8.5 l 169.9,-98.1" style="fill:#ffe840;fill-opacity:1;fill-rule:nonzero;stroke:none" id="path146" transform="matrix(0.133333, 0, 0, -0.133333, 0, 5287.013184)"/>
  <path d="m 14541.3,39133.6 -5.9,-10.2 -157.2,90.8 c 2.6,3 5.2,6.1 7.7,9.1 l 155.4,-89.7" style="fill:#ffe840;fill-opacity:1;fill-rule:nonzero;stroke:none" id="path148" transform="matrix(0.133333, 0, 0, -0.133333, 0, 5287.013184)"/>
  <path d="m 14469.3,38990.5 -5.9,-10.1 -183.4,105.8 c 2.2,3.3 4.5,6.5 6.8,9.7 l 182.5,-105.4" style="fill:#ffe840;fill-opacity:1;fill-rule:nonzero;stroke:none" id="path150" transform="matrix(0.133333, 0, 0, -0.133333, 0, 5287.013184)"/>
  <path d="m 14423,38831.7 -5.9,-10.2 -222.2,129.3 c 1.9,3.4 3.8,6.8 5.8,10.2 l 222.3,-129.3" style="fill:#ffe840;fill-opacity:1;fill-rule:nonzero;stroke:none" id="path152" transform="matrix(0.133333, 0, 0, -0.133333, 0, 5287.013184)"/>
  <path d="m 14332.5,38700.3 -5.9,-10.2 -203.2,117.4 c 1.5,3.6 3.1,7.2 4.7,10.8 l 204.4,-118" style="fill:#ffe840;fill-opacity:1;fill-rule:nonzero;stroke:none" id="path154" transform="matrix(0.133333, 0, 0, -0.133333, 0, 5287.013184)"/>
  <path d="m 14298.1,38535.5 -5.9,-10.2 -224.7,129.8 c 1.1,3.9 2.3,7.7 3.4,11.6 l 227.2,-131.2" style="fill:#ffe840;fill-opacity:1;fill-rule:nonzero;stroke:none" id="path156" transform="matrix(0.133333, 0, 0, -0.133333, 0, 5287.013184)"/>
  <path d="m 14240,38384.5 -5.8,-10.2 -202.3,116.7 c 0.5,4.2 1.1,8.4 1.7,12.6 l 206.4,-119.1" style="fill:#ffe840;fill-opacity:1;fill-rule:nonzero;stroke:none" id="path158" transform="matrix(0.133333, 0, 0, -0.133333, 0, 5287.013184)"/>
  <path d="m 14248.7,38194.9 -5.9,-10.2 -214.3,123.7 c -0.6,4.8 -1,9.6 -1.4,14.4 l 221.6,-127.9" style="fill:#ffe840;fill-opacity:1;fill-rule:nonzero;stroke:none" id="path160" transform="matrix(0.133333, 0, 0, -0.133333, 0, 5287.013184)"/>
  <path d="m 15155.5,39517.7 -5.8,-10.2 -201.7,116.5 c 5.1,1.5 10.3,3.1 15.5,4.6 l 192,-110.9" style="fill:#ffe840;fill-opacity:1;fill-rule:nonzero;stroke:none" id="path162" transform="matrix(0.133333, 0, 0, -0.133333, 0, 5287.013184)"/>
  <path d="m 16011.9,34737.7 30,43.2 -152.7,86.8 c -2.8,1.6 -5.7,3.3 -8.6,4.9 h -0.1 v 0 c -134.3,73.4 -330,55.4 -547.8,-70.4 -405,-233.8 -733.2,-751.5 -733.2,-1156.5 0,-169.9 57.8,-293 154.9,-361.3 v 0 0 c 14.4,-10.2 29.7,-19.1 45.8,-26.8 l 132.6,-77.5 29.2,42.2 c 108.8,-1 235.5,35.5 370.7,113.6 404.9,233.7 733.2,751.5 733.2,1156.4 0,97.9 -19.2,180.1 -54,245.4" style="fill:#ff9d4d;fill-opacity:1;fill-rule:nonzero;stroke:none" id="path164" transform="matrix(0.133333, 0, 0, -0.133333, 0, 5287.013184)"/>
  <path d="m 15698.7,34915.8 c -50,0 -103.7,-7.9 -160.3,-24.1 -5.1,-1.4 -10.3,-3 -15.5,-4.6 v 0 c -54.3,-16.8 -111.1,-41.1 -169.7,-73.3 -3.9,-2.2 -7.9,-4.4 -11.9,-6.7 -2.9,-1.6 -5.7,-3.2 -8.6,-4.9 -44.3,-25.5 -87.6,-54.5 -129.7,-86.3 -3.4,-2.5 -6.8,-5.1 -10.1,-7.7 -41,-31.6 -80.8,-65.9 -119,-102.4 -2.9,-2.8 -5.9,-5.6 -8.8,-8.4 -36.2,-35.2 -71,-72.2 -104.2,-110.9 -2.6,-3 -5.1,-6.1 -7.7,-9.1 -32.2,-38.1 -62.8,-77.7 -91.4,-118.3 -2.3,-3.2 -4.6,-6.4 -6.8,-9.7 -28.5,-40.8 -55,-82.7 -79.3,-125.2 -2,-3.4 -3.9,-6.8 -5.8,-10.2 -24.7,-43.7 -47,-88 -66.8,-132.5 -1.6,-3.6 -3.2,-7.2 -4.8,-10.9 -20.4,-46.8 -38,-93.9 -52.4,-140.7 -1.2,-3.9 -2.3,-7.8 -3.5,-11.6 -15.2,-51.1 -26.6,-101.8 -33.8,-151.5 -0.6,-4.2 -1.2,-8.4 -1.7,-12.6 -4.9,-36.8 -7.4,-73.1 -7.4,-108.5 0,-20.6 0.8,-40.5 2.5,-59.7 0.4,-4.8 0.9,-9.6 1.4,-14.4 14.5,-131.9 68.7,-229.2 151,-287.2 v 0 c 14.4,-10.1 29.7,-19.1 45.8,-26.8 l 132.6,-77.5 29.2,42.2 c 1.6,0 3.1,0 4.6,0 107.7,0 232.8,36.6 366.1,113.6 404.9,233.7 733.2,751.5 733.2,1156.4 0,97.9 -19.2,180.2 -54,245.4 l 30,43.2 -152.7,86.8 c -2.8,1.6 -5.7,3.3 -8.6,4.9 h -0.1 c -52.1,28.5 -113.5,43.2 -181.8,43.2 z m 0,-11.8 c 66.2,0 125.5,-14 176.2,-41.7 l 0.6,-0.3 c 2.6,-1.5 5.2,-3 7.9,-4.6 l 141.5,-80.3 -22.6,-32.7 -4.1,-5.9 3.4,-6.3 c 34.8,-65.5 52.5,-146.2 52.5,-239.9 0,-400.5 -326.3,-914.7 -727.3,-1146.3 -126.9,-73.2 -251.4,-111.9 -360.2,-111.9 h -4.5 l -6.2,0.1 -3.5,-5.2 -23.1,-33.3 -123.2,72.1 -0.4,0.2 -0.4,0.2 c -15.5,7.4 -30.3,16.1 -44.1,25.8 l -0.6,0.4 c -81.5,57.7 -131.8,153.9 -145.5,278.5 -0.5,4.7 -1,9.3 -1.4,14.1 -1.6,18.8 -2.4,38.6 -2.4,58.7 0,34.4 2.4,70.4 7.2,107.1 0.5,4.1 1.1,8.2 1.7,12.3 7,48.4 18.3,98.8 33.5,149.9 1.1,3.8 2.3,7.6 3.4,11.4 14.2,45.8 31.7,92.8 52,139.6 1.6,3.6 3.1,7.1 4.7,10.7 19.6,44 41.9,88.3 66.3,131.5 1.9,3.4 3.8,6.7 5.8,10.1 24.1,42.2 50.6,84 78.7,124.4 2.2,3.2 4.5,6.4 6.8,9.6 28.5,40.4 59,80 90.8,117.5 2.5,3 5.1,6 7.6,9 33,38.5 67.8,75.5 103.5,110.1 l 8.7,8.4 c 38.1,36.4 77.8,70.6 118,101.6 3.4,2.5 6.7,5.1 10.1,7.6 42.1,31.9 85.3,60.6 128.4,85.5 2.9,1.6 5.7,3.3 8.6,4.9 4,2.3 7.9,4.5 11.8,6.6 56.3,30.9 112,55.1 165.8,71.9 v 0 l 1.7,0.5 c 5.1,1.6 10.2,3.1 15.3,4.5 54.7,15.7 107.6,23.6 157,23.6" style="fill:#ffe840;fill-opacity:1;fill-rule:nonzero;stroke:none" id="path166" transform="matrix(0.133333, 0, 0, -0.133333, 0, 5287.013184)"/>
  <path d="m 16214.5,34406.6 c 0,-405 -328.2,-922.7 -733.2,-1156.5 -404.9,-233.8 -733.1,-95.1 -733.1,309.8 0,405 328.2,922.8 733.1,1156.5 405,233.8 733.2,95.1 733.2,-309.8" style="fill:#ffd071;fill-opacity:1;fill-rule:nonzero;stroke:none" id="path168" transform="matrix(0.133333, 0, 0, -0.133333, 0, 5287.013184)"/>
  <path d="m 16214.5,34406.6 c 0,-405 -328.2,-922.7 -733.2,-1156.5 -404.9,-233.8 -733.1,-95.1 -733.1,309.8 0,405 328.2,922.8 733.1,1156.5 405,233.8 733.2,95.1 733.2,-309.8" style="fill:#ffe840;fill-opacity:1;fill-rule:nonzero;stroke:none" id="path170" transform="matrix(0.133333, 0, 0, -0.133333, 0, 5287.013184)"/>
  <path d="m 15500.1,34588.6 c -333.7,-192.7 -605.3,-621.1 -605.3,-954.8 0,-333.8 271.6,-448.6 605.3,-255.9 333.8,192.7 605.4,621.1 605.4,954.8 0,333.8 -271.6,448.6 -605.4,255.9 z m 0,-1245.9 c -171.1,-98.8 -331.9,-125.1 -452.9,-73.9 -121,51.1 -187.6,173.5 -187.6,344.6 0,171.1 66.6,370.5 187.6,561.3 121,190.8 281.8,350.3 452.9,449.1 171.2,98.8 332,125.1 453,73.9 121,-51.1 187.6,-173.5 187.6,-344.6 0,-171.1 -66.6,-370.4 -187.6,-561.3 -121,-190.8 -281.8,-350.3 -453,-449.1" style="fill:#ff9d4d;fill-opacity:1;fill-rule:nonzero;stroke:none" id="path172" transform="matrix(0.133333, 0, 0, -0.133333, 0, 5287.013184)"/>
  <path d="m 15589.8,34091.5 v -97.6 c -2,-1 -4.1,-2.1 -6.2,-3.3 l -53.6,-30.9 v 91.2 l 30.2,17.4 c 10.7,6.2 20.6,14 29.6,23.2" style="fill:#d1975d;fill-opacity:1;fill-rule:nonzero;stroke:none" id="path174" transform="matrix(0.133333, 0, 0, -0.133333, 0, 5287.013184)"/>
  <path d="m 15647.2,33917.7 c -3.9,-11.8 -9.2,-23.1 -15.9,-33.9 -6.7,-10.8 -14.6,-20.9 -23.8,-30.1 -5.7,-5.6 -11.5,-10.7 -17.7,-15.1 -3.9,-2.9 -7.9,-5.5 -12.1,-7.9 l -47.7,-27.6 -123.8,-71.5 v 156.5 l 51.1,29.5 126.3,73 c 2.1,1.2 4.2,2.3 6.2,3.3 7.7,3.7 14.8,5.9 21.4,6.4 8.4,0.6 15.6,-0.9 21.8,-4.6 6.1,-3.7 11,-9.4 14.6,-17.1 3.7,-7.7 5.5,-16.8 5.5,-27.4 0,-10.6 -2,-21.8 -5.9,-33.5 z m -241,211.5 159,91.8 c 8.9,5.2 17.1,8.3 24.6,9.6 8.1,1.3 15.4,0.3 21.8,-2.8 12.6,-6.2 18.9,-20.7 18.9,-43.6 0,-23.4 -6.9,-45.8 -20.5,-67.1 -6.2,-9.5 -12.9,-18 -20.2,-25.6 -9,-9.2 -18.9,-17 -29.6,-23.2 l -102.9,-59.4 -51.1,-29.5 z m 333.5,-52.2 c -19.8,14.5 -46.7,16.9 -80.8,7.3 27.9,28.4 49.1,59.4 63.6,93.2 14.6,33.8 21.8,65.2 21.8,94.2 0,18.4 -3.2,34.8 -9.6,49.3 -6.4,14.4 -15.5,25.3 -27.2,32.8 -11.7,7.5 -26,10.8 -42.7,10.1 -16.8,-0.7 -35.4,-7.1 -56.1,-19 l -18.9,-10.9 v 96.4 l -59.8,-34.5 v -96.4 l -72.7,-42 v 96.4 l -59.9,-34.6 v -96.4 l -106.8,-61.6 V 33567 l 106.8,61.7 v -100.1 l 59.9,34.5 v 100.1 l 72.7,42 v -100.1 l 59.8,34.6 v 100.3 c 21.8,13.4 42.4,28.6 62,45.6 23.2,20 43.5,41.6 61.1,64.6 17.6,22.9 31.4,46.8 41.5,71.6 10,24.7 15,49.7 15,74.8 0,39 -9.9,65.8 -29.7,80.4" style="fill:#ff9d4d;fill-opacity:1;fill-rule:nonzero;stroke:none" id="path176" transform="matrix(0.133333, 0, 0, -0.133333, 0, 5287.013184)"/>
  <path d="m 15554.4,34697.6 -5.9,-10.2 -207.2,119.7 c 4,2.3 8,4.5 11.9,6.7 l 201.2,-116.2" style="fill:#ffe840;fill-opacity:1;fill-rule:nonzero;stroke:none" id="path178" transform="matrix(0.133333, 0, 0, -0.133333, 0, 5287.013184)"/>
  <path d="m 15371.3,34618.8 -5.9,-10.2 -172.5,99.6 c 3.3,2.6 6.7,5.2 10.1,7.7 l 168.3,-97.1" style="fill:#ffe840;fill-opacity:1;fill-rule:nonzero;stroke:none" id="path180" transform="matrix(0.133333, 0, 0, -0.133333, 0, 5287.013184)"/>
  <path d="m 15243.8,34507.8 -5.9,-10.2 -172.8,99.8 c 2.9,2.8 5.9,5.6 8.8,8.4 l 169.9,-98" style="fill:#ffe840;fill-opacity:1;fill-rule:nonzero;stroke:none" id="path182" transform="matrix(0.133333, 0, 0, -0.133333, 0, 5287.013184)"/>
  <path d="m 15116.3,34396.8 -5.9,-10.2 -157.2,90.8 c 2.6,3 5.1,6.1 7.7,9.1 l 155.4,-89.7" style="fill:#ffe840;fill-opacity:1;fill-rule:nonzero;stroke:none" id="path184" transform="matrix(0.133333, 0, 0, -0.133333, 0, 5287.013184)"/>
  <path d="m 15044.2,34253.7 -5.8,-10.2 -183.4,105.9 c 2.2,3.3 4.5,6.5 6.8,9.7 l 182.4,-105.4" style="fill:#ffe840;fill-opacity:1;fill-rule:nonzero;stroke:none" id="path186" transform="matrix(0.133333, 0, 0, -0.133333, 0, 5287.013184)"/>
  <path d="m 14998,34094.9 -5.9,-10.2 -222.2,129.3 c 1.9,3.4 3.8,6.8 5.8,10.2 l 222.3,-129.3" style="fill:#ffe840;fill-opacity:1;fill-rule:nonzero;stroke:none" id="path188" transform="matrix(0.133333, 0, 0, -0.133333, 0, 5287.013184)"/>
  <path d="m 14907.5,33963.5 -5.9,-10.2 -203.3,117.3 c 1.6,3.7 3.2,7.3 4.8,10.9 l 204.4,-118" style="fill:#ffe840;fill-opacity:1;fill-rule:nonzero;stroke:none" id="path190" transform="matrix(0.133333, 0, 0, -0.133333, 0, 5287.013184)"/>
  <path d="m 14873.1,33798.7 -5.9,-10.2 -224.8,129.8 c 1.2,3.8 2.3,7.7 3.5,11.6 l 227.2,-131.2" style="fill:#ffe840;fill-opacity:1;fill-rule:nonzero;stroke:none" id="path192" transform="matrix(0.133333, 0, 0, -0.133333, 0, 5287.013184)"/>
  <path d="m 14815,33647.6 -5.9,-10.1 -202.2,116.7 c 0.5,4.2 1.1,8.4 1.7,12.6 l 206.4,-119.2" style="fill:#ffe840;fill-opacity:1;fill-rule:nonzero;stroke:none" id="path194" transform="matrix(0.133333, 0, 0, -0.133333, 0, 5287.013184)"/>
  <path d="m 14823.7,33458 -5.9,-10.1 -214.4,123.7 c -0.5,4.8 -1,9.6 -1.4,14.4 l 221.7,-128" style="fill:#ffe840;fill-opacity:1;fill-rule:nonzero;stroke:none" id="path196" transform="matrix(0.133333, 0, 0, -0.133333, 0, 5287.013184)"/>
  <path d="m 15730.5,34780.8 -5.9,-10.1 -201.7,116.4 c 5.2,1.6 10.4,3.2 15.5,4.6 l 192.1,-110.9" style="fill:#ffe840;fill-opacity:1;fill-rule:nonzero;stroke:none" id="path198" transform="matrix(0.133333, 0, 0, -0.133333, 0, 5287.013184)"/>
  <path d="m 13857.4,32210.7 c 677,-390.8 677,-1024.5 0,-1415.3 -676.9,-390.8 -1774.4,-390.8 -2451.3,0 -676.9,390.8 -676.9,1024.5 0,1415.3 676.9,390.8 1774.4,390.8 2451.3,0" style="fill:#e3dfea;fill-opacity:1;fill-rule:nonzero;stroke:none" id="path200" transform="matrix(0.133333, 0, 0, -0.133333, 0, 5287.013184)"/>
  <path d="m 11999.5,32204.3 -97.3,-166.6 -13.5,-182 169.7,-297 c 13.5,-20.5 11.7,-49.9 -3.9,-65.2 -111.5,-108.6 -210.1,-118.9 -340.2,-25.6 l -267.1,387.3 24.7,134.7 101.2,133.2 281.5,179.3 144.9,-98.1" style="fill:#1a142d;fill-opacity:1;fill-rule:nonzero;stroke:none" id="path202" transform="matrix(0.133333, 0, 0, -0.133333, 0, 5287.013184)"/>
  <path d="m 12786.4,32321.7 -35.6,-156.3 264.3,-250.3 c 24.5,-23.1 17.9,-63.6 -12.6,-77.9 -157.7,-73.5 -334.4,-27.1 -485.9,58.4 l -207.4,114 c -45.4,25.6 -61.1,83.4 -35,128.5 l 115.8,183.6 h 396.4" style="fill:#1a142d;fill-opacity:1;fill-rule:nonzero;stroke:none" id="path204" transform="matrix(0.133333, 0, 0, -0.133333, 0, 5287.013184)"/>
  <g id="g206" transform="matrix(0.133333, 0, 0, -0.133333, 0, 5287.013184)">
    <g id="g208" clip-path="url(#clipPath212)">
      <path d="m 12868.7,37063.5 314.4,-989.9 6.9,-21.7 c 11.6,-36.5 35.1,-66.1 64.8,-85.6 l 937.6,-618 c 54.4,-35.9 129.2,-25 167,28.1 36.3,50.8 27.2,119.5 -17.8,159.4 l -770.5,641.8 -221.9,1009 c -29.9,136 -166.4,226.1 -301.8,193.6 -131.3,-31.5 -213.7,-162.4 -184.6,-294.8 1.6,-7.3 3.7,-14.9 5.9,-21.9" style="fill:url(#linearGradient218);fill-opacity:1;fill-rule:nonzero;stroke:none" id="path220"/>
    </g>
  </g>
  <g id="g222" transform="matrix(0.133333, 0, 0, -0.133333, 0, 5287.013184)">
    <g id="g224" clip-path="url(#clipPath228)">
      <path d="m 12353.7,32317.2 135.7,2.4 347.6,6.1 278.8,1276.1 84.4,1549.4 -649.5,78 -137.5,16.4 139.3,-1587.9 c -58.6,-195.9 -104.4,-394.8 -136.9,-596.1 -32.8,-201 -52.2,-404.4 -58,-608.4 l -3.9,-136" style="fill:url(#linearGradient234);fill-opacity:1;fill-rule:nonzero;stroke:none" id="path236"/>
    </g>
  </g>
  <g id="g238" transform="matrix(0.133333, 0, 0, -0.133333, 0, 5287.013184)">
    <g id="g240" clip-path="url(#clipPath244)">
      <path d="m 12489.4,32319.6 347.6,6.1 278.8,1276.1 84.4,1549.4 -649.5,78 137.9,-1571.5 c -58.6,-195.9 -104.5,-394.8 -137,-596.1 -32.8,-201 -52.2,-404.4 -58,-608.4 l -4.2,-133.6" style="fill:url(#linearGradient250);fill-opacity:1;fill-rule:nonzero;stroke:none" id="path252"/>
    </g>
  </g>
  <g id="g254" transform="matrix(0.133333, 0, 0, -0.133333, 0, 5287.013184)">
    <g id="g256" clip-path="url(#clipPath260)">
      <path d="m 11501.4,32090.3 481.8,-40.9 4.9,14.8 402,1226.4 241.7,1533 -593.9,133.6 -179.5,40.4 -22.7,-1594.1 c -78.4,-188.8 -143.9,-381.9 -196.8,-578.7 -52.8,-196.7 -92.9,-397.1 -119.6,-599.6 l -17.9,-134.9" style="fill:url(#linearGradient266);fill-opacity:1;fill-rule:nonzero;stroke:none" id="path268"/>
    </g>
  </g>
  <g id="g270" transform="matrix(0.133333, 0, 0, -0.133333, 0, 5287.013184)">
    <g id="g272" clip-path="url(#clipPath276)">
      <path d="m 11681.4,32090.3 306.7,-26.1 402,1226.4 241.7,1533 -593.9,133.6 -22.2,-1553.7 c -78.3,-188.8 -144.2,-381.9 -197,-578.7 -52.9,-196.7 -92.6,-397.1 -119.4,-599.6 l -17.9,-134.9" style="fill:url(#linearGradient282);fill-opacity:1;fill-rule:nonzero;stroke:none" id="path284"/>
    </g>
  </g>
  <path d="m 13027.6,34329.4 128.3,25.8 92.8,174.4 -228.6,31.6 -75.5,-26.1 -106.4,-126.6 189.4,-79.1" style="fill:#ffd0a6;fill-opacity:1;fill-rule:nonzero;stroke:none" id="path286" transform="matrix(0.133333, 0, 0, -0.133333, 0, 5287.013184)"/>
  <g id="g288" transform="matrix(0.133333, 0, 0, -0.133333, 0, 5287.013184)">
    <g id="g290" clip-path="url(#clipPath294)">
      <path d="m 12916,37451.5 -40.2,-6.6 -236.5,91 -545.7,-461.6 c -27.6,-6.3 -384.7,-251.6 -492.6,-503.8 -17.2,-40.1 -21.6,-84.6 -14.3,-127.7 28.2,-167.6 115,-682.1 178.2,-1054.9 l -11.6,-680.1 c 22,-129.8 147.4,-215.2 276.2,-188.2 l 1037.7,218.1 c 113.2,23.8 191.6,127.4 183.6,242.9 l -64,922.2 c -10.4,149.6 3.9,235.7 25.6,329.4 37.5,161.4 135.3,243.5 123.8,408.8 l 9.6,77.8 c -5.2,73.5 35.3,212.1 36.7,285.9 0.7,36.3 -3,75.8 -9.4,116.3 -34.3,217.4 -239.9,366.1 -457.1,330.5" style="fill:url(#linearGradient300);fill-opacity:1;fill-rule:nonzero;stroke:none" id="path302"/>
    </g>
  </g>
  <path d="m 12948.1,37961.4 -10.2,-308.8 -70.6,-326.5 c -9.2,-42.3 -45.5,-73.3 -88.8,-75.7 l -114.3,-6.3 c 25.2,-52 3,-114.6 -49.4,-139.2 l -6.1,-2.8 c -27,-12.6 -58.1,-13 -85.5,-1.1 l -25.2,10.9 -248.5,107.4 9.3,118.2 -55.5,139.2 -112.8,458.7 c -11.8,47.8 -8,98 10.8,143.5 11.8,28.8 27.2,55.4 45.6,79.5 59.2,77.8 148.8,128.9 248.7,138.5 l 153.4,14.7 c 11.1,1 22.4,0 33,-3.1 l 145.6,-42.5 c 134.4,-39.3 225.1,-164.6 220.5,-304.6" style="fill:#ffd0a6;fill-opacity:1;fill-rule:nonzero;stroke:none" id="path304" transform="matrix(0.133333, 0, 0, -0.133333, 0, 5287.013184)"/>
  <path d="m 12945.8,37891.3 c 0,0 -17.3,65.8 -50.6,68.4 -33.3,2.5 -123,-41 -243.5,-23.1 -120.5,17.9 -161.7,-15.4 -187.2,-74.3 -25.5,-59 -57.3,-271.1 -121.4,-312.1 -64,-41 -146.1,-43.5 -178.1,0 -32,43.6 -179,383.8 -97,522.3 82.1,138.4 121.4,277.6 303.3,293 182,15.4 505.5,-89 553.7,-130.7 44.6,-38.6 91.1,-271.7 67.3,-320.4 -23.7,-48.7 -46.5,-23.1 -46.5,-23.1" style="fill:#89603e;fill-opacity:1;fill-rule:nonzero;stroke:none" id="path306" transform="matrix(0.133333, 0, 0, -0.133333, 0, 5287.013184)"/>
  <path d="m 12334.6,37183.7 c 26.3,-16.9 54.1,-31.1 82.9,-42.4 66.2,-25.9 127.6,-22.2 185.3,5.9 36.2,17.7 56.8,57 51.8,96.9 l 67.7,3.7 6.5,-30.1 c 13,-60.7 -7.1,-123.7 -52.9,-165.6 -27.1,-24.8 -63.6,-37.1 -100.2,-33.1 -60.6,6.7 -147.1,23.9 -200.7,35.1 -43.2,9.1 -83.9,28.6 -115.9,59.1 -16.7,16 -29.4,33.6 -27,49.2 l 12.6,116.4 89.9,-95.1" style="fill:#7b5baa;fill-opacity:1;fill-rule:nonzero;stroke:none" id="path308" transform="matrix(0.133333, 0, 0, -0.133333, 0, 5287.013184)"/>
  <g id="g310" transform="matrix(0.133333, 0, 0, -0.133333, 0, 5287.013184)">
    <g id="g312" clip-path="url(#clipPath316)">
      <path d="m 11605,36256.1 231.8,-1012.6 5.1,-22.1 c 8.5,-37.3 29.5,-68.7 57.5,-90.7 l 886.7,-695.7 c 52.1,-40.9 127.5,-31.8 168.4,20.3 37.3,47.5 33,114.4 -7.5,156.8 l -777.5,816 62.5,-112.8 -138.7,1029.4 c -18.3,135.9 -143.4,231.3 -279.3,212.9 -136,-18.3 -231.3,-143.4 -213,-279.3 1,-7.4 2.4,-15.1 4,-22.2" style="fill:url(#linearGradient322);fill-opacity:1;fill-rule:nonzero;stroke:none" id="path324"/>
    </g>
  </g>
  <g id="g326" transform="matrix(0.133333, 0, 0, -0.133333, 0, 5287.013184)">
    <g id="g328" clip-path="url(#clipPath332)">
      <path d="m 12949.1,34560.1 83,-60.7 v -51.7 c -7.9,-0.4 -15.9,2 -22.6,6.8 l -644.2,472.8 c -30.9,22.7 -43.9,57.9 -40.4,91.2 l 6.4,57.7 15.6,-4.6 c 9.6,11.9 22.2,21.9 37.7,28.7 l 655.4,286.5 -90.9,-826.7" style="fill:url(#linearGradient338);fill-opacity:1;fill-rule:nonzero;stroke:none" id="path340"/>
    </g>
  </g>
  <g id="g342" transform="matrix(0.133333, 0, 0, -0.133333, 0, 5287.013184)">
    <g id="g344" clip-path="url(#clipPath348)">
      <path d="m 14633.5,35199.3 -2.4,-23.4 c -2.4,-20.6 -15.6,-38.5 -34.6,-46.8 l -1552.1,-678.4 c -3.9,-1.7 -8.2,-2.7 -12.3,-3 v 51.7 l 1601.4,699.9" style="fill:url(#linearGradient354);fill-opacity:1;fill-rule:nonzero;stroke:none" id="path356"/>
    </g>
  </g>
  <path d="m 14633.5,35199.3 -1601.4,-699.9 -83,60.7 90.9,826.7 94.2,41.2 498,217.7 c 120.1,52.4 259.1,37 364.8,-40.6 l 563.6,-413.6 72.9,7.8" style="fill:#7b5baa;fill-opacity:1;fill-rule:nonzero;stroke:none" id="path358" transform="matrix(0.133333, 0, 0, -0.133333, 0, 5287.013184)"/>
  <path d="m 13032.2,34499.5 1601.4,700 -630.4,462.7 c -105.7,77.5 -244.7,93 -364.8,40.5 l -1247.6,-545.3 c -70.9,-31 -81.6,-127.3 -19.2,-173.1 l 660.6,-484.8" style="fill:#ffffff;fill-opacity:1;fill-rule:nonzero;stroke:none" id="path360" transform="matrix(0.133333, 0, 0, -0.133333, 0, 5287.013184)"/>
  <g id="g362" transform="matrix(0.133333, 0, 0, -0.133333, 0, 5287.013184)">
    <g id="g364" clip-path="url(#clipPath368)">
      <path d="m 12944.6,34784.9 1243.1,546.3 -395.7,290.5 -1243.2,-546.3 395.8,-290.5" style="fill:url(#linearGradient374);fill-opacity:1;fill-rule:nonzero;stroke:none" id="path376"/>
    </g>
  </g>
  <g id="g378" transform="matrix(0.133333, 0, 0, -0.133333, 0, 5287.013184)">
    <g id="g380" clip-path="url(#clipPath384)">
      <path d="m 13200.5,35826.7 c -17.9,-30.2 -29.5,-64.3 -33.5,-100.5 l -32.8,-298.2 -102.1,-928.6 -83,60.7 90.9,826.7 44,400.1 c 4.1,36.3 15.6,70.5 33.7,100.8 l 82.8,-61" style="fill:url(#linearGradient390);fill-opacity:1;fill-rule:nonzero;stroke:none" id="path392"/>
    </g>
  </g>
  <g id="g394" transform="matrix(0.133333, 0, 0, -0.133333, 0, 5287.013184)">
    <g id="g396" clip-path="url(#clipPath400)">
      <path d="m 13117.7,35887.8 82.7,-61.1 c 26.5,44.9 66.8,81.4 116.2,103 l 1332.8,582.4 c 30.2,13.1 61.8,7.4 84.9,-9.7 l -83,60.7 c -23.2,17.1 -54.8,22.7 -84.9,9.6 l -1332.7,-582.4 c -49.3,-21.5 -89.5,-57.7 -116,-102.5" style="fill:url(#linearGradient406);fill-opacity:1;fill-rule:nonzero;stroke:none" id="path408"/>
    </g>
  </g>
  <path d="m 13167.1,35726.3 -123.8,-1125 1507.3,658.6 133.2,1210.7 0.4,-1.4 50.3,33.1 -0.2,0.1 c -23.1,17.1 -54.7,22.8 -84.9,9.7 l -1332.8,-582.4 c -49.4,-21.6 -89.7,-58.1 -116.2,-103 -17.8,-30.2 -29.4,-64.3 -33.3,-100.4" style="fill:#00cbfc;fill-opacity:1;fill-rule:nonzero;stroke:none" id="path410" transform="matrix(0.133333, 0, 0, -0.133333, 0, 5287.013184)"/>
  <g id="g412" transform="matrix(0.133333, 0, 0, -0.133333, 0, 5287.013184)">
    <g id="g414" clip-path="url(#clipPath418)">
      <path d="m 14768.3,36424.5 -134.8,-1225.2 -1601.4,-699.9 102.1,928.6 32.8,298.2 c 4,36.2 15.6,70.3 33.5,100.5 26.3,44.9 66.6,81.4 116.1,102.9 l 1332.9,582.4 c 30.1,13.2 61.6,7.5 84.9,-9.6 l 0.1,-0.1 c 22.9,-17 37.4,-45.4 33.8,-77.8" style="fill:url(#linearGradient424);fill-opacity:1;fill-rule:nonzero;stroke:none" id="path426"/>
    </g>
  </g>
</svg>