<?xml version="1.0" encoding="UTF-8" standalone="no" ?>
<!DOCTYPE svg PUBLIC "-//W3C//DTD SVG 1.1//EN" "http://www.w3.org/Graphics/SVG/1.1/DTD/svg11.dtd">
<svg xmlns="http://www.w3.org/2000/svg" xmlns:xlink="http://www.w3.org/1999/xlink" version="1.1" width="256" height="256" viewBox="253.54 253.54 256 256" xml:space="preserve">
<desc>Created with Fabric.js 5.2.4</desc>
<defs>
</defs>
<g transform="matrix(1 0 0 1 128 128)" id="db215b27-08bc-4618-996a-d7ba0df93437"  >
<rect style="stroke: none; stroke-width: 1; stroke-dasharray: none; stroke-linecap: butt; stroke-dashoffset: 0; stroke-linejoin: miter; stroke-miterlimit: 4; fill: rgb(255,255,255); fill-rule: nonzero; opacity: 1; visibility: hidden;" vector-effect="non-scaling-stroke"  x="-128" y="-128" rx="0" ry="0" width="256" height="256" />
</g>
<g transform="matrix(0 0 0 0 0 0)" id="2e72d3e1-30a0-4dbd-9cde-d1cdd58d16e2"  >
</g>
<g transform="matrix(0.24 0 0 0.24 417.69 362.97)"  >
<path style="stroke: none; stroke-width: 1; stroke-dasharray: none; stroke-linecap: butt; stroke-dashoffset: 0; stroke-linejoin: miter; stroke-miterlimit: 4; fill: rgb(49,187,234); fill-rule: nonzero; opacity: 1;" vector-effect="non-scaling-stroke"  transform=" translate(-352.8, -128.55)" d="M 333.8 115.1 C 342.2 126.89999999999999 349 139.7 354 153.3 L 371.8 147.4 C 366.1 131.9 358.40000000000003 117.2 348.7 103.80000000000001 L 333.8 115.1 z" stroke-linecap="round" />
</g>
<g transform="matrix(0.24 0 0 0.24 386.55 342.31)"  >
<path style="stroke: none; stroke-width: 1; stroke-dasharray: none; stroke-linecap: butt; stroke-dashoffset: 0; stroke-linejoin: miter; stroke-miterlimit: 4; fill: rgb(49,187,234); fill-rule: nonzero; opacity: 1;" vector-effect="non-scaling-stroke"  transform=" translate(-221.4, -41.58)" d="M 211.2 30.3 C 206.39999999999998 30.1 201.6 30.1 196.79999999999998 30.3 L 198.2 49 C 205.39999999999998 48.7 212.6 48.9 219.79999999999998 49.6 C 226.99999999999997 50.300000000000004 234.2 51.4 241.2 53 L 246 34.9 C 238 33.1 229.8 31.7 221.6 30.9 C 218.1 30.6 214.6 30.4 211.2 30.3 z" stroke-linecap="round" />
</g>
<g transform="matrix(0.24 0 0 0.24 338.28 396.72)"  >
<path style="stroke: none; stroke-width: 1; stroke-dasharray: none; stroke-linecap: butt; stroke-dashoffset: 0; stroke-linejoin: miter; stroke-miterlimit: 4; fill: rgb(49,187,234); fill-rule: nonzero; opacity: 1;" vector-effect="non-scaling-stroke"  transform=" translate(-17.85, -270.9)" d="M 35.7 290.4 C 28.200000000000003 275 22.800000000000004 258.9 19.700000000000003 242.09999999999997 L 0 245.2 C 3.5 264.09999999999997 9.5 282.4 18.1 299.7 L 35.7 290.4 z" stroke-linecap="round" />
</g>
<g transform="matrix(0.24 0 0 0.24 345.94 352.36)"  >
<path style="stroke: none; stroke-width: 1; stroke-dasharray: none; stroke-linecap: butt; stroke-dashoffset: 0; stroke-linejoin: miter; stroke-miterlimit: 4; fill: rgb(49,187,234); fill-rule: nonzero; opacity: 1;" vector-effect="non-scaling-stroke"  transform=" translate(-50.05, -83.75)" d="M 25.5 101.4 L 42.9 111 C 51.599999999999994 96.4 62.2 83 74.6 71.2 L 61.2 56.5 C 47.3 69.8 35.3 84.8 25.5 101.4 z" stroke-linecap="round" />
</g>
<g transform="matrix(0.24 0 0 0.24 338.61 365.72)"  >
<path style="stroke: none; stroke-width: 1; stroke-dasharray: none; stroke-linecap: butt; stroke-dashoffset: 0; stroke-linejoin: miter; stroke-miterlimit: 4; fill: rgb(49,187,234); fill-rule: nonzero; opacity: 1;" vector-effect="non-scaling-stroke"  transform=" translate(-19.2, -140.1)" d="M 0.9 165.4 L 20.5 168.9 C 24 152.20000000000002 29.6 136.10000000000002 37.5 120.9 L 20 111.3 C 11.1 128.4 4.7 146.5 0.9 165.4 z" stroke-linecap="round" />
</g>
<g transform="matrix(0.24 0 0 0.24 371.3 336.23)"  >
<path style="stroke: none; stroke-width: 1; stroke-dasharray: none; stroke-linecap: butt; stroke-dashoffset: 0; stroke-linejoin: miter; stroke-miterlimit: 4; fill: rgb(49,187,234); fill-rule: nonzero; opacity: 1;" vector-effect="non-scaling-stroke"  transform=" translate(-157, -15.9)" d="M 128.4 13.5 L 136.20000000000002 31.8 C 152.10000000000002 25.6 168.60000000000002 21.6 185.60000000000002 19.8 L 184.2 0 C 165.1 1.9 146.3 6.4 128.4 13.5 z" stroke-linecap="round" />
</g>
<g transform="matrix(0.24 0 0 0.24 357.25 342.15)"  >
<path style="stroke: none; stroke-width: 1; stroke-dasharray: none; stroke-linecap: butt; stroke-dashoffset: 0; stroke-linejoin: miter; stroke-miterlimit: 4; fill: rgb(49,187,234); fill-rule: nonzero; opacity: 1;" vector-effect="non-scaling-stroke"  transform=" translate(-97.75, -40.75)" d="M 69.7 48.9 L 83 63.6 C 96 52.5 110.3 43.400000000000006 125.8 36.2 L 118 17.9 C 100.5 26 84.3 36.4 69.7 48.9 z" stroke-linecap="round" />
</g>
<g transform="matrix(0.24 0 0 0.24 414.17 416.53)"  >
<path style="stroke: none; stroke-width: 1; stroke-dasharray: none; stroke-linecap: butt; stroke-dashoffset: 0; stroke-linejoin: miter; stroke-miterlimit: 4; fill: rgb(49,187,234); fill-rule: nonzero; opacity: 1;" vector-effect="non-scaling-stroke"  transform=" translate(-337.85, -354.55)" d="M 364.5 341.4 L 349 329.1 C 338 342.1 325.3 353.5 311.2 363.20000000000005 L 321.9 380.00000000000006 C 337.8 369.1 352.1 356.2 364.5 341.4 z" stroke-linecap="round" />
</g>
<g transform="matrix(0.24 0 0 0.24 356.45 420.62)"  >
<path style="stroke: none; stroke-width: 1; stroke-dasharray: none; stroke-linecap: butt; stroke-dashoffset: 0; stroke-linejoin: miter; stroke-miterlimit: 4; fill: rgb(49,187,234); fill-rule: nonzero; opacity: 1;" vector-effect="non-scaling-stroke"  transform=" translate(-94.35, -371.8)" d="M 122.3 376.9 C 107 369.5 92.8 360 80 348.59999999999997 L 66.4 363.09999999999997 C 80.80000000000001 375.9 96.80000000000001 386.59999999999997 114.10000000000001 394.99999999999994 L 122.3 376.9 z" stroke-linecap="round" />
</g>
<g transform="matrix(0.24 0 0 0.24 428.63 382.25)"  >
<path style="stroke: none; stroke-width: 1; stroke-dasharray: none; stroke-linecap: butt; stroke-dashoffset: 0; stroke-linejoin: miter; stroke-miterlimit: 4; fill: rgb(49,187,234); fill-rule: nonzero; opacity: 1;" vector-effect="non-scaling-stroke"  transform=" translate(-399.01, -209.45)" d="M 412.5 226.7 C 415 199.6 412.4 172.79999999999998 404.6 147.1 L 385.70000000000005 153.4 C 392.6 176.5 395.00000000000006 200.5 392.80000000000007 224.9 C 391.50000000000006 238.70000000000002 388.80000000000007 252.1 384.6000000000001 265.1 L 403.4000000000001 271.8 C 407.9 257.2 411 242.1 412.5 226.7 z" stroke-linecap="round" />
</g>
<g transform="matrix(0.24 0 0 0.24 398.44 418.03)"  >
<path style="stroke: none; stroke-width: 1; stroke-dasharray: none; stroke-linecap: butt; stroke-dashoffset: 0; stroke-linejoin: miter; stroke-miterlimit: 4; fill: rgb(49,187,234); fill-rule: nonzero; opacity: 1;" vector-effect="non-scaling-stroke"  transform=" translate(-271.5, -360.95)" d="M 296.4 359.2 L 286.29999999999995 343.4 C 273.79999999999995 350.79999999999995 260.49999999999994 356.5 246.59999999999997 360.29999999999995 L 250.99999999999997 378.49999999999994 C 266.9 374.2 282.2 367.7 296.4 359.2 z" stroke-linecap="round" />
</g>
<g transform="matrix(0.24 0 0 0.24 343.56 381.2)"  >
<path style="stroke: none; stroke-width: 1; stroke-dasharray: none; stroke-linecap: butt; stroke-dashoffset: 0; stroke-linejoin: miter; stroke-miterlimit: 4; fill: rgb(49,187,234); fill-rule: nonzero; opacity: 1;" vector-effect="non-scaling-stroke"  transform=" translate(-40.2, -205.5)" d="M 49.9 227.3 C 48.5 215.60000000000002 48.3 203.8 49.4 192 C 49.699999999999996 189.3 50 186.7 50.4 184.1 L 32 180.8 C 31.5 183.9 31.1 187.10000000000002 30.8 190.3 C 29.6 203.70000000000002 29.7 217.10000000000002 31.400000000000002 230.20000000000002 L 49.9 227.3 z" stroke-linecap="round" />
</g>
<g transform="matrix(0.24 0 0 0.24 402.19 338.99)"  >
<path style="stroke: none; stroke-width: 1; stroke-dasharray: none; stroke-linecap: butt; stroke-dashoffset: 0; stroke-linejoin: miter; stroke-miterlimit: 4; fill: rgb(49,187,234); fill-rule: nonzero; opacity: 1;" vector-effect="non-scaling-stroke"  transform=" translate(-287.3, -27.45)" d="M 258.6 26.6 C 275 31.400000000000002 290.5 38.400000000000006 305 47.5 L 316 31 C 299.7 20.7 282.1 12.8 263.6 7.399999999999999 L 258.6 26.6 z" stroke-linecap="round" />
</g>
<g transform="matrix(0.24 0 0 0.24 370.09 426.73)"  >
<path style="stroke: none; stroke-width: 1; stroke-dasharray: none; stroke-linecap: butt; stroke-dashoffset: 0; stroke-linejoin: miter; stroke-miterlimit: 4; fill: rgb(49,187,234); fill-rule: nonzero; opacity: 1;" vector-effect="non-scaling-stroke"  transform=" translate(-151.9, -397.7)" d="M 177.6 413.9 L 179.4 394.09999999999997 C 163.20000000000002 391.9 147.5 387.7 132.60000000000002 381.49999999999994 L 124.40000000000002 399.59999999999997 C 141.4 406.7 159.2 411.5 177.6 413.9 z" stroke-linecap="round" />
</g>
<g transform="matrix(0.24 0 0 0.24 351.05 405.8)"  >
<path style="stroke: none; stroke-width: 1; stroke-dasharray: none; stroke-linecap: butt; stroke-dashoffset: 0; stroke-linejoin: miter; stroke-miterlimit: 4; fill: rgb(49,187,234); fill-rule: nonzero; opacity: 1;" vector-effect="non-scaling-stroke"  transform=" translate(-71.65, -309.25)" d="M 80.2 333.3 L 93 319.6 C 82.8 309.3 74 297.8 66.8 285.20000000000005 L 50.3 294 C 58.4 308.4 68.5 321.6 80.2 333.3 z" stroke-linecap="round" />
</g>
<g transform="matrix(0.24 0 0 0.24 414.85 347.43)"  >
<path style="stroke: none; stroke-width: 1; stroke-dasharray: none; stroke-linecap: butt; stroke-dashoffset: 0; stroke-linejoin: miter; stroke-miterlimit: 4; fill: rgb(49,187,234); fill-rule: nonzero; opacity: 1;" vector-effect="non-scaling-stroke"  transform=" translate(-340.75, -63)" d="M 325.4 37.3 L 314.29999999999995 53.9 C 328.19999999999993 63.8 340.59999999999997 75.5 351.4 88.69999999999999 L 367.2 76.6 C 355.1 61.6 341.1 48.4 325.4 37.3 z" stroke-linecap="round" />
</g>
<g transform="matrix(0.24 0 0 0.24 416.79 400.87)"  >
<path style="stroke: none; stroke-width: 1; stroke-dasharray: none; stroke-linecap: butt; stroke-dashoffset: 0; stroke-linejoin: miter; stroke-miterlimit: 4; fill: rgb(49,187,234); fill-rule: nonzero; opacity: 1;" vector-effect="non-scaling-stroke"  transform=" translate(-349.05, -288.45)" d="M 344.5 313.2 C 354.4 299.9 362.5 285.4 368.4 270 L 350.7 263.7 C 345.4 277.2 338.4 289.8 329.7 301.5 L 344.5 313.2 z" stroke-linecap="round" />
</g>
<g transform="matrix(0.24 0 0 0.24 417.73 382.1)"  >
<path style="stroke: none; stroke-width: 1; stroke-dasharray: none; stroke-linecap: butt; stroke-dashoffset: 0; stroke-linejoin: miter; stroke-miterlimit: 4; fill: rgb(128,204,235); fill-rule: nonzero; opacity: 1;" vector-effect="non-scaling-stroke"  transform=" translate(-353.08, -209)" d="M 359.2 162.2 L 341.4 168.1 C 346.29999999999995 185.1 348 202.7 346.29999999999995 220.6 C 345.4 230.4 343.4 240.2 340.49999999999994 249.5 L 358.19999999999993 255.8 C 361.5999999999999 244.9 363.8999999999999 233.70000000000002 364.8999999999999 222.3 C 366.9 201.8 364.9 181.6 359.2 162.2 z" stroke-linecap="round" />
</g>
<g transform="matrix(0.24 0 0 0.24 372.92 416.06)"  >
<path style="stroke: none; stroke-width: 1; stroke-dasharray: none; stroke-linecap: butt; stroke-dashoffset: 0; stroke-linejoin: miter; stroke-miterlimit: 4; fill: rgb(128,204,235); fill-rule: nonzero; opacity: 1;" vector-effect="non-scaling-stroke"  transform=" translate(-163.95, -352.7)" d="M 182.1 366.4 L 183.79999999999998 347.7 C 172.79999999999998 346.09999999999997 161.99999999999997 343.09999999999997 151.79999999999998 339 L 144.1 356.1 C 156.2 361.1 169 364.5 182.1 366.4 z" stroke-linecap="round" />
</g>
<g transform="matrix(0.24 0 0 0.24 408.16 367.97)"  >
<path style="stroke: none; stroke-width: 1; stroke-dasharray: none; stroke-linecap: butt; stroke-dashoffset: 0; stroke-linejoin: miter; stroke-miterlimit: 4; fill: rgb(128,204,235); fill-rule: nonzero; opacity: 1;" vector-effect="non-scaling-stroke"  transform=" translate(-312.65, -149.75)" d="M 310.8 167.6 L 327.6 162 C 323.6 151.3 318.20000000000005 141.3 311.70000000000005 131.9 L 297.70000000000005 142.6 C 303 150.4 307.5 158.8 310.8 167.6 z" stroke-linecap="round" />
</g>
<g transform="matrix(0.24 0 0 0.24 385.53 353.04)"  >
<path style="stroke: none; stroke-width: 1; stroke-dasharray: none; stroke-linecap: butt; stroke-dashoffset: 0; stroke-linejoin: miter; stroke-miterlimit: 4; fill: rgb(128,204,235); fill-rule: nonzero; opacity: 1;" vector-effect="non-scaling-stroke"  transform=" translate(-217.15, -86.86)" d="M 209.4 76.8 C 206.3 76.7 203.20000000000002 76.7 200.20000000000002 76.8 L 201.50000000000003 94.4 C 206.20000000000002 94.30000000000001 211.00000000000003 94.4 215.60000000000002 94.9 C 220.3 95.30000000000001 224.90000000000003 96.10000000000001 229.60000000000002 97 L 234.10000000000002 79.9 C 228.60000000000002 78.7 223.00000000000003 77.80000000000001 217.3 77.30000000000001 C 214.6 77.1 212 76.9 209.4 76.8 z" stroke-linecap="round" />
</g>
<g transform="matrix(0.24 0 0 0.24 354.55 359.21)"  >
<path style="stroke: none; stroke-width: 1; stroke-dasharray: none; stroke-linecap: butt; stroke-dashoffset: 0; stroke-linejoin: miter; stroke-miterlimit: 4; fill: rgb(128,204,235); fill-rule: nonzero; opacity: 1;" vector-effect="non-scaling-stroke"  transform=" translate(-86.45, -112.75)" d="M 67.2 124.5 L 83.6 133.6 C 89.8 123.39999999999999 97.19999999999999 114.1 105.69999999999999 105.8 L 93.2 91.9 C 83.1 101.6 74.4 112.5 67.2 124.5 z" stroke-linecap="round" />
</g>
<g transform="matrix(0.24 0 0 0.24 397.62 349.03)"  >
<path style="stroke: none; stroke-width: 1; stroke-dasharray: none; stroke-linecap: butt; stroke-dashoffset: 0; stroke-linejoin: miter; stroke-miterlimit: 4; fill: rgb(128,204,235); fill-rule: nonzero; opacity: 1;" vector-effect="non-scaling-stroke"  transform=" translate(-268.1, -69.85)" d="M 246.7 71.6 C 258.09999999999997 75.1 268.9 80 279.09999999999997 86.19999999999999 L 289.49999999999994 70.6 C 277.59999999999997 63.3 264.8999999999999 57.49999999999999 251.49999999999994 53.49999999999999 L 246.7 71.6 z" stroke-linecap="round" />
</g>
<g transform="matrix(0.24 0 0 0.24 407.29 355.45)"  >
<path style="stroke: none; stroke-width: 1; stroke-dasharray: none; stroke-linecap: butt; stroke-dashoffset: 0; stroke-linejoin: miter; stroke-miterlimit: 4; fill: rgb(128,204,235); fill-rule: nonzero; opacity: 1;" vector-effect="non-scaling-stroke"  transform=" translate(-308.9, -96.9)" d="M 314.4 116.9 L 329.29999999999995 105.5 C 320.49999999999994 94.7 310.29999999999995 85.1 298.9 76.9 L 288.5 92.5 C 298.1 99.6 306.8 107.7 314.4 116.9 z" stroke-linecap="round" />
</g>
<g transform="matrix(0.24 0 0 0.24 407.38 395.61)"  >
<path style="stroke: none; stroke-width: 1; stroke-dasharray: none; stroke-linecap: butt; stroke-dashoffset: 0; stroke-linejoin: miter; stroke-miterlimit: 4; fill: rgb(128,204,235); fill-rule: nonzero; opacity: 1;" vector-effect="non-scaling-stroke"  transform=" translate(-309.35, -266.35)" d="M 294.2 273.2 L 308 284.2 C 314.7 275 320.3 265 324.5 254.39999999999998 L 307.9 248.49999999999997 C 304.3 257.3 299.7 265.5 294.2 273.2 z" stroke-linecap="round" />
</g>
<g transform="matrix(0.24 0 0 0.24 362.58 411.44)"  >
<path style="stroke: none; stroke-width: 1; stroke-dasharray: none; stroke-linecap: butt; stroke-dashoffset: 0; stroke-linejoin: miter; stroke-miterlimit: 4; fill: rgb(128,204,235); fill-rule: nonzero; opacity: 1;" vector-effect="non-scaling-stroke"  transform=" translate(-120.3, -333.15)" d="M 111.9 314.7 L 99.10000000000001 328.4 C 109.60000000000001 337.7 121.30000000000001 345.4 133.8 351.59999999999997 L 141.5 334.49999999999994 C 130.8 329.1 120.9 322.5 111.9 314.7 z" stroke-linecap="round" />
</g>
<g transform="matrix(0.24 0 0 0.24 354.39 381.29)"  >
<path style="stroke: none; stroke-width: 1; stroke-dasharray: none; stroke-linecap: butt; stroke-dashoffset: 0; stroke-linejoin: miter; stroke-miterlimit: 4; fill: rgb(128,204,235); fill-rule: nonzero; opacity: 1;" vector-effect="non-scaling-stroke"  transform=" translate(-85.9, -205.95)" d="M 94.9 220.2 C 94 212.29999999999998 94 204.2 94.7 196.2 C 94.8 194.79999999999998 95 193.39999999999998 95.2 192 L 77.80000000000001 188.9 C 77.50000000000001 190.8 77.30000000000001 192.70000000000002 77.20000000000002 194.6 C 76.30000000000001 204.1 76.40000000000002 213.6 77.50000000000001 223 L 94.9 220.2 z" stroke-linecap="round" />
</g>
<g transform="matrix(0.24 0 0 0.24 348.75 393.2)"  >
<path style="stroke: none; stroke-width: 1; stroke-dasharray: none; stroke-linecap: butt; stroke-dashoffset: 0; stroke-linejoin: miter; stroke-miterlimit: 4; fill: rgb(128,204,235); fill-rule: nonzero; opacity: 1;" vector-effect="non-scaling-stroke"  transform=" translate(-62.05, -256.15)" d="M 65.7 234.9 L 47.2 237.8 C 49.800000000000004 251.5 54.2 264.8 60.300000000000004 277.40000000000003 L 76.9 268.6 C 71.7 257.9 68 246.6 65.7 234.9 z" stroke-linecap="round" />
</g>
<g transform="matrix(0.24 0 0 0.24 406.75 408.3)"  >
<path style="stroke: none; stroke-width: 1; stroke-dasharray: none; stroke-linecap: butt; stroke-dashoffset: 0; stroke-linejoin: miter; stroke-miterlimit: 4; fill: rgb(128,204,235); fill-rule: nonzero; opacity: 1;" vector-effect="non-scaling-stroke"  transform=" translate(-306.65, -319.85)" d="M 286.1 323.9 L 296.20000000000005 339.7 C 307.70000000000005 331.7 318.1 322.4 327.20000000000005 311.7 L 312.50000000000006 300 C 304.8 309.1 295.9 317.1 286.1 323.9 z" stroke-linecap="round" />
</g>
<g transform="matrix(0.24 0 0 0.24 348.97 369.39)"  >
<path style="stroke: none; stroke-width: 1; stroke-dasharray: none; stroke-linecap: butt; stroke-dashoffset: 0; stroke-linejoin: miter; stroke-miterlimit: 4; fill: rgb(128,204,235); fill-rule: nonzero; opacity: 1;" vector-effect="non-scaling-stroke"  transform=" translate(-62.95, -155.7)" d="M 78.1 143.5 L 61.699999999999996 134.4 C 55.3 146.9 50.699999999999996 160 47.8 173.7 L 66.3 177 C 68.8 165.4 72.8 154.1 78.1 143.5 z" stroke-linecap="round" />
</g>
<g transform="matrix(0.24 0 0 0.24 394.18 408.13)"  >
<path style="stroke: none; stroke-width: 1; stroke-dasharray: none; stroke-linecap: butt; stroke-dashoffset: 0; stroke-linejoin: miter; stroke-miterlimit: 4; fill: rgb(128,204,235); fill-rule: nonzero; opacity: 1;" vector-effect="non-scaling-stroke"  transform=" translate(-253.65, -319.25)" d="M 235.9 316.2 L 240.1 333.4 C 251.1 330.29999999999995 261.5 325.79999999999995 271.4 320 L 261.9 305.1 C 253.6 309.8 244.9 313.5 235.9 316.2 z" stroke-linecap="round" />
</g>
<g transform="matrix(0.24 0 0 0.24 359.61 399.23)"  >
<path style="stroke: none; stroke-width: 1; stroke-dasharray: none; stroke-linecap: butt; stroke-dashoffset: 0; stroke-linejoin: miter; stroke-miterlimit: 4; fill: rgb(128,204,235); fill-rule: nonzero; opacity: 1;" vector-effect="non-scaling-stroke"  transform=" translate(-107.85, -281.65)" d="M 107.1 264 L 91.5 272.2 C 97.2 282.09999999999997 104.1 291.09999999999997 112.1 299.3 L 124.19999999999999 286.40000000000003 C 117.6 279.7 111.9 272.2 107.1 264 z" stroke-linecap="round" />
</g>
<g transform="matrix(0.24 0 0 0.24 385.13 417.15)"  >
<path style="stroke: none; stroke-width: 1; stroke-dasharray: none; stroke-linecap: butt; stroke-dashoffset: 0; stroke-linejoin: miter; stroke-miterlimit: 4; fill: rgb(128,204,235); fill-rule: nonzero; opacity: 1;" vector-effect="non-scaling-stroke"  transform=" translate(-215.4, -357.32)" d="M 199.8 349.2 C 198.20000000000002 349.09999999999997 196.70000000000002 349 195.10000000000002 348.9 L 193.40000000000003 367.59999999999997 C 208.20000000000005 368.7 223.00000000000003 367.7 237.40000000000003 364.79999999999995 L 233.00000000000003 346.59999999999997 C 222 348.8 210.9 349.7 199.8 349.2 z" stroke-linecap="round" />
</g>
<g transform="matrix(0.24 0 0 0.24 363.19 351.43)"  >
<path style="stroke: none; stroke-width: 1; stroke-dasharray: none; stroke-linecap: butt; stroke-dashoffset: 0; stroke-linejoin: miter; stroke-miterlimit: 4; fill: rgb(128,204,235); fill-rule: nonzero; opacity: 1;" vector-effect="non-scaling-stroke"  transform=" translate(-122.85, -80)" d="M 101.6 84.3 L 114.19999999999999 98.2 C 123.29999999999998 90.60000000000001 133.39999999999998 84.2 144.1 79 L 136.7 61.8 C 124 67.8 112.3 75.3 101.6 84.3 z" stroke-linecap="round" />
</g>
<g transform="matrix(0.24 0 0 0.24 373.9 346.95)"  >
<path style="stroke: none; stroke-width: 1; stroke-dasharray: none; stroke-linecap: butt; stroke-dashoffset: 0; stroke-linejoin: miter; stroke-miterlimit: 4; fill: rgb(128,204,235); fill-rule: nonzero; opacity: 1;" vector-effect="non-scaling-stroke"  transform=" translate(-168.05, -61.1)" d="M 147.1 57.4 L 154.5 74.6 C 165.6 70.39999999999999 177.2 67.6 189 66.3 L 187.6 47.599999999999994 C 173.8 49.1 160.2 52.3 147.1 57.4 z" stroke-linecap="round" />
</g>
<g transform="matrix(0.24 0 0 0.24 385.8 428.15)"  >
<path style="stroke: none; stroke-width: 1; stroke-dasharray: none; stroke-linecap: butt; stroke-dashoffset: 0; stroke-linejoin: miter; stroke-miterlimit: 4; fill: rgb(0,186,255); fill-rule: nonzero; opacity: 1;" vector-effect="non-scaling-stroke"  transform=" translate(-218.15, -403.7)" d="M 194.5 415.4 C 209.8 415.9 230.4 414.7 247.3 411.09999999999997 L 243.20000000000002 391.9 C 228.10000000000002 395.09999999999997 212.9 396.29999999999995 197.40000000000003 395.7 C 194.90000000000003 395.59999999999997 193.20000000000005 395.4 190.70000000000005 395.2 L 189.00000000000006 415.2 C 191.7 415.5 189.9 415.3 194.5 415.4 L 194.5 415.4 z" stroke-linecap="round" />
</g>
</svg>