<svg fill="none" height="96" viewBox="0 0 96 96" width="96" xmlns="http://www.w3.org/2000/svg"><path d="m8.21411 34.8878-4.37997 4.38c-1.2123 1.1646-2.1768 2.5621-2.835666 4.1087-.658863 1.5466-.998474 3.2103-.998474 4.8913 0 1.6811.339611 3.3448.998474 4.8914.658866 1.5465 1.623366 2.944 2.835666 4.1086l35.28586 35.6342c.8364.8555 1.8097 1.5653 2.88 2.1v-43.1941z" fill="#3d89f5"/><path d="m87.7859 34.8878 4.38 4.38c1.2123 1.1646 2.1768 2.5621 2.8356 4.1087.6589 1.5466.9985 3.2103.9985 4.8913 0 1.6811-.3396 3.3448-.9985 4.8914-.6588 1.5465-1.6233 2.944-2.8356 4.1086l-35.2859 35.6342c-.8364.8555-1.8097 1.5653-2.88 2.1v-43.1941z" fill="#1656b9"/><path d="m79.3141 25.9478-22.0799-22.13998c-1.1689-1.20478-2.5679-2.16263-4.1138-2.816716-1.546-.654082-3.2076-.991104-4.8862-.991104-1.6787 0-3.3403.337022-4.8863.991104-1.5459.654086-2.9448 1.611936-4.1137 2.816716l-22.14 22.13998 31.02 15.48z" fill="#85b5f8"/></svg>