<?xml version="1.0" encoding="UTF-8"?>
<!DOCTYPE svg PUBLIC "-//W3C//DTD SVG 1.1//EN" "http://www.w3.org/Graphics/SVG/1.1/DTD/svg11.dtd">
<svg xmlns="http://www.w3.org/2000/svg" version="1.1" width="256px" height="256px" style="shape-rendering:geometricPrecision; text-rendering:geometricPrecision; image-rendering:optimizeQuality; fill-rule:evenodd; clip-rule:evenodd" xmlns:xlink="http://www.w3.org/1999/xlink">
<g><path style="opacity:1" fill="#4495f3" d="M 124.5,-0.5 C 126.167,-0.5 127.833,-0.5 129.5,-0.5C 155.288,0.818187 178.955,8.65152 200.5,23C 204.759,26.2818 208.759,29.7818 212.5,33.5C 209.119,33.5405 205.786,33.2071 202.5,32.5C 187.887,23.4022 174.387,24.7355 162,36.5C 150.844,50.8124 140.177,65.4791 130,80.5C 129.51,81.7932 129.343,83.1266 129.5,84.5C 128.291,87.8489 126.958,91.1823 125.5,94.5C 114.038,108.287 103.372,122.621 93.5,137.5C 93.8333,138.167 94.1667,138.833 94.5,139.5C 87.2821,140.859 81.1155,144.193 76,149.5C 67,161.167 58,172.833 49,184.5C 39.8582,200.426 42.0249,214.426 55.5,226.5C 53.5887,227.075 51.922,228.075 50.5,229.5C 22.2214,207.622 5.22145,178.956 -0.5,143.5C -0.5,133.167 -0.5,122.833 -0.5,112.5C 10.0604,54.7701 43.727,18.2701 100.5,3C 108.587,1.40082 116.587,0.234158 124.5,-0.5 Z"/></g>
<g><path style="opacity:1" fill="#f9fbfd" d="M 202.5,32.5 C 214.015,42.924 216.515,55.2573 210,69.5C 199.599,84.5705 188.432,99.0705 176.5,113C 172.788,115.019 168.954,116.852 165,118.5C 164.5,118.167 164,117.833 163.5,117.5C 164.246,116.264 164.579,114.93 164.5,113.5C 165.507,110.678 166.34,107.678 167,104.5C 170.297,102.205 173.297,99.538 176,96.5C 184.054,86.1123 191.721,75.4457 199,64.5C 201.828,54.0077 198.328,46.5077 188.5,42C 183.382,41.112 178.382,41.4453 173.5,43C 162.853,54.8047 153.186,67.3047 144.5,80.5C 143.778,80.9175 143.278,81.5842 143,82.5C 142.333,85.5 142.333,88.5 143,91.5C 144.387,95.1006 145.887,98.6006 147.5,102C 146.907,104.87 146.241,107.703 145.5,110.5C 144.521,111.765 143.521,113.099 142.5,114.5C 132.17,107.27 127.837,97.2704 129.5,84.5C 129.343,83.1266 129.51,81.7932 130,80.5C 140.177,65.4791 150.844,50.8124 162,36.5C 174.387,24.7355 187.887,23.4022 202.5,32.5 Z"/></g>
<g><path style="opacity:0.999" fill="#2262ab" d="M 202.5,32.5 C 205.786,33.2071 209.119,33.5405 212.5,33.5C 229.648,48.4434 241.814,66.7768 249,88.5C 252.378,101.106 254.545,113.773 255.5,126.5C 255.5,127.167 255.5,127.833 255.5,128.5C 251.772,187.391 222.439,227.558 167.5,249C 157.471,251.637 147.471,253.804 137.5,255.5C 130.5,255.5 123.5,255.5 116.5,255.5C 92.0285,252.902 70.0285,244.236 50.5,229.5C 51.922,228.075 53.5887,227.075 55.5,226.5C 57.5168,227.529 59.5168,228.529 61.5,229.5C 63.5145,230.924 65.8478,231.59 68.5,231.5C 71.1667,231.5 73.8333,231.5 76.5,231.5C 79.2282,231.829 81.5615,231.163 83.5,229.5C 87.7292,227.443 91.5625,224.777 95,221.5C 103.949,208.883 113.283,196.55 123,184.5C 126.417,178.928 127.75,172.928 127,166.5C 124.842,168.494 122.342,169.828 119.5,170.5C 119.5,170.167 119.5,169.833 119.5,169.5C 123.058,167.446 126.225,164.78 129,161.5C 138.283,148.549 147.95,135.882 158,123.5C 159.847,119.807 161.68,116.14 163.5,112.5C 164.167,112.5 164.5,112.833 164.5,113.5C 164.579,114.93 164.246,116.264 163.5,117.5C 164,117.833 164.5,118.167 165,118.5C 168.954,116.852 172.788,115.019 176.5,113C 188.432,99.0705 199.599,84.5705 210,69.5C 216.515,55.2573 214.015,42.924 202.5,32.5 Z"/></g>
<g><path style="opacity:1" fill="#4797f4" d="M 164.5,113.5 C 164.5,112.833 164.167,112.5 163.5,112.5C 167.501,98.8505 163.168,89.1838 150.5,83.5C 148.156,83.0603 146.156,82.0603 144.5,80.5C 153.186,67.3047 162.853,54.8047 173.5,43C 178.382,41.4453 183.382,41.112 188.5,42C 198.328,46.5077 201.828,54.0077 199,64.5C 191.721,75.4457 184.054,86.1123 176,96.5C 173.297,99.538 170.297,102.205 167,104.5C 166.34,107.678 165.507,110.678 164.5,113.5 Z"/></g>
<g><path style="opacity:1" fill="#f9fbfe" d="M 125.5,94.5 C 127.793,98.9529 130.127,103.62 132.5,108.5C 124.974,118.192 117.641,128.025 110.5,138C 104.843,138.095 99.1763,137.928 93.5,137.5C 103.372,122.621 114.038,108.287 125.5,94.5 Z"/></g>
<g><path style="opacity:1" fill="#6caaf5" d="M 144.5,80.5 C 146.156,82.0603 148.156,83.0603 150.5,83.5C 148.5,83.5 146.5,83.5 144.5,83.5C 144.337,85.8568 144.503,88.1902 145,90.5C 146.539,94.8913 148.039,99.2247 149.5,103.5C 149.469,106.926 148.469,109.926 146.5,112.5C 146.672,111.508 146.338,110.842 145.5,110.5C 146.241,107.703 146.907,104.87 147.5,102C 145.887,98.6006 144.387,95.1006 143,91.5C 142.333,88.5 142.333,85.5 143,82.5C 143.278,81.5842 143.778,80.9175 144.5,80.5 Z"/></g>
<g><path style="opacity:1" fill="#4e9af4" d="M 129.5,84.5 C 127.837,97.2704 132.17,107.27 142.5,114.5C 143.521,113.099 144.521,111.765 145.5,110.5C 146.338,110.842 146.672,111.508 146.5,112.5C 138.562,124.71 129.895,136.377 120.5,147.5C 119.833,147.5 119.167,147.5 118.5,147.5C 111.909,140.884 103.909,138.217 94.5,139.5C 94.1667,138.833 93.8333,138.167 93.5,137.5C 99.1763,137.928 104.843,138.095 110.5,138C 117.641,128.025 124.974,118.192 132.5,108.5C 130.127,103.62 127.793,98.9529 125.5,94.5C 126.958,91.1823 128.291,87.8489 129.5,84.5 Z"/></g>
<g><path style="opacity:1" fill="#fafbfe" d="M 150.5,83.5 C 163.168,89.1838 167.501,98.8505 163.5,112.5C 161.68,116.14 159.847,119.807 158,123.5C 147.95,135.882 138.283,148.549 129,161.5C 126.225,164.78 123.058,167.446 119.5,169.5C 103.319,177.124 92.986,172.457 88.5,155.5C 86.7419,156.128 85.2419,157.128 84,158.5C 74.8324,170.181 66.1658,182.181 58,194.5C 56.5682,212.739 64.7349,219.906 82.5,216C 84.96,214.542 87.1266,212.709 89,210.5C 95.9494,200.549 103.283,190.883 111,181.5C 112.197,178.911 113.197,176.244 114,173.5C 116.058,172.771 117.891,171.771 119.5,170.5C 122.342,169.828 124.842,168.494 127,166.5C 127.75,172.928 126.417,178.928 123,184.5C 113.283,196.55 103.949,208.883 95,221.5C 91.5625,224.777 87.7292,227.443 83.5,229.5C 80.9327,229.721 78.5994,230.388 76.5,231.5C 73.8333,231.5 71.1667,231.5 68.5,231.5C 66.4855,230.076 64.1522,229.41 61.5,229.5C 59.5168,228.529 57.5168,227.529 55.5,226.5C 42.0249,214.426 39.8582,200.426 49,184.5C 58,172.833 67,161.167 76,149.5C 81.1155,144.193 87.2821,140.859 94.5,139.5C 103.909,138.217 111.909,140.884 118.5,147.5C 116.406,150.422 113.739,152.922 110.5,155C 105.743,155.473 101.076,154.973 96.5,153.5C 94.3659,153.515 92.3659,154.015 90.5,155C 95.9372,155.243 101.271,156.076 106.5,157.5C 112.981,156.602 117.648,153.269 120.5,147.5C 129.895,136.377 138.562,124.71 146.5,112.5C 148.469,109.926 149.469,106.926 149.5,103.5C 148.039,99.2247 146.539,94.8913 145,90.5C 144.503,88.1902 144.337,85.8568 144.5,83.5C 146.5,83.5 148.5,83.5 150.5,83.5 Z"/></g>
<g><path style="opacity:1" fill="#7ab2f6" d="M 118.5,147.5 C 119.167,147.5 119.833,147.5 120.5,147.5C 117.648,153.269 112.981,156.602 106.5,157.5C 101.271,156.076 95.9372,155.243 90.5,155C 92.3659,154.015 94.3659,153.515 96.5,153.5C 101.076,154.973 105.743,155.473 110.5,155C 113.739,152.922 116.406,150.422 118.5,147.5 Z"/></g>
<g><path style="opacity:1" fill="#4797f4" d="M 119.5,169.5 C 119.5,169.833 119.5,170.167 119.5,170.5C 117.891,171.771 116.058,172.771 114,173.5C 113.197,176.244 112.197,178.911 111,181.5C 103.283,190.883 95.9494,200.549 89,210.5C 87.1266,212.709 84.96,214.542 82.5,216C 64.7349,219.906 56.5682,212.739 58,194.5C 66.1658,182.181 74.8324,170.181 84,158.5C 85.2419,157.128 86.7419,156.128 88.5,155.5C 92.986,172.457 103.319,177.124 119.5,169.5 Z"/></g>
<g><path style="opacity:1" fill="#a6bedc" d="M 61.5,229.5 C 64.1522,229.41 66.4855,230.076 68.5,231.5C 65.8478,231.59 63.5145,230.924 61.5,229.5 Z"/></g>
<g><path style="opacity:1" fill="#7096c7" d="M 83.5,229.5 C 81.5615,231.163 79.2282,231.829 76.5,231.5C 78.5994,230.388 80.9327,229.721 83.5,229.5 Z"/></g>
</svg>
