<?xml version="1.0" encoding="UTF-8" standalone="no"?>
<svg
   viewBox="0 0 161.768 40.771"
   fill="none"
   class="w-auto text-black h-[30px]"
   data-testid="basic-icon-iconsvg-TrezorLogo"
   version="1.1"
   id="svg6"
   sodipodi:docname="a25b46662f092a560f86309d60efbb1a.svg"
   width="161.76801"
   height="40.771"
   xmlns:inkscape="http://www.inkscape.org/namespaces/inkscape"
   xmlns:sodipodi="http://sodipodi.sourceforge.net/DTD/sodipodi-0.dtd"
   xmlns="http://www.w3.org/2000/svg"
   xmlns:svg="http://www.w3.org/2000/svg">
  <defs
     id="defs10" />
  <sodipodi:namedview
     id="namedview8"
     pagecolor="#ffffff"
     bordercolor="#666666"
     borderopacity="1.0"
     inkscape:pageshadow="2"
     inkscape:pageopacity="0.0"
     inkscape:pagecheckerboard="0" />
  <path
     class="trezor-logo-trezor"
     fill="currentColor"
     d="M 24.306,9.461 C 24.306,4.29 19.761,0 14.228,0 8.694,0 4.148,4.292 4.148,9.46 v 3.025 H 0 v 21.75 l 14.225,6.536 14.233,-6.534 V 12.581 H 24.31 L 24.307,9.46 Z m -15.02,0 c 0,-2.438 2.175,-4.389 4.942,-4.389 2.767,0 4.94,1.951 4.94,4.389 v 3.024 H 9.287 V 9.461 Z m 13.44,21.264 -8.502,3.904 -8.499,-3.901 V 17.655 h 17 v 13.07 z"
     id="path2" />
  <path
     class="trezor-logo-text"
     fill="currentColor"
     d="m 40.019,12.485 h 17.886 v 5.17 H 51.778 V 34.333 H 46.047 V 17.655 H 40.019 Z M 78.46,19.8 c 0,-4.39 -3.064,-7.218 -7.609,-7.218 H 60.474 v 21.75 h 5.732 v -7.314 h 2.174 l 4.051,7.314 h 6.627 l -4.842,-8.094 c 2.07,-0.78 4.244,-2.83 4.244,-6.438 z m -8.296,2.146 h -3.958 v -4.39 h 3.953 c 1.482,0 2.47,0.879 2.47,2.147 0,1.365 -0.988,2.243 -2.47,2.243 z m 10.963,-9.461 h 16.009 v 5.072 H 86.858 v 3.219 h 9.982 v 4.974 h -9.982 v 3.51 h 10.278 v 5.073 H 81.127 Z m 48.125,-0.294 c -6.719,0 -11.46,4.78 -11.46,11.218 0,6.437 4.839,11.22 11.46,11.22 6.621,0 11.562,-4.779 11.562,-11.217 0,-6.438 -4.842,-11.22 -11.562,-11.22 z m 0,17.363 c -3.359,0 -5.633,-2.536 -5.633,-6.14 0,-3.707 2.274,-6.142 5.633,-6.142 3.36,0 5.732,2.537 5.732,6.141 0,3.605 -2.372,6.14 -5.732,6.14 z m 27.67,-3.316 c 2.074,-0.78 4.25,-2.83 4.25,-6.438 0,-4.39 -3.064,-7.218 -7.61,-7.218 h -10.375 v 21.75 h 5.731 v -7.314 h 2.178 l 4.051,7.314 h 6.621 z m -4.052,-4.292 h -3.952 v -4.39 h 3.952 c 1.484,0 2.471,0.879 2.471,2.147 0,1.365 -0.987,2.243 -2.471,2.243 z M 99.903,12.485 h 16.898 v 4.389 l -9.19,12.29 h 9.19 v 5.169 H 99.903 v -4.39 l 9.19,-12.288 h -9.19 z"
     id="path4" />
</svg>
