<svg id="f7d0ace4-3269-441d-bfd7-16d59252d817" data-name="Layer 1" xmlns="http://www.w3.org/2000/svg" xmlns:xlink="http://www.w3.org/1999/xlink" viewBox="0 0 150 150"><defs><style>.aa37a4b4-3c82-4f52-aa97-3b6c3088c1b5{fill:url(#a07913d1-7385-46f3-8a86-c84381c0426c);}.a17b0b77-4b65-4a83-84ef-11690eebd50f{fill:url(#edebafa9-bdef-4649-99c1-e2a5d458e420);}.bfe16c8e-8ae2-4462-a187-ff18c20c2ef1{fill:url(#a8668496-b10a-4b6c-9a09-c83f83be30c3);}.eb2f7372-1018-4760-bfe8-12dede52906f{fill:url(#b6cd0889-9768-4e86-ac06-0a4fff7b9f7b);}.ae0ff90b-dd9d-452d-8c64-9a8971d31e2c{fill:url(#b105e1dc-f8b2-45f5-99cc-343efdf7ac3b);}.ec13b8f1-dd6a-4fb3-8b24-d3f21cf2d6e8{fill:url(#bf88aadc-aaae-4791-b944-b845e3c790cd);}.f6e04d4c-19b7-49d3-97d9-6c822650ff9d{fill:url(#f7a2eee6-6d9c-4656-9d08-5dbfa2c6a1a9);}.e9fa775b-750d-435c-8121-fafe6e030c83{fill:url(#e4752842-727a-427c-b3ca-1b1628d7298a);}.a3b502ea-10c0-4656-9f67-0b5df81a16e2{fill:url(#b23af29f-c76a-4e01-9be8-50025aad3e98);}.b29efdd8-f226-4dde-b659-8c0079014e63{fill:url(#af9aeaa7-aaf5-4498-8006-3259496f2733);}.a2c9e135-7778-46a9-bd85-269b5202b268{fill:url(#a2d7e75e-bd55-46ab-a279-6796701c53e5);}</style><linearGradient id="a07913d1-7385-46f3-8a86-c84381c0426c" x1="73.78491" y1="2.0497" x2="76.0779" y2="144.2153" gradientUnits="userSpaceOnUse"><stop offset="0" stop-color="#28dcfe"/><stop offset="1" stop-color="#8444fb"/></linearGradient><linearGradient id="edebafa9-bdef-4649-99c1-e2a5d458e420" x1="74.28293" y1="2.04167" x2="76.57592" y2="144.20727" xlink:href="#a07913d1-7385-46f3-8a86-c84381c0426c"/><linearGradient id="a8668496-b10a-4b6c-9a09-c83f83be30c3" x1="52.72802" y1="2.38933" x2="55.02101" y2="144.55493" xlink:href="#a07913d1-7385-46f3-8a86-c84381c0426c"/><linearGradient id="b6cd0889-9768-4e86-ac06-0a4fff7b9f7b" x1="96.70468" y1="1.68003" x2="98.99768" y2="143.84563" xlink:href="#a07913d1-7385-46f3-8a86-c84381c0426c"/><linearGradient id="b105e1dc-f8b2-45f5-99cc-343efdf7ac3b" x1="95.93348" y1="1.69246" x2="98.22648" y2="143.85807" xlink:href="#a07913d1-7385-46f3-8a86-c84381c0426c"/><linearGradient id="bf88aadc-aaae-4791-b944-b845e3c790cd" x1="51.66573" y1="2.40646" x2="53.95872" y2="144.57206" xlink:href="#a07913d1-7385-46f3-8a86-c84381c0426c"/><linearGradient id="f7a2eee6-6d9c-4656-9d08-5dbfa2c6a1a9" x1="74.81818" y1="2.03303" x2="77.11117" y2="144.19864" xlink:href="#a07913d1-7385-46f3-8a86-c84381c0426c"/><linearGradient id="e4752842-727a-427c-b3ca-1b1628d7298a" x1="43.13542" y1="2.54405" x2="45.42841" y2="144.70965" xlink:href="#a07913d1-7385-46f3-8a86-c84381c0426c"/><linearGradient id="b23af29f-c76a-4e01-9be8-50025aad3e98" x1="105.41214" y1="1.53958" x2="107.70514" y2="143.70519" xlink:href="#a07913d1-7385-46f3-8a86-c84381c0426c"/><linearGradient id="af9aeaa7-aaf5-4498-8006-3259496f2733" x1="73.80864" y1="2.04932" x2="76.10163" y2="144.21492" xlink:href="#a07913d1-7385-46f3-8a86-c84381c0426c"/><linearGradient id="a2d7e75e-bd55-46ab-a279-6796701c53e5" x1="73.19078" y1="2.05928" x2="75.48378" y2="144.22489" xlink:href="#a07913d1-7385-46f3-8a86-c84381c0426c"/></defs><path class="aa37a4b4-3c82-4f52-aa97-3b6c3088c1b5" d="M56.17927,132.56183c.53415-3.21969,1.047-6.31107,1.59148-9.59291H55.87106q-22.40305,0-44.80612-.00073c-5.14761-.00072-8.00032-2.83154-8.00071-7.94318q-.00294-37.61859,0-75.23719c.00039-5.12241,2.84337-7.94982,7.98977-7.951q15.88445-.00358,31.76889-.00072h1.948C43.391,29.87977,42.17,28.14767,40.948,26.41639c-2.24238-3.17672-2.0677-5.11061.71522-7.8904,2.04989-2.04759,4.08833-4.10687,6.15439-6.138,2.1742-2.13746,4.36669-2.324,6.86255-.58695,1.68008,1.16928,3.32491,2.38913,4.99753,3.56931,1.1438.807,4.01457-.33128,4.27178-1.70527.404-2.15795.74261-4.32821,1.15293-6.48488a4.75254,4.75254,0,0,1,4.93853-4.11343q4.94469-.048,9.89017-.00074a4.75154,4.75154,0,0,1,4.98252,4.23258c.38623,2.11041.70645,4.233,1.10089,6.34177.25457,1.361,3.13133,2.50663,4.271,1.71633,1.68205-1.16641,3.33657-2.37254,5.01845-3.5392,2.51761-1.7464,4.7133-1.578,6.86488.545q3.36026,3.31552,6.67466,6.67741c2.12436,2.15574,2.30147,4.36624.56931,6.86879-1.30647,1.88752-2.63939,3.75673-3.95615,5.63715-.017.0243.02373.089.08422.2903h1.533q16.03431,0,32.0686.0017c4.90766.00248,7.79188,2.90732,7.7925,7.84937q.00469,37.69353.00023,75.38707c-.00053,5.02932-2.86735,7.89246-7.90058,7.89353q-22.40307.00478-44.80613.00115H92.23578l1.61037,9.76519c3.58112-1.16506,5.12842,1.24157,6.77646,3.59378,1.51787,2.16641,3.15276,4.25129,4.7531,6.35917a2.55337,2.55337,0,0,1,.53187,2.89955,2.59121,2.59121,0,0,1-2.61186,1.37038q-28.32226-.01289-56.64453-.00109c-1.139.00043-2.26648-.28121-2.5138-1.42953a3.8641,3.8641,0,0,1,.47787-2.72245c1.92078-2.7962,4.09358-5.41851,6.03471-8.20172a4.0176,4.0176,0,0,1,4.1316-2.04828A11.58931,11.58931,0,0,0,56.17927,132.56183Zm61.98244-86.27617c0,1.59275.0063,3.03606-.00128,4.4793-.01653,3.14707-1.38276,4.83367-4.44551,5.413-2.00923.38007-4.0354.67016-6.0461,1.043-1.48472.27532-2.63556,3.10931-1.778,4.3402,1.25574,1.8025,2.57713,3.56081,3.78889,5.392a4.60641,4.60641,0,0,1-.56623,6.15116A16.47165,16.47165,0,0,1,106.85,74.75333c1.81383,1.78519,3.10008,3.191,4.53461,4.42429A4.862,4.862,0,0,1,113.367,83.88a1.37874,1.37874,0,0,0,.92306,1.60809,6.81169,6.81169,0,0,1,3.84966,6.00354,7.183,7.183,0,1,1-10.66868-5.95223c1.21192-.68761,1.53911-1.7861.72041-2.70419-1.35176-1.51589-2.76334-2.97842-4.4501-4.7852a17.24417,17.24417,0,0,1-1.30359,1.75809c-2.47016,2.48492-4.56656,2.64835-7.43135.61579-1.58818-1.1268-3.16152-2.27473-4.75762-3.39014-1.05614-.73807-3.94895.42153-4.18854,1.68983-.40755,2.15725-.7468,4.32742-1.15474,6.48459A4.7472,4.7472,0,0,1,80.02,89.38165q-5.01949.05865-10.04013.00007a4.742,4.742,0,0,1-4.88579-4.17282c-.38767-2.11013-.7037-4.23348-1.09648-6.34259-.27849-1.49544-3.10592-2.60141-4.36035-1.72528-1.63733,1.14357-3.24916,2.32384-4.892,3.45932-2.60263,1.79887-4.76289,1.63582-6.96464-.594a11.353,11.353,0,0,1-1.27074-2.03782c-1.82894,1.89-3.11526,3.21483-4.39641,4.54463-1.12227,1.16488-.97155,2.23646.41926,3.02975a7.17987,7.17987,0,1,1-10.45849,8.01417,7.00591,7.00591,0,0,1,3.50694-8.0034c.83931-.44521,1.19911-.918,1.05609-1.82954a4.45045,4.45045,0,0,1,1.7743-4.33251c1.54679-1.30883,2.99019-2.73988,4.73706-4.35706-.85073-.67846-1.40134-1.03838-1.85635-1.49382-2.28445-2.2866-2.47621-4.46457-.63961-7.08511,1.089-1.55379,2.2066-3.08743,3.306-4.63394,1.07245-1.5086.016-4.2546-1.77953-4.59339-1.96133-.37008-3.92889-.707-5.89305-1.06213-2.98394-.53952-4.42134-2.23189-4.44567-5.25-.01233-1.52972-.00216-3.05963-.00216-4.578H22.2471c0,7.90253-.01811,15.69271.047,23.48218.00373.44676.60074,1.03173,1.06654,1.308A7.22943,7.22943,0,0,1,26.795,79.20559a7.16838,7.16838,0,0,1-13.903-.0347,7.00324,7.00324,0,0,1,3.5028-8.00532,1.74089,1.74089,0,0,0,1.07773-1.82731c-.03759-8.09324-.02229-16.18672-.02159-24.28014.00026-2.988.62875-3.62783,3.56349-3.6288,3.587-.00118,7.17407-.00028,10.22059-.00028l2.68224-4.79647H32.83135q-10.8646,0-21.72919.00094c-2.54331.00091-3.24209.717-3.24227,3.32445q-.00216,31.0997-.0008,62.19939v1.54555H142.0915c.0186-.36023.04672-.65082.04674-.94142q.00321-31.62426-.00218-63.24853c-.00068-2.05808-.84489-2.87495-2.93626-2.87717q-11.2392-.01192-22.47845.00031c-.31179.00018-.62353.05127-.89493.07511a14.75639,14.75639,0,0,1,1.72744,2.14031,14.18093,14.18093,0,0,1,.82647,2.57755c3.61648,0,7.25843-.0034,10.90039.00117,2.52736.00316,3.26647.7549,3.26734,3.3268.00283,8.19334.01655,16.38674-.02063,24.5799a1.74419,1.74419,0,0,0,1.07571,1.82927,7.00211,7.00211,0,0,1,3.50252,8.00624,7.16855,7.16855,0,0,1-13.90311.03161A6.9821,6.9821,0,0,1,126.671,71.189a1.83468,1.83468,0,0,0,1.09852-1.96645c-.02925-7.194-.01493-14.38823-.01928-21.58237-.00026-.43373-.04512-.86744-.07218-1.35448Zm-12.40763,23.4069a35.45953,35.45953,0,0,0-2.61908-3.632c-2.79572-3.00472-3.22462-6.10222-1.25189-9.8077,1.11478-2.09395,2.39524-3.43936,4.76594-3.75769,2.21773-.2978,4.41742-.73,6.63758-1.10513V41.05021c-2.31856-.38525-4.57294-.78788-6.83672-1.12795a5.16081,5.16081,0,0,1-4.428-3.52791,11.38908,11.38908,0,0,0-.66116-1.66637,5.60322,5.60322,0,0,1,.68723-6.79388c1.32463-1.65563,2.4825-3.44472,3.57416-4.97735l-7.32381-7.35649a33.4154,33.4154,0,0,0-3.52214,2.52591c-2.97,2.72733-6.00938,3.17879-9.67842,1.24171-2.15153-1.13591-3.52045-2.4368-3.839-4.87032-.289-2.20781-.73651-4.39487-1.11458-6.59371H69.85675c-.36375,2.0847-.8489,4.12881-1.05068,6.20053a5.69008,5.69008,0,0,1-4.4035,5.391,6.97867,6.97867,0,0,0-1.24124.51656,5.29716,5.29716,0,0,1-6.14245-.62181c-1.7735-1.3575-3.62853-2.60846-5.22387-3.74674l-7.3522,7.3968a28.60715,28.60715,0,0,0,2.33952,3.22766c2.9003,3.08044,3.32346,6.29362,1.2775,10.07192-1.07148,1.97873-2.33442,3.26407-4.56891,3.59543-2.26325.33563-4.5146.75159-6.7741,1.13287V51.37441a34.96887,34.96887,0,0,0,4.47741.74983c4.04956.16187,6.4863,2.05033,7.7006,5.9947.697,2.264.75141,4.13284-.6895,6.03682-1.35127,1.78553-2.615,3.63735-3.83307,5.34225l7.35735,7.34622a33.002,33.002,0,0,0,3.504-2.52173c2.96945-2.73917,6.01144-3.16829,9.67737-1.237,2.15513,1.13538,3.51325,2.44506,3.831,4.87658.28833,2.20641.73626,4.392,1.12213,6.635,3.15447,0,6.14769.002,9.14091-.00266.34568-.00054.69131-.0377,1.14066-.06394.36286-2.07345.8497-4.11878,1.05226-6.19189a5.67876,5.67876,0,0,1,4.40718-5.38579,6.88923,6.88923,0,0,0,1.24233-.51365,5.29218,5.29218,0,0,1,6.14039.63347c1.77209,1.35772,3.62769,2.60643,5.523,3.95772,2.10471-2.11954,4.10894-4.136,6.1104-6.15521C104.97018,70.52306,105.30749,70.15946,105.75408,69.69256Zm-97.895,38.94089c0,2.08789-.00067,4.02925.00015,5.9706.00125,2.96742.60726,3.56826,3.60145,3.56828q63.52917.00027,127.05835-.00056a10.82709,10.82709,0,0,0,1.49645-.02632,2.13756,2.13756,0,0,0,2.06559-2.02735c.10158-2.47438.03095-4.95582.03095-7.48465Zm81.081,23.87371c-.54643-3.25655-1.07017-6.37788-1.59055-9.47921H62.63419l-1.55962,9.47921ZM51.12373,142.0187h47.742c-1.07865-1.44508-1.98287-2.7645-3.01469-3.97514a2.20112,2.20112,0,0,0-1.49941-.65723q-19.3165-.0532-38.63317-.00722a2.06347,2.06347,0,0,0-1.428.49626C53.20383,139.15588,52.23735,140.53833,51.12373,142.0187ZM19.8086,75.01492a2.38787,2.38787,0,1,0,2.426,2.314A2.404,2.404,0,0,0,19.8086,75.01492ZM130.03479,79.79a2.38906,2.38906,0,1,0-2.273-2.46545A2.41868,2.41868,0,0,0,130.03479,79.79ZM41.41771,91.86632a2.38834,2.38834,0,1,0-2.42508,2.31315A2.41863,2.41863,0,0,0,41.41771,91.86632Zm69.611-2.46191a2.389,2.389,0,1,0,2.32559,2.41432A2.40969,2.40969,0,0,0,111.02866,89.40441Z"/><path class="a17b0b77-4b65-4a83-84ef-11690eebd50f" d="M74.968,67.80782a21.58232,21.58232,0,1,1,21.604-21.6284A21.63009,21.63009,0,0,1,74.968,67.80782Zm-.01535-38.36727a16.782,16.782,0,1,0,16.826,16.69769A16.83048,16.83048,0,0,0,74.95263,29.44055Z"/><path class="bfe16c8e-8ae2-4462-a187-ff18c20c2ef1" d="M53.19153,21.08637l3.07617,3.0747-3.513,3.12024L49.8876,23.97237Z"/><path class="eb2f7372-1018-4760-bfe8-12dede52906f" d="M96.97349,20.96258l3.35865,3.20083L97.0146,27.4965l-3.21231-3.34606Z"/><path class="ae0ff90b-dd9d-452d-8c64-9a8971d31e2c" d="M97.07733,65.03724,100.242,68.342l-3.2888,3.15509-3.18009-3.27144Z"/><path class="ec13b8f1-dd6a-4fb3-8b24-d3f21cf2d6e8" d="M52.46277,71.11276,49.6932,68.304l3.35886-3.10315,2.71145,3.07351Z"/><path class="f6e04d4c-19b7-49d3-97d9-6c822650ff9d" d="M77.33348,12.75824v4.60689H72.72315V12.75824Z"/><path class="e9fa775b-750d-435c-8121-fafe6e030c83" d="M46.129,48.59348H41.55219V43.93669H46.129Z"/><path class="a3b502ea-10c0-4656-9f67-0b5df81a16e2" d="M103.80154,48.53122V43.94611h4.66312v4.58511Z"/><path class="b29efdd8-f226-4dde-b659-8c0079014e63" d="M77.32939,75.10819v4.61505H72.71907V75.10819Z"/><path class="a2c9e135-7778-46a9-bd85-269b5202b268" d="M77.28978,115.70993H72.68356v-4.611h4.60622Z"/></svg>