<!DOCTYPE svg PUBLIC "-//W3C//DTD SVG 1.1//EN" "http://www.w3.org/Graphics/SVG/1.1/DTD/svg11.dtd">
<!-- Uploaded to: SVG Repo, www.svgrepo.com, Transformed by: SVG Repo Mixer Tools -->
<svg width="800px" height="800px" viewBox="0 0 16 16" xmlns="http://www.w3.org/2000/svg" fill="none" stroke="#a9abad" stroke-width="0.64" transform="matrix(-1, 0, 0, -1, 0, 0)">
<g id="SVGRepo_bgCarrier" stroke-width="0"/>
<g id="SVGRepo_tracerCarrier" stroke-linecap="round" stroke-linejoin="round" stroke="#a9abad" stroke-width="2.2399999999999998">
<path fill="#292d32" d="M12.78 4.28a.75.75 0 00-1.06-1.06L4.5 10.44V6.75a.75.75 0 00-1.5 0v5.5a.748.748 0 00.75.75h5.5a.75.75 0 000-1.5H5.56l7.22-7.22z"/>
</g>
<g id="SVGRepo_iconCarrier">
<path fill="#292d32" d="M12.78 4.28a.75.75 0 00-1.06-1.06L4.5 10.44V6.75a.75.75 0 00-1.5 0v5.5a.748.748 0 00.75.75h5.5a.75.75 0 000-1.5H5.56l7.22-7.22z"/>
</g>
</svg>