<svg id="bee1d45b-0c25-404f-8b9a-bbed7f7223da" data-name="Layer 1" xmlns="http://www.w3.org/2000/svg" viewBox="0 0 60 60"><defs><style>.ea9a9e84-9175-480e-8dbd-b04bf46c8d18{fill:#dac2f8;}.e5deb170-62d4-4f0f-9fc3-eae5b1b06a2e{fill:#5220a1;}</style></defs><polygon class="ea9a9e84-9175-480e-8dbd-b04bf46c8d18" points="28.292 17.205 18.49 33.675 11.153 29.232 19.723 12.098 28.292 17.205"/><path class="e5deb170-62d4-4f0f-9fc3-eae5b1b06a2e" d="M20.39644,2.63082c.15662.10945.30615.2312.47089.32658q7.77225,4.50006,15.54686,8.996c.15183.08785.29828.18505.50032.311l-4.789,8.31512-2.77491-1.59457L27.751,21.75734,57.31617,38.86186c-1.61052,2.79423-3.19548,5.54411-4.802,8.33145L22.95053,30.09275,21.3501,32.86514l2.767,1.60965-4.78868,8.31255c-.20192-.10789-.37167-.1923-.53547-.287q-7.84392-4.536-15.68723-9.07306c-.13716-.07931-.28109-.14688-.42185-.21992v-.10691c.10765-.15953.22542-.31318.32142-.47946q2.09438-3.6277,4.18444-7.2579c.09538-.16535.20253-.32389.31218-.49829l2.76078,1.58255,7.99649-13.87947-2.76762-1.60876,4.79821-8.32827Zm.63763,11.53875-8.00152,13.8868,5.54323,3.208,8.00148-13.88764ZM52.94418,40.03575,26.15143,24.5373,24.54917,27.313l26.792,15.49876ZM19.86172,9.78612,30.9498,16.20138l1.5997-2.7773-11.084-6.41133ZM8.65887,29.2321l-1.59893,2.778,11.08617,6.41205,1.599-2.77681Z"/><path class="e5deb170-62d4-4f0f-9fc3-eae5b1b06a2e" d="M2.68383,54.16186H5.87505V47.776H25.07093v6.35679h3.22149v3.23643H2.68383Zm19.17262-.00894V50.9918H9.1292v3.16112Z"/></svg>