<svg xmlns="http://www.w3.org/2000/svg" viewBox="0 0 100 99.95"><defs><style>.cls-1{fill:#a465ea;}</style></defs><g id="Layer_2" data-name="Layer 2"><g id="Layer_1-2" data-name="Layer 1"><path class="cls-1" d="M100,53c-.25,1.83-.4,3.68-.77,5.48C95.3,77.87,84,91,65.29,97.34c-14,4.73-27.65,2.89-40.53-4.38l-.85-.48c.22,1.29.39,2.39.59,3.49a2.94,2.94,0,1,1-5.76,1.08q-.93-5.28-1.87-10.55A2.88,2.88,0,0,1,19.22,83Q24.59,82,30,81.12a2.94,2.94,0,1,1,1,5.77c-1.2.23-2.41.43-3.82.68a40.67,40.67,0,0,0,8.62,4A44.12,44.12,0,0,0,90.56,67.25,43.1,43.1,0,0,0,94.13,50.8a7.36,7.36,0,0,1,.2-1.82,2.69,2.69,0,0,1,2.42-2,2.81,2.81,0,0,1,2.82,1.38c.15.24.29.49.43.73Z"/><path class="cls-1" d="M78.52,0c1.83.41,2.62,1.63,2.89,3.43.5,3.3,1.14,6.58,1.72,9.88a2.88,2.88,0,0,1-2.36,3.46q-5.37,1-10.75,1.91a3,3,0,0,1-3.58-2.35,3,3,0,0,1,2.68-3.44l3.52-.6.1-.34c-2.47-1.12-4.88-2.4-7.42-3.33A44.11,44.11,0,0,0,6.74,41.27a61.87,61.87,0,0,0-.85,7.83c-.14,2.13-.71,3.21-2.26,3.63s-2.55-.25-3.63-2v-3.9c.32-2.21.56-4.43,1-6.62A50,50,0,0,1,41.29.77C43.14.46,45,.25,46.88,0h6.24a4,4,0,0,0,.75.16A50,50,0,0,1,75.33,6.89c.2.11.42.2.76.36-.19-1.08-.35-2-.5-2.93C75.18,1.77,75.72.85,78.12,0Z"/><path class="cls-1" d="M21.54,68.84a13.3,13.3,0,0,1,.73-1.8c.62-1.1,1.35-2.14,2-3.25a1.68,1.68,0,0,0,.09-1.21c-.43-1.18-.92-2.35-1.47-3.49a1.66,1.66,0,0,0-.9-.81c-1.21-.36-2.46-.6-3.69-.92a2.9,2.9,0,0,1-2.44-3.07q0-4.38,0-8.77a2.92,2.92,0,0,1,2.43-3.08c1.23-.31,2.48-.55,3.69-.91a1.7,1.7,0,0,0,.91-.8c.54-1.14,1-2.31,1.46-3.5a1.66,1.66,0,0,0-.07-1.2c-.61-1.11-1.33-2.16-2-3.25a2.88,2.88,0,0,1,.46-3.89q3.09-3.12,6.22-6.2a2.88,2.88,0,0,1,3.89-.48c1.12.66,2.2,1.39,3.34,2a1.54,1.54,0,0,0,1.12.05c1.19-.44,2.36-.93,3.5-1.47a1.59,1.59,0,0,0,.81-.9c.37-1.21.6-2.45.92-3.68a2.91,2.91,0,0,1,3.08-2.44h8.78a2.91,2.91,0,0,1,3.09,2.42c.33,1.26.58,2.53.94,3.78a1.41,1.41,0,0,0,.69.79c1.2.55,2.44,1.06,3.68,1.52a1.38,1.38,0,0,0,1-.05c1.13-.64,2.21-1.36,3.33-2a2.89,2.89,0,0,1,3.9.46q3.14,3.08,6.22,6.2a2.91,2.91,0,0,1,.43,4c-.64,1.06-1.34,2.08-1.93,3.16a1.69,1.69,0,0,0-.09,1.21,36.8,36.8,0,0,0,1.47,3.49,1.66,1.66,0,0,0,.9.81c1.24.37,2.52.61,3.78.95a2.86,2.86,0,0,1,2.34,3q0,4.38,0,8.77a2.91,2.91,0,0,1-2.43,3.08c-1.22.32-2.47.56-3.68.92a1.7,1.7,0,0,0-.92.79c-.56,1.17-1.05,2.37-1.51,3.59a1.36,1.36,0,0,0,.07,1c.63,1.13,1.36,2.21,2,3.33a2.87,2.87,0,0,1-.45,3.89c-2.06,2.09-4.13,4.15-6.21,6.21a2.93,2.93,0,0,1-4,.42C66,76.91,65,76.21,63.92,75.62a1.74,1.74,0,0,0-1.21-.08c-1.19.43-2.36.92-3.5,1.46a1.62,1.62,0,0,0-.81.9c-.37,1.21-.61,2.45-.92,3.68A2.92,2.92,0,0,1,54.4,84q-4.4,0-8.79,0a2.9,2.9,0,0,1-3.08-2.42c-.32-1.23-.56-2.47-.92-3.68a1.66,1.66,0,0,0-.8-.91c-1.17-.56-2.38-1-3.59-1.51a1.39,1.39,0,0,0-1,.08c-1.13.63-2.21,1.35-3.33,2a2.89,2.89,0,0,1-3.9-.46c-2.09-2.05-4.18-4.1-6.2-6.21A10,10,0,0,1,21.54,68.84Zm42.13-18.9A13.67,13.67,0,1,0,50,63.55,13.66,13.66,0,0,0,63.67,49.94Z"/></g></g></svg>