<svg xmlns="http://www.w3.org/2000/svg" viewBox="0 0 99.94 100"><defs><style>.cls-1{fill:#a465ea;}</style></defs><g id="Layer_2" data-name="Layer 2"><g id="Layer_1-2" data-name="Layer 1"><path class="cls-1" d="M50.69,0q7.61,3.81,15.2,7.62L96.73,23l1.06.53H2.14c.39-.22.62-.36.87-.48L49,.14A.55.55,0,0,0,49.13,0Z"/><path class="cls-1" d="M0,96.29c1.32-2.18,2.62-4.38,4-6.54a3.32,3.32,0,0,1,3.09-1.48q42.86,0,85.72,0a3.36,3.36,0,0,1,3.08,1.49A57.9,57.9,0,0,1,99.17,95c1.24,2.42.79,3.62-1.49,5H2.14A4.43,4.43,0,0,1,0,97.85Z"/><path class="cls-1" d="M0,29.49H99.94a25.53,25.53,0,0,1-1.64,4c-1.4,2.25-3,4.39-4.54,6.54a3.1,3.1,0,0,1-2.66,1.17H8.76A3.5,3.5,0,0,1,6,40a25.19,25.19,0,0,1-5.84-9.9A.8.8,0,0,0,0,29.88Z"/><path class="cls-1" d="M29.37,82.38H11.75V47.15H29.37Z"/><path class="cls-1" d="M88.08,47.14V82.37H70.46V47.14Z"/><path class="cls-1" d="M41.2,47.12H58.63V82.34H41.2Z"/></g></g></svg>