<?xml version="1.0" encoding="utf-8"?>
<svg version="1.1" id="Capa_1" x="0px" y="0px" width="36.748px" height="36.748px" viewBox="0 0 36.748 36.748" style="enable-background:new 0 0 36.748 36.748;" xmlns="http://www.w3.org/2000/svg">
  <g>
    <path d="M 22.219 20.097 C 22.045 19.823 21.812 19.607 21.516 19.455 C 21.31 19.347 21.014 19.246 20.628 19.158 C 20.99 19.044 21.279 18.903 21.499 18.727 C 21.719 18.554 21.888 18.354 22.004 18.132 C 22.119 17.906 22.18 17.667 22.18 17.416 C 22.18 17.071 22.071 16.753 21.848 16.465 C 21.627 16.176 21.312 15.953 20.902 15.801 C 20.743 15.741 20.552 15.695 20.347 15.658 L 20.347 14.317 L 18.948 14.317 L 18.948 15.568 L 18.049 15.568 L 18.049 14.317 L 16.65 14.317 L 16.65 15.568 L 14.517 15.568 L 14.517 16.621 L 14.842 16.621 C 15.059 16.621 15.206 16.638 15.284 16.674 C 15.361 16.71 15.415 16.759 15.446 16.821 C 15.478 16.882 15.494 17.028 15.494 17.252 L 15.494 21.493 C 15.494 21.716 15.478 21.859 15.446 21.921 C 15.415 21.983 15.361 22.034 15.284 22.068 C 15.207 22.102 15.06 22.12 14.842 22.12 L 14.517 22.12 L 14.517 23.172 L 16.65 23.172 L 16.65 24.422 L 18.048 24.422 L 18.048 23.172 L 18.844 23.172 C 18.88 23.172 18.912 23.171 18.949 23.171 L 18.949 24.422 L 20.346 24.422 L 20.346 23.064 C 20.581 23.022 20.79 22.97 20.964 22.904 C 21.447 22.727 21.82 22.468 22.084 22.127 C 22.349 21.788 22.48 21.416 22.48 21.012 C 22.478 20.678 22.392 20.371 22.219 20.097 Z M 17.535 16.794 L 18.441 16.794 C 18.97 16.794 19.336 16.825 19.542 16.885 C 19.745 16.944 19.904 17.046 20.013 17.188 C 20.121 17.33 20.174 17.501 20.174 17.699 C 20.174 17.892 20.118 18.062 20.003 18.21 C 19.889 18.355 19.718 18.465 19.492 18.54 C 19.264 18.612 18.916 18.649 18.441 18.649 L 17.535 18.649 L 17.535 16.794 Z M 20.093 21.493 C 19.933 21.683 19.735 21.806 19.504 21.865 C 19.275 21.925 18.986 21.957 18.632 21.957 L 18.03 21.957 C 17.829 21.957 17.707 21.946 17.661 21.927 C 17.615 21.907 17.583 21.871 17.564 21.822 C 17.547 21.782 17.538 21.646 17.534 21.412 L 17.534 19.765 L 18.603 19.765 C 19.071 19.765 19.42 19.805 19.648 19.885 C 19.877 19.965 20.049 20.082 20.162 20.239 C 20.277 20.396 20.333 20.586 20.333 20.813 C 20.335 21.077 20.255 21.306 20.093 21.493 Z M 34.223 25.21 C 34.117 23.81 33.403 22.203 32.089 20.487 C 31.802 20.114 31.486 19.741 31.153 19.369 C 31.486 18.997 31.802 18.624 32.089 18.251 C 34.255 15.426 34.813 12.883 33.66 11.094 C 32.704 9.612 30.713 8.828 27.899 8.828 C 26.946 8.828 25.926 8.919 24.864 9.091 C 23.856 6.615 22.483 4.763 20.89 3.827 C 20.934 3.656 20.965 3.479 20.965 3.297 C 20.966 2.041 19.86 1.023 18.496 1.023 C 17.131 1.023 16.026 2.041 16.026 3.297 C 16.026 3.48 16.056 3.657 16.1 3.827 C 14.509 4.763 13.136 6.615 12.128 9.091 C 11.065 8.919 10.047 8.828 9.093 8.828 C 6.279 8.828 4.288 9.612 3.332 11.094 C 2.18 12.884 2.738 15.427 4.904 18.251 C 5.191 18.624 5.507 18.997 5.84 19.369 C 5.507 19.742 5.191 20.114 4.904 20.487 C 3.59 22.2 2.878 23.808 2.77 25.21 C 1.902 25.563 1.293 26.359 1.293 27.291 C 1.293 28.546 2.399 29.565 3.763 29.565 C 4.281 29.565 4.759 29.418 5.156 29.168 C 6.183 29.657 7.502 29.914 9.094 29.914 C 10.048 29.914 11.065 29.822 12.128 29.649 C 13.615 33.304 15.895 35.602 18.497 35.602 C 21.099 35.602 23.377 33.302 24.864 29.649 C 25.926 29.823 26.944 29.914 27.899 29.914 C 27.899 29.914 27.899 29.914 27.9 29.914 C 29.492 29.914 30.81 29.654 31.838 29.168 C 32.236 29.418 32.713 29.565 33.23 29.565 C 34.594 29.565 35.7 28.547 35.7 27.291 C 35.699 26.359 35.091 25.563 34.223 25.21 Z M 27.899 9.768 C 29.596 9.768 31.82 10.081 32.779 11.574 C 33.701 13.005 33.144 15.24 31.253 17.707 C 31.013 18.021 30.751 18.338 30.474 18.65 C 29.316 17.469 27.941 16.315 26.403 15.225 C 26.158 13.318 25.752 11.555 25.205 10 C 26.154 9.855 27.061 9.768 27.899 9.768 Z M 22.144 25.038 C 20.944 25.692 19.719 26.271 18.497 26.779 C 17.275 26.272 16.049 25.694 14.848 25.038 C 13.69 24.404 12.596 23.723 11.568 23.016 C 11.427 21.842 11.343 20.625 11.343 19.372 C 11.343 18.119 11.427 16.902 11.568 15.728 C 12.596 15.02 13.69 14.339 14.849 13.707 C 16.051 13.052 17.276 12.471 18.497 11.965 C 19.719 12.471 20.945 13.051 22.144 13.707 C 23.304 14.339 24.397 15.02 25.425 15.728 C 25.567 16.902 25.65 18.12 25.65 19.372 C 25.65 20.625 25.567 21.842 25.425 23.016 C 24.397 23.722 23.305 24.404 22.144 25.038 Z M 25.246 24.3 C 24.991 25.836 24.626 27.262 24.165 28.543 C 22.755 28.254 21.271 27.83 19.759 27.269 C 20.728 26.836 21.7 26.37 22.666 25.844 C 23.562 25.354 24.421 24.838 25.246 24.3 Z M 17.235 27.271 C 15.722 27.833 14.239 28.257 12.829 28.545 C 12.37 27.265 12.003 25.838 11.748 24.302 C 12.573 24.838 13.43 25.356 14.326 25.848 C 15.291 26.371 16.264 26.839 17.235 27.271 Z M 10.45 22.214 C 9.227 21.297 8.133 20.343 7.192 19.371 C 8.133 18.398 9.227 17.443 10.45 16.528 C 10.371 17.451 10.322 18.396 10.322 19.371 C 10.322 20.346 10.371 21.291 10.45 22.214 Z M 11.748 14.439 C 12.003 12.905 12.37 11.478 12.829 10.198 C 14.239 10.486 15.722 10.909 17.235 11.47 C 16.264 11.9 15.292 12.369 14.328 12.896 C 13.431 13.384 12.574 13.903 11.748 14.439 Z M 19.759 11.47 C 21.27 10.909 22.755 10.486 24.165 10.198 C 24.624 11.477 24.991 12.905 25.246 14.439 C 24.421 13.903 23.564 13.384 22.668 12.896 C 21.701 12.369 20.729 11.9 19.759 11.47 Z M 26.544 16.527 C 27.766 17.442 28.862 18.397 29.802 19.37 C 28.861 20.343 27.766 21.298 26.544 22.213 C 26.624 21.29 26.672 20.345 26.672 19.37 C 26.672 18.395 26.623 17.449 26.544 16.527 Z M 16.558 4.69 C 17.01 5.221 17.706 5.571 18.497 5.571 C 19.288 5.571 19.984 5.222 20.435 4.69 C 21.75 5.513 22.92 7.141 23.817 9.297 C 22.114 9.651 20.32 10.202 18.497 10.934 C 16.674 10.202 14.88 9.651 13.176 9.297 C 14.074 7.141 15.243 5.513 16.558 4.69 Z M 5.739 17.707 C 3.848 15.24 3.292 13.005 4.213 11.574 C 5.173 10.081 7.398 9.768 9.094 9.768 C 9.932 9.768 10.84 9.855 11.787 10.002 C 11.241 11.557 10.836 13.319 10.591 15.227 C 9.051 16.315 7.675 17.469 6.519 18.651 C 6.242 18.338 5.981 18.021 5.739 17.707 Z M 9.094 28.973 C 8.083 28.973 6.886 28.856 5.879 28.448 C 6.1 28.109 6.235 27.714 6.235 27.291 C 6.235 26.055 5.163 25.056 3.831 25.022 C 3.992 23.848 4.628 22.484 5.739 21.034 C 5.981 20.72 6.243 20.406 6.519 20.091 C 7.675 21.273 9.051 22.426 10.591 23.515 C 10.836 25.42 11.241 27.183 11.786 28.74 C 10.84 28.887 9.932 28.973 9.094 28.973 Z M 18.497 34.661 C 16.407 34.661 14.497 32.617 13.176 29.443 C 14.88 29.091 16.674 28.539 18.497 27.806 C 20.32 28.538 22.113 29.09 23.817 29.443 C 22.497 32.617 20.586 34.661 18.497 34.661 Z M 27.899 28.973 C 27.061 28.973 26.154 28.885 25.207 28.737 C 25.752 27.183 26.159 25.422 26.403 23.512 C 27.943 22.426 29.318 21.272 30.474 20.088 C 30.751 20.403 31.011 20.717 31.253 21.031 C 32.364 22.481 33.002 23.847 33.163 25.02 C 31.828 25.053 30.758 26.054 30.758 27.289 C 30.758 27.712 30.892 28.107 31.113 28.447 C 30.105 28.855 28.912 28.973 27.899 28.973 Z" style="paint-order: stroke; stroke: rgb(163, 101, 234); fill: rgb(164, 101, 234);"/>
  </g>
  <g/>
  <g/>
  <g/>
  <g/>
  <g/>
  <g/>
  <g/>
  <g/>
  <g/>
  <g/>
  <g/>
  <g/>
  <g/>
  <g/>
  <g/>
</svg>