<?xml version="1.0" encoding="UTF-8"?>
<svg id="Layer_2" xmlns="http://www.w3.org/2000/svg" viewBox="0 0 65.63 65.63"><defs><style>.cls-1{fill:#a465ea;}</style></defs><g id="Layer_1-2"><g><path class="cls-1" d="M44.57,56.25v-14c6.3-.35,9.4-5.36,9.35-9.55-.05-3.99-3.01-8.97-9.35-9.33V9.34c1.02,.05,2.06-.01,3.07,.17,1.04,.19,1.67,1.14,1.69,2.28,.02,1.02,.02,2.05,0,3.07,0,.39,.11,.58,.48,.77,1.27,.67,2.52,1.38,3.74,2.13,.35,.21,.57,.23,.91,.03,.9-.54,1.82-1.05,2.74-1.55,1.35-.74,2.6-.41,3.39,.91,1.55,2.6,3.08,5.2,4.61,7.81,.81,1.39,.47,2.67-.92,3.48-.88,.52-1.77,1.03-2.68,1.51-.35,.19-.43,.4-.41,.81,.05,1.36,.06,2.73,0,4.09-.02,.46,.11,.65,.47,.85,.9,.49,1.79,.99,2.68,1.51,1.31,.77,1.67,2.07,.91,3.38-1.55,2.65-3.11,5.3-4.69,7.93-.76,1.26-2.03,1.58-3.34,.86-.92-.5-1.84-1.01-2.74-1.55-.33-.2-.56-.2-.91,.01-1.22,.75-2.47,1.46-3.74,2.13-.36,.19-.5,.37-.49,.77,.03,1,.02,2,0,3-.03,1.55-.99,2.49-2.55,2.5-.73,0-1.45,0-2.22,0Z"/><path class="cls-1" d="M0,32.82C0,24.37,0,15.93,0,7.48,0,2.98,2.97,0,7.47,0c9.08,0,18.16,0,27.24,0,4.5,0,7.48,2.97,7.48,7.47,0,16.89,0,33.78,0,50.67,0,4.5-2.97,7.48-7.47,7.48-9.08,0-18.16,0-27.24,0C2.98,65.62,0,62.65,0,58.15c0-8.45,0-16.89,0-25.34Zm2.34-.04c0,8.08,0,16.16,0,24.24,0,3.8,2.47,6.26,6.28,6.26,8.3,0,16.6,0,24.9,0,3.86,0,6.32-2.45,6.32-6.3,0-16.11,0-32.22,0-48.33,0-3.86-2.45-6.3-6.32-6.3-8.28,0-16.55,0-24.83,0-3.92,0-6.35,2.43-6.35,6.34,0,8.03,0,16.06,0,24.09Z"/><path class="cls-1" d="M16.34,4.69c.49,2.96,2.2,4.66,4.68,4.69,2.55,.03,4.25-1.61,4.83-4.67,2.84,0,5.69,0,8.55,0,.07,0,.14,.02,.22,.04,1.7,.34,2.86,1.73,2.88,3.48,.02,2.27,0,4.54,0,6.81,0,13.96,0,27.92,0,41.88,0,2.65-1.37,4.02-4,4.02-8.27,0-16.55,0-24.82,0-2.59,0-3.99-1.39-3.99-3.97,0-16.11,0-32.22,0-48.32,0-2.58,1.39-3.96,3.99-3.96,2.29,0,4.59,0,6.88,0h.78Zm-6.35,28.13c.69-.6,1.3-1.15,1.92-1.69,2.09-1.83,4.19-3.66,6.27-5.49,.71-.63,.74-1.44,.1-1.94-.51-.4-1.06-.33-1.7,.23-2.96,2.58-5.91,5.17-8.86,7.76-.95,.83-.94,1.44,.02,2.28,2.66,2.33,5.32,4.66,7.98,6.99,.39,.34,.76,.69,1.17,1,.53,.39,1.18,.31,1.57-.18,.41-.51,.39-1.04-.03-1.53-.17-.2-.39-.37-.59-.54-2.59-2.26-5.17-4.53-7.85-6.87Zm22.21,0c-.42,.37-.77,.68-1.11,.98-2.37,2.07-4.74,4.14-7.1,6.22-.64,.56-.72,1.26-.24,1.79,.47,.51,1.14,.53,1.76-.01,3.05-2.66,6.1-5.32,9.14-8,.7-.62,.7-1.33,0-1.94-3.06-2.69-6.12-5.37-9.19-8.05-.58-.51-1.25-.47-1.7,.02-.47,.51-.42,1.2,.17,1.74,.5,.46,1.02,.9,1.54,1.35,2.22,1.94,4.44,3.88,6.74,5.9Z"/></g></g></svg>