<!DOCTYPE svg PUBLIC "-//W3C//DTD SVG 1.1//EN" "http://www.w3.org/Graphics/SVG/1.1/DTD/svg11.dtd">
<!-- Uploaded to: SVG Repo, www.svgrepo.com, Transformed by: SVG Repo Mixer Tools -->
<svg height="800px" width="800px" version="1.1" id="Layer_1" xmlns="http://www.w3.org/2000/svg" xmlns:xlink="http://www.w3.org/1999/xlink" viewBox="0 0 512 512" xml:space="preserve" fill="#000000" transform="matrix(-1, 0, 0, 1, 0, 0)">
<g id="SVGRepo_bgCarrier" stroke-width="0"/>
<g id="SVGRepo_tracerCarrier" stroke-linecap="round" stroke-linejoin="round"/>
<g id="SVGRepo_iconCarrier"> <g> <path style="fill:#d0d0d0;" d="M262.638,262.638c48.816-48.816,128.244-48.816,177.059-0.001l35.691,35.691 c48.816,48.816,48.816,128.244,0,177.06s-128.244,48.816-177.06,0l-35.691-35.691C213.822,390.882,213.822,311.454,262.638,262.638 z M429.415,429.416c23.466-23.466,23.466-61.649,0-85.114l-35.691-35.691c-23.466-23.466-61.647-23.466-85.113,0l0,0 c-23.466,23.466-23.466,61.649,0,85.113l35.691,35.691C367.768,452.882,405.949,452.882,429.415,429.416z"/> <path style="fill:#d0d0d0;" d="M72.303,249.363l-35.691-35.691c-48.816-48.816-48.816-128.244,0-177.06s128.244-48.816,177.06,0 l35.691,35.691c48.815,48.815,48.815,128.243-0.001,177.059S121.118,298.178,72.303,249.363z M82.585,167.699l35.691,35.691 c23.466,23.466,61.647,23.466,85.113,0l0,0c23.466-23.466,23.466-61.649,0-85.113l-35.691-35.691 c-23.466-23.466-61.649-23.466-85.114,0C59.118,106.051,59.118,144.232,82.585,167.699z"/> </g> <path style="opacity:0.1;enable-background:new ;" d="M308.61,393.724c-23.466-23.466-23.466-61.647,0-85.113l0,0 c23.466-23.466,61.649-23.466,85.113,0l20.799,20.799c-3.161-10.178-8.747-19.758-16.792-27.803l-72.815-72.815 c-22.839,4.862-44.573,16.139-62.28,33.846c-17.705,17.705-28.984,39.439-33.845,62.279l72.815,72.815 c8.044,8.044,17.625,13.632,27.802,16.792L308.61,393.724z"/> <path style="opacity:0.1;enable-background:new ;" d="M203.39,118.276c23.466,23.466,23.466,61.647,0,85.113l0,0 c-23.466,23.466-61.649,23.466-85.113,0l-20.801-20.798c3.161,10.178,8.748,19.758,16.792,27.802l72.815,72.815 c22.839-4.862,44.573-16.139,62.279-33.845c17.707-17.707,28.984-39.441,33.846-62.28l-72.815-72.815 c-8.045-8.045-17.625-13.632-27.803-16.792L203.39,118.276z"/> <path style="fill:#94989b;" d="M139.344,139.344c12.696-12.696,33.278-12.695,45.973,0l187.339,187.339 c12.695,12.695,12.696,33.277,0,45.973c-12.696,12.696-33.278,12.695-45.973,0L139.344,185.317 C126.65,172.623,126.65,152.039,139.344,139.344z"/> </g>
</svg>