<!DOCTYPE svg PUBLIC "-//W3C//DTD SVG 1.1//EN" "http://www.w3.org/Graphics/SVG/1.1/DTD/svg11.dtd">
<!-- Uploaded to: SVG Repo, www.svgrepo.com, Transformed by: SVG Repo Mixer Tools -->
<svg height="800px" width="800px" version="1.1" id="Layer_1" xmlns="http://www.w3.org/2000/svg" xmlns:xlink="http://www.w3.org/1999/xlink" viewBox="0 0 511.999 511.999" xml:space="preserve" fill="#000000">
<g id="SVGRepo_bgCarrier" stroke-width="0"/>
<g id="SVGRepo_tracerCarrier" stroke-linecap="round" stroke-linejoin="round"/>
<g id="SVGRepo_iconCarrier"> <path style="fill:#FFCF65;" d="M468.044,242.575c-58.605-58.605-153.624-58.605-212.229,0s-58.605,153.624,0,212.229 s153.624,58.605,212.229,0S526.651,301.18,468.044,242.575z M318.235,392.383v-87.389h87.389v87.388L318.235,392.383 L318.235,392.383z"/> <path style="fill:#C8A564;" d="M443.077,267.542c-44.816-44.815-117.477-44.815-162.293,0s-44.815,117.477,0,162.293 s117.477,44.816,162.293,0S487.892,312.359,443.077,267.542z M318.235,392.383v-87.389h87.389v87.388L318.235,392.383 L318.235,392.383z"/> <path style="fill:#FFCF65;" d="M311.548,399.071c-1.597-1.597-2.584-3.804-2.584-6.242V304.55c0-4.876,3.95-8.826,8.826-8.826 h88.279c4.876,0,8.826,3.95,8.826,8.826v88.279c0,4.876-3.95,8.826-8.826,8.826H317.79 C315.352,401.655,313.146,400.668,311.548,399.071z M326.617,313.376v70.625h70.625v-70.625H326.617z"/> <path style="fill:#BE9155;" d="M274.541,436.077c-48.186-48.186-48.186-126.591,0-174.777s126.591-48.186,174.777,0 s48.186,126.591,0,174.777S322.728,484.265,274.541,436.077z M436.835,273.785c-41.305-41.304-108.507-41.302-149.809,0 s-41.305,108.504,0,149.809s108.507,41.302,149.809,0S478.139,315.09,436.835,273.785z"/> <path style="fill:#FFCF65;" d="M256.183,242.575c-58.605-58.605-153.624-58.605-212.229,0s-58.605,153.624,0,212.229 s153.624,58.605,212.229,0S314.788,301.18,256.183,242.575z M106.374,392.383v-87.389h87.388v87.388L106.374,392.383 L106.374,392.383z"/> <path style="fill:#C8A564;" d="M231.214,267.542c-44.815-44.815-117.477-44.815-162.293,0s-44.815,117.477,0,162.293 s117.477,44.816,162.293,0S276.031,312.359,231.214,267.542z M106.374,392.383v-87.389h87.388v87.388L106.374,392.383 L106.374,392.383z"/> <path style="fill:#FFCF65;" d="M99.687,399.071c-1.597-1.597-2.584-3.804-2.584-6.242V304.55c0-4.876,3.95-8.826,8.826-8.826h88.279 c4.876,0,8.826,3.95,8.826,8.826v88.279c0,4.876-3.95,8.826-8.826,8.826h-88.279C103.49,401.655,101.283,400.668,99.687,399.071z M114.755,313.376v70.625h70.625v-70.625H114.755z"/> <path style="fill:#BE9155;" d="M62.679,436.077c-48.186-48.186-48.186-126.591,0-174.777s126.591-48.186,174.777,0 s48.186,126.591,0,174.777S110.867,484.265,62.679,436.077z M224.973,273.785c-41.305-41.304-108.507-41.302-149.809,0 s-41.304,108.504,0,149.809s108.507,41.302,149.809,0S266.277,315.09,224.973,273.785z"/> <path style="fill:#FFCF65;" d="M255.999,13.241c-82.881,0-150.069,67.188-150.069,150.069s67.188,150.069,150.069,150.069 s150.069-67.188,150.069-150.069S338.88,13.241,255.999,13.241z M255.999,225.103l-61.793-61.793l61.793-61.793l61.793,61.793 L255.999,225.103z"/> <path style="fill:#C8A564;" d="M255.999,48.551c-63.38,0-114.758,51.38-114.758,114.758s51.38,114.758,114.758,114.758 s114.758-51.38,114.758-114.758S319.378,48.551,255.999,48.551z M255.999,225.103l-61.793-61.793l61.793-61.793l61.793,61.793 L255.999,225.103z"/> <path style="fill:#FFCF65;" d="M255.999,234.56c-2.259,0-4.518-0.862-6.241-2.586l-62.422-62.422c-3.448-3.448-3.448-9.035,0-12.483 l62.422-62.422c3.448-3.448,9.035-3.448,12.483,0l62.422,62.422c3.448,3.448,3.448,9.035,0,12.483l-62.422,62.422 C260.516,233.697,258.257,234.56,255.999,234.56z M206.059,163.31l49.94,49.94l49.94-49.94l-49.94-49.94L206.059,163.31z"/> <path style="fill:#BE9155;" d="M255.999,286.896c-68.147,0-123.586-55.439-123.586-123.586S187.852,39.724,255.999,39.724 S379.585,95.163,379.585,163.31S324.145,286.896,255.999,286.896z M255.999,57.379c-58.414,0-105.931,47.521-105.931,105.931 s47.518,105.931,105.931,105.931S361.929,221.72,361.929,163.31S314.413,57.379,255.999,57.379z"/> <g> <path style="fill:#C7C5CA;" d="M326.619,339.861H185.378c-4.875,0-8.828-3.953-8.828-8.828v-17.655 c0-4.875,3.953-8.828,8.828-8.828h141.241c4.875,0,8.828,3.953,8.828,8.828v17.655C335.447,335.91,331.495,339.861,326.619,339.861 z"/> <path style="fill:#C7C5CA;" d="M246.673,203.036l74.666,129.324c2.438,4.222,7.837,5.668,12.058,3.231l15.289-8.828 c4.222-2.438,5.668-7.837,3.231-12.058l-74.666-129.324c-2.438-4.222-7.837-5.668-12.058-3.231l-15.289,8.828 C245.682,193.415,244.236,198.813,246.673,203.036z"/> <path style="fill:#C7C5CA;" d="M263.642,203.036L188.976,332.36c-2.438,4.222-7.837,5.668-12.058,3.231l-15.289-8.828 c-4.222-2.438-5.668-7.837-3.231-12.058l74.666-129.324c2.438-4.222,7.837-5.668,12.058-3.231l15.289,8.828 C264.633,193.415,266.08,198.813,263.642,203.036z"/> </g> <g> <path style="fill:#797680;" d="M205.032,339.861l20.387-35.31h-20.386l-16.055,27.809c-1.634,2.831-4.602,4.415-7.654,4.415 c-0.979,0-1.952-0.228-2.906-0.565c1.609,2.161,4.06,3.651,6.961,3.651H205.032z"/> <path style="fill:#797680;" d="M246.673,203.036c-2.438-4.223-0.991-9.621,3.231-12.058l5.254-3.033l-10.037-5.794 c-4.222-2.438-9.621-0.991-12.058,3.231l-4.569,7.913c-1.269,6.138-0.483,12.727,2.89,18.57l13.581,23.523l10.193-17.655 L246.673,203.036z"/> <path style="fill:#797680;" d="M337.134,289.098c-3.228-1.404-6.776-2.202-10.515-2.202h-31.53l10.193,17.655h21.337 c4.875,0,8.828,3.953,8.828,8.828v17.655c0,1.459-0.439,2.777-1.066,3.989l14.306-8.259c4.223-2.438,5.669-7.837,3.231-12.058 L337.134,289.098z"/> </g> </g>
</svg>