<!DOCTYPE svg PUBLIC "-//W3C//DTD SVG 1.1//EN" "http://www.w3.org/Graphics/SVG/1.1/DTD/svg11.dtd">
<!-- Uploaded to: SVG Repo, www.svgrepo.com, Transformed by: SVG Repo Mixer Tools -->
<svg height="800px" width="800px" version="1.1" id="Layer_1" xmlns="http://www.w3.org/2000/svg" xmlns:xlink="http://www.w3.org/1999/xlink" viewBox="-50.8 -50.8 609.60 609.60" xml:space="preserve" fill="#000000" transform="rotate(0)matrix(-1, 0, 0, 1, 0, 0)" stroke="#000000" stroke-width="0.00508">
<g id="SVGRepo_bgCarrier" stroke-width="0"/>
<g id="SVGRepo_tracerCarrier" stroke-linecap="round" stroke-linejoin="round"/>
<g id="SVGRepo_iconCarrier"> <circle style="fill:#C7C5CA;" cx="254" cy="254" r="254"/> <path style="fill:#324A5E;" d="M389.2,155.6c-2.4-3.6-7.6-4.4-11.2-1.6l-124,90.4l-126-83.6c-3.6-2.4-8.4-1.6-11.2,2.4 c-2.4,3.6-1.6,8.4,2.4,11.2L244.8,258l-41.6,147.2c-1.2,4.4,1.2,8.8,5.6,9.6c0.8,0.4,1.6,0.4,2,0.4c3.6,0,6.8-2.4,7.6-5.6 l42.4-150.4l126.4-92C390.8,164,391.6,159.2,389.2,155.6z"/> <circle style="fill:#FFFFFF;" cx="254" cy="254" r="69.6"/> <circle style="fill:#797680;" cx="254" cy="254" r="48.4"/> <g> <circle style="fill:#FFFFFF;" cx="382.8" cy="160.4" r="38.8"/> <circle style="fill:#FFFFFF;" cx="123.6" cy="167.2" r="38.8"/> <circle style="fill:#FFFFFF;" cx="210.8" cy="406.8" r="38.8"/> </g> </g>
</svg>