<svg id="bd5f3831-ea18-4f45-97e6-48839e21ced2" data-name="Layer 1" xmlns="http://www.w3.org/2000/svg" viewBox="0 0 100 100"><defs><style>.fc7b5f09-ff30-4fec-a7a4-848216758e90{fill:#661eb9;}</style></defs><g id="f0c84c4b-e067-4e0d-b341-72d174067473" data-name="headphones"><path id="b0a05f2c-e14e-4520-a37b-4bf011ea9cd2" data-name="combo shape" class="fc7b5f09-ff30-4fec-a7a4-848216758e90" d="M50,16.09178a30.24246,30.24246,0,0,0-30.24246,29.359A11.91736,11.91736,0,0,1,38.0863,55.49863v7.33151a11.9137,11.9137,0,0,1-23.82739,0V46.33425a35.74109,35.74109,0,1,1,71.48218,0V64.663A24.74383,24.74383,0,0,1,60.99726,89.40685H50a2.74932,2.74932,0,0,1,0-5.49863H60.99726a19.23789,19.23789,0,0,0,16.79281-9.83888A11.921,11.921,0,0,1,61.9137,62.83014V55.49863A11.91736,11.91736,0,0,1,80.24246,45.4508,30.24246,30.24246,0,0,0,50,16.09178Z"/></g></svg>