<svg id="fa081275-4312-4751-ae15-b4c6c5cb9b41" data-name="Layer 1" xmlns="http://www.w3.org/2000/svg" xmlns:xlink="http://www.w3.org/1999/xlink" viewBox="0 0 100 100"><defs><style>.bd1e62f4-9d5c-4777-846b-b8dfefea4ba1{fill:none;}.ffb70dbb-bfea-483b-8b8c-2192ef32eebc{clip-path:url(#bc462f1d-5177-41b2-bc0e-844e76dfbc2a);}.f06bf262-76fb-42c1-805b-5bb8294e7d43{fill:#8759c9;}.ab3d0565-8f10-417e-ba2a-e0dd3cd54192{fill:#661eb9;}</style><clipPath id="bc462f1d-5177-41b2-bc0e-844e76dfbc2a"><rect class="bd1e62f4-9d5c-4777-846b-b8dfefea4ba1" width="100" height="100"/></clipPath></defs><g class="ffb70dbb-bfea-483b-8b8c-2192ef32eebc"><path class="f06bf262-76fb-42c1-805b-5bb8294e7d43" d="M83.78921,6.98766c.55221.18222,1.11954.32838,1.65422.55245a7.03808,7.03808,0,1,1-6.17141,12.626c-.21818-.1221-.42976-.256-.69814-.41657-.22018.20567-.44579.40441-.65805.6165-3.19038,3.18784-6.36747,6.38912-9.58029,9.55416a1.57546,1.57546,0,0,0-.52242,1.58712,7.00807,7.00807,0,0,1-10.287,7.32405,6.72035,6.72035,0,0,1-3.63323-6.52459c.02369-.68608.30319-1.3599.39169-2.04878a1.25266,1.25266,0,0,0-.18666-.92082c-3.16716-3.21062-6.36307-6.39288-9.55443-9.57961a3.84394,3.84394,0,0,0-.31852-.25893c-3.29429,2.71909-5.7068,2.84811-9.78611.50624l-11.3873,8.525a7.69883,7.69883,0,0,1,1.25342,4.46172A7.03263,7.03263,0,1,1,19.29352,25.893a1.22039,1.22039,0,0,0,1.22167-.215q5.6655-4.27619,11.36349-8.50919a.80159.80159,0,0,0,.37055-.96364,6.73874,6.73874,0,0,1,2.648-7.20573,6.61343,6.61343,0,0,1,7.50879-.569A6.86176,6.86176,0,0,1,46.13455,15.165a1.55872,1.55872,0,0,0,.29061,1.04382c3.44267,3.48962,6.91636,6.94863,10.38455,10.41305a1.42019,1.42019,0,0,0,.2154.146,7.231,7.231,0,0,1,8.58223.60707c.60639-.64072,1.204-1.30032,1.83138-1.93022,2.74784-2.75879,5.512-5.50137,8.24306-8.27663a1.228,1.228,0,0,0,.31687-.975,7.04253,7.04253,0,0,1,5.32152-9.05858,1.36038,1.36038,0,0,0,.28373-.14681Z"/><path class="ab3d0565-8f10-417e-ba2a-e0dd3cd54192" d="M75.47626,92.98725V31.07915H89.95467v61.9081Z"/><path class="ab3d0565-8f10-417e-ba2a-e0dd3cd54192" d="M31.89539,31.73129H46.28651V93.00348H31.89539Z"/><path class="ab3d0565-8f10-417e-ba2a-e0dd3cd54192" d="M24.50295,93.01234H10.04533V49.73862H24.50295Z"/><path class="ab3d0565-8f10-417e-ba2a-e0dd3cd54192" d="M53.71777,49.69836H68.10628V93.00021H53.71777Z"/></g></svg>