<svg id="a8615e8a-bf3d-4191-9ca1-2e8f6da0230e" data-name="Layer 1" xmlns="http://www.w3.org/2000/svg" viewBox="0 0 60 60"><defs><style>.e170955e-406f-4126-a942-6c16fb77b0e8{fill:#dac2f8;}.f7e6d707-7063-42a4-8ce6-44a515144a82{fill:#fff;}.bf37ef85-3e16-4171-a20f-c4f65924fb6c{fill:#5220a1;}</style></defs><circle class="e170955e-406f-4126-a942-6c16fb77b0e8" cx="46.15912" cy="25.16783" r="9.3089"/><circle class="e170955e-406f-4126-a942-6c16fb77b0e8" cx="22.3768" cy="40.47538" r="9.3089"/><path class="f7e6d707-7063-42a4-8ce6-44a515144a82" d="M21.08557,36.42644c.15554-.39856-.23707-1.09411.65188-1.08393,1.1934.01368,1.19369-.01174,1.39923,1.11145a2.9832,2.9832,0,0,1,2.927,1.31778,2.68585,2.68585,0,0,1-.19336,3.16015,2.69692,2.69692,0,0,1,.194,3.16922,2.91362,2.91362,0,0,1-2.92257,1.30351c-.22934,1.19712-.229,1.19-1.48081,1.13446-.8062-.03579-.41777-.68708-.60166-1.13838-.66844,0-1.37414.001-2.07984-.00029-.6813-.00123-.71263-.03358-.7157-.71555-.00022-.04862-.00091-.09725,0-.14585.02066-1.04991-.15016-1.01631.97081-1.11812V38.48937c-.04188-.02179-.06858-.04661-.09709-.04892-.87375-.0707-.87378-.07036-.87384-.97508-.00008-.98885-.00008-.988.982-.98927q.85086-.0011,1.70172-.009A.52886.52886,0,0,0,21.08557,36.42644Zm.14716,7.01524c.89227,0,1.76117.0224,2.628-.00991a.75006.75006,0,0,0,.02714-1.486c-.88032-.04514-1.76457-.01372-2.65516-.01372Zm-.00734-3.49415c.901,0,1.75489.0168,2.60761-.00732a.68008.68008,0,0,0,.68752-.68155.64877.64877,0,0,0-.55684-.7846c-.90661-.056-1.819-.01783-2.73829-.01783Z"/><path class="f7e6d707-7063-42a4-8ce6-44a515144a82" d="M44.89029,20.71547c.15555-.39857-.23706-1.09412.65189-1.08393,1.1934.01368,1.19369-.01175,1.39923,1.11144a2.98323,2.98323,0,0,1,2.927,1.31778,2.68587,2.68587,0,0,1-.19336,3.16016,2.69689,2.69689,0,0,1,.194,3.16921,2.91359,2.91359,0,0,1-2.92256,1.30352c-.22934,1.19711-.229,1.19-1.48081,1.13445-.80621-.03578-.41777-.68708-.60167-1.13838-.66843,0-1.37413.001-2.07983-.00028-.6813-.00123-.71263-.03359-.7157-.71556-.00022-.04861-.00091-.09725,0-.14585.02066-1.04991-.15016-1.0163.97081-1.11812V22.77839c-.04188-.02179-.06858-.04661-.09709-.04892-.87375-.07069-.87378-.07035-.87384-.97508-.00008-.98884-.00008-.988.982-.98926q.85086-.00109,1.70172-.009A.52906.52906,0,0,0,44.89029,20.71547Zm.14717,7.01524c.89227,0,1.76117.02239,2.628-.00991a.75006.75006,0,0,0,.02714-1.486c-.88032-.04513-1.76457-.01371-2.65516-.01371Zm-.00734-3.49416c.901,0,1.75488.01681,2.60761-.00732a.68008.68008,0,0,0,.68752-.68155.64878.64878,0,0,0-.55684-.7846c-.90661-.05595-1.819-.01783-2.73829-.01783Z"/><path class="bf37ef85-3e16-4171-a20f-c4f65924fb6c" d="M14.68169,18.3221c.13278-.66152.282-1.32038.38952-1.986a1.668,1.668,0,0,0-.04869-.73384Q13.08194,9.33149,11.11975,3.06739c-.37181-1.19206.08639-1.75308,1.32747-1.61116a5.13358,5.13358,0,0,1,2.60115,1.07845,3.09109,3.09109,0,0,0,4.1809-.001A5.02655,5.02655,0,0,1,25.51005,2.53a3.11568,3.11568,0,0,0,4.232-.02087,4.89473,4.89473,0,0,1,2.90587-1.068c.89739-.02369,1.31822.5231,1.05253,1.38249q-1.85117,5.98761-3.72843,11.96708a.80883.80883,0,0,0,.21273.934,2.76316,2.76316,0,0,1,.50475,3.0956,16.92575,16.92575,0,0,1,5.17178,4.43733A10.49211,10.49211,0,1,1,52.2268,33.81108c.42946,0,.7263,0,1.02314,0,.79349,0,1.587-.00553,2.38047.00137a2.84276,2.84276,0,0,1,1.1184,5.49249c-.07183.03217-.14045.07151-.16625.08476v2.15616a2.84194,2.84194,0,0,1,1.96749,2.7103,2.8131,2.8131,0,0,1-1.96742,2.75534v2.16a2.87357,2.87357,0,0,1-.01412,5.45883,9.28365,9.28365,0,0,1-.01825,1.74774,2.75943,2.75943,0,0,1-2.63041,2.1868c-.11881.00568-.238.00479-.357.00479q-24.31066.00029-48.62133-.00068a3.32827,3.32827,0,0,1-3.3473-2.26425,3.29351,3.29351,0,0,1,1.49346-3.89709,10.80732,10.80732,0,0,1,1.06-.53715,1.72169,1.72169,0,0,0,1.09983-1.78017q-.03312-7.8852-.00786-15.77063.03258-10.69,9.4315-15.81212c.05142-.02791.099-.06293.14833-.09463ZM40.12857,33.81119c-.1834-.15737-.25109-.22015-.32351-.27692a10.505,10.505,0,0,1-3.9535-6.57038,2.01831,2.01831,0,0,0-.20735-.60952A14.80292,14.80292,0,0,0,29.621,20.43482a.85524.85524,0,0,0-.43277-.16312c-.61482.07893-1.22462.19692-1.87066.3067.22051.74884.44711,1.50575.66589,2.26491.20673.71735-.00646,1.22723-.57751,1.40428-.54954.17039-1.02551-.15667-1.24444-.86812-.29517-.95923-.58251-1.92088-.87872-2.8997-1.61073,0-3.176-.00954-4.74064.01526a.61713.61713,0,0,0-.43445.3398c-.22786.56878-.39324,1.1622-.5993,1.74024a.95633.95633,0,1,1-1.80208-.60326c.14614-.482.30253-.96081.47681-1.512a6.66368,6.66368,0,0,1-.91335-.00867,2.17912,2.17912,0,0,1-.84646-.25163.80043.80043,0,0,0-.92545.0282c-5.3407,2.88977-8.2044,7.3672-8.332,13.43433-.11548,5.49152-.034,10.98741-.019,16.48132a3.43745,3.43745,0,0,1-2.07,3.37758,11.27578,11.27578,0,0,0-1.10339.58061,1.357,1.357,0,0,0-.59735,1.498,1.41264,1.41264,0,0,0,1.22831,1.05535,3.79234,3.79234,0,0,0,.4161.01006q14.191.0006,28.38211-.001c.16914,0,.33828-.02014.51019-.03105-.26733-1.94781.086-2.61663,1.87307-3.68016V50.8245a2.87914,2.87914,0,0,1-.0022-5.46334V43.20324a2.80427,2.80427,0,0,1-1.9685-2.753,2.86855,2.86855,0,0,1,2.05815-2.7453c-.02327-.12249-.03574-.19976-.05276-.276a2.84236,2.84236,0,0,1,2.89986-3.61729C39.13631,33.80851,39.5522,33.81119,40.12857,33.81119Zm14.62208-8.569a8.56841,8.56841,0,1,0-8.5994,8.56488A8.57734,8.57734,0,0,0,54.75065,25.24215ZM13.46677,3.75822l-.11529.071,3.43245,10.95814h2.41891c-.166-.59742-.30567-1.10961-.45073-1.62028-.36232-1.27547-.73468-2.54814-1.0875-3.82622a.95361.95361,0,1,1,1.8237-.535c.06222.18756.10391.38185.15838.57209.51155,1.78691,1.02383,3.57361,1.54379,5.3879.62178,0,1.21723-.03386,1.80671.01091a.66053.66053,0,0,0,.7967-.55731c.45429-1.45432.94608-2.897,1.43386-4.34072.22386-.66255.71545-.95722,1.24851-.77714a.97434.97434,0,0,1,.55741,1.3583c-.27276.84767-.56122,1.69028-.83977,2.5361-.18821.57148-.371,1.14474-.57324,1.76986.66241,0,1.23806-.03027,1.80878.0098.43782.03075.60924-.13093.73612-.545,1.02035-3.33,2.06825-6.65155,3.10528-9.97646.04716-.15122.07079-.30978.13129-.58112-.32724.23889-.54928.4024-.77277.56391a4.99528,4.99528,0,0,1-6.08208-.04647,3.16676,3.16676,0,0,0-4.33264-.00972,4.9746,4.9746,0,0,1-6.07846.05892Q13.80186,3.99844,13.46677,3.75822ZM47.196,35.7156q-4.10627,0-8.21252.00044a2.98508,2.98508,0,0,0-.53443.01445.94466.94466,0,0,0-.002,1.8734,3.30228,3.30228,0,0,0,.59377.01576q8.09351.00087,16.187,0a4.18738,4.18738,0,0,0,.59419-.01414.95222.95222,0,0,0,.82576-1.056c-.07151-.54-.4756-.83205-1.17977-.83276Q51.332,35.71261,47.196,35.7156Zm-2.00314,5.71356q4.07652,0,8.153-.00031A4.51208,4.51208,0,0,0,53.881,41.419a.93509.93509,0,0,0,.864-.96388.91886.91886,0,0,0-.84776-.91853,3.35569,3.35569,0,0,0-.53476-.0116q-8.12328-.00062-16.24656.00024a3.04305,3.04305,0,0,0-.59344.01849A.94365.94365,0,0,0,36.5062,41.407a2.88148,2.88148,0,0,0,.59312.02143Q41.14608,41.43,45.19284,41.42916Zm1.90513,3.809q4.07652,0,8.153-.0003a4.50781,4.50781,0,0,0,.53509-.00973.93567.93567,0,0,0,.86338-.96458.91886.91886,0,0,0-.84832-.918,3.37124,3.37124,0,0,0-.53477-.01155q-8.12326-.0006-16.24654.00024a3.03342,3.03342,0,0,0-.59343.01861.94363.94363,0,0,0-.01509,1.86331,2.89089,2.89089,0,0,0,.59313.02133Q43.05121,45.23906,47.098,45.2382Zm-1.92608,3.809q4.10627,0,8.21253-.00046a2.90542,2.90542,0,0,0,.53435-.015.94474.94474,0,0,0-.001-1.87365,3.38665,3.38665,0,0,0-.59387-.01495q-8.09351-.00081-16.187,0a3.3687,3.3687,0,0,0-.59384.01524.94468.94468,0,0,0,.001,1.87343,2.92719,2.92719,0,0,0,.53437.01494Q41.12512,49.04779,45.17189,49.04724Zm1.96356,1.90452q-4.0765,0-8.153.00045a2.97082,2.97082,0,0,0-.53441.0146.945.945,0,0,0,0,1.874,2.9163,2.9163,0,0,0,.53436.015q8.153.00084,16.306,0a2.91018,2.91018,0,0,0,.53437-.01495.94505.94505,0,0,0,.00014-1.87419,2.97,2.97,0,0,0-.53442-.01448Q51.212,50.95125,47.13545,50.95176Zm-1.9042,3.809q-4.07652,0-8.153.00045a2.97284,2.97284,0,0,0-.53442.01455.945.945,0,0,0-.00063,1.874,2.91092,2.91092,0,0,0,.53436.01508q8.153.00086,16.306,0A2.91551,2.91551,0,0,0,53.918,56.65a.945.945,0,0,0,.00073-1.8742,2.96709,2.96709,0,0,0-.53441-.01453Q49.30775,54.76029,45.23125,54.76081Zm-22.378-36.186c1.66624,0,3.33249.00273,4.99871-.00124.74867-.00178,1.18654-.35985,1.1859-.952-.00065-.59359-.436-.94933-1.18694-.94994q-4.99871-.00412-9.99743,0c-.75151.00064-1.18507.35609-1.185.951.00012.594.43493.94919,1.186.951C19.52082,18.57758,21.18706,18.57485,22.8533,18.57485Z"/><path class="bf37ef85-3e16-4171-a20f-c4f65924fb6c" d="M22.37445,30.00272a10.47286,10.47286,0,1,1-10.4698,10.48979A10.49679,10.49679,0,0,1,22.37445,30.00272Zm.03892,1.90489a8.56953,8.56953,0,1,0,8.53323,8.57567A8.57691,8.57691,0,0,0,22.41337,31.90761Z"/></svg>