<svg id="a9982d0d-5f70-4f6c-9a49-886d9d16809b" data-name="Layer 1" xmlns="http://www.w3.org/2000/svg" xmlns:xlink="http://www.w3.org/1999/xlink" viewBox="0 0 150 150"><defs><style>.b526c4be-a7f7-4bb7-84f7-45d8d518deaa{fill:url(#ba0bb7d2-60a8-4705-a731-91700ab89646);}</style><linearGradient id="ba0bb7d2-60a8-4705-a731-91700ab89646" x1="75.42553" y1="3.45769" x2="74.50833" y2="146.5405" gradientUnits="userSpaceOnUse"><stop offset="0" stop-color="#28dcfe"/><stop offset="1" stop-color="#8444fb"/></linearGradient></defs><path class="b526c4be-a7f7-4bb7-84f7-45d8d518deaa" d="M4.57325,64.82367c.1504-.37147.31531-.73781.4489-1.11523a7.7005,7.7005,0,0,1,6.56922-5.49879,1.838,1.838,0,0,0,1.79088-1.61786,64.39356,64.39356,0,0,1,7.28533-16.8277c.91635-1.50755,1.95584-1.8821,3.12867-1.13572,1.11271.70813,1.28179,1.808.42342,3.22322a65.16525,65.16525,0,0,0-6.98092,16.07272c-.2261.796-.20414,1.32061.59478,1.80221a4.579,4.579,0,0,1,1.54773,1.52968c.628,1.0736,1.36662,1.11295,2.49783.88164a125.03849,125.03849,0,0,1,22.92457-2.45612,2.10214,2.10214,0,0,0,1.97123-1.07893A7.962,7.962,0,0,1,54.93865,54.935a1.855,1.855,0,0,0,2.01961-.893A89.273,89.273,0,0,1,69.69837,40.21236a1.6761,1.6761,0,0,0,.63529-2.06789,12.80012,12.80012,0,0,1-.37156-4.04008,1.26843,1.26843,0,0,0-.70333-1.40263,90.70186,90.70186,0,0,0-20.27235-8.6303,8.55719,8.55719,0,0,1-12.52662,2.955c-1.80135,1.8763-3.59608,3.81625-5.48185,5.66324a3.01507,3.01507,0,0,1-1.94494.97357,2.41949,2.41949,0,0,1-1.7388-1.25176,2.40684,2.40684,0,0,1,.385-2.08883c1.73339-1.9482,3.59421-3.78723,5.47259-5.59965a1.42663,1.42663,0,0,0,.46536-1.74786,8.0975,8.0975,0,0,1,3.20122-9.54511,8.0632,8.0632,0,0,1,10.1419.63863,1.20205,1.20205,0,0,0,1.55986.18524A66.40806,66.40806,0,0,1,83.85824,7.6286a64.04224,64.04224,0,0,1,22.94366,6.17562,1.66627,1.66627,0,0,0,2.06724-.1482,7.89886,7.89886,0,0,1,9.36744-.361,8.18913,8.18913,0,0,1,3.69083,8.91231,1.5865,1.5865,0,0,0,.62011,1.99282,4.06257,4.06257,0,0,1,.715.64212c1.56413,1.71383,3.04142,2.78553,5.79975,2.0963,3.31642-.8287,6.05358,1.01781,7.81935,3.9161a7.759,7.759,0,0,1-.08357,8.69848,1.78811,1.78811,0,0,0-.06149,2.177,66.73141,66.73141,0,0,1,8.19076,41.33632c-1.94236,16.59639-9.24667,30.50964-21.43435,41.888a1.36406,1.36406,0,0,0-.43952,1.65093,8.30522,8.30522,0,0,1-13.16279,8.99228,1.2356,1.2356,0,0,0-1.57246-.12842,66.2717,66.2717,0,0,1-35.95968,6.896,63.97658,63.97658,0,0,1-24.04761-6.73492,1.91743,1.91743,0,0,0-2.30569.14863,7.96142,7.96142,0,0,1-9.27183-.14752,8.06821,8.06821,0,0,1-3.34524-8.6642,1.75185,1.75185,0,0,0-.593-2.00039A67.40615,67.40615,0,0,1,11.13577,81.15038c-.18637-1.86641-.17571-3.75184-.311-5.62451-.028-.38828-.211-1.00934-.47021-1.09975a9.07114,9.07114,0,0,1-5.78136-6.30106Zm46.70554,6.44459a1.95835,1.95835,0,0,0-.2271.30741,89.99462,89.99462,0,0,0-8.72213,48.0327,1.52718,1.52718,0,0,0,.95676,1.00875,8.39968,8.39968,0,0,1,4.666,2.9619,1.067,1.067,0,0,0,1.4699.44055,124.75212,124.75212,0,0,0,54.02478-39.012,1.13264,1.13264,0,0,0,.17149-1.55288,7.52627,7.52627,0,0,1-1.07606-5.14082,1.42528,1.42528,0,0,0-.99173-1.74674A124.48855,124.48855,0,0,0,68.4055,65.69463c-2.14535-.3842-4.31017-.65966-6.42165-.97861C60.15907,70.02985,56.89924,71.97975,51.27879,71.26826Zm63.9469,15.235c.027.1299.055.26331.08242.39685.70014,3.40546,1.44754,6.8022,2.07759,10.22058a1.88958,1.88958,0,0,1-1.52961,2.48623c-1.38994.31981-2.263-.48743-2.59526-2.27033-.601-3.22534-1.25236-6.44131-1.85031-9.49576l-4.24226-.87119c-.27552.33691-.59253.72371-.90864,1.11125A127.97783,127.97783,0,0,1,52.558,127.19012c-1.71465.66527-3.22328,1.19325-2.95306,3.43993a2.79253,2.79253,0,0,1-.16892.868,1.99579,1.99579,0,0,0,.27891.22369c18.82152,9.10116,37.66888,9.09906,56.55536.187.77622-.36628.73145-.8346.66218-1.52413a8.47494,8.47494,0,0,1,6.031-9.323,1.679,1.679,0,0,0,.93232-1.18193c.20939-3.29069.31449-6.588.44971-9.88339.05782-1.40907.81513-2.241,2.05405-2.24879a1.971,1.971,0,0,1,2.05552,2.22774c-.08458,3.34263-.10907,6.6976-.44834,10.01789-.14509,1.4198.76348,1.50636,1.46848,2.04506.787.60138,1.15115-.03953,1.59191-.44931a64.22564,64.22564,0,0,0,14.09635-19.149,1.539,1.539,0,0,0-.42243-2.10392,135.4174,135.4174,0,0,0-16.83518-14.122C116.85567,85.46767,116.10263,85.26558,115.22569,86.50322ZM44.89907,63.78441c.24136.06467.15086.01271.06708.02191-7.647.8395-15.295,1.67114-22.93509,2.5694-.33669.03958-.81893.66524-.8653,1.061a7.5822,7.5822,0,0,1-4.814,6.50864,1.90508,1.90508,0,0,0-1.38718,2.21023,69.57088,69.57088,0,0,0,13.52031,37.74c2.21448,3.05472,4.88235,5.78075,7.1467,8.42906,2.6564-.59148,2.63037-2.14976,2.47353-3.96539a90.31794,90.31794,0,0,1,.73378-21.25077,95.68229,95.68229,0,0,1,8.4518-27.31463,1.50009,1.50009,0,0,0,.12466-1.11165C46.65922,67.09756,45.81943,65.55286,44.89907,63.78441Zm61.554-39.46579A85.56967,85.56967,0,0,0,86.85636,32.8619c-.32167.19218-.43409.87268-.49045,1.34419a24.12514,24.12514,0,0,1-.37366,3.77534,1.89989,1.89989,0,0,0,.65945,2.31644,92.68056,92.68056,0,0,1,21.3515,27.68595c.92826,1.83447,1.711,3.38979,4.18469,3.08265.65329-.08111,1.036-.09221,1.3899-.694A126.95406,126.95406,0,0,0,125.473,43.43862a1.17812,1.17812,0,0,0-.56047-1.5655A8.14716,8.14716,0,0,1,121.67,36.78438a8.93657,8.93657,0,0,1,1.28476-6.5803l-3.63843-3.39024C113.86542,29.83259,109.83374,29.06638,106.45308,24.31862Zm31.03864,72.408c.04575-.11693.18755-.45167.30889-.79367a60.344,60.344,0,0,0,3.33025-16.22125,63.2237,63.2237,0,0,0-7.84745-35.69535c-.21489-.38643-.92619-.92058-1.11968-.82225-.86539.43979-2.22584-.359-2.67235,1.123a130.04355,130.04355,0,0,1-12.3688,28.22113,1.57159,1.57159,0,0,0,.1204,1.389c1.09892,1.53393,2.11051,3.23306,1.75593,5.0677-.49394,2.55581.65339,3.85975,2.67154,4.85791a1.867,1.867,0,0,1,.33183.24383C127.14394,88.28827,132.285,92.48069,137.49172,96.72657ZM59.90763,56.9755c.73506,3.348,3.08366,3.75194,5.832,4.14638a125.17287,125.17287,0,0,1,37.9441,11.886,1.85652,1.85652,0,0,0,1.51983-.06554c.20377-.11661.18734-.97913-.00337-1.37142A91.34886,91.34886,0,0,0,83.62,43.06092a1.24416,1.24416,0,0,0-1.67051-.21545,7.41687,7.41687,0,0,1-6.878.29993,2.38165,2.38165,0,0,0-3.15934.55047A94.48218,94.48218,0,0,0,59.90763,56.9755Zm45.74056-39.14768c-.5222-.25319-1.12794-.56593-1.74883-.845a63.25734,63.25734,0,0,0-53.31323.87776,1.64272,1.64272,0,0,0-.80117,1.27005,1.7393,1.7393,0,0,0,1.01894,1.1252c2.74028,1.02462,5.58391,1.79819,8.26191,2.95824,4.43815,1.92252,8.777,4.07436,13.25011,6.173,4.1359-3.09842,6.65965-3.09679,11.94626.14884a89.38754,89.38754,0,0,1,18.9844-8.51333C104.8348,20.53244,106.0529,20.00148,105.64819,17.82782ZM12.902,70.61837a4.08528,4.08528,0,0,0,4.11971-4.35056,4.14042,4.14042,0,0,0-4.25018-4.11416,4.26463,4.26463,0,0,0-4.08619,4.3127A4.19156,4.19156,0,0,0,12.902,70.61837Zm40.86715-3.28111a4.12662,4.12662,0,0,0,4.15525-4.207,4.21669,4.21669,0,0,0-8.43309-.02153A4.14344,4.14344,0,0,0,53.76919,67.33726ZM114.93853,79.1824a4.11684,4.11684,0,0,0-4.18722-4.16873,4.244,4.244,0,0,0,.00163,8.48576A4.13285,4.13285,0,0,0,114.93853,79.1824ZM37.294,20.30324a4.18435,4.18435,0,1,0,8.368.08835,4.18449,4.18449,0,1,0-8.368-.08835ZM78.06809,31.23238a4.23642,4.23642,0,0,0-4.14849,4.24054,4.28821,4.28821,0,0,0,4.20565,4.2134,4.19222,4.19222,0,0,0,4.19315-4.20047A4.14876,4.14876,0,0,0,78.06809,31.23238Zm41.2611,97.98878a4.17679,4.17679,0,1,0-8.35295-.04423,4.17653,4.17653,0,0,0,8.35295.04423Zm-5.48358-113.1208a4.1899,4.1899,0,0,0-4.18573,4.183,4.19017,4.19017,0,1,0,8.37982-.00767A4.19275,4.19275,0,0,0,113.84561,16.10036ZM37.2916,128.833a4.18558,4.18558,0,1,0,8.37108.02448,4.31728,4.31728,0,0,0-4.256-4.30217A4.26038,4.26038,0,0,0,37.2916,128.833Zm96.67272-93.68159a4.15032,4.15032,0,0,0-4.12188-4.22953,4.20808,4.20808,0,0,0-.05625,8.416A4.18533,4.18533,0,0,0,133.96432,35.15146Z"/></svg>