<svg id="e7753893-4d48-4499-8778-2c76d078941c" data-name="Layer 1" xmlns="http://www.w3.org/2000/svg" xmlns:xlink="http://www.w3.org/1999/xlink" viewBox="0 0 150 150"><defs><style>.b8cb65dc-3048-4224-b4b9-69fe19f4594f{fill:url(#fca42f1d-30bc-4b38-9a4b-788388440a82);}.a737ba13-85c4-4f95-96b9-b360d3c7c4a5{fill:url(#f9ce93f3-27e1-4afc-9966-5cdfb36be8af);}.b619bdc7-0ff9-4038-abf1-c0fc34adc5b1{fill:url(#b12cae2c-ce46-43fe-9248-d247d642bf3a);}.f49028e6-aa9d-4e37-8baa-1b86d3725516{fill:url(#ad3238cf-4aa3-4681-80f3-df7a8c640296);}.f55c54e2-e913-4436-83c5-96706eed5a62{fill:url(#bca5a2bf-3a66-4bef-b6e1-b336925d561e);}.b151715c-4285-4714-9930-fe3583d0cef3{fill:url(#b5489109-7987-4b11-bd36-0d0af5825829);}.bdad19ce-267a-4766-95b8-9aa8997037cf{fill:url(#b2cc8b7a-ea7c-4b18-bcb1-9c7c2f8eaf15);}.eda3a37e-2556-47fd-b24f-f762d5ad1ce4{fill:url(#bfdc25dd-9c3b-4382-afbb-f8e1cf5c31e2);}.a872d7b3-ceb1-4068-ac96-01fad0732d54{fill:url(#b7794342-81b7-4f22-af42-5cd81819253c);}.b1288ceb-5d97-4ef0-9ba9-c03e7f3d2fb6{fill:url(#b091c9f5-04e0-473a-96fb-51fc2a12a779);}.a45d06e5-77ac-4cdd-9153-10ecd166f0c4{fill:url(#a93aaa5e-674e-41c2-9d8b-aa781f16d89a);}.b318a339-d220-4a83-8770-b558fccb7d36{fill:url(#e87ca60a-f159-4e42-822d-e11161b491b6);}.a756c34c-3f61-4a88-8d7e-d527a0cde8dd{fill:url(#ed298883-cc6d-4e02-8cc7-499aee9eb481);}.b85d795f-2cb0-4b88-896d-f531e9515fb6{fill:url(#a6fed8ba-5316-406a-acb8-91b969581b63);}.a3ffd8de-0712-428d-82a1-3f5cfda92c15{fill:url(#b410cebe-cd5d-47c3-8625-54a85c2060eb);}</style><linearGradient id="fca42f1d-30bc-4b38-9a4b-788388440a82" x1="74.4669" y1="-1.09348" x2="75.38409" y2="148.4097" gradientUnits="userSpaceOnUse"><stop offset="0" stop-color="#28dcfe"/><stop offset="1" stop-color="#8444fb"/></linearGradient><linearGradient id="f9ce93f3-27e1-4afc-9966-5cdfb36be8af" x1="47.52718" y1="-0.92821" x2="48.44438" y2="148.57498" xlink:href="#fca42f1d-30bc-4b38-9a4b-788388440a82"/><linearGradient id="b12cae2c-ce46-43fe-9248-d247d642bf3a" x1="101.38742" y1="-1.25864" x2="102.30462" y2="148.24455" xlink:href="#fca42f1d-30bc-4b38-9a4b-788388440a82"/><linearGradient id="ad3238cf-4aa3-4681-80f3-df7a8c640296" x1="47.0778" y1="-0.92545" x2="47.99499" y2="148.57773" xlink:href="#fca42f1d-30bc-4b38-9a4b-788388440a82"/><linearGradient id="bca5a2bf-3a66-4bef-b6e1-b336925d561e" x1="102.11656" y1="-1.26311" x2="103.03376" y2="148.24007" xlink:href="#fca42f1d-30bc-4b38-9a4b-788388440a82"/><linearGradient id="b5489109-7987-4b11-bd36-0d0af5825829" x1="20.03318" y1="-0.75953" x2="20.95038" y2="148.74365" xlink:href="#fca42f1d-30bc-4b38-9a4b-788388440a82"/><linearGradient id="b2cc8b7a-ea7c-4b18-bcb1-9c7c2f8eaf15" x1="128.98366" y1="-1.42794" x2="129.90086" y2="148.07524" xlink:href="#fca42f1d-30bc-4b38-9a4b-788388440a82"/><linearGradient id="bfdc25dd-9c3b-4382-afbb-f8e1cf5c31e2" x1="74.91698" y1="-1.09624" x2="75.83418" y2="148.40694" xlink:href="#fca42f1d-30bc-4b38-9a4b-788388440a82"/><linearGradient id="b7794342-81b7-4f22-af42-5cd81819253c" x1="129.19679" y1="-1.42925" x2="130.11399" y2="148.07394" xlink:href="#fca42f1d-30bc-4b38-9a4b-788388440a82"/><linearGradient id="b091c9f5-04e0-473a-96fb-51fc2a12a779" x1="19.8632" y1="-0.75849" x2="20.7804" y2="148.74469" xlink:href="#fca42f1d-30bc-4b38-9a4b-788388440a82"/><linearGradient id="a93aaa5e-674e-41c2-9d8b-aa781f16d89a" x1="74.14555" y1="-1.09151" x2="75.06275" y2="148.41167" xlink:href="#fca42f1d-30bc-4b38-9a4b-788388440a82"/><linearGradient id="e87ca60a-f159-4e42-822d-e11161b491b6" x1="20.24976" y1="-0.76086" x2="21.16695" y2="148.74232" xlink:href="#fca42f1d-30bc-4b38-9a4b-788388440a82"/><linearGradient id="ed298883-cc6d-4e02-8cc7-499aee9eb481" x1="128.81116" y1="-1.42688" x2="129.72836" y2="148.0763" xlink:href="#fca42f1d-30bc-4b38-9a4b-788388440a82"/><linearGradient id="a6fed8ba-5316-406a-acb8-91b969581b63" x1="85.93397" y1="-1.16383" x2="86.85116" y2="148.33935" xlink:href="#fca42f1d-30bc-4b38-9a4b-788388440a82"/><linearGradient id="b410cebe-cd5d-47c3-8625-54a85c2060eb" x1="54.93229" y1="-0.97364" x2="55.84949" y2="148.52955" xlink:href="#fca42f1d-30bc-4b38-9a4b-788388440a82"/></defs><path class="b8cb65dc-3048-4224-b4b9-69fe19f4594f" d="M112.29485,75.50862c0,6.59815-.03,13.19655.02556,19.79424a2.69754,2.69754,0,0,1-1.574,2.66983C99.19857,104.516,87.68171,111.11423,76.117,117.62738a2.76053,2.76053,0,0,1-2.30107-.01777c-11.48126-6.4707-22.912-13.031-34.38394-19.51843a3.1393,3.1393,0,0,1-1.83888-3.10656c.04021-13.28945-.008-26.57918.04274-39.86854a2.61038,2.61038,0,0,1,1.07229-1.8971C50.30578,46.2945,61.94844,39.44541,73.564,32.55077a2.4916,2.4916,0,0,1,2.85533.00819c11.61693,6.89256,23.2589,13.743,34.85463,20.6709a2.61238,2.61238,0,0,1,.99406,1.92365c.072,6.78443.04419,13.56991.04419,20.35511ZM109.13717,57.592c-.58307.3181-.91417.48575-1.2328.67446q-15.0714,8.92625-30.15426,17.833a2.06284,2.06284,0,0,0-1.1918,2.0733c.03979,11.31691.025,22.634.025,33.95105v1.53565c.69022-.36939,1.17649-.61563,1.64965-.8849q14.85738-8.45509,29.72536-16.89139A2.02334,2.02334,0,0,0,109.162,93.8229c-.03909-11.59749-.02479-23.19517-.0248-34.7928ZM42.495,54.67773c.346.25865.58355.47289.85335.6326q15.3843,9.10687,30.761,18.22651a1.57993,1.57993,0,0,0,1.8883-.0789q15.18847-9.02533,30.396-18.01858c.35137-.2082.68662-.44364,1.076-.69667-.23068-.17228-.37082-.29851-.52993-.39272Q91.37539,45.13463,75.82033,35.90382a1.46553,1.46553,0,0,0-1.75534.07626q-8.7343,5.20134-17.49351,10.36085C51.90878,49.10018,47.248,51.86261,42.495,54.67773ZM73.27856,113.631a5.78324,5.78324,0,0,0,.11529-.67288c.00533-11.7363.01916-23.47265-.03107-35.20872A2.10894,2.10894,0,0,0,72.4299,76.263q-15.15855-9.0491-30.371-18.00778c-.33644-.1989-.70195-.3486-1.13466-.56085-.02693.39327-.05656.62446-.05661.85565-.00245,11.8766.0109,23.75324-.028,35.62971-.00309.94435.47158,1.2879,1.15137,1.6734q13.16163,7.46359,26.308,14.95409C69.91039,111.72365,71.524,112.63614,73.27856,113.631Z"/><path class="a737ba13-85c4-4f95-96b9-b360d3c7c4a5" d="M65.95543,18.73243a8.37811,8.37811,0,0,1-1.4285,1.24639Q53.57582,26.35177,42.58852,32.66251q-4.91129,2.83455-9.82212,5.66988c-.16163.0933-.32793.179-.48613.27768-.94986.59273-1.89266.72336-2.5478-.35169-.67332-1.10485-.04568-1.83659.91384-2.38755,1.17364-.6739,2.34161-1.35766,3.51348-2.03466Q48.46535,25.57173,62.77236,17.3098a6.21177,6.21177,0,0,1,1.11306-.58382C64.99767,16.36,66.01467,17.13019,65.95543,18.73243Z"/><path class="b619bdc7-0ff9-4038-abf1-c0fc34adc5b1" d="M119.0899,110.81034c.43257.40011,1.05743.71815,1.20529,1.18675a2.40122,2.40122,0,0,1-.30381,1.66074c-.1952.35977-.72866.54931-1.13055.78164q-15.75837,9.10994-31.5212,18.21216c-.12123.07-.23881.14653-.36123.21434-1.38224.7655-2.24855.68688-2.79934-.25267-.5441-.92813-.17082-1.72388,1.21482-2.52482q16.00124-9.24914,32.00909-18.48681C117.8769,111.32828,118.39592,111.13308,119.0899,110.81034Z"/><path class="f49028e6-aa9d-4e37-8baa-1b86d3725516" d="M65.99215,131.41633c-.05719,1.60173-1.14068,2.31917-2.20422,1.833-.97248-.44456-1.88592-1.021-2.815-1.55743q-14.9766-8.64663-29.9482-17.30192c-.36215-.20937-.88732-.383-1.01325-.70124-.23106-.58389-.49193-1.4229-.23564-1.85848.26153-.44451,1.11357-.61766,1.74-.73731.2889-.05519.66459.28544.98668.47128Q48.512,120.80156,64.507,130.06367A8.1165,8.1165,0,0,1,65.99215,131.41633Z"/><path class="f55c54e2-e913-4436-83c5-96706eed5a62" d="M85.42328,16.45837c.6135.28694,1.04554.4515,1.441.67946q16.13337,9.299,32.26,18.60969c.08088.04666.1619.09315.24411.13738.96089.517,1.43236,1.32644.89853,2.31373-.581,1.07447-1.52246,1.02748-2.52335.446q-7.20335-4.18473-14.42654-8.33527-8.91236-5.14532-17.82181-10.29563c-.4008-.232-.93257-.441-1.11074-.80425a2.31674,2.31674,0,0,1-.20607-1.65265C84.35605,17.09742,84.99206,16.81526,85.42328,16.45837Z"/><path class="b151715c-4285-4714-9930-fe3583d0cef3" d="M22.10965,75.20962q.00024,9.04585-.00154,18.09172c-.00017.42.138.97044-.0721,1.23253-.41954.52337-1.04172,1.22973-1.57,1.22132-.50821-.00808-1.08582-.76486-1.471-1.30762-.20249-.28531-.06931-.81658-.06938-1.23679q-.003-18.16185-.00156-36.32368c0-.23375.00448-.46754.001-.70122-.01653-1.12182.3449-2.00861,1.6279-1.9669,1.26332.04107,1.56351.94775,1.56165,2.05745Q22.09874,65.743,22.10965,75.20962Z"/><path class="bdad19ce-267a-4766-95b8-9aa8997037cf" d="M131.0537,75.08134q0,9.11588-.00075,18.23174c-.00007.37381.13918.8715-.04666,1.09687-.45215.54833-1.02492,1.28-1.61189,1.34184-.44317.04669-1.04876-.77931-1.45109-1.31525-.18291-.24367-.05761-.72521-.05766-1.09884q-.0023-18.30188-.00014-36.60373c0-.37365-.1253-.85169.056-1.09954.3941-.53891.88085-1.21958,1.45354-1.36961.877-.22976,1.47893.41584,1.627,1.32492a7.90932,7.90932,0,0,1,.03076,1.25985Q131.05483,65.96546,131.0537,75.08134Z"/><path class="eda3a37e-2556-47fd-b24f-f762d5ad1ce4" d="M74.874,19.7728a7.68369,7.68369,0,0,1,.14537-15.36642A7.68376,7.68376,0,1,1,74.874,19.7728Zm4.57162-7.71462a4.42325,4.42325,0,0,0-4.48195-4.4179,4.51211,4.51211,0,0,0-4.492,4.44684,4.61215,4.61215,0,0,0,4.59324,4.53007A4.52034,4.52034,0,0,0,79.44561,12.05818Z"/><path class="a872d7b3-ceb1-4068-ac96-01fad0732d54" d="M129.46987,51.22877a7.68125,7.68125,0,1,1,.04755-15.36229,7.68119,7.68119,0,0,1-.04755,15.36229Zm.1265-12.13366a4.51994,4.51994,0,0,0-4.64605,4.437,4.61148,4.61148,0,0,0,4.43866,4.53972,4.513,4.513,0,0,0,4.53252-4.402A4.43675,4.43675,0,0,0,129.59637,39.09511Z"/><path class="b1288ceb-5d97-4ef0-9ba9-c03e7f3d2fb6" d="M20.568,114.14183a7.67418,7.67418,0,1,1-.05607-15.34814,7.67412,7.67412,0,0,1,.05607,15.34814Zm-.06774-12.13736a4.51911,4.51911,0,0,0-4.50547,4.44126,4.60023,4.60023,0,0,0,4.4405,4.53677,4.5079,4.5079,0,0,0,4.53485-4.54054A4.44119,4.44119,0,0,0,20.50023,102.00447Z"/><path class="a45d06e5-77ac-4cdd-9153-10ecd166f0c4" d="M74.93023,145.59378a7.66471,7.66471,0,0,1,.03314-15.32929,7.665,7.665,0,1,1-.03314,15.32929Zm4.5146-7.63669a4.45491,4.45491,0,0,0-4.40959-4.50095,4.52805,4.52805,0,0,0-4.56328,4.52868,4.594,4.594,0,0,0,4.52141,4.4545A4.50727,4.50727,0,0,0,79.44483,137.95709Z"/><path class="b318a339-d220-4a83-8770-b558fccb7d36" d="M20.4458,51.22793a7.67923,7.67923,0,0,1,.04757-15.35812,7.67932,7.67932,0,1,1-.04757,15.35812Zm4.52364-7.60656a4.43989,4.43989,0,0,0-4.37559-4.52824,4.52255,4.52255,0,0,0-4.59857,4.48815,4.60249,4.60249,0,0,0,4.48814,4.49089A4.51283,4.51283,0,0,0,24.96944,43.62137Z"/><path class="a756c34c-3f61-4a88-8d7e-d527a0cde8dd" d="M129.40425,114.14016a7.67356,7.67356,0,0,1,.03877-15.34694,7.67379,7.67379,0,1,1-.03877,15.34694Zm.07975-12.13562a4.51808,4.51808,0,0,0-4.53427,4.41081,4.60121,4.60121,0,0,0,4.54946,4.56789,4.51009,4.51009,0,0,0,4.42337-4.51135A4.44025,4.44025,0,0,0,129.484,102.00454Z"/><path class="b85d795f-2cb0-4b88-896d-f531e9515fb6" d="M94.71137,54.89449c-.55644-.33463-.97823-.597-1.408-.84547Q83.83587,48.5753,74.36711,43.10375c-.36363-.21025-.89926-.356-1.03864-.67144-.26964-.61033-.62091-1.497-.36621-1.94022.26338-.45836,1.19141-.60819,1.85826-.72695.28914-.05148.6578.30328.981.48971q11.052,6.37466,22.10079,12.75506c2.26145,1.307,2.25719,2.48157-.00812,3.79049q-9.8938,5.71674-19.79364,11.423c-.36373.20974-.77524.60076-1.10632.54725a2.93224,2.93224,0,0,1-1.84866-.7695c-.25874-.38176.06271-1.26608.31739-1.84341.14021-.31781.66754-.4727,1.03078-.683q8.43327-4.88186,16.86888-9.75963C93.75887,55.48582,94.14532,55.23959,94.71137,54.89449Z"/><path class="a3ffd8de-0712-428d-82a1-3f5cfda92c15" d="M48.43868,78.60794c.00072,3.17905.03534,6.3587-.02042,9.53677a1.93,1.93,0,0,0,1.116,1.9826c4.87846,2.7556,9.71951,5.57746,14.57163,8.37964.44468.25681,1.06294.43419,1.27274.82466.3142.58476.64727,1.49524.39717,1.9525-.24778.453-1.19425.59692-1.86262.71263-.29137.05045-.66012-.29606-.98244-.48187-5.4208-3.12509-10.82795-6.27418-16.26936-9.36293a2.6354,2.6354,0,0,1-1.47967-2.59458c.03568-6.91892.0016-13.83821.04291-20.75707a3.05553,3.05553,0,0,1,.61817-1.89087,1.63145,1.63145,0,0,1,1.596-.22151,2.76261,2.76261,0,0,1,.95631,1.823C48.48643,71.87453,48.438,75.24189,48.43868,78.60794Z"/></svg>