<svg id="fcd32c9b-6895-4e9d-a543-6a217191df72" data-name="Layer 1" xmlns="http://www.w3.org/2000/svg" viewBox="0 0 100 100"><defs><style>.e4dd8e50-83e9-494d-a6c3-655ea24da560{fill:#4e1fa3;}.b6f092f0-0250-4910-a2fb-455002ef63c6{fill:#fff;}</style></defs><rect class="e4dd8e50-83e9-494d-a6c3-655ea24da560" width="100" height="100" rx="12.3949"/><path class="b6f092f0-0250-4910-a2fb-455002ef63c6" d="M14.975,39.376q3.1776.02984,6.35521.05925c.337.003.674.00042,1.07355.00042v.96524q0,14.19826-.00486,28.39651a2.87225,2.87225,0,0,0,1.18851,2.68169,3.55869,3.55869,0,0,0,1.77154.55081q24.42755.06293,48.85523.06219c.29255.00024.58509,0,.92322,0v7.38595H14.975Z"/><path class="b6f092f0-0250-4910-a2fb-455002ef63c6" d="M14.975,28.28975h7.388v8.7595H14.975Z"/><path class="b6f092f0-0250-4910-a2fb-455002ef63c6" d="M85.01342,29.7086v39.94H24.88888v-39.94ZM60.874,35.95921c-.66007,0-1.24932.03675-1.83164-.011a.77791.77791,0,0,0-.93215.627q-4.43163,12.59331-8.89873,25.17415c-.06545.185-.10821.37795-.17792.62527.685,0,1.30239-.04,1.91188.01209.53018.04531.73088-.15911.90239-.64911q4.38822-12.53684,8.81625-25.05976C60.73765,36.46892,60.78906,36.25227,60.874,35.95921Zm1.559,19.29555c3.55739-1.489,7.021-2.93872,10.48468-4.38848,1.45328-.60829,1.42745-.60879,1.45657-2.16832a.81053.81053,0,0,0-.625-.88361c-3.07283-1.26778-6.13485-2.56175-9.201-3.8457-.6866-.28751-1.376-.56838-2.11711-.87418l-.71188,2.08693,9.78716,3.98815-9.78248,3.987Zm-14.9573-12.1407c-.30627.11572-.51957.189-.72719.27586q-4.88079,2.04182-9.76018,4.087c-1.4608.61228-1.44155.61381-1.45742,2.16926a.76936.76936,0,0,0,.56812.85157c2.84313,1.16359,5.67266,2.36041,8.50641,3.54689.94042.39375,1.88023.78894,2.86537,1.20238l.71534-2.09419-9.772-3.98079,9.77242-3.9847Z"/><path class="b6f092f0-0250-4910-a2fb-455002ef63c6" d="M85.025,18.49056v8.68372H24.87921V18.49056ZM32.97062,21.402l0,.01627c-.84129,0-1.68417-.03164-2.52333.01066a1.15088,1.15088,0,0,0-1.05592,1.14359c-.01518.574.39173,1.19143.89005,1.19969,1.68214.02787,3.36577.03445,5.04736-.00846a1.11738,1.11738,0,0,0,1.00646-1.24241,1.06944,1.06944,0,0,0-1.11308-1.11583C34.47192,21.39026,33.72115,21.402,32.97062,21.402Zm10.33656-.00017,0,.01237c-.84083,0-1.683-.029-2.52206.00949A1.10837,1.10837,0,0,0,39.71017,22.534c-.03.60653.33049,1.22172.834,1.2317,1.70344.03376,3.40887.03988,5.11174-.00768a1.10292,1.10292,0,0,0,.97063-1.2667,1.06256,1.06256,0,0,0-1.13733-1.08663C44.762,21.39213,44.03452,21.40187,43.30718,21.40187Z"/></svg>