<svg id="a5a9fbb2-b69b-4123-a715-e2a12c1ec01f" data-name="Layer 1" xmlns="http://www.w3.org/2000/svg" xmlns:xlink="http://www.w3.org/1999/xlink" viewBox="0 0 150 150"><defs><style>.b538a162-e7ca-48fc-a0de-ea49f9bd87ab{fill:url(#b6af5f83-1d4c-4e1a-a435-9df4f46d0e3d);}.e62e6814-54ba-44e8-bf91-75d56e5a1ee2{fill:url(#bfb3e3f0-c2a5-444e-a427-ef6de8b31a6e);}.ee1fe34a-f468-4bf4-8b11-6435a9d37e03{fill:url(#b3955097-352c-436d-aab2-907e69189f96);}</style><linearGradient id="b6af5f83-1d4c-4e1a-a435-9df4f46d0e3d" x1="74.44288" y1="2.11549" x2="75.36008" y2="144.2811" gradientUnits="userSpaceOnUse"><stop offset="0" stop-color="#28dcfe"/><stop offset="1" stop-color="#8444fb"/></linearGradient><linearGradient id="bfb3e3f0-c2a5-444e-a427-ef6de8b31a6e" x1="47.06914" y1="2.2921" x2="47.98634" y2="144.4577" xlink:href="#b6af5f83-1d4c-4e1a-a435-9df4f46d0e3d"/><linearGradient id="b3955097-352c-436d-aab2-907e69189f96" x1="42.3754" y1="2.32238" x2="43.2926" y2="144.48798" xlink:href="#b6af5f83-1d4c-4e1a-a435-9df4f46d0e3d"/></defs><path class="b538a162-e7ca-48fc-a0de-ea49f9bd87ab" d="M24.00926,74.97149q0-28.44935.00055-56.89871c.0007-7.74651,4.80561-12.57166,12.52135-12.57263,17.32539-.00218,34.65089.03149,51.9761-.02442A12.95369,12.95369,0,0,1,98.624,9.875q11.66028,12.682,23.451,25.24367a13.87658,13.87658,0,0,1,3.91658,10.06308q-.08721,43.57878-.03447,87.15783c-.00151,6.38795-3.91837,11.09339-10.02581,12.06122a14.828,14.828,0,0,1-2.30849.118q-38.65638.00846-77.31276.00272c-7.41631-.00145-12.2978-4.91153-12.29943-12.36176Q24.00441,103.56562,24.00926,74.97149ZM56.33331,139.8728a3.90868,3.90868,0,0,0,.10572-.56318c.00557-7.72322.02-15.44651-.02131-23.1695a2.40323,2.40323,0,0,0-.69154-1.4643c-1.90741-1.9821-3.93337-3.85255-5.79688-5.87359-1.20369-1.30544-2.33332-2.401-4.23788-1.40319a.78991.78991,0,0,1-.28627.02884,6.97,6.97,0,0,1-6.98387-4.38239,6.93165,6.93165,0,0,1,10.21656-8.36306,6.74065,6.74065,0,0,1,2.88293,7.56006,1.90437,1.90437,0,0,0,.58338,2.24326c2.56753,2.48257,5.04,5.06345,7.6072,7.5464a4.23192,4.23192,0,0,1,1.39477,3.317c-.04959,7.62638-.0238,15.25326-.0238,22.88V139.789h11.54c.01844-.33424.04282-.57046.04286-.80668.00209-12.59855-.01292-25.19716.03155-37.79554.00348-.98665-.48166-1.27625-1.18806-1.67554a6.93012,6.93012,0,1,1,10.15778-7.84149,6.78506,6.78506,0,0,1-3.20167,7.81539,1.92025,1.92025,0,0,0-1.18527,1.97457c.03411,12.30884.02154,24.6178.02512,36.92673.00014.46645.04207.9329.06446,1.39814h11.518V138.101c0-7.6267.02049-15.25352-.02027-22.88a3.93733,3.93733,0,0,1,1.281-3.06862c2.6292-2.55786,5.18-5.19629,7.80736-7.7561a1.68587,1.68587,0,0,0,.52636-1.9929,6.8166,6.8166,0,0,1,3.07423-7.86814,6.94364,6.94364,0,0,1,9.57276,9.41144,6.80991,6.80991,0,0,1-7.95245,3.16707,1.67381,1.67381,0,0,0-1.9819.5636c-2.25682,2.316-4.59468,4.55394-6.81981,6.89926a3.19439,3.19439,0,0,0-.81719,1.98185c-.05733,7.33664-.03728,14.67389-.03231,22.011.00028.41526.0525.83049.08555,1.31993,6.71695,0,13.324.00229,19.931-.00073,5.02-.00229,7.78293-2.76847,7.78365-7.799q.00367-25.99357.001-51.98712V78.487c-2.21527,0-4.2467.12068-6.25282-.05228a4.90985,4.90985,0,0,1-2.78193-1.14587c-3.12135-2.94931-6.14181-6.008-9.13528-9.08877-1.17428-1.20854-2.23189-2.41037-4.11571-1.365a1.66633,1.66633,0,0,1-.71546.05688,6.98643,6.98643,0,0,1-6.70051-4.60505,6.92739,6.92739,0,1,1,13.18842-.50613c-.20934.736-.33471,1.2647.33141,1.9125,3.2178,3.1293,6.36156,6.33463,9.54939,9.495a1.90526,1.90526,0,0,0,1.05971.63008c1.81626.06434,3.636.02945,5.43468.02945V42.57253H119.47c-5.6959,0-11.39181.0097-17.08768-.00264-6.63154-.01437-11.16466-4.559-11.17566-11.20318q-.01607-9.7023-.00241-19.40466V10.28069H72.66763c0,6.66625-.02244,13.27429.01976,19.88191a3.979,3.979,0,0,1-1.2756,3.07343c-4.90588,4.85565-9.76139,9.76219-14.66725,14.61787a1.91825,1.91825,0,0,0-.59424,2.23979A6.76136,6.76136,0,0,1,52.90436,57.881a6.92732,6.92732,0,1,1-1.59918-12.69048,1.81946,1.81946,0,0,0,2.12329-.53143c4.57519-4.63993,9.21619-9.21507,13.77918-13.8668a3.15285,3.15285,0,0,0,.79067-1.99335c.06153-5.74351.03519-11.488.03518-17.23213V10.13361h-1.516q-15.13275,0-30.2655.0014c-4.78813.00214-7.60661,2.84783-7.60743,7.68155Q28.64,45.041,28.64339,72.26548v1.5047c.355.04351.49635.07594.63768.076,9.4127.00385,18.82546.01733,28.238-.02529a2.56893,2.56893,0,0,0,1.58927-.73326c3.10536-3.03754,6.14345-6.14382,9.247-9.18329a1.80617,1.80617,0,0,0,.56992-2.11215,6.81431,6.81431,0,0,1,3.1412-7.84161,6.94806,6.94806,0,0,1,9.48972,9.504,6.80163,6.80163,0,0,1-7.84469,3.13,1.80354,1.80354,0,0,0-2.10681.58773c-3.28262,3.33854-6.63312,6.61046-9.90572,9.95861a4.26506,4.26506,0,0,1-3.32335,1.37928c-9.36423-.044-18.72878-.0231-28.09322-.0231H28.64338v1.74467q0,14.55349,0,29.107c.00013,7.81979-.01715,15.63965.00852,23.45935a6.79263,6.79263,0,0,0,6.45737,7.04C42.15022,139.95727,49.19457,139.8728,56.33331,139.8728ZM95.83859,13.71337c0,6.24608-.01369,12.06792.00487,17.88965a6.01515,6.01515,0,0,0,6.37731,6.331c4.91858.01713,9.83727.00648,14.7559-.00045.3505-.00049.7009-.06852,1.23393-.12422ZM51.80259,51.826a2.30807,2.30807,0,1,0-2.25652,2.32152A2.32937,2.32937,0,0,0,51.80259,51.826ZM77.87,59.9815a2.30751,2.30751,0,1,0-2.30272,2.275A2.33526,2.33526,0,0,0,77.87,59.9815Zm22.591-.00608a2.30756,2.30756,0,1,0-2.29627,2.28185A2.33183,2.33183,0,0,0,100.461,59.97542ZM74.93626,95.854a2.30889,2.30889,0,1,0-2.26007-2.31772A2.3402,2.3402,0,0,0,74.93626,95.854Zm-27.76781,4.67689a2.30752,2.30752,0,1,0-2.303,2.27507A2.33248,2.33248,0,0,0,47.16845,100.53087Zm60.24422.01363a2.30768,2.30768,0,1,0-2.31715,2.26071A2.3365,2.3365,0,0,0,107.41267,100.5445Z"/><path class="e62e6814-54ba-44e8-bf91-75d56e5a1ee2" d="M47.28254,17.08492c2.8476,0,5.69522-.00651,8.54279.00231,1.846.00571,2.90015.83492,2.92727,2.27246.02722,1.44328-1.04648,2.35264-2.84578,2.35554q-8.76.01413-17.52-.001c-1.7311-.00341-2.7545-.86565-2.78043-2.27311-.02668-1.44863,1.0384-2.34552,2.84374-2.35292C41.39425,17.07613,44.33841,17.08494,47.28254,17.08492Z"/><path class="ee1fe34a-f468-4bf4-8b11-6435a9d37e03" d="M42.41686,30.984c-1.44779.00029-2.89644.0314-4.34314-.00834a2.30929,2.30929,0,0,1-2.46729-2.28972,2.28165,2.28165,0,0,1,2.43262-2.318q4.48741-.05811,8.976-.00173a2.30839,2.30839,0,1,1,.03442,4.6077C45.50645,31.0177,43.96118,30.98369,42.41686,30.984Z"/></svg>