<?xml version="1.0" encoding="utf-8"?>
<svg version="1.1" id="Capa_1" x="0px" y="0px" width="886.558px" height="886.559px" viewBox="0 0 886.558 886.559" style="enable-background:new 0 0 886.558 886.559;" xmlns="http://www.w3.org/2000/svg">
  <g transform="matrix(0, -1, 1, 0, -0.000671, 886.55835)"/>
  <g/>
  <g/>
  <g/>
  <g/>
  <g/>
  <g/>
  <g/>
  <g/>
  <g/>
  <g/>
  <g/>
  <g/>
  <g/>
  <g/>
  <g/>
  <g transform="matrix(0, -13.191426, 13.191426, 0, 73.146851, 377.014587)">
    <path d="M -7.773 -5.317 L -2.192 -5.317 L 7.092 -5.317 C 12.744 -5.317 17.324 0.024 17.324 6.615 L 17.324 33.482 L 23.743 26.006 C 24.833 24.739 26.601 24.739 27.687 26.01 C 28.777 27.281 28.777 29.342 27.687 30.614 L 16.506 43.63 C 15.416 44.902 13.652 44.902 12.562 43.63 L 1.395 30.609 C 0.305 29.338 0.305 27.281 1.395 26.01 C 2.485 24.739 4.253 24.739 5.343 26.01 L 11.743 33.473 L 11.743 6.615 C 11.743 3.621 9.663 1.191 7.092 1.191 L -17.075 1.191 C -19.647 1.191 -21.727 3.621 -21.727 6.615 L -21.727 33.473 L -15.327 26.01 C -14.236 24.739 -12.469 24.739 -11.382 26.01 C -10.292 27.281 -10.292 29.338 -11.382 30.609 L -22.545 43.63 C -23.635 44.902 -25.403 44.902 -26.493 43.63 L -37.656 30.609 C -38.746 29.338 -38.746 27.281 -37.656 26.01 C -36.566 24.739 -34.802 24.739 -33.712 26.01 L -27.308 33.473 L -27.308 6.615 C -27.308 0.024 -22.728 -5.317 -17.075 -5.317 L -7.773 -5.317 Z" fill="#212121" style=""/>
  </g>
</svg>