<?xml version="1.0" encoding="utf-8"?>
<svg version="1.1" id="Layer_1" x="0px" y="0px" viewBox="0 0 302.816 302.816" style="enable-background:new 0 0 302.816 302.816;" xmlns="http://www.w3.org/2000/svg">
  <path id="XMLID_2_" d="M 241.053 224.679 C 241.063 224.903 241.084 225.127 241.083 225.351 C 241.083 225.696 241.059 226.037 241.034 226.378 C 241.024 226.519 241.024 226.661 241.011 226.802 C 240.979 227.124 240.925 227.44 240.873 227.757 C 240.846 227.923 240.828 228.089 240.796 228.253 C 240.742 228.524 240.669 228.788 240.6 229.054 C 240.547 229.264 240.5 229.476 240.438 229.685 C 240.374 229.895 240.293 230.099 240.221 230.306 C 240.13 230.563 240.045 230.822 239.94 231.075 C 239.876 231.232 239.796 231.381 239.727 231.535 C 239.594 231.825 239.465 232.116 239.314 232.399 C 239.244 232.53 239.161 232.653 239.087 232.783 C 238.921 233.073 238.757 233.364 238.569 233.645 C 238.425 233.861 238.262 234.063 238.108 234.271 C 237.974 234.451 237.852 234.636 237.709 234.811 C 237.392 235.201 237.054 235.573 236.697 235.93 C 236.695 235.932 236.693 235.935 236.691 235.937 L 174.208 298.422 C 168.351 304.28 158.853 304.28 152.995 298.422 C 147.137 292.565 147.137 283.067 152.995 277.209 L 188.125 242.079 C 128.334 236.221 76.736 191.962 64.425 130.072 C 59.689 106.255 61.289 82.052 68.55 59.64 C 68.662 59.292 68.765 58.94 68.881 58.593 C 75.544 38.561 86.754 19.998 102.038 4.475 C 102.652 3.851 103.314 3.308 104.002 2.815 C 106.603 0.949 109.66 -0.001 112.728 -0.001 C 113.203 -0.001 113.678 0.021 114.151 0.066 C 117.464 0.38 120.696 1.793 123.252 4.31 C 129.155 10.123 129.229 19.62 123.416 25.523 C 119.812 29.183 116.507 33.065 113.49 37.121 C 95.05 61.912 87.735 93.476 93.85 124.218 C 103.57 173.084 144.526 207.99 191.829 212.289 L 152.994 173.453 C 147.136 167.595 147.136 158.098 152.994 152.24 C 155.923 149.311 159.762 147.846 163.601 147.846 C 167.44 147.846 171.279 149.31 174.207 152.24 L 236.617 214.651 C 236.639 214.673 236.662 214.697 236.684 214.719 L 236.691 214.725 C 236.704 214.738 236.714 214.752 236.727 214.765 C 237.065 215.104 237.386 215.459 237.69 215.83 C 237.778 215.936 237.852 216.049 237.936 216.157 C 238.153 216.436 238.368 216.716 238.565 217.011 C 238.68 217.183 238.778 217.362 238.885 217.538 C 239.031 217.778 239.181 218.014 239.314 218.263 C 239.439 218.497 239.546 218.738 239.657 218.976 C 239.752 219.178 239.852 219.375 239.938 219.582 C 240.066 219.89 240.171 220.204 240.278 220.518 C 240.329 220.668 240.388 220.813 240.434 220.966 C 240.562 221.387 240.665 221.813 240.755 222.241 C 240.767 222.296 240.785 222.348 240.796 222.404 C 240.797 222.408 240.797 222.413 240.798 222.417 C 240.895 222.909 240.969 223.404 241.016 223.901 C 241.041 224.163 241.041 224.421 241.053 224.679 Z"/>
  <g/>
  <g/>
  <g/>
  <g/>
  <g/>
  <g/>
  <g/>
  <g/>
  <g/>
  <g/>
  <g/>
  <g/>
  <g/>
  <g/>
  <g/>
</svg>