<?xml version="1.0" encoding="utf-8"?>
<svg version="1.1" id="Capa_1" x="0px" y="0px" viewBox="0 0 286.458 286.458" style="enable-background:new 0 0 286.458 286.458;" xmlns="http://www.w3.org/2000/svg">
  <path style="fill:#231F20;" d="M 159.659 72.071 L 83.497 72.071 L 128.622 26.946 C 130.038 25.529 130.819 23.646 130.819 21.642 C 130.819 19.638 130.038 17.755 128.622 16.338 L 114.48 2.196 C 113.063 0.78 111.18 0 109.176 0 C 107.173 0 105.289 0.78 103.872 2.197 L 21.802 84.268 C 18.878 87.192 18.878 91.951 21.802 94.875 L 103.872 176.946 C 105.289 178.363 107.173 179.143 109.176 179.143 C 111.18 179.143 113.063 178.363 114.48 176.946 L 128.622 162.804 C 130.038 161.387 130.819 159.504 130.819 157.5 C 130.819 155.497 130.038 153.613 128.622 152.196 L 83.497 107.071 L 159.659 107.071 C 199.465 107.071 231.85 139.456 231.85 179.262 C 231.85 219.071 199.465 251.457 159.659 251.457 C 155.523 251.457 152.159 254.821 152.159 258.957 L 152.159 278.957 C 152.159 283.092 155.523 286.457 159.659 286.457 C 218.764 286.457 266.85 238.37 266.85 179.262 C 266.85 120.157 218.764 72.071 159.659 72.071 Z" transform="matrix(-1, 0, 0, -1, 286.459, 286.457001)"/>
  <g/>
  <g/>
  <g/>
  <g/>
  <g/>
  <g/>
  <g/>
  <g/>
  <g/>
  <g/>
  <g/>
  <g/>
  <g/>
  <g/>
  <g/>
</svg>