<svg xmlns="http://www.w3.org/2000/svg" viewBox="0 0 96.28 94.07"><defs><style>.cls-1{fill:#a465ea;}</style></defs><g id="Layer_2" data-name="Layer 2"><g id="Layer_1-2" data-name="Layer 1"><path class="cls-1" d="M51.53,37.64H63.92V25.56a4,4,0,0,1,4.33-4.3c3.7,0,7.4,0,11.25,0a22.21,22.21,0,0,0,0-2.46c0-.26-.39-.54-.66-.71A9.66,9.66,0,0,1,81.67.22,9.69,9.69,0,0,1,92.79,7.45,9.58,9.58,0,0,1,88.25,18a1.35,1.35,0,0,0-.77,1.37c0,1.86,0,3.72,0,5.57a4.06,4.06,0,0,1-4.34,4.33c-3.51,0-7,0-10.53,0l-.64,0v8.76h1.07c5,0,10.08,0,15.12,0,4.27,0,6.81,2.32,7.73,6.48A25.57,25.57,0,0,1,96.26,50q0,18.25,0,36.52a7.15,7.15,0,0,1-5.49,7.35,9.76,9.76,0,0,1-2.23.22H7.73C3,94.07,0,91.05,0,86.3V45.38c0-4.71,3-7.71,7.66-7.71,4.91,0,9.82,0,14.73,0h1.12v-8.4h-4.4c-2.24,0-4.48,0-6.72,0A4.07,4.07,0,0,1,8,24.89c0-1.82,0-3.65,0-5.47A1.44,1.44,0,0,0,7.2,18,9.31,9.31,0,0,1,2.48,9.05,9.19,9.19,0,0,1,8.06,1a8.77,8.77,0,0,1,9.48.94,9.24,9.24,0,0,1,4,8.91c-.36,3.39-1.86,6.06-5.12,7.5a.79.79,0,0,0-.38.57c0,.87,0,1.75,0,2.77h1.09c3.41,0,6.82,0,10.24,0a4,4,0,0,1,4.25,4.28c0,3.65,0,7.29,0,10.94V38H43.48c0-.36.06-.7.06-1,0-5.82,0-11.65,0-17.48a1.58,1.58,0,0,0-.86-1.54c-3.45-2.22-5.19-5.41-4.62-9.51a9.22,9.22,0,0,1,7-8,9.46,9.46,0,0,1,11.1,5.24A9.38,9.38,0,0,1,53,17.49a3,3,0,0,0-1.5,3c.07,5.31,0,10.62,0,15.92ZM42.83,86a3.6,3.6,0,0,0-.36-.33,16,16,0,0,1-5.84-6.54,28.13,28.13,0,0,1-2.86-16.47,23,23,0,0,1,5.34-13,42.11,42.11,0,0,1,3.49-3.21H15.22a7.49,7.49,0,0,1-2.12,5,7.49,7.49,0,0,1-5,2.14V78.82c4.42.55,6.35,2.48,7.21,7.2ZM52.88,46.51a15.8,15.8,0,0,1,6.37,6.69c3.54,6.84,3.9,14,1.85,21.33-1.31,4.66-3.67,8.66-7.88,11.33,0,0,0,.12,0,.17H80.61q.72-6.54,7.21-7.24V53.74c-4.28-.46-6.78-3-7.21-7.23Z"/><path class="cls-1" d="M26.75,66.18a5.27,5.27,0,0,1-5.24,5.08,5.35,5.35,0,0,1-5.13-5.32,5.28,5.28,0,0,1,5.37-5.06A5.22,5.22,0,0,1,26.75,66.18Z"/><path class="cls-1" d="M78.3,66a5.2,5.2,0,1,1-10.39.08,5.26,5.26,0,0,1,5.19-5.22A5,5,0,0,1,78.3,66Z"/></g></g></svg>