<svg xmlns="http://www.w3.org/2000/svg" viewBox="0 0 99.81 93.22"><defs><style>.cls-1{fill:#a465ea;}</style></defs><g id="Layer_2" data-name="Layer 2"><g id="Layer_1-2" data-name="Layer 1"><path class="cls-1" d="M99.81,92a2.48,2.48,0,0,1-2.37,1.18q-47.55,0-95.11,0C.55,93.2,0,92.65,0,90.86s0-3.71,0-5.57c0-1.47.6-2.05,2.07-2.07.94,0,1.87,0,2.93,0V79c0-2.05.43-2.49,2.43-2.49h85c1.9,0,2.37.47,2.38,2.35,0,1.34,0,2.67,0,4a1.14,1.14,0,0,0,.13.32c.8,0,1.67,0,2.53,0a2.14,2.14,0,0,1,2.32,1.21Z"/><path class="cls-1" d="M99.81,28.76a2.52,2.52,0,0,1-2.39,1.14H2.4a2.21,2.21,0,0,1-1.14-.13c-.47-.33-1-.78-1.15-1.27S.37,27.42.66,27c.16-.27.57-.4.88-.57Q25,13.42,48.41.44a2.75,2.75,0,0,1,3,0q23.42,13,46.86,26a9.66,9.66,0,0,1,1.56,1.39Zm-50-8.91A5,5,0,0,0,54.87,15a5,5,0,1,0-5.09,4.82Z"/><path class="cls-1" d="M43.5,33.26H56.31a19,19,0,0,0-.88,2.31,8.31,8.31,0,0,0-.38,2.64q1.31,17.07,2.69,34.14c0,.25,0,.5,0,.81H42c.12-1.68.23-3.32.36-5q.74-9.19,1.48-18.38c.28-3.57.47-7.14.86-10.7A7.91,7.91,0,0,0,44,34.52C43.8,34.15,43.68,33.74,43.5,33.26Z"/><path class="cls-1" d="M27.86,73.17H12.08c.08-1.17.14-2.29.23-3.41q1.28-16.1,2.54-32.19a3.85,3.85,0,0,0-.22-1.5c-.3-.92-.68-1.81-1.07-2.79h12.8c-.37,1-.76,1.86-1.06,2.79a4.37,4.37,0,0,0-.22,1.6c.45,6,.94,12,1.42,18q.66,8.27,1.31,16.53C27.84,72.48,27.84,72.77,27.86,73.17Z"/><path class="cls-1" d="M87.76,73.17H71.94c.15-2,.3-4,.45-6l1.5-18.76c.28-3.54.58-7.07.81-10.61a5.53,5.53,0,0,0-.27-2c-.25-.86-.64-1.68-1-2.6H86.24c-.37.95-.75,1.82-1,2.72a4.38,4.38,0,0,0-.24,1.6q1.08,14.14,2.2,28.3C87.35,68.28,87.55,70.68,87.76,73.17Z"/></g></g></svg>