<svg id="a243a968-2a6e-40ec-8f36-199fd7539b17" data-name="Layer 1" xmlns="http://www.w3.org/2000/svg" xmlns:xlink="http://www.w3.org/1999/xlink" viewBox="0 0 150 150"><defs><style>.b64996c2-2c2a-4ca4-9f4e-58d4540d607f{fill:url(#bd84620c-3409-4b9e-abc6-4ff54b22b030);}.a68af10d-f66c-4e24-8405-a0ec4d953bef{fill:url(#e610d27d-c2d6-4525-9e78-874e16130c0d);}.e43fe993-65c2-464e-a24c-6d75f98c0334{fill:url(#e4950ac3-6eab-4dd6-ad5d-b0b22ad232bb);}.eec6963a-f543-495e-ad94-4965166c8249{fill:url(#fcbe12e8-4545-4655-90dd-9a22eb8768b5);}.bfa133ae-f160-496c-9bb7-74c0d21d4b4d{fill:url(#bfeaf9c0-aaee-40a9-8436-88a5d45a7d7b);}.b5cf356c-4f57-4868-bcfc-a43728fabdef{fill:url(#a14dd258-348a-494e-89af-c26733b86268);}.ff93d9e2-532e-466a-9903-e93732d45e5d{fill:url(#ed6cb7b1-58bd-4441-b40d-76878b713b5c);}.b6c4940b-71b2-4840-85f6-554edbfe9184{fill:url(#a83de47a-e3f4-42f0-8746-640ea54cf86a);}.ad056301-c1ba-4432-9dd3-54bd4b275571{fill:url(#f47a0a82-0faa-43c5-9cbb-c053a16c791c);}.b171a69a-e116-4c88-a661-39daa009d67a{fill:url(#f1dea765-b115-452c-950a-a9a8777efc48);}.ff8a0a39-6909-4611-ae19-cef262b0bfa0{fill:url(#b591fa14-c785-4d6a-b390-627c52852bf7);}.bd1275ad-6d14-46d0-8a39-bf50fcb329f8{fill:url(#a2c902b5-c9ec-41b2-b4c1-a235294e1d11);}</style><linearGradient id="bd84620c-3409-4b9e-abc6-4ff54b22b030" x1="87.07988" y1="0.72312" x2="87.53848" y2="144.72312" gradientUnits="userSpaceOnUse"><stop offset="0" stop-color="#28dcfe"/><stop offset="1" stop-color="#8444fb"/></linearGradient><linearGradient id="e610d27d-c2d6-4525-9e78-874e16130c0d" x1="32.32925" y1="0.89749" x2="32.78785" y2="144.89749" xlink:href="#bd84620c-3409-4b9e-abc6-4ff54b22b030"/><linearGradient id="e4950ac3-6eab-4dd6-ad5d-b0b22ad232bb" x1="32.59901" y1="0.89663" x2="33.05761" y2="144.89663" xlink:href="#bd84620c-3409-4b9e-abc6-4ff54b22b030"/><linearGradient id="fcbe12e8-4545-4655-90dd-9a22eb8768b5" x1="112.11027" y1="0.64341" x2="112.56887" y2="144.64341" xlink:href="#bd84620c-3409-4b9e-abc6-4ff54b22b030"/><linearGradient id="bfeaf9c0-aaee-40a9-8436-88a5d45a7d7b" x1="51.99759" y1="0.83485" x2="52.45619" y2="144.83485" xlink:href="#bd84620c-3409-4b9e-abc6-4ff54b22b030"/><linearGradient id="a14dd258-348a-494e-89af-c26733b86268" x1="65.56585" y1="0.79164" x2="66.02445" y2="144.79164" xlink:href="#bd84620c-3409-4b9e-abc6-4ff54b22b030"/><linearGradient id="ed6cb7b1-58bd-4441-b40d-76878b713b5c" x1="16.90262" y1="0.94662" x2="17.36121" y2="144.94662" xlink:href="#bd84620c-3409-4b9e-abc6-4ff54b22b030"/><linearGradient id="a83de47a-e3f4-42f0-8746-640ea54cf86a" x1="25.82207" y1="0.91821" x2="26.28066" y2="144.91821" xlink:href="#bd84620c-3409-4b9e-abc6-4ff54b22b030"/><linearGradient id="f47a0a82-0faa-43c5-9cbb-c053a16c791c" x1="16.9161" y1="0.94657" x2="17.3747" y2="144.94657" xlink:href="#bd84620c-3409-4b9e-abc6-4ff54b22b030"/><linearGradient id="f1dea765-b115-452c-950a-a9a8777efc48" x1="25.79345" y1="0.9183" x2="26.25205" y2="144.9183" xlink:href="#bd84620c-3409-4b9e-abc6-4ff54b22b030"/><linearGradient id="b591fa14-c785-4d6a-b390-627c52852bf7" x1="32.34405" y1="0.89744" x2="32.80265" y2="144.89744" xlink:href="#bd84620c-3409-4b9e-abc6-4ff54b22b030"/><linearGradient id="a2c902b5-c9ec-41b2-b4c1-a235294e1d11" x1="32.61327" y1="0.89658" x2="33.07187" y2="144.89658" xlink:href="#bd84620c-3409-4b9e-abc6-4ff54b22b030"/></defs><path class="b64996c2-2c2a-4ca4-9f4e-58d4540d607f" d="M32.78434,83.9111V79.46067h1.55994c10.29209,0,20.58427-.02535,30.87622.01229a9.20273,9.20273,0,0,0,8.97473-5.57532c3.29047-6.687,6.6634-13.3334,9.98776-20.0038Q91.39641,39.42,107.561,39.407c4.67233-.00093,9.34465-.00016,14.175-.00016,0-1.43714.01624-2.76658-.00512-4.09541a2.29793,2.29793,0,0,1,1.34735-2.371,2.23969,2.23969,0,0,1,2.55616.51794q7.55028,6.46857,15.09316,12.94572c1.40672,1.21381,1.422,2.58089.02805,3.78469q-7.52457,6.49837-15.09333,12.94559a2.26216,2.26216,0,0,1-2.55072.55638,2.28505,2.28505,0,0,1-1.37972-2.35115c.018-1.33216.00431-2.66476.00431-4.13106-3.78133,0-7.43054-.00577-11.0797.00347a22.47613,22.47613,0,0,0-3.33114.09482,8.79173,8.79173,0,0,0-6.8408,5.08853Q95.40786,72.591,90.29878,82.77048,83.03937,97.32155,66.78329,97.26506c-4.62623-.016-9.25256-.00267-13.95831-.00267V92.812l1.4202,0c4.45063,0,8.90194.04954,13.35175-.01084,8.29692-.11258,14.471-3.82252,18.28188-11.20543,3.56676-6.91,7.00139-13.88845,10.45927-20.85411,2.65556-5.34944,6.93491-8.007,12.90351-7.98657,4.5433.01558,9.0867.00238,13.63.00335,2.68456.00058,3.23852.541,3.31789,3.22333.00507.17114.03554.34154.08109.75825l9.8451-8.42586c-3.28489-2.81864-6.48712-5.56636-9.75944-8.3742-.60821,3.91735-.60821,3.91733-4.56413,3.91735-4.9606,0-9.92185-.0512-14.88166.0116-8.35356.10576-14.54458,3.85363-18.36528,11.29824q-5.2,10.13217-10.18831,20.37249c-2.76465,5.68172-7.18646,8.43547-13.51265,8.39077-10.15239-.07174-20.30565-.01923-30.45853-.01923Z"/><path class="a68af10d-f66c-4e24-8405-a0ec4d953bef" d="M45.09889,138.7222c-1.04026-.9039-2.04857-1.67285-2.9202-2.574a1.46161,1.46161,0,0,0-1.907-.37655c-.89179.36132-.82664.97577-.84513,1.66694-.11257,4.20912-.23759,4.32811-4.46886,4.32806-2.08534,0-4.1708.01356-6.256-.0045-1.83-.01586-2.62478-.81061-2.66082-2.61653-.012-.60213-.01022-1.2048-.00025-1.807.0108-.65226.052-1.19015-.79155-1.52854a1.527,1.527,0,0,0-1.92242.37852c-3.18085,3.03783-3.29848,3.02043-6.42247-.09294q-2.01853-2.01165-4.03023-4.03014c-1.7286-1.73634-1.71732-2.64385.04575-4.41823.29394-.29583.591-.58857.88367-.88568.44193-.44869.97714-.78432.55182-1.6247-.36869-.72849-.68814-1.19184-1.61049-1.15034-4.87059.21915-4.56609-1.08115-4.51544-4.68666.02864-2.03833-.01275-4.0776.01143-6.11605.02053-1.7303.83518-2.52636,2.56888-2.56708.64842-.01523,1.3-.03882,1.94559.00637a1.244,1.244,0,0,0,1.47228-.88251,1.44281,1.44281,0,0,0-.37658-1.80033c-3.09664-3.27553-3.08157-3.32341.11658-6.52053,1.44192-1.44144,2.8699-2.89717,4.3299-4.32a2.30507,2.30507,0,0,1,3.64522-.01779c.44129.40943.8545.8491,1.28084,1.27466.44376.443.76528.97044,1.61511.58865a1.66638,1.66638,0,0,0,1.18714-1.73379c.0779-4.33626.17772-4.39954,4.50969-4.39951,2.039,0,4.07807-.01048,6.117.00319,1.91875.01286,2.70709.79435,2.73745,2.68179.00968.6022.03045,1.2064-.00565,1.80657-.04222.70183.0607,1.1804.86016,1.48481a1.46929,1.46929,0,0,0,1.8072-.35026c3.31531-3.11506,3.33619-3.09852,6.52271.08756q1.96608,1.96583,3.93163,3.93216c1.79356,1.79858,1.784,2.68325-.04324,4.519-.29422.29557-.57671.60437-.88716.88186-.50614.45239-.85211.85909-.47319,1.642.33776.69791.64908,1.21086,1.51231,1.07236a1.529,1.529,0,0,1,.27761.00417c4.18239.1099,4.30357.23627,4.30349,4.49007,0,2.08506.015,4.17026-.00509,6.25514-.0175,1.81187-.82648,2.60506-2.64169,2.64026-.60221.01168-1.2053.01706-1.80714-.00167-.66763-.02078-1.17792-.00988-1.51669.8126a1.509,1.509,0,0,0,.4032,1.91443c3.02052,3.14125,3.0019,3.3037-.11664,6.42425-1.44121,1.44214-2.85394,2.91461-4.33941,4.30965A13.716,13.716,0,0,1,45.09889,138.7222ZM30.49611,97.33656c.2218,2.89752-1.16016,4.57771-3.75017,5.65683-2.614,1.08911-4.75827.73343-6.57-1.354l-3.06324,2.98981c3.62142,5.08083,1.73182,9.67259-4.345,10.57589v4.32155c2.95229-.27154,4.57207,1.17461,5.65883,3.75608,1.10364,2.62156.7037,4.74652-1.30355,6.50121l3.04757,3.19581c1.86882-2.19939,4.02221-2.459,6.63147-1.36867,2.59706,1.08521,3.91571,2.80617,3.70992,5.61239h4.42083a4.94411,4.94411,0,0,1,2.934-5.2561c2.72137-1.3218,5.2248-1.64374,7.33475.95279l3.19667-3.11867c-2.24789-1.87321-2.42282-4.02452-1.33925-6.63228,1.08634-2.61443,2.82373-3.88581,5.57931-3.68242v-4.42394c-2.34045.1555-4.08874-.60481-5.13816-2.69426-1.37453-2.73672-1.93313-5.373.7958-7.51122l-3.08947-3.24374c-1.77627,2.14659-3.85894,2.44213-6.37982,1.42974-2.62853-1.0556-4.15428-2.69476-3.87824-5.7068Z"/><path class="e43fe993-65c2-464e-a24c-6d75f98c0334" d="M32.70227,57.20689c-1.43658-.00164-2.87413.03158-4.30946-.01084a2.20982,2.20982,0,0,1-2.34644-2.36191c-.02978-.69378-.025-1.39041-.00272-2.08468.02167-.67408.0152-1.20894-.82734-1.504-.74219-.2599-1.24971-.33515-1.81217.31263a14.86859,14.86859,0,0,1-1.8257,1.70638,2.08054,2.08054,0,0,1-3.0125-.09133q-3.19686-3.09237-6.29044-6.29068a2.09633,2.09633,0,0,1-.00871-3.11553c.48517-.55845,1.03009-1.06614,1.56134-1.58309.46709-.45451.89811-.82035.51638-1.63362-.35924-.76534-.73417-1.1604-1.63112-1.12083C7.99027,39.6378,8.163,38.418,8.22825,34.84917c.03475-1.89911.00362-3.79938.00682-5.69911.0041-2.43608.674-3.0901,3.16025-3.09444.41707-.00072.83569-.0231,1.25087.00491a1.3206,1.3206,0,0,0,1.59762-.90578,1.45434,1.45434,0,0,0-.41573-1.79439c-3.06777-3.262-3.05543-3.30737.16129-6.52138q2.016-2.01426,4.03242-4.028c1.57971-1.56856,2.6266-1.55984,4.24208.02584.33067.32457.65513.65548.98125.98466.44651.45068.78459.97046,1.62321.55126.73445-.36712,1.18226-.696,1.14451-1.61326-.19841-4.82094,1.01767-4.56468,4.69338-4.511,2.03858.02978,4.07817-.0126,6.11691.01156,1.72752.02047,2.52486.83783,2.56537,2.57161a19.24974,19.24974,0,0,1-.00745,1.94519,1.20743,1.20743,0,0,0,.893,1.46233c.68947.24714,1.17041.31987,1.69766-.28836a16.215,16.215,0,0,1,1.718-1.61945,2.1333,2.1333,0,0,1,3.2216.00054q3.14835,3.04249,6.19247,6.19209a2.12954,2.12954,0,0,1,.01528,3.219c-.4594.52-.965,1.00075-1.4668,1.4813-.50731.48579-.95537.8659-.5506,1.7511a1.59178,1.59178,0,0,0,1.68149,1.05851c4.35087.09886,4.4125.18215,4.4125,4.50568,0,1.94607.00363,3.89216-.001,5.83823-.00552,2.33553-.70957,3.02192-3.09346,3.02877-.46341.00134-.92814.02231-1.38994-.00494-.68909-.04065-1.19067.03115-1.4931.84552a1.464,1.464,0,0,0,.33221,1.807c3.12666,3.28475,3.10864,3.3507-.06058,6.52158-1.40856,1.4093-2.80822,2.82767-4.22938,4.22415-1.40376,1.37938-2.509,1.35864-3.93789-.039-.39751-.3888-.80813-.76621-1.18118-1.17746-.45886-.50587-.86368-.83742-1.64451-.46564-.70689.33657-1.199.661-1.06354,1.51572a.74446.74446,0,0,1-.00235.1388c-.14618,4.4019-.182,4.43614-4.64337,4.43613Q33.74495,57.20852,32.70227,57.20689ZM52.6479,34.95364v-4.436A4.94166,4.94166,0,0,1,47.397,27.59357c-1.31426-2.71732-1.67773-5.22017,1.0044-7.37926L45.22394,17.039c-1.854,2.25577-4.011,2.43151-6.61783,1.34927-2.61111-1.084-3.88669-2.82362-3.69822-5.5786H30.49253c.14,2.33589-.62449,4.07979-2.70541,5.1383-2.7468,1.39723-5.37579,1.86736-7.47759-.73543l-3.22268,3.04424c2.01844,1.73219,2.41093,3.75106,1.43129,6.24451-1.05074,2.67443-2.662,4.297-5.7591,3.99807v4.33578c6.013.75039,7.90217,5.35907,4.54245,10.30437l2.94761,3.1876A4.95928,4.95928,0,0,1,26.118,46.79454c2.80694,1.02291,4.68559,2.59148,4.37792,5.88181h4.464c-.28606-2.96131,1.19531-4.56013,3.75967-5.656,2.6237-1.12119,4.73921-.663,6.48286,1.26487L48.316,45.363c-2.43021-3.24205-2.50636-4.00324-.85449-7.59816C48.4696,35.57086,50.26292,34.80632,52.6479,34.95364Z"/><path class="eec6963a-f543-495e-ad94-4965166c8249" d="M121.73618,112.8389c-4.91123,0-9.59148.00878-14.2717-.00178Q91.4709,112.801,84.27369,98.51351c-.3936-.78073-.77032-1.57-1.21272-2.47337l3.94589-1.98728c.487.96449.91855,1.8205,1.35137,2.67585q5.86292,11.5863,18.84949,11.65515c5.05169.02517,10.10361.00457,15.15544.00461,3.37228,0,3.70689.31877,3.88237,4.004l9.87159-8.448-9.80371-8.41465c-.05437.49582-.11471.82577-.12292,1.157-.05139,2.074-.78513,2.79593-2.90734,2.79869-4.86642.00631-9.7338.06178-14.599-.01471a13.06161,13.06161,0,0,1-11.95924-7.24354c-1.28045-2.35165-2.41193-4.7844-3.676-7.31078l3.96941-1.98435c1.03982,2.0731,2.09992,4.01428,3.00438,6.02543,1.93615,4.30516,5.20859,6.256,9.91876,6.105,3.878-.12432,7.76312-.02536,11.79462-.02536,0-1.44622.01554-2.77637-.00492-4.106a2.29166,2.29166,0,0,1,1.356-2.36437,2.24613,2.24613,0,0,1,2.55425.5275q7.54739,6.46728,15.08826,12.94211c1.40717,1.21446,1.4189,2.5777.02348,3.78267q-7.52268,6.496-15.08845,12.94208c-.79747.68349-1.77969,1.15576-2.63745.45115a3.90046,3.90046,0,0,1-1.23688-2.24921A27.828,27.828,0,0,1,121.73618,112.8389Z"/><path class="bfa133ae-f160-496c-9bb7-74c0d21d4b4d" d="M71.62743,69.23l-1.83426,3.96033c-2.38037-.14274-4.56913-.37777-6.75888-.38735-9.53542-.04177-19.07114-.01794-28.60675-.01794H32.81471V68.40887c.39686-.02458.79776-.07095,1.19867-.07109,10.50768-.00391,21.01569-.04582,31.52274.03559A46.79971,46.79971,0,0,1,71.62743,69.23Z"/><path class="b5cf356c-4f57-4868-bcfc-a43728fabdef" d="M52.80389,59.43374V55.04461c.50251-.022.95161-.06441,1.4-.05783,5.7334.084,11.4762.01106,17.19544.34294,2.37645.1379,4.70252,1.1439,7.29472,1.81842l-2.055,4.29677c-5.3887-2.77852-11.14841-1.87231-16.79148-2.00239C57.54166,59.38938,55.23356,59.43374,52.80389,59.43374Z"/><path class="ff93d9e2-532e-466a-9903-e93732d45e5d" d="M14.99266,68.40392h4.26323v4.2873H14.99266Z"/><path class="b6c4940b-71b2-4840-85f6-554edbfe9184" d="M23.92911,68.36428h4.22928v4.32738H23.92911Z"/><path class="ad056301-c1ba-4432-9dd3-54bd4b275571" d="M19.3339,79.55v4.24723H15.01249V79.55Z"/><path class="b171a69a-e116-4c88-a661-39daa009d67a" d="M28.17469,83.883h-4.2478V79.56219h4.2478Z"/><path class="ff8a0a39-6909-4611-ae19-cef262b0bfa0" d="M21.59174,117.23135A11.12326,11.12326,0,1,1,32.69268,128.4111,11.151,11.151,0,0,1,21.59174,117.23135Zm17.79457.05332a6.67174,6.67174,0,1,0-6.73863,6.67584A6.696,6.696,0,0,0,39.38631,117.28467Z"/><path class="bd1275ad-6d14-46d0-8a39-bf50fcb329f8" d="M21.59174,32.6646A11.12325,11.12325,0,1,1,32.6841,43.85293,11.15141,11.15141,0,0,1,21.59174,32.6646ZM32.7512,26.0598a6.67137,6.67137,0,1,0,6.6351,6.77608A6.701,6.701,0,0,0,32.7512,26.0598Z"/></svg>