<svg id="ed997a16-bc2e-49d3-9ed5-5fefaa701938" data-name="Layer 1" xmlns="http://www.w3.org/2000/svg" viewBox="0 0 100 100"><defs><style>.a65626a9-06c0-40aa-a25f-d59808242214{fill:#4e1fa3;}.b1ff9994-f0da-434a-bde6-40563df8f3f9{fill:#fff;}</style></defs><rect class="a65626a9-06c0-40aa-a25f-d59808242214" width="100" height="100" rx="12.3949"/><path class="b1ff9994-f0da-434a-bde6-40563df8f3f9" d="M62.55344,81.50944c-1.21873-.5383-1.21806-1.67512-1.3295-2.745-.04412-.42358-.08552-.747-.57958-.94876a.8865.8865,0,0,0-1.02906.25217c-.36664.29612-.73449.594-1.1249.85676a1.59871,1.59871,0,0,1-2.08735-.16282q-1.916-1.869-3.78574-3.78508a1.57955,1.57955,0,0,1-.14813-2.13473c.25718-.36988.547-.71719.824-1.07317.63269-.81307.3654-1.46857-.6625-1.61788-.48662-.07068-.979-.11155-1.45987-.20955a1.55223,1.55223,0,0,1-1.29047-1.51363q-.03392-2.7379-.00071-5.47648a1.53557,1.53557,0,0,1,1.284-1.51552c.581-.11749,1.17626-.16358,1.76468-.245a.87816.87816,0,0,0,.55607-1.34023c-.31979-.42645-.66546-.83383-.97769-1.26555a1.60649,1.60649,0,0,1,.14824-2.23176q1.828-1.87009,3.69812-3.69888a1.61416,1.61416,0,0,1,2.23293-.14658c.35.25028.68494.52188,1.02186.78993.30226.24047.54455.47171,1.02409.262a.91425.91425,0,0,0,.59241-.93815,10.19865,10.19865,0,0,1,.19558-1.39906A1.57,1.57,0,0,1,63.01416,49.876q2.67654-.02664,5.35351.00087A1.565,1.565,0,0,1,69.952,51.23349a11.86718,11.86718,0,0,1,.21268,1.583.722.722,0,0,0,.53114.70941.74831.74831,0,0,0,.935-.11252,12.23213,12.23213,0,0,1,1.112-.87333,1.61569,1.61569,0,0,1,2.28083.12063q1.8727,1.82518,3.69793,3.69885a1.63743,1.63743,0,0,1,.13592,2.23741,10.94131,10.94131,0,0,1-.94975,1.20776.65259.65259,0,0,0-.00209.93329,1.20472,1.20472,0,0,0,.61866.44316,5.92335,5.92335,0,0,0,1.217.15483,2.04567,2.04567,0,0,1,1.76734,1.2183v6.15427a1.97026,1.97026,0,0,1-1.93138,1.34564c-.28563.01577-.5683.09479-.85365.104a.83286.83286,0,0,0-.898.54734.87051.87051,0,0,0,.22632,1.03158c.30267.36092.59413.73386.8601,1.12235a1.59657,1.59657,0,0,1-.135,2.09022q-1.8854,1.94247-3.82963,3.82747a1.59407,1.59407,0,0,1-2.08936.13443,12.80033,12.80033,0,0,1-1.16717-.90205.82358.82358,0,0,0-.98416-.17923.78742.78742,0,0,0-.54764.8327c-.00648.30567-.09025.60913-.10563.91528a1.96034,1.96034,0,0,1-1.34572,1.93114Zm2.98541-9.03454a6.72586,6.72586,0,0,0,6.90934-6.61445,6.5158,6.5158,0,0,0-6.31127-6.88962,6.64307,6.64307,0,0,0-7.2457,6.59883A6.8307,6.8307,0,0,0,65.53885,72.4749Z"/><path class="b1ff9994-f0da-434a-bde6-40563df8f3f9" d="M45.56768,81.50944a2.0725,2.0725,0,0,1-1.39205-1.83508c-.00469-.09848-.2863-.22528-.45718-.26817a6.603,6.603,0,0,1-5.31563-5.46262,18.99114,18.99114,0,0,1-.03278-3.408c.14941-.0094.34677-.03242.54416-.03262,2.37669-.00251,4.75349.00925,7.13-.01173a.90809.90809,0,0,1,.86279.50064c.37364.55257.86964,1.021,1.291,1.54346a.99416.99416,0,0,1,.28395.59631,5.40165,5.40165,0,0,0,1.80194,4.74713,3.86373,3.86373,0,0,0,.562.37217l-.085.27017-2.85939,1.08011a1.95905,1.95905,0,0,1-1.4722,1.90827Z"/><path class="b1ff9994-f0da-434a-bde6-40563df8f3f9" d="M63.65442,46.12716c-.56715.0482-1.08025.05623-1.58027.14121a5.352,5.352,0,0,0-3.21829,1.88823.956.956,0,0,1-.69173.31236,5.29075,5.29075,0,0,0-4.37831,1.52238q-1.9171,1.86673-3.78453,3.78429a5.30126,5.30126,0,0,0-1.5311,4.37634.9572.9572,0,0,1-.30378.69734,5.36821,5.36821,0,0,0-1.99164,4.25055c.001,1.20762.00019,2.41524.00019,3.66561H38.29525c-.05344-.42168-.08652-.847-.16412-1.264a7.48191,7.48191,0,0,0-1.541-3.31235,35.45212,35.45212,0,0,0-2.64559-3.07155,18.15867,18.15867,0,0,1-1.98918-23.7996,17.2599,17.2599,0,0,1,11.60311-6.72968A17.59978,17.59978,0,0,1,63.3396,42.49873,21.648,21.648,0,0,1,63.646,44.6871C63.69118,45.15117,63.65442,45.62323,63.65442,46.12716Z"/><path class="b1ff9994-f0da-434a-bde6-40563df8f3f9" d="M30.08527,26.02882a1.91945,1.91945,0,0,1-1.01434,1.86164,1.6948,1.6948,0,0,1-2.00285-.224,29.00455,29.00455,0,0,1-2.21134-2.20858,1.82962,1.82962,0,0,1,2.56708-2.58968,27.68348,27.68348,0,0,1,2.20587,2.21347A3.18942,3.18942,0,0,1,30.08527,26.02882Z"/><path class="b1ff9994-f0da-434a-bde6-40563df8f3f9" d="M64.09225,28.11173a1.91945,1.91945,0,0,1-1.90393-1.06016,1.71928,1.71928,0,0,1,.27566-2.00451c.67919-.739,1.39266-1.44969,2.129-2.13193a1.79687,1.79687,0,0,1,2.50508.04526,1.82956,1.82956,0,0,1,.0735,2.5547c-.668.72163-1.35953,1.42682-2.09459,2.07848A3.89684,3.89684,0,0,1,64.09225,28.11173Z"/><path class="b1ff9994-f0da-434a-bde6-40563df8f3f9" d="M44.20844,21.28313c0-.36834-.02054-.73806.004-1.10475a1.77737,1.77737,0,0,1,1.65469-1.67989,1.68225,1.68225,0,0,1,1.91223,1.35126,11.62868,11.62868,0,0,1,.01793,2.86314,1.73821,1.73821,0,0,1-1.927,1.42986,1.84375,1.84375,0,0,1-1.66675-1.8159c-.0123-.3475-.002-.69579-.002-1.04372Z"/><path class="b1ff9994-f0da-434a-bde6-40563df8f3f9" d="M21.30225,41.9814c-.4459-.02651-.87947-.017-1.3007-.08452a1.81863,1.81863,0,0,1,.14241-3.60333,19.91751,19.91751,0,0,1,2.33033-.001,1.74861,1.74861,0,0,1,1.66136,1.73051,1.77078,1.77078,0,0,1-1.50481,1.87188A13.29678,13.29678,0,0,1,21.30225,41.9814Z"/><path class="b1ff9994-f0da-434a-bde6-40563df8f3f9" d="M70.73945,38.28176c.38844,0,.77884-.02516,1.16493.00493a1.76336,1.76336,0,0,1,1.67782,1.77886A1.71969,1.71969,0,0,1,72.03643,41.893a13.18384,13.18384,0,0,1-2.56676-.00276,1.69772,1.69772,0,0,1-1.51366-1.902,1.74524,1.74524,0,0,1,1.67968-1.70406c.366-.02694.73571-.00438,1.10373-.00438Z"/><path class="b1ff9994-f0da-434a-bde6-40563df8f3f9" d="M65.68827,68.75241a3.04,3.04,0,0,1-3.10651-3.11118,3.10066,3.10066,0,0,1,6.20071-.00766A3.029,3.029,0,0,1,65.68827,68.75241Z"/></svg>