<?xml version="1.0" encoding="utf-8"?>
<svg id="b367c5d4-756d-4f1e-92f4-eed286a49987" data-name="Layer 1" viewBox="0 0 100 100" xmlns="http://www.w3.org/2000/svg">
  <defs>
    <style>.b07bf73f-1c53-4f87-8a55-e4af05cc9beb{fill:#4e1fa3;}.adce711f-3f98-487b-a3a6-addcc1a9bb53{fill:#fff;}</style>
  </defs>
  <rect class="b07bf73f-1c53-4f87-8a55-e4af05cc9beb" width="100" height="100" rx="50" style="fill: rgb(164, 101, 234);" ry="50"/>
  <path class="adce711f-3f98-487b-a3a6-addcc1a9bb53" d="M62.34705,18.49056A23.75158,23.75158,0,0,1,85.749,39.1406,23.02634,23.02634,0,0,1,82.3351,54.69438a2.302,2.302,0,0,0-.25463,2.25886c1.03265,2.70435,1.97531,5.44291,2.9839,8.15667a2.45881,2.45881,0,0,1-3.39853,3.22147c-3.07326-1.32985-6.1614-2.62539-9.23046-3.96472a2.34714,2.34714,0,0,0-1.88051-.06525A23.58825,23.58825,0,1,1,58.22145,18.96459C59.58474,18.73563,60.97129,18.64524,62.34705,18.49056Zm.45691,6.83917a10.3,10.3,0,0,0-7.32561,2.43661,5.82977,5.82977,0,0,0-2.0771,4.14707,3.42054,3.42054,0,0,0,2.4469,3.43042A3.25106,3.25106,0,0,0,59.707,33.90507a2.40105,2.40105,0,0,1,1.99019-1.42319,8.20326,8.20326,0,0,1,2.0899.18224,1.38429,1.38429,0,0,1,.90638,2.16566,5.2284,5.2284,0,0,1-.99915,1.21794c-.47569.44739-1.02117.82019-1.533,1.22955A8.97725,8.97725,0,0,0,58.68448,46.103a2.72094,2.72094,0,0,0,2.7098,2.55537,7.55059,7.55059,0,0,0,1.20743.02564,2.88477,2.88477,0,0,0,3.005-3.29495,3.87437,3.87437,0,0,1,1.31883-3.23877c.50124-.42162.97985-.87,1.478-1.29548a12.08728,12.08728,0,0,0,3.36127-4.41064A7.22718,7.22718,0,0,0,69.391,27.42069,10.009,10.009,0,0,0,62.804,25.32973ZM57.7751,54.66758a4.32183,4.32183,0,0,0,4.301,4.34677,4.34872,4.34872,0,0,0,.00016-8.69726A4.3327,4.3327,0,0,0,57.7751,54.66758Z"/>
  <path class="adce711f-3f98-487b-a3a6-addcc1a9bb53" d="M38.89905,30.68816c-2.77188,8.32411-2.8601,8.953-2.24284,15.83615H35.858q-6.99876,0-13.99751.00044a4.18818,4.18818,0,0,0-.67985.01506,1.16618,1.16618,0,0,0-1.07457,1.17006,1.18643,1.18643,0,0,0,1.1,1.22329,5.78558,5.78558,0,0,0,.68031.01244c4.8676.00051,9.73527.01232,14.60271-.01511a.86746.86746,0,0,1,.98668.73182c.44888,1.35564.98008,2.684,1.50353,4.09116-.2433.01139-.50465.03422-.766.03432q-8.17152.00309-16.343.00236a3.82446,3.82446,0,0,0-.75432.02548,1.19985,1.19985,0,0,0,.00637,2.36927,3.706,3.706,0,0,0,.75426.02532q8.966.00155,17.9319-.00942a1.1473,1.1473,0,0,1,1.04582.5326c1.095,1.4419,2.25274,2.83621,3.44517,4.321h-.715q-10.81968,0-21.63938.0004a5.00871,5.00871,0,0,0-.75554.01494A1.16368,1.16368,0,0,0,20.106,62.23092a1.18692,1.18692,0,0,0,1.09112,1.23115,6.34479,6.34479,0,0,0,.75588.01357q12.4086.00073,24.81717.01235a2.13953,2.13953,0,0,1,1.12308.28454A26.65047,26.65047,0,0,0,56.654,67.55571c.11658.027.23027.06647.5365.15608-.86736,1.04122-1.58705,2.07323-2.47,2.93861-7.18218,7.039-15.56757,9.07072-25.14738,5.90141a2.70735,2.70735,0,0,0-2.09853.07828c-2.99633,1.31735-6.01625,2.58091-9.01807,3.886A2.48818,2.48818,0,0,1,14.994,77.20777c1.00528-2.71494,1.97226-5.44412,2.9886-8.15484a2.03885,2.03885,0,0,0-.20669-1.98775A23.55632,23.55632,0,0,1,34.13308,31.07342C35.665,30.84158,37.22845,30.81794,38.89905,30.68816Z"/>
</svg>