<svg xmlns="http://www.w3.org/2000/svg" viewBox="0 0 99.85 99.83"><defs><style>.cls-1{fill:#a465ea;}</style></defs><g id="Layer_2" data-name="Layer 2"><g id="Layer_1-2" data-name="Layer 1"><path class="cls-1" d="M99.85,97.66c-.77,1.69-2.11,2.18-3.92,2.17-9.87,0-19.74,0-29.61,0-2.41,0-3.44-1.1-3.52-3.51A14.93,14.93,0,0,1,68,83.82c.46-.4,1-.75,1.51-1.16a15.65,15.65,0,0,0,23.7,0,14.14,14.14,0,0,1,5.7,7.06c.43,1.17.66,2.42,1,3.63Z"/><path class="cls-1" d="M51.31,0c.58.17,1.17.33,1.74.53A9.73,9.73,0,1,1,40.22,9,9.81,9.81,0,0,1,48,.2a5.1,5.1,0,0,0,.63-.2Z"/><path class="cls-1" d="M61.79,19.9a14.42,14.42,0,0,1,6.46,10,27.68,27.68,0,0,1,.2,4.18,2.89,2.89,0,0,1-3,3c-2.47,0-4.94,0-7.41,0-7.4,0-14.8-.08-22.21,0-3.27,0-4.53-1-4.44-4.49a15.1,15.1,0,0,1,4-10.36c.79-.85,1.72-1.56,2.65-2.39a15.66,15.66,0,0,0,23.77.07Z"/><path class="cls-1" d="M6.62,82.61a15.74,15.74,0,0,0,23.79.08,14.68,14.68,0,0,1,5.15,5.79A16.41,16.41,0,0,1,37,97.2a2.87,2.87,0,0,1-3.11,2.6H3.44C1.16,99.8.1,98.67,0,96.4A15,15,0,0,1,3.93,85.05C4.74,84.18,5.69,83.44,6.62,82.61Z"/><path class="cls-1" d="M91.08,72.56a9.75,9.75,0,1,1-9.68-9.79A9.77,9.77,0,0,1,91.08,72.56Z"/><path class="cls-1" d="M28.3,72.54a9.75,9.75,0,1,1-9.7-9.77A9.77,9.77,0,0,1,28.3,72.54Z"/><path class="cls-1" d="M46.35,49.71H60.49a2.93,2.93,0,1,1,0,5.85c-4.32,0-8.63,0-13,0H46.37c.36.4.61.67.85.95a2.91,2.91,0,0,1-.11,4.05,2.86,2.86,0,0,1-4,0c-2-1.93-4-3.91-5.93-5.92a2.83,2.83,0,0,1,0-4.11c1.89-2,3.83-3.88,5.78-5.78a2.92,2.92,0,1,1,4.18,4.07C46.93,49.09,46.71,49.32,46.35,49.71Z"/><path class="cls-1" d="M53.55,73.1H40c-2.34,0-3.7-1.08-3.69-2.93s1.36-2.92,3.69-2.92H53.54c-.37-.4-.63-.66-.87-.94a2.92,2.92,0,0,1,.09-4.05,2.84,2.84,0,0,1,4,0c2,1.95,4,3.95,6,6a2.77,2.77,0,0,1,0,4q-2.94,3.06-6,6a2.86,2.86,0,0,1-4-.06,2.92,2.92,0,0,1-.07-4C52.91,73.77,53.15,73.52,53.55,73.1Z"/></g></g></svg>