<?xml version="1.0" encoding="iso-8859-1"?>
<!-- Generator: Adobe Illustrator 19.0.0, SVG Export Plug-In . SVG Version: 6.00 Build 0)  -->
<svg version="1.1" id="Layer_1" xmlns="http://www.w3.org/2000/svg" xmlns:xlink="http://www.w3.org/1999/xlink" x="0px" y="0px"
	 viewBox="0 0 512 512" style="enable-background:new 0 0 512 512;" xml:space="preserve">
<path style="fill:#FFEA8A;" d="M456.649,200.649H236.125c-20.379-41.006-62.687-69.189-111.584-69.189
	C55.758,131.459,0,187.218,0,256s55.758,124.541,124.541,124.541c48.897,0,91.205-28.184,111.584-69.189h12.956l41.514,41.514
	l41.514-41.514l41.514,41.514l41.513-41.514h41.514L512,256L456.649,200.649z M124.541,283.676
	c-15.26,0-27.676-12.415-27.676-27.676s12.415-27.676,27.676-27.676S152.216,240.74,152.216,256S139.801,283.676,124.541,283.676z"
	/>
<polygon style="fill:#FFDB2D;" points="456.649,200.649 249.081,200.649 249.081,311.351 290.595,352.865 332.108,311.351 
	373.622,352.865 415.135,311.351 456.649,311.351 512,256 "/>
<g>
</g>
<g>
</g>
<g>
</g>
<g>
</g>
<g>
</g>
<g>
</g>
<g>
</g>
<g>
</g>
<g>
</g>
<g>
</g>
<g>
</g>
<g>
</g>
<g>
</g>
<g>
</g>
<g>
</g>
</svg>
