<?xml version="1.0" encoding="utf-8"?>
<svg version="1.1" id="Layer_1" x="0px" y="0px" style="enable-background:new 0 0 512.883 512.883;" viewBox="0 0 512.883 512.883" xmlns="http://www.w3.org/2000/svg">
  <path style="fill: rgb(201, 151, 68);" d="M 224.15 224.777 L 74.749 360.95 C 82.546 380.139 -17.784 285.959 2.787 293.471 L 17.241 264.334 L 59.158 247.061 L 78.109 208.856 L 139.866 186.168 L 140.474 150.371 L 230.783 151.172 L 224.15 224.777 Z" transform="matrix(-1, 0, 0, -1, 230.783463, 513.906158)"/>
  <path style="fill: rgb(243, 188, 92);" d="M 34.604 363.535 C 16.358 346.905 -12.18 323.366 8.39 330.878 L 22.843 301.741 L 64.761 284.468 L 115.27 221.918 L 147.273 224.477 L 146.077 187.778 L 235.147 188.57 L 34.604 363.535 Z" transform="matrix(-1, 0, 0, -1, 236.387527, 551.313004)"/>
  <path style="fill:#FFD5A3;" d="M 506.231 361.048 L 378.231 489.048 C 369.403 497.876 353.514 496.993 342.921 487.282 L 196.382 339.862 C 185.789 329.269 178.727 316.027 176.961 301.903 L 159.306 185.379 C 154.892 158.896 176.078 137.71 203.444 141.241 L 319.968 158.896 C 334.092 160.662 347.334 167.724 357.927 178.317 L 504.465 324.855 C 514.175 336.331 515.058 352.221 506.231 361.048"/>
  <path style="fill:#C99744;" d="M 207.858 384.883 L 176.961 353.986 L 193.733 337.214 C 184.905 327.504 178.726 315.145 176.961 302.786 L 166.368 230.4 C 163.72 230.4 161.954 230.4 159.306 230.4 C 139.885 230.4 122.23 225.986 106.34 217.159 L 106.34 468.745 L 159.306 512.883 L 212.272 468.745 L 212.272 451.09 L 176.962 415.78 L 207.858 384.883 Z"/>
  <g transform="matrix(1, 0, 0, 1, 22, 0)">
    <path style="fill:#DFB789;" d="M338.575,447.559c-2.648,0-4.414-0.883-6.179-2.648c-3.531-3.531-3.531-8.828,0-12.359 l56.497-56.497c3.531-3.531,8.828-3.531,12.359,0c3.531,3.531,3.531,8.828,0,12.359l-56.497,56.497 C342.989,446.676,341.224,447.559,338.575,447.559"/>
    <path style="fill:#DFB789;" d="M313.858,422.841c-2.648,0-4.414-0.883-6.179-2.648c-3.531-3.531-3.531-8.828,0-12.359 l37.076-37.076c3.531-3.531,8.828-3.531,12.359,0c3.531,3.531,3.531,8.828,0,12.359l-37.076,37.076 C318.272,421.959,315.624,422.841,313.858,422.841"/>
    <path style="fill:#DFB789;" d="M288.258,398.124c-2.648,0-4.414-0.883-6.179-2.648c-3.531-3.531-3.531-8.828,0-12.359 l56.497-56.497c3.531-3.531,8.828-3.531,12.359,0c3.531,3.531,3.531,8.828,0,12.359l-56.497,56.497 C293.555,397.241,290.906,398.124,288.258,398.124"/>
  </g>
  <g transform="matrix(1, 0, 0, 1, 22, 0)">
    <path style="fill:#F3BC5C;" d="M119.651,459.917c-5.297,0-8.828-3.531-8.828-8.828V228.634c0-5.297,3.531-8.828,8.828-8.828 s8.828,3.531,8.828,8.828V451.09C128.479,456.386,124.948,459.917,119.651,459.917"/>
    <path style="fill:#F3BC5C;" d="M138.189,186.262c-4.414-26.483,16.772-47.669,44.138-44.138l64.441,9.71 c3.531-11.476,6.179-23.834,6.179-37.076C252.948,51.2,201.748,0,138.189,0C73.748,0.883,22.548,52.083,22.548,115.641 S73.748,230.4,137.306,230.4c2.648,0,4.414,0,7.062,0L138.189,186.262z"/>
  </g>
  <path style="fill:#877E6C;" d="M 274.065 239.228 C 255.527 239.228 236.989 234.814 220.217 226.869 C 176.962 205.683 150.479 163.31 150.479 115.641 C 150.479 112.11 150.479 109.462 151.362 105.931 C 153.128 87.393 158.424 69.738 167.252 53.848 L 182.259 62.676 C 174.314 75.917 169.9 90.924 169.018 106.814 C 169.018 109.462 169.018 112.111 169.018 114.759 C 169.018 155.366 191.97 191.559 229.046 210.097 C 244.053 217.159 259.06 220.69 274.949 220.69 L 274.949 239.228 L 274.065 239.228 Z"/>
  <path style="fill:#DFB789;" d="M 247.582 212.745 C 237.872 212.745 229.927 220.69 229.927 230.4 C 229.927 240.11 237.872 248.055 247.582 248.055 C 257.292 248.055 265.237 240.11 265.237 230.4 C 265.237 220.69 257.293 212.745 247.582 212.745 M 247.582 265.71 C 228.161 265.71 212.272 249.82 212.272 230.4 C 212.272 210.98 228.162 195.09 247.582 195.09 C 267.002 195.09 282.892 210.98 282.892 230.4 C 282.892 249.82 267.003 265.71 247.582 265.71"/>
  <g transform="matrix(1, 0, 0, 1, 22, 0)">
    <path style="fill:#C99744;" d="M137.306,62.676c-9.71,0-17.655,7.945-17.655,17.655s7.945,17.655,17.655,17.655 s17.655-7.945,17.655-17.655S147.017,62.676,137.306,62.676 M137.306,115.641c-19.421,0-35.31-15.89-35.31-35.31 s15.89-35.31,35.31-35.31s35.31,15.89,35.31,35.31S156.727,115.641,137.306,115.641"/>
    <path style="fill:#C99744;" d="M247.651,9.71c-16.772,0-32.662,3.531-46.786,10.593c30.897,20.303,51.2,55.614,51.2,95.338 c0,13.241-1.766,24.717-6.179,37.076l-7.945-1.766l60.028,8.828c14.124,1.766,27.366,8.828,37.959,19.421l3.531,3.531 c12.359-17.655,19.421-39.724,19.421-62.676C357.996,59.145,308.562,9.71,247.651,9.71"/>
  </g>
  <g/>
  <g/>
  <g/>
  <g/>
  <g/>
  <g/>
  <g/>
  <g/>
  <g/>
  <g/>
  <g/>
  <g/>
  <g/>
  <g/>
  <g/>
</svg>