<svg xmlns="http://www.w3.org/2000/svg" viewBox="0 0 100 87.78"><defs><style>.cls-1{fill:#a465ea;}</style></defs><g id="Layer_2" data-name="Layer 2"><g id="Layer_1-2" data-name="Layer 1"><path class="cls-1" d="M100,87.78c-.42,0-.84-.06-1.26-.06-16.24,0-32.48-.09-48.71,0a59.28,59.28,0,0,1-17.34-2.17c-2.72-.79-5.48-1.41-8.23-2.06-.61-.15-.84-.35-.84-1q0-12,0-23.92c0-.59.19-.78.75-1a40,40,0,0,0,5.89-2.53A18.29,18.29,0,0,1,52.54,58a2,2,0,0,0,1.3.42c5.54,0,11.07,0,16.6,0a11.63,11.63,0,0,1,11.47,9c.19.82.25,1.66.39,2.62H50.06V76h1.21q18.4,0,36.81,0a11.68,11.68,0,0,1,11.63,9.11c.09.37.19.74.29,1.1Z"/><path class="cls-1" d="M100,28.39c-.33,1.62-.56,3.27-1,4.86a26.35,26.35,0,0,1-22,19l-.46,0V46.25c0-1.66,0-3.32,0-5a1.19,1.19,0,0,1,.8-1.32A8.75,8.75,0,0,0,75.4,23.43a16.83,16.83,0,0,0-1.74-.19,3,3,0,0,1-3-2.91,2.93,2.93,0,0,1,5.81-.53c0,.15.08.3.12.47H82.4a8.35,8.35,0,0,0-2.76-6.34,22.67,22.67,0,0,0-2.49-1.69c-.23-.16-.56-.42-.56-.64,0-3.84,0-7.67,0-11.6a22.06,22.06,0,0,1,7.91,2.14c8.87,4.29,14,11.31,15.36,21.11a5.19,5.19,0,0,0,.17.65Z"/><path class="cls-1" d="M0,58.48c1,0,1.94-.07,2.92-.07H17.7v29.3H1.16c-.39,0-.77,0-1.16.07Z"/><path class="cls-1" d="M70.63,32.07H64.8a20.65,20.65,0,0,0,.35,2.2A8.82,8.82,0,0,0,70,40.05a1.25,1.25,0,0,1,.66.86c0,3.65,0,7.29,0,10.94a2.44,2.44,0,0,1-.07.46A26.23,26.23,0,0,1,47.32,24.73C48.16,9.54,60.68.72,70.7.07v7c0,1.37,0,2.74,0,4.11A1.05,1.05,0,0,1,70,12.34,8.75,8.75,0,0,0,71.7,28.86a17.05,17.05,0,0,0,2,.25,2.91,2.91,0,0,1,.38,5.78,2.9,2.9,0,0,1-3.32-2.2C70.73,32.51,70.69,32.32,70.63,32.07Z"/></g></g></svg>