<svg id="fc6ddf83-e6e3-418a-83a7-27f87efd6f62" data-name="Layer 1" xmlns="http://www.w3.org/2000/svg" xmlns:xlink="http://www.w3.org/1999/xlink" viewBox="0 0 150 150"><defs><style>.e144e793-c701-4013-b4a9-de6516c08d8c{fill:url(#ed502929-1139-4587-a833-b99d5b141b99);}.b4778b8f-48fb-4bbc-a609-5d40605ae322{fill:url(#bb293503-75a7-4034-9cdd-f6389ea60051);}.b6049a35-bb17-496e-b424-6dd8365f69f7{fill:url(#b33c2c7d-d3a5-46f8-bf5a-60dd116870e7);}.ef4d18b9-2242-48e3-b433-2bf0b8a3dbde{fill:url(#faa9fe6d-2940-42a6-a21d-e0e6195cc154);}</style><linearGradient id="ed502929-1139-4587-a833-b99d5b141b99" x1="75.20641" y1="-0.96955" x2="74.90068" y2="144.86485" gradientUnits="userSpaceOnUse"><stop offset="0" stop-color="#28dcfe"/><stop offset="1" stop-color="#8444fb"/></linearGradient><linearGradient id="bb293503-75a7-4034-9cdd-f6389ea60051" x1="84.76858" y1="-0.9495" x2="84.46284" y2="144.88489" xlink:href="#ed502929-1139-4587-a833-b99d5b141b99"/><linearGradient id="b33c2c7d-d3a5-46f8-bf5a-60dd116870e7" x1="24.77928" y1="-1.07527" x2="24.47355" y2="144.75913" xlink:href="#ed502929-1139-4587-a833-b99d5b141b99"/><linearGradient id="faa9fe6d-2940-42a6-a21d-e0e6195cc154" x1="84.75384" y1="-0.94953" x2="84.4481" y2="144.88486" xlink:href="#ed502929-1139-4587-a833-b99d5b141b99"/></defs><path class="e144e793-c701-4013-b4a9-de6516c08d8c" d="M2.92067,123.34762c1.97146-9.34278,7.75969-16.349,14.14857-22.97924a5.87252,5.87252,0,0,1,1.33816-.79573l-.38209-.60747c-1.5672,0-3.13442.0039-4.70162-.00077-3.80708-.01136-5.59982-1.79868-5.6061-5.58467q-.00246-1.4751-.00025-2.95019c.00195-3.61375,1.13583-5.05668,4.798-5.96281V82.99158q.00006-9.62325.0021-19.2465c.01416-8.92815,6.192-15.12172,15.10682-15.13606,8.1156-.01306,16.23133-.02033,24.34673.02073a1.59093,1.59093,0,0,0,1.73206-1.15857A32.96407,32.96407,0,0,1,76.213,28.13879c.957-.2608,1.27769-.60845,1.25644-1.59362-.06435-2.98369-.02327-5.96966-.02327-9.12366-2.30357,0-4.44542.00555-6.58722-.00125-3.61208-.01147-5.43028-1.838-5.438-5.45743-.003-1.40483-.03033-2.81069.01229-4.2143A4.68277,4.68277,0,0,1,70.0923,3.07365q14.56558-.06185,29.13155.00265a4.5347,4.5347,0,0,1,4.551,4.30608,43.14112,43.14112,0,0,1-.00308,5.75231,4.54363,4.54363,0,0,1-4.57654,4.26689c-2.3811.054-4.76438.01168-7.32312.01168,0,3.39078-.01876,6.65074.03743,9.90942.00426.24715.50463.61992.83491.70788,10.8656,2.89355,18.49558,9.50969,23.00717,19.77571a1.64156,1.64156,0,0,0,1.22989.765q5.20548.09234,10.413-.00076a1.75184,1.75184,0,0,0,1.23378-.78282,7.38565,7.38565,0,0,1,6.79633-3.97027c1.36041-.00365,2.72091-.0091,4.08126.001a7.19481,7.19481,0,0,1,7.32731,5.39075,3.94546,3.94546,0,0,0,.24611.49972v21.923c-.89536,1.3897-1.55031,3.044-2.73437,4.11595-2.762,2.50038-10.828,2.42741-13.70253.05984a7.36356,7.36356,0,0,1-1.79517-2.12384,1.75913,1.75913,0,0,0-1.83322-1.10964c-3.23615.06109-6.47445.04675-9.71129.00782a1.53053,1.53053,0,0,0-1.7,1.04083C109.568,87.34315,96.59464,95.39152,81.75264,94.02087c-13.11669-1.21131-22.46892-8.17636-27.9902-20.138a1.81058,1.81058,0,0,0-1.94466-1.307c-4.59737.05046-9.1956.0204-13.79352.02416-.416.00034-.83193.03392-1.3595.05694v11.78c3.894,1.20805,4.70807,2.32267,4.70551,6.47248-.00072,1.17058.04786,2.34609-.04017,3.51074a4.66543,4.66543,0,0,1-4.789,4.53365c-1.7806.05007-3.56291.039-5.34439.06021-.02869.00034-.05663.06231-.20575.23733.38628.39912.79247.8169,1.19659,1.23669,4.79892,4.98488,9.11315,10.30458,12.05084,16.64775,5.96972,12.89012-2.86914,27.59483-16.44752,29.565a7.67952,7.67952,0,0,0-.93758.25614H22.06675a5.91177,5.91177,0,0,0-.77323-.25567c-9.12812-1.71385-15.00225-7.03505-17.67024-15.896-.29193-.96957-.47112-1.973-.70261-2.96068ZM127.82928,53.39783h-1.62307q-5.279,0-10.558-.00013c-2.80169-.00037-3.01636-.14914-3.98721-2.75475a28.8184,28.8184,0,0,0-54.1625.276c-.79384,2.19865-1.198,2.47808-3.61632,2.47839q-13.092.00168-26.184.00269c-6.34287.00641-10.37267,4.03472-10.38082,10.37q-.01237,9.626-.00183,19.25206v1.44333H31.73389c0-3.81512-.01358-7.51376.0039-11.21226.01682-3.56055,1.91475-5.44885,5.49651-5.45847q8.44638-.02271,16.89286-.0014c2.04361.00276,2.609.41819,3.30926,2.34854a28.85223,28.85223,0,0,0,54.42031-.0525c.6778-1.875,1.23081-2.28883,3.193-2.295,3.75394-.01179,7.50794-.00042,11.2619-.00791.49243-.001.98477-.0564,1.51769-.0891ZM24.61247,99.8554c-5.12961,3.797-13.03379,13.58442-15.31661,19.25361a18.196,18.196,0,0,0-1.50848,6.2039C7.539,136.82371,19.2323,145.043,30.13619,141.201c8.98359-3.16532,13.87539-13.6175,9.70077-21.98926a59.457,59.457,0,0,0-4.49195-7.5807A69.17548,69.17548,0,0,0,24.61247,99.8554ZM142.28221,60.58375c0-3.04374.01543-6.08759-.00558-9.13118-.01339-1.9383-.90789-2.81258-2.8623-2.842-1.31316-.01974-2.62719-.02228-3.94025.00061-1.88669.03288-2.77728.89239-2.78223,2.75222q-.0247,9.27164.00109,18.54336c.00535,1.7998.85184,2.627,2.69282,2.67939,1.35927.03865,2.7211.0341,4.08073.0027,1.96149-.04529,2.80023-.90121,2.81143-2.874C142.2952,66.6713,142.28247,63.62749,142.28221,60.58375ZM70.2805,12.55473H98.92577V7.91435H70.2805ZM36.4655,89.458H12.61219v4.61332H36.4655Zm45.8736-62.4723h4.62357v-9.449H82.3391Z"/><path class="b4778b8f-48fb-4bbc-a609-5d40605ae322" d="M84.55515,36.63172c12.99457-.20665,23.89329,10.52953,24.09193,23.73268A24.0242,24.0242,0,0,1,85.33573,84.569c-13.42268.23126-24.51219-10.19065-24.70446-23.2172A23.96637,23.96637,0,0,1,84.55515,36.63172Zm19.2747,24.01094a19.20485,19.20485,0,1,0-18.98551,19.1459A19.16893,19.16893,0,0,0,103.82985,60.64266Z"/><path class="b6049a35-bb17-496e-b424-6dd8365f69f7" d="M24.59891,108.60486a2.44727,2.44727,0,0,1,2.303,1.92018,3.41718,3.41718,0,0,0,.96118,1.31456,29.68756,29.68756,0,0,1,2.663,2.42784,2.24989,2.24989,0,0,1-.419,3.348,2.3929,2.3929,0,0,1-3.36634-.51808c-.73063-.90622-1.54-1.54331-2.75382-1.22724a2.29888,2.29888,0,0,0-1.82779,2.36238,2.3598,2.3598,0,0,0,2.07486,2.29662,15.34306,15.34306,0,0,1,2.61777.44893,7.15313,7.15313,0,0,1,1.31023,12.95332,2.24671,2.24671,0,0,0-1.37405,1.71012,2.0654,2.0654,0,0,1-2.13743,1.70028,2.08251,2.08251,0,0,1-2.31564-1.644,2.82333,2.82333,0,0,0-1.54808-1.91543,9.45494,9.45494,0,0,1-2.30291-2.2047,2.30637,2.30637,0,0,1,.499-3.24881,2.35671,2.35671,0,0,1,3.276.39631c.1906.20522.33412.456.53389.65039a2.28968,2.28968,0,0,0,2.8261.49141,2.19333,2.19333,0,0,0,1.252-2.439A2.2344,2.2344,0,0,0,24.97327,125.44c-.5896-.13117-1.21688-.08721-1.81186-.20157a7.22055,7.22055,0,0,1-5.764-6.13464,7.10445,7.10445,0,0,1,3.661-7.17124,1.954,1.954,0,0,0,1.20587-1.5054A2.1965,2.1965,0,0,1,24.59891,108.60486Z"/><path class="ef4d18b9-2242-48e3-b433-2bf0b8a3dbde" d="M87.01207,65.52345c.01692-1.46678-.982-2.42287-2.70985-2.53371a7.15686,7.15686,0,0,1-3.221-13.38255,2.05727,2.05727,0,0,0,1.28864-1.60414,2.33074,2.33074,0,0,1,4.49881-.018,2.64453,2.64453,0,0,0,1.36479,1.72827,11.64589,11.64589,0,0,1,2.64208,2.63431,2.2415,2.2415,0,0,1-.77117,3.17922,2.2894,2.2894,0,0,1-3.13664-.58048c-.86654-1.17048-1.82734-1.92761-3.31992-1.27671A2.20735,2.20735,0,0,0,82.3,56.19c.16313,1.27269.91373,1.7932,2.904,2.0353a7.15,7.15,0,0,1,6.48512,5.87727c.61037,3.12222-.8391,5.98772-3.84031,7.73642a2.12947,2.12947,0,0,0-.83183,1.11159c-.44093,1.34263-1.30543,2.13726-2.498,2.03009a2.37616,2.37616,0,0,1-2.275-2.10644,2.50544,2.50544,0,0,0-.8552-1.09066,26.36421,26.36421,0,0,1-2.70288-2.3904,2.2612,2.2612,0,0,1,.424-3.449,2.28814,2.28814,0,0,1,3.33634.58515c.74492.93,1.64707,1.574,2.76894,1.11524.67983-.278,1.15176-1.081,1.68853-1.67391C87.01226,65.85082,86.99231,65.61518,87.01207,65.52345Z"/></svg>