<?xml version="1.0" encoding="utf-8"?>
<svg viewBox="0 0 24 24" fill="none" xmlns="http://www.w3.org/2000/svg">
  <path opacity="0.1" d="M3 12C3 4.5885 4.5885 3 12 3C19.4115 3 21 4.5885 21 12C21 19.4115 19.4115 21 12 21C4.5885 21 3 19.4115 3 12Z" fill="#323232"/>
  <path d="M3 12C3 4.5885 4.5885 3 12 3C19.4115 3 21 4.5885 21 12C21 19.4115 19.4115 21 12 21C4.5885 21 3 19.4115 3 12Z" stroke-width="2" style="stroke: rgb(169, 171, 173);"/>
  <path id="secondary" d="M 17.858 15.107 L 11.024 15.107 C 10.273 15.107 9.802 14.288 10.178 13.634 C 10.353 13.329 10.675 13.142 11.024 13.142 L 17.858 13.142 C 18.609 13.142 19.079 13.961 18.703 14.616 C 18.529 14.919 18.207 15.107 17.858 15.107 Z M 17.858 11.178 L 11.024 11.178 C 10.273 11.178 9.802 10.359 10.178 9.705 C 10.353 9.4 10.675 9.214 11.024 9.214 L 17.858 9.214 C 18.609 9.214 19.079 10.032 18.703 10.687 C 18.529 10.99 18.207 11.178 17.858 11.178 Z M 6.63 8.723 C 5.504 8.723 4.799 9.95 5.362 10.933 C 5.926 11.915 7.335 11.915 7.899 10.933 C 8.027 10.709 8.095 10.454 8.095 10.196 C 8.095 9.382 7.44 8.723 6.63 8.723 Z M 6.63 12.651 C 5.504 12.651 4.799 13.879 5.362 14.861 C 5.926 15.844 7.335 15.844 7.899 14.861 C 8.027 14.637 8.095 14.383 8.095 14.125 C 8.095 13.31 7.44 12.651 6.63 12.651 Z" style="opacity: 0.8; fill: rgb(50, 50, 50); paint-order: fill;"/>
</svg>