<?xml version="1.0" encoding="utf-8"?><!-- Uploaded to: SVG Repo, www.svgrepo.com, Generator: SVG Repo Mixer Tools -->
<svg width="800px" height="800px" viewBox="0 0 24 24" fill="none" xmlns="http://www.w3.org/2000/svg">
<path d="M3.35288 8.95043C4.00437 6.17301 6.17301 4.00437 8.95043 3.35288C10.9563 2.88237 13.0437 2.88237 15.0496 3.35288C17.827 4.00437 19.9956 6.17301 20.6471 8.95044C21.1176 10.9563 21.1176 13.0437 20.6471 15.0496C19.9956 17.827 17.827 19.9956 15.0496 20.6471C13.0437 21.1176 10.9563 21.1176 8.95044 20.6471C6.17301 19.9956 4.00437 17.827 3.35288 15.0496C2.88237 13.0437 2.88237 10.9563 3.35288 8.95043Z" fill="#363853" fill-opacity="0.15"/>
<path d="M3.35288 15.0496L2.6227 15.2209L3.35288 15.0496ZM3.35288 8.95043L2.6227 8.77915L3.35288 8.95043ZM20.6471 8.95044L19.9169 9.12171L20.6471 8.95044ZM20.6471 15.0496L19.9169 14.8783L20.6471 15.0496ZM15.0496 20.6471L14.8783 19.9169L15.0496 20.6471ZM8.95044 20.6471L9.12171 19.9169L8.95044 20.6471ZM8.95043 3.35288L9.12171 4.08306L8.95043 3.35288ZM15.0496 3.35288L14.8783 4.08306L15.0496 3.35288ZM7.8491 8.86899C7.55621 8.5761 7.08134 8.5761 6.78844 8.86899C6.49555 9.16188 6.49555 9.63676 6.78844 9.92965L7.8491 8.86899ZM8.35904 10.4396L7.82871 10.9699C8.12161 11.2628 8.59648 11.2628 8.88937 10.9699L8.35904 10.4396ZM10.9699 8.88938C11.2628 8.59648 11.2628 8.12161 10.9699 7.82872C10.677 7.53582 10.2022 7.53582 9.90926 7.82872L10.9699 8.88938ZM13.0403 9.16946C12.6261 9.16946 12.2903 9.50524 12.2903 9.91946C12.2903 10.3337 12.6261 10.6695 13.0403 10.6695V9.16946ZM16.6812 10.6695C17.0954 10.6695 17.4312 10.3337 17.4312 9.91946C17.4312 9.50524 17.0954 9.16946 16.6812 9.16946V10.6695ZM7.8491 14.0704C7.55621 13.7775 7.08134 13.7775 6.78844 14.0704C6.49555 14.3632 6.49555 14.8381 6.78844 15.131L7.8491 14.0704ZM8.35904 15.641L7.82871 16.1713C8.12161 16.4642 8.59648 16.4642 8.88937 16.1713L8.35904 15.641ZM10.9699 14.0907C11.2628 13.7978 11.2628 13.323 10.9699 13.0301C10.677 12.7372 10.2022 12.7372 9.90926 13.0301L10.9699 14.0907ZM13.0403 14.3708C12.6261 14.3708 12.2903 14.7066 12.2903 15.1208C12.2903 15.535 12.6261 15.8708 13.0403 15.8708V14.3708ZM16.6812 15.8708C17.0954 15.8708 17.4312 15.535 17.4312 15.1208C17.4312 14.7066 17.0954 14.3708 16.6812 14.3708V15.8708ZM4.08306 14.8783C3.63898 12.9851 3.63898 11.0149 4.08306 9.12171L2.6227 8.77915C2.12577 10.8976 2.12577 13.1024 2.6227 15.2209L4.08306 14.8783ZM19.9169 9.12171C20.361 11.0149 20.361 12.9851 19.9169 14.8783L21.3773 15.2208C21.8742 13.1024 21.8742 10.8976 21.3773 8.77916L19.9169 9.12171ZM14.8783 19.9169C12.9851 20.361 11.0149 20.361 9.12171 19.9169L8.77916 21.3773C10.8976 21.8742 13.1024 21.8742 15.2208 21.3773L14.8783 19.9169ZM9.12171 4.08306C11.0149 3.63898 12.9851 3.63898 14.8783 4.08306L15.2208 2.6227C13.1024 2.12577 10.8976 2.12577 8.77916 2.6227L9.12171 4.08306ZM9.12171 19.9169C6.62161 19.3305 4.6695 17.3784 4.08306 14.8783L2.6227 15.2209C3.33924 18.2756 5.72441 20.6608 8.77916 21.3773L9.12171 19.9169ZM15.2208 21.3773C18.2756 20.6608 20.6608 18.2756 21.3773 15.2208L19.9169 14.8783C19.3305 17.3784 17.3784 19.3305 14.8783 19.9169L15.2208 21.3773ZM14.8783 4.08306C17.3784 4.6695 19.3305 6.62161 19.9169 9.12171L21.3773 8.77916C20.6608 5.72441 18.2756 3.33924 15.2208 2.6227L14.8783 4.08306ZM8.77916 2.6227C5.72441 3.33924 3.33924 5.72441 2.6227 8.77915L4.08306 9.12171C4.6695 6.6216 6.62161 4.6695 9.12171 4.08306L8.77916 2.6227ZM6.78844 9.92965L7.82871 10.9699L8.88937 9.90926L7.8491 8.86899L6.78844 9.92965ZM8.88937 10.9699L10.9699 8.88938L9.90926 7.82872L7.82871 9.90926L8.88937 10.9699ZM13.0403 10.6695H16.6812V9.16946H13.0403V10.6695ZM6.78844 15.131L7.82871 16.1713L8.88937 15.1106L7.8491 14.0704L6.78844 15.131ZM8.88937 16.1713L10.9699 14.0907L9.90926 13.0301L7.82871 15.1106L8.88937 16.1713ZM13.0403 15.8708H16.6812V14.3708H13.0403V15.8708Z" fill="#363853"/>
</svg>