<?xml version="1.0" encoding="utf-8"?>
<svg width="512px" height="512px" viewBox="0 0 512 512" id="Layer_1" style="enable-background:new 0 0 512 512;" version="1.1" xmlns="http://www.w3.org/2000/svg">
  <style type="text/css">
	.st0{fill:#2B79C2;}
	.st1{fill:#3B4652;}
	.st2{fill:#333333;}
</style>
  <g style="" transform="matrix(1.133672, 0, 0, 1.104932, -35.03046, -28.175762)">
    <path class="st1" d="M194.1,244.1v-30.2c0-10.8-8.8-19.6-19.7-19.6H147c-9.4,0-17.5,6.7-19.3,15.9c-0.2,1.2-0.4,2.5-0.4,3.7v30.2   c-3,1.3-5.1,4.3-5.1,7.8v49.4c0,4.7,3.8,8.5,8.5,8.5h60.1c4.7,0,8.5-3.8,8.5-8.5v-49.4c0-0.8-0.1-1.5-0.3-2.2   C198.3,247.2,196.5,245.1,194.1,244.1z M178.1,243.5h-34.8v-29.6c0-0.2,0-0.5,0.1-0.7c0.3-1.7,1.8-3,3.6-3h27.5   c2,0,3.7,1.6,3.7,3.6V243.5z" style="fill: rgb(164, 101, 234);"/>
    <path class="st0" d="M 394.1 312.5 C 363.5 312.5 336.7 328.3 321.2 352.1 C 321.1 352 321 352 320.9 351.9 L 270.5 325.4 C 283.2 305.3 290.6 281.5 290.6 256 C 290.6 237.1 286.6 219.1 279.3 202.9 C 279.7 202.7 280.1 202.5 280.4 202.2 L 327.6 169 C 327.7 168.9 327.8 168.8 327.9 168.8 C 330.8 172.2 333.9 175.4 337.3 178.3 L 370.4 147.5 C 358.6 137 350.8 119.4 350.8 101.8 C 350.8 73.9 370.2 60.1 394.2 60.1 C 418.1 60.1 437.5 73.9 437.5 101.8 C 437.5 119.4 429.7 137 418 147.5 L 451.1 178.3 C 469.5 162.3 481.2 138.8 481.2 112.5 C 481.2 64.4 442.2 25.5 394.2 25.5 C 346.1 25.5 307.2 64.4 307.2 112.5 C 307.2 128.3 311.4 143.1 318.7 155.8 C 318.6 155.9 318.5 155.9 318.4 156 L 271.9 188.7 C 249.1 151.2 207.9 126.1 160.8 126.1 C 89 126.2 30.9 184.3 30.9 256 C 30.9 327.7 89 385.9 160.7 385.9 C 201.1 385.9 237.3 367.4 261.1 338.4 C 261.5 338.7 261.8 338.9 262.3 339.2 L 313.4 366.1 C 313.5 366.2 313.6 366.2 313.7 366.2 C 309.4 376.5 307.1 387.7 307.1 399.5 C 307.1 447.5 346.1 486.5 394.1 486.5 C 442.1 486.5 481.1 447.5 481.1 399.5 C 481.1 351.5 442.2 312.5 394.1 312.5 Z M 234.1 315.3 C 216.8 336.7 190.3 350.4 160.7 350.4 C 108.6 350.4 66.4 308.2 66.4 256.1 C 66.4 204 108.6 161.8 160.7 161.8 C 198.6 161.8 231.4 184.2 246.3 216.5 C 251.9 228.5 255 242 255 256.1 C 255.1 278.4 247.2 299.1 234.1 315.3 Z" style="fill: rgb(164, 101, 234);"/>
  </g>
</svg>