<svg xmlns="http://www.w3.org/2000/svg" viewBox="0 0 99.81 76.18"><defs><style>.cls-1{fill:#a465ea;}</style></defs><g id="Layer_2" data-name="Layer 2"><g id="Layer_1-2" data-name="Layer 1"><path class="cls-1" d="M0,31.45a3.55,3.55,0,0,1,3.93-2.16c.71.07,1.43,0,2.14,0s1-.19,1.31-.9c.73-2.05,1.59-4,2.46-6.23-.79-.76-1.71-1.63-2.61-2.52a2.94,2.94,0,0,1,0-4.55q3.92-3.94,7.85-7.87a2.94,2.94,0,0,1,4.61,0c.87.87,1.72,1.77,2.49,2.56,2.32-.91,4.52-1.76,6.69-2.66a1,1,0,0,0,.38-.75c0-1.17,0-2.34,0-3.51A2.82,2.82,0,0,1,31.89,0c3-.07,6,0,9,0V17.75a20.27,20.27,0,0,0-17.63,6.18A19.63,19.63,0,0,0,17.56,38a19.83,19.83,0,0,0,7,15.49,20.23,20.23,0,0,0,16.3,4.9V76.11c-.23,0-.48.06-.72.06h-7.7A3,3,0,0,1,29.24,73c0-1.07,0-2.15,0-3.22a1.11,1.11,0,0,0-.56-.81c-2.08-.88-4.2-1.7-6.53-2.63-.72.76-1.57,1.69-2.46,2.59a2.94,2.94,0,0,1-4.61,0Q11.12,65,7.2,61.06a2.94,2.94,0,0,1,0-4.55c.9-.89,1.82-1.75,2.6-2.5-.93-2.35-1.76-4.53-2.65-6.69a1,1,0,0,0-.72-.42,17.8,17.8,0,0,0-2.53,0A3.55,3.55,0,0,1,0,44.73Z"/><path class="cls-1" d="M46.85.05H76.41V20c0,2.34,1.12,3.45,3.47,3.45H99.81v1.07q0,24.12,0,48.23c0,2.3-1.12,3.44-3.39,3.44H46.85ZM70.32,35.16c4.93,0,9.86,0,14.8,0a2.92,2.92,0,1,0,0-5.84q-14.79,0-29.59,0a2.78,2.78,0,0,0-2.69,1.76,2.92,2.92,0,0,0,2.82,4.09C60.58,35.17,65.45,35.16,70.32,35.16Zm0,11.72H84.87a2.95,2.95,0,1,0,0-5.86H79.19c-7.76,0-15.52,0-23.27,0a3,3,0,0,0-3,1.65,2.91,2.91,0,0,0,2.8,4.22Zm0,11.72h14.5a2.94,2.94,0,0,0,2.93-1.69c1-2-.5-4.16-2.89-4.17H55.81a2.94,2.94,0,1,0,.06,5.86Zm-8.8-35.16h5.83a2.93,2.93,0,1,0,0-5.85q-5.79,0-11.58,0a2.94,2.94,0,1,0,0,5.85Z"/><path class="cls-1" d="M40.89,23.79v5.93c-4.3-1.07-7.87,0-10.29,3.76a8.11,8.11,0,0,0,0,9.3c2.43,3.71,6,4.75,10.25,3.68v5.88c-3.4,1.09-10,.23-14.25-5.05a14.69,14.69,0,0,1-1-17A14.48,14.48,0,0,1,40.89,23.79Z"/><path class="cls-1" d="M82.29,17.51V2.17C87.38,7.26,92.54,12.43,97.6,17.51Z"/><path class="cls-1" d="M40.93,38.07A2.92,2.92,0,1,1,38,35.16,3,3,0,0,1,40.93,38.07Z"/></g></g></svg>