<!DOCTYPE svg PUBLIC "-//W3C//DTD SVG 1.1//EN" "http://www.w3.org/Graphics/SVG/1.1/DTD/svg11.dtd">
<!-- Uploaded to: SVG Repo, www.svgrepo.com, Transformed by: SVG Repo Mixer Tools -->
<svg fill="#5e5c64" width="800px" height="800px" viewBox="-3.2 -3.2 38.40 38.40" version="1.1" xmlns="http://www.w3.org/2000/svg" stroke="#5e5c64">
<g id="SVGRepo_bgCarrier" stroke-width="0"/>
<g id="SVGRepo_tracerCarrier" stroke-linecap="round" stroke-linejoin="round"/>
<g id="SVGRepo_iconCarrier"> <title>wallet</title> <path d="M0 26.016q0 2.496 1.76 4.224t4.256 1.76h16q2.464 0 4.224-1.76t1.76-4.224v-4h2.016q0.8 0 1.408-0.576t0.576-1.44v-8q0-0.832-0.576-1.408t-1.408-0.576h-2.016v-4q0-2.496-1.76-4.256t-4.224-1.76h-16q-2.496 0-4.256 1.76t-1.76 4.256v20zM4 26.016v-20q0-0.832 0.576-1.408t1.44-0.608h16q0.8 0 1.408 0.608t0.576 1.408v4h-5.984q-0.832 0-1.44 0.576t-0.576 1.408v8q0 0.832 0.576 1.44t1.44 0.576h1.984v1.984h2.016v-1.984h1.984v4q0 0.832-0.576 1.408t-1.408 0.576h-16q-0.832 0-1.44-0.576t-0.576-1.408zM6.016 24q0 0.832 0.576 1.44t1.408 0.576v-2.016h-1.984zM6.016 22.016h1.984v-2.016h-1.984v2.016zM6.016 18.016h1.984v-2.016h-1.984v2.016zM6.016 14.016h1.984v-2.016h-1.984v2.016zM6.016 10.016h1.984v-2.016h-1.984v2.016zM8 8h2.016v-1.984h-2.016v1.984zM10.016 26.016h1.984v-2.016h-1.984v2.016zM12 8h2.016v-1.984h-2.016v1.984zM14.016 26.016h1.984v-2.016h-1.984v2.016zM16 8h2.016v-1.984h-2.016v1.984zM18.016 26.016h1.984v-2.016h-1.984v2.016zM18.016 20v-8h12v8h-12zM20 16q0 0.832 0.576 1.44t1.44 0.576 1.408-0.576 0.576-1.44-0.576-1.408-1.408-0.576-1.44 0.576-0.576 1.408zM20 8h2.016q0-0.832-0.608-1.408t-1.408-0.576v1.984z"/> </g>
</svg>