<svg id="aa3b7172-5708-4593-b79c-a651664de42c" data-name="Layer 1" xmlns="http://www.w3.org/2000/svg" xmlns:xlink="http://www.w3.org/1999/xlink" viewBox="0 0 100 100"><defs><style>.bca8cf2c-ca2c-4866-a52a-ea609024384d{fill:none;}.e9d6e324-253f-4330-b70b-cf78a1cf8b79{clip-path:url(#fcad77b9-4993-4a0e-9bb4-437aebe1caa1);}.e1bf791b-0062-4f46-a0b7-d9a81a262bba{fill:#8759c9;}.a21880e9-188f-4df1-8298-f0afdc22da5e{fill:#661eb9;}</style><clipPath id="fcad77b9-4993-4a0e-9bb4-437aebe1caa1"><rect class="bca8cf2c-ca2c-4866-a52a-ea609024384d" width="100" height="100"/></clipPath></defs><g class="e9d6e324-253f-4330-b70b-cf78a1cf8b79"><rect class="e1bf791b-0062-4f46-a0b7-d9a81a262bba" x="26.61221" y="16.98844" width="46.42692" height="66.71496"/><path class="a21880e9-188f-4df1-8298-f0afdc22da5e" d="M30.44771,95.91323a7.82027,7.82027,0,0,1-3.826-2.16346,7.25818,7.25818,0,0,1-1.66164-5.05944q.01391-25.28184.00538-50.56369,0-13.44779-.00638-26.89557A6.77687,6.77687,0,0,1,27.5432,5.418a6.436,6.436,0,0,1,4.00946-1.32173q18.38185-.01033,36.76372.005c3.889.00784,6.55148,2.71015,6.7132,6.68151.00729.179.003.35856.003.53786q.00017,38.68482.00837,77.36963c.00123,2.4072-.62469,4.51944-2.67928,5.9296a17.53707,17.53707,0,0,1-2.81123,1.29333ZM71.19848,82.0173V17.98844H28.61221V82.0173ZM44.48512,90.82478h10.973c0-.965-.03606-1.88339.01211-2.79733.03465-.65738-.16741-.87738-.85078-.86957-3.04408.03479-6.08878.015-9.13326.015l-1.0011,0ZM49.99026,9.15306a1.84206,1.84206,0,0,0-1.83873,1.81005,1.82237,1.82237,0,0,0,1.72052,1.82863A1.86427,1.86427,0,0,0,51.774,11.03807,1.88763,1.88763,0,0,0,49.99026,9.15306Z"/></g></svg>