<svg xmlns="http://www.w3.org/2000/svg" viewBox="0 0 75 72.75"><defs><style>.cls-1{fill:#661eb6;}</style></defs><g id="Layer_2" data-name="Layer 2"><g id="Layer_1-2" data-name="Layer 1"><path class="cls-1" d="M75,3.64V45.47l-.58,0H.74c-.23,0-.47,0-.74,0V4.53a5.14,5.14,0,0,1,.07-.88A4.44,4.44,0,0,1,4.7,0H70.76a4.28,4.28,0,0,1,3.53,2A12.61,12.61,0,0,1,75,3.64ZM37.8,22H49.65a2.36,2.36,0,0,0,1.92-.72A2.1,2.1,0,0,0,52,19a2.17,2.17,0,0,0-2.14-1.36H26.19c-.22,0-.44,0-.65,0a2.23,2.23,0,0,0-2.1,2.23A2.16,2.16,0,0,0,25.65,22Zm-7.08,8.81h5a2.19,2.19,0,0,0,2.32-2.2,2.22,2.22,0,0,0-2.34-2.2q-5,0-9.94,0a2.23,2.23,0,0,0-2.36,2.18,2.2,2.2,0,0,0,2.38,2.22ZM24.35,13.21h4.46A2.2,2.2,0,0,0,31.2,11a2.24,2.24,0,0,0-2.43-2.19H20A2.24,2.24,0,0,0,17.58,11,2.2,2.2,0,0,0,20,13.21Zm0,26.42c1.49,0,3,0,4.46,0a2.19,2.19,0,0,0,2.35-2.17,2.23,2.23,0,0,0-2.39-2.22H20a2.23,2.23,0,0,0-2.39,2.22,2.19,2.19,0,0,0,2.35,2.17C21.42,39.64,22.9,39.63,24.39,39.63Zm22.85-8.81H50.9a2.2,2.2,0,1,0,0-4.4q-3.66,0-7.31,0a2.2,2.2,0,0,0-2.33,2.2,2.17,2.17,0,0,0,2.31,2.2ZM61.34,22c.88,0,1.76,0,2.63,0a2.18,2.18,0,0,0,2.24-2.13,2.16,2.16,0,0,0-2.06-2.24q-2.78-.11-5.55,0a2.16,2.16,0,0,0-2.05,2.24A2.18,2.18,0,0,0,58.79,22C59.64,22,60.49,22,61.34,22Zm0,8.81H64a2.2,2.2,0,1,0,0-4.39c-1.75,0-3.51,0-5.26,0a2.2,2.2,0,1,0,0,4.39ZM11,13.2A2.19,2.19,0,0,0,13.18,11a2.2,2.2,0,1,0-4.39,0A2.2,2.2,0,0,0,11,13.2ZM10.94,22a2.19,2.19,0,0,0,2.24-2.14,2.2,2.2,0,1,0-4.39-.09A2.2,2.2,0,0,0,10.94,22Zm0,8.81a2.19,2.19,0,0,0,2.22-2.16,2.2,2.2,0,1,0-4.39-.06A2.2,2.2,0,0,0,11,30.82Zm0,8.8a2.19,2.19,0,0,0,2.2-2.18,2.2,2.2,0,1,0-4.39,0A2.2,2.2,0,0,0,11,39.62Z"/><path class="cls-1" d="M75,55.16c-.14.33-.26.67-.42,1a4.27,4.27,0,0,1-3.81,2.55H70q-32.54,0-65.08,0A4.91,4.91,0,0,1,1.5,57.61,4,4,0,0,1,0,54.82C0,53.22,0,51.61,0,49.9H74l1,0Z"/><path class="cls-1" d="M24.32,68.34V63.16H50.67v5.18h.83c1.51,0,3,0,4.53,0a2.18,2.18,0,0,1,2.27,2.19,2.23,2.23,0,0,1-2.2,2.2c-.17,0-.34,0-.51,0q-18.08,0-36.16,0a5.14,5.14,0,0,1-.88,0,2.21,2.21,0,0,1-1.85-2.29,2.17,2.17,0,0,1,2.17-2.06c1.52,0,3,0,4.54,0Z"/></g></g></svg>