<svg width="512" height="512" xmlns="http://www.w3.org/2000/svg" xml:space="preserve" version="1.1">

 <g>
  <title>Layer 1</title>
  <path id="svg_1" fill="#808285" d="m441.895,316.884c19.696,-92.26 -30.84,-184.075 -117.617,-217.564c-8.374,-3.232 -12.541,-12.639 -9.311,-21.012s12.643,-12.542 21.012,-9.311c101.75,39.267 160.721,146.861 137.7,254.673c-4.537,21.255 -36.27,14.212 -31.784,-6.786z"/>
  <path id="svg_2" fill="#A7A9AC" d="m131.424,461.852c-7.444,-5.013 -9.415,-15.112 -4.402,-22.556c5.013,-7.444 15.112,-9.416 22.556,-4.402c63.976,43.086 148.163,43.251 212.386,0c7.444,-5.014 17.542,-3.043 22.556,4.402c5.014,7.444 3.043,17.543 -4.402,22.556c-75.236,50.672 -173.775,50.457 -248.694,0z"/>
  <path id="svg_3" fill="#808285" d="m384.521,439.296c-5.014,-7.445 -15.112,-9.416 -22.556,-4.402c-32.083,21.606 -69.148,32.377 -106.187,32.375l0,32.505c43.363,0.002 86.759,-12.611 124.342,-37.922c7.443,-5.014 9.415,-15.112 4.401,-22.556z"/>
  <path id="svg_4" fill="#A7A9AC" d="m37.877,323.669c-23.139,-108.361 36.437,-215.595 137.7,-254.673c8.37,-3.23 17.78,0.936 21.012,9.311c3.231,8.374 -0.937,17.781 -9.311,21.012c-86.702,33.46 -137.33,125.221 -117.617,217.564c4.495,21.046 -27.257,28.003 -31.784,6.786z"/>
  <g id="svg_5">
   <path id="svg_6" fill="#B9F7F9" d="m255.778,199.652c-51.673,0 -93.713,-42.04 -93.713,-93.714c0,-51.647 41.851,-93.714 93.713,-93.714c51.979,0 93.713,42.189 93.713,93.714c0,51.674 -42.041,93.714 -93.713,93.714z"/>
   <path id="svg_7" fill="#B9F7F9" d="m93.714,480.362c-51.674,0 -93.714,-42.04 -93.714,-93.714c0,-50.431 40.869,-93.714 93.714,-93.714c51.673,0 93.713,42.04 93.713,93.714c-0.001,52.683 -42.772,93.714 -93.713,93.714z"/>
   <path id="svg_8" fill="#B9F7F9" d="m417.842,480.823c-50.683,0 -93.713,-40.829 -93.713,-93.714c0,-51.674 42.04,-93.714 93.713,-93.714c52.848,0 93.714,43.283 93.714,93.714c0,51.673 -42.04,93.714 -93.714,93.714z"/>
  </g>
  <g id="svg_9">
   <path id="svg_10" fill="#00D8E0" d="m255.778,12.226l0,187.426c51.673,0 93.713,-42.04 93.713,-93.714c0,-51.525 -41.735,-93.712 -93.713,-93.712z"/>
   <path id="svg_11" fill="#00D8E0" d="m93.268,292.936l0,187.426c51.673,0 93.713,-42.04 93.713,-93.714c0,-51.525 -41.734,-93.712 -93.713,-93.712z"/>
   <path id="svg_12" fill="#00D8E0" d="m418.287,292.936l0,187.426c51.673,0 93.713,-42.04 93.713,-93.714c0,-51.525 -41.735,-93.712 -93.713,-93.712z"/>
  </g>
  <g id="svg_13"/>
  <g id="svg_14"/>
  <g id="svg_15"/>
  <g id="svg_16"/>
  <g id="svg_17"/>
  <g id="svg_18"/>
  <g id="svg_19"/>
  <g id="svg_20"/>
  <g id="svg_21"/>
  <g id="svg_22"/>
  <g id="svg_23"/>
  <g id="svg_24"/>
  <g id="svg_25"/>
  <g id="svg_26"/>
  <g id="svg_27"/>
  <text font-weight="bold" xml:space="preserve" text-anchor="start" font-family="'El Messiri'" font-size="200" id="svg_28" y="363" x="191" stroke-width="0" stroke="#000" fill="#414056">T</text>
 </g>
</svg>