<svg id="f0ef9d2e-62f4-4371-8556-5c18e28813ac" data-name="Layer 1" xmlns="http://www.w3.org/2000/svg" viewBox="0 0 100 100"><defs><style>.ea6b15e2-2fb1-4dd1-9935-5f4a699a6e4f{fill:#4e1fa3;}.ed2ed738-0480-4f51-b913-540dbe25d900{fill:#fff;}</style></defs><rect class="ea6b15e2-2fb1-4dd1-9935-5f4a699a6e4f" width="100" height="100" rx="12.3949"/><path class="ed2ed738-0480-4f51-b913-540dbe25d900" d="M18.49805,51.11031c2.31141,0,4.56283,0,6.81424,0,.54028,0,1.08068.00727,1.6208-.00193a1.18271,1.18271,0,0,0,1.33368-1.22048c.04337-.34889.056-.70413.1296-1.04635a5.39173,5.39173,0,0,1,10.63879.72666c.09629,1.25536.40554,1.54069,1.67269,1.54207q3.98142.00432,7.96284.00986a.80571.80571,0,0,1,.173.05111v7.56063a7.74354,7.74354,0,0,0-5.31487,3.5398,7.47366,7.47366,0,0,0-1.1549,4.42419c.156,3.554,2.17823,5.84391,6.47678,7.28284v7.48984C33.51809,81.21436,19.1188,68.49269,18.49805,51.11031Z"/><path class="ed2ed738-0480-4f51-b913-540dbe25d900" d="M58.73088,51.16147c1.51846,4.40286,3.81513,6.3862,7.48182,6.47155a7.462,7.462,0,0,0,5.12219-1.82149,7.80272,7.80272,0,0,0,2.64388-4.701c2.39733,0,4.74486-.00041,7.09239.001.13736.00009.27471.01511.41019.02307-.1321,14.809-12.48571,29.67682-30.33791,30.37483v-.73911q0-3.6651-.00012-7.33018c-.00023-1.35-.25963-1.62614-1.62583-1.73444a5.18219,5.18219,0,0,1-4.81212-4.55657,5.29578,5.29578,0,0,1,3.17652-5.7738,7.0938,7.0938,0,0,1,1.77294-.40191c1.168-.13244,1.48737-.43728,1.48806-1.59156.00164-2.72313.00053-5.44625.00053-8.2204Z"/><path class="ed2ed738-0480-4f51-b913-540dbe25d900" d="M51.16917,26.02424v-7.5007c15.23646.0854,29.94265,13.1708,30.33278,30.33089H79.19244q-2.88932,0-5.77863.00022c-1.26456.00055-1.56275.28944-1.67554,1.54268A4.9645,4.9645,0,0,1,68.28,55.00766a5.34992,5.34992,0,0,1-5.84976-1.29009,5.01887,5.01887,0,0,1-1.43077-3.28733c-.10487-1.30293-.39733-1.57538-1.7126-1.57565-2.67705-.00053-5.35411-.00016-8.08724-.00016,0-2.545,0-5.0655-.00045-7.58625,4.48492-1.60636,6.454-3.92321,6.46951-7.6123a7.463,7.463,0,0,0-1.862-5.03819A7.7964,7.7964,0,0,0,51.16917,26.02424Z"/><path class="ed2ed738-0480-4f51-b913-540dbe25d900" d="M48.88788,48.82251H41.31136c-1.62412-4.50927-3.93726-6.47827-7.61925-6.49323A7.45519,7.45519,0,0,0,28.65418,44.189a7.82276,7.82276,0,0,0-2.59635,4.66541H18.563c.07641-15.36169,13.26756-29.9754,30.32486-30.36387V20.659q0,2.96013.00022,5.92026c.00052,1.26782.28709,1.56414,1.53924,1.67823a4.97014,4.97014,0,0,1,4.588,3.39086,5.36226,5.36226,0,0,1-1.21322,5.86751,4.9974,4.9974,0,0,1-3.33573,1.48184c-1.30283.10367-1.5781.39788-1.57837,1.71039C48.8875,43.38569,48.88788,46.06325,48.88788,48.82251Z"/></svg>