<?xml version="1.0" encoding="utf-8"?>
<!-- Uploaded to: SVG Repo, www.svgrepo.com, Generator: SVG Repo Mixer Tools -->
<svg width="800px" height="800px" viewBox="0 0 24 24" fill="none" xmlns="http://www.w3.org/2000/svg">
<g id="style=bulk">
<g id="key">
<path id="vector (Stroke)" fill-rule="evenodd" clip-rule="evenodd" d="M9.39229 4.25664C12.2422 1.40731 16.8672 1.40867 19.7245 4.25634C22.5836 7.10579 22.5836 11.7499 19.734 14.5994L19.7329 14.6006C17.8514 16.4729 15.2002 17.1184 12.8009 16.5199L8.09426 21.2183C7.84612 21.4719 7.51802 21.6419 7.21104 21.7414C6.9021 21.8415 6.54317 21.8934 6.20497 21.8447L6.20174 21.8442L4.30034 21.5826C3.80877 21.5143 3.37189 21.2569 3.04998 20.9335C2.7279 20.61 2.47514 20.1754 2.40133 19.6922L2.39979 19.6821L2.13823 17.7807L2.13777 17.7776C2.08799 17.4316 2.14833 17.0693 2.24946 16.7659C2.35105 16.4612 2.51883 16.1408 2.75414 15.8983L2.7613 15.8909L7.46375 11.1886C6.87285 8.78545 7.50743 6.13282 9.39229 4.25664Z" fill="#BFBFBF"/>
<g id="mask">
<mask id="mask0_1_1206" style="mask-type:alpha" maskUnits="userSpaceOnUse" x="2" y="2" width="20" height="20">
<path id="vector (Stroke)_2" fill-rule="evenodd" clip-rule="evenodd" d="M9.39229 4.25664C12.2422 1.40731 16.8672 1.40867 19.7245 4.25634C22.5836 7.10579 22.5836 11.7499 19.734 14.5994L19.7329 14.6006C17.8514 16.4729 15.2002 17.1184 12.8009 16.5199L8.09426 21.2183C7.84612 21.4719 7.51802 21.6419 7.21104 21.7414C6.9021 21.8415 6.54317 21.8934 6.20497 21.8447L6.20174 21.8442L4.30034 21.5826C3.80877 21.5143 3.37189 21.2569 3.04998 20.9335C2.7279 20.61 2.47514 20.1754 2.40133 19.6922L2.39979 19.6821L2.13823 17.7807L2.13777 17.7776C2.08799 17.4316 2.14833 17.0693 2.24946 16.7659C2.35105 16.4612 2.51883 16.1408 2.75414 15.8983L2.7613 15.8909L7.46375 11.1886C6.87285 8.78545 7.50743 6.13282 9.39229 4.25664Z" fill="#BFBFBF"/>
</mask>
<g mask="url(#mask0_1_1206)">
<path id="vector (Stroke)_3" fill-rule="evenodd" clip-rule="evenodd" d="M3.31244 13.8004C3.5814 13.5314 4.01746 13.5314 4.28642 13.8004L6.58213 16.0961C6.85108 16.365 6.85108 16.8011 6.58213 17.07C6.31317 17.339 5.8771 17.339 5.60814 17.07L3.31244 14.7743C3.04348 14.5054 3.04348 14.0693 3.31244 13.8004Z" fill="#000000"/>
<path id="vector (Stroke)_4" fill-rule="evenodd" clip-rule="evenodd" d="M5.8493 11.9639C6.11826 11.695 6.55433 11.695 6.82329 11.9639L8.80535 13.946C9.07431 14.2149 9.07431 14.651 8.80535 14.92C8.53639 15.1889 8.10032 15.1889 7.83136 14.92L5.8493 12.9379C5.58034 12.669 5.58034 12.2329 5.8493 11.9639Z" fill="#000000"/>
</g>
</g>
<path id="vector (Stroke)_5" fill-rule="evenodd" clip-rule="evenodd" d="M12.1815 9.36248C12.1815 8.01592 13.2731 6.92432 14.6197 6.92432C15.9662 6.92432 17.0578 8.01592 17.0578 9.36248C17.0578 10.709 15.9662 11.8006 14.6197 11.8006C13.2731 11.8006 12.1815 10.709 12.1815 9.36248Z" fill="#000000"/>
</g>
</g>
</svg>