<?xml version="1.0" encoding="iso-8859-1"?>
<!-- Generator: Adobe Illustrator 19.0.0, SVG Export Plug-In . SVG Version: 6.00 Build 0)  -->
<svg version="1.1" id="Layer_1" xmlns="http://www.w3.org/2000/svg" xmlns:xlink="http://www.w3.org/1999/xlink" x="0px" y="0px"
	 viewBox="0 0 512 512" style="enable-background:new 0 0 512 512;" xml:space="preserve">
<g>
	<g>
		<circle cx="205.873" cy="33.415" r="33.415"/>
	</g>
</g>
<g>
	<g>
		<circle cx="306.119" cy="33.415" r="33.415"/>
	</g>
</g>
<g>
	<g>
		<path d="M473.2,209.831v-49.437c0-22.281-8.699-43.251-24.494-59.045c-15.794-15.794-36.764-24.494-59.045-24.494H122.337
			c-22.28,0-43.251,8.699-59.045,24.494c-15.795,15.794-24.494,36.764-24.494,59.045v49.439
			c-22.359,30.77-34.157,65.566-34.157,100.93c0,54.474,26.729,105.476,75.262,143.611C127.197,491.535,189.736,512,256.001,512
			s128.803-20.465,176.097-57.625c48.533-38.135,75.261-89.137,75.261-143.611C507.359,275.38,495.561,240.584,473.2,209.831z
			 M72.214,160.394c0-13.355,5.223-25.934,14.707-35.417c9.483-9.483,22.061-14.706,35.416-14.706h267.324
			c13.355,0,25.933,5.223,35.417,14.706c9.483,9.483,14.706,22.062,14.706,35.417V211.6c-0.478,1.596-1.114,3.276-1.114,5.002
			v10.623c0,4.272-1.474,8.284-4.484,11.294c-3.012,3.012-6.93,4.67-11.202,4.67c-4.272,0-8.051-1.659-11.063-4.669
			c-3.012-3.012-4.439-7.024-4.439-11.296v-66.831c0-4.499-1.902-8.588-4.699-11.682c-3.064-3.746-7.905-6.14-13.122-6.14H122.337
			c-5.217,0-10.058,2.394-13.122,6.14c-2.796,3.094-4.699,7.183-4.699,11.682v66.831c0,4.272-1.474,8.284-4.484,11.294
			c-3.012,3.012-6.93,4.67-11.202,4.67s-8.051-1.659-11.063-4.669c-3.012-3.012-4.439-7.024-4.439-11.296v-10.622
			c0-1.728-0.636-3.406-1.114-5.002V160.394z M410.534,426.931c-41.172,32.352-96.054,50.168-154.533,50.168
			s-113.361-17.816-154.533-50.168C61.533,395.555,39.542,354.3,39.542,310.764c0-17.178,3.592-34.282,10.546-50.668
			c0.906,1.067,1.86,2.103,2.862,3.104c9.604,9.602,22.379,14.891,35.973,14.891s26.554-5.289,36.159-14.892
			c9.604-9.605,15.078-22.381,15.078-35.974v-49.009H371.84v49.009c0,13.593,5.475,26.369,15.079,35.975
			c9.604,9.603,22.472,14.891,36.065,14.891s26.415-5.289,36.021-14.892c1.003-1.002,1.98-2.039,2.888-3.108
			c6.952,16.38,10.554,33.486,10.554,50.672C472.446,354.3,450.466,395.555,410.534,426.931z"/>
	</g>
</g>
<g>
</g>
<g>
</g>
<g>
</g>
<g>
</g>
<g>
</g>
<g>
</g>
<g>
</g>
<g>
</g>
<g>
</g>
<g>
</g>
<g>
</g>
<g>
</g>
<g>
</g>
<g>
</g>
<g>
</g>
</svg>
