<?xml version="1.0" encoding="iso-8859-1"?>
<!-- Generator: Adobe Illustrator 19.0.0, SVG Export Plug-In . SVG Version: 6.00 Build 0)  -->
<svg version="1.1" id="Layer_1" xmlns="http://www.w3.org/2000/svg" xmlns:xlink="http://www.w3.org/1999/xlink" x="0px" y="0px"
	 viewBox="0 0 512 512" style="enable-background:new 0 0 512 512;" xml:space="preserve">
<path style="fill:#B87FD9;" d="M472.569,210.693v0.48c0,18.415-14.928,33.343-33.343,33.343s-33.343-14.928-33.343-33.343v-50.015
	c0-9.207-7.097-17.045-16.304-17.045H122.834c-9.207,0-17.039,7.838-17.039,17.045v50.015c0,18.415-14.928,33.343-33.343,33.343
	s-33.343-14.928-33.343-33.343v-0.483C16.879,241.347,5.206,275.968,5.206,311.203C5.206,421.923,117.815,512,256.116,512
	s250.678-90.077,250.678-200.797C506.794,275.94,494.798,241.321,472.569,210.693z"/>
<path style="fill:#A258CD;" d="M472.569,211.173c0,18.415-14.928,33.343-33.343,33.343s-33.343-14.928-33.343-33.343v-50.015
	c0-9.207-7.097-17.045-16.304-17.045H255.839V512c138.93,0,250.817-90.077,250.817-200.797c0-35.263-11.858-69.882-34.087-100.51
	V211.173z"/>
<path style="fill:#FFDA44;" d="M439.411,244.517h-0.092c-18.415,0-33.435-14.928-33.435-33.343v-50.015
	c0-9.207-7.097-17.045-16.304-17.045H122.834c-9.207,0-17.039,7.838-17.039,17.045v50.015c0,18.415-14.744,33.343-33.159,33.343
	h-0.092c-18.415,0-33.435-14.928-33.435-33.343v-61.129c0-39.9,32.713-72.617,72.611-72.617h288.974
	c39.898,0,71.876,32.717,71.876,72.617v61.129C472.569,229.589,457.825,244.517,439.411,244.517z"/>
<path style="fill:#FFA733;" d="M400.694,77.427H255.839v66.686h133.741c9.207,0,16.304,7.838,16.304,17.045v50.015
	c0,18.415,14.928,33.343,33.343,33.343s33.343-14.928,33.343-33.343v-61.129C472.569,110.146,440.593,77.427,400.694,77.427z"/>
<circle style="fill:#FFDA44;" cx="206.194" cy="33.343" r="33.343"/>
<circle style="fill:#FFA733;" cx="306.224" cy="33.343" r="33.343"/>
<g>
</g>
<g>
</g>
<g>
</g>
<g>
</g>
<g>
</g>
<g>
</g>
<g>
</g>
<g>
</g>
<g>
</g>
<g>
</g>
<g>
</g>
<g>
</g>
<g>
</g>
<g>
</g>
<g>
</g>
</svg>
