<svg xmlns="http://www.w3.org/2000/svg" viewBox="0 0 70 69.98"><defs><style>.cls-1{fill:#4e1fa0;}</style></defs><g id="Layer_2" data-name="Layer 2"><g id="Layer_1-2" data-name="Layer 1"><path class="cls-1" d="M48.94,70c-1.35-.6-1.35-1.86-1.48-3-.05-.47-.09-.83-.64-1.05s-.8,0-1.14.28-.82.66-1.25,1a1.78,1.78,0,0,1-2.32-.18Q40,64.85,37.9,62.73a1.78,1.78,0,0,1-.16-2.38c.29-.41.61-.79.92-1.19.7-.9.4-1.63-.74-1.79-.54-.08-1.09-.13-1.62-.24a1.73,1.73,0,0,1-1.44-1.68q0-3,0-6.08a1.7,1.7,0,0,1,1.43-1.68c.65-.13,1.31-.18,2-.27a1,1,0,0,0,.62-1.49c-.36-.47-.74-.93-1.09-1.41A1.77,1.77,0,0,1,38,42.05q2-2.09,4.1-4.11a1.8,1.8,0,0,1,2.48-.17c.39.28.76.58,1.14.88s.6.53,1.14.29a1,1,0,0,0,.65-1,13.45,13.45,0,0,1,.22-1.55,1.75,1.75,0,0,1,1.77-1.5c2,0,4,0,5.95,0a1.74,1.74,0,0,1,1.76,1.51,13,13,0,0,1,.23,1.76,1,1,0,0,0,1.63.66,14.72,14.72,0,0,1,1.24-1,1.8,1.8,0,0,1,2.53.13q2.09,2,4.11,4.11a1.83,1.83,0,0,1,.15,2.49c-.35.48-.73.93-1.09,1.4a1,1,0,0,0,.65,1.48c.63.08,1.26.14,1.89.26A1.71,1.71,0,0,1,70,49.39c0,2,0,4,0,6a1.75,1.75,0,0,1-1.53,1.75,11.85,11.85,0,0,1-1.69.23.79.79,0,0,0-.82.54A.91.91,0,0,0,66.06,59a10.64,10.64,0,0,1,1,1.29,1.81,1.81,0,0,1-.15,2.43c-1.37,1.4-2.76,2.79-4.16,4.15a1.8,1.8,0,0,1-2.43.16c-.41-.29-.81-.59-1.19-.92A1,1,0,0,0,58,65.89a.94.94,0,0,0-.61,1c0,.31-.09.63-.11,1A2.17,2.17,0,0,1,55.78,70Zm3.5-25.05a7.39,7.39,0,0,0-7.57,7.49,7.55,7.55,0,0,0,15.09,0A7.36,7.36,0,0,0,52.44,44.93Z"/><path class="cls-1" d="M30.08,70a2.3,2.3,0,0,1-1.55-2c0-.11-.32-.25-.51-.3a7.31,7.31,0,0,1-5.9-6.06,20.75,20.75,0,0,1,0-3.79c.17,0,.39,0,.61,0,2.64,0,5.27,0,7.91,0a1,1,0,0,1,1,.56c.42.61,1,1.13,1.44,1.71a1.14,1.14,0,0,1,.31.67,6,6,0,0,0,2,5.27,4.54,4.54,0,0,0,.63.41l-.1.3-3.17,1.2A2.18,2.18,0,0,1,31,70Z"/><path class="cls-1" d="M0,23.51A2.29,2.29,0,0,1,2.57,22c.61.05,1.23,0,1.85,0a1.94,1.94,0,0,1,1.85,1.92A1.91,1.91,0,0,1,4.6,26a17.92,17.92,0,0,1-2.93,0C.76,25.92.32,25.24,0,24.47Z"/><path class="cls-1" d="M50.3,30.7c-.69,0-1.22,0-1.73.11A6,6,0,0,0,44.81,33a1.06,1.06,0,0,1-.78.32,5.78,5.78,0,0,0-4.75,1.62Q37.06,37,34.93,39.26A5.65,5.65,0,0,0,33.32,44a.84.84,0,0,1-.37.85,5.77,5.77,0,0,0-2.2,4.64v4.09H22a8.1,8.1,0,0,0-1.76-4.92,38,38,0,0,0-3-3.48A20.34,20.34,0,0,1,11.1,28.85,19.32,19.32,0,0,1,26.33,11.47,19.61,19.61,0,0,1,49.82,26.69C50.07,28,50.14,29.33,50.3,30.7Z"/><path class="cls-1" d="M12.88,8.41a2.13,2.13,0,0,1-1.15,2,1.88,1.88,0,0,1-2.17-.23,31,31,0,0,1-2.5-2.5A2,2,0,0,1,7.17,5a2,2,0,0,1,2.72-.16,30.56,30.56,0,0,1,2.54,2.55A3.18,3.18,0,0,1,12.88,8.41Z"/><path class="cls-1" d="M50.59,10.69a2.12,2.12,0,0,1-2.07-1.22,1.88,1.88,0,0,1,.31-2.17c.76-.84,1.57-1.65,2.41-2.41A2,2,0,0,1,54,5a2,2,0,0,1,.11,2.74,33.58,33.58,0,0,1-2.47,2.45A3.51,3.51,0,0,1,50.59,10.69Z"/><path class="cls-1" d="M28.56,3.13c0-.41,0-.82,0-1.23A2,2,0,0,1,30.38,0a1.88,1.88,0,0,1,2.16,1.54,13,13,0,0,1,0,3.12,1.94,1.94,0,0,1-2.13,1.61,2,2,0,0,1-1.87-2c0-.38,0-.77,0-1.15Z"/><path class="cls-1" d="M58.13,22c.41,0,.82,0,1.22,0a1.94,1.94,0,0,1,1.84,1.93A1.91,1.91,0,0,1,59.51,26a14.89,14.89,0,0,1-2.91,0,1.88,1.88,0,0,1-1.66-2.13A1.93,1.93,0,0,1,56.77,22C57.22,22,57.67,22,58.13,22Z"/><path class="cls-1" d="M52.42,55.81A3.37,3.37,0,0,1,49,52.36a3.45,3.45,0,0,1,6.89,0A3.36,3.36,0,0,1,52.42,55.81Z"/></g></g></svg>