<svg id="Layer_1" data-name="Layer 1" xmlns="http://www.w3.org/2000/svg" xmlns:xlink="http://www.w3.org/1999/xlink" viewBox="0 0 60 60">
  <defs>
    <linearGradient id="linear-gradient" x1="29.91" y1="66.54" x2="30.1" y2="-7.63" gradientUnits="userSpaceOnUse">
      <stop offset="0" stop-color="#21d2fe"/>
      <stop offset="1" stop-color="#a332fe"/>
    </linearGradient>
  </defs>
  <path d="M7.17,1.93H8.49A1.11,1.11,0,0,0,8.68,2a5.83,5.83,0,0,1,4.44,8.26.49.49,0,0,0,.14.65c2.4,2.39,4.81,4.79,7.2,7.21a.51.51,0,0,0,.74.08q3.36-2,6.73-3.89a.69.69,0,0,0,.41-.68c0-1.64,0-3.29,0-4.93,0-.13,0-.26-.06-.55L26.69,9.89,24.34,7.56l.35-.37,4.84-4.84c.12-.13.22-.28.33-.42H30l5.6,5.64L33.21,10,31.66,8.21c0,.24,0,.31,0,.37,0,1.72,0,3.43,0,5.15a.77.77,0,0,0,.35.52c2.27,1.33,4.55,2.63,6.81,4,.34.21.52.15.79-.11q3.53-3.57,7.08-7.1a.62.62,0,0,0,.17-.84,5.77,5.77,0,0,1,2.54-7.48,13.67,13.67,0,0,1,2.09-.75h1.42a1.76,1.76,0,0,0,.3.1,5.74,5.74,0,0,1,4.4,3.55A13,13,0,0,1,58,7.08V8.51A.66.66,0,0,0,58,8.7a5.81,5.81,0,0,1-8.23,4.41.54.54,0,0,0-.7.17l-6.54,6.56c-.09.09-.17.21-.27.33.67.4,1.29.78,1.94,1.12a.74.74,0,0,1,.45.77c0,1.9,0,3.8,0,5.7,0,.19,0,.38,0,.56h7.09l-1.62-1.54,2.22-2.24L57.78,30l-5.52,5.52-2.33-2.32,1.64-1.53h-7v.62c0,1.88,0,3.76,0,5.64a.75.75,0,0,1-.44.78c-.66.34-1.29.74-2,1.13a2,2,0,0,0,.19.24c2.24,2.24,4.48,4.47,6.7,6.72.27.27.46.16.71.05a5.85,5.85,0,0,1,8,3.59c.11.35.18.7.28,1v1.43a1.09,1.09,0,0,0-.1.25,5.62,5.62,0,0,1-4.24,4.67A5.5,5.5,0,0,1,47.76,56a5.62,5.62,0,0,1-.91-6.24.54.54,0,0,0-.11-.71q-3.62-3.6-7.21-7.21a.48.48,0,0,0-.7-.1q-3.42,2-6.87,4a.64.64,0,0,0-.35.65c0,1.59,0,3.18,0,4.77,0,.16,0,.31,0,.46l.13.08,1.4-1.58,2.29,2.28L30,57.88l-5.53-5.49L26.82,50l1.51,1.58c0-1.79,0-3.59,0-5.4a.78.78,0,0,0-.35-.48c-2.25-1.31-4.51-2.61-6.76-3.93a.54.54,0,0,0-.79.12Q16.88,45.47,13.29,49a.58.58,0,0,0-.13.79A5.85,5.85,0,1,1,3.69,48a5.8,5.8,0,0,1,6.53-1.18.59.59,0,0,0,.79-.17l6.46-6.48a4.51,4.51,0,0,0,.33-.38c-.69-.4-1.32-.8-2-1.14a.72.72,0,0,1-.43-.77c0-1.28,0-2.56,0-3.84V31.69H8.33l-.09.13,1.58,1.43L7.61,35.46,2.11,30l5.55-5.52L10,26.78,8.3,28.32h7.09v-.63c0-1.9,0-3.8,0-5.7a.63.63,0,0,1,.36-.65c.69-.36,1.35-.77,2.06-1.18l-.4-.44c-2.12-2.12-4.24-4.23-6.35-6.36a.69.69,0,0,0-.92-.19A5.85,5.85,0,0,1,4.41,3,7.46,7.46,0,0,1,7.17,1.93ZM20.36,22.49l.23.17,9.09,5.26a.65.65,0,0,0,.74-.06l8.76-5.06.47-.31-9.41-5.42a.57.57,0,0,0-.48,0Zm-1.68,2.87c0,3.7,0,7.28,0,10.86a.8.8,0,0,0,.39.54c2.81,1.64,5.62,3.26,8.44,4.89l.78.44a2.32,2.32,0,0,0,0-.29c0-3.51,0-7,0-10.52a.82.82,0,0,0-.38-.56c-2.63-1.54-5.28-3.06-7.91-4.58Zm13,16.71a1.58,1.58,0,0,0,.24-.09q4.55-2.62,9.1-5.24c.32-.19.32-.43.32-.73V26c0-.17,0-.35,0-.58l-.35.17q-4.47,2.59-9,5.17a.65.65,0,0,0-.34.66V41.59C31.63,41.73,31.64,41.87,31.65,42.07Zm20.52,12.7a2.58,2.58,0,1,0-2.57-2.58A2.6,2.6,0,0,0,52.17,54.77Zm0-44.4a2.57,2.57,0,0,0-.05-5.14,2.57,2.57,0,1,0,.05,5.14ZM10.38,52.19a2.55,2.55,0,0,0-2.57-2.57,2.58,2.58,0,1,0,2.57,2.57Zm0-44.37a2.57,2.57,0,1,0-2.6,2.55A2.56,2.56,0,0,0,10.38,7.82Z" style="fill: url(#linear-gradient)"/>
</svg>