<?xml version="1.0" encoding="utf-8"?>
<svg id="Layer_1" data-name="Layer 1" viewBox="0 0 60 60" xmlns="http://www.w3.org/2000/svg">
  <path d="M 7.17 1.93 L 8.49 1.93 C 8.551 1.959 8.615 1.983 8.68 2 C 12.561 2.559 14.795 6.714 13.12 10.26 C 12.99 10.48 13.051 10.763 13.26 10.91 C 15.66 13.3 18.07 15.7 20.46 18.12 C 20.637 18.355 20.977 18.392 21.2 18.2 C 23.44 16.867 25.683 15.57 27.93 14.31 C 28.196 14.193 28.361 13.92 28.34 13.63 C 28.34 11.99 28.34 10.34 28.34 8.7 C 28.34 8.57 28.34 8.44 28.28 8.15 L 26.69 9.89 L 22.87 9.03 L 24.69 7.19 L 29.53 2.35 C 29.65 2.22 29.75 2.07 29.86 1.93 L 30.267 1.53 L 37.604 8.639 L 33.21 10 L 31.66 8.21 C 31.66 8.45 31.66 8.52 31.66 8.58 C 31.66 10.3 31.66 12.01 31.66 13.73 C 31.698 13.945 31.825 14.134 32.01 14.25 C 34.28 15.58 36.56 16.88 38.82 18.25 C 39.16 18.46 39.34 18.4 39.61 18.14 C 41.963 15.76 44.323 13.393 46.69 11.04 C 46.962 10.851 47.037 10.48 46.86 10.2 C 45.6 7.427 46.712 4.152 49.4 2.72 C 50.075 2.414 50.774 2.163 51.49 1.97 L 52.91 1.97 C 53.007 2.012 53.107 2.046 53.21 2.07 C 55.198 2.399 56.868 3.746 57.61 5.62 C 57.768 6.099 57.898 6.586 58 7.08 L 58 8.51 C 57.991 8.573 57.991 8.637 58 8.7 C 57.434 12.561 53.298 14.777 49.77 13.11 C 49.527 12.98 49.226 13.053 49.07 13.28 L 42.53 19.84 C 42.44 19.93 42.36 20.05 42.26 20.17 C 42.93 20.57 43.55 20.95 44.2 21.29 C 44.505 21.417 44.689 21.732 44.65 22.06 C 44.65 23.96 44.65 25.86 44.65 27.76 C 44.65 27.95 44.65 28.14 44.65 28.32 L 51.74 28.32 L 50.12 26.78 L 51.271 22.736 L 57.78 30 L 51.057 36.789 L 49.93 33.2 L 51.57 31.67 L 44.57 31.67 L 44.57 32.29 C 44.57 34.17 44.57 36.05 44.57 37.93 C 44.612 38.259 44.433 38.576 44.13 38.71 C 43.47 39.05 42.84 39.45 42.13 39.84 C 42.187 39.925 42.251 40.005 42.32 40.08 C 44.56 42.32 46.8 44.55 49.02 46.8 C 49.29 47.07 49.48 46.96 49.73 46.85 C 52.934 45.398 56.685 47.082 57.73 50.44 C 57.84 50.79 57.91 51.14 58.01 51.44 L 58.01 52.87 C 57.966 52.949 57.933 53.033 57.91 53.12 C 57.586 55.398 55.906 57.248 53.67 57.79 C 51.519 58.46 49.178 57.751 47.76 56 C 46.208 54.302 45.848 51.83 46.85 49.76 C 46.999 49.53 46.952 49.224 46.74 49.05 C 44.327 46.65 41.923 44.247 39.53 41.84 C 39.371 41.608 39.048 41.562 38.83 41.74 C 36.55 43.073 34.26 44.407 31.96 45.74 C 31.718 45.861 31.577 46.121 31.61 46.39 C 31.61 47.98 31.61 49.57 31.61 51.16 C 31.61 51.32 31.61 51.47 31.61 51.62 L 31.74 51.7 L 33.14 50.12 L 37.167 51.398 L 30 57.88 L 23.067 51.655 L 26.82 50 L 28.33 51.58 C 28.33 49.79 28.33 47.99 28.33 46.18 C 28.281 45.98 28.155 45.808 27.98 45.7 C 25.73 44.39 23.47 43.09 21.22 41.77 C 20.973 41.569 20.606 41.625 20.43 41.89 C 18.063 44.277 15.683 46.647 13.29 49 C 13.043 49.186 12.985 49.534 13.16 49.79 C 14.98 53.909 11.658 58.454 7.181 57.97 C 2.704 57.487 0.429 52.338 3.086 48.702 C 3.269 48.452 3.47 48.218 3.69 48 C 5.404 46.277 8.011 45.806 10.22 46.82 C 10.487 46.981 10.833 46.906 11.01 46.65 L 17.47 40.17 C 17.587 40.05 17.697 39.923 17.8 39.79 C 17.11 39.39 16.48 38.99 15.8 38.65 C 15.498 38.521 15.321 38.205 15.37 37.88 C 15.37 36.6 15.37 35.32 15.37 34.04 L 15.37 31.69 L 8.33 31.69 L 8.24 31.82 L 9.82 33.25 L 9.147 36.729 L 2.11 30 L 9.13 22.81 L 10 26.78 L 8.3 28.32 L 15.39 28.32 L 15.39 27.69 C 15.39 25.79 15.39 23.89 15.39 21.99 C 15.356 21.718 15.501 21.455 15.75 21.34 C 16.44 20.98 17.1 20.57 17.81 20.16 L 17.41 19.72 C 15.29 17.6 13.17 15.49 11.06 13.36 C 10.85 13.065 10.449 12.983 10.14 13.17 C 6.076 15.11 1.436 11.922 1.788 7.433 C 1.93 5.629 2.898 3.993 4.41 3 C 5.249 2.463 6.188 2.099 7.17 1.93 Z M 20.36 22.49 L 20.59 22.66 L 29.68 27.92 C 29.915 28.057 30.21 28.033 30.42 27.86 L 39.18 22.8 L 39.65 22.49 L 30.24 17.07 C 30.088 16.999 29.912 16.999 29.76 17.07 L 20.36 22.49 Z M 18.68 25.36 C 18.68 29.06 18.68 32.64 18.68 36.22 C 18.725 36.448 18.868 36.645 19.07 36.76 C 21.88 38.4 24.69 40.02 27.51 41.65 L 28.29 42.09 C 28.296 41.993 28.296 41.897 28.29 41.8 C 28.29 38.29 28.29 34.8 28.29 31.28 C 28.25 31.047 28.111 30.843 27.91 30.72 C 25.28 29.18 22.63 27.66 20 26.14 L 18.68 25.36 Z M 31.68 42.07 C 31.762 42.047 31.843 42.016 31.92 41.98 C 34.953 40.233 37.987 38.487 41.02 36.74 C 41.34 36.55 41.34 36.31 41.34 36.01 L 41.34 26 C 41.34 25.83 41.34 25.65 41.34 25.42 L 40.99 25.59 C 38.01 27.317 35.01 29.04 31.99 30.76 C 31.75 30.887 31.614 31.151 31.65 31.42 L 31.65 41.59 C 31.63 41.73 31.64 41.87 31.65 42.07 L 31.68 42.07 Z M 52.2 54.77 C 54.186 54.778 55.436 52.633 54.449 50.909 C 53.463 49.185 50.98 49.175 49.981 50.891 C 49.751 51.286 49.63 51.734 49.63 52.19 C 49.64 53.595 50.765 54.738 52.17 54.77 L 52.2 54.77 Z M 52.2 10.37 C 54.178 10.351 55.394 8.197 54.388 6.493 C 53.921 5.703 53.068 5.221 52.15 5.23 C 50.172 5.249 48.956 7.403 49.962 9.107 C 50.429 9.897 51.282 10.379 52.2 10.37 Z M 10.38 52.19 C 10.391 50.766 9.234 49.609 7.81 49.62 C 5.824 49.612 4.574 51.757 5.561 53.481 C 6.547 55.205 9.03 55.215 10.029 53.499 C 10.261 53.101 10.382 52.65 10.38 52.19 Z M 10.38 7.82 C 10.395 5.842 8.263 4.589 6.542 5.565 C 4.821 6.541 4.802 9.014 6.508 10.016 C 6.894 10.243 7.332 10.365 7.78 10.37 C 9.206 10.392 10.375 9.246 10.38 7.82 Z" style="fill: rgb(164, 101, 234); stroke-miterlimit: 12; stroke: rgb(164, 101, 234); stroke-width: 2px; paint-order: fill;"/>
</svg>