<?xml version="1.0" encoding="utf-8"?>
<svg viewBox="0 0 24 24" width="800px" height="800px" fill="none" xmlns="http://www.w3.org/2000/svg">
  <path opacity="0.1" d="M3 12C3 4.5885 4.5885 3 12 3C19.4115 3 21 4.5885 21 12C21 19.4115 19.4115 21 12 21C4.5885 21 3 19.4115 3 12Z" fill="#323232"/>
  <path d="M3 12C3 4.5885 4.5885 3 12 3C19.4115 3 21 4.5885 21 12C21 19.4115 19.4115 21 12 21C4.5885 21 3 19.4115 3 12Z" style="stroke: rgb(169, 171, 173); stroke-width: 2px;"/>
  <path d="M 12.076 16.813 C 9.495 16.813 7.394 14.712 7.394 12.131 C 7.394 11.203 7.663 10.299 8.184 9.534 C 8.371 9.257 8.754 9.175 9.031 9.363 C 9.307 9.55 9.389 9.933 9.202 10.21 C 8.819 10.779 8.624 11.447 8.624 12.131 C 8.624 14.036 10.179 15.592 12.084 15.592 C 13.989 15.592 15.545 14.036 15.545 12.131 C 15.545 10.307 14.128 8.809 12.336 8.679 L 12.67 8.923 C 12.939 9.118 13.004 9.501 12.801 9.778 C 12.605 10.047 12.222 10.112 11.946 9.908 L 10.366 8.76 C 10.309 8.719 10.26 8.671 10.219 8.614 C 10.211 8.605 10.203 8.597 10.195 8.581 C 10.162 8.524 10.138 8.459 10.122 8.394 C 10.105 8.312 10.105 8.239 10.114 8.158 C 10.122 8.125 10.13 8.092 10.138 8.06 C 10.154 8.003 10.187 7.954 10.219 7.897 C 10.236 7.889 10.252 7.873 10.268 7.856 L 11.62 6.309 C 11.84 6.057 12.231 6.032 12.483 6.252 C 12.735 6.472 12.76 6.863 12.54 7.115 L 12.239 7.466 C 14.747 7.547 16.766 9.615 16.766 12.147 C 16.758 14.712 14.657 16.813 12.076 16.813 Z" style="fill: rgb(50, 50, 50); stroke-miterlimit: 1; paint-order: fill; stroke: rgb(50, 50, 50); stroke-width: 0.5px;"/>
</svg>