<svg id="b97640c2-dea8-489a-9e3d-982892889beb" data-name="Layer 1" xmlns="http://www.w3.org/2000/svg" viewBox="0 0 100 100"><defs><style>.e8be971b-7789-465e-8a2a-7f2519e9e99f,.f1f052d8-d5bf-4481-b607-e9b5d9622160{fill:#4e1fa3;}.e8be971b-7789-465e-8a2a-7f2519e9e99f{opacity:0.4;isolation:isolate;}</style></defs><g id="b3d70f85-69f4-4b70-b6be-4f3966e07b5f" data-name="money bag dollar"><path id="e9492e41-6a4a-4cbb-b5fa-f46f06a1ef3f" data-name="Rectangle 838" class="e8be971b-7789-465e-8a2a-7f2519e9e99f" d="M59.37626,27.52263H40.61653l-6.29971-7.226A9.254,9.254,0,0,1,44.36218,5.53435l4.17283,1.349a4.76639,4.76639,0,0,0,2.92277,0l4.17283-1.349A9.254,9.254,0,0,1,65.676,20.29662Z"/><path id="b5e35bb5-ed11-4553-9299-e94218514bd4" data-name="Rectangle 837" class="e8be971b-7789-465e-8a2a-7f2519e9e99f" d="M21.596,41.95665a26.97948,26.97948,0,0,1,25.75192-18.9306h5.297A26.97948,26.97948,0,0,1,78.3968,41.95665L84.01753,59.943A26.97949,26.97949,0,0,1,58.26561,94.97134H41.7092A26.97948,26.97948,0,0,1,15.97527,59.943Z"/><path id="aa2ac72b-8d59-44e0-9115-b0cba36b21b5" data-name="Vector Stroke " class="f1f052d8-d5bf-4481-b607-e9b5d9622160" d="M49.99639,35.39164a3.37244,3.37244,0,0,1,3.37244,3.37244v3.82209A11.40333,11.40333,0,0,1,62.362,53.378a3.37244,3.37244,0,0,1-6.74487,0,5.14858,5.14858,0,0,0-5.62073-4.49658A5.14857,5.14857,0,0,0,44.37567,53.378a5.14858,5.14858,0,0,0,5.62072,4.49658A11.844,11.844,0,0,1,62.362,69.116a11.40332,11.40332,0,0,1-8.99316,10.79179V83.7119a3.37244,3.37244,0,0,1-6.74487,0V79.90779A11.40332,11.40332,0,0,1,37.6308,69.116a3.37244,3.37244,0,1,1,6.74487,0,5.14858,5.14858,0,0,0,5.62072,4.49658A5.14859,5.14859,0,0,0,55.61712,69.116a5.14859,5.14859,0,0,0-5.62073-4.49658A11.844,11.844,0,0,1,37.6308,53.378,11.40333,11.40333,0,0,1,46.624,42.58617V38.76408A3.37243,3.37243,0,0,1,49.99639,35.39164Z"/></g></svg>