<svg xmlns="http://www.w3.org/2000/svg" viewBox="0 0 90.66 99.8"><defs><style>.cls-1{fill:#a465ea;}</style></defs><g id="Layer_2" data-name="Layer 2"><g id="Layer_1-2" data-name="Layer 1"><path class="cls-1" d="M22.21,0h46.2a4.71,4.71,0,0,0,.52.21,7.76,7.76,0,0,1,5.55,5,17.67,17.67,0,0,0,11,11,7.8,7.8,0,0,1,5.12,7.46c0,2.21.05,4.42,0,6.62-.1,4.09,0,8.2-.46,12.26a67.58,67.58,0,0,1-8.88,27.17A69.55,69.55,0,0,1,48.75,99a8.08,8.08,0,0,1-7,0c-.71-.33-1.42-.64-2.12-1A69.5,69.5,0,0,1,8.5,68.23a67,67,0,0,1-8.31-29C-.06,34,0,28.87,0,23.71a7.69,7.69,0,0,1,5.12-7.44A17.75,17.75,0,0,0,16.17,5.12,7.61,7.61,0,0,1,20.41.66C21,.39,21.61.22,22.21,0Zm35.3,37.83c0-3,.05-5.82,0-8.67a12.2,12.2,0,0,0-24.4.43c0,2.73,0,5.45,0,8.24l-.9.14a6.86,6.86,0,0,0-6.31,6.75c-.06,5.91-.12,11.82,0,17.73a12.92,12.92,0,0,0,12.6,12.41q6.83.11,13.65,0A12.9,12.9,0,0,0,64.7,62.6c.16-6,.09-12,0-17.93a6.84,6.84,0,0,0-5.39-6.56C58.78,38,58.2,37.93,57.51,37.83Z"/><path class="cls-1" d="M45.31,43.75H57.1c1.53,0,1.82.3,1.82,1.84,0,5.23,0,10.46,0,15.69,0,4.77-3,7.75-7.8,7.75-3.93,0-7.86,0-11.79,0a7.19,7.19,0,0,1-7.6-7.56c0-5.33,0-10.65,0-16,0-1.41.31-1.73,1.72-1.74Zm2.92,12.71c0-.94,0-1.88,0-2.81a2.91,2.91,0,1,0-5.81,0c0,1.84,0,3.69,0,5.54a2.91,2.91,0,1,0,5.81,0C48.27,58.28,48.23,57.37,48.23,56.46Z"/><path class="cls-1" d="M51.58,37.86H39a3.71,3.71,0,0,1-.07-.5c0-2.66,0-5.33,0-8a6.34,6.34,0,0,1,12.68,0c.06,2.73,0,5.45,0,8.18A2.24,2.24,0,0,1,51.58,37.86Z"/></g></g></svg>