<svg id="b2552f7f-56f1-4b02-b77f-023e118b7eb7" data-name="Layer 1" xmlns="http://www.w3.org/2000/svg" viewBox="0 0 100 100"><defs><style>.af53ae93-3148-4964-ae6a-9b813c8d5dcc,.ec9abdc0-9551-4e56-a60b-6c66ee02ab86{fill:#4e1fa3;}.af53ae93-3148-4964-ae6a-9b813c8d5dcc{opacity:0.4;isolation:isolate;}</style></defs><g id="a3a47eb3-3144-415d-9cb5-356d495b04ad" data-name="lock"><path id="f73ce504-05c9-481b-8d3a-501ea980da60" data-name="Rectangle 535" class="af53ae93-3148-4964-ae6a-9b813c8d5dcc" d="M15.32331,51.62547A17.33835,17.33835,0,0,1,32.66165,34.28712h34.6767A17.33835,17.33835,0,0,1,84.67669,51.62547V77.633A17.33835,17.33835,0,0,1,67.33835,94.97134H32.66165A17.33835,17.33835,0,0,1,15.32331,77.633Z"/><path id="fa1000a2-c02e-49d4-a133-2d1731907058" data-name="Vector 798 Stroke " class="ec9abdc0-9551-4e56-a60b-6c66ee02ab86" d="M50,57.0437a3.251,3.251,0,0,1,3.25094,3.25094v8.66918a3.25094,3.25094,0,0,1-6.50188,0V60.29464A3.251,3.251,0,0,1,50,57.0437Z"/><path id="ba533252-84cd-44e5-9ec3-3508571b7b84" data-name="Subtract" class="ec9abdc0-9551-4e56-a60b-6c66ee02ab86" d="M35.91259,25.618a14.08741,14.08741,0,0,1,28.17482,0v8.66917h3.25094a17.43014,17.43014,0,0,1,3.25094.30342V25.618a20.58929,20.58929,0,0,0-41.17858,0v8.97259a17.43014,17.43014,0,0,1,3.25094-.30342h3.25094Z"/></g></svg>