<?xml version="1.0" encoding="utf-8"?>
<svg width="48pt" height="48pt" viewBox="3.485 0.474 11.346 11.667" version="1.1" id="svg979" xmlns="http://www.w3.org/2000/svg">
  <g id="layer1" transform="translate(0,-280.06668)">
    <g transform="matrix(1.2312582,0,0,1.2312582,0.64865442,-69.331265)" style="display:inline;stroke-width:0.81217736" id="g2441">
      <g id="g1644" style="stroke-width:0.81217736"/>
      <g id="g1662" style="stroke-width:0.81217736"/>
      <g id="g1652" style="stroke-width:0.81217736">
        <path style="color:#000000;font-style:normal;font-variant:normal;font-weight:normal;font-stretch:normal;font-size:medium;line-height:normal;font-family:sans-serif;font-variant-ligatures:normal;font-variant-position:normal;font-variant-caps:normal;font-variant-numeric:normal;font-variant-alternates:normal;font-feature-settings:normal;text-indent:0;text-align:start;text-decoration:none;text-decoration-line:none;text-decoration-style:solid;text-decoration-color:#000000;letter-spacing:normal;word-spacing:normal;text-transform:none;writing-mode:lr-tb;direction:ltr;text-orientation:mixed;dominant-baseline:auto;baseline-shift:baseline;text-anchor:start;white-space:normal;shape-padding:0;clip-rule:nonzero;display:inline;overflow:visible;visibility:visible;opacity:1;isolation:auto;mix-blend-mode:normal;color-interpolation:sRGB;color-interpolation-filters:linearRGB;solid-color:#000000;solid-opacity:1;vector-effect:none;fill:#43a047;fill-opacity:1;fill-rule:nonzero;stroke:none;stroke-width:0.42977744;stroke-linecap:round;stroke-linejoin:round;stroke-miterlimit:4;stroke-dasharray:none;stroke-dashoffset:0;stroke-opacity:1;color-rendering:auto;image-rendering:auto;shape-rendering:auto;text-rendering:auto;enable-background:accumulate" d="m 8.6523438,284.56836 c -0.6617717,-0.067 -1.3540967,0.33293 -1.8652344,0.86523 -0.2555689,0.26616 -0.4648401,0.57151 -0.5839844,0.89844 -0.1191443,0.32693 -0.1476799,0.68682 -0.00781,1.01563 a 0.26460996,0.26460996 0 0 0 0.052734,0.0781 l 0.4921875,0.51953 a 0.26460996,0.26460996 0 0 0 0.060547,0.0469 c 0.4459181,0.25745 0.9124091,0.25973 1.2773438,0.0703 0.3649347,-0.18942 0.6290233,-0.5341 0.8105469,-0.92773 0.3630472,-0.78727 0.4372976,-1.80707 -0.050781,-2.46094 a 0.26460996,0.26460996 0 0 0 -0.1855468,-0.10547 z" id="path1560"/>
        <path style="color:#000000;font-style:normal;font-variant:normal;font-weight:normal;font-stretch:normal;font-size:medium;line-height:normal;font-family:sans-serif;font-variant-ligatures:normal;font-variant-position:normal;font-variant-caps:normal;font-variant-numeric:normal;font-variant-alternates:normal;font-feature-settings:normal;text-indent:0;text-align:start;text-decoration:none;text-decoration-line:none;text-decoration-style:solid;text-decoration-color:#000000;letter-spacing:normal;word-spacing:normal;text-transform:none;writing-mode:lr-tb;direction:ltr;text-orientation:mixed;dominant-baseline:auto;baseline-shift:baseline;text-anchor:start;white-space:normal;shape-padding:0;clip-rule:nonzero;display:inline;overflow:visible;visibility:visible;opacity:1;isolation:auto;mix-blend-mode:normal;color-interpolation:sRGB;color-interpolation-filters:linearRGB;solid-color:#000000;solid-opacity:1;vector-effect:none;fill:#307c3a;fill-opacity:1;fill-rule:nonzero;stroke:none;stroke-width:0.42977744;stroke-linecap:round;stroke-linejoin:round;stroke-miterlimit:4;stroke-dasharray:none;stroke-dashoffset:0;stroke-opacity:1;color-rendering:auto;image-rendering:auto;shape-rendering:auto;text-rendering:auto;enable-background:accumulate" d="m 8.1859903,284.5954 c -0.5092001,0.10189 -1.007194,0.43029 -1.3988809,0.83819 -0.255569,0.26616 -0.4647995,0.57121 -0.5839437,0.89814 -0.1191443,0.32693 -0.1476214,0.68715 -0.00775,1.01596 a 0.26460995,0.26460995 0 0 0 0.05271,0.078 l 0.4919596,0.51935 a 0.26460995,0.26460995 0 0 0 0.060461,0.047 c 0.4459181,0.25745 0.9125067,0.25971 1.2774414,0.0703 0.1859919,-0.0965 0.3450854,-0.23427 0.4811075,-0.39739 -0.2274007,-0.004 -0.4665387,-0.0671 -0.7002156,-0.20205 -0.4716944,-0.27233 -0.8177354,-0.83799 -0.5973795,-1.66037 0.1191443,-0.32693 0.3283747,-0.63197 0.5839437,-0.89813 0.1059241,-0.11031 0.2209457,-0.21307 0.3405476,-0.30903 z" id="path1563"/>
        <path style="color:#000000;font-style:normal;font-variant:normal;font-weight:normal;font-stretch:normal;font-size:medium;line-height:normal;font-family:sans-serif;font-variant-ligatures:normal;font-variant-position:normal;font-variant-caps:normal;font-variant-numeric:normal;font-variant-alternates:normal;font-feature-settings:normal;text-indent:0;text-align:start;text-decoration:none;text-decoration-line:none;text-decoration-style:solid;text-decoration-color:#000000;letter-spacing:normal;word-spacing:normal;text-transform:none;writing-mode:lr-tb;direction:ltr;text-orientation:mixed;dominant-baseline:auto;baseline-shift:baseline;text-anchor:start;white-space:normal;shape-padding:0;clip-rule:nonzero;display:inline;overflow:visible;visibility:visible;opacity:1;isolation:auto;mix-blend-mode:normal;color-interpolation:sRGB;color-interpolation-filters:linearRGB;solid-color:#000000;solid-opacity:1;vector-effect:none;fill:#00e676;fill-opacity:1;fill-rule:nonzero;stroke:none;stroke-width:0.42977744;stroke-linecap:round;stroke-linejoin:round;stroke-miterlimit:4;stroke-dasharray:none;stroke-dashoffset:0;stroke-opacity:1;color-rendering:auto;image-rendering:auto;shape-rendering:auto;text-rendering:auto;enable-background:accumulate" d="m 5.4003906,286.88477 c -0.8745644,0.0802 -1.804916,0.53275 -2.1308594,1.29101 a 0.26460996,0.26460996 0 0 0 0,0.21289 c 0.3293694,0.73214 1.2557428,1.18324 2.1289063,1.27344 0.4365818,0.0451 0.872544,-0.006 1.2246094,-0.22656 0.3520653,-0.22069 0.5878921,-0.62902 0.5878906,-1.1543 1.7e-6,-0.52129 -0.2354413,-0.93042 -0.5859375,-1.1543 -0.3504962,-0.22388 -0.7873272,-0.28231 -1.2246094,-0.24218 z" id="path1546"/>
        <path style="color:#000000;font-style:normal;font-variant:normal;font-weight:normal;font-stretch:normal;font-size:medium;line-height:normal;font-family:sans-serif;font-variant-ligatures:normal;font-variant-position:normal;font-variant-caps:normal;font-variant-numeric:normal;font-variant-alternates:normal;font-feature-settings:normal;text-indent:0;text-align:start;text-decoration:none;text-decoration-line:none;text-decoration-style:solid;text-decoration-color:#000000;letter-spacing:normal;word-spacing:normal;text-transform:none;writing-mode:lr-tb;direction:ltr;text-orientation:mixed;dominant-baseline:auto;baseline-shift:baseline;text-anchor:start;white-space:normal;shape-padding:0;clip-rule:nonzero;display:inline;overflow:visible;visibility:visible;opacity:1;isolation:auto;mix-blend-mode:normal;color-interpolation:sRGB;color-interpolation-filters:linearRGB;solid-color:#000000;solid-opacity:1;vector-effect:none;fill:#00bc5f;fill-opacity:1;fill-rule:nonzero;stroke:none;stroke-width:0.42977744;stroke-linecap:round;stroke-linejoin:round;stroke-miterlimit:4;stroke-dasharray:none;stroke-dashoffset:0;stroke-opacity:1;color-rendering:auto;image-rendering:auto;shape-rendering:auto;text-rendering:auto;enable-background:accumulate" d="m 5.7269856,286.87387 c -0.1079222,-0.003 -0.2172745,8.2e-4 -0.326595,0.0109 -0.8745644,0.0802 -1.8046759,0.53262 -2.1306193,1.29088 a 0.26460995,0.26460995 0 0 0 -0.019637,0.0703 c 0.341184,-0.1635 0.7202027,-0.26874 1.091923,-0.30282 0.4372822,-0.0401 0.8742353,0.018 1.2247314,0.24184 0.3504962,0.22388 0.5860125,0.63316 0.5860108,1.15445 3e-7,0.10219 -0.011454,0.19865 -0.028422,0.29146 0.1773505,-0.0379 0.3460713,-0.0997 0.4986776,-0.19534 0.3520653,-0.22069 0.5880793,-0.62917 0.5880778,-1.15445 1.7e-6,-0.52129 -0.2355146,-0.93057 -0.5860107,-1.15445 -0.2628721,-0.16791 -0.5743697,-0.2427 -0.8981364,-0.2527 z" id="path1549"/>
        <path style="color:#000000;font-style:normal;font-variant:normal;font-weight:normal;font-stretch:normal;font-size:medium;line-height:normal;font-family:sans-serif;font-variant-ligatures:normal;font-variant-position:normal;font-variant-caps:normal;font-variant-numeric:normal;font-variant-alternates:normal;font-feature-settings:normal;text-indent:0;text-align:start;text-decoration:none;text-decoration-line:none;text-decoration-style:solid;text-decoration-color:#000000;letter-spacing:normal;word-spacing:normal;text-transform:none;writing-mode:lr-tb;direction:ltr;text-orientation:mixed;dominant-baseline:auto;baseline-shift:baseline;text-anchor:start;white-space:normal;shape-padding:0;clip-rule:nonzero;display:inline;overflow:visible;visibility:visible;opacity:1;isolation:auto;mix-blend-mode:normal;color-interpolation:sRGB;color-interpolation-filters:linearRGB;solid-color:#000000;solid-opacity:1;vector-effect:none;fill:#008644;fill-opacity:1;fill-rule:nonzero;stroke:none;stroke-width:0.42977744;stroke-linecap:round;stroke-linejoin:round;stroke-miterlimit:4;stroke-dasharray:none;stroke-dashoffset:0;stroke-opacity:1;color-rendering:auto;image-rendering:auto;shape-rendering:auto;text-rendering:auto;enable-background:accumulate" d="m 6.9355469,287.82617 a 0.26460996,0.26460996 0 0 0 -0.070312,0.0117 c -0.3632878,0.0973 -0.5403445,0.14587 -0.9628906,0.21875 a 0.26460996,0.26460996 0 1 0 0.089844,0.52148 c 0.4378259,-0.0755 0.647439,-0.13338 1.0097656,-0.23046 a 0.26460996,0.26460996 0 0 0 -0.066406,-0.52149 z" id="path1141"/>
        <path style="color:#000000;font-style:normal;font-variant:normal;font-weight:normal;font-stretch:normal;font-size:medium;line-height:normal;font-family:sans-serif;font-variant-ligatures:normal;font-variant-position:normal;font-variant-caps:normal;font-variant-numeric:normal;font-variant-alternates:normal;font-feature-settings:normal;text-indent:0;text-align:start;text-decoration:none;text-decoration-line:none;text-decoration-style:solid;text-decoration-color:#000000;letter-spacing:normal;word-spacing:normal;text-transform:none;writing-mode:lr-tb;direction:ltr;text-orientation:mixed;dominant-baseline:auto;baseline-shift:baseline;text-anchor:start;white-space:normal;shape-padding:0;clip-rule:nonzero;display:inline;overflow:visible;visibility:visible;opacity:1;isolation:auto;mix-blend-mode:normal;color-interpolation:sRGB;color-interpolation-filters:linearRGB;solid-color:#000000;solid-opacity:1;vector-effect:none;fill:#34863f;fill-opacity:1;fill-rule:nonzero;stroke:none;stroke-width:0.42977744;stroke-linecap:round;stroke-linejoin:round;stroke-miterlimit:4;stroke-dasharray:none;stroke-dashoffset:0;stroke-opacity:1;color-rendering:auto;image-rendering:auto;shape-rendering:auto;text-rendering:auto;enable-background:accumulate" d="m 7.3652344,286.53906 a 0.26460996,0.26460996 0 0 0 -0.2148438,0.12305 c -0.3449999,0.5313 -0.4977065,1.03522 -0.4824218,1.43945 0.037456,0.99061 0.4863281,1.76367 0.4863281,1.76367 0.9042906,1.56629 -0.1679688,2.90235 -0.1679688,2.90235 a 0.26568809,0.26568809 0 1 0 0.4179688,0.32812 c 0,0 1.2713407,-1.65408 0.2089843,-3.49414 0,0 -0.3842044,-0.6782 -0.4160156,-1.51953 -0.0092,-0.24319 0.098851,-0.67445 0.3964844,-1.13281 a 0.26460996,0.26460996 0 0 0 -0.2285156,-0.41016 z" id="path1139"/>
      </g>
      <g id="g1668" style="stroke-width:0.81217736">
        <path style="color:#000000;font-style:normal;font-variant:normal;font-weight:normal;font-stretch:normal;font-size:medium;line-height:normal;font-family:sans-serif;font-variant-ligatures:normal;font-variant-position:normal;font-variant-caps:normal;font-variant-numeric:normal;font-variant-alternates:normal;font-feature-settings:normal;text-indent:0;text-align:start;text-decoration:none;text-decoration-line:none;text-decoration-style:solid;text-decoration-color:#000000;letter-spacing:normal;word-spacing:normal;text-transform:none;writing-mode:lr-tb;direction:ltr;text-orientation:mixed;dominant-baseline:auto;baseline-shift:baseline;text-anchor:start;white-space:normal;shape-padding:0;clip-rule:nonzero;display:inline;overflow:visible;visibility:visible;opacity:1;isolation:auto;mix-blend-mode:normal;color-interpolation:sRGB;color-interpolation-filters:linearRGB;solid-color:#000000;solid-opacity:1;vector-effect:none;fill:#ffbf89;fill-opacity:1;fill-rule:nonzero;stroke:none;stroke-width:0.42977744;stroke-linecap:round;stroke-linejoin:round;stroke-miterlimit:4;stroke-dasharray:none;stroke-dashoffset:0;stroke-opacity:1;color-rendering:auto;image-rendering:auto;shape-rendering:auto;text-rendering:auto;enable-background:accumulate" d="M 8.39 290.17 C 8.081 290.072 7.696 290.107 7.448 290.387 C 7.435 290.403 7.423 290.42 7.413 290.438 C 7.413 290.438 7.255 290.72 6.999 290.868 C 6.743 291.016 6.421 291.012 6.421 291.012 C 6.4 291.011 6.379 291.012 6.359 291.016 C 5.992 291.09 5.769 291.407 5.7 291.723 C 5.631 292.04 5.679 292.383 5.845 292.67 C 6.172 293.236 6.902 293.431 7.468 293.104 C 7.873 292.871 8.278 292.637 8.683 292.403 C 9.205 292.101 9.422 291.26 9.138 290.768 C 8.972 290.481 8.698 290.269 8.39 290.17 Z" id="path1582"/>
        <path style="color:#000000;font-style:normal;font-variant:normal;font-weight:normal;font-stretch:normal;font-size:medium;line-height:normal;font-family:sans-serif;font-variant-ligatures:normal;font-variant-position:normal;font-variant-caps:normal;font-variant-numeric:normal;font-variant-alternates:normal;font-feature-settings:normal;text-indent:0;text-align:start;text-decoration:none;text-decoration-line:none;text-decoration-style:solid;text-decoration-color:#000000;letter-spacing:normal;word-spacing:normal;text-transform:none;writing-mode:lr-tb;direction:ltr;text-orientation:mixed;dominant-baseline:auto;baseline-shift:baseline;text-anchor:start;white-space:normal;shape-padding:0;clip-rule:nonzero;display:inline;overflow:visible;visibility:visible;opacity:1;isolation:auto;mix-blend-mode:normal;color-interpolation:sRGB;color-interpolation-filters:linearRGB;solid-color:#000000;solid-opacity:1;vector-effect:none;fill:#ff9f67;fill-opacity:1;fill-rule:nonzero;stroke:none;stroke-width:0.42977744;stroke-linecap:round;stroke-linejoin:round;stroke-miterlimit:4;stroke-dasharray:none;stroke-dashoffset:0;stroke-opacity:1;color-rendering:auto;image-rendering:auto;shape-rendering:auto;text-rendering:auto;enable-background:accumulate" d="M 8.021 290.122 C 7.811 290.132 7.603 290.212 7.448 290.387 C 7.435 290.403 7.422 290.42 7.413 290.438 C 7.413 290.438 7.255 290.72 6.999 290.868 C 6.743 291.016 6.421 291.012 6.421 291.012 C 6.4 291.011 6.379 291.012 6.359 291.016 C 5.992 291.09 5.769 291.406 5.7 291.723 C 5.641 291.993 5.673 292.281 5.785 292.539 C 5.895 292.317 6.087 292.129 6.359 292.074 C 6.379 292.07 6.4 292.069 6.421 292.07 C 6.421 292.07 6.743 292.074 6.999 291.926 C 7.255 291.778 7.413 291.496 7.413 291.496 C 7.422 291.478 7.435 291.461 7.448 291.445 C 7.696 291.165 8.081 291.13 8.389 291.228 C 8.698 291.327 8.972 291.539 9.138 291.826 C 9.141 291.831 9.143 291.837 9.145 291.842 C 9.295 291.486 9.309 291.064 9.138 290.767 C 8.972 290.481 8.698 290.269 8.389 290.17 C 8.274 290.133 8.148 290.115 8.021 290.121 L 8.021 290.122 Z" id="path1595"/>
      </g>
    </g>
  </g>
</svg>