<svg xmlns="http://www.w3.org/2000/svg" width="64" height="64" viewBox="3.485 0.474 11.346 11.667" xmlns:v="https://vecta.io/nano"><g transform="matrix(1.231258 0 0 1.231258 .648654 -349.397945)"><path d="M8.652 284.568c-.662-.067-1.354.333-1.865.865-.256.266-.465.572-.584.898s-.148.687-.008 1.016a.265.265 0 0 0 .053.078l.492.52a.265.265 0 0 0 .061.047c.446.257.912.26 1.277.07s.629-.534.811-.928c.363-.787.437-1.807-.051-2.461a.265.265 0 0 0-.186-.105z" fill="#43a047"/><path d="M8.186 284.595c-.509.102-1.007.43-1.399.838-.256.266-.465.571-.584.898s-.148.687-.008 1.016a.265.265 0 0 0 .053.078l.492.519a.265.265 0 0 0 .06.047c.446.257.913.26 1.277.07.186-.096.345-.234.481-.397-.227-.004-.467-.067-.7-.202-.472-.272-.818-.838-.597-1.66.119-.327.328-.632.584-.898a3.56 3.56 0 0 1 .341-.309z" fill="#307c3a"/><path d="M5.4 286.885c-.875.08-1.805.533-2.131 1.291a.265.265 0 0 0 0 .213c.329.732 1.256 1.183 2.129 1.273.437.045.873-.006 1.225-.227s.588-.629.588-1.154-.235-.93-.586-1.154-.787-.282-1.225-.242z" fill="#00e676"/><path d="M5.727 286.874c-.108-.003-.217.001-.327.011-.875.08-1.805.533-2.131 1.291a.265.265 0 0 0-.02.07c.341-.163.72-.269 1.092-.303.437-.04.874.018 1.225.242s.586.633.586 1.154a1.61 1.61 0 0 1-.028.291c.177-.038.346-.1.499-.195.352-.221.588-.629.588-1.154s-.236-.931-.586-1.154c-.263-.168-.574-.243-.898-.253z" fill="#00bc5f"/><path d="M6.936 287.826a.265.265 0 0 0-.07.012l-.963.219a.265.265 0 1 0 .09.521c.438-.075.647-.133 1.01-.23a.265.265 0 0 0-.066-.521z" fill="#008644"/><path d="M7.365 286.539a.265.265 0 0 0-.215.123c-.345.531-.498 1.035-.482 1.439a4.2 4.2 0 0 0 .486 1.764c.904 1.566-.168 2.902-.168 2.902a.266.266 0 1 0 .418.328s1.271-1.654.209-3.494c0 0-.384-.678-.416-1.52-.009-.243.099-.674.396-1.133a.265.265 0 0 0-.229-.41z" fill="#34863f"/><path d="M8.39 290.17c-.309-.098-.694-.063-.942.217-.013.016-.025.033-.035.051 0 0-.158.282-.414.43s-.578.144-.578.144c-.021-.001-.042 0-.062.004-.367.074-.59.391-.659.707s-.021.66.145.947a1.19 1.19 0 0 0 1.623.434l1.215-.701c.522-.302.739-1.143.455-1.635-.166-.287-.44-.499-.748-.598z" fill="#ffbf89"/><path d="M8.021 290.122a.8.8 0 0 0-.573.265.29.29 0 0 0-.035.051s-.158.282-.414.43-.578.144-.578.144c-.021-.001-.042 0-.062.004-.367.074-.59.39-.659.707a1.34 1.34 0 0 0 .085.816c.11-.222.302-.41.574-.465.02-.004.041-.005.062-.004 0 0 .322.004.578-.144s.414-.43.414-.43a.29.29 0 0 1 .035-.051c.248-.28.633-.315.941-.217a1.34 1.34 0 0 1 .749.598c.157-.34.171-.762 0-1.059-.166-.286-.44-.498-.749-.597-.115-.037-.241-.055-.368-.049v.001z" fill="#ff9f67"/></g></svg>