<svg id="b51cf26c-8d0b-44c6-93ab-c5efe7affba4" data-name="Layer 1" xmlns="http://www.w3.org/2000/svg" viewBox="0 0 100 100"><defs><style>.a57de8d8-f0d8-4ea4-861c-f60b115993d7,.e2e58e15-6263-4d87-a425-7aec2c8aaac6{fill:#4e1fa3;}.a57de8d8-f0d8-4ea4-861c-f60b115993d7{opacity:0.4;isolation:isolate;}.e2e58e15-6263-4d87-a425-7aec2c8aaac6{fill-rule:evenodd;}</style></defs><g id="b90eeea3-1bb4-4001-903e-0261ef00654f" data-name="browser"><path id="f1ad4cfb-a044-4507-a93d-99fb604dd088" data-name="Vector 437" class="a57de8d8-f0d8-4ea4-861c-f60b115993d7" d="M5.8487,76.49078V32.33948H94.1513v44.1513A17.66053,17.66053,0,0,1,76.49078,94.1513H23.50922A17.66053,17.66053,0,0,1,5.8487,76.49078Z"/><path id="e894331b-eaab-4770-a361-3b5c49431b5b" data-name="Subtract" class="e2e58e15-6263-4d87-a425-7aec2c8aaac6" d="M23.50922,5.8487H76.49078A17.66053,17.66053,0,0,1,94.1513,23.50922v8.83026H5.8487V23.50922A17.66053,17.66053,0,0,1,23.50922,5.8487ZM80.90591,19.09409A4.41513,4.41513,0,1,1,76.49078,14.679,4.41513,4.41513,0,0,1,80.90591,19.09409ZM58.83026,23.50922a4.41513,4.41513,0,1,0-4.41513-4.41513A4.41513,4.41513,0,0,0,58.83026,23.50922Z"/></g></svg>