<svg id="ba2661f6-6cac-495b-8e3c-681151eed5d3" data-name="Layer 1" xmlns="http://www.w3.org/2000/svg" viewBox="0 0 60 60"><defs><style>.bd592915-f500-4c22-b00d-5959a3321e7a{fill:#dac2f8;}.ad6cc7ab-1f75-4708-8a59-906d5321f012{fill:#5220a1;}</style></defs><path class="bd592915-f500-4c22-b00d-5959a3321e7a" d="M16.96178,19.79611s-7.88139,1.41655-7.40885,8.57774,7.40885,7.46886,7.40885,7.46886V41.496s-2.53249-.00846-3.23885,1.00934L9.16561,40.51709l-.42994-1.9725L5.86943,36.19427,4.121,35.84271l-1.949-4.692L3.71975,30l-.05733-4.00955L1.79936,24.11418,3.949,19.79611l2.83758-.54133,1.94905-2.26433V14.63056l4.37517-2.02546,2.01655,2.02546,1.83439-.33438Z"/><rect class="bd592915-f500-4c22-b00d-5959a3321e7a" x="26.81165" y="21.83759" width="8.12072" height="5.75007"/><path class="ad6cc7ab-1f75-4708-8a59-906d5321f012" d="M53.02406,33.0983H45.82388V37.14c.69544,0,1.36368-.001,2.03191.0005.25791.00057.51735-.00987.7734.01381a.92961.92961,0,0,1,.885.94094.9036.9036,0,0,1-.84469.91472c-.67211.044-1.34837.02468-2.02287.031-.25287.00237-.50578.00038-.80806.00038v3.96846c.231.01336.44229.03574.65363.03618,1.48847.00314,2.97711.01427,4.46535-.00467a1.70945,1.70945,0,0,1,1.37165.56891c.71612.76979,1.46758,1.50659,2.18125,2.2336,2.38157-.65075,4.04153.21671,4.43073,2.26479a2.96785,2.96785,0,0,1-2.60188,3.377,2.857,2.857,0,0,1-2.78649-1.254,3.648,3.648,0,0,1-.35391-3.07668c-.68555-.67876-1.33075-1.3249-1.98684-1.95974a.68406.68406,0,0,0-.39251-.22063c-1.64326-.015-3.28669-.00981-5.03106-.00981,0,.4941.002.94275-.0004,1.39138-.00585,1.09741-.294,1.40549-1.36451,1.40587q-13.51539.00481-27.03077-.00039c-1.03451-.00043-1.33723-.32032-1.34035-1.36949-.00368-1.23263-.00095-2.46528-.001-3.69792,0-.2155,0-.431,0-.64094a.65173.65173,0,0,0-.86993.21359c-.26458.322-.55617.62169-.83276.934a1.06969,1.06969,0,0,1-1.33224.32234c-1.46446-.60787-2.93554-1.19983-4.40567-1.79392a.962.962,0,0,1-.68408-1.05776,2.23358,2.23358,0,0,1,.01373-.35671,2.44077,2.44077,0,0,0-.94966-2.4682,2.72954,2.72954,0,0,0-2.72617-1.0516c-.70647.14716-1.01086-.11829-1.29-.77507q-.90835-2.137-1.80079-4.28074a1.0172,1.0172,0,0,1,.3159-1.42368c.39219-.36325.79164-.71863,1.201-1.08937,0-.93878.01412-1.87277-.01176-2.80565a.927.927,0,0,0-.25576-.55488c-.32867-.34364-.70553-.64041-1.04973-.97a.98791.98791,0,0,1-.25069-1.19212q.9456-2.2503,1.87238-4.50852a.93578.93578,0,0,1,1.02189-.64156,3.81657,3.81657,0,0,1,.65278.02624c.84227.2154,1.359-.21389,1.95576-.75245a3.08017,3.08017,0,0,0,1.28485-3.1249.926.926,0,0,1,.66806-1.06742c1.48356-.614,2.96366-1.23639,4.44487-1.85608a.99143.99143,0,0,1,1.23192.28755c.27516.31349.56772.61238.83087.93548a.74163.74163,0,0,0,.96533.25157c0-.55421-.00006-1.145,0-1.73578.00008-.59644-.00643-1.193.00206-1.78929.01278-.89787.33225-1.22291,1.22828-1.22407q5.53713-.00713,11.07428-.00229c2.7388,0,5.47773.014,8.21631-.01063a1.93141,1.93141,0,0,1,1.523.62636q3.61695,3.7142,7.27955,7.38366a1.31128,1.31128,0,0,1,.42113,1.05716c-.02347.50914-.00553,1.0202-.00553,1.5599h5.18056l2.22493-2.23558a3.19641,3.19641,0,0,1,.17081-2.8743,3.06247,3.06247,0,0,1,1.46065-1.26516,2.94955,2.94955,0,0,1,3.38711.88638,2.98259,2.98259,0,0,1,.19862,3.5528c-.80866,1.25092-2.03108,1.60677-3.92489,1.08809-.486.50855-.99559,1.06423-1.5292,1.59569-1.39013,1.3845-.94214,1.20238-2.94545,1.21186-1.3098.0062-2.61965.00413-3.92947.00751a1.90721,1.90721,0,0,0-.23478.037v3.99888c.71,0,1.39939-.00051,2.08873.0003.21827.00026.43811-.012.65448.0094a.962.962,0,0,1,.9211.92113.9413.9413,0,0,1-.91681.9814c-.67291.03612-1.349.01278-2.02374.01476-.23351.00069-.467.00011-.74125.00011v4.07386h7.18961c1.1545-1.78059,2.29353-2.35648,3.78422-1.91951a2.94986,2.94986,0,0,1,2.11212,2.85512,3.06421,3.06421,0,0,1-2.20746,2.92736C55.24628,35.40474,54.14005,34.84132,53.02406,33.0983ZM43.83627,45.80275V18.22444l-.67113,0q-2.82716,0-5.65431-.00028c-1.12978-.00055-1.45373-.32071-1.45559-1.45052-.00308-1.86821.00023-3.73643-.00248-5.60464-.00033-.22905-.0211-.45808-.03184-.67558H17.99418V45.80275ZM3.10909,23.89062c.34746.31055.64823.59748.96832.86085a1.45031,1.45031,0,0,1,.55728,1.24462c-.027,1.15187-.02,2.305-.00247,3.45724a1.23874,1.23874,0,0,1-.46755,1.03912c-.34721.29226-.676.60655-1.04895.94395l1.376,3.338a11.89406,11.89406,0,0,1,1.479.01537,1.78625,1.78625,0,0,1,.94723.36541c.90192.83615,1.75192,1.72844,2.62327,2.59781a1.34484,1.34484,0,0,1,.39342,1.19233c-.04884.389-.05569.7832-.08242,1.19473l3.43257,1.415c.72256-.89635,1.33966-1.88046,2.712-1.48581V36.41846A8.91513,8.91513,0,0,1,8.296,28.35982,8.45738,8.45738,0,0,1,9.613,23.02706a8.82525,8.82525,0,0,1,6.36786-4.0902V15.19415c-1.41841.43974-1.96893-.66487-2.71589-1.47045L9.85161,15.14061c.02443.41822.01791.79755.07508,1.167a1.38534,1.38534,0,0,1-.42255,1.29392q-1.276,1.25056-2.5254,2.52829a1.41187,1.41187,0,0,1-1.29373.42042,9.24415,9.24415,0,0,0-1.19295-.01007ZM16.00036,34.27154V20.90378a6.7999,6.7999,0,0,0-5.76915,7.15865C10.392,31.15858,13.18365,34.17478,16.00036,34.27154Zm22.09241-22.3561v4.3249H42.446c-1.386-1.38784-2.70071-2.7048-4.01646-4.02073C38.34828,12.1383,38.259,12.065,38.09277,11.91544ZM55.9506,49.58175a1.00115,1.00115,0,0,0,1.02932-1.05025,1.0787,1.0787,0,0,0-1.00665-1.0439,1.0918,1.0918,0,0,0-1.091,1.0914A.98052.98052,0,0,0,55.9506,49.58175ZM55.87377,33.1332a1.04889,1.04889,0,0,0,1.06868-.97485,1.00285,1.00285,0,0,0-.99739-1.09392,1.02543,1.02543,0,0,0-1.06541,1.03574A.99493.99493,0,0,0,55.87377,33.1332Zm.06-16.60275a.98371.98371,0,0,0,1.046-.97477,1.02694,1.02694,0,0,0-1.06792-1.02747A.98864.98864,0,0,0,54.892,15.53605,1.03265,1.03265,0,0,0,55.93379,16.53045Z"/><path class="ad6cc7ab-1f75-4708-8a59-906d5321f012" d="M26.63689,19.81211a4.6028,4.6028,0,0,1,1.56293-4.199,4.095,4.095,0,0,1,2.85493-.97849,4.21173,4.21173,0,0,1,3.23007,1.64157A5.11081,5.11081,0,0,1,35.221,19.8543c.28,0,.52766-.00863.77452.00169a.93905.93905,0,0,1,1.01108,1.00069q.02232,3.21663.00116,6.4335c-.00454.70723-.4343,1.07287-1.20835,1.07542q-3.12191.01029-6.24384.00785-1.72451.00113-3.449-.00169c-.86723-.00171-1.26237-.38813-1.26465-1.26784-.0051-1.96578-.00005-3.9316.0045-5.89739.0024-1.0361.29635-1.3323,1.333-1.36279C26.29628,19.8403,26.4129,19.82791,26.63689,19.81211Zm8.29548,2.02548H26.81165v4.55318h8.12072ZM28.7249,19.79611h4.44365a2.5629,2.5629,0,0,0-.99535-2.77144,2.18265,2.18265,0,0,0-2.51131.01029A2.45381,2.45381,0,0,0,28.7249,19.79611Z"/><path class="ad6cc7ab-1f75-4708-8a59-906d5321f012" d="M27.85075,37.79816q-2.64752.00044-5.295-.00059c-.715-.00109-1.17853-.39691-1.16385-.98182a1.04524,1.04524,0,0,1,1.142-.96418q5.32476-.00506,10.64954.00384c.70115.0013,1.10072.36591,1.10694.96656.00651.6297-.39047.97344-1.14453.97485Q30.49828,37.80176,27.85075,37.79816Z"/><path class="ad6cc7ab-1f75-4708-8a59-906d5321f012" d="M34.67818,31.11948q2.05208,0,4.10413,0c.119,0,.238-.00171.35687.00073.81652.01671,1.30571.39433,1.29636.99959-.00936.60543-.48767.9688-1.31857.98035-.73345.01019-1.46716.00049-2.20074.0033-2.10145.008-4.20291.02288-6.30436.02244a4.4734,4.4734,0,0,1-1.05694-.10691.84683.84683,0,0,1-.67672-.86209.88111.88111,0,0,1,.64088-.95253,2.26636,2.26636,0,0,1,.69872-.099c1.48675-.00845,2.97357-.0043,4.46038-.0043Z"/><path class="ad6cc7ab-1f75-4708-8a59-906d5321f012" d="M35.50583,42.47018c-1.28929,0-2.57879.01371-3.86779-.00585a.90347.90347,0,0,1-.99335-.94331c-.0012-.59673.39666-.97781,1.0937-.99359.85252-.01932,1.70579-.00561,2.55873-.00571q2.35056-.00029,4.70112.00077a3.27819,3.27819,0,0,1,.534.02078,1.0225,1.0225,0,0,1,.89989,1.01944.95023.95023,0,0,1-.9991.89959c-1.30882.01921-2.61811.006-3.92721.006Z"/><path class="ad6cc7ab-1f75-4708-8a59-906d5321f012" d="M25.15049,42.504c-.693,0-1.38609.004-2.07906-.002a7.01047,7.01047,0,0,1-.829-.045.94067.94067,0,0,1-.84762-.853.90609.90609,0,0,1,.564-.95481,1.61806,1.61806,0,0,1,.68695-.13266q2.46584-.01062,4.93175.01013a1.85869,1.85869,0,0,1,.6359.10889.94623.94623,0,0,1,.58063,1.05742.86772.86772,0,0,1-.85144.76145c-.9302.02286-1.86136.0068-2.79213.0068Z"/><path class="ad6cc7ab-1f75-4708-8a59-906d5321f012" d="M24.29455,31.1039c.57428,0,1.14951-.02078,1.72259.0055a1.071,1.071,0,0,1,1.1082,1.01041,1.09115,1.09115,0,0,1-1.07111.99416,1.045,1.045,0,0,1-.11861.00566c-1.12881.00469-2.25779.02236-3.38636.00815a1.05222,1.05222,0,0,1-1.1165-.79333.867.867,0,0,1,.41566-1.02109,1.71649,1.71649,0,0,1,.78315-.21191c.55275-.03118,1.10847-.00941,1.663-.00941Z"/><path class="ad6cc7ab-1f75-4708-8a59-906d5321f012" d="M38.201,37.79685c-.37647.00016-.75329.0105-1.12933-.00229a.9821.9821,0,0,1-.993-.909.96887.96887,0,0,1,.88966-1.01429c.85014-.0387,1.70434-.03686,2.55476-.00179a.96291.96291,0,0,1-.07393,1.92423C39.03362,37.80878,38.61708,37.7967,38.201,37.79685Z"/></svg>