<svg xmlns="http://www.w3.org/2000/svg" viewBox="0 0 89.19 100"><defs><style>.cls-1{fill:#a465ea;}</style></defs><g id="Layer_2" data-name="Layer 2"><g id="Layer_1-2" data-name="Layer 1"><path class="cls-1" d="M46,100H43.22a2.35,2.35,0,0,0-.44-.17,10.05,10.05,0,0,1-8.12-7.74c-.16-.61-.52-.73-1-.86A42.15,42.15,0,0,1,14.42,80.1,1.26,1.26,0,0,0,13,79.71a10.2,10.2,0,0,1-10.06-17,1.64,1.64,0,0,0,.51-1.84A42,42,0,0,1,3.45,39,1.48,1.48,0,0,0,3,37.33a10.21,10.21,0,0,1,10-17,1.24,1.24,0,0,0,1.43-.37A41.9,41.9,0,0,1,33.75,8.75a1.1,1.1,0,0,0,.92-.94A9.38,9.38,0,0,1,39,1.71,31.43,31.43,0,0,1,43.22,0H46c.21.07.42.15.63.2a10.07,10.07,0,0,1,7.87,7.42A1.42,1.42,0,0,0,55.6,8.8,42,42,0,0,1,74.82,20a1.33,1.33,0,0,0,1.35.34,16.58,16.58,0,0,1,4.43-.23,9.59,9.59,0,0,1,8.07,7A9.86,9.86,0,0,1,86,37.54a1.05,1.05,0,0,0-.32,1.18,42.75,42.75,0,0,1,0,22.56A1,1,0,0,0,86,62.46,10.25,10.25,0,0,1,76,79.71a1.27,1.27,0,0,0-1.06.27A42.5,42.5,0,0,1,55.42,91.26a1.11,1.11,0,0,0-.92.93,10.1,10.1,0,0,1-6.88,7.34C47.07,99.72,46.51,99.85,46,100ZM9.2,40.38a1.66,1.66,0,0,0-.15.3c-.06.18-.1.37-.15.56a37.21,37.21,0,0,0,0,17.4c.18.76.44,1,1.27,1A10.15,10.15,0,0,1,20.44,70.07a10.71,10.71,0,0,1-1.93,5.87,36.83,36.83,0,0,0,16.67,9.64c.11-.18.19-.29.25-.4A10.22,10.22,0,0,1,53.64,85c.29.54.57.53,1.08.38a36.15,36.15,0,0,0,12.55-6.47c1.19-.94,2.29-2,3.4-2.94-2.35-3.75-2.71-7.48-.57-11.22s5.64-5.3,9.9-5.15c.07-.19.15-.33.19-.49a37.41,37.41,0,0,0,0-18.06c-.14-.59-.42-.72-1-.71a10.21,10.21,0,0,1-10.51-10,10.74,10.74,0,0,1,2-6.26A36.9,36.9,0,0,0,54,14.41c-2,3.87-5.09,6.08-9.43,6.07s-7.39-2.27-9.38-6.07a36.66,36.66,0,0,0-16.64,9.65c2.33,3.7,2.68,7.44.54,11.17S13.5,40.51,9.2,40.38Z"/><path class="cls-1" d="M65.24,41.5V52.67c0,2.83,0,5.66,0,8.49a1.46,1.46,0,0,1-.54,1.08Q56.37,67.11,48,71.91c-.11.06-.22.1-.44.2,0-.35-.05-.62-.05-.9V52.57c0-.49,0-.89.54-1.21,5.58-3.19,11.13-6.42,16.7-9.63Z"/><path class="cls-1" d="M24,41.48l4.19,2.41,12.73,7.36c.42.24.76.45.76,1.08,0,6.41,0,12.82,0,19.23a5.27,5.27,0,0,1,0,.57L41,71.78c-5.45-3.15-10.9-6.29-16.34-9.47a1.47,1.47,0,0,1-.65-1c0-6.45,0-12.89,0-19.33C23.93,41.85,24,41.73,24,41.48Z"/><path class="cls-1" d="M27,36.37c.28-.19.49-.34.7-.46C33.09,32.77,38.5,29.62,44,26.52a1.39,1.39,0,0,1,1.19-.06c5.53,3.15,11,6.35,16.54,9.53l.55.37c-.35.23-.6.4-.87.56C56.05,40,50.73,43.05,45.43,46.15a1.43,1.43,0,0,1-1.67,0q-8-4.66-16-9.28C27.5,36.73,27.27,36.57,27,36.37Z"/></g></g></svg>