<svg xmlns="http://www.w3.org/2000/svg" viewBox="0 0 99.82 99.83"><defs><style>.cls-1{fill:#4a2f6a;}</style></defs><g id="Layer_2" data-name="Layer 2"><g id="Layer_1-2" data-name="Layer 1"><path class="cls-1" d="M7.61,99.83a19.93,19.93,0,0,1-2.3-.75A8.5,8.5,0,0,1,0,90.92c0-8.9,0-17.8,0-26.7V15.67C0,9.91,3.68,6.25,9.45,6.24h5.37c0,.93,0,1.8,0,2.66a8.76,8.76,0,0,0,9,9H44.73a8.77,8.77,0,0,0,9.08-9.11V6.24c.54,0,1,0,1.54,0a50.42,50.42,0,0,1,6,.19,8.3,8.3,0,0,1,7.17,7.84c.17,7.14,0,14.29,0,21.41-1.78-.41-3.52-.89-5.3-1.2a24.44,24.44,0,0,0-11,.71,6.9,6.9,0,0,1-1.91.28l-35.18,0a5.34,5.34,0,0,0-1.44.15,2.87,2.87,0,0,0-2.07,3,3,3,0,0,0,2.7,2.64c.32,0,.64,0,1,0H41.75c-.82,1-1.55,1.8-2.25,2.66a7.06,7.06,0,0,0-1.12,1.59c-.59,1.44-1.63,1.65-3.07,1.63-6.82-.08-13.64,0-20.46,0A2.91,2.91,0,0,0,12,51.39,3,3,0,0,0,15,53h19.9l-.83,5.85H14.85A2.9,2.9,0,0,0,12,63.09a3,3,0,0,0,3,1.65H34.58l2,5.85H14.87A2.92,2.92,0,0,0,12,74.68a3,3,0,0,0,3,1.76H35.63c1.52,0,3.17-.36,4.54.11s2.27,1.79,3.44,2.66c1.4,1,2.87,2,4.44,3.08H14.93c-2.4,0-3.9,2.11-2.94,4.14a2.94,2.94,0,0,0,2.92,1.71H53.12c2.62,0,3.51-.75,3.91-3.37a26.29,26.29,0,0,0,11.6-1.6v2a64.74,64.74,0,0,1-.15,7.11c-.49,3.93-3.17,6.56-7.1,7.4a1.61,1.61,0,0,0-.36.15ZM34.33,29.64c6.46,0,12.92,0,19.38,0a3,3,0,0,0,3-1.79c.9-2-.6-4.06-3-4.07H14.78a2.86,2.86,0,0,0-2.84,1.83,2.92,2.92,0,0,0,2.91,4Z"/><path class="cls-1" d="M93,99.83a9.11,9.11,0,0,1-4.24-2.77c-2.37-2.45-4.84-4.8-7.2-7.25a5.82,5.82,0,0,1,2.69-9.75,5.28,5.28,0,0,1,5.19,1.18c3,2.92,6,5.9,8.93,9A11.68,11.68,0,0,1,99.82,93v2a6.41,6.41,0,0,1-4.88,4.88Z"/><path class="cls-1" d="M71.12,75.24a19.48,19.48,0,1,1,4.15-4.15l4,4L75,79.24ZM56.84,60.83c-.17-.08-.24-.09-.28-.14l-3-2.95c-1.44-1.42-3.15-1.54-4.4-.31s-1.13,3,.24,4.41c1.68,1.68,3.35,3.36,5,5a3,3,0,0,0,4.55,0q1.83-1.82,3.65-3.65c2.37-2.36,4.75-4.71,7.09-7.1a2.92,2.92,0,0,0-1.32-5,3,3,0,0,0-2.91,1C62.64,55,59.75,57.91,56.84,60.83Z"/><path class="cls-1" d="M34.22,12.09H24a3,3,0,0,1-3.32-3.3c0-1.6,0-3.19,0-4.78a3.86,3.86,0,0,1,4-4H44a3.88,3.88,0,0,1,4,4c0,1.66,0,3.32,0,5a2.94,2.94,0,0,1-3.12,3.11Z"/></g></g></svg>