<?xml version="1.0" encoding="utf-8"?>
<svg fill="#000000" width="800px" height="800px" viewBox="0 0 24 24" xmlns="http://www.w3.org/2000/svg">
  <path d="M 16.692 12.346 C 17.244 12.346 17.692 12.793 17.692 13.346 C 17.692 13.858 17.306 14.281 16.809 14.339 L 16.692 14.346 L 5.107 14.346 L 8.399 17.638 C 8.76 17.999 8.787 18.566 8.482 18.958 L 8.399 19.053 C 8.039 19.413 7.471 19.441 7.079 19.136 L 6.985 19.053 L 1.985 14.053 C 1.382 13.45 1.764 12.438 2.578 12.352 L 2.692 12.346 L 16.692 12.346 Z M 16.303 3.555 L 16.397 3.638 L 21.397 8.638 C 22 9.241 21.618 10.253 20.804 10.34 L 20.69 10.346 L 6.69 10.346 C 6.138 10.346 5.69 9.898 5.69 9.346 C 5.69 8.833 6.076 8.41 6.573 8.352 L 6.69 8.346 L 18.275 8.346 L 14.983 5.053 C 14.622 4.692 14.595 4.125 14.9 3.733 L 14.983 3.638 C 15.343 3.278 15.911 3.25 16.303 3.555 Z" style="fill: rgb(68, 68, 68);" transform="matrix(-1, 0, 0, -1, 23.382003, 22.690997)"/>
  <circle cx="11.947" cy="11.572" r="9" fill="#2A4157" fill-opacity="0.24" style=""/>
</svg>