<svg xmlns="http://www.w3.org/2000/svg" viewBox="0 0 99.75 99.7"><defs><style>.cls-1{fill:#a465ea;}</style></defs><g id="Layer_2" data-name="Layer 2"><g id="Layer_1-2" data-name="Layer 1"><path class="cls-1" d="M52.63,0c1.66.25,3.33.45,5,.77A39.8,39.8,0,1,1,36,2.51,37.46,37.46,0,0,1,46.43.17,4.67,4.67,0,0,0,47.17,0ZM49.91,7.3A32.56,32.56,0,0,0,17.38,39.86c.08,17.45,13.45,32.33,32.67,32.43a32.5,32.5,0,0,0-.14-65Z"/><path class="cls-1" d="M0,76.61q5.42-5.4,10.83-10.79a7.16,7.16,0,0,0,.74-1.1C18.38,74.66,27.29,81.07,38.4,84L22.79,99.65a7.21,7.21,0,0,1-.37-.91c-1.3-4.25-2.62-8.49-3.88-12.75a6.52,6.52,0,0,0-4.7-4.72C9.58,80,5.34,78.69,1.09,77.39.72,77.28.36,77.13,0,77Z"/><path class="cls-1" d="M77,99.7,61.36,84.06a45.76,45.76,0,0,0,15-7A46.49,46.49,0,0,0,87.92,65.15L99.75,77a8.88,8.88,0,0,1-1,.42C94.51,78.69,90.27,80,86,81.26a6.57,6.57,0,0,0-4.76,4.79c-1.25,4.26-2.57,8.49-3.87,12.74C77.27,99.14,77.1,99.47,77,99.7Z"/><path class="cls-1" d="M50,13.15A26.68,26.68,0,1,1,23.23,39.54C23.44,24.89,35.53,13,50,13.15Zm-4.62,29c-1.74-1.85-3.41-3.66-5.12-5.43A2.92,2.92,0,0,0,36,36.45a3,3,0,0,0,0,4.33q3.23,3.45,6.47,6.89c1.55,1.64,2.88,1.76,4.7.41L61.42,37.52c.78-.58,1.58-1.14,2.31-1.77a2.77,2.77,0,0,0,.9-3,2.52,2.52,0,0,0-2.35-2,4.36,4.36,0,0,0-2.5.76C55,35,50.22,38.55,45.35,42.17Z"/></g></g></svg>