<?xml version="1.0" encoding="utf-8"?>
<svg id="e679dd77-682b-43ce-8ffb-08fbfe0b8a28" data-name="Layer 1" viewBox="0 0 100 100" xmlns="http://www.w3.org/2000/svg">
  <defs>
    <style>.acceba0f-a310-4e34-8ac2-03cac817efda{fill:none;}.b467addb-8a1d-456d-a49b-0ace0974bf54{clip-path:url(#fcf65f12-b963-44e7-b973-5bd1b5b7bbb8);}.a426d63d-7d67-4aed-af49-9caf3b0518d0{fill:#8759c9;}.bbc0ad08-b357-43ec-9847-94ef4bec6e91{fill:#661eb9;}</style>
    <clipPath id="fcf65f12-b963-44e7-b973-5bd1b5b7bbb8">
      <rect class="acceba0f-a310-4e34-8ac2-03cac817efda" width="100" height="100"/>
    </clipPath>
  </defs>
  <g class="b467addb-8a1d-456d-a49b-0ace0974bf54">
    <path class="a426d63d-7d67-4aed-af49-9caf3b0518d0" d="M32.45512,19.94355c1.18407-1.21195,2.22495-2.33238,3.32415-3.39234,3.64548-3.51534,7.94594-4.64076,12.751-3.05046A11.74,11.74,0,0,1,56.8549,23.51038,11.70468,11.70468,0,0,1,53.86252,33.389c-1.1393,1.28039-2.39687,2.45619-3.61032,3.66992Q41.9443,45.3688,33.63052,53.67277c-1.052,1.05119-1.294,1.04955-2.3483-.0043-6.6-6.597-13.224-13.17043-19.79089-19.80024A12.36141,12.36141,0,0,1,28.86167,16.27875C30.0537,17.42057,31.17608,18.63507,32.45512,19.94355Z" style="fill: rgb(164, 101, 234); stroke-width: 6px; stroke: rgb(164, 101, 234);"/>
    <path class="bbc0ad08-b357-43ec-9847-94ef4bec6e91" d="M77.0469,55.56309c-.12335,8.48694-.24386,16.7781-.36426,25.0614-1.63645.119-3.19559.149-4.729.363a19.31268,19.31268,0,0,0-6.92158,2.448,25.78306,25.78306,0,0,1-7.75648,3.39125,17.53731,17.53731,0,0,1-10.2801-.90053Q29.33219,78.62691,11.66612,71.33449A4.9759,4.9759,0,0,1,9.3618,64.00188a4.28567,4.28567,0,0,1,5.051-1.83241q11.63508,3.65392,23.26317,7.33a1.27948,1.27948,0,0,1,.4353.16275c1.51309,1.26512,3.33106,1.23289,5.14963,1.25579,4.80528.0605,9.61025.145,14.41539.21712.24826.00372.56327.07244.73079-.04928.29728-.216.726-.58134.69554-.83591-.03951-.33056-.432-.67583-.75417-.89455-.19584-.13294-.54561-.04271-.82632-.04663-5.27345-.07362-10.54718-.13158-15.82027-.22507a3.68208,3.68208,0,0,1-3.18939-5.551,3.31877,3.31877,0,0,1,3.24354-1.79491c2.80794.056,5.61759.03947,8.4248.11636A20.74694,20.74694,0,0,0,62.17464,58.583,19.041,19.041,0,0,1,73.46046,55.5559C74.60711,55.60305,75.75735,55.56309,77.0469,55.56309Z" style="fill: rgb(128, 79, 178); stroke: rgb(128, 79, 178);"/>
    <path class="bbc0ad08-b357-43ec-9847-94ef4bec6e91" d="M92.106,51.75437c-.47939,10.97807-.95641,21.90152-1.43542,32.87092a4.45063,4.45063,0,0,1-.58732.07807c-2.6514-.02506-5.30307-.03961-7.954-.09151a3.37627,3.37627,0,0,1-3.644-3.78736q.1766-12.818.37859-25.63571a3.32386,3.32386,0,0,1,3.468-3.48462c2.9947-.01856,5.98956-.01093,8.98435-.00986C91.557,51.69439,91.7978,51.73,92.106,51.75437Z" style="fill: rgb(128, 79, 178);"/>
  </g>
</svg>