<?xml version="1.0" encoding="utf-8"?>
<svg id="bf510828-fd02-4053-bd70-8a7916770213" data-name="Layer 1" viewBox="0 0 100 100" xmlns="http://www.w3.org/2000/svg">
  <defs>
    <style>.bbee30e5-192d-4c56-af0c-319fc4d44f83,.f9018407-12bb-4b32-bbd0-e41e43efb4e9{fill:#4e1fa3;}.f9018407-12bb-4b32-bbd0-e41e43efb4e9{opacity:0.4;isolation:isolate;}</style>
  </defs>
  <g id="b41eddf6-2537-4af6-829d-19dd7df00700" data-name="wallet check">
    <path id="f1891658-6000-453a-ab20-15698dd89a9a" data-name="Rectangle 832" class="f9018407-12bb-4b32-bbd0-e41e43efb4e9" d="M92.49512,22.68918H21.853A17.66052,17.66052,0,0,0,4.19252,40.3497v35.321A17.66051,17.66051,0,0,0,21.853,93.33126H74.8346A17.66052,17.66052,0,0,0,92.49512,75.67074Z" style="fill: rgb(184, 127, 217);"/>
    <path id="a99af30a-6190-4bb9-a1ee-37fc43e4f400" data-name="Rectangle 833" class="bbee30e5-192d-4c56-af0c-319fc4d44f83" d="M92.49512,22.68918A17.66053,17.66053,0,0,0,74.8346,5.02866H48.34382A17.66052,17.66052,0,0,0,30.6833,22.68918Z" style="fill: rgb(162, 88, 205);"/>
    <path id="b8a79ff3-3daa-444d-a684-c54a475fd174" data-name="Rectangle 834" class="bbee30e5-192d-4c56-af0c-319fc4d44f83" d="M4.19252,49.18V66.84048H21.853a8.83026,8.83026,0,0,0,0-17.66052Z" style="fill: rgb(162, 88, 205);"/>
    <g transform="matrix(0.907734, -0.156828, 0.091916, 0.926119, -15.763898, 17.560415)" style="">
      <path id="a2598014-e5ff-4698-8c3c-acecd796d6f5" data-name="Vector 2132 Stroke " class="bbee30e5-192d-4c56-af0c-319fc4d44f83" d="M 112.451 41.295 C 113.754 42.498 113.766 44.589 112.479 45.966 L 98.918 60.447 C 96.004 63.558 91.29 63.975 88.22 61.392 L 80.86 55.202 C 78.933 53.65 79.544 50.491 81.959 49.516 C 83.083 49.062 84.328 49.23 85.222 49.955 C 85.253 49.98 85.284 50.006 85.314 50.032 L 92.675 56.213 C 93.113 56.581 93.786 56.521 94.202 56.076 L 107.762 41.604 C 109.051 40.229 111.15 40.091 112.451 41.295 Z" style="fill: rgb(184, 165, 218);" transform="matrix(-0.980411, -0.196961, 0.196961, -0.980411, 181.064594, 121.568058)"/>
    </g>
    <g transform="matrix(0, 4.133044, 4.177221, 0, 43.7845, -6.628157)" style="">
      <path d="M 21.25 2 C 21.664 2 22 2.336 22 2.75 L 22 6.75 C 22 8.269 20.769 9.5 19.25 9.5 L 13.561 9.5 L 16.28 12.22 C 16.573 12.513 16.573 12.987 16.28 13.28 C 15.987 13.573 15.513 13.573 15.22 13.28 L 11.22 9.28 C 10.927 8.987 10.927 8.513 11.22 8.22 L 15.22 4.22 C 15.513 3.927 15.987 3.927 16.28 4.22 C 16.573 4.513 16.573 4.987 16.28 5.28 L 13.561 8 L 19.25 8 C 19.94 8 20.5 7.44 20.5 6.75 L 20.5 2.75 C 20.5 2.336 20.836 2 21.25 2 Z" style="fill: rgb(184, 165, 218);"/>
    </g>
    <g transform="matrix(0, 4.133044, 4.177221, 0, 42.608562, -8.349414)" style="">
      <path d="M 21.25 2 C 21.664 2 22 2.336 22 2.75 L 22 6.75 C 22 8.269 20.769 9.5 19.25 9.5 L 13.561 9.5 L 16.28 12.22 C 16.573 12.513 16.573 12.987 16.28 13.28 C 15.987 13.573 15.513 13.573 15.22 13.28 L 11.22 9.28 C 10.927 8.987 10.927 8.513 11.22 8.22 L 15.22 4.22 C 15.513 3.927 15.987 3.927 16.28 4.22 C 16.573 4.513 16.573 4.987 16.28 5.28 L 13.561 8 L 19.25 8 C 19.94 8 20.5 7.44 20.5 6.75 L 20.5 2.75 C 20.5 2.336 20.836 2 21.25 2 Z" style="stroke-miterlimit: 8; fill: rgb(88, 88, 88); paint-order: fill; stroke-width: 0.721999px; stroke: rgb(88, 88, 88);"/>
    </g>
  </g>
</svg>