<?xml version="1.0" encoding="utf-8"?>
<!-- Generator: Adobe Illustrator 26.0.1, SVG Export Plug-In . SVG Version: 6.00 Build 0)  -->
<svg version="1.1" id="Layer_1" xmlns="http://www.w3.org/2000/svg" xmlns:xlink="http://www.w3.org/1999/xlink" x="0px" y="0px"
	 viewBox="0 0 50 50" enable-background="new 0 0 50 50" xml:space="preserve">
<g id="Features" display="none">
	<g>
		<path display="inline" fill="#6D1EBF" d="M25.478,0.747c0.435,0.257,0.615,0.629,0.611,1.143c-0.017,2.008,0,4.017-0.011,6.026
			c-0.004,0.798-0.711,1.272-1.394,0.955c-0.362-0.168-0.565-0.46-0.566-0.861c-0.005-2.119-0.003-4.238-0.001-6.358
			c0-0.43,0.268-0.691,0.6-0.905C24.971,0.747,25.224,0.747,25.478,0.747z"/>
		<path display="inline" fill="#6D1EBF" d="M24.717,49.448c-0.459-0.266-0.616-0.664-0.611-1.19
			c0.019-1.945,0.006-3.891,0.009-5.836c0-0.172,0.002-0.353,0.049-0.516c0.132-0.456,0.583-0.723,1.075-0.661
			c0.473,0.059,0.832,0.43,0.835,0.94c0.011,2.119,0.005,4.239,0.003,6.358c0,0.43-0.269,0.69-0.599,0.906
			C25.224,49.448,24.971,49.448,24.717,49.448z"/>
		<path display="inline" fill="#6D1EBF" d="M24.267,11.734c5.221,0.009,9.202,1.383,12.898,3.671
			c3.586,2.22,6.596,5.077,9.167,8.408c0.126,0.163,0.244,0.332,0.362,0.501c0.43,0.621,0.442,0.95,0.004,1.557
			c-1.433,1.988-3.081,3.783-4.901,5.422c-2.612,2.353-5.495,4.288-8.772,5.598c-3.032,1.213-6.182,1.772-9.444,1.518
			c-3.452-0.269-6.66-1.364-9.653-3.088c-4.142-2.386-7.564-5.573-10.399-9.405c-0.488-0.659-0.493-0.98-0.005-1.63
			c3.737-4.98,8.294-8.93,14.18-11.177C20.078,12.203,22.54,11.708,24.267,11.734z M25.113,13.701
			c-0.331,0.028-0.662,0.068-0.994,0.081c-2.955,0.12-5.701,1-8.301,2.349c-4.006,2.078-7.273,5.042-10.087,8.538
			c-0.253,0.314-0.266,0.526-0.006,0.849c2.58,3.201,5.541,5.968,9.128,8.015c3.526,2.012,7.278,3.142,11.391,2.876
			c2.931-0.19,5.658-1.046,8.239-2.402c3.968-2.083,7.201-5.036,10-8.499c0.243-0.301,0.253-0.509,0.005-0.816
			c-2.596-3.206-5.566-5.982-9.164-8.047C32.161,14.83,28.783,13.77,25.113,13.701z"/>
		<path display="inline" fill="#6D1EBF" d="M11.144,13.988c-0.345,0.005-0.593-0.124-0.802-0.333
			c-1.322-1.32-2.648-2.635-3.959-3.965C5.94,9.241,5.947,8.65,6.354,8.249c0.407-0.402,0.992-0.401,1.442,0.044
			c1.329,1.313,2.646,2.637,3.964,3.961c0.318,0.32,0.424,0.697,0.236,1.13C11.826,13.773,11.51,13.947,11.144,13.988z"/>
		<path display="inline" fill="#6D1EBF" d="M39.102,13.991c-0.38-0.025-0.704-0.191-0.887-0.571c-0.192-0.4-0.136-0.78,0.163-1.099
			c0.4-0.427,0.821-0.835,1.235-1.249c0.929-0.929,1.848-1.868,2.792-2.782c0.599-0.58,1.479-0.351,1.697,0.414
			c0.106,0.371,0,0.696-0.262,0.959c-1.339,1.347-2.683,2.689-4.028,4.031C39.626,13.878,39.397,13.978,39.102,13.991z"/>
		<path display="inline" fill="#6D1EBF" d="M12.088,38.109c-0.009,0.366-0.148,0.607-0.356,0.815
			c-1.31,1.31-2.614,2.624-3.932,3.926c-0.452,0.447-1.033,0.451-1.443,0.051c-0.409-0.4-0.419-0.994,0.022-1.441
			c1.323-1.341,2.659-2.669,3.996-3.996c0.323-0.32,0.711-0.401,1.135-0.204C11.895,37.439,12.055,37.766,12.088,38.109z"/>
		<path display="inline" fill="#6D1EBF" d="M44.143,42.207c-0.032,0.351-0.173,0.657-0.508,0.843
			c-0.347,0.193-0.697,0.195-1.032-0.028c-0.104-0.069-0.199-0.157-0.288-0.246c-1.266-1.264-2.529-2.53-3.796-3.793
			c-0.27-0.27-0.467-0.569-0.397-0.967c0.068-0.386,0.285-0.662,0.665-0.797c0.384-0.136,0.73-0.053,1.008,0.223
			c1.36,1.348,2.712,2.705,4.064,4.062C44.044,41.689,44.137,41.923,44.143,42.207z"/>
		<path display="inline" fill="#6D1EBF" d="M24.993,16.504c4.495-0.001,8.184,3.283,8.675,7.645
			c0.569,5.051-3.418,9.485-8.492,9.557c-3.951,0.057-8.037-2.859-8.633-7.6c-0.102-0.815-0.092-1.645,0.065-2.462
			c0.117-0.609,0.598-1.005,1.125-0.926c0.599,0.089,0.951,0.587,0.848,1.256c-0.594,3.854,1.964,6.767,4.821,7.507
			c3.947,1.022,7.812-1.653,8.253-5.698c0.415-3.806-2.507-6.946-5.854-7.245c-1.015-0.091-1.985,0.042-2.947,0.337
			C22.196,19.076,21.7,18.9,21.474,18.4c-0.251-0.557-0.003-1.13,0.632-1.372C23.062,16.664,24.052,16.464,24.993,16.504z"/>
		<path display="inline" fill="#6D1EBF" d="M25.089,28.935c-2.145-0.002-3.828-1.688-3.828-3.835c0-2.171,1.687-3.845,3.87-3.839
			c2.137,0.006,3.808,1.7,3.804,3.857C28.931,27.259,27.241,28.936,25.089,28.935z M26.957,25.099
			c0.001-0.99-0.868-1.86-1.858-1.862c-0.989-0.001-1.86,0.868-1.861,1.859c-0.002,0.988,0.869,1.861,1.858,1.862
			C26.085,26.959,26.956,26.089,26.957,25.099z"/>
		<path display="inline" fill="#6D1EBF" d="M18.41,20.302c0.018-0.56,0.462-0.965,1.031-0.94c0.541,0.023,0.937,0.447,0.93,0.996
			c-0.007,0.564-0.439,0.978-1.008,0.965C18.8,21.309,18.391,20.872,18.41,20.302z"/>
	</g>
	<g>
		<path display="inline" fill="#6D1EBF" d="M24.521,39.478c0-0.176,0-0.352,0-0.529c0-2.018-0.001-4.036,0.002-6.053
			c0-0.227,0.014-0.455,0.042-0.681c0.04-0.315,0.215-0.512,0.55-0.5c0.336,0.012,0.489,0.221,0.504,0.541
			c0.008,0.162,0.006,0.325,0.006,0.488c0,3.629,0,7.258,0,10.886c0,0.177,0,0.354,0,0.532c0.036,0.018,0.072,0.037,0.107,0.055
			c0.623-0.795,1.598-1.241,1.724-2.512c0.229-2.307,1.057-4.42,2.688-6.149c1.006-1.066,2.242-1.766,3.597-2.274
			c1.134-0.425,2.314-0.655,3.515-0.772c0.76-0.074,1.012,0.138,0.946,0.898c-0.47,5.353-3.145,8.783-8.489,9.781
			c-0.255,0.048-0.513,0.095-0.772,0.109c-0.58,0.03-1.039,0.244-1.431,0.697c-0.478,0.552-1.018,1.052-1.548,1.558
			c-0.241,0.23-0.355,0.478-0.344,0.816c0.02,0.65,0.004,1.302,0.004,1.953c0,0.328-0.107,0.591-0.473,0.624
			c-0.387,0.035-0.56-0.204-0.597-0.557c-0.022-0.21-0.031-0.422-0.031-0.633c-0.002-2.002-0.009-4.003,0.005-6.005
			c0.003-0.39-0.112-0.677-0.396-0.943c-0.523-0.488-1.044-0.984-1.515-1.521c-0.353-0.403-0.774-0.534-1.278-0.591
			c-1.836-0.206-3.565-0.751-5.117-1.77c-2.379-1.561-3.491-3.911-4.033-6.599c-0.119-0.589-0.214-1.184-0.207-1.79
			c0.004-0.418,0.204-0.654,0.626-0.634c3.435,0.166,7.704,1.598,9.395,6.175c0.396,1.072,0.699,2.166,0.791,3.31
			c0.035,0.441,0.189,0.799,0.536,1.099c0.377,0.325,0.707,0.704,1.057,1.06C24.431,39.524,24.476,39.501,24.521,39.478z
			 M20.668,37.478c-0.038-0.234-0.195-0.314-0.304-0.424c-1.158-1.164-2.32-2.324-3.48-3.486c-0.114-0.115-0.238-0.228-0.322-0.363
			c-0.144-0.23-0.133-0.472,0.067-0.668c0.2-0.196,0.442-0.201,0.67-0.054c0.134,0.087,0.247,0.209,0.362,0.324
			c1.174,1.171,2.345,2.345,3.521,3.515c0.096,0.095,0.162,0.246,0.378,0.246c-0.354-1.723-0.927-3.327-2.108-4.652
			c-1.607-1.803-3.744-2.503-6.039-2.86c-0.267-0.041-0.284,0.111-0.254,0.329c0.194,1.413,0.577,2.768,1.272,4.02
			C15.787,35.849,18.024,36.94,20.668,37.478z M29.608,42.025c0.244,0.065,0.426-0.034,0.609-0.081
			c1.777-0.461,3.41-1.183,4.638-2.619c1.317-1.54,1.887-3.385,2.195-5.341c0.052-0.329-0.126-0.303-0.339-0.278
			c-1.222,0.141-2.39,0.478-3.501,1.001c-2.739,1.287-3.997,3.618-4.574,6.473c0.249-0.034,0.336-0.208,0.456-0.327
			c1.212-1.204,2.418-2.413,3.627-3.62c0.244-0.244,0.532-0.364,0.819-0.106c0.302,0.272,0.219,0.582-0.019,0.863
			c-0.094,0.111-0.2,0.214-0.303,0.317c-1.092,1.093-2.187,2.184-3.276,3.28C29.819,41.709,29.653,41.802,29.608,42.025z"/>
		<path display="inline" fill="#6D1EBF" d="M25.106,29.642c3.575-0.07,6.326-1.608,8.204-4.671c0.085-0.139,0.16-0.284,0.255-0.416
			c0.199-0.278,0.47-0.365,0.764-0.181c0.276,0.173,0.311,0.442,0.164,0.727c-0.548,1.067-1.257,2.019-2.139,2.828
			c-2.249,2.06-4.912,2.994-7.955,2.851c-4.751-0.223-9.037-4.137-9.783-8.837c-0.943-5.939,3.075-11.26,8.71-12.266
			c4.858-0.867,10.024,2.071,11.719,6.746c0.13,0.359,0.164,0.68-0.237,0.871c-0.327,0.156-0.608-0.021-0.796-0.492
			c-1.06-2.652-2.91-4.52-5.576-5.542c-5.832-2.236-12.219,1.795-12.809,8.013c-0.478,5.034,3.133,9.73,8.407,10.363
			C24.386,29.679,24.749,29.642,25.106,29.642z"/>
		<path display="inline" fill="#6D1EBF" d="M25.09,27.96c-3.957,0.041-7.786-3.126-7.786-7.799c0.001-4.572,3.731-7.796,7.805-7.787
			c4.068,0.008,7.756,3.211,7.796,7.806C32.944,24.466,29.388,27.961,25.09,27.96z M25.074,26.844
			c3.718,0.007,6.728-2.978,6.73-6.674c0.001-3.679-2.992-6.671-6.679-6.676c-3.718-0.006-6.733,2.983-6.732,6.674
			C18.394,23.845,21.388,26.837,25.074,26.844z"/>
		<path display="inline" fill="#6D1EBF" d="M38.103,3.116c-0.247,0.294-0.456,0.558-0.681,0.807c-0.13,0.144-0.275,0.281-0.434,0.39
			c-0.239,0.165-0.498,0.172-0.71-0.048c-0.227-0.235-0.228-0.515-0.005-0.744c0.703-0.722,1.414-1.437,2.141-2.136
			c0.245-0.235,0.546-0.205,0.789,0.034c0.696,0.684,1.387,1.373,2.071,2.068c0.237,0.241,0.281,0.529,0.028,0.779
			c-0.248,0.246-0.548,0.22-0.784-0.018c-0.341-0.344-0.65-0.719-0.985-1.093c-0.245,0.268-0.174,0.472-0.174,0.654
			c-0.005,4.456-0.003,8.911-0.006,13.367c0,0.226-0.01,0.457-0.057,0.677c-0.058,0.265-0.248,0.428-0.527,0.413
			c-0.296-0.015-0.479-0.19-0.512-0.491c-0.017-0.161-0.01-0.325-0.01-0.487c0-4.488,0.001-8.976-0.003-13.465
			C38.245,3.637,38.302,3.439,38.103,3.116z"/>
		<path display="inline" fill="#6D1EBF" d="M10.653,3.169c-0.298,0.338-0.589,0.683-0.898,1.012C9.504,4.449,9.191,4.553,8.899,4.27
			c-0.298-0.288-0.181-0.587,0.082-0.85c0.645-0.643,1.283-1.293,1.934-1.929c0.365-0.357,0.632-0.352,1.008,0.016
			c0.639,0.625,1.267,1.263,1.899,1.895c0.259,0.259,0.386,0.555,0.098,0.854c-0.286,0.297-0.609,0.201-0.859-0.059
			c-0.324-0.336-0.612-0.708-0.943-1.097c-0.23,0.328-0.167,0.528-0.167,0.713c-0.004,4.504-0.003,9.008-0.004,13.512
			c0,0.408,0.057,0.864-0.516,0.94c-0.386,0.051-0.591-0.284-0.591-0.935c-0.002-4.488-0.001-8.975-0.001-13.463
			c0-0.193,0-0.385,0-0.578C10.777,3.249,10.715,3.209,10.653,3.169z"/>
		<path display="inline" fill="#6D1EBF" d="M3.235,8.98c-0.331,0.356-0.657,0.718-0.996,1.066c-0.259,0.266-0.569,0.363-0.853,0.066
			C1.124,9.839,1.212,9.543,1.461,9.293C2.115,8.636,2.77,7.98,3.426,7.326c0.308-0.307,0.628-0.32,0.94-0.012
			c0.659,0.651,1.314,1.307,1.967,1.965c0.261,0.263,0.364,0.571,0.065,0.854c-0.298,0.283-0.6,0.156-0.855-0.107
			C5.24,9.712,4.943,9.393,4.62,9.052C4.433,9.285,4.492,9.486,4.492,9.668c-0.004,2.488-0.003,4.976-0.003,7.464
			c0,0.26,0.012,0.524-0.076,0.773c-0.084,0.238-0.259,0.381-0.518,0.363c-0.272-0.019-0.456-0.173-0.496-0.451
			c-0.023-0.16-0.015-0.324-0.016-0.487c-0.001-2.585-0.001-5.171-0.001-7.756c0-0.175,0-0.349,0-0.524
			C3.334,9.026,3.284,9.003,3.235,8.98z"/>
		<path display="inline" fill="#6D1EBF" d="M45.55,9.074c-0.3,0.318-0.597,0.639-0.9,0.953c-0.254,0.263-0.557,0.389-0.855,0.105
			c-0.298-0.283-0.196-0.59,0.067-0.853c0.654-0.657,1.309-1.313,1.967-1.965c0.313-0.31,0.633-0.293,0.94,0.012
			c0.657,0.653,1.313,1.309,1.966,1.967c0.248,0.25,0.336,0.547,0.074,0.82c-0.284,0.296-0.592,0.197-0.854-0.067
			c-0.343-0.345-0.677-0.697-1.044-1.076c-0.144,0.212-0.096,0.391-0.097,0.554c-0.004,2.602-0.002,5.203-0.003,7.805
			c0,0.162,0.007,0.327-0.016,0.487c-0.04,0.279-0.224,0.432-0.496,0.452c-0.258,0.018-0.434-0.125-0.517-0.363
			c-0.087-0.249-0.076-0.513-0.076-0.773c0-2.488,0-4.976,0-7.464c0-0.174,0-0.349,0-0.523C45.655,9.121,45.603,9.098,45.55,9.074z"
			/>
		<path display="inline" fill="#6D1EBF" d="M35.658,21.492c-0.077,0.363-0.169,0.892-0.304,1.41
			c-0.082,0.315-0.312,0.521-0.658,0.423c-0.35-0.1-0.465-0.365-0.389-0.727c0.096-0.461,0.17-0.926,0.253-1.39
			c0.061-0.338,0.224-0.612,0.597-0.583C35.557,20.654,35.683,20.954,35.658,21.492z"/>
		<path display="inline" fill="#6D1EBF" d="M25.046,15.795c0.364,0.018,0.561,0.196,0.585,0.512
			c0.031,0.392,0.247,0.482,0.592,0.454c0.21-0.017,0.423-0.008,0.634,0.006c0.3,0.02,0.489,0.181,0.507,0.488
			c0.018,0.305-0.145,0.503-0.441,0.55c-0.271,0.043-0.549,0.051-0.825,0.058c-0.455,0.011-0.912-0.01-1.366,0.018
			c-0.499,0.03-0.778,0.337-0.791,0.815c-0.014,0.482,0.292,0.848,0.773,0.899c0.226,0.024,0.455,0.006,0.683,0.017
			c0.991,0.046,1.796,0.707,1.958,1.604c0.18,0.992-0.309,1.866-1.29,2.251c-0.263,0.103-0.395,0.244-0.422,0.521
			c-0.032,0.33-0.201,0.558-0.563,0.544c-0.334-0.013-0.495-0.225-0.502-0.544c-0.006-0.282-0.159-0.357-0.408-0.361
			c-0.292-0.005-0.587-0.01-0.875-0.052c-0.319-0.046-0.492-0.257-0.457-0.583c0.032-0.304,0.237-0.456,0.535-0.461
			c0.569-0.009,1.139-0.008,1.708-0.006c0.214,0.001,0.422-0.017,0.623-0.096c0.419-0.165,0.619-0.512,0.545-0.975
			c-0.068-0.426-0.347-0.654-0.756-0.711c-0.24-0.033-0.488-0.008-0.731-0.019c-0.969-0.044-1.758-0.722-1.919-1.645
			c-0.161-0.919,0.314-1.806,1.204-2.167c0.326-0.132,0.569-0.243,0.55-0.664C24.583,15.971,24.813,15.835,25.046,15.795z"/>
	</g>
	<g>
		<path display="inline" fill="#6D1EBF" d="M41.504,12.134c-1.105-0.371-2.045-0.707-2.998-0.998
			c-0.432-0.132-0.564-0.312-0.401-0.762c0.572-1.581,0.236-1.407,1.754-0.914c1.588,0.516,3.165,1.067,4.757,1.569
			c0.487,0.154,0.603,0.36,0.432,0.849c-0.633,1.818-1.24,3.645-1.832,5.477c-0.14,0.433-0.315,0.549-0.765,0.398
			c-1.347-0.454-1.352-0.436-0.912-1.759c0.19-0.573,0.374-1.147,0.613-1.881c-0.964,0.555-1.79,1.028-2.613,1.505
			C29.42,21.477,19.3,27.333,9.189,33.206c-0.495,0.288-0.732,0.239-0.992-0.265c-0.687-1.334-0.873-0.994,0.487-1.783
			c4.98-2.89,9.963-5.775,14.95-8.652c0.35-0.202,0.488-0.438,0.486-0.845c-0.016-2.653-0.014-5.307-0.002-7.96
			c0.002-0.395-0.077-0.589-0.53-0.646c-1.374-0.173-2.416-1.007-3.401-1.887c-2.804-2.504-5.101-5.39-6.58-8.88
			c-0.261-0.617-0.259-0.633,0.401-0.706c2.291-0.253,4.552-0.179,6.741,0.634c1.643,0.61,3.038,1.556,4.036,3.025
			c0.176,0.259,0.304,0.471,0.579,0.066c1.547-2.279,3.848-3.272,6.454-3.696c1.501-0.244,3.014-0.18,4.524-0.026
			c0.457,0.047,0.454,0.236,0.303,0.58c-1.078,2.471-2.488,4.729-4.326,6.705c-0.91,0.978-1.834,1.947-2.886,2.779
			c-0.886,0.701-1.815,1.324-2.985,1.432c-0.278,0.026-0.368,0.166-0.368,0.423c0.002,2.378-0.001,4.757,0.001,7.135
			c0,0.551,0.309,0.255,0.491,0.151c1.705-0.977,3.403-1.967,5.103-2.952c3.01-1.743,6.02-3.486,9.03-5.229
			C40.926,12.484,41.141,12.351,41.504,12.134z M33.733,3.497c-1.429,0.011-2.729,0.249-3.97,0.777
			c-2.253,0.959-3.507,2.644-3.624,5.109c-0.025,0.53-0.184,1.251,0.306,1.534c0.487,0.281,0.966-0.274,1.374-0.58
			c1.356-1.018,2.524-2.237,3.625-3.52C32.311,5.807,33.064,4.718,33.733,3.497z M16.543,3.495
			c-0.039,0.206,0.095,0.317,0.171,0.447c1.153,1.987,2.644,3.698,4.317,5.257c0.674,0.628,1.35,1.262,2.191,1.672
			c0.497,0.242,0.713,0.147,0.772-0.378c0.26-2.289-0.428-4.456-2.676-5.77C19.845,3.862,18.234,3.524,16.543,3.495z"/>
		<path display="inline" fill="#6D1EBF" d="M37.323,34.534c0-4.461-0.001-8.922,0-13.383c0-0.81,0.003-0.812,0.809-0.812
			c2.673-0.001,5.345,0.012,8.018-0.011c0.542-0.005,0.702,0.168,0.701,0.705c-0.014,9-0.014,18.001,0,27.001
			c0.001,0.536-0.159,0.71-0.701,0.705c-2.712-0.023-5.424-0.023-8.135,0c-0.542,0.005-0.704-0.168-0.702-0.705
			C37.331,43.535,37.323,39.034,37.323,34.534z M39.293,34.475c0,3.873,0.008,7.745-0.01,11.618
			c-0.002,0.508,0.132,0.69,0.662,0.678c1.434-0.033,2.87-0.023,4.305-0.004c0.434,0.006,0.632-0.088,0.632-0.585
			c-0.014-7.765-0.014-15.53,0-23.294c0.001-0.496-0.197-0.591-0.631-0.585c-1.415,0.019-2.831,0.033-4.246-0.006
			c-0.58-0.016-0.726,0.18-0.722,0.738C39.303,26.848,39.293,30.661,39.293,34.475z"/>
		<path display="inline" fill="#6D1EBF" d="M35.518,38.307c0,3.223-0.014,6.445,0.012,9.667c0.005,0.591-0.161,0.775-0.762,0.768
			c-2.692-0.03-5.384-0.025-8.076-0.003c-0.539,0.005-0.705-0.163-0.704-0.703c0.016-6.484,0.015-12.969,0-19.453
			c-0.001-0.535,0.155-0.711,0.7-0.707c2.711,0.023,5.423,0.023,8.135,0c0.539-0.005,0.707,0.163,0.704,0.703
			C35.508,31.822,35.518,35.064,35.518,38.307z M33.548,38.259c0-2.595-0.008-5.19,0.007-7.784c0.003-0.441-0.101-0.636-0.591-0.626
			c-1.474,0.028-2.949,0.023-4.423,0.002c-0.435-0.006-0.58,0.137-0.579,0.576c0.011,5.249,0.013,10.497-0.002,15.746
			c-0.001,0.484,0.175,0.601,0.622,0.595c1.435-0.021,2.87-0.028,4.305,0.003c0.517,0.011,0.676-0.147,0.672-0.668
			C33.536,43.488,33.548,40.873,33.548,38.259z"/>
		<path display="inline" fill="#6D1EBF" d="M24.195,41.199c0,2.279-0.014,4.558,0.011,6.837c0.006,0.54-0.164,0.708-0.703,0.704
			c-2.711-0.023-5.423-0.023-8.134,0c-0.542,0.005-0.704-0.168-0.702-0.705c0.018-4.597,0.018-9.195,0-13.793
			c-0.002-0.539,0.163-0.708,0.703-0.703c2.711,0.023,5.423,0.023,8.134,0c0.542-0.005,0.708,0.168,0.702,0.705
			C24.181,36.562,24.195,38.88,24.195,41.199z M22.225,41.184c0-1.691-0.009-3.381,0.006-5.072c0.004-0.41-0.091-0.608-0.554-0.601
			c-1.494,0.023-2.988,0.018-4.482,0.002c-0.401-0.004-0.557,0.121-0.555,0.539c0.012,3.381,0.013,6.762-0.001,10.143
			c-0.002,0.445,0.156,0.576,0.585,0.571c1.474-0.019,2.949-0.026,4.423,0.003c0.497,0.01,0.59-0.197,0.585-0.632
			C22.215,44.486,22.225,42.835,22.225,41.184z"/>
		<path display="inline" fill="#6D1EBF" d="M8.112,39.211c1.375,0,2.751,0.016,4.125-0.009c0.485-0.009,0.647,0.154,0.644,0.641
			c-0.018,2.75-0.018,5.5,0,8.251c0.003,0.485-0.153,0.647-0.641,0.643c-2.75-0.018-5.5-0.018-8.251,0
			c-0.485,0.003-0.647-0.153-0.643-0.641c0.018-2.75,0.018-5.5,0-8.251c-0.003-0.485,0.153-0.652,0.641-0.644
			C5.361,39.227,6.737,39.211,8.112,39.211z M5.325,43.97c0,0.767,0.01,1.533-0.004,2.3c-0.006,0.348,0.116,0.496,0.478,0.493
			c1.553-0.011,3.106-0.009,4.659-0.002c0.333,0.002,0.449-0.141,0.447-0.462c-0.008-1.553-0.008-3.106,0-4.659
			c0.002-0.321-0.115-0.464-0.447-0.462c-1.553,0.008-3.106,0.01-4.659-0.002c-0.362-0.003-0.485,0.145-0.478,0.493
			C5.334,42.437,5.325,43.203,5.325,43.97z"/>
	</g>
	<g>
		<path display="inline" fill="#6D1EBF" d="M48.809,13.058c-0.176,1.188-0.282,2.384-0.512,3.566
			c-0.884,4.542-2.685,8.682-5.41,12.415c-0.337,0.461-0.441,0.839-0.289,1.425c1.007,3.881,0.097,7.312-2.652,10.21
			c-1.837,1.937-3.763,3.79-5.655,5.674c-0.643,0.64-1.147,0.636-1.795-0.01c-2.219-2.213-4.436-4.427-6.643-6.651
			c-0.285-0.287-0.548-0.4-0.973-0.333c-1.598,0.252-3.207,0.44-4.809,0.669c-0.551,0.079-0.972-0.123-1.304-0.53
			c-0.262-0.321-0.443-0.328-0.753-0.015c-2.346,2.369-4.713,4.718-7.076,7.07c-0.163,0.162-0.335,0.326-0.53,0.443
			c-0.396,0.238-0.881,0.15-1.181-0.179c-0.314-0.346-0.35-0.798-0.072-1.189c0.115-0.162,0.261-0.304,0.403-0.445
			c2.371-2.366,4.739-4.735,7.122-7.089c0.278-0.274,0.27-0.422-0.004-0.69c-1.312-1.285-2.611-2.585-3.896-3.897
			c-0.259-0.265-0.402-0.254-0.656,0.004c-1.656,1.684-3.329,3.351-4.995,5.025c-0.317,0.319-0.656,0.573-1.145,0.409
			c-0.613-0.205-0.867-0.874-0.526-1.423c0.104-0.168,0.248-0.315,0.389-0.456c1.632-1.642,3.262-3.287,4.906-4.917
			c0.25-0.248,0.316-0.418,0.008-0.65c-0.554-0.419-0.659-0.959-0.546-1.642c0.26-1.581,0.437-3.176,0.664-4.763
			c0.045-0.314-0.121-0.487-0.309-0.675c-2.206-2.204-4.41-4.409-6.615-6.614c-0.186-0.186-0.383-0.365-0.485-0.613
			c-0.17-0.416-0.087-0.804,0.222-1.111c2.18-2.163,4.213-4.489,6.569-6.457c2.85-2.38,6.163-2.973,9.742-1.952
			c0.33,0.094,0.576,0.067,0.854-0.141c4.017-3.001,8.507-4.908,13.444-5.761c0.939-0.162,1.891-0.253,2.837-0.376
			c1.482,0,2.964,0,4.446,0c0.105,0.021,0.209,0.054,0.315,0.061c1.725,0.117,3.418,0.427,5.096,0.834
			c0.503,0.122,0.809,0.413,0.918,0.919c0.12,0.557,0.253,1.11,0.37,1.668c0.26,1.236,0.377,2.492,0.526,3.743
			C48.809,10.094,48.809,11.576,48.809,13.058z M46.874,10.692c0.019-2.098-0.223-4.161-0.67-6.203
			c-0.066-0.304-0.209-0.432-0.508-0.499c-3.334-0.753-6.699-0.863-10.074-0.413c-3.916,0.522-7.587,1.799-10.981,3.833
			c-5.922,3.549-10.114,8.544-12.531,15.022c-0.153,0.411-0.092,0.663,0.215,0.969c4.834,4.816,9.658,9.642,14.474,14.475
			c0.289,0.29,0.53,0.367,0.928,0.221c4.444-1.635,8.285-4.172,11.458-7.688C44.24,24.81,46.777,18.222,46.874,10.692z
			 M18.521,9.306c-2.762-0.42-5.214,0.184-7.289,2.04c-1.828,1.635-3.483,3.45-5.241,5.16c-0.224,0.218-0.199,0.359,0.01,0.564
			c0.837,0.82,1.661,1.654,2.49,2.483c0.534,0.534,1.073,1.064,1.601,1.605c0.211,0.215,0.355,0.222,0.456-0.085
			c0.024-0.073,0.057-0.143,0.086-0.215c1.712-4.274,4.231-7.997,7.604-11.137C18.346,9.621,18.494,9.544,18.521,9.306z
			 M41.015,33.292c0.007-0.48-0.015-0.956-0.103-1.429c-0.039-0.211-0.116-0.242-0.26-0.091c-0.213,0.223-0.415,0.457-0.631,0.676
			c-3.072,3.118-6.63,5.506-10.703,7.121c-0.574,0.227-0.574,0.235-0.131,0.678c1.297,1.298,2.601,2.59,3.888,3.898
			c0.247,0.25,0.4,0.283,0.666,0.013c1.514-1.539,3.05-3.057,4.573-4.587C40.041,37.835,41.012,35.77,41.015,33.292z M12.634,26.682
			c-0.146,1.046-0.3,2.154-0.457,3.263c-0.028,0.2,0.101,0.313,0.22,0.432c2.475,2.476,4.951,4.952,7.427,7.426
			c0.108,0.108,0.21,0.241,0.388,0.217c1.123-0.154,2.246-0.311,3.303-0.457C19.888,33.936,16.257,30.305,12.634,26.682z"/>
		<path display="inline" fill="#6D1EBF" d="M1.383,47.515c0.193-0.22,0.375-0.45,0.581-0.657c2.211-2.217,4.427-4.431,6.641-6.645
			c0.12-0.12,0.237-0.245,0.369-0.35c0.437-0.348,0.978-0.323,1.337,0.054c0.347,0.365,0.359,0.881,0.022,1.304
			c-0.096,0.12-0.209,0.227-0.318,0.336c-2.247,2.247-4.494,4.495-6.744,6.739c-0.185,0.184-0.394,0.344-0.592,0.516
			c-0.432,0-1.033,0.169-1.249-0.047C1.215,48.548,1.383,47.947,1.383,47.515z"/>
		<path display="inline" fill="#6D1EBF" d="M4.664,40.577c0,0.527-0.403,0.936-0.932,0.946c-0.546,0.01-0.981-0.413-0.979-0.952
			c0.002-0.509,0.429-0.942,0.941-0.952C4.235,39.607,4.664,40.031,4.664,40.577z"/>
		<path display="inline" fill="#6D1EBF" d="M23.675,29.471c-0.009-0.256,0.152-0.496,0.365-0.709c2.4-2.402,4.797-4.806,7.203-7.2
			c0.497-0.494,0.986-0.496,1.517-0.03c0.313,0.274,0.606,0.573,0.891,0.876c0.247,0.263,0.353,0.206,0.44-0.124
			c0.411-1.566,0.835-3.128,1.254-4.692c0.288-1.072,0.578-2.144,0.86-3.218c0.117-0.444,0.06-0.501-0.388-0.382
			c-2.622,0.699-5.242,1.406-7.866,2.099c-0.38,0.101-0.428,0.22-0.13,0.491c0.296,0.27,0.581,0.555,0.845,0.857
			c0.466,0.534,0.461,1.014-0.033,1.514c-1.368,1.382-2.742,2.757-4.125,4.124c-0.477,0.472-1.026,0.485-1.437,0.078
			c-0.413-0.409-0.408-0.957,0.064-1.44c1.046-1.07,2.104-2.13,3.176-3.174c0.268-0.261,0.311-0.426,0.014-0.693
			c-0.447-0.401-0.862-0.84-1.281-1.272c-0.732-0.756-0.525-1.582,0.478-1.853c3.915-1.057,7.832-2.107,11.751-3.149
			c1.005-0.267,1.616,0.343,1.348,1.349c-1.042,3.919-2.091,7.836-3.147,11.752c-0.271,1.005-1.096,1.213-1.852,0.48
			c-0.443-0.43-0.889-0.858-1.305-1.313c-0.242-0.264-0.388-0.228-0.626,0.012c-2.021,2.038-4.054,4.064-6.086,6.092
			c-0.152,0.152-0.309,0.306-0.489,0.421c-0.311,0.198-0.647,0.194-0.966,0.012C23.828,30.194,23.671,29.906,23.675,29.471z"/>
		<path display="inline" fill="#6D1EBF" d="M21.606,25.568c-0.005,0.545-0.43,0.959-0.972,0.947
			c-0.525-0.012-0.931-0.419-0.936-0.939c-0.006-0.545,0.409-0.966,0.953-0.968C21.201,24.606,21.611,25.018,21.606,25.568z"/>
	</g>
	<g>
		<path display="inline" fill="#6D1EBF" d="M18.855,49.158c-1.283-0.191-2.552-0.439-3.77-0.909
			c-0.672-0.26-1.323-0.563-1.954-0.908c-0.474-0.26-0.633-0.7-0.414-1.091c0.211-0.378,0.63-0.488,1.1-0.238
			c1.477,0.784,3.027,1.341,4.691,1.55c3.463,0.435,6.655-0.299,9.51-2.316c2.81-1.985,4.595-4.682,5.367-8.039
			c0.484-2.103,0.353-4.184-0.236-6.251c-1.295-4.544-3.246-8.823-5.271-13.071c-2.24-4.7-4.666-9.305-7.179-13.864
			c-0.103-0.187-0.214-0.369-0.367-0.632c-0.593,1.081-1.139,2.077-1.686,3.073c-1.467,2.672-2.855,5.386-4.236,8.103
			c-0.352,0.692-0.724,0.903-1.175,0.672c-0.464-0.237-0.519-0.656-0.173-1.341c2.068-4.104,4.222-8.163,6.469-12.173
			c0.181-0.322,0.371-0.624,0.802-0.624c0.426,0,0.622,0.286,0.807,0.614c3.071,5.467,5.987,11.013,8.664,16.684
			c1.509,3.196,2.929,6.431,4.056,9.783c0.741,2.205,1.48,4.426,1.339,6.809c-0.264,4.476-2.135,8.14-5.608,10.968
			c-2.135,1.738-4.6,2.744-7.324,3.126c-0.107,0.015-0.211,0.051-0.316,0.077C20.919,49.158,19.887,49.158,18.855,49.158z"/>
		<path display="inline" fill="#6D1EBF" d="M20.307,37.647c-2.955,0-5.91-0.001-8.865,0c-0.524,0-0.547,0.017-0.336,0.48
			c1.669,3.665,4.473,5.771,8.515,6.14c2.124,0.194,4.09-0.321,5.913-1.413c0.054-0.032,0.108-0.063,0.164-0.092
			c0.471-0.243,0.87-0.163,1.104,0.22c0.231,0.378,0.108,0.791-0.338,1.072c-1.203,0.757-2.497,1.306-3.897,1.552
			c-3.951,0.695-7.426-0.317-10.299-3.113c-2.107-2.049-3.229-4.593-3.401-7.556c-0.082-1.407,0.24-2.731,0.626-4.048
			c0.979-3.338,2.367-6.519,3.808-9.677c1.935-4.239,4.062-8.382,6.245-12.498c0.177-0.333,0.385-0.628,0.8-0.63
			c0.372-0.003,0.583,0.25,0.746,0.557c3.15,5.905,6.17,11.873,8.655,18.095c0.777,1.944,1.481,3.918,1.901,5.979
			c0.462,2.264,0.04,4.41-0.896,6.479c-0.355,0.785-0.808,1.517-1.345,2.194c-0.473,0.596-0.893,0.73-1.289,0.408
			c-0.39-0.318-0.367-0.726,0.083-1.315c0.554-0.724,1.027-1.493,1.363-2.343c0.186-0.471,0.174-0.49-0.345-0.491
			C26.248,37.646,23.278,37.647,20.307,37.647z M20.323,36.115c3.093,0,6.187-0.009,9.28,0.01c0.444,0.003,0.63-0.157,0.653-0.572
			c0.042-0.764,0.109-1.531-0.033-2.29c-0.297-1.586-0.818-3.107-1.365-4.621c-0.102-0.283-0.267-0.373-0.558-0.373
			c-5.312,0.006-10.624,0.007-15.936-0.001c-0.3,0-0.455,0.107-0.546,0.388c-0.293,0.906-0.632,1.798-0.898,2.711
			c-0.39,1.335-0.739,2.679-0.498,4.1c0.106,0.625,0.085,0.647,0.715,0.647C14.199,36.116,17.261,36.115,20.323,36.115z
			 M20.334,26.798c2.408,0,4.815,0,7.223,0c0.578,0,0.579-0.002,0.369-0.523c-0.947-2.349-2.027-4.64-3.084-6.94
			c-0.12-0.26-0.278-0.379-0.571-0.378c-2.627,0.007-5.253,0.007-7.88,0c-0.272-0.001-0.42,0.101-0.536,0.35
			c-1.057,2.283-2.123,4.563-3.072,6.894c-0.242,0.596-0.242,0.596,0.421,0.597C15.581,26.798,17.957,26.798,20.334,26.798z
			 M20.337,17.423c1.061,0,2.123-0.004,3.184,0.003c0.293,0.002,0.359-0.075,0.217-0.352c-1.072-2.081-2.133-4.167-3.199-6.251
			c-0.048-0.093-0.074-0.232-0.207-0.225c-0.126,0.006-0.154,0.143-0.202,0.236c-1.052,2.056-2.097,4.116-3.155,6.169
			c-0.177,0.344-0.087,0.43,0.271,0.426C18.276,17.415,19.307,17.423,20.337,17.423z"/>
		<path display="inline" fill="#6D1EBF" d="M44.848,25.169c0,7.004,0,14.008,0,21.012c0,0.203,0.008,0.408-0.011,0.609
			c-0.058,0.631-0.332,0.888-0.972,0.89c-1.657,0.006-3.314,0.005-4.971,0.001c-0.63-0.001-0.99-0.282-0.992-0.753
			c-0.003-0.453,0.374-0.767,0.992-0.774c1.266-0.014,2.533-0.005,3.799-0.007c0.619-0.001,0.621-0.003,0.621-0.626
			c0.001-0.907-0.011-1.814,0.006-2.72c0.006-0.341-0.102-0.48-0.456-0.466c-0.562,0.022-1.125,0.006-1.688,0.005
			c-0.735-0.002-1.092-0.238-1.102-0.728c-0.01-0.508,0.347-0.748,1.119-0.749c0.563-0.001,1.126-0.013,1.688,0.004
			c0.324,0.01,0.442-0.11,0.438-0.436c-0.014-1.032-0.016-2.064,0.001-3.095c0.006-0.354-0.133-0.466-0.47-0.457
			c-0.609,0.017-1.219,0.005-1.829,0.002c-0.273-0.001-0.533-0.056-0.728-0.264c-0.194-0.207-0.277-0.447-0.176-0.732
			c0.128-0.358,0.408-0.516,0.757-0.528c0.625-0.021,1.252-0.038,1.875-0.003c0.466,0.026,0.588-0.153,0.574-0.593
			c-0.028-0.937-0.028-1.876,0-2.814c0.013-0.438-0.102-0.621-0.571-0.592c-0.607,0.037-1.219,0.016-1.829,0.005
			c-0.526-0.009-0.853-0.304-0.85-0.739c0.003-0.435,0.328-0.72,0.86-0.728c0.641-0.01,1.282-0.018,1.923,0.002
			c0.345,0.011,0.469-0.109,0.464-0.458c-0.017-1.016-0.019-2.033,0.001-3.048c0.007-0.371-0.125-0.491-0.489-0.485
			c-1.172,0.016-2.345,0.006-3.517,0.006c-0.109,0-0.219,0.001-0.328,0c-0.695-0.008-1.087-0.288-1.083-0.773
			c0.004-0.484,0.393-0.761,1.092-0.763c1.266-0.004,2.533-0.016,3.799,0.007c0.42,0.008,0.539-0.139,0.529-0.543
			c-0.024-0.969-0.03-1.939,0.002-2.907c0.015-0.45-0.153-0.565-0.57-0.546c-0.608,0.029-1.219,0.014-1.829,0.004
			c-0.528-0.009-0.854-0.301-0.852-0.736c0.003-0.434,0.33-0.723,0.859-0.731c0.656-0.01,1.313-0.013,1.97,0
			c0.3,0.006,0.42-0.101,0.416-0.407c-0.011-1.047-0.012-2.095,0.001-3.142c0.004-0.324-0.113-0.446-0.437-0.439
			c-0.656,0.014-1.313,0.011-1.97-0.004c-0.348-0.008-0.639-0.145-0.782-0.496c-0.121-0.297-0.043-0.554,0.168-0.774
			c0.211-0.219,0.49-0.259,0.778-0.259c0.61,0,1.22-0.01,1.829,0.002c0.302,0.006,0.416-0.114,0.413-0.416
			c-0.01-1.047-0.013-2.095,0.002-3.142c0.005-0.335-0.131-0.435-0.446-0.428c-0.641,0.015-1.282,0.01-1.923,0.001
			c-0.558-0.008-0.891-0.303-0.876-0.755c0.015-0.432,0.341-0.708,0.875-0.716c0.625-0.009,1.251-0.019,1.876,0.003
			c0.358,0.012,0.504-0.095,0.495-0.475c-0.021-0.953-0.02-1.907,0-2.861c0.008-0.377-0.139-0.486-0.496-0.482
			c-1.219,0.014-2.439,0.007-3.658,0.003c-0.187,0-0.377-0.003-0.56-0.036c-0.452-0.083-0.737-0.418-0.701-0.797
			c0.038-0.403,0.338-0.685,0.809-0.692c1.078-0.016,2.157-0.007,3.236-0.008c0.641,0,1.282-0.006,1.923,0.002
			c0.636,0.008,0.907,0.264,0.964,0.899c0.017,0.186,0.01,0.375,0.01,0.562C44.848,11.098,44.848,18.133,44.848,25.169z"/>
		<path display="inline" fill="#6D1EBF" d="M5.459,34.49c0.024-1.704,0.395-3.223,0.848-4.718c1.289-4.26,3.121-8.302,5.019-12.315
			c0.249-0.527,0.633-0.694,1.045-0.498c0.435,0.206,0.553,0.623,0.3,1.161c-1.493,3.184-2.94,6.387-4.133,9.698
			C7.934,29.495,7.381,31.19,7.1,32.954c-0.306,1.922-0.026,3.799,0.583,5.63c0.678,2.038,1.796,3.807,3.336,5.307
			c0.089,0.087,0.177,0.177,0.253,0.276c0.28,0.367,0.263,0.775-0.037,1.056c-0.304,0.284-0.704,0.278-1.047-0.045
			c-0.764-0.72-1.468-1.495-2.057-2.366c-1.62-2.398-2.558-5.025-2.634-7.937C5.492,34.704,5.463,34.533,5.459,34.49z"/>
	</g>
	<g display="inline">
		<path fill="#6D1EBF" d="M8.658,35.888c0.001-1.546-0.008-3.092,0.002-4.638c0.029-4.104,3.317-7.852,7.38-8.425
			c0.765-0.108,0.744-0.102,0.538-0.851c-0.281-1.018-0.069-1.929,0.675-2.701c0.791-0.821,0.801-0.834,0.009-1.612
			c-0.286-0.281-0.298-0.46-0.006-0.747c0.813-0.801,0.801-0.813,0.003-1.611c-1.772-1.772-3.544-3.544-5.316-5.316
			c-0.514-0.514-0.513-0.515-0.017-1.012c1.288-1.289,2.592-2.563,3.856-3.876c0.343-0.356,0.659-0.417,1.118-0.316
			c3.207,0.705,6.421,1.374,9.626,2.091c0.525,0.117,0.867-0.006,1.263-0.34c3.409-2.879,7.324-4.665,11.73-5.4
			c2.573-0.429,5.16-0.239,7.743-0.287c0.569-0.011,1.139,0.002,1.709,0c0.226-0.001,0.38,0.063,0.376,0.327
			c-0.059,4.024,0.314,8.072-0.82,12.028c-0.998,3.478-2.615,6.617-4.991,9.35c-0.285,0.327-0.316,0.627-0.231,1.019
			c0.702,3.224,1.378,6.455,2.097,9.675c0.118,0.529,0.011,0.864-0.373,1.235c-1.323,1.277-2.619,2.581-3.902,3.899
			c-0.322,0.331-0.511,0.298-0.817-0.013c-1.944-1.968-3.912-3.913-5.856-5.88c-0.28-0.284-0.444-0.309-0.733-0.009
			c-0.794,0.824-0.822,0.824-1.618-0.001c-0.29-0.3-0.469-0.291-0.732,0.013c-0.662,0.766-1.437,1.318-2.525,1.24
			c-0.331-0.024-0.655-0.072-0.938-0.233c-0.347-0.197-0.438-0.075-0.482,0.27c-0.209,1.65-0.79,3.156-1.85,4.446
			c-1.75,2.13-3.994,3.3-6.774,3.32c-3.173,0.023-6.346-0.004-9.519,0.016c-0.491,0.003-0.643-0.136-0.635-0.632
			C8.675,39.241,8.657,37.565,8.658,35.888z M45.195,2.476c-1.74-0.008-3.479,0.018-5.204,0.283c-4.602,0.708-8.64,2.616-12,5.841
			c-2.852,2.736-5.613,5.566-8.424,8.346c-0.247,0.245-0.29,0.391-0.019,0.661c4.356,4.34,8.704,8.689,13.046,13.043
			c0.234,0.235,0.38,0.261,0.625,0.011c2.84-2.888,5.785-5.673,8.552-8.632c2.642-2.825,4.376-6.153,5.297-9.915
			c0.749-3.056,0.642-6.163,0.655-9.266c0.001-0.318-0.16-0.378-0.428-0.374C46.594,2.482,45.895,2.476,45.195,2.476z
			 M16.628,24.445c-3.658,0.46-6.288,3.446-6.332,7.112c-0.032,2.619,0,5.238-0.014,7.857c-0.002,0.388,0.127,0.502,0.507,0.5
			c2.603-0.013,5.206,0.019,7.808-0.015c2.287-0.03,4.205-0.907,5.654-2.709c0.825-1.025,1.328-2.193,1.504-3.622
			c-0.125,0.157-0.175,0.218-0.224,0.28c-1.155,1.451-2.648,2.217-4.514,2.221c-2.115,0.004-4.23-0.009-6.344,0.01
			c-0.433,0.004-0.557-0.139-0.553-0.562c0.018-2.196,0.011-4.392,0.01-6.588c0-0.527,0.111-1.032,0.273-1.529
			C14.792,26.2,15.529,25.255,16.628,24.445z M18.566,34.438c0.749,0,1.497,0.009,2.246-0.002c2.085-0.031,3.682-1.264,4.112-3.153
			c0.059-0.26,0.042-0.466-0.159-0.665c-1.73-1.722-3.456-3.448-5.179-5.177c-0.179-0.18-0.366-0.235-0.615-0.187
			c-1.609,0.312-2.947,1.707-3.127,3.342c-0.202,1.832-0.045,3.674-0.088,5.51c-0.007,0.304,0.18,0.335,0.416,0.334
			C16.971,34.435,17.768,34.438,18.566,34.438z M25.645,8.527c-0.006-0.209-0.166-0.178-0.282-0.203
			c-2.732-0.587-5.465-1.167-8.194-1.766c-0.315-0.069-0.513,0.011-0.726,0.231c-0.76,0.781-1.52,1.562-2.315,2.307
			c-0.331,0.31-0.274,0.481,0.019,0.769c1.428,1.4,2.835,2.822,4.249,4.237c0.853,0.853,0.843,0.844,1.691,0.004
			c0.253-0.25,0.28-0.402,0.01-0.663c-0.889-0.858-1.754-1.742-2.628-2.616c-0.82-0.82-0.81-0.81,0.004-1.632
			c0.265-0.267,0.432-0.291,0.707-0.009c1.02,1.049,2.068,2.071,3.095,3.114c0.21,0.213,0.351,0.267,0.59,0.024
			c1.197-1.218,2.41-2.419,3.617-3.627C25.541,8.641,25.595,8.581,25.645,8.527z M43.677,33.268
			c-0.011-0.048-0.022-0.095-0.032-0.143c-0.593-2.78-1.188-5.56-1.779-8.341c-0.097-0.456-0.268-0.171-0.401-0.038
			c-1.187,1.181-2.362,2.375-3.56,3.545c-0.276,0.27-0.226,0.421,0.022,0.662c0.875,0.85,1.73,1.72,2.592,2.582
			c0.842,0.843,0.829,0.83,0,1.668c-0.288,0.291-0.455,0.233-0.706-0.025c-0.839-0.862-1.697-1.706-2.548-2.557
			c-0.862-0.862-0.854-0.855-1.725,0.038c-0.221,0.226-0.233,0.363-0.003,0.591c1.641,1.624,3.272,3.259,4.9,4.897
			c0.198,0.199,0.334,0.247,0.554,0.021c0.829-0.85,1.674-1.683,2.513-2.523C43.607,33.542,43.719,33.44,43.677,33.268z
			 M29.016,32.021c0.522,0.047,0.794-0.351,1.141-0.64c0.355-0.296,0.357-0.498,0.015-0.837c-3.427-3.4-6.836-6.819-10.249-10.233
			c-0.715-0.715-0.715-0.716-1.407,0.043c-0.519,0.569-0.537,1.131,0.01,1.679c3.2,3.213,6.41,6.417,9.617,9.624
			C28.382,31.897,28.657,32.05,29.016,32.021z"/>
		<path fill="#6D1EBF" d="M5.505,34.824c-0.038,0.188-0.198,0.288-0.32,0.412c-0.777,0.789-0.766,0.775-1.564-0.003
			c-0.3-0.293-0.319-0.477-0.005-0.78c0.83-0.802,0.817-0.817,1.63,0.022C5.346,34.579,5.473,34.664,5.505,34.824z"/>
		<path fill="#6D1EBF" d="M3.292,37.029C3.263,37.22,3.1,37.318,2.979,37.442c-0.772,0.786-0.757,0.767-1.56,0.004
			c-0.34-0.323-0.293-0.512,0.017-0.811c0.802-0.771,0.79-0.785,1.563,0.007C3.111,36.757,3.25,36.853,3.292,37.029z"/>
		<path fill="#6D1EBF" d="M4.434,39.209c0.255,0.112,0.407,0.331,0.588,0.512c0.639,0.642,0.649,0.501,0.007,1.138
			c-0.69,0.685-0.519,0.711-1.247-0.011c-0.619-0.614-0.563-0.513-0.002-1.073C3.983,39.574,4.148,39.32,4.434,39.209z"/>
		<path fill="#6D1EBF" d="M2.171,41.413c0.263,0.072,0.386,0.255,0.531,0.402c0.792,0.805,0.77,0.586,0.023,1.35
			c-0.514,0.525-0.523,0.525-1.035,0.001c-0.747-0.764-0.748-0.536,0.008-1.311C1.853,41.696,2.023,41.55,2.171,41.413z"/>
		<path fill="#6D1EBF" d="M6.58,42.53c0.217,0.069,0.337,0.253,0.484,0.399c0.688,0.68,0.686,0.682,0.021,1.346
			c-0.521,0.52-0.525,0.524-1.042-0.001c-0.756-0.768-0.72-0.556,0.02-1.314C6.219,42.801,6.349,42.603,6.58,42.53z"/>
		<path fill="#6D1EBF" d="M9.864,46.85c-0.245-0.095-0.395-0.317-0.576-0.497c-0.665-0.662-0.619-0.532-0.009-1.141
			c0.708-0.707,0.519-0.696,1.243,0.01c0.116,0.113,0.229,0.23,0.342,0.346c0.083,0.086,0.165,0.198,0.069,0.299
			c-0.313,0.328-0.641,0.641-0.965,0.958C9.948,46.843,9.907,46.84,9.864,46.85z"/>
		<path fill="#6D1EBF" d="M15.344,44.679c0.252,0.077,0.38,0.277,0.535,0.435c0.746,0.761,0.751,0.537-0.007,1.31
			c-0.519,0.529-0.527,0.528-1.041,0.006c-0.761-0.772-0.719-0.562,0.013-1.315C14.999,44.956,15.139,44.772,15.344,44.679z"/>
		<path fill="#6D1EBF" d="M4.368,46.911c-0.198-0.035-0.295-0.197-0.419-0.319c-0.769-0.757-0.745-0.737-0.012-1.527
			c0.357-0.385,0.565-0.317,0.887,0.021c0.709,0.745,0.725,0.733-0.012,1.461C4.675,46.68,4.565,46.851,4.368,46.911z"/>
		<path fill="#6D1EBF" d="M7.701,49.09c-0.086-0.051-0.156-0.086-0.218-0.132c-1.037-0.752-1.041-0.934-0.132-1.832
			c0.258-0.255,0.424-0.262,0.673,0c0.988,1.043,0.956,0.673,0.011,1.665C7.935,48.895,7.82,48.983,7.701,49.09z"/>
		<path fill="#6D1EBF" d="M13.152,49.064c-0.196-0.036-0.294-0.198-0.418-0.32c-0.769-0.757-0.745-0.737-0.012-1.527
			c0.356-0.384,0.564-0.319,0.886,0.021c0.708,0.746,0.725,0.733-0.011,1.461C13.46,48.834,13.349,49.003,13.152,49.064z"/>
		<path fill="#6D1EBF" d="M6.573,31.591c0.226,0.072,0.345,0.256,0.493,0.402c0.688,0.679,0.686,0.681,0.017,1.349
			c-0.466,0.465-0.466,0.465-0.935-0.004c-0.703-0.703-0.704-0.704,0.018-1.418C6.291,31.796,6.399,31.648,6.573,31.591z"/>
		<path fill="#6D1EBF" d="M7.666,38.084c-0.046,0.256-0.225,0.362-0.358,0.497c-0.687,0.698-0.689,0.696-1.381,0.004
			c-0.479-0.479-0.484-0.484,0.012-0.969c0.745-0.729,0.533-0.732,1.279-0.003C7.379,37.77,7.528,37.939,7.666,38.084z"/>
		<path fill="#6D1EBF" d="M13.131,43.61c-0.092,0.247-0.302,0.387-0.472,0.556c-0.655,0.652-0.504,0.647-1.138,0.012
			c-0.685-0.687-0.691-0.513,0-1.209c0.585-0.589,0.473-0.578,1.071,0.024C12.785,43.184,13.022,43.342,13.131,43.61z"/>
		<path fill="#6D1EBF" d="M17.586,44.657c-0.22-0.039-0.317-0.203-0.44-0.325c-0.773-0.763-0.76-0.754-0.007-1.526
			c0.275-0.282,0.45-0.311,0.743-0.013c0.877,0.893,0.886,0.944-0.115,1.735C17.705,44.577,17.638,44.62,17.586,44.657z"/>
		<path fill="#6D1EBF" d="M3.249,48.005c-0.04,0.214-0.219,0.32-0.352,0.455c-0.689,0.7-0.691,0.698-1.384,0.004
			c-0.478-0.479-0.482-0.484,0.014-0.97c0.745-0.731,0.536-0.731,1.279,0C2.966,47.651,3.159,47.784,3.249,48.005z"/>
		<path fill="#6D1EBF" d="M26.627,14.929c0.002-4.796,3.825-8.614,8.627-8.614c4.824,0,8.631,3.824,8.626,8.663
			c-0.005,4.787-3.838,8.593-8.651,8.59C30.439,23.565,26.625,19.735,26.627,14.929z M28.263,14.966
			c0.121,4.03,3.175,6.973,7.028,6.941c3.992-0.034,6.934-3.1,6.93-6.967c-0.005-3.966-3.058-6.977-6.98-6.967
			C31.274,7.984,28.345,11.044,28.263,14.966z"/>
		<path fill="#6D1EBF" d="M34.845,16.012c0.014-0.22-0.117-0.401-0.263-0.583c-0.878-1.094-0.827-2.338,0.141-3.344
			c0.429-0.445,0.88-0.869,1.307-1.316c0.22-0.231,0.393-0.275,0.647-0.029c0.262,0.253,0.456,0.713,0.833,0.681
			c0.329-0.028,0.534-0.443,0.784-0.695c0.214-0.216,0.371-0.189,0.568,0.016c1.068,1.111,1.007,0.709,0.021,1.733
			c-0.219,0.228-0.33,0.409-0.23,0.759c0.207,0.722,0.069,1.415-0.377,2.038c-0.162,0.227-0.314,0.252-0.506,0.04
			c-0.153-0.168-0.313-0.332-0.484-0.482c-0.26-0.228-0.423-0.441-0.244-0.83c0.144-0.314-0.32-1.039-0.632-1.099
			c-0.195-0.037-0.703,0.524-0.74,0.82c-0.033,0.257,0.05,0.471,0.209,0.677c0.968,1.25,0.897,2.406-0.209,3.521
			c-0.401,0.405-0.812,0.799-1.206,1.21c-0.205,0.214-0.372,0.261-0.61,0.031c-0.265-0.255-0.467-0.709-0.829-0.698
			c-0.354,0.01-0.561,0.453-0.826,0.711c-0.363,0.353-0.556,0.003-0.688-0.199c-0.195-0.298-0.872-0.379-0.488-0.964
			c0.044-0.067,0.107-0.124,0.17-0.174c0.545-0.424,0.845-0.885,0.608-1.65c-0.166-0.534,0.093-1.082,0.417-1.556
			c0.173-0.252,0.334-0.272,0.539-0.042c0.151,0.17,0.315,0.329,0.483,0.483c0.239,0.218,0.416,0.41,0.232,0.789
			c-0.155,0.32,0.271,1.02,0.604,1.114C34.325,17.046,34.848,16.408,34.845,16.012z"/>
		<path fill="#6D1EBF" d="M33,11.673c-0.037,0.052-0.085,0.136-0.15,0.203c-0.214,0.221-0.44,0.431-0.649,0.656
			c-0.183,0.196-0.328,0.183-0.53,0.005c-0.963-0.847-0.967-1.008,0.019-1.831c0.072-0.06,0.157-0.127,0.243-0.141
			C32.088,10.542,33.007,11.48,33,11.673z"/>
		<path fill="#6D1EBF" d="M39.646,18.24c-0.065,0.238-0.249,0.359-0.395,0.503c-0.795,0.782-0.577,0.773-1.346,0.02
			c-0.509-0.498-0.509-0.508-0.002-1.005c0.772-0.756,0.555-0.76,1.348,0.016C39.398,17.918,39.568,18.048,39.646,18.24z"/>
	</g>
</g>
<g display="none">
	<path display="inline" fill="#6D1EBF" d="M0.706,31.577c1.409-2.227,2.83-4.446,4.219-6.686c0.339-0.547,0.752-0.783,1.397-0.782
		c8.066,0.013,16.133,0.008,24.199,0.009c0.127,0,0.255-0.004,0.381,0.007c0.551,0.048,0.937,0.419,0.978,0.932
		c0.04,0.499-0.301,0.927-0.847,1.043c-0.471,0.101-0.95,0.043-1.425,0.048c-0.826,0.009-1.651,0.007-2.477,0.001
		c-0.288-0.002-0.336,0.085-0.182,0.329c0.893,1.408,1.785,2.816,2.664,4.232c0.167,0.269,0.399,0.269,0.657,0.269
		c2.89-0.002,5.78-0.001,8.67-0.001c2.271,0,4.541,0.001,6.812-0.003c0.153,0,0.356,0.076,0.448-0.064
		c0.1-0.154-0.079-0.287-0.159-0.414c-0.826-1.318-1.666-2.628-2.482-3.953c-0.182-0.295-0.394-0.404-0.734-0.399
		c-1.143,0.016-2.287,0.015-3.43,0.001c-0.693-0.008-1.13-0.373-1.176-0.936c-0.047-0.58,0.341-1.067,0.956-1.077
		c1.571-0.026,3.144-0.015,4.716-0.003c0.354,0.003,0.633,0.193,0.824,0.495c1.415,2.242,2.84,4.478,4.238,6.731
		c0.493,0.794,0.044,1.607-0.898,1.644c-0.872,0.034-1.747,0.031-2.619,0.003c-0.457-0.015-0.599,0.134-0.596,0.595
		c0.016,3.636,0.01,7.272,0.009,10.909c0,1.023-0.348,1.375-1.374,1.375c-12.37,0.001-24.739,0.001-37.109,0
		c-1.053,0-1.398-0.349-1.398-1.401c-0.001-3.605,0-7.209-0.001-10.814c0-0.653-0.002-0.654-0.662-0.655
		c-0.778-0.001-1.556-0.011-2.334,0.003c-0.556,0.01-0.994-0.169-1.266-0.675C0.706,32.085,0.706,31.831,0.706,31.577z
		 M26.001,28.745c-0.129,0.09-0.102,0.176-0.102,0.25c-0.002,4.794,0.002,9.589-0.008,14.383c-0.001,0.398,0.166,0.473,0.515,0.472
		c5.287-0.007,10.573-0.008,15.86,0.002c0.403,0.001,0.563-0.107,0.561-0.535c-0.014-3.254-0.013-6.509-0.001-9.763
		c0.002-0.417-0.145-0.553-0.555-0.548c-1.444,0.017-2.889,0.007-4.334,0.007c-2.778,0-5.556-0.006-8.335,0.004
		c-0.628,0.002-1.099-0.201-1.404-0.782c-0.221-0.42-0.502-0.808-0.757-1.211C26.961,30.264,26.482,29.506,26.001,28.745z
		 M23.922,28.783c-0.037-0.007-0.074-0.013-0.111-0.02c-0.694,1.099-1.421,2.179-2.068,3.305c-0.397,0.691-0.914,0.959-1.701,0.954
		c-4.112-0.023-8.224-0.011-12.337-0.011c-0.7,0-0.701,0.002-0.702,0.718c0,3.144-0.001,6.287,0,9.431
		c0,0.683,0.002,0.684,0.68,0.684c5.192,0,10.384,0,15.576,0c0.661,0,0.662-0.001,0.662-0.644c0-4.652,0-9.304,0-13.956
		C23.922,29.091,23.922,28.937,23.922,28.783z M11.766,30.978c2.586,0,5.172-0.006,7.759,0.007c0.357,0.002,0.584-0.1,0.775-0.412
		c0.823-1.338,1.662-2.665,2.511-3.987c0.217-0.337,0.194-0.442-0.237-0.441c-5.188,0.009-10.377,0.008-15.565,0.001
		c-0.336,0-0.56,0.1-0.742,0.394c-0.825,1.336-1.669,2.661-2.502,3.992c-0.072,0.115-0.232,0.229-0.153,0.372
		c0.079,0.142,0.261,0.069,0.396,0.07C6.593,30.979,9.179,30.978,11.766,30.978z"/>
	<path display="inline" fill="#6D1EBF" d="M49.489,15.379c-0.281,0.527-0.7,0.719-1.303,0.623c-1.331-0.211-2.668-0.385-4.002-0.574
		c-0.567-0.081-1.081,0.02-1.602,0.294c-1.94,1.021-3.912,1.976-6.066,2.475c-0.478,0.111-0.968,0.166-1.463,0.165
		c-1.318-0.003-2.636,0.007-3.954-0.005c-0.292-0.003-0.452,0.102-0.6,0.354c-1.379,2.337-3.443,3.486-6.148,3.456
		c-3.225-0.035-6.1-2.775-6.448-5.974c-0.4-3.665,2.243-7.128,6.149-7.497c0.253-0.024,0.451-0.126,0.651-0.258
		c1.455-0.966,2.919-1.919,4.365-2.898c1.688-1.143,3.505-1.474,5.486-0.978c2.401,0.601,4.808,1.176,7.21,1.77
		c0.481,0.119,0.963,0.182,1.459,0.18c1.667-0.006,3.334,0.003,5.002-0.005c0.552-0.002,0.997,0.164,1.263,0.679
		c0,0.254,0,0.508,0,0.762c-0.3,0.455-0.727,0.608-1.264,0.603c-1.699-0.017-3.397-0.01-5.096-0.004
		C42.666,8.549,42.21,8.5,41.762,8.391c-2.574-0.624-5.148-1.25-7.721-1.881c-0.656-0.161-1.31-0.208-1.98-0.097
		c-1.581,0.261-2.628,1.458-4.002,2.182c0.104,0.055,0.129,0.08,0.154,0.08c1.191,0.003,2.381,0.009,3.572,0.003
		C32.203,8.676,32.607,8.733,33,8.873c1.269,0.453,2.156,1.769,2.009,2.98c-0.176,1.445-1.161,2.448-2.591,2.616
		c-1.012,0.119-2.03,0.028-3.045,0.052c-0.307,0.007-0.609,0.019-0.831,0.272c-0.248,0.283-0.35,0.601-0.2,0.967
		c0.165,0.403,0.481,0.568,0.903,0.568c1.905-0.001,3.81-0.008,5.715,0.002c0.839,0.004,1.635-0.172,2.416-0.461
		c1.52-0.564,2.998-1.221,4.421-1.999c0.715-0.391,1.474-0.596,2.289-0.485c1.445,0.198,2.886,0.428,4.332,0.617
		c0.459,0.06,0.813,0.24,1.073,0.615C49.489,14.871,49.489,15.125,49.489,15.379z M24.639,10.703
		c-0.285,0.02-0.574,0.014-0.853,0.063c-2.045,0.353-3.616,2.037-3.885,4.15c-0.249,1.949,0.897,3.963,2.734,4.806
		c1.89,0.867,4.105,0.412,5.489-1.116c0.207-0.229,0.258-0.331-0.089-0.49c-1.141-0.525-1.781-1.454-1.778-2.701
		c0.003-1.226,0.635-2.147,1.757-2.666c0.368-0.17,0.324-0.297,0.1-0.526C27.159,11.249,26.024,10.696,24.639,10.703z M29.522,10.74
		c0.258,0.338,0.526,0.561,0.627,0.843c0.325,0.906,1.004,1.017,1.813,0.908c0.031-0.004,0.063,0,0.095-0.002
		c0.537-0.026,0.883-0.319,0.918-0.776c0.036-0.462-0.299-0.933-0.799-0.96C31.33,10.706,30.477,10.74,29.522,10.74z"/>
	<path display="inline" fill="#6D1EBF" d="M35.076,26.094c-0.557,0.003-0.961-0.392-0.968-0.947
		c-0.007-0.57,0.419-1.021,0.963-1.018c0.553,0.003,1.01,0.449,1.01,0.988C36.081,25.673,35.651,26.091,35.076,26.094z"/>
	<path display="inline" fill="#6D1EBF" d="M18.282,41.709c-0.698,0-1.397,0.008-2.095-0.003c-0.634-0.01-1.045-0.409-1.046-0.989
		c-0.001-0.577,0.411-0.973,1.053-0.976c1.397-0.008,2.793-0.008,4.19,0c0.64,0.004,1.05,0.404,1.046,0.983
		c-0.005,0.58-0.415,0.973-1.053,0.982C19.678,41.717,18.98,41.709,18.282,41.709z"/>
</g>
<g>
	<path fill="#6D1EBF" d="M25.901,0.776c1.241,0.308,2.215,1.023,3.072,1.949c0.708,0.764,1.473,1.476,2.204,2.22
		c0.194,0.197,0.38,0.268,0.671,0.213c2.146-0.407,4.053,0.469,5.175,2.387c1.308,2.236,2.602,4.48,3.884,6.731
		c0.232,0.407,0.511,0.657,0.97,0.814c2.211,0.756,3.673,2.833,3.682,5.171c0.007,1.912-0.001,3.823,0.003,5.735
		c0.003,1.051-0.115,0.905,0.9,0.915c1.396,0.014,2.491,0.866,2.821,2.219c0.052,0.212,0.066,0.437,0.066,0.656
		c0.006,1.517,0.009,3.033,0.001,4.55c-0.008,1.638-1.243,2.863-2.886,2.881c-1.014,0.012-0.901-0.14-0.903,0.913
		c-0.005,1.928,0.005,3.855-0.004,5.783c-0.014,2.974-2.466,5.429-5.443,5.437c-4.155,0.011-8.31,0.003-12.466,0.003
		c-0.095,0-0.19,0.002-0.284-0.005c-0.56-0.043-0.934-0.449-0.924-0.999c0.009-0.527,0.38-0.92,0.921-0.952
		c0.315-0.018,0.632-0.007,0.948-0.007c3.808,0,7.615,0.002,11.423-0.002c1.345-0.001,2.467-0.463,3.25-1.612
		c0.435-0.638,0.603-1.357,0.61-2.109c0.016-1.991-0.002-3.981,0.014-5.972c0.003-0.38-0.124-0.488-0.493-0.485
		c-2.149,0.014-4.297,0.012-6.446,0.005c-2.683-0.008-4.978-2.033-5.191-4.57c-0.238-2.828,1.55-5.189,4.313-5.683
		c0.293-0.052,0.598-0.048,0.897-0.049c2.133-0.004,4.266-0.01,6.399,0.005c0.381,0.003,0.526-0.099,0.523-0.504
		c-0.018-1.959,0.003-3.918-0.011-5.877c-0.016-2.266-1.525-3.793-3.783-3.794c-11.107-0.008-22.214-0.008-33.321,0
		c-2.257,0.002-3.778,1.532-3.781,3.796c-0.009,7.678-0.009,15.357,0,23.035c0.002,2.283,1.529,3.806,3.816,3.813
		c3.981,0.012,7.963,0.003,11.944,0.004c0.174,0,0.349-0.008,0.521,0.009c0.509,0.049,0.864,0.442,0.872,0.951
		c0.009,0.531-0.351,0.943-0.879,0.994c-0.172,0.017-0.347,0.009-0.521,0.009c-3.981,0-7.964-0.052-11.944,0.019
		c-2.489,0.045-5.01-1.56-5.657-4.333c-0.021-0.092-0.057-0.18-0.085-0.27c0-8.47,0-16.94,0-25.409
		c0.035-0.121,0.07-0.242,0.105-0.363c0.674-2.334,2.198-3.757,4.593-4.17c0.932-0.161,1.892-0.053,2.839-0.042
		c0.429,0.005,0.736-0.121,1.04-0.427c3.856-3.874,7.732-7.727,11.583-11.607c0.909-0.915,1.883-1.679,3.164-1.975
		C24.7,0.776,25.3,0.776,25.901,0.776z M18.745,14.751c0.201,0.014,0.273,0.023,0.346,0.023c6.441,0.001,12.882-0.001,19.323,0.005
		c0.372,0,0.444-0.076,0.246-0.415c-1.13-1.935-2.234-3.886-3.371-5.818c-0.897-1.524-2.495-1.913-4.032-1.024
		c-3.225,1.864-6.452,3.724-9.678,5.587C20.67,13.634,19.761,14.162,18.745,14.751z M41.498,28.873
		c-1.485,0-2.969,0.004-4.454-0.003c-0.366-0.002-0.726,0.035-1.083,0.101c-1.574,0.288-2.726,1.898-2.481,3.461
		c0.273,1.736,1.505,2.807,3.314,2.817c3.127,0.017,6.254,0.008,9.381,0.003c0.853-0.001,1.207-0.36,1.211-1.217
		c0.006-1.311,0.006-2.622,0-3.932c-0.004-0.882-0.353-1.226-1.246-1.228C44.594,28.87,43.046,28.873,41.498,28.873z M11.855,14.716
		c1.674,0.188,3.223,0.157,4.562-0.926c0.303-0.245,0.678-0.402,1.02-0.599c3.926-2.266,7.849-4.535,11.78-6.792
		c0.322-0.185,0.311-0.307,0.063-0.547c-0.716-0.691-1.409-1.405-2.116-2.106c-1.397-1.384-2.979-1.382-4.368,0.007
		c-3.519,3.518-7.037,7.037-10.555,10.556C12.12,14.43,12.006,14.557,11.855,14.716z"/>
	<path fill="#6D1EBF" d="M23.135,47.393c0.567-0.007,0.992,0.409,0.993,0.973c0.002,0.564-0.421,0.985-0.985,0.982
		c-0.545-0.004-0.957-0.407-0.969-0.95C22.161,47.83,22.572,47.401,23.135,47.393z"/>
	<path fill="#6D1EBF" d="M36.433,33.04c-0.548-0.007-0.994-0.47-0.972-1.012c0.021-0.531,0.453-0.941,0.992-0.943
		c0.554-0.002,1.006,0.442,1,0.985C37.448,32.605,36.983,33.047,36.433,33.04z"/>
</g>
</svg>
