<svg id="bf510828-fd02-4053-bd70-8a7916770213" data-name="Layer 1" xmlns="http://www.w3.org/2000/svg" viewBox="0 0 100 100"><defs><style>.bbee30e5-192d-4c56-af0c-319fc4d44f83,.f9018407-12bb-4b32-bbd0-e41e43efb4e9{fill:#4e1fa3;}.f9018407-12bb-4b32-bbd0-e41e43efb4e9{opacity:0.4;isolation:isolate;}</style></defs><g id="b41eddf6-2537-4af6-829d-19dd7df00700" data-name="wallet check"><path id="f1891658-6000-453a-ab20-15698dd89a9a" data-name="Rectangle 832" class="f9018407-12bb-4b32-bbd0-e41e43efb4e9" d="M92.49512,22.68918H21.853A17.66052,17.66052,0,0,0,4.19252,40.3497v35.321A17.66051,17.66051,0,0,0,21.853,93.33126H74.8346A17.66052,17.66052,0,0,0,92.49512,75.67074Z"/><path id="a99af30a-6190-4bb9-a1ee-37fc43e4f400" data-name="Rectangle 833" class="bbee30e5-192d-4c56-af0c-319fc4d44f83" d="M92.49512,22.68918A17.66053,17.66053,0,0,0,74.8346,5.02866H48.34382A17.66052,17.66052,0,0,0,30.6833,22.68918Z"/><path id="b8a79ff3-3daa-444d-a684-c54a475fd174" data-name="Rectangle 834" class="bbee30e5-192d-4c56-af0c-319fc4d44f83" d="M4.19252,49.18V66.84048H21.853a8.83026,8.83026,0,0,0,0-17.66052Z"/><path id="a2598014-e5ff-4698-8c3c-acecd796d6f5" data-name="Vector 2132 Stroke " class="bbee30e5-192d-4c56-af0c-319fc4d44f83" d="M94.67619,73.18061a3.31135,3.31135,0,0,1,.31348,4.6712L82.31824,92.33344a7.72648,7.72648,0,0,1-10.64046.94484l-7.73972-6.19a3.31135,3.31135,0,1,1,4.04008-5.24765q.04917.03784.09689.07753l7.73973,6.18118a1.10377,1.10377,0,0,0,1.5188-.13687L90.005,73.48967A3.31134,3.31134,0,0,1,94.67619,73.18061Z"/></g></svg>