<?xml version="1.0" encoding="iso-8859-1"?>
<!-- Generator: Adobe Illustrator 19.0.0, SVG Export Plug-In . SVG Version: 6.00 Build 0)  -->
<svg version="1.1" id="Layer_1" xmlns="http://www.w3.org/2000/svg" xmlns:xlink="http://www.w3.org/1999/xlink" x="0px" y="0px"
	 viewBox="0 0 512 512" style="enable-background:new 0 0 512 512;" xml:space="preserve">
<path style="fill:#8B9BC1;" d="M450.207,494.345H26.483C11.476,494.345,0,482.869,0,467.862V150.069
	c0-15.007,11.476-26.483,26.483-26.483h423.724c15.007,0,26.483,11.476,26.483,26.483v317.793
	C476.69,482.869,465.214,494.345,450.207,494.345"/>
<g>
	<path style="fill:#556080;" d="M123.586,185.379c0-15.007-11.476-26.483-26.483-26.483s-26.483,11.476-26.483,26.483
		c0,15.007,11.476,26.483,26.483,26.483S123.586,200.386,123.586,185.379"/>
	<path style="fill:#556080;" d="M406.069,185.379c0-15.007-11.476-26.483-26.483-26.483s-26.483,11.476-26.483,26.483
		c0,15.007,11.476,26.483,26.483,26.483S406.069,200.386,406.069,185.379"/>
</g>
<g>
	<path style="fill:#E6EEF3;" d="M97.103,185.379c-5.297,0-8.828-3.531-8.828-8.828V70.621c0-5.297,3.531-8.828,8.828-8.828
		s8.828,3.531,8.828,8.828v105.931C105.931,181.848,102.4,185.379,97.103,185.379"/>
	<path style="fill:#E6EEF3;" d="M379.586,185.379c-5.297,0-8.828-3.531-8.828-8.828V70.621c0-5.297,3.531-8.828,8.828-8.828
		s8.828,3.531,8.828,8.828v105.931C388.414,181.848,384.883,185.379,379.586,185.379"/>
</g>
<path style="fill:#556080;" d="M512,52.966c0-19.421-15.89-35.31-35.31-35.31c-19.421,0-35.31,15.89-35.31,35.31
	s15.89,35.31,35.31,35.31C496.11,88.276,512,72.386,512,52.966"/>
<path style="fill:#8B9BC1;" d="M441.379,52.966c0-6.179,1.766-12.359,5.297-17.655H0v35.31h446.676
	C443.145,65.324,441.379,59.145,441.379,52.966"/>
<g>
	<path style="fill:#556080;" d="M132.414,317.793c0-24.717-19.421-44.138-44.138-44.138s-44.138,19.421-44.138,44.138
		c0,24.717,19.421,44.138,44.138,44.138S132.414,342.51,132.414,317.793"/>
	<path style="fill:#556080;" d="M294.841,356.634l-62.676,62.676l-64.441-64.441c-3.531-3.531-5.297-7.945-6.179-12.359
		l-2.648-38.841c-0.883-12.359,8.828-22.069,21.186-21.186l37.959,3.531c4.414,0,9.71,2.648,12.359,6.179L294.841,356.634z"/>
</g>
<g>
	<path style="fill:#6D7EA4;" d="M114.759,353.103c-7.062,5.297-16.772,8.828-26.483,8.828s-19.421-3.531-26.483-8.828v91.807
		l26.483,22.952l26.483-22.952l-17.655-12.359l17.655-17.655l-17.655-17.655l17.655-17.655V353.103z"/>
	<path style="fill:#6D7EA4;" d="M176.552,291.31c-5.297,0-8.828-3.531-8.828-8.828c0-19.421-15.89-35.31-35.31-35.31
		c-16.772,0-30.897,11.476-34.428,28.248c-0.883,4.414-5.297,7.945-10.593,7.062c-4.414-0.883-7.945-5.297-7.062-10.593
		c5.297-24.717,27.366-42.372,52.083-42.372c29.131,0,52.966,23.834,52.966,52.966C185.379,287.779,181.848,291.31,176.552,291.31"
		/>
	<path style="fill:#6D7EA4;" d="M132.414,335.448c-16.772,0-31.779-7.945-42.372-21.186c-2.648-3.531-1.766-9.71,1.766-12.359
		c3.531-2.648,9.71-1.766,12.359,1.766c7.062,8.828,16.772,14.124,28.248,14.124c7.945,0,15.007-2.648,21.186-7.062
		c3.531-2.648,9.71-1.766,12.359,1.766c2.648,3.531,1.766,9.71-1.766,12.359C155.366,331.917,143.89,335.448,132.414,335.448"/>
</g>
<g>
	<path style="fill:#556080;" d="M414.897,361.931h-79.448c-5.297,0-8.828-3.531-8.828-8.828s3.531-8.828,8.828-8.828h79.448
		c5.297,0,8.828,3.531,8.828,8.828S420.193,361.931,414.897,361.931"/>
	<path style="fill:#556080;" d="M353.103,326.621h-17.655c-5.297,0-8.828-3.531-8.828-8.828s3.531-8.828,8.828-8.828h17.655
		c5.297,0,8.828,3.531,8.828,8.828S358.4,326.621,353.103,326.621"/>
	<path style="fill:#556080;" d="M441.379,326.621h-52.966c-5.297,0-8.828-3.531-8.828-8.828s3.531-8.828,8.828-8.828h52.966
		c5.297,0,8.828,3.531,8.828,8.828S446.676,326.621,441.379,326.621"/>
	<path style="fill:#556080;" d="M441.379,397.241h-52.966c-5.297,0-8.828-3.531-8.828-8.828s3.531-8.828,8.828-8.828h52.966
		c5.297,0,8.828,3.531,8.828,8.828S446.676,397.241,441.379,397.241"/>
	<path style="fill:#556080;" d="M353.103,397.241h-17.655c-5.297,0-8.828-3.531-8.828-8.828s3.531-8.828,8.828-8.828h17.655
		c5.297,0,8.828,3.531,8.828,8.828S358.4,397.241,353.103,397.241"/>
	<path style="fill:#556080;" d="M441.379,432.552h-8.828c-5.297,0-8.828-3.531-8.828-8.828c0-5.297,3.531-8.828,8.828-8.828h8.828
		c5.297,0,8.828,3.531,8.828,8.828C450.207,429.021,446.676,432.552,441.379,432.552"/>
	<path style="fill:#556080;" d="M397.241,432.552h-61.793c-5.297,0-8.828-3.531-8.828-8.828c0-5.297,3.531-8.828,8.828-8.828h61.793
		c5.297,0,8.828,3.531,8.828,8.828C406.069,429.021,402.538,432.552,397.241,432.552"/>
</g>
<g>
	<path style="fill:#6D7EA4;" d="M203.034,353.103c-2.648,0-4.414-0.883-6.179-2.648c-3.531-3.531-3.531-8.828,0-12.359
		l17.655-17.655c3.531-3.531,8.828-3.531,12.359,0c3.531,3.531,3.531,8.828,0,12.359l-17.655,17.655
		C207.448,352.221,205.683,353.103,203.034,353.103"/>
	<path style="fill:#6D7EA4;" d="M229.517,379.586c-2.648,0-4.414-0.883-6.179-2.648c-3.531-3.531-3.531-8.828,0-12.359
		l17.655-17.655c3.531-3.531,8.828-3.531,12.359,0s3.531,8.828,0,12.359l-17.655,17.655
		C233.931,378.703,232.166,379.586,229.517,379.586"/>
</g>
<g>
</g>
<g>
</g>
<g>
</g>
<g>
</g>
<g>
</g>
<g>
</g>
<g>
</g>
<g>
</g>
<g>
</g>
<g>
</g>
<g>
</g>
<g>
</g>
<g>
</g>
<g>
</g>
<g>
</g>
</svg>
