<?xml version="1.0" encoding="iso-8859-1"?>
<!-- Generator: Adobe Illustrator 19.0.0, SVG Export Plug-In . SVG Version: 6.00 Build 0)  -->
<svg version="1.1" id="Layer_1" xmlns="http://www.w3.org/2000/svg" xmlns:xlink="http://www.w3.org/1999/xlink" x="0px" y="0px"
	 viewBox="0 0 512 512" style="enable-background:new 0 0 512 512;" xml:space="preserve">
<g>
	<g>
		<path d="M508,279.892H340c-2.212,0-4,1.792-4,4v64c0,2.208,1.788,4,4,4h168c2.212,0,4-1.792,4-4v-64
			C512,281.684,510.212,279.892,508,279.892z M372.052,331.744c-8.836,0-16-7.168-16-16c0-8.836,7.164-16,16-16s16,7.164,16,16
			C388.052,324.576,380.888,331.744,372.052,331.744z"/>
	</g>
</g>
<g>
	<g>
		<path d="M444,375.892v75.856c0,11.028-8.724,20.144-19.752,20.144h-404c-0.028,0-0.08,0-0.1,0C12.892,471.892,8,469.92,0,466.784
			v8.96c0,19.852,16.204,36.148,36.052,36.148h420c19.848,0,35.948-16.296,35.948-36.148v-99.852H444z"/>
	</g>
</g>
<g>
	<g>
		<path d="M460,117.452V91.744c0-17.82-10.632-33.156-25.908-40.056l-9.916-42.38c-0.728-3.096-2.648-5.78-5.352-7.46
			c-2.708-1.68-5.968-2.128-9.072-1.412l-201.58,47.456H44.064C19.8,47.892,0,67.48,0,91.744v50.14c0,0.608,0.22,1.296,0.22,1.932
			c0,11.028,9.004,20.076,20.028,20.076c0.016,0,0.024,0,0.04,0h403.96c11.028,0,19.752,8.828,19.752,19.856v72.144h48v-96.148
			C492,139.648,480,122.688,460,117.452z M44.064,71.892h61.996L24.14,91.144C24.54,80.472,33.288,71.892,44.064,71.892z
			 M44.064,115.892c-3.468,0-6.688-1.044-9.536-2.604l369.036-86.7l20.904,89.304H44.064z"/>
	</g>
</g>
<g>
	<g>
		<path d="M340.052,255.892H420v-68H20.248c-0.028,0-0.08,0-0.1,0C12.892,187.892,8,185.92,0,182.784v242.984
			c0,0.648,0.228,1.376,0.228,2.052c0,11.024,8.996,20.072,20.02,20.072c0.016,0,0.024,0,0.04,0H420v-72h-79.948
			c-15.444,0-28.052-12.712-28.052-28.148v-64C312,268.308,324.608,255.892,340.052,255.892z"/>
	</g>
</g>
<g>
</g>
<g>
</g>
<g>
</g>
<g>
</g>
<g>
</g>
<g>
</g>
<g>
</g>
<g>
</g>
<g>
</g>
<g>
</g>
<g>
</g>
<g>
</g>
<g>
</g>
<g>
</g>
<g>
</g>
</svg>
