<?xml version="1.0" encoding="utf-8"?>

<svg version="1.1" id="Icons" xmlns="http://www.w3.org/2000/svg" xmlns:xlink="http://www.w3.org/1999/xlink" x="0px" y="0px"
	 viewBox="0 0 32 32" style="enable-background:new 0 0 32 32;" xml:space="preserve">
<g>
	<path d="M26.4,22l-2.7-1.9l-4.3-3l-2.9-2c0,0,0,0,0,0c0,0,0,0-0.1-0.1c-0.1,0-0.2-0.1-0.2-0.1c0,0,0,0,0,0c-0.1,0-0.2,0-0.3,0
		c0,0-0.1,0-0.1,0c-0.1,0-0.2,0.1-0.2,0.1c0,0,0,0-0.1,0c0,0,0,0,0,0l-2.9,2l-4.3,3L5.6,22c-2,0.2-3.6,1.9-3.6,4c0,2.2,1.8,4,4,4
		s4-1.8,4-4c0-1.4-0.7-2.6-1.8-3.3l1.2-0.9l4.3-3l1.3-0.9v1.6v2.6c-1.7,0.4-3,2-3,3.9c0,2.2,1.8,4,4,4s4-1.8,4-4
		c0-1.9-1.3-3.4-3-3.9v-2.6v-1.6l1.3,0.9l4.3,3l1.2,0.9C22.7,23.4,22,24.6,22,26c0,2.2,1.8,4,4,4s4-1.8,4-4
		C30,23.9,28.4,22.2,26.4,22z"/>
	<path d="M11,14l10,0c0.3,0,0.6-0.1,0.8-0.4c0.2-0.2,0.3-0.5,0.2-0.8c-0.3-1.5-1.4-2.7-2.9-3.1c-0.4-0.1-0.7-0.4-0.8-0.8
		C18.7,8.4,19,7.7,19,7V5c0-1.7-1.3-3-3-3s-3,1.3-3,3v2c0,0.7,0.3,1.4,0.7,1.9c-0.1,0.4-0.4,0.7-0.8,0.8c-1.5,0.4-2.6,1.6-2.8,3.1
		c-0.1,0.3,0,0.6,0.2,0.8C10.4,13.9,10.7,14,11,14z"/>
</g>
</svg>
