<?xml version="1.0" encoding="iso-8859-1"?>
<!-- Generator: Adobe Illustrator 16.0.0, SVG Export Plug-In . SVG Version: 6.00 Build 0)  -->
<!DOCTYPE svg PUBLIC "-//W3C//DTD SVG 1.1//EN" "http://www.w3.org/Graphics/SVG/1.1/DTD/svg11.dtd">
<svg version="1.1" id="Capa_1" xmlns="http://www.w3.org/2000/svg" xmlns:xlink="http://www.w3.org/1999/xlink" x="0px" y="0px"
	 width="33.835px" height="33.835px" viewBox="0 0 33.835 33.835" style="enable-background:new 0 0 33.835 33.835;"
	 xml:space="preserve">
<g>
	<path d="M17.074,11.753c-2.435,0-4.406,1.973-4.406,4.405c0,2.433,1.974,4.406,4.406,4.406c2.431,0,4.407-1.974,4.407-4.406
		C21.481,13.726,19.507,11.753,17.074,11.753z M18.866,17.658c-0.131,0.186-0.317,0.324-0.559,0.422
		c-0.09,0.035-0.191,0.062-0.311,0.088v0.736h-0.699v-0.68c-0.018,0-0.033,0-0.052,0h-0.397v0.68h-0.699v-0.68h-1.066v-0.57h0.163
		c0.108,0,0.183-0.01,0.221-0.027c0.038-0.02,0.065-0.045,0.081-0.082c0.016-0.033,0.023-0.111,0.023-0.23V15.01
		c0-0.121-0.008-0.2-0.023-0.234c-0.016-0.033-0.043-0.061-0.081-0.08c-0.038-0.019-0.112-0.028-0.221-0.028h-0.163v-0.571h1.066
		v-0.679h0.699v0.679h0.449v-0.679h0.699v0.728c0.104,0.021,0.197,0.045,0.277,0.077c0.205,0.084,0.363,0.205,0.474,0.361
		s0.165,0.329,0.165,0.516c0,0.137-0.029,0.267-0.086,0.389c-0.06,0.122-0.144,0.231-0.253,0.325
		c-0.109,0.094-0.256,0.17-0.436,0.231c0.193,0.05,0.342,0.104,0.443,0.164c0.146,0.082,0.266,0.197,0.352,0.348
		c0.088,0.148,0.131,0.315,0.131,0.498C19.065,17.271,19,17.475,18.866,17.658z M20.134,22.143v-0.584h0.586v0.584H20.134z
		 M22.474,18.051v-0.586h0.584v0.586H22.474z M15.456,21.559h0.584v0.584h-0.584V21.559z M21.304,20.973h1.754v0.586h-0.584v0.584
		h-0.586v-0.584h-0.584V20.973z M23.058,19.805h-0.584v-0.586h0.584V19.805z M23.058,9.864h-4.094v1.22
		c-0.372-0.14-0.762-0.238-1.168-0.293v-0.342H17.21v0.294c-0.046-0.001-0.09-0.007-0.136-0.007c-0.151,0-0.3,0.012-0.448,0.022
		v-0.31h0.584V9.863h-1.754v1.119c-0.201,0.063-0.395,0.142-0.585,0.226V9.863h-4.093v4.094h1.345
		c-0.302,0.674-0.474,1.419-0.474,2.202c0,0.047,0.007,0.091,0.008,0.137h-0.294v-1.754h-0.585v2.34h0.926
		c0.055,0.406,0.154,0.796,0.293,1.169h-1.219v4.092h4.093v-1.031c0.674,0.302,1.418,0.474,2.203,0.474
		c0.45,0,0.887-0.062,1.306-0.164v0.726h0.584v-0.908c0.201-0.076,0.396-0.16,0.584-0.258v0.578h0.586v-0.925
		c0.111-0.075,0.221-0.159,0.326-0.243h2.014v-0.587H21.08c0.168-0.186,0.328-0.377,0.469-0.584h0.34V18.65
		c0.193-0.371,0.342-0.771,0.445-1.185h0.141v-0.825c0.01-0.113,0.016-0.229,0.02-0.346h0.564v-0.584h-0.582
		c-0.018-0.198-0.041-0.396-0.078-0.586h0.66v-0.584h-0.807c-0.062-0.201-0.142-0.396-0.228-0.585h1.033L23.058,9.864L23.058,9.864z
		 M11.362,13.373v-2.925h2.925v1.066c-0.204,0.123-0.399,0.257-0.585,0.404v-0.887h-1.754v1.754h0.886
		c-0.147,0.187-0.28,0.382-0.403,0.586L11.362,13.373L11.362,13.373z M14.287,21.559h-2.925v-2.924h0.892
		c0.104,0.201,0.218,0.396,0.347,0.584H11.95v1.754h1.754V20.4c0.187,0.146,0.381,0.281,0.585,0.404L14.287,21.559L14.287,21.559z
		 M17.074,21.084c-2.72,0-4.925-2.205-4.925-4.925c0-2.719,2.205-4.924,4.925-4.924c2.718,0,4.923,2.205,4.923,4.924
		C21.998,18.879,19.792,21.084,17.074,21.084z M22.474,13.373H21.72c-0.123-0.204-0.258-0.399-0.404-0.585h0.572v-1.755h-1.754
		v0.651c-0.188-0.128-0.383-0.242-0.586-0.346v-0.892h2.926V13.373L22.474,13.373z M17.907,16.631
		c0.058,0.086,0.087,0.188,0.087,0.312c0,0.145-0.041,0.269-0.122,0.369c-0.08,0.104-0.18,0.17-0.294,0.203
		c-0.115,0.033-0.261,0.049-0.437,0.049h-0.302c-0.101,0-0.161-0.006-0.185-0.016c-0.021-0.012-0.039-0.031-0.049-0.059
		c-0.008-0.021-0.014-0.096-0.016-0.223v-0.896h0.535c0.234,0,0.408,0.021,0.523,0.065C17.765,16.484,17.851,16.547,17.907,16.631z
		 M17.046,15.767h-0.453v-1.006h0.453c0.266,0,0.448,0.016,0.551,0.048c0.104,0.032,0.182,0.088,0.236,0.164
		c0.055,0.078,0.08,0.17,0.08,0.279c0,0.104-0.028,0.195-0.086,0.276c-0.057,0.078-0.143,0.14-0.256,0.179
		C17.457,15.748,17.283,15.767,17.046,15.767z M24.608,0H9.228C7.388,0,5.89,1.562,5.89,3.48v26.875c0,1.92,1.498,3.479,3.338,3.479
		h15.381c1.84,0,3.336-1.562,3.336-3.479V3.481C27.944,1.561,26.448,0,24.608,0z M14.355,1.293h5.125c0.275,0,0.5,0.224,0.5,0.5
		c0,0.275-0.225,0.5-0.5,0.5h-5.125c-0.275,0-0.5-0.225-0.5-0.5C13.855,1.517,14.079,1.293,14.355,1.293z M16.918,33.043
		c-0.828,0-1.5-0.672-1.5-1.5s0.672-1.5,1.5-1.5s1.5,0.672,1.5,1.5S17.746,33.043,16.918,33.043z M25.944,29.115H7.89V3.481
		c0-0.048,0.01-0.093,0.014-0.14h18.027c0.004,0.047,0.014,0.092,0.014,0.14L25.944,29.115L25.944,29.115z"/>
</g>
<g>
</g>
<g>
</g>
<g>
</g>
<g>
</g>
<g>
</g>
<g>
</g>
<g>
</g>
<g>
</g>
<g>
</g>
<g>
</g>
<g>
</g>
<g>
</g>
<g>
</g>
<g>
</g>
<g>
</g>
</svg>
