<?xml version="1.0" encoding="iso-8859-1"?>
<!-- Generator: Adobe Illustrator 19.0.0, SVG Export Plug-In . SVG Version: 6.00 Build 0)  -->
<svg version="1.1" id="Layer_1" xmlns="http://www.w3.org/2000/svg" xmlns:xlink="http://www.w3.org/1999/xlink" x="0px" y="0px"
	 viewBox="0 0 512 512" style="enable-background:new 0 0 512 512;" xml:space="preserve">
<circle style="fill:#FFDC64;" cx="256" cy="256" r="256"/>
<circle style="fill:#FFC850;" cx="256" cy="256" r="220.69"/>
<circle style="fill:#FFF082;" cx="256" cy="256" r="194.207"/>
<path style="fill:#E7B452;" d="M324.018,242.586c9.81-10.302,15.844-24.233,15.844-39.552c0-31.638-25.741-57.379-57.379-57.379
	h-4.414v-13.241c0-7.31-5.931-13.241-13.241-13.241c-7.31,0-13.241,5.931-13.241,13.241v13.241h-17.655v-13.241
	c0-7.31-5.931-13.241-13.241-13.241s-13.241,5.931-13.241,13.241v13.241h-22.069c-7.31,0-13.241,5.931-13.241,13.241
	c0,7.31,5.931,13.241,13.241,13.241h4.414v167.724h-4.414c-7.31,0-13.241,5.931-13.241,13.241c0,7.31,5.931,13.241,13.241,13.241
	h22.069v13.241c0,7.31,5.931,13.241,13.241,13.241s13.241-5.931,13.241-13.241v-13.241h17.655v13.241
	c0,7.31,5.931,13.241,13.241,13.241c7.31,0,13.241-5.931,13.241-13.241v-13.241h13.241c36.509,0,66.207-29.698,66.207-66.207
	C357.517,275.518,344.009,253.992,324.018,242.586z M282.483,172.138c17.035,0,30.897,13.863,30.897,30.897
	s-13.863,30.897-30.897,30.897h-66.207v-61.793H282.483z M291.31,339.862h-75.034v-79.448h66.207h8.828
	c21.906,0,39.724,17.818,39.724,39.724C331.034,322.044,313.216,339.862,291.31,339.862z"/>
<g>
</g>
<g>
</g>
<g>
</g>
<g>
</g>
<g>
</g>
<g>
</g>
<g>
</g>
<g>
</g>
<g>
</g>
<g>
</g>
<g>
</g>
<g>
</g>
<g>
</g>
<g>
</g>
<g>
</g>
</svg>
