<?xml version="1.0" encoding="iso-8859-1"?>
<!-- Generator: Adobe Illustrator 16.0.0, SVG Export Plug-In . SVG Version: 6.00 Build 0)  -->
<!DOCTYPE svg PUBLIC "-//W3C//DTD SVG 1.1//EN" "http://www.w3.org/Graphics/SVG/1.1/DTD/svg11.dtd">
<svg version="1.1" id="Capa_1" xmlns="http://www.w3.org/2000/svg" xmlns:xlink="http://www.w3.org/1999/xlink" x="0px" y="0px"
	 width="35.75px" height="35.75px" viewBox="0 0 35.75 35.75" style="enable-background:new 0 0 35.75 35.75;" xml:space="preserve"
	>
<g>
	<path d="M33.078,9.104h-3.854V6.711c0-2.456-1.998-4.455-4.453-4.455H10.981c-2.457,0-4.455,1.999-4.455,4.455v2.393H2.673
		C1.196,9.104,0,10.301,0,11.777V30.82c0,1.477,1.196,2.674,2.673,2.674h30.404c1.476,0,2.673-1.197,2.673-2.674V11.777
		C35.751,10.3,34.555,9.104,33.078,9.104z M9.526,6.711c0-0.802,0.652-1.455,1.455-1.455H24.77c0.801,0,1.453,0.652,1.453,1.455
		v2.393H9.526V6.711L9.526,6.711z M17.876,30.579c-4.943,0-8.955-4.011-8.955-8.956c0-4.946,4.012-8.955,8.955-8.955
		c4.942,0,8.955,4.009,8.955,8.955C26.831,26.568,22.818,30.579,17.876,30.579z M12.796,26.742c0.195,0.195,0.197,0.511,0.002,0.708
		c-0.098,0.098-0.227,0.147-0.354,0.147s-0.256-0.05-0.354-0.146c-0.771-0.768-1.372-1.658-1.789-2.653
		c-0.105-0.255,0.014-0.548,0.268-0.653c0.257-0.106,0.549,0.015,0.654,0.269C11.59,25.286,12.118,26.068,12.796,26.742z
		 M10.164,22.143c-0.276,0-0.5-0.205-0.5-0.48v-0.038c0-1.073,0.204-2.117,0.606-3.103c0.104-0.256,0.395-0.377,0.651-0.273
		c0.255,0.104,0.378,0.396,0.272,0.65c-0.354,0.865-0.531,1.781-0.531,2.726C10.664,21.898,10.44,22.143,10.164,22.143z
		 M17.349,13.911c0-0.276,0.195-0.5,0.473-0.5h0.056c1.065,0,2.104,0.202,3.084,0.599c0.256,0.104,0.38,0.396,0.274,0.651
		c-0.077,0.194-0.266,0.312-0.463,0.312c-0.062,0-0.125-0.012-0.188-0.037c-0.858-0.349-1.771-0.526-2.709-0.526
		C17.601,14.411,17.349,14.187,17.349,13.911z M12.039,16.559c-0.196-0.194-0.198-0.511-0.004-0.708
		c0.761-0.771,1.651-1.375,2.647-1.796c0.252-0.106,0.547,0.01,0.655,0.266c0.106,0.254-0.012,0.548-0.267,0.655
		c-0.875,0.37-1.657,0.901-2.326,1.579c-0.098,0.099-0.227,0.148-0.355,0.148C12.265,16.703,12.137,16.655,12.039,16.559z
		 M25.588,21.086c0.275,0,0.5,0.188,0.5,0.463v0.074c0,1.087-0.209,2.145-0.621,3.139c-0.078,0.192-0.266,0.309-0.462,0.309
		c-0.062,0-0.129-0.012-0.19-0.036c-0.254-0.104-0.375-0.398-0.271-0.653c0.359-0.874,0.545-1.801,0.545-2.756
		C25.088,21.348,25.312,21.086,25.588,21.086z M18.387,29.336c0,0.275-0.215,0.5-0.491,0.5h-0.02c-1.079,0-2.129-0.207-3.121-0.613
		c-0.255-0.104-0.377-0.396-0.271-0.652c0.105-0.256,0.396-0.375,0.652-0.271c0.87,0.358,1.793,0.539,2.74,0.539
		C18.15,28.836,18.387,29.061,18.387,29.336z M23.634,15.768c0.773,0.761,1.382,1.65,1.804,2.644
		c0.107,0.254-0.011,0.548-0.266,0.656c-0.062,0.026-0.13,0.039-0.193,0.039c-0.194,0-0.379-0.113-0.461-0.303
		c-0.371-0.875-0.904-1.656-1.584-2.324c-0.197-0.193-0.199-0.51-0.007-0.707C23.121,15.576,23.438,15.575,23.634,15.768z
		 M23.688,26.716c0.196,0.195,0.196,0.511,0.002,0.707c-0.766,0.769-1.66,1.369-2.655,1.784c-0.062,0.025-0.13,0.039-0.192,0.039
		c-0.193,0-0.382-0.116-0.462-0.309c-0.104-0.254,0.017-0.547,0.271-0.653c0.877-0.365,1.662-0.892,2.334-1.567
		C23.177,26.521,23.493,26.521,23.688,26.716z M21.168,24.372c0.24-0.339,0.364-0.709,0.364-1.11c0-0.336-0.08-0.642-0.241-0.916
		c-0.16-0.271-0.376-0.486-0.646-0.638c-0.188-0.108-0.461-0.209-0.814-0.299c0.33-0.113,0.597-0.255,0.799-0.427
		c0.201-0.172,0.355-0.371,0.464-0.597c0.106-0.225,0.16-0.462,0.16-0.712c0-0.343-0.104-0.658-0.302-0.947
		c-0.203-0.287-0.495-0.51-0.871-0.662c-0.146-0.062-0.316-0.105-0.507-0.142v-1.338h-1.284v1.248h-0.826v-1.248h-1.28v1.248h-1.959
		v1.047h0.299c0.197,0,0.334,0.021,0.404,0.056c0.07,0.037,0.121,0.086,0.15,0.146c0.029,0.061,0.041,0.205,0.041,0.428v4.227
		c0,0.223-0.012,0.365-0.041,0.43c-0.029,0.062-0.08,0.111-0.15,0.146c-0.07,0.032-0.207,0.052-0.404,0.052h-0.299v1.047h1.959
		v1.247h1.28v-1.247h0.73c0.033,0,0.062-0.001,0.096-0.001v1.248h1.284v-1.354c0.216-0.043,0.403-0.095,0.563-0.158
		C20.583,24.969,20.925,24.712,21.168,24.372z M16.995,19.057h0.83c0.483,0,0.821,0.03,1.01,0.09
		c0.188,0.062,0.332,0.16,0.433,0.303c0.101,0.141,0.147,0.311,0.147,0.51c0,0.191-0.052,0.361-0.155,0.509
		c-0.105,0.147-0.263,0.257-0.471,0.329c-0.209,0.073-0.529,0.108-0.964,0.108h-0.83V19.057L16.995,19.057z M19.342,23.738
		c-0.146,0.188-0.328,0.312-0.537,0.373c-0.215,0.061-0.48,0.09-0.803,0.09h-0.554c-0.184,0-0.297-0.012-0.338-0.029
		c-0.043-0.021-0.072-0.056-0.09-0.105c-0.015-0.039-0.023-0.176-0.025-0.406v-1.643h0.98c0.429,0,0.75,0.041,0.958,0.119
		c0.211,0.08,0.365,0.199,0.474,0.354c0.104,0.155,0.157,0.346,0.157,0.569C19.564,23.325,19.49,23.55,19.342,23.738z"/>
</g>
<g>
</g>
<g>
</g>
<g>
</g>
<g>
</g>
<g>
</g>
<g>
</g>
<g>
</g>
<g>
</g>
<g>
</g>
<g>
</g>
<g>
</g>
<g>
</g>
<g>
</g>
<g>
</g>
<g>
</g>
</svg>
