<?xml version="1.0" encoding="iso-8859-1"?>
<!-- Generator: Adobe Illustrator 16.0.0, SVG Export Plug-In . SVG Version: 6.00 Build 0)  -->
<!DOCTYPE svg PUBLIC "-//W3C//DTD SVG 1.1//EN" "http://www.w3.org/Graphics/SVG/1.1/DTD/svg11.dtd">
<svg version="1.1" id="Capa_1" xmlns="http://www.w3.org/2000/svg" xmlns:xlink="http://www.w3.org/1999/xlink" x="0px" y="0px"
	 width="33.808px" height="33.808px" viewBox="0 0 33.808 33.808" style="enable-background:new 0 0 33.808 33.808;"
	 xml:space="preserve">
<g>
	<path d="M10.695,29.228v2.527c0,0.397-0.31,0.723-0.694,0.723H0.694C0.312,32.478,0,32.153,0,31.755v-2.527
		c0-0.398,0.312-0.723,0.694-0.723h9.307C10.385,28.505,10.695,28.829,10.695,29.228z M10.001,23.632H0.694
		C0.312,23.632,0,23.954,0,24.355v2.524c0,0.398,0.312,0.724,0.694,0.724h9.307c0.385,0,0.694-0.324,0.694-0.724v-2.524
		C10.695,23.954,10.385,23.632,10.001,23.632z M21.605,28.505h-9.308c-0.383,0-0.694,0.322-0.694,0.724v2.526
		c0,0.398,0.312,0.724,0.694,0.724h9.308c0.383,0,0.693-0.324,0.693-0.724v-2.526C22.3,28.829,21.988,28.505,21.605,28.505z
		 M33.113,28.505h-9.307c-0.383,0-0.693,0.322-0.693,0.724v2.526c0,0.398,0.312,0.724,0.693,0.724h9.307
		c0.383,0,0.694-0.324,0.694-0.724v-2.526C33.808,28.829,33.496,28.505,33.113,28.505z M21.605,23.632h-9.308
		c-0.383,0-0.694,0.322-0.694,0.724v2.524c0,0.398,0.312,0.724,0.694,0.724h9.308c0.383,0,0.693-0.324,0.693-0.724v-2.524
		C22.3,23.954,21.988,23.632,21.605,23.632z M10.695,19.884v2.123c0,0.397-0.31,0.721-0.694,0.721H0.694
		C0.312,22.728,0,22.407,0,22.007v-2.527c0-0.396,0.312-0.721,0.694-0.721h9.07c-0.21-0.291-0.406-0.595-0.587-0.904H0.695
		c-0.382,0-0.694-0.322-0.694-0.721v-2.527c0-0.397,0.312-0.722,0.694-0.722h7.106c-0.072-0.508-0.122-1.021-0.122-1.547
		c0-6.069,4.937-11.008,11.006-11.008c6.069,0,11.007,4.938,11.007,11.008c0,6.068-4.938,11.005-11.007,11.005
		C15.537,23.343,12.702,22.009,10.695,19.884z M8.678,12.337c0,5.517,4.488,10.005,10.006,10.005s10.008-4.488,10.008-10.005
		c0-5.519-4.49-10.008-10.008-10.008S8.678,6.82,8.678,12.337z M22.879,5.014c1.281,0.735,2.354,1.8,3.1,3.077
		c0.092,0.158,0.26,0.248,0.432,0.248c0.086,0,0.173-0.021,0.252-0.068c0.238-0.139,0.318-0.445,0.181-0.684
		c-0.833-1.428-2.03-2.618-3.466-3.44c-0.24-0.139-0.547-0.056-0.684,0.185C22.557,4.573,22.639,4.876,22.879,5.014z M14.195,5.108
		c0.085,0,0.172-0.021,0.251-0.067C15.72,4.3,17.176,3.906,18.658,3.9c0.276-0.001,0.5-0.226,0.5-0.502
		c-0.002-0.275-0.226-0.498-0.5-0.498h-0.002c-1.657,0.006-3.288,0.446-4.712,1.276c-0.239,0.139-0.319,0.444-0.181,0.684
		C13.855,5.02,14.022,5.108,14.195,5.108z M26.177,17.236c0.079,0.047,0.165,0.067,0.25,0.067c0.173,0,0.341-0.091,0.433-0.25
		c0.826-1.427,1.262-3.058,1.262-4.716V12.3c0-0.276-0.223-0.481-0.5-0.481c-0.274,0-0.5,0.242-0.5,0.519
		c0,1.484-0.389,2.94-1.127,4.217C25.855,16.791,25.938,17.098,26.177,17.236z M22.908,19.644c-1.274,0.738-2.731,1.129-4.215,1.131
		c-0.275,0-0.5,0.225-0.5,0.5s0.225,0.5,0.5,0.5l0,0c1.657-0.002,3.287-0.439,4.715-1.266c0.24-0.142,0.322-0.445,0.184-0.687
		C23.453,19.585,23.148,19.505,22.908,19.644z M11.182,7.454c-0.24-0.14-0.545-0.057-0.684,0.185
		c-0.818,1.423-1.251,3.048-1.251,4.698v0.02c0,0.276,0.225,0.491,0.5,0.491c0.276,0,0.5-0.233,0.5-0.511
		c0-1.477,0.388-2.928,1.119-4.2C11.505,7.897,11.423,7.591,11.182,7.454z M13.976,20.519c0.079,0.045,0.165,0.066,0.25,0.066
		c0.173,0,0.341-0.091,0.434-0.25c0.139-0.238,0.057-0.546-0.183-0.685c-1.28-0.738-2.351-1.806-3.092-3.083
		c-0.14-0.239-0.445-0.321-0.684-0.182c-0.238,0.139-0.319,0.444-0.181,0.685C11.35,18.501,12.546,19.692,13.976,20.519z
		 M18.01,14.581c0.037,0.018,0.137,0.025,0.298,0.025h0.488c0.282,0,0.519-0.025,0.704-0.078c0.188-0.052,0.345-0.162,0.476-0.328
		c0.132-0.166,0.196-0.365,0.196-0.599c0-0.196-0.045-0.364-0.139-0.502c-0.092-0.138-0.229-0.242-0.416-0.313
		c-0.186-0.068-0.467-0.104-0.846-0.104h-0.865v1.445c0.004,0.205,0.013,0.324,0.023,0.359
		C17.945,14.532,17.973,14.565,18.01,14.581z M19.49,11.607c0.184-0.064,0.32-0.16,0.412-0.29c0.092-0.128,0.141-0.278,0.141-0.446
		c0-0.177-0.044-0.326-0.133-0.449c-0.086-0.125-0.215-0.213-0.381-0.266c-0.166-0.055-0.461-0.08-0.89-0.08h-0.731v1.627h0.731
		C19.023,11.702,19.305,11.671,19.49,11.607z M11.078,12.337c0-4.202,3.405-7.607,7.606-7.607c4.201,0,7.607,3.405,7.607,7.607
		c0,4.201-3.406,7.605-7.607,7.605C14.483,19.942,11.078,16.538,11.078,12.337z M15.466,15.675h1.726v1.099h1.131v-1.099h0.644
		c0.028,0,0.056-0.001,0.084-0.001v1.1h1.131v-1.192c0.188-0.037,0.354-0.084,0.499-0.141c0.391-0.156,0.691-0.384,0.904-0.683
		c0.214-0.298,0.32-0.623,0.32-0.98c0-0.296-0.071-0.564-0.211-0.806c-0.141-0.241-0.33-0.429-0.568-0.563
		c-0.167-0.097-0.405-0.184-0.719-0.264c0.293-0.1,0.526-0.225,0.705-0.376c0.178-0.151,0.312-0.326,0.406-0.522
		c0.096-0.198,0.143-0.407,0.143-0.627c0-0.305-0.09-0.582-0.268-0.838C21.214,9.53,20.958,9.337,20.626,9.2
		c-0.128-0.054-0.28-0.093-0.446-0.125V7.897h-1.131v1.1H18.32v-1.1h-1.131v1.1h-1.726v0.922h0.264c0.176,0,0.294,0.018,0.355,0.05
		c0.063,0.03,0.106,0.075,0.133,0.129c0.025,0.054,0.039,0.181,0.039,0.379v3.724c0,0.195-0.013,0.319-0.039,0.375
		c-0.025,0.058-0.069,0.101-0.133,0.131c-0.062,0.029-0.18,0.045-0.355,0.045h-0.264v0.923H15.466z"/>
</g>
<g>
</g>
<g>
</g>
<g>
</g>
<g>
</g>
<g>
</g>
<g>
</g>
<g>
</g>
<g>
</g>
<g>
</g>
<g>
</g>
<g>
</g>
<g>
</g>
<g>
</g>
<g>
</g>
<g>
</g>
</svg>
