<?xml version="1.0" encoding="iso-8859-1"?>
<!-- Generator: Adobe Illustrator 16.0.0, SVG Export Plug-In . SVG Version: 6.00 Build 0)  -->
<!DOCTYPE svg PUBLIC "-//W3C//DTD SVG 1.1//EN" "http://www.w3.org/Graphics/SVG/1.1/DTD/svg11.dtd">
<svg version="1.1" id="Capa_1" xmlns="http://www.w3.org/2000/svg" xmlns:xlink="http://www.w3.org/1999/xlink" x="0px" y="0px"
	 width="38.376px" height="38.375px" viewBox="0 0 38.376 38.375" style="enable-background:new 0 0 38.376 38.375;"
	 xml:space="preserve">
<g>
	<path d="M9.459,16.773H8.68v-1.734h0.779c0.455,0,0.771,0.028,0.947,0.084c0.176,0.056,0.313,0.151,0.405,0.284
		c0.093,0.132,0.142,0.292,0.142,0.479c0,0.179-0.051,0.339-0.147,0.477c-0.101,0.137-0.246,0.24-0.44,0.308
		C10.168,16.739,9.868,16.773,9.459,16.773z M10.5,17.932c-0.197-0.075-0.496-0.113-0.899-0.113H8.68v1.54
		c0.003,0.219,0.011,0.346,0.023,0.383c0.018,0.048,0.045,0.082,0.084,0.1c0.039,0.02,0.146,0.028,0.318,0.028h0.52
		c0.301,0,0.551-0.028,0.752-0.084c0.196-0.056,0.365-0.172,0.504-0.35c0.14-0.177,0.211-0.389,0.211-0.638
		c0-0.21-0.051-0.388-0.147-0.536C10.842,18.117,10.698,18.005,10.5,17.932z M17.097,17.449c0,4.193-3.398,7.59-7.591,7.59
		c-4.191,0-7.59-3.396-7.59-7.59c0-4.191,3.397-7.59,7.59-7.59C13.699,9.859,17.097,13.258,17.097,17.449z M12.938,18.985
		c0-0.315-0.075-0.602-0.227-0.858c-0.15-0.257-0.352-0.456-0.605-0.6c-0.177-0.102-0.432-0.196-0.766-0.28
		c0.312-0.106,0.562-0.239,0.75-0.4c0.188-0.162,0.336-0.348,0.436-0.558c0.1-0.211,0.148-0.434,0.148-0.668
		c0-0.323-0.094-0.62-0.281-0.891c-0.191-0.27-0.464-0.477-0.816-0.622c-0.138-0.056-0.301-0.098-0.478-0.132v-1.255H9.893v1.17
		H9.12v-1.17H7.917v1.17h-1.84v0.984h0.281c0.188,0,0.312,0.017,0.38,0.051c0.065,0.033,0.112,0.08,0.14,0.137
		c0.027,0.058,0.041,0.193,0.041,0.403v3.968c0,0.208-0.014,0.34-0.041,0.4c-0.026,0.062-0.073,0.104-0.14,0.138
		c-0.065,0.032-0.19,0.049-0.38,0.049H6.077v0.983h1.84v1.17H9.12v-1.17h0.686c0.029,0,0.061,0,0.089,0v1.17h1.206v-1.271
		c0.201-0.039,0.381-0.088,0.531-0.147c0.416-0.168,0.738-0.408,0.963-0.729C12.823,19.711,12.938,19.363,12.938,18.985z
		 M38.376,29.288c0,4.491-3.651,8.146-8.144,8.146c-4.489,0-8.145-3.654-8.145-8.146c0-0.42,0.041-0.832,0.104-1.234l-5.635-4.182
		l0.095-0.17c-1.744,1.989-4.296,3.256-7.145,3.256C4.265,26.958,0,22.691,0,17.45c0-5.242,4.265-9.506,9.506-9.506
		c2.975,0,5.632,1.375,7.375,3.521l6.41-3.739c-0.205-0.548-0.334-1.134-0.334-1.753c0-2.774,2.258-5.031,5.031-5.031
		s5.031,2.257,5.031,5.031c0,2.775-2.258,5.032-5.031,5.032c-1.658,0-3.119-0.817-4.037-2.059l-5.791,4.597
		c0.543,1.194,0.852,2.515,0.852,3.909c0,1.734-0.475,3.354-1.288,4.757l5.758,2.528c1.465-2.166,3.943-3.592,6.75-3.592
		C34.723,21.144,38.376,24.795,38.376,29.288z M23.5,5.971c0,2.48,2.01,4.489,4.488,4.489c2.479,0,4.486-2.009,4.486-4.489
		c0-2.478-2.009-4.488-4.486-4.488C25.51,1.482,23.5,3.493,23.5,5.971z M17.987,17.449c0-4.684-3.796-8.481-8.479-8.481
		c-4.684,0-8.48,3.797-8.48,8.481c0,4.686,3.797,8.48,8.48,8.48C14.191,25.929,17.987,22.134,17.987,17.449z M37.497,29.288
		c0-4.013-3.25-7.265-7.265-7.265c-4.014,0-7.266,3.252-7.266,7.265c0,4.016,3.252,7.268,7.266,7.268
		C34.247,36.555,37.497,33.299,37.497,29.288z M30.967,28.622c0.166-0.06,0.291-0.146,0.377-0.265
		c0.084-0.117,0.129-0.256,0.129-0.41c0-0.159-0.043-0.297-0.123-0.409c-0.078-0.113-0.195-0.195-0.348-0.244
		c-0.15-0.047-0.422-0.07-0.812-0.07h-0.668v1.484h0.668C30.542,28.708,30.799,28.679,30.967,28.622z M31.084,29.702
		c-0.17-0.064-0.428-0.099-0.771-0.099h-0.789v1.319c0.002,0.188,0.009,0.298,0.021,0.328c0.014,0.041,0.037,0.068,0.07,0.084
		c0.033,0.017,0.125,0.025,0.271,0.025h0.444c0.258,0,0.474-0.025,0.646-0.072c0.168-0.049,0.312-0.147,0.434-0.3
		c0.117-0.151,0.178-0.333,0.178-0.546c0-0.18-0.041-0.332-0.125-0.459C31.377,29.859,31.252,29.765,31.084,29.702z M36.734,29.288
		c0,3.592-2.912,6.504-6.502,6.504c-3.592,0-6.504-2.912-6.504-6.504c0-3.591,2.912-6.502,6.504-6.502
		C33.822,22.786,36.734,25.695,36.734,29.288z M33.17,30.605c0-0.271-0.062-0.517-0.191-0.735c-0.129-0.222-0.302-0.392-0.52-0.515
		c-0.152-0.088-0.371-0.168-0.658-0.24c0.268-0.092,0.481-0.204,0.645-0.344c0.164-0.14,0.287-0.297,0.373-0.478
		c0.086-0.182,0.129-0.373,0.129-0.571c0-0.277-0.081-0.533-0.241-0.765c-0.164-0.229-0.397-0.408-0.701-0.533
		c-0.116-0.047-0.258-0.084-0.407-0.112v-1.074h-1.033v1.002h-0.662v-1.002h-1.031v1.002h-1.574v0.843h0.24
		c0.158,0,0.27,0.018,0.324,0.045c0.059,0.026,0.098,0.067,0.119,0.117c0.024,0.049,0.037,0.166,0.037,0.346v3.397
		c0,0.179-0.013,0.293-0.037,0.345c-0.021,0.051-0.062,0.09-0.119,0.117c-0.057,0.028-0.166,0.043-0.324,0.043h-0.24v0.842h1.574
		v1.002h1.031v-1.002h0.586c0.027,0,0.053,0,0.076,0v1.004h1.033v-1.09c0.172-0.033,0.325-0.076,0.454-0.127
		c0.357-0.144,0.634-0.351,0.826-0.623C33.072,31.226,33.17,30.929,33.17,30.605z M28.443,5.56c0.104-0.036,0.183-0.091,0.233-0.163
		c0.052-0.072,0.077-0.158,0.077-0.252c0-0.099-0.025-0.183-0.074-0.253c-0.049-0.071-0.121-0.121-0.215-0.15
		c-0.094-0.029-0.262-0.044-0.502-0.044h-0.412v0.918h0.412C28.18,5.613,28.34,5.596,28.443,5.56z M27.609,7.235
		c0.021,0.011,0.076,0.016,0.168,0.016h0.273c0.16,0,0.293-0.016,0.396-0.045c0.104-0.029,0.195-0.091,0.268-0.185
		c0.074-0.094,0.111-0.206,0.111-0.337c0-0.111-0.025-0.206-0.078-0.284c-0.053-0.077-0.129-0.135-0.232-0.175
		c-0.104-0.04-0.264-0.06-0.477-0.06h-0.488v0.814c0.004,0.116,0.006,0.184,0.014,0.203C27.574,7.209,27.588,7.228,27.609,7.235z
		 M23.973,5.971c0-2.218,1.799-4.017,4.019-4.017c2.217,0,4.016,1.799,4.016,4.017c0,2.22-1.799,4.018-4.016,4.018
		C25.771,9.988,23.973,8.19,23.973,5.971z M26.172,7.854h0.975v0.62h0.64v-0.62h0.36c0.019,0,0.031,0,0.047,0v0.62h0.64V7.801
		c0.106-0.021,0.201-0.047,0.28-0.08c0.222-0.088,0.392-0.215,0.511-0.385c0.121-0.167,0.183-0.351,0.183-0.551
		c0-0.167-0.039-0.318-0.119-0.454c-0.078-0.137-0.187-0.242-0.318-0.317c-0.096-0.054-0.229-0.104-0.406-0.148
		c0.164-0.057,0.297-0.127,0.396-0.212c0.101-0.085,0.178-0.184,0.229-0.295c0.054-0.111,0.08-0.229,0.08-0.354
		c0-0.171-0.051-0.328-0.149-0.472c-0.103-0.143-0.246-0.252-0.435-0.329c-0.071-0.029-0.158-0.052-0.252-0.069V3.471h-0.64V4.09
		h-0.407V3.471h-0.64V4.09h-0.975v0.52h0.148c0.102,0,0.166,0.01,0.201,0.028c0.035,0.018,0.061,0.042,0.074,0.073
		c0.016,0.031,0.022,0.102,0.022,0.213v2.1c0,0.11-0.009,0.18-0.022,0.212c-0.015,0.032-0.039,0.056-0.074,0.073
		s-0.103,0.026-0.201,0.026h-0.148V7.854z"/>
</g>
<g>
</g>
<g>
</g>
<g>
</g>
<g>
</g>
<g>
</g>
<g>
</g>
<g>
</g>
<g>
</g>
<g>
</g>
<g>
</g>
<g>
</g>
<g>
</g>
<g>
</g>
<g>
</g>
<g>
</g>
</svg>
