<?xml version="1.0" encoding="iso-8859-1"?>
<!-- Generator: Adobe Illustrator 16.0.0, SVG Export Plug-In . SVG Version: 6.00 Build 0)  -->
<!DOCTYPE svg PUBLIC "-//W3C//DTD SVG 1.1//EN" "http://www.w3.org/Graphics/SVG/1.1/DTD/svg11.dtd">
<svg version="1.1" id="Capa_1" xmlns="http://www.w3.org/2000/svg" xmlns:xlink="http://www.w3.org/1999/xlink" x="0px" y="0px"
	 width="34px" height="34px" viewBox="0 0 34 34" style="enable-background:new 0 0 34 34;" xml:space="preserve">
<g>
	<path d="M27.833,10.166h-1.167V3.271c0-1.804-1.468-3.271-3.27-3.271H10.604C8.799,0,7.333,1.468,7.333,3.271v6.895H6.166
		c-1.655,0-3,1.344-3,3V31c0,1.656,1.345,3,3,3h21.668c1.656,0,3-1.344,3-3V13.166C30.833,11.51,29.488,10.166,27.833,10.166z
		 M10.332,3.271C10.332,3.122,10.454,3,10.603,3h12.792c0.148,0,0.271,0.122,0.271,0.271v6.895H10.331L10.332,3.271L10.332,3.271z
		 M16.999,30.598c-4.943,0-8.955-4.011-8.955-8.957c0-4.945,4.012-8.955,8.955-8.955c4.942,0,8.955,4.01,8.955,8.955
		C25.954,26.587,21.941,30.598,16.999,30.598z M9.287,22.16c-0.276,0-0.5-0.205-0.5-0.48v-0.039c0-1.072,0.204-2.115,0.606-3.102
		c0.104-0.256,0.396-0.379,0.651-0.273c0.255,0.104,0.378,0.396,0.272,0.652c-0.354,0.863-0.531,1.78-0.531,2.723
		C9.787,21.917,9.563,22.16,9.287,22.16z M16.472,13.93c0-0.277,0.195-0.5,0.473-0.5H17c1.064,0,2.104,0.2,3.084,0.598
		c0.256,0.104,0.38,0.396,0.275,0.65c-0.078,0.194-0.268,0.313-0.465,0.313c-0.062,0-0.125-0.013-0.188-0.036
		c-0.859-0.35-1.771-0.525-2.709-0.525C16.724,14.43,16.472,14.205,16.472,13.93z M11.918,26.761
		c0.195,0.194,0.197,0.511,0.002,0.707c-0.098,0.099-0.226,0.147-0.354,0.147c-0.127,0-0.254-0.049-0.353-0.146
		c-0.771-0.765-1.372-1.656-1.789-2.652c-0.106-0.254,0.013-0.547,0.269-0.652c0.257-0.105,0.548,0.014,0.654,0.27
		C10.712,25.305,11.24,26.088,11.918,26.761z M11.161,16.577c-0.196-0.193-0.198-0.511-0.004-0.707
		c0.763-0.772,1.652-1.376,2.646-1.796c0.252-0.105,0.547,0.011,0.655,0.267c0.106,0.255-0.012,0.548-0.267,0.655
		c-0.873,0.367-1.655,0.898-2.325,1.577c-0.099,0.099-0.228,0.146-0.354,0.146C11.386,16.723,11.259,16.674,11.161,16.577z
		 M22.757,15.785c0.774,0.762,1.382,1.65,1.804,2.645c0.107,0.254-0.011,0.549-0.266,0.655c-0.062,0.026-0.13,0.04-0.193,0.04
		c-0.194,0-0.379-0.114-0.461-0.305c-0.371-0.871-0.902-1.653-1.584-2.322c-0.197-0.193-0.199-0.51-0.007-0.707
		C22.244,15.594,22.562,15.592,22.757,15.785z M24.711,21.104c0.275,0,0.5,0.188,0.5,0.465v0.072c0,1.088-0.209,2.146-0.621,3.14
		c-0.078,0.192-0.266,0.31-0.462,0.31c-0.063,0-0.129-0.012-0.19-0.038c-0.254-0.104-0.375-0.397-0.271-0.651
		c0.359-0.873,0.545-1.801,0.545-2.756C24.211,21.364,24.436,21.104,24.711,21.104z M22.812,26.732c0.194,0.194,0.194,0.513,0,0.709
		c-0.767,0.768-1.66,1.367-2.655,1.783c-0.062,0.024-0.13,0.039-0.192,0.039c-0.193,0-0.382-0.115-0.462-0.31
		c-0.104-0.255,0.017-0.548,0.271-0.654c0.875-0.362,1.66-0.892,2.334-1.565C22.301,26.539,22.618,26.54,22.812,26.732z
		 M17.509,29.354c0,0.276-0.213,0.5-0.488,0.5H17c-1.078,0-2.128-0.205-3.12-0.611c-0.256-0.105-0.378-0.397-0.272-0.652
		c0.105-0.256,0.401-0.377,0.651-0.271c0.871,0.355,1.794,0.539,2.741,0.539C17.273,28.854,17.509,29.078,17.509,29.354z
		 M20.291,24.391c0.24-0.34,0.363-0.709,0.363-1.11c0-0.337-0.079-0.642-0.24-0.914c-0.16-0.272-0.376-0.487-0.646-0.64
		c-0.188-0.107-0.461-0.209-0.814-0.299c0.33-0.113,0.597-0.256,0.799-0.428c0.201-0.172,0.355-0.37,0.464-0.596
		c0.106-0.225,0.16-0.461,0.16-0.711c0-0.344-0.104-0.66-0.302-0.948c-0.203-0.288-0.495-0.509-0.871-0.661
		c-0.146-0.061-0.316-0.105-0.508-0.141v-1.338h-1.283v1.249h-0.826v-1.249h-1.28v1.249h-1.959V18.9h0.299
		c0.197,0,0.334,0.02,0.404,0.055c0.07,0.036,0.121,0.085,0.15,0.146c0.029,0.062,0.041,0.205,0.041,0.428v4.227
		c0,0.223-0.012,0.365-0.041,0.43c-0.029,0.063-0.08,0.111-0.15,0.146c-0.07,0.035-0.207,0.053-0.404,0.053h-0.299v1.049h1.959
		v1.246h1.28v-1.25h0.73c0.033,0,0.062,0,0.096,0v1.247h1.283v-1.353c0.217-0.043,0.404-0.096,0.564-0.16
		C19.706,24.986,20.048,24.73,20.291,24.391z M16.118,19.074h0.83c0.483,0,0.821,0.029,1.01,0.091
		c0.188,0.06,0.332,0.159,0.433,0.301s0.147,0.312,0.147,0.511c0,0.192-0.052,0.362-0.155,0.508
		c-0.105,0.146-0.263,0.258-0.471,0.328c-0.209,0.074-0.529,0.109-0.964,0.109h-0.83V19.074L16.118,19.074z M18.465,23.756
		c-0.146,0.189-0.328,0.314-0.538,0.373c-0.214,0.061-0.479,0.09-0.802,0.09h-0.554c-0.184,0-0.297-0.011-0.338-0.029
		c-0.043-0.02-0.072-0.055-0.09-0.104c-0.015-0.039-0.023-0.176-0.025-0.408v-1.641h0.98c0.429,0,0.75,0.041,0.958,0.118
		c0.211,0.079,0.365,0.198,0.473,0.354c0.104,0.156,0.158,0.347,0.158,0.57C18.688,23.343,18.613,23.568,18.465,23.756z"/>
</g>
<g>
</g>
<g>
</g>
<g>
</g>
<g>
</g>
<g>
</g>
<g>
</g>
<g>
</g>
<g>
</g>
<g>
</g>
<g>
</g>
<g>
</g>
<g>
</g>
<g>
</g>
<g>
</g>
<g>
</g>
</svg>
