<?xml version="1.0" encoding="iso-8859-1"?>
<!-- Generator: Adobe Illustrator 16.0.0, SVG Export Plug-In . SVG Version: 6.00 Build 0)  -->
<!DOCTYPE svg PUBLIC "-//W3C//DTD SVG 1.1//EN" "http://www.w3.org/Graphics/SVG/1.1/DTD/svg11.dtd">
<svg version="1.1" id="Capa_1" xmlns="http://www.w3.org/2000/svg" xmlns:xlink="http://www.w3.org/1999/xlink" x="0px" y="0px"
	 width="36.748px" height="36.748px" viewBox="0 0 36.748 36.748" style="enable-background:new 0 0 36.748 36.748;"
	 xml:space="preserve">
<g>
	<path d="M22.016,20.27c-0.17-0.291-0.398-0.52-0.688-0.682c-0.201-0.115-0.49-0.222-0.868-0.316
		c0.354-0.121,0.637-0.271,0.852-0.457c0.215-0.184,0.381-0.396,0.494-0.633c0.113-0.241,0.172-0.494,0.172-0.761
		c0-0.366-0.107-0.704-0.324-1.011c-0.217-0.307-0.525-0.543-0.926-0.706c-0.156-0.064-0.343-0.112-0.543-0.151v-1.425h-1.369v1.329
		h-0.88v-1.329h-1.369v1.329h-2.088v1.118h0.319c0.212,0,0.355,0.019,0.432,0.058c0.075,0.038,0.128,0.091,0.159,0.156
		c0.031,0.065,0.046,0.219,0.046,0.458v4.507c0,0.236-0.015,0.389-0.046,0.455c-0.031,0.066-0.084,0.12-0.159,0.156
		c-0.076,0.037-0.219,0.055-0.432,0.055h-0.319v1.118h2.088v1.329h1.368v-1.329h0.779c0.035,0,0.067-0.001,0.103-0.001v1.33h1.367
		v-1.444c0.23-0.044,0.434-0.1,0.604-0.17c0.473-0.188,0.838-0.464,1.096-0.826c0.259-0.36,0.388-0.755,0.388-1.184
		C22.27,20.887,22.186,20.561,22.016,20.27z M17.433,16.761h0.886c0.518,0,0.876,0.032,1.078,0.096
		c0.199,0.063,0.354,0.171,0.461,0.321c0.105,0.151,0.158,0.332,0.158,0.544c0,0.205-0.056,0.385-0.168,0.542
		c-0.111,0.156-0.279,0.272-0.5,0.352c-0.223,0.076-0.564,0.115-1.029,0.115h-0.886V16.761z M19.936,21.754
		c-0.156,0.201-0.35,0.333-0.576,0.396c-0.225,0.063-0.508,0.097-0.853,0.097h-0.59c-0.196,0-0.316-0.011-0.361-0.032
		s-0.076-0.059-0.095-0.111c-0.016-0.043-0.025-0.188-0.029-0.437v-1.75h1.046c0.458,0,0.799,0.043,1.023,0.128
		c0.224,0.084,0.392,0.21,0.503,0.376c0.112,0.167,0.167,0.369,0.167,0.609C20.173,21.312,20.094,21.555,19.936,21.754z
		 M33.764,25.705c-0.104-1.489-0.803-3.196-2.089-5.02c-0.28-0.396-0.59-0.793-0.916-1.188c0.326-0.396,0.636-0.792,0.916-1.189
		c2.12-3.002,2.666-5.704,1.538-7.605c-0.936-1.576-2.884-2.409-5.638-2.409c-0.933,0-1.931,0.097-2.97,0.281
		c-0.986-2.632-2.33-4.6-3.889-5.595c0.043-0.182,0.073-0.369,0.073-0.563C20.79,1.082,19.708,0,18.373,0s-2.417,1.082-2.417,2.417
		c0,0.195,0.029,0.382,0.073,0.563c-1.558,0.995-2.901,2.963-3.888,5.595c-1.039-0.184-2.036-0.281-2.969-0.281
		c-2.754,0-4.703,0.833-5.638,2.409c-1.128,1.902-0.582,4.604,1.538,7.605c0.281,0.397,0.59,0.793,0.916,1.189
		c-0.326,0.396-0.635,0.792-0.916,1.188c-1.286,1.821-1.983,3.529-2.088,5.02c-0.85,0.374-1.445,1.221-1.445,2.21
		c0,1.334,1.082,2.417,2.417,2.417c0.506,0,0.975-0.156,1.363-0.422c1.005,0.52,2.295,0.793,3.854,0.793
		c0.933,0,1.929-0.098,2.968-0.281c1.456,3.883,3.687,6.326,6.233,6.326s4.776-2.445,6.231-6.326
		c1.039,0.184,2.035,0.281,2.97,0.281c0,0,0,0,0.001,0c1.558,0,2.848-0.276,3.854-0.793c0.389,0.266,0.856,0.422,1.362,0.422
		c1.335,0,2.417-1.082,2.417-2.417C35.208,26.926,34.613,26.079,33.764,25.705z M27.575,9.293c1.661,0,3.837,0.333,4.776,1.919
		c0.901,1.521,0.356,3.897-1.494,6.519c-0.235,0.333-0.491,0.669-0.762,1.001c-1.133-1.255-2.479-2.481-3.984-3.639
		c-0.24-2.026-0.637-3.9-1.172-5.552C25.867,9.385,26.755,9.293,27.575,9.293z M21.943,25.52c-1.174,0.696-2.373,1.312-3.569,1.851
		c-1.196-0.538-2.396-1.153-3.57-1.851c-1.134-0.672-2.204-1.396-3.211-2.147c-0.138-1.248-0.219-2.542-0.219-3.873
		c0-1.332,0.081-2.625,0.219-3.873c1.007-0.752,2.077-1.475,3.212-2.148c1.175-0.696,2.374-1.312,3.569-1.85
		c1.196,0.538,2.396,1.153,3.569,1.85c1.135,0.673,2.205,1.396,3.211,2.148c0.139,1.248,0.22,2.542,0.22,3.873
		s-0.081,2.625-0.22,3.873C24.148,24.123,23.079,24.848,21.943,25.52z M24.979,24.738c-0.25,1.631-0.607,3.146-1.058,4.508
		c-1.38-0.307-2.832-0.757-4.312-1.354c0.949-0.459,1.9-0.955,2.845-1.515C23.331,25.857,24.171,25.309,24.979,24.738z
		 M17.139,27.895c-1.48,0.597-2.932,1.047-4.312,1.353c-0.449-1.36-0.808-2.877-1.057-4.508c0.807,0.569,1.646,1.12,2.523,1.641
		C15.237,26.938,16.189,27.436,17.139,27.895z M10.499,22.52c-1.196-0.974-2.267-1.988-3.188-3.021
		c0.921-1.034,1.992-2.049,3.188-3.022c-0.077,0.981-0.125,1.986-0.125,3.022S10.422,21.54,10.499,22.52z M11.77,14.258
		c0.249-1.631,0.608-3.148,1.057-4.508c1.38,0.306,2.832,0.756,4.312,1.352c-0.95,0.458-1.901,0.956-2.844,1.515
		C13.417,13.137,12.578,13.688,11.77,14.258z M19.609,11.102c1.479-0.596,2.932-1.046,4.312-1.352
		c0.449,1.359,0.808,2.877,1.058,4.508c-0.808-0.57-1.646-1.121-2.523-1.641C21.51,12.058,20.559,11.56,19.609,11.102z
		 M26.249,16.476c1.196,0.973,2.269,1.988,3.188,3.022c-0.92,1.034-1.992,2.049-3.188,3.021c0.078-0.98,0.125-1.985,0.125-3.021
		S26.326,17.456,26.249,16.476z M16.477,3.896c0.442,0.565,1.123,0.936,1.897,0.936c0.774,0,1.455-0.37,1.897-0.936
		c1.287,0.875,2.431,2.605,3.31,4.897c-1.667,0.376-3.423,0.962-5.207,1.74c-1.784-0.778-3.539-1.364-5.207-1.74
		C14.046,6.501,15.19,4.771,16.477,3.896z M5.89,17.731c-1.851-2.622-2.396-4.998-1.494-6.519c0.94-1.586,3.117-1.919,4.777-1.919
		c0.82,0,1.708,0.092,2.635,0.25c-0.534,1.652-0.931,3.525-1.171,5.552c-1.507,1.156-2.853,2.382-3.985,3.639
		C6.381,18.4,6.126,18.064,5.89,17.731z M9.173,29.703c-0.99,0-2.161-0.125-3.146-0.559c0.215-0.36,0.347-0.778,0.347-1.229
		c0-1.312-1.048-2.375-2.352-2.411c0.157-1.248,0.78-2.697,1.868-4.238c0.236-0.334,0.492-0.668,0.762-1.002
		c1.132,1.256,2.478,2.481,3.985,3.639c0.24,2.025,0.637,3.898,1.17,5.553C10.881,29.611,9.993,29.703,9.173,29.703z M18.374,35.748
		c-2.045,0-3.914-2.173-5.207-5.545c1.668-0.375,3.423-0.961,5.207-1.74c1.784,0.778,3.539,1.364,5.207,1.74
		C22.288,33.575,20.419,35.748,18.374,35.748z M27.575,29.703c-0.82,0-1.708-0.094-2.634-0.25c0.533-1.652,0.931-3.523,1.17-5.553
		c1.507-1.155,2.853-2.381,3.984-3.639c0.271,0.334,0.525,0.668,0.762,1.002c1.088,1.541,1.711,2.992,1.869,4.239
		c-1.306,0.035-2.354,1.099-2.354,2.411c0,0.451,0.132,0.869,0.348,1.23C29.734,29.577,28.566,29.703,27.575,29.703L27.575,29.703z"
		/>
</g>
<g>
</g>
<g>
</g>
<g>
</g>
<g>
</g>
<g>
</g>
<g>
</g>
<g>
</g>
<g>
</g>
<g>
</g>
<g>
</g>
<g>
</g>
<g>
</g>
<g>
</g>
<g>
</g>
<g>
</g>
</svg>
