<?xml version="1.0" encoding="iso-8859-1"?>
<!-- Generator: Adobe Illustrator 16.0.0, SVG Export Plug-In . SVG Version: 6.00 Build 0)  -->
<!DOCTYPE svg PUBLIC "-//W3C//DTD SVG 1.1//EN" "http://www.w3.org/Graphics/SVG/1.1/DTD/svg11.dtd">
<svg version="1.1" id="Capa_1" xmlns="http://www.w3.org/2000/svg" xmlns:xlink="http://www.w3.org/1999/xlink" x="0px" y="0px"
	 width="36.625px" height="36.625px" viewBox="0 0 36.625 36.625" style="enable-background:new 0 0 36.625 36.625;"
	 xml:space="preserve">
<g>
	<path d="M35.623,27.416h-1.57c0.105-0.158,0.182-0.337,0.182-0.542V8.208c0-0.552-0.446-1-1-1H3.388c-0.553,0-1,0.448-1,1v18.667
		c0,0.205,0.076,0.384,0.182,0.542H1c-0.553,0-1,0.447-1,1s0.447,1,1,1h34.625c0.553,0,1-0.447,1-1S36.175,27.416,35.623,27.416z
		 M18.419,21.213c0.486,0,0.848,0.046,1.084,0.136c0.235,0.09,0.414,0.223,0.531,0.398c0.12,0.176,0.18,0.391,0.18,0.645
		c0,0.299-0.081,0.553-0.25,0.768c-0.168,0.213-0.372,0.354-0.608,0.42c-0.238,0.066-0.541,0.104-0.902,0.104h-0.625
		c-0.209,0-0.336-0.014-0.384-0.035c-0.047-0.022-0.079-0.062-0.1-0.119c-0.019-0.047-0.029-0.199-0.031-0.461v-1.855L18.419,21.213
		L18.419,21.213z M17.313,19.957V17.87h0.938c0.549,0,0.931,0.034,1.144,0.102c0.213,0.068,0.375,0.181,0.485,0.341
		c0.113,0.16,0.17,0.352,0.17,0.578c0,0.217-0.062,0.407-0.178,0.573c-0.119,0.166-0.297,0.289-0.531,0.371
		c-0.235,0.081-0.6,0.123-1.09,0.123L17.313,19.957L17.313,19.957z M17.845,25.048h0.822c0.037,0,0.072-0.001,0.106-0.001v0.828
		h-0.93L17.845,25.048L17.845,25.048z M4.387,9.208h27.845v16.667h-4.086V10.601h-4.888v15.275h-3.034v-0.947
		c0.242-0.047,0.459-0.105,0.641-0.18c0.5-0.2,0.887-0.491,1.16-0.875c0.271-0.381,0.412-0.8,0.412-1.254
		c0-0.381-0.092-0.727-0.271-1.034c-0.178-0.31-0.424-0.549-0.729-0.722c-0.213-0.122-0.52-0.234-0.92-0.338
		c0.375-0.127,0.674-0.287,0.9-0.48c0.229-0.193,0.404-0.418,0.521-0.671c0.123-0.254,0.184-0.521,0.184-0.804
		c0-0.389-0.113-0.746-0.346-1.071c-0.228-0.325-0.555-0.574-0.979-0.748c-0.166-0.067-0.361-0.119-0.576-0.16v-1.509h-1.449v1.408
		h-0.93v-1.408h-1.449v1.408h-2.213v1.184h0.337c0.225,0,0.379,0.021,0.458,0.062c0.08,0.041,0.136,0.096,0.169,0.166
		c0.03,0.07,0.049,0.231,0.049,0.484v4.774c0,0.25-0.019,0.41-0.049,0.48c-0.033,0.071-0.089,0.127-0.169,0.166
		c-0.079,0.039-0.233,0.06-0.458,0.06h-0.337v1.185h2.213v0.826H13.36v-6.146H8.473v6.146H4.386L4.387,9.208L4.387,9.208z"/>
</g>
<g>
</g>
<g>
</g>
<g>
</g>
<g>
</g>
<g>
</g>
<g>
</g>
<g>
</g>
<g>
</g>
<g>
</g>
<g>
</g>
<g>
</g>
<g>
</g>
<g>
</g>
<g>
</g>
<g>
</g>
</svg>
