<?xml version="1.0" encoding="iso-8859-1"?>
<!-- Generator: Adobe Illustrator 16.0.0, SVG Export Plug-In . SVG Version: 6.00 Build 0)  -->
<!DOCTYPE svg PUBLIC "-//W3C//DTD SVG 1.1//EN" "http://www.w3.org/Graphics/SVG/1.1/DTD/svg11.dtd">
<svg version="1.1" id="Capa_1" xmlns="http://www.w3.org/2000/svg" xmlns:xlink="http://www.w3.org/1999/xlink" x="0px" y="0px"
	 width="35.086px" height="35.085px" viewBox="0 0 35.086 35.085" style="enable-background:new 0 0 35.086 35.085;"
	 xml:space="preserve">
<g>
	<path d="M22.818,19.935h0.938v-0.914h0.534c0.022,0,0.046,0,0.069,0v0.914h0.938v-0.992c0.158-0.029,0.297-0.068,0.416-0.115
		c0.324-0.131,0.574-0.318,0.752-0.566c0.177-0.248,0.267-0.519,0.267-0.814c0-0.245-0.059-0.468-0.176-0.669
		c-0.115-0.199-0.275-0.355-0.473-0.467c-0.139-0.08-0.336-0.152-0.598-0.22c0.244-0.082,0.438-0.187,0.586-0.313
		c0.146-0.125,0.261-0.271,0.339-0.436c0.079-0.164,0.118-0.338,0.118-0.521c0-0.252-0.074-0.482-0.223-0.693
		c-0.15-0.211-0.361-0.372-0.637-0.484c-0.105-0.045-0.232-0.076-0.373-0.104v-0.979h-0.938v0.913h-0.604v-0.913h-0.938v0.913
		h-1.435v0.769H21.6c0.146,0,0.246,0.013,0.297,0.039c0.054,0.027,0.088,0.062,0.11,0.107c0.021,0.045,0.031,0.149,0.031,0.312
		v3.097c0,0.162-0.011,0.267-0.031,0.313c-0.022,0.045-0.058,0.08-0.11,0.106c-0.052,0.023-0.149,0.037-0.297,0.037h-0.218v0.769
		h1.435v0.912H22.818z M23.413,14.367h0.608c0.354,0,0.602,0.021,0.738,0.066c0.139,0.043,0.243,0.116,0.315,0.221
		c0.073,0.104,0.108,0.228,0.108,0.373c0,0.142-0.037,0.265-0.115,0.373c-0.075,0.105-0.19,0.188-0.344,0.239
		c-0.154,0.052-0.389,0.079-0.707,0.079h-0.606L23.413,14.367L23.413,14.367z M23.413,16.535h0.718c0.314,0,0.551,0.029,0.703,0.088
		c0.152,0.058,0.268,0.145,0.346,0.259c0.077,0.114,0.114,0.253,0.114,0.417c0,0.193-0.054,0.359-0.163,0.498
		c-0.107,0.139-0.24,0.229-0.396,0.271c-0.152,0.043-0.349,0.065-0.584,0.065h-0.404c-0.135,0-0.219-0.008-0.248-0.022
		c-0.03-0.015-0.053-0.039-0.064-0.075c-0.011-0.03-0.018-0.13-0.02-0.3L23.413,16.535L23.413,16.535z M20.85,19.947h-3.167v-4.375
		h3.167V19.947z M30.436,19.947h-3.168V9.653h3.168V19.947z M10.958,6.899c-0.028,0-0.054,0.008-0.081,0.008
		c-0.082-0.002-0.162-0.008-0.245-0.008H10.958z M10.758,19.417c0.01,0,0.021-0.002,0.031-0.002c0.015,0,0.028,0.002,0.042,0.002
		H10.758z M15.362,14.804c-0.709,2.605-2.838,4.532-4.573,4.61c-1.903-0.041-3.777-2.001-4.501-4.621
		c-0.012,0.004-0.021,0.016-0.032,0.018c-0.339,0.058-0.689-0.35-0.783-0.906c-0.095-0.559,0.103-1.057,0.44-1.114
		c0.024-0.004,0.048,0.012,0.074,0.013c-0.15-4.035,2.23-5.885,4.889-5.896c2.579,0.066,4.626,1.586,4.724,5.896
		c0.021,0,0.042-0.014,0.064-0.011c0.338,0.059,0.535,0.557,0.44,1.115C16.015,14.44,15.689,14.826,15.362,14.804z M35.086,24.441
		V3.567h-32.5v18.125C0.975,22.761,0,24.415,0,26.898h13.301l-3.458,6.069l1.737,0.99l4.023-7.06h5.978
		c0-0.008-0.001-0.014-0.001-0.021h0.479l4.034,7.08l1.737-0.99l-3.471-6.09h4.478v-2H21.32c-0.043-0.149-0.09-0.295-0.143-0.438
		h13.907L35.086,24.441L35.086,24.441z M11.957,24.879l-0.381-3.065l0.597-0.488h-1.445H9.407l0.597,0.488l-0.381,3.065H9.616
		l-2.407-4.717c-0.943,0.127-1.821,0.319-2.624,0.588V5.565h28.5v16.875H19.913c-1.288-1.279-3.233-1.967-5.541-2.277l-2.409,4.717
		L11.957,24.879L11.957,24.879z M22.336,3.128h-7v-2h7V3.128z"/>
</g>
<g>
</g>
<g>
</g>
<g>
</g>
<g>
</g>
<g>
</g>
<g>
</g>
<g>
</g>
<g>
</g>
<g>
</g>
<g>
</g>
<g>
</g>
<g>
</g>
<g>
</g>
<g>
</g>
<g>
</g>
</svg>
