<?xml version="1.0" encoding="iso-8859-1"?>
<!-- Generator: Adobe Illustrator 16.0.0, SVG Export Plug-In . SVG Version: 6.00 Build 0)  -->
<!DOCTYPE svg PUBLIC "-//W3C//DTD SVG 1.1//EN" "http://www.w3.org/Graphics/SVG/1.1/DTD/svg11.dtd">
<svg version="1.1" id="Capa_1" xmlns="http://www.w3.org/2000/svg" xmlns:xlink="http://www.w3.org/1999/xlink" x="0px" y="0px"
	 width="33.808px" height="33.807px" viewBox="0 0 33.808 33.807" style="enable-background:new 0 0 33.808 33.807;"
	 xml:space="preserve">
<g>
	<path d="M22.203,28.866v2.527c0,0.396-0.312,0.723-0.692,0.723h-9.308c-0.383,0-0.693-0.324-0.693-0.723v-2.527
		c0-0.398,0.311-0.721,0.693-0.721h9.308C21.892,28.145,22.203,28.467,22.203,28.866z M10.001,28.145H0.694
		C0.311,28.145,0,28.467,0,28.866v2.527c0,0.398,0.312,0.723,0.694,0.723h9.307c0.384,0,0.694-0.322,0.694-0.723v-2.527
		C10.695,28.467,10.384,28.145,10.001,28.145z M33.113,23.27h-9.307c-0.384,0-0.693,0.324-0.693,0.724v2.526
		c0,0.396,0.311,0.721,0.693,0.721h9.307c0.383,0,0.694-0.322,0.694-0.721v-2.526C33.808,23.594,33.496,23.27,33.113,23.27z
		 M24.115,17.493c-0.158,0.326-0.332,0.643-0.521,0.949c0.065-0.023,0.136-0.045,0.211-0.045h9.308c0.381,0,0.693,0.322,0.693,0.721
		v2.527c0,0.398-0.312,0.721-0.693,0.721h-9.308c-0.384,0-0.694-0.32-0.694-0.721v-2.482c-1.424,1.953-3.47,3.422-5.851,4.107h4.247
		c0.382,0,0.693,0.322,0.693,0.723v2.527c0,0.396-0.312,0.721-0.693,0.721H12.2c-0.383,0-0.693-0.324-0.693-0.721v-2.527
		c0-0.234,0.114-0.434,0.281-0.566c-4.9-1.108-8.573-5.494-8.573-10.727c0-6.068,4.937-11.008,11.006-11.008
		c6.068,0,11.008,4.938,11.008,11.008c0,0.277-0.021,0.55-0.043,0.822h7.926c0.383,0,0.694,0.323,0.694,0.723v2.527
		c0,0.396-0.312,0.721-0.694,0.721H24.115z M24.23,12.7c0-5.519-4.49-10.008-10.008-10.008C8.705,2.692,4.217,7.181,4.217,12.7
		c0,5.52,4.488,10.007,10.006,10.007C19.74,22.707,24.23,18.217,24.23,12.7z M33.113,28.145h-9.307
		c-0.384,0-0.693,0.322-0.693,0.721v2.527c0,0.398,0.311,0.723,0.693,0.723h9.307c0.383,0,0.694-0.322,0.694-0.723v-2.527
		C33.808,28.467,33.496,28.145,33.113,28.145z M18.417,5.378c1.282,0.736,2.354,1.8,3.1,3.077c0.093,0.159,0.261,0.248,0.433,0.248
		c0.086,0,0.172-0.021,0.252-0.068c0.238-0.139,0.318-0.444,0.181-0.685c-0.833-1.428-2.031-2.617-3.466-3.439
		c-0.24-0.138-0.547-0.056-0.684,0.186C18.095,4.934,18.178,5.239,18.417,5.378z M23.16,12.182c-0.275,0-0.5,0.242-0.5,0.52
		c0,1.482-0.391,2.939-1.127,4.217c-0.139,0.236-0.058,0.545,0.183,0.683c0.078,0.047,0.165,0.067,0.25,0.067
		c0.173,0,0.341-0.091,0.433-0.25c0.826-1.428,1.262-3.059,1.262-4.717v-0.037C23.66,12.387,23.438,12.182,23.16,12.182z
		 M9.733,5.471c0.085,0,0.172-0.021,0.251-0.068c1.273-0.739,2.73-1.135,4.213-1.141c0.276-0.001,0.499-0.226,0.498-0.502
		c-0.001-0.275-0.225-0.498-0.5-0.498c0,0-0.001,0-0.002,0c-1.658,0.006-3.288,0.447-4.712,1.277C9.242,4.678,9.162,4.982,9.3,5.223
		C9.393,5.383,9.561,5.471,9.733,5.471z M6.721,7.817C6.48,7.678,6.176,7.76,6.037,8.002c-0.818,1.423-1.251,3.049-1.251,4.716
		l0.5,0.002h-0.5c0,0.276,0.225,0.491,0.5,0.491c0.276,0,0.5-0.231,0.5-0.509c0-1.477,0.388-2.93,1.119-4.202
		C7.043,8.259,6.96,7.954,6.721,7.817z M18.447,20.006c-1.275,0.739-2.732,1.131-4.215,1.131c-0.276,0-0.5,0.226-0.5,0.5
		c0,0.276,0.224,0.5,0.5,0.5l0,0c1.657,0,3.288-0.438,4.715-1.266c0.238-0.139,0.32-0.443,0.183-0.684S18.685,19.868,18.447,20.006z
		 M10.014,20.014c-1.28-0.736-2.351-1.803-3.092-3.08c-0.141-0.24-0.445-0.322-0.684-0.184c-0.239,0.139-0.32,0.444-0.181,0.686
		c0.83,1.43,2.024,2.619,3.457,3.445c0.079,0.045,0.165,0.065,0.25,0.065c0.173,0,0.341-0.09,0.434-0.25
		C10.336,20.459,10.254,20.153,10.014,20.014z M15.028,11.97c0.183-0.063,0.321-0.159,0.413-0.291
		c0.092-0.127,0.14-0.276,0.14-0.446c0-0.177-0.044-0.324-0.132-0.449c-0.087-0.125-0.215-0.213-0.381-0.266
		c-0.166-0.054-0.462-0.078-0.89-0.078h-0.732v1.627h0.732C14.562,12.067,14.844,12.034,15.028,11.97z M15.156,13.151
		c-0.186-0.069-0.467-0.104-0.847-0.104h-0.864v1.444c0.003,0.205,0.011,0.326,0.023,0.359c0.016,0.045,0.042,0.076,0.079,0.094
		c0.036,0.019,0.136,0.025,0.298,0.025h0.487c0.283,0,0.519-0.025,0.705-0.078c0.187-0.051,0.345-0.162,0.476-0.328
		c0.131-0.166,0.195-0.365,0.195-0.598c0-0.197-0.045-0.365-0.138-0.502C15.479,13.328,15.342,13.222,15.156,13.151z M21.83,12.7
		c0,4.201-3.405,7.605-7.606,7.605c-4.201,0-7.606-3.404-7.606-7.605c0-4.202,3.405-7.606,7.606-7.606
		C18.425,5.094,21.83,8.498,21.83,12.7z M17.443,14.143c0-0.296-0.072-0.564-0.211-0.806c-0.141-0.242-0.331-0.431-0.569-0.563
		c-0.167-0.098-0.405-0.184-0.718-0.264c0.292-0.1,0.526-0.225,0.704-0.377c0.178-0.15,0.313-0.326,0.407-0.523
		c0.096-0.196,0.143-0.405,0.143-0.627c0-0.303-0.09-0.582-0.268-0.836c-0.18-0.252-0.435-0.447-0.767-0.584
		c-0.128-0.053-0.28-0.092-0.446-0.123V8.262h-1.131V9.36H13.86V8.262h-1.132V9.36h-1.724v0.924h0.265
		c0.176,0,0.294,0.017,0.355,0.05c0.063,0.028,0.106,0.073,0.133,0.129c0.025,0.054,0.038,0.181,0.038,0.379v3.724
		c0,0.194-0.012,0.319-0.038,0.375c-0.025,0.057-0.069,0.1-0.133,0.131c-0.062,0.029-0.18,0.045-0.355,0.045h-0.265v0.924h1.726
		v1.098h1.132v-1.098h0.642c0.029,0,0.057-0.002,0.084-0.002v1.101h1.132v-1.195c0.188-0.037,0.355-0.082,0.499-0.139
		c0.39-0.156,0.691-0.385,0.904-0.684C17.336,14.823,17.443,14.498,17.443,14.143z"/>
</g>
<g>
</g>
<g>
</g>
<g>
</g>
<g>
</g>
<g>
</g>
<g>
</g>
<g>
</g>
<g>
</g>
<g>
</g>
<g>
</g>
<g>
</g>
<g>
</g>
<g>
</g>
<g>
</g>
<g>
</g>
</svg>
