<?xml version="1.0" encoding="iso-8859-1"?>
<!-- Generator: Adobe Illustrator 16.0.0, SVG Export Plug-In . SVG Version: 6.00 Build 0)  -->
<!DOCTYPE svg PUBLIC "-//W3C//DTD SVG 1.1//EN" "http://www.w3.org/Graphics/SVG/1.1/DTD/svg11.dtd">
<svg version="1.1" id="Capa_1" xmlns="http://www.w3.org/2000/svg" xmlns:xlink="http://www.w3.org/1999/xlink" x="0px" y="0px"
	 width="43.124px" height="43.124px" viewBox="0 0 43.124 43.124" style="enable-background:new 0 0 43.124 43.124;"
	 xml:space="preserve">
<g>
	<path d="M38.133,17.312c-0.012,0-0.023,0.003-0.034,0.003c-0.035-0.001-0.069-0.003-0.104-0.003H38.133z M38.081,22.632
		c-0.006,0-0.013-0.002-0.019-0.002c-0.004,0-0.009,0.002-0.013,0.002H38.081z M36.136,20.673c0.004,0,0.008-0.006,0.013-0.006
		c0.309,1.112,1.104,1.944,1.913,1.963c0.737-0.032,1.642-0.853,1.942-1.959c0.14,0.009,0.277-0.154,0.315-0.383
		c0.04-0.236-0.043-0.449-0.188-0.474c-0.01-0.002-0.019,0.004-0.026,0.004c-0.042-1.831-0.911-2.478-2.007-2.505
		c-1.13,0.005-2.143,0.791-2.078,2.506c-0.011,0-0.021-0.007-0.031-0.005c-0.144,0.024-0.228,0.235-0.188,0.474
		C35.842,20.526,35.991,20.699,36.136,20.673z M39.584,22.949l-1.026,2.01l-0.163-1.309l0.254-0.207h-0.613h-0.562l0.254,0.207
		l-0.163,1.309l-1.023-2.01c-1.785,0.24-3.064,1.006-3.064,2.863h9.172C42.648,23.955,41.368,23.189,39.584,22.949z M4.995,17.312
		c0.035,0,0.069,0.002,0.104,0.003c0.011,0,0.022-0.003,0.034-0.003H4.995z M5.08,22.632c-0.006,0-0.012-0.002-0.018-0.002
		c-0.004,0-0.009,0.002-0.013,0.002H5.08z M3.136,20.673c0.004,0,0.008-0.006,0.013-0.006c0.308,1.112,1.104,1.944,1.913,1.963
		c0.737-0.032,1.642-0.853,1.943-1.959c0.139,0.009,0.277-0.154,0.316-0.383c0.04-0.236-0.043-0.449-0.188-0.474
		c-0.009-0.002-0.019,0.004-0.027,0.004c-0.042-1.831-0.911-2.478-2.007-2.505c-1.13,0.005-2.142,0.791-2.078,2.506
		c-0.011,0-0.021-0.007-0.031-0.005c-0.144,0.024-0.228,0.235-0.188,0.474C2.842,20.526,2.991,20.699,3.136,20.673z M6.584,22.949
		l-1.026,2.01L5.395,23.65l0.254-0.207H5.035H4.473l0.254,0.207l-0.163,1.309l-1.025-2.01c-1.784,0.24-3.064,1.006-3.064,2.863
		h9.172C9.648,23.955,8.368,23.189,6.584,22.949z M21.495,0c0.035,0,0.069,0.002,0.104,0.004C21.61,0.004,21.621,0,21.633,0H21.495z
		 M21.58,5.32c-0.006,0-0.012-0.001-0.018-0.001c-0.004,0-0.009,0.001-0.013,0.001H21.58z M19.636,3.362
		c0.004-0.001,0.008-0.006,0.013-0.007c0.308,1.113,1.104,1.945,1.913,1.964c0.737-0.032,1.642-0.853,1.942-1.959
		c0.14,0.009,0.277-0.155,0.315-0.383c0.04-0.237-0.043-0.449-0.188-0.474c-0.01-0.002-0.019,0.004-0.026,0.004
		c-0.042-1.831-0.911-2.479-2.007-2.506c-1.13,0.006-2.142,0.791-2.078,2.506c-0.011,0-0.021-0.006-0.031-0.004
		c-0.144,0.023-0.228,0.235-0.188,0.474C19.342,3.212,19.491,3.386,19.636,3.362z M23.084,5.636l-1.026,2.009l-0.163-1.308
		l0.254-0.207h-0.614h-0.562l0.254,0.207l-0.163,1.308l-1.025-2.009c-1.784,0.24-3.064,1.005-3.064,2.863h9.172
		C26.148,6.641,24.868,5.876,23.084,5.636z M21.495,34.624c0.035,0,0.069,0.002,0.104,0.004c0.011,0,0.022-0.004,0.034-0.004H21.495
		z M21.58,39.945c-0.006,0-0.012-0.002-0.018-0.002c-0.004,0-0.009,0.002-0.013,0.002H21.58z M19.521,37.132
		c-0.011,0-0.021-0.006-0.031-0.004c-0.144,0.022-0.228,0.235-0.188,0.474c0.04,0.235,0.188,0.41,0.333,0.385
		c0.004,0,0.008-0.006,0.013-0.006c0.308,1.113,1.104,1.944,1.913,1.963c0.736-0.031,1.643-0.853,1.943-1.959
		c0.139,0.01,0.275-0.154,0.314-0.383c0.04-0.236-0.043-0.449-0.188-0.474c-0.01-0.002-0.02,0.004-0.027,0.004
		c-0.042-1.832-0.911-2.479-2.007-2.506C20.469,34.632,19.458,35.417,19.521,37.132z M23.084,40.262l-1.026,2.008l-0.163-1.308
		l0.254-0.207h-0.614h-0.562l0.254,0.207l-0.163,1.308l-1.025-2.008c-1.784,0.239-3.064,1.004-3.064,2.862h9.172
		C26.148,41.266,24.868,40.501,23.084,40.262z M22.286,20.869c0.163-0.059,0.286-0.145,0.369-0.26
		c0.083-0.115,0.125-0.25,0.125-0.402c0-0.155-0.039-0.291-0.117-0.401c-0.078-0.111-0.192-0.19-0.343-0.238
		c-0.147-0.047-0.415-0.069-0.798-0.069h-0.657v1.459h0.657C21.867,20.955,22.12,20.927,22.286,20.869z M28.384,21.523
		c0,3.77-3.056,6.822-6.823,6.822c-3.768,0-6.821-3.054-6.821-6.822s3.054-6.822,6.821-6.822
		C25.331,14.701,28.384,17.755,28.384,21.523z M24.45,22.818c0-0.266-0.062-0.508-0.188-0.723c-0.126-0.218-0.297-0.386-0.512-0.505
		c-0.148-0.088-0.363-0.166-0.645-0.237c0.263-0.088,0.473-0.199,0.631-0.336c0.159-0.138,0.281-0.293,0.365-0.472
		c0.085-0.178,0.127-0.365,0.127-0.562c0-0.272-0.079-0.522-0.238-0.752c-0.16-0.226-0.391-0.399-0.688-0.521
		c-0.115-0.049-0.252-0.084-0.401-0.111v-1.057h-1.015v0.983h-0.651v-0.983h-1.015v0.983h-1.548v0.828h0.237
		c0.157,0,0.264,0.017,0.319,0.043c0.057,0.026,0.096,0.067,0.118,0.117c0.023,0.047,0.034,0.162,0.034,0.34v3.339
		c0,0.176-0.011,0.285-0.034,0.338c-0.022,0.051-0.062,0.088-0.118,0.113c-0.056,0.026-0.162,0.041-0.319,0.041h-0.237v0.828h1.548
		v0.985h1.015v-0.985h0.576c0.025,0,0.05,0,0.075,0v0.985h1.015v-1.067c0.17-0.033,0.319-0.074,0.447-0.125
		c0.353-0.142,0.621-0.347,0.812-0.613C24.355,23.428,24.45,23.137,24.45,22.818z M22.399,21.93
		c-0.166-0.062-0.419-0.095-0.759-0.095h-0.775v1.295c0.004,0.187,0.01,0.293,0.021,0.322c0.014,0.041,0.038,0.067,0.071,0.084
		s0.122,0.022,0.267,0.022h0.438c0.254,0,0.465-0.022,0.631-0.07c0.168-0.047,0.31-0.146,0.428-0.293
		c0.117-0.149,0.175-0.329,0.175-0.536c0-0.179-0.04-0.328-0.124-0.451C22.689,22.085,22.565,21.992,22.399,21.93z M33.226,22.062
		h-3.019c-0.271,4.365-3.775,7.856-8.146,8.108v3.056c0,0.274-0.224,0.5-0.5,0.5s-0.5-0.226-0.5-0.5v-3.056
		c-4.37-0.25-7.875-3.743-8.146-8.108H9.897c-0.276,0-0.5-0.226-0.5-0.5c0-0.275,0.224-0.5,0.5-0.5h3.014
		c0.233-4.4,3.754-7.935,8.149-8.187V9.897c0-0.276,0.224-0.5,0.5-0.5s0.5,0.224,0.5,0.5v2.979c4.396,0.252,7.917,3.785,8.147,8.187
		h3.016c0.275,0,0.5,0.225,0.5,0.5C33.723,21.837,33.502,22.062,33.226,22.062z M29.235,21.523c0-4.23-3.441-7.672-7.674-7.672
		c-4.23,0-7.672,3.441-7.672,7.672c0,4.23,3.441,7.674,7.672,7.674C25.792,29.197,29.235,25.753,29.235,21.523z"/>
</g>
<g>
</g>
<g>
</g>
<g>
</g>
<g>
</g>
<g>
</g>
<g>
</g>
<g>
</g>
<g>
</g>
<g>
</g>
<g>
</g>
<g>
</g>
<g>
</g>
<g>
</g>
<g>
</g>
<g>
</g>
</svg>
