<?xml version="1.0" encoding="iso-8859-1"?>
<!-- Generator: Adobe Illustrator 16.0.0, SVG Export Plug-In . SVG Version: 6.00 Build 0)  -->
<!DOCTYPE svg PUBLIC "-//W3C//DTD SVG 1.1//EN" "http://www.w3.org/Graphics/SVG/1.1/DTD/svg11.dtd">
<svg version="1.1" id="Capa_1" xmlns="http://www.w3.org/2000/svg" xmlns:xlink="http://www.w3.org/1999/xlink" x="0px" y="0px"
	 width="34.629px" height="34.629px" viewBox="0 0 34.629 34.629" style="enable-background:new 0 0 34.629 34.629;"
	 xml:space="preserve">
<g>
	<path d="M16.619,0c-0.036,0-0.07,0.008-0.105,0.008C16.407,0.006,16.302-0.001,16.195,0H16.619z M10.507,10.286
		c0.015-0.002,0.025-0.019,0.041-0.021c0.941,3.404,3.377,5.951,5.852,6.007c2.256-0.103,5.022-2.605,5.944-5.992
		c0.425,0.026,0.849-0.474,0.966-1.17c0.123-0.728-0.133-1.373-0.572-1.449c-0.026-0.004-0.055,0.014-0.084,0.014
		c-0.127-5.603-2.787-7.576-6.141-7.661c-3.456,0.016-6.551,2.419-6.355,7.663c-0.033,0-0.063-0.021-0.096-0.016
		C9.624,7.736,9.368,8.384,9.49,9.109C9.61,9.831,10.065,10.359,10.507,10.286z M16.455,16.273c-0.019,0-0.036-0.004-0.055-0.004
		c-0.014,0-0.027,0.004-0.041,0.004H16.455z M23.419,34.629h-0.06c-4.532-2.194-6.776-5.541-7.863-8.631H2.373
		c0-5.686,3.916-8.022,9.372-8.758l3.032,5.94c-0.464-2.775-0.139-4.859-0.139-4.859c5.031-1.569,8.751-3.728,8.751-3.728h0.006
		c0,0,3.771,2.131,8.75,3.728C32.145,18.322,33.91,29.551,23.419,34.629z M31.301,19.35l-0.023-0.333l-0.314-0.105
		c-3.497-1.184-6.292-2.583-7.332-3.129l-0.234-0.123l-0.233,0.125c-1.03,0.553-3.808,1.963-7.333,3.131l-0.322,0.105l-0.02,0.338
		c-0.138,2.293,0.01,10.089,7.671,14.122l0.232,0.123l0.232-0.123C31.372,29.411,31.46,21.635,31.301,19.35z M23.391,32.471
		c-6.573-3.609-7.004-10.264-6.921-12.719c3.123-1.059,5.595-2.26,6.931-2.963c1.168,0.604,3.74,1.857,6.92,2.958
		C30.426,22.189,30.044,28.829,23.391,32.471z M28.048,24.306c0-2.572-2.085-4.657-4.657-4.657s-4.656,2.085-4.656,4.657
		c0,2.571,2.084,4.655,4.656,4.655S28.048,26.877,28.048,24.306z M25.549,25.272c0,0.237-0.072,0.457-0.214,0.655
		c-0.146,0.199-0.347,0.354-0.606,0.457c-0.097,0.039-0.209,0.068-0.336,0.095v0.8h-0.758v-0.735c-0.02,0-0.037,0-0.056,0h-0.433
		v0.735h-0.756v-0.735h-1.158v-0.619h0.179c0.116,0,0.196-0.012,0.237-0.029c0.041-0.021,0.07-0.049,0.088-0.086
		c0.019-0.038,0.025-0.122,0.025-0.253v-2.495c0-0.135-0.008-0.219-0.025-0.253c-0.018-0.037-0.047-0.066-0.088-0.087
		c-0.043-0.021-0.121-0.033-0.237-0.033h-0.179v-0.619h1.158v-0.735h0.756v0.735h0.487v-0.735h0.759v0.789
		c0.11,0.021,0.213,0.049,0.299,0.084c0.224,0.09,0.395,0.221,0.515,0.392c0.118,0.171,0.179,0.356,0.179,0.562
		c0,0.146-0.031,0.286-0.095,0.421c-0.063,0.131-0.155,0.248-0.272,0.352c-0.119,0.102-0.277,0.186-0.472,0.252
		c0.209,0.053,0.37,0.111,0.479,0.176c0.16,0.09,0.287,0.217,0.383,0.379C25.503,24.894,25.549,25.074,25.549,25.272z
		 M23.361,22.792h-0.49v1.09h0.49c0.257,0,0.445-0.021,0.568-0.063s0.215-0.107,0.277-0.193s0.093-0.188,0.093-0.3
		c0-0.118-0.028-0.219-0.087-0.303c-0.061-0.084-0.145-0.143-0.255-0.177C23.846,22.808,23.646,22.792,23.361,22.792z
		 M23.938,25.774c0.125-0.034,0.231-0.107,0.319-0.22c0.087-0.111,0.132-0.244,0.132-0.4c0-0.133-0.031-0.245-0.094-0.337
		c-0.062-0.091-0.154-0.161-0.279-0.208c-0.123-0.048-0.312-0.069-0.566-0.069h-0.578v0.967c0.002,0.14,0.007,0.219,0.016,0.24
		c0.012,0.03,0.028,0.053,0.053,0.064c0.024,0.011,0.092,0.016,0.201,0.016h0.325C23.654,25.827,23.812,25.812,23.938,25.774z"/>
</g>
<g>
</g>
<g>
</g>
<g>
</g>
<g>
</g>
<g>
</g>
<g>
</g>
<g>
</g>
<g>
</g>
<g>
</g>
<g>
</g>
<g>
</g>
<g>
</g>
<g>
</g>
<g>
</g>
<g>
</g>
</svg>
