<?xml version="1.0" encoding="iso-8859-1"?>
<!-- Generator: Adobe Illustrator 16.0.0, SVG Export Plug-In . SVG Version: 6.00 Build 0)  -->
<!DOCTYPE svg PUBLIC "-//W3C//DTD SVG 1.1//EN" "http://www.w3.org/Graphics/SVG/1.1/DTD/svg11.dtd">
<svg version="1.1" id="Capa_1" xmlns="http://www.w3.org/2000/svg" xmlns:xlink="http://www.w3.org/1999/xlink" x="0px" y="0px"
	 width="43.738px" height="43.738px" viewBox="0 0 43.738 43.738" style="enable-background:new 0 0 43.738 43.738;"
	 xml:space="preserve">
<g>
	<path d="M33.547,18.875V17.58c0.207-0.039,0.387-0.089,0.543-0.15c0.422-0.17,0.75-0.416,0.982-0.74
		c0.23-0.323,0.348-0.678,0.348-1.063c0-0.321-0.076-0.612-0.229-0.875c-0.153-0.262-0.359-0.466-0.619-0.61
		c-0.18-0.104-0.439-0.199-0.779-0.285c0.316-0.107,0.572-0.243,0.766-0.407c0.191-0.165,0.34-0.354,0.443-0.569
		c0.102-0.215,0.152-0.441,0.152-0.682c0-0.328-0.096-0.631-0.291-0.906c-0.193-0.275-0.471-0.486-0.83-0.634
		c-0.141-0.058-0.305-0.101-0.486-0.136V9.246H32.32v1.191h-0.789V9.246h-1.229v1.191h-1.871v1.004h0.285
		c0.188,0,0.318,0.018,0.387,0.052c0.067,0.034,0.115,0.081,0.143,0.141c0.029,0.06,0.043,0.195,0.043,0.41v4.043
		c0,0.211-0.014,0.347-0.043,0.407c-0.027,0.061-0.074,0.107-0.143,0.141c-0.066,0.032-0.197,0.051-0.387,0.051h-0.285v1.002h1.871
		v1.191h1.229v-1.191h0.697c0.031,0,0.061-0.002,0.092-0.002v1.193L33.547,18.875L33.547,18.875z M31.08,11.604h0.795
		c0.465,0,0.787,0.028,0.967,0.086c0.18,0.058,0.318,0.154,0.414,0.289c0.096,0.136,0.143,0.297,0.143,0.487
		c0,0.185-0.051,0.347-0.148,0.486c-0.104,0.14-0.25,0.245-0.447,0.313c-0.199,0.069-0.51,0.104-0.926,0.104h-0.795L31.08,11.604
		L31.08,11.604z M32.045,16.526h-0.527c-0.178,0-0.285-0.01-0.324-0.029c-0.039-0.02-0.066-0.052-0.084-0.102
		c-0.016-0.037-0.023-0.168-0.027-0.39v-1.569h0.938c0.412,0,0.719,0.039,0.918,0.115c0.199,0.075,0.352,0.188,0.451,0.338
		c0.102,0.147,0.15,0.33,0.15,0.545c0,0.254-0.07,0.47-0.213,0.649c-0.143,0.181-0.314,0.3-0.516,0.354
		C32.607,16.496,32.354,16.526,32.045,16.526z M43.449,16.119c-0.387,0.394-1.021,0.396-1.414,0.008l-0.811-0.803
		c-0.463,3.435-2.793,6.394-6.141,7.594v6.66H21.178c0.051,0.142,0.101,0.287,0.142,0.438h7.518v2h-4.479l3.471,6.088l-1.738,0.99
		l-4.035-7.078H21.58c0,0.006,0,0.015,0,0.021h-5.977l-4.023,7.06l-1.738-0.99l3.459-6.067H0c0-2.484,0.975-4.139,2.586-5.206V8.706
		h21.576c1.129-1.634,2.77-2.915,4.756-3.579c4.068-1.359,8.545,0.208,10.881,3.812c0.301,0.465,0.168,1.084-0.295,1.384
		c-0.463,0.302-1.082,0.167-1.383-0.296c-1.84-2.838-5.361-4.072-8.568-3.004c-2.572,0.857-4.391,3.031-4.896,5.597l0.641-0.61
		c0.398-0.381,1.031-0.365,1.414,0.033s0.365,1.032-0.031,1.414l-2.494,2.381c-0.188,0.178-0.436,0.276-0.691,0.276
		c-0.008,0-0.016,0-0.023,0c-0.266-0.007-0.518-0.118-0.699-0.31l-2.379-2.496c-0.381-0.399-0.367-1.033,0.033-1.414
		c0.4-0.381,1.033-0.365,1.414,0.033l0.756,0.795c0.101-0.695,0.273-1.371,0.521-2.018H4.586v15.182
		c0.803-0.267,1.68-0.459,2.623-0.587l2.408,4.716h0.006l0.381-3.063l-0.596-0.488h1.32h1.445l-0.599,0.488l0.381,3.063h0.009
		l2.407-4.716c2.308,0.312,4.252,0.998,5.541,2.278h13.172v-4.183c-0.393,0.052-0.785,0.082-1.178,0.082
		c-3.125,0-6.129-1.561-7.902-4.297c-0.301-0.464-0.168-1.082,0.297-1.383c0.465-0.303,1.084-0.168,1.383,0.295
		c1.842,2.84,5.367,4.072,8.568,3.004c2.547-0.85,4.355-2.99,4.885-5.523l-0.564,0.568c-0.195,0.197-0.451,0.297-0.709,0.297
		c-0.256,0-0.51-0.098-0.705-0.291c-0.391-0.389-0.395-1.021-0.006-1.414l2.426-2.447c0.389-0.393,1.021-0.395,1.414-0.007
		l2.449,2.425C43.834,15.094,43.838,15.727,43.449,16.119z M10.959,12.037c-0.027,0-0.055,0.007-0.082,0.007
		c-0.082-0.002-0.162-0.008-0.244-0.007H10.959z M10.76,24.554c0.01,0,0.021-0.002,0.031-0.002c0.014,0,0.027,0.002,0.041,0.002
		H10.76z M10.791,24.552c-1.904-0.041-3.777-2.001-4.502-4.62c-0.012,0.004-0.02,0.017-0.031,0.019
		c-0.34,0.057-0.688-0.351-0.783-0.906c-0.094-0.56,0.104-1.057,0.441-1.114c0.023-0.004,0.047,0.012,0.072,0.012
		c-0.15-4.035,2.23-5.885,4.889-5.896c2.58,0.065,4.627,1.585,4.725,5.896c0.021,0,0.043-0.014,0.064-0.012
		c0.338,0.06,0.535,0.558,0.439,1.115c-0.09,0.535-0.416,0.92-0.742,0.898C14.654,22.547,12.525,24.473,10.791,24.552z
		 M22.336,8.268h-7v-2h7V8.268z"/>
</g>
<g>
</g>
<g>
</g>
<g>
</g>
<g>
</g>
<g>
</g>
<g>
</g>
<g>
</g>
<g>
</g>
<g>
</g>
<g>
</g>
<g>
</g>
<g>
</g>
<g>
</g>
<g>
</g>
<g>
</g>
</svg>
