<?xml version="1.0" encoding="iso-8859-1"?>
<!-- Generator: Adobe Illustrator 16.0.0, SVG Export Plug-In . SVG Version: 6.00 Build 0)  -->
<!DOCTYPE svg PUBLIC "-//W3C//DTD SVG 1.1//EN" "http://www.w3.org/Graphics/SVG/1.1/DTD/svg11.dtd">
<svg version="1.1" id="Capa_1" xmlns="http://www.w3.org/2000/svg" xmlns:xlink="http://www.w3.org/1999/xlink" x="0px" y="0px"
	 width="35.227px" height="35.227px" viewBox="0 0 35.227 35.227" style="enable-background:new 0 0 35.227 35.227;"
	 xml:space="preserve">
<g>
	<path d="M22.4,19.021c-0.158-0.271-0.375-0.482-0.646-0.633c-0.185-0.107-0.457-0.207-0.812-0.299
		c0.33-0.111,0.598-0.252,0.799-0.428c0.205-0.17,0.354-0.369,0.457-0.594c0.106-0.223,0.162-0.458,0.162-0.705
		c0-0.348-0.103-0.661-0.302-0.95c-0.198-0.282-0.487-0.508-0.862-0.655c-0.146-0.063-0.32-0.104-0.508-0.144v-1.335H19.41v1.245
		h-0.824v-1.245h-1.281v1.245h-1.952v1.044h0.303c0.191,0,0.333,0.021,0.396,0.056c0.076,0.032,0.123,0.085,0.152,0.146
		c0.032,0.062,0.043,0.204,0.043,0.429v4.211c0,0.225-0.011,0.361-0.043,0.426c-0.029,0.064-0.076,0.113-0.152,0.148
		c-0.063,0.032-0.205,0.051-0.396,0.051h-0.303v1.045h1.951v1.244h1.279V22.08h0.729c0.034,0,0.065,0,0.098,0v1.244h1.279V21.97
		c0.211-0.043,0.403-0.09,0.561-0.155c0.441-0.175,0.785-0.438,1.027-0.775c0.239-0.328,0.362-0.697,0.362-1.104
		C22.64,19.604,22.562,19.294,22.4,19.021z M19.949,15.833c0.19,0.062,0.334,0.163,0.438,0.301c0.1,0.141,0.146,0.311,0.146,0.51
		c0,0.191-0.053,0.361-0.155,0.506s-0.261,0.256-0.468,0.325c-0.209,0.074-0.524,0.109-0.959,0.109h-0.834V15.74h0.834
		C19.425,15.74,19.763,15.771,19.949,15.833z M19.123,20.871h-0.554c-0.181,0-0.292-0.006-0.334-0.03
		c-0.043-0.017-0.071-0.052-0.09-0.103c-0.021-0.037-0.023-0.174-0.03-0.403v-1.638h0.979c0.432,0,0.748,0.041,0.959,0.119
		c0.209,0.08,0.365,0.193,0.473,0.35c0.105,0.158,0.152,0.349,0.152,0.57c0,0.26-0.074,0.486-0.219,0.676
		c-0.15,0.188-0.33,0.312-0.539,0.377C19.711,20.841,19.445,20.871,19.123,20.871z M35.215,18.305
		c-0.021-0.346-0.064-0.684-0.111-1.064c-0.082-0.71-0.168-1.533-0.229-2.809l-0.053-0.926l-0.933,0.112
		c-0.016,0.004-0.08,0.009-0.187,0.009c-0.519,0-1.815-0.154-2.821-1.611c-0.22-0.326-0.418-0.646-0.619-0.967
		c-0.422-0.668-0.853-1.354-1.397-1.985c0.42-0.894,1.004-1.742,1.121-1.921c0.655-0.762,0.649-1.396,0.518-1.788
		c-0.287-0.874-1.246-1.126-1.441-1.164l-0.078-0.019c-0.371-0.048-0.768-0.07-1.162-0.07c-2.071,0-3.942,0.636-5.018,1.104
		c-1.475-0.473-3.012-0.711-4.574-0.711c-3.992,0-7.594,1.57-10.141,4.057C7.786,8.378,7.465,8.224,7.105,8.093
		C6.9,8.024,6.672,7.972,6.437,7.921L6.07,7.868L5.748,7.847c-0.483-0.006-0.89,0.074-1.311,0.182
		C4.385,7.945,4.338,7.87,4.279,7.797C4.18,7.67,4.059,7.571,3.934,7.469C3.872,7.417,3.789,7.381,3.717,7.338
		C3.643,7.291,3.592,7.282,3.534,7.26C3.235,7.156,2.953,7.153,2.698,7.176c-0.51,0.061-0.923,0.229-1.267,0.4
		C1.087,7.749,0.82,7.928,0.605,8.086C0.399,8.239,0.243,8.381,0.147,8.458C0.046,8.563,0,8.613,0,8.613s0.059-0.042,0.172-0.121
		c0.103-0.064,0.269-0.178,0.496-0.295c0.223-0.116,0.508-0.252,0.848-0.369C1.859,7.702,2.26,7.596,2.69,7.596
		c0.208,0,0.43,0.037,0.604,0.106l0.178,0.089C3.499,7.828,3.536,7.848,3.568,7.87c0.027,0.022,0.068,0.075,0.105,0.117
		c0.031,0.042,0.076,0.079,0.101,0.136c0.03,0.032,0.044,0.074,0.067,0.104C3.636,8.305,3.435,8.4,3.247,8.516
		C2.921,8.69,2.616,8.965,2.384,9.283L2.368,9.305l-0.014,0.02C2.254,9.52,2.18,9.736,2.133,9.962
		c-0.041,0.229-0.069,0.471,0.006,0.752c0.041,0.135,0.115,0.284,0.222,0.405c0.114,0.127,0.255,0.229,0.399,0.276
		c0.145,0.056,0.274,0.074,0.408,0.084h0.203c0.07-0.006,0.094-0.01,0.141-0.016l0.062-0.014l0.089-0.01L3.7,11.425l0.171-0.057
		c0.104-0.038,0.21-0.089,0.309-0.158c0.195-0.107,0.367-0.291,0.482-0.468c0.246-0.369,0.307-0.771,0.293-1.131
		C4.947,9.378,4.91,9.163,4.848,8.943c0.326-0.07,0.648-0.122,0.943-0.112c0.233,0.006,0.364,0.02,0.547,0.057
		c0.183,0.027,0.359,0.08,0.537,0.131C7.064,9.083,7.244,9.16,7.434,9.244c-1.938,2.2-3.108,5.004-3.108,8.055
		c0,4.229,2.687,8.398,5.382,10.398c0.065,0.215,0.107,0.752,0.094,1.237c0,1.205,0.967,2.19,2.158,2.19h3.732
		c0.775,0,1.463-0.415,1.854-1.051c0.459,0.019,0.908,0.019,1.381,0c0.377,0.636,1.067,1.051,1.847,1.051h3.729
		c1.197,0,2.168-0.985,2.168-2.19l-0.02-0.188c-0.101-0.434-0.154-0.993-0.134-1.229l0.199-0.201
		c1.521-1.484,3.094-3.021,4.254-4.896c0.459-0.738,1.272-1.5,2.058-1.527c0.303-0.021,1.106-0.057,1.678-0.688
		C35.101,19.759,35.275,19.109,35.215,18.305z M3.978,10.268c-0.023,0.053-0.065,0.09-0.107,0.123
		c-0.033,0.047-0.082,0.064-0.129,0.098L3.67,10.527c-0.027,0.014-0.052,0.019-0.084,0.022l-0.089,0.027l-0.019,0.005l0,0
		l-0.04,0.005L3.3,10.6c-0.02-0.008-0.037-0.008-0.062-0.008c-0.042-0.006-0.097-0.011-0.112-0.028
		c-0.047-0.023-0.041-0.015-0.064-0.079c-0.035-0.141,0.029-0.449,0.162-0.711C3.347,9.6,3.708,9.354,4.169,9.163
		c0.022,0.135,0.026,0.271,0.022,0.411C4.188,9.837,4.109,10.093,3.978,10.268z M10.855,11.135l-0.028,0.004
		c-0.086,0-0.173-0.037-0.237-0.104c-0.062-0.064-0.099-0.154-0.092-0.242c0-0.09,0.035-0.174,0.104-0.234
		c0.026-0.031,3.237-2.984,7.724-2.984c1.485,0,2.95,0.327,4.368,0.953c0.08,0.042,0.146,0.111,0.178,0.201
		c0.027,0.078,0.022,0.168-0.016,0.252c-0.054,0.111-0.183,0.188-0.308,0.188c-0.052,0-0.099-0.01-0.144-0.027
		c-1.319-0.594-2.694-0.897-4.081-0.897c-4.196,0-7.228,2.771-7.256,2.8C11.011,11.1,10.933,11.135,10.855,11.135z M18.895,25.005
		c-3.882,0-7.028-3.093-7.028-6.904c0-3.812,3.146-6.899,7.028-6.899c3.888,0,7.03,3.088,7.03,6.899
		C25.925,21.912,22.783,25.005,18.895,25.005z"/>
</g>
<g>
</g>
<g>
</g>
<g>
</g>
<g>
</g>
<g>
</g>
<g>
</g>
<g>
</g>
<g>
</g>
<g>
</g>
<g>
</g>
<g>
</g>
<g>
</g>
<g>
</g>
<g>
</g>
<g>
</g>
</svg>
