<?xml version="1.0" encoding="iso-8859-1"?>
<!-- Generator: Adobe Illustrator 16.0.0, SVG Export Plug-In . SVG Version: 6.00 Build 0)  -->
<!DOCTYPE svg PUBLIC "-//W3C//DTD SVG 1.1//EN" "http://www.w3.org/Graphics/SVG/1.1/DTD/svg11.dtd">
<svg version="1.1" id="Capa_1" xmlns="http://www.w3.org/2000/svg" xmlns:xlink="http://www.w3.org/1999/xlink" x="0px" y="0px"
	 width="42.332px" height="42.332px" viewBox="0 0 42.332 42.332" style="enable-background:new 0 0 42.332 42.332;"
	 xml:space="preserve">
<g>
	<path d="M31.85,29.475c0.213,0.178,0.238,0.492,0.062,0.705c-1.057,1.258-2.311,2.312-3.727,3.131
		c-0.08,0.047-0.166,0.066-0.25,0.066c-0.172,0-0.34-0.088-0.435-0.25c-0.14-0.238-0.058-0.545,0.183-0.684
		c1.315-0.762,2.479-1.74,3.461-2.908C31.324,29.324,31.639,29.297,31.85,29.475z M23.438,33.994
		c-1.484,0.26-3.042,0.262-4.522,0.004c-0.271-0.047-0.53,0.135-0.578,0.406c-0.047,0.271,0.135,0.531,0.407,0.578
		c0.794,0.139,1.608,0.209,2.42,0.209c0.821,0,1.645-0.072,2.445-0.213c0.272-0.047,0.455-0.308,0.406-0.578
		C23.969,34.127,23.709,33.946,23.438,33.994z M11.104,12.114c-0.212-0.177-0.528-0.148-0.705,0.062
		c-1.054,1.262-1.871,2.682-2.428,4.221c-0.094,0.26,0.041,0.546,0.3,0.64c0.056,0.021,0.113,0.03,0.17,0.03
		c0.205,0,0.396-0.126,0.47-0.33c0.517-1.429,1.275-2.748,2.255-3.919C11.344,12.605,11.315,12.291,11.104,12.114z M23.389,8.331
		c1.5,0.258,2.932,0.773,4.252,1.532c0.08,0.045,0.164,0.066,0.25,0.066c0.172,0,0.342-0.09,0.435-0.251
		c0.137-0.239,0.055-0.545-0.187-0.683c-1.424-0.817-2.965-1.373-4.582-1.65c-0.27-0.045-0.529,0.136-0.576,0.408
		S23.115,8.284,23.389,8.331z M14.372,9.969c0.085,0,0.172-0.021,0.251-0.068c1.317-0.767,2.745-1.291,4.243-1.557
		c0.272-0.048,0.453-0.308,0.405-0.58c-0.048-0.271-0.309-0.454-0.58-0.405c-1.614,0.287-3.152,0.851-4.571,1.677
		c-0.239,0.139-0.319,0.445-0.181,0.684C14.032,9.88,14.199,9.969,14.372,9.969z M8.14,21.191c0-0.275-0.224-0.499-0.5-0.499
		c0,0,0,0-0.001,0c-0.276,0-0.5,0.225-0.499,0.5c0.003,1.646,0.289,3.26,0.851,4.793c0.074,0.203,0.266,0.328,0.47,0.328
		c0.057,0,0.115-0.01,0.172-0.029c0.259-0.096,0.393-0.383,0.298-0.643C8.409,24.219,8.143,22.723,8.14,21.191z M14.666,32.457
		c-1.318-0.76-2.484-1.736-3.467-2.902c-0.179-0.211-0.494-0.238-0.705-0.061s-0.238,0.492-0.06,0.705
		c1.058,1.254,2.313,2.307,3.732,3.125c0.079,0.045,0.165,0.066,0.25,0.066c0.173,0,0.341-0.091,0.434-0.25
		C14.988,32.9,14.906,32.596,14.666,32.457z M34.689,20.64c-0.275,0-0.5,0.251-0.5,0.527c0,1.53-0.264,3.029-0.781,4.455
		c-0.096,0.258,0.039,0.545,0.299,0.642c0.057,0.021,0.115,0.028,0.172,0.028c0.203,0,0.396-0.125,0.471-0.328
		c0.56-1.534,0.842-3.149,0.842-4.796v-0.055C35.189,20.835,34.965,20.64,34.689,20.64z M33.859,16.991
		c0.059,0,0.115-0.01,0.174-0.031c0.258-0.096,0.391-0.383,0.295-0.642c-0.564-1.535-1.391-2.95-2.451-4.204
		c-0.18-0.21-0.494-0.238-0.705-0.059c-0.211,0.178-0.236,0.494-0.059,0.705c0.984,1.166,1.75,2.479,2.275,3.904
		C33.465,16.866,33.656,16.991,33.859,16.991z M22.383,20.062c0.279-0.097,0.486-0.243,0.627-0.438s0.209-0.422,0.209-0.679
		c0-0.266-0.066-0.493-0.197-0.681c-0.133-0.188-0.326-0.322-0.578-0.402c-0.25-0.08-0.7-0.12-1.347-0.12h-1.11v2.465h1.109
		C21.677,20.207,22.104,20.159,22.383,20.062z M22.576,21.852c-0.279-0.104-0.707-0.158-1.281-0.158h-1.309v2.189
		c0.005,0.311,0.017,0.49,0.036,0.543c0.024,0.066,0.063,0.115,0.12,0.143c0.055,0.023,0.206,0.039,0.452,0.039h0.738
		c0.429,0,0.785-0.039,1.066-0.119c0.281-0.079,0.521-0.245,0.721-0.497c0.197-0.252,0.297-0.554,0.297-0.906
		c0-0.299-0.07-0.553-0.209-0.762C23.064,22.117,22.855,21.959,22.576,21.852z M32.619,21.166c0,6.326-5.129,11.455-11.455,11.455
		S9.709,27.492,9.709,21.166S14.838,9.711,21.164,9.711S32.619,14.84,32.619,21.166z M26.041,23.354
		c0-0.448-0.107-0.856-0.318-1.223c-0.215-0.363-0.502-0.648-0.863-0.852c-0.25-0.146-0.612-0.279-1.086-0.399
		c0.439-0.15,0.795-0.339,1.064-0.569c0.268-0.23,0.475-0.494,0.617-0.793c0.145-0.3,0.215-0.617,0.215-0.951
		c0-0.458-0.135-0.88-0.404-1.265c-0.271-0.384-0.658-0.679-1.16-0.883c-0.194-0.081-0.426-0.14-0.676-0.188v-1.785h-1.715v1.664
		h-1.101v-1.664h-1.713v1.664h-2.612v1.399h0.399c0.266,0,0.446,0.025,0.54,0.073c0.095,0.047,0.161,0.113,0.199,0.195
		c0.04,0.082,0.059,0.274,0.059,0.572v5.641c0,0.295-0.019,0.484-0.059,0.568c-0.039,0.084-0.104,0.149-0.199,0.194
		c-0.094,0.047-0.274,0.07-0.54,0.07h-0.399v1.397h2.612v1.664h1.713v-1.664h0.974c0.044,0,0.084-0.002,0.127-0.002v1.666h1.713
		v-1.809c0.287-0.057,0.54-0.125,0.756-0.211c0.59-0.236,1.047-0.58,1.371-1.033C25.877,24.383,26.041,23.891,26.041,23.354z
		 M42.332,17.338v7.656c0,0.551-0.449,1-1,1h-3.066c-0.377,1.338-0.912,2.627-1.598,3.848l2.17,2.17
		c0.393,0.391,0.393,1.023,0,1.414l-5.412,5.412c-0.391,0.393-1.023,0.393-1.414,0l-2.17-2.17c-1.221,0.686-2.51,1.221-3.848,1.598
		v3.066c0,0.551-0.449,1-1,1h-7.656c-0.552,0-1-0.449-1-1v-3.066c-1.339-0.377-2.628-0.912-3.848-1.598l-2.17,2.17
		c-0.391,0.393-1.023,0.393-1.414,0l-5.412-5.412c-0.391-0.391-0.391-1.023,0-1.414l2.17-2.17c-0.684-1.221-1.219-2.51-1.597-3.848
		H1c-0.552,0-1-0.449-1-1v-7.656c0-0.552,0.448-1,1-1h3.066c0.378-1.339,0.913-2.628,1.597-3.848l-2.17-2.17
		c-0.391-0.391-0.391-1.023,0-1.414l5.413-5.413c0.391-0.391,1.023-0.391,1.414,0l2.17,2.17c1.22-0.684,2.509-1.219,3.848-1.597V1
		c0-0.552,0.448-1,1-1h7.656c0.551,0,1,0.448,1,1v3.066c1.338,0.378,2.627,0.913,3.848,1.597l2.17-2.17
		c0.391-0.391,1.023-0.391,1.414,0l5.412,5.413c0.393,0.391,0.393,1.023,0,1.414l-2.17,2.17c0.686,1.22,1.221,2.509,1.598,3.848
		h3.066C41.883,16.338,42.332,16.787,42.332,17.338z M40.332,18.338H37.49c-0.465,0-0.867-0.32-0.975-0.772
		c-0.39-1.663-1.045-3.246-1.953-4.707c-0.246-0.395-0.187-0.906,0.143-1.235l2.012-2.011l-3.998-3.999l-2.012,2.011
		c-0.33,0.328-0.84,0.387-1.234,0.143c-1.461-0.908-3.045-1.565-4.707-1.954c-0.453-0.105-0.772-0.509-0.772-0.974V1.999h-5.655
		V4.84c0,0.465-0.32,0.868-0.772,0.974c-1.663,0.389-3.246,1.046-4.707,1.954c-0.395,0.245-0.907,0.186-1.235-0.143L9.613,5.614
		L5.614,9.613l2.011,2.011c0.329,0.329,0.388,0.84,0.143,1.235c-0.908,1.461-1.565,3.044-1.954,4.707
		c-0.105,0.453-0.509,0.772-0.974,0.772H1.999v5.656H4.84c0.465,0,0.868,0.318,0.974,0.771c0.389,1.662,1.046,3.245,1.954,4.707
		c0.245,0.395,0.186,0.905-0.143,1.233l-2.011,2.012l3.999,3.998l2.011-2.01c0.328-0.328,0.839-0.39,1.235-0.144
		c1.461,0.908,3.044,1.564,4.707,1.953c0.453,0.105,0.772,0.51,0.772,0.976v2.84h5.655v-2.84c0-0.466,0.319-0.869,0.772-0.976
		c1.662-0.389,3.246-1.045,4.707-1.953c0.396-0.244,0.906-0.188,1.234,0.144l2.011,2.01l3.999-3.998l-2.012-2.012
		c-0.328-0.328-0.389-0.84-0.143-1.233c0.908-1.462,1.563-3.045,1.953-4.707c0.104-0.453,0.51-0.771,0.975-0.771h2.842V18.338z"/>
</g>
<g>
</g>
<g>
</g>
<g>
</g>
<g>
</g>
<g>
</g>
<g>
</g>
<g>
</g>
<g>
</g>
<g>
</g>
<g>
</g>
<g>
</g>
<g>
</g>
<g>
</g>
<g>
</g>
<g>
</g>
</svg>
