<?xml version="1.0" encoding="iso-8859-1"?>
<!-- Generator: Adobe Illustrator 16.0.0, SVG Export Plug-In . SVG Version: 6.00 Build 0)  -->
<!DOCTYPE svg PUBLIC "-//W3C//DTD SVG 1.1//EN" "http://www.w3.org/Graphics/SVG/1.1/DTD/svg11.dtd">
<svg version="1.1" id="Capa_1" xmlns="http://www.w3.org/2000/svg" xmlns:xlink="http://www.w3.org/1999/xlink" x="0px" y="0px"
	 width="35.105px" height="35.106px" viewBox="0 0 35.105 35.106" style="enable-background:new 0 0 35.105 35.106;"
	 xml:space="preserve">
<g>
	<path d="M26.042,23.264h-0.485v-1.078h0.485c0.282,0,0.479,0.02,0.589,0.053c0.107,0.035,0.195,0.094,0.252,0.178
		c0.058,0.082,0.088,0.18,0.088,0.299c0,0.107-0.03,0.211-0.092,0.295c-0.061,0.086-0.152,0.15-0.275,0.193
		C26.483,23.244,26.295,23.264,26.042,23.264z M26.689,23.987c-0.122-0.049-0.311-0.07-0.559-0.07h-0.574v0.957
		c0,0.137,0.006,0.215,0.017,0.238c0.01,0.029,0.026,0.051,0.051,0.062s0.091,0.021,0.197,0.021h0.325
		c0.187,0,0.341-0.021,0.466-0.056s0.229-0.106,0.313-0.217c0.088-0.109,0.129-0.244,0.129-0.397c0-0.132-0.028-0.24-0.09-0.332
		C26.903,24.098,26.812,24.032,26.689,23.987z M34.879,25.864c0.16-1.086-0.193-1.451-0.723-1.451
		c-1.195,0-2.271,6.965-15.576,6.156c3.756,0,6.91-0.639,9.271-1.736c-0.438,0.104-0.894,0.172-1.359,0.199
		c-7.189,2.289-14.186-1.088-14.186-3.738c0-0.137,0.011-0.273,0.026-0.41c-0.52,1.896,1.775,4.021,3.193,4.615
		c-2.479-0.656-3.768-2.662-3.902-3.152c-0.551,0.826-1.567,2.051-2.523,2.154c0.811-0.424,1.721-1.461,1.831-2.684
		c-4.44,1.1-9.963-0.756-10.931-2.662c1.377,1.828,7.578,2.854,10.347,1.734c-2.019,0.688-6.618,0.057-8.875-2.732
		c2.17,1.996,6.534,2.025,8.957,1.438c-1.142,0.285-4.369-0.748-6.722-3.103c1.14,1.144,5.865,2.263,7.462,1.615
		c-0.906,0-3.412-0.699-4.563-2.519c2.424,1.639,7.191,1.789,7.604,1.377c0.247-0.248-2.14-0.233-3.591-1.828
		c0.748,0.746,3.783,1.021,6.219,0.656c1.826-0.916,4.013-1.533,6.208-1.736c4.86-0.45,7.879,0.822,9.67,1.979
		c0.008-0.131,0.002-0.262-0.015-0.395c-0.146-0.533-0.336-1.049-0.604-1.521c-2.631-3.914-13.301-7.244-23.701,0.896
		c5.551-4.865,11.681-6.179,16.667-5.271c0.312-0.038,0.625-0.063,0.947-0.063c3.332,0,6.182,2.037,7.326,4.9
		C34.842,20.643,35.485,23.16,34.879,25.864z M28.205,24.641c0-0.193-0.049-0.375-0.141-0.533c-0.094-0.16-0.219-0.283-0.379-0.373
		c-0.109-0.062-0.269-0.123-0.477-0.176c0.194-0.064,0.352-0.146,0.469-0.248c0.119-0.1,0.207-0.217,0.27-0.348
		c0.062-0.132,0.094-0.271,0.094-0.416c0-0.201-0.062-0.386-0.176-0.556c-0.117-0.166-0.289-0.295-0.508-0.385
		c-0.086-0.035-0.188-0.062-0.299-0.082v-0.783h-0.748v0.729h-0.479v-0.729h-0.75v0.729h-1.146v0.609h0.175
		c0.118,0,0.194,0.014,0.237,0.033c0.037,0.021,0.067,0.051,0.086,0.086c0.017,0.037,0.023,0.121,0.023,0.25v2.471
		c0,0.127-0.01,0.211-0.023,0.248c-0.019,0.035-0.049,0.064-0.086,0.086c-0.043,0.021-0.119,0.027-0.237,0.027h-0.175v0.613h1.146
		v0.729h0.75v-0.729h0.425c0.02,0,0.036-0.002,0.055-0.002v0.729h0.75v-0.789c0.125-0.025,0.238-0.058,0.332-0.095
		c0.258-0.104,0.457-0.256,0.598-0.453C28.133,25.092,28.205,24.873,28.205,24.641z M19.067,21.369c0,2.927,1.922,5.416,4.598,6.354
		c-1.381-0.823-2.313-2.315-2.313-4.041c0-1.893,1.121-3.514,2.729-4.268c-1.918,0.006-3.514,0.219-4.846,0.561
		C19.137,20.426,19.067,20.889,19.067,21.369z M25.194,29.01c-3.953-0.402-7.047-3.676-7.047-7.642c0-0.375,0.04-0.739,0.096-1.101
		c-3.591,1.216-4.816,3.423-4.816,4.525C13.426,27.307,18.457,30.305,25.194,29.01z M28.893,19.918
		c1.146,0.862,1.898,2.221,1.898,3.766c0,1.613-0.811,3.033-2.043,3.885c1.664-0.699,3-2.002,3.689-3.639
		c0.051-0.226,0.092-0.449,0.113-0.68C32.608,22.615,32.305,20.807,28.893,19.918z M21.215,10.578
		c5.228,1.026,7.23-0.984,7.748-2.395c-2.947,2.41-13.091-5.273-22.736-3.42C0.471,5.868,0.094,11.534,1.45,17.736
		C0.31,2.412,16.715,9.692,21.215,10.578z"/>
</g>
<g>
</g>
<g>
</g>
<g>
</g>
<g>
</g>
<g>
</g>
<g>
</g>
<g>
</g>
<g>
</g>
<g>
</g>
<g>
</g>
<g>
</g>
<g>
</g>
<g>
</g>
<g>
</g>
<g>
</g>
</svg>
