<?xml version="1.0" encoding="iso-8859-1"?>
<!-- Generator: Adobe Illustrator 16.0.0, SVG Export Plug-In . SVG Version: 6.00 Build 0)  -->
<!DOCTYPE svg PUBLIC "-//W3C//DTD SVG 1.1//EN" "http://www.w3.org/Graphics/SVG/1.1/DTD/svg11.dtd">
<svg version="1.1" id="Capa_1" xmlns="http://www.w3.org/2000/svg" xmlns:xlink="http://www.w3.org/1999/xlink" x="0px" y="0px"
	 width="125.084px" height="125.084px" viewBox="0 0 125.084 125.084" style="enable-background:new 0 0 125.084 125.084;"
	 xml:space="preserve">
<g>
	<g>
		<polygon points="58.552,63.038 47.169,63.038 47.169,66.561 58.552,66.561 58.552,121.067 79.962,121.067 79.962,117.546 
			62.073,117.546 62.073,66.561 76.804,66.561 76.804,63.038 62.073,63.038 62.073,14.397 79.962,14.397 79.962,10.876 
			58.552,10.876 		"/>
		<circle cx="22.667" cy="19.845" r="10.663"/>
		<path d="M29.758,33.104c-0.179-0.11-0.365-0.187-0.551-0.266c-1.19-0.792-2.523-1.376-3.886-1.71l-2.654,2.674l-2.574-2.704
			c-0.012,0-0.018,0.003-0.029,0.006c-1.364,0.327-2.705,0.905-3.899,1.695c-0.211,0.087-0.422,0.181-0.628,0.305
			C7.258,38.181,2.505,42.196,1.036,65.692C0.893,67.975,2.63,69.94,4.91,70.083C5,70.089,5.088,70.091,5.173,70.091
			c2.168,0,3.99-1.688,4.128-3.883c0.496-7.934,1.299-13.073,2.451-16.619v14.346c0,1.112,0.217,2.149,0.596,3.104
			c-0.03,0.216-0.051,0.435-0.051,0.655l0.007,39.644c0,2.703,2.189,4.891,4.891,4.891c2.703,0,4.892-2.189,4.892-4.894
			l-0.005-34.019c0.195,0.008,0.39,0.022,0.585,0.022c0.036,0,0.076-0.005,0.114-0.005v34c0,2.703,2.188,4.894,4.89,4.894
			c2.703,0,4.892-2.189,4.892-4.894l0.005-39.396c0.639-1.189,1.013-2.532,1.013-4.006V49.711c1.134,3.54,1.924,8.653,2.414,16.497
			c0.136,2.195,1.958,3.883,4.128,3.883c0.085,0,0.174-0.002,0.26-0.008c2.28-0.143,4.016-2.107,3.875-4.391
			C42.789,42.196,38.035,38.181,29.758,33.104z M22.691,54.904H22.64l-2.568-3.517l2.568-17.191h0.052l2.569,17.191L22.691,54.904z"
			/>
		<path d="M122.321,23.348l-2.208-0.814c0.176-1.609,0.117-3.251-0.185-4.885l2.131-0.979c1.331-0.612,1.914-2.197,1.302-3.528
			l-1.245-2.701c-0.611-1.332-2.193-1.917-3.523-1.303l-2.136,0.983c-1.043-1.292-2.254-2.401-3.588-3.317l0.813-2.203
			c0.506-1.375-0.197-2.909-1.571-3.416l-2.793-1.032c-1.333-0.489-2.923,0.242-3.415,1.573l-0.813,2.208
			c-1.605-0.175-3.251-0.116-4.882,0.185l-0.983-2.131c-0.612-1.331-2.193-1.917-3.525-1.302l-2.702,1.243
			c-1.331,0.614-1.915,2.197-1.303,3.527l0.982,2.132c-1.289,1.044-2.399,2.255-3.315,3.591l-2.203-0.812
			c-1.33-0.496-2.925,0.237-3.417,1.569l-1.028,2.794c-0.246,0.665-0.22,1.388,0.077,2.033c0.3,0.644,0.83,1.135,1.493,1.377
			l2.208,0.819c-0.174,1.608-0.118,3.25,0.188,4.881l-2.135,0.982c-1.331,0.614-1.915,2.193-1.301,3.524l1.243,2.705
			c0.615,1.328,2.195,1.915,3.527,1.301l2.131-0.982c1.043,1.292,2.254,2.402,3.594,3.315l-0.817,2.206
			c-0.248,0.666-0.218,1.388,0.079,2.033c0.296,0.644,0.828,1.137,1.492,1.384l2.793,1.028c0.665,0.248,1.387,0.218,2.031-0.078
			c0.646-0.298,1.138-0.827,1.381-1.494l0.816-2.207c1.606,0.174,3.25,0.118,4.883-0.184l0.979,2.131
			c0.614,1.329,2.197,1.914,3.528,1.302l2.701-1.243c1.334-0.615,1.915-2.195,1.302-3.528l-0.982-2.131
			c1.292-1.046,2.404-2.254,3.315-3.591l2.207,0.815c0.667,0.247,1.39,0.219,2.036-0.081c0.641-0.296,1.132-0.825,1.377-1.492
			l1.031-2.792C124.399,25.387,123.695,23.855,122.321,23.348z M107.7,30.292c-1.394,0.643-2.872,0.966-4.395,0.966
			c-4.093,0-7.842-2.4-9.554-6.116c-2.424-5.265-0.112-11.521,5.149-13.944c1.394-0.643,2.872-0.966,4.393-0.966
			c4.094,0,7.843,2.399,9.556,6.113C115.273,21.61,112.962,27.868,107.7,30.292z"/>
		<path d="M118.532,69.372l-1.639-0.603c0.13-1.193,0.088-2.413-0.136-3.622l1.578-0.729c0.99-0.455,1.422-1.629,0.969-2.617
			l-0.926-2.005c-0.454-0.986-1.627-1.421-2.613-0.966l-1.584,0.729c-0.772-0.956-1.672-1.779-2.66-2.459l0.604-1.635
			c0.374-1.021-0.146-2.158-1.167-2.533l-2.068-0.767c-0.988-0.364-2.169,0.179-2.535,1.167l-0.604,1.637
			c-1.192-0.129-2.411-0.086-3.622,0.138l-0.729-1.581c-0.455-0.988-1.628-1.421-2.616-0.966l-2.004,0.923
			c-0.987,0.456-1.422,1.63-0.967,2.615l0.729,1.583c-0.956,0.773-1.781,1.672-2.46,2.663l-1.634-0.603
			c-0.987-0.369-2.169,0.177-2.535,1.164l-0.763,2.071c-0.184,0.493-0.161,1.029,0.058,1.509c0.223,0.478,0.615,0.843,1.107,1.021
			l1.638,0.606c-0.129,1.191-0.088,2.411,0.138,3.622l-1.582,0.729c-0.987,0.453-1.42,1.625-0.966,2.612l0.923,2.006
			c0.455,0.987,1.629,1.422,2.616,0.966l1.581-0.728c0.773,0.959,1.671,1.78,2.665,2.459l-0.604,1.637
			c-0.185,0.493-0.163,1.028,0.059,1.508c0.219,0.479,0.612,0.844,1.107,1.026l2.069,0.763c0.493,0.183,1.028,0.161,1.507-0.059
			c0.479-0.219,0.845-0.615,1.024-1.108l0.605-1.637c1.192,0.129,2.41,0.087,3.621-0.139l0.728,1.583
			c0.455,0.985,1.631,1.419,2.616,0.966l2.005-0.924c0.99-0.454,1.42-1.627,0.966-2.615l-0.728-1.582
			c0.958-0.774,1.78-1.671,2.458-2.663l1.637,0.605c0.495,0.182,1.03,0.159,1.509-0.061c0.478-0.219,0.841-0.614,1.023-1.105
			l0.765-2.072C120.073,70.886,119.552,69.749,118.532,69.372z M107.688,74.524c-1.035,0.476-2.133,0.716-3.262,0.716
			c-3.036,0-5.815-1.78-7.086-4.537c-1.797-3.904-0.085-8.544,3.819-10.342c1.033-0.479,2.129-0.717,3.26-0.717
			c3.033,0,5.814,1.778,7.086,4.533C113.304,68.085,111.592,72.727,107.688,74.524z"/>
		<path d="M116.234,113.813l-1.371-0.506c0.108-0.998,0.071-2.02-0.115-3.032l1.324-0.61c0.827-0.38,1.188-1.362,0.808-2.188
			l-0.772-1.68c-0.38-0.825-1.362-1.188-2.188-0.808l-1.325,0.61c-0.647-0.804-1.399-1.489-2.227-2.06l0.505-1.369
			c0.314-0.854-0.124-1.807-0.977-2.12l-1.735-0.643c-0.826-0.304-1.813,0.15-2.12,0.977l-0.506,1.373
			c-1-0.107-2.019-0.072-3.031,0.114l-0.61-1.323c-0.379-0.826-1.361-1.188-2.188-0.809l-1.679,0.772
			c-0.827,0.38-1.189,1.362-0.811,2.188l0.61,1.325c-0.799,0.646-1.491,1.399-2.058,2.229l-1.37-0.507
			c-0.824-0.308-1.814,0.149-2.12,0.976l-0.64,1.733c-0.153,0.415-0.136,0.863,0.048,1.265c0.188,0.399,0.516,0.703,0.928,0.855
			l1.372,0.508c-0.109,0.997-0.075,2.018,0.112,3.031l-1.321,0.609c-0.827,0.381-1.191,1.361-0.812,2.188l0.774,1.681
			c0.38,0.825,1.363,1.189,2.188,0.809l1.326-0.608c0.646,0.802,1.399,1.491,2.231,2.058l-0.508,1.37
			c-0.154,0.411-0.139,0.86,0.049,1.263c0.185,0.398,0.513,0.706,0.926,0.857l1.734,0.641c0.413,0.151,0.859,0.134,1.264-0.05
			c0.399-0.184,0.704-0.514,0.855-0.928l0.508-1.372c0.997,0.11,2.017,0.074,3.03-0.112l0.61,1.322
			c0.38,0.827,1.362,1.189,2.19,0.81l1.676-0.774c0.828-0.38,1.189-1.358,0.809-2.188l-0.607-1.324
			c0.801-0.649,1.488-1.4,2.057-2.229l1.371,0.507c0.414,0.152,0.862,0.135,1.263-0.051c0.399-0.183,0.702-0.513,0.858-0.927
			l0.64-1.733C117.526,115.081,117.088,114.13,116.234,113.813z M107.155,118.126c-0.866,0.398-1.782,0.601-2.729,0.601
			c-2.54,0-4.87-1.49-5.933-3.8c-1.505-3.268-0.071-7.153,3.196-8.658c0.865-0.397,1.785-0.599,2.729-0.599
			c2.541,0,4.868,1.489,5.933,3.794C111.857,112.735,110.423,116.62,107.155,118.126z"/>
	</g>
</g>
<g>
</g>
<g>
</g>
<g>
</g>
<g>
</g>
<g>
</g>
<g>
</g>
<g>
</g>
<g>
</g>
<g>
</g>
<g>
</g>
<g>
</g>
<g>
</g>
<g>
</g>
<g>
</g>
<g>
</g>
</svg>
