<?xml version="1.0" encoding="iso-8859-1"?>
<!-- Generator: Adobe Illustrator 19.0.0, SVG Export Plug-In . SVG Version: 6.00 Build 0)  -->
<svg version="1.1" id="Layer_1" xmlns="http://www.w3.org/2000/svg" xmlns:xlink="http://www.w3.org/1999/xlink" x="0px" y="0px"
	 viewBox="0 0 512.512 512.512" style="enable-background:new 0 0 512.512 512.512;" xml:space="preserve">
<g>
	<g>
		<g>
			<path d="M256.355,83.791c-10.624,5.077-15.125,17.813-10.048,28.459c5.077,10.624,17.813,15.125,28.437,10.048
				c10.624-5.077,15.125-17.813,10.048-28.437C279.715,83.215,266.979,78.714,256.355,83.791z"/>
			<path d="M473.428,389.803l-96.64-202.325c6.656-6.656,11.947-14.613,15.189-23.744c5.675-16.107,4.757-33.472-2.581-48.896
				v-0.021l-36.8-76.992c-7.36-15.424-20.288-27.051-36.416-32.747c-16.107-5.696-33.472-4.779-48.896,2.581l-41.728,19.925
				C213.972,10.965,194.793,0,173.033,0H87.7c-35.285,0-64,28.715-64,64v85.333c0,27.776,17.899,51.243,42.667,60.075V256
				c0,5.675,2.261,11.093,6.251,15.083l6.251,6.251l-6.251,6.251c-3.989,4.011-6.251,9.429-6.251,15.083V320
				c0,5.675,2.261,11.093,6.251,15.083l6.251,6.251l-6.251,6.251c-3.989,4.011-6.251,9.429-6.251,15.083v49.707
				c0,24.299,5.76,48.619,16.597,70.336c9.045,18.069,27.2,29.291,47.403,29.291c20.203,0,38.357-11.221,47.403-29.291
				c10.859-21.717,16.597-46.037,16.597-70.336V209.408c1.131-0.405,2.368-0.619,3.477-1.067
				c7.467,14.592,19.925,25.707,35.456,31.189c6.976,2.475,14.187,3.691,21.376,3.691c2.197,0,4.352-0.512,6.549-0.747
				l20.117,42.155c2.453,5.099,6.827,9.045,12.16,10.923l8.32,2.944l-2.923,8.341c-1.899,5.333-1.6,11.2,0.853,16.299l9.173,19.243
				c2.453,5.12,6.827,9.045,12.16,10.923l8.32,2.965l-2.923,8.32c-1.899,5.333-1.6,11.2,0.853,16.299l30.592,64.085
				c10.475,21.909,26.155,41.387,45.312,56.32c9.536,7.424,20.971,11.221,32.491,11.221c7.765,0,15.573-1.707,22.912-5.205
				c18.197-8.704,29.76-26.667,30.144-46.848v-0.021C489.215,436.139,483.903,411.712,473.428,389.803z M151.7,412.373
				c0,17.707-4.181,35.435-12.096,51.264c-2.581,5.163-7.317,5.696-9.237,5.696s-6.635-0.533-9.216-5.696
				c-7.936-15.829-12.117-33.557-12.117-51.264v-40.875l15.083-15.083c8.341-8.32,8.341-21.824,0-30.165l-15.083-15.083v-3.669
				l15.083-15.083c8.341-8.32,8.341-21.824,0-30.165l-15.083-15.083v-33.835H151.7V412.373z M130.367,106.667
				c-11.776,0-21.333-9.536-21.333-21.333c0-11.776,9.557-21.333,21.333-21.333S151.7,73.557,151.7,85.333
				C151.7,97.131,142.143,106.667,130.367,106.667z M351.743,149.525c-1.899,5.376-5.76,9.664-10.923,12.139l-77.013,36.779
				c-5.077,2.453-10.88,2.773-16.299,0.853c-5.355-1.899-9.664-5.76-12.117-10.923l-5.099-10.667
				c0.149-0.32,0.213-0.683,0.363-1.003c1.579-3.285,2.795-6.741,3.797-10.325c0.299-1.045,0.725-2.048,0.96-3.093
				c1.003-4.501,1.621-9.152,1.621-13.952V69.376l48.64-23.232c5.12-2.432,10.965-2.731,16.277-0.853
				c5.376,1.899,9.685,5.781,12.139,10.923l36.8,76.992C353.343,138.347,353.641,144.149,351.743,149.525z"/>
		</g>
	</g>
</g>
<g>
</g>
<g>
</g>
<g>
</g>
<g>
</g>
<g>
</g>
<g>
</g>
<g>
</g>
<g>
</g>
<g>
</g>
<g>
</g>
<g>
</g>
<g>
</g>
<g>
</g>
<g>
</g>
<g>
</g>
</svg>
