<?xml version="1.0" encoding="iso-8859-1"?>
<!-- Generator: Adobe Illustrator 17.1.0, SVG Export Plug-In . SVG Version: 6.00 Build 0)  -->
<!DOCTYPE svg PUBLIC "-//W3C//DTD SVG 1.1//EN" "http://www.w3.org/Graphics/SVG/1.1/DTD/svg11.dtd">
<svg version="1.1" id="Capa_1" xmlns="http://www.w3.org/2000/svg" xmlns:xlink="http://www.w3.org/1999/xlink" x="0px" y="0px"
	 viewBox="0 0 191.221 191.221" style="enable-background:new 0 0 191.221 191.221;" xml:space="preserve">
<path d="M174.965,34.187L130.389,2.992C127.591,1.035,124.336,0,120.974,0c-9.1,0-16.503,7.396-16.503,16.488
	c0,5.371,2.627,10.416,7.028,13.496l1.704,1.192h-70.73c-19.088,0-34.617,15.529-34.617,34.618v90.81
	c0,19.088,15.529,34.617,34.617,34.617h111.78c5.175,0,10.021-2.034,13.647-5.726c3.625-3.692,5.569-8.576,5.475-13.753
	c-0.189-10.35-8.94-18.77-19.507-18.77H50.533c-2.442,0-4.429-1.986-4.429-4.428V73.854c0-2.442,1.986-4.428,4.429-4.428h62.72
	l-1.755,1.228c-4.4,3.08-7.027,8.125-7.027,13.496c0,9.091,7.402,16.487,16.502,16.488c0.001,0,0.001,0,0.002,0
	c3.361,0,6.617-1.035,9.413-2.992l44.578-31.196c5.26-3.681,8.399-9.711,8.399-16.131S180.226,37.869,174.965,34.187z"/>
<g>
</g>
<g>
</g>
<g>
</g>
<g>
</g>
<g>
</g>
<g>
</g>
<g>
</g>
<g>
</g>
<g>
</g>
<g>
</g>
<g>
</g>
<g>
</g>
<g>
</g>
<g>
</g>
<g>
</g>
</svg>
