<?xml version="1.0" encoding="iso-8859-1"?>
<!-- Generator: Adobe Illustrator 19.0.0, SVG Export Plug-In . SVG Version: 6.00 Build 0)  -->
<svg version="1.1" id="Layer_1" xmlns="http://www.w3.org/2000/svg" xmlns:xlink="http://www.w3.org/1999/xlink" x="0px" y="0px"
	 viewBox="0 0 512 512" style="enable-background:new 0 0 512 512;" xml:space="preserve">
<g>
	<g>
		<path d="M256,101.19c-85.362,0-154.81,69.448-154.81,154.81S170.638,410.81,256,410.81S410.81,341.362,410.81,256
			S341.362,101.19,256,101.19z M232.462,164.098c8.261-20.881,17.774-30.228,23.538-30.228c5.764,0,15.276,9.347,23.536,30.228
			c2.67,6.749,4.993,14.163,6.975,22.073c-9.94-0.841-20.148-1.285-30.512-1.285c-10.363,0-20.57,0.444-30.512,1.285
			C227.47,178.261,229.792,170.848,232.462,164.098z M205.072,145.009c-1.016,2.247-2.019,4.589-2.999,7.068
			c-4.587,11.596-8.306,24.731-11.108,38.889c-14.158,2.802-27.293,6.521-38.889,11.108c-2.477,0.98-4.819,1.983-7.067,2.999
			C157.205,178.599,178.599,157.205,205.072,145.009z M133.871,256c0-5.764,9.347-15.276,30.228-23.536
			c6.749-2.67,14.163-4.993,22.073-6.975c-0.841,9.94-1.285,20.148-1.285,30.512c0,10.364,0.444,20.57,1.285,30.512
			c-7.91-1.983-15.323-4.305-22.073-6.975C143.216,271.276,133.871,261.764,133.871,256z M145.009,306.928
			c2.247,1.016,4.589,2.019,7.067,2.999c11.596,4.587,24.731,8.306,38.889,11.108c2.802,14.158,6.521,27.293,11.108,38.889
			c0.98,2.478,1.983,4.82,2.999,7.068C178.599,354.795,157.205,333.401,145.009,306.928z M279.537,347.902
			c-8.261,20.881-17.773,30.228-23.537,30.228c-5.764,0-15.277-9.347-23.537-30.228c-2.67-6.749-4.993-14.163-6.975-22.073
			c9.94,0.841,20.148,1.285,30.512,1.285c10.363,0,20.57-0.444,30.512-1.285C284.529,333.739,282.207,341.152,279.537,347.902z
			 M292.428,292.427c-11.661,1.316-23.89,2.007-36.428,2.007c-12.54,0-24.768-0.692-36.428-2.007
			c-1.315-11.661-2.007-23.889-2.007-36.428c0-12.54,0.692-24.768,2.007-36.428c11.661-1.315,23.89-2.007,36.428-2.007
			c12.539,0,24.768,0.692,36.428,2.007c1.315,11.661,2.007,23.889,2.007,36.428C294.435,268.539,293.744,280.767,292.428,292.427z
			 M366.991,205.072c-2.247-1.016-4.59-2.019-7.068-2.999c-11.596-4.587-24.731-8.306-38.889-11.108
			c-2.802-14.158-6.521-27.293-11.108-38.889c-0.98-2.478-1.983-4.82-2.999-7.068C333.401,157.205,354.795,178.599,366.991,205.072z
			 M306.928,366.991c1.016-2.247,2.019-4.59,2.999-7.068c4.587-11.596,8.306-24.731,11.108-38.889
			c14.158-2.802,27.293-6.521,38.889-11.108c2.478-0.98,4.82-1.983,7.068-2.999C354.795,333.401,333.401,354.795,306.928,366.991z
			 M347.902,279.536c-6.749,2.67-14.163,4.993-22.073,6.975c0.841-9.94,1.285-20.148,1.285-30.512
			c0-10.364-0.444-20.57-1.285-30.512c7.91,1.983,15.323,4.305,22.073,6.975c20.881,8.26,30.228,17.772,30.228,23.536
			C378.129,261.762,368.783,271.276,347.902,279.536z"/>
	</g>
</g>
<g>
	<g>
		<path d="M481.675,214.932c-8.288-45.559-30.541-88.179-63.484-121.124c-32.943-32.942-75.565-55.196-121.124-63.484
			C291.657,12.784,275.295,0,256,0c-19.294,0-35.656,12.784-41.068,30.325c-45.559,8.288-88.179,30.541-121.123,63.484
			c-32.943,32.943-55.197,75.565-63.484,121.124C12.784,220.343,0,236.705,0,256s12.784,35.657,30.326,41.068
			c8.288,45.559,30.541,88.179,63.484,121.124c32.943,32.942,75.564,55.196,121.123,63.484C220.344,499.216,236.706,512,256,512
			c19.295,0,35.657-12.784,41.068-30.325c45.559-8.288,88.179-30.541,121.124-63.484c32.942-32.943,55.196-75.565,63.484-121.124
			C499.216,291.656,512,275.295,512,256S499.216,220.344,481.675,214.932z M256,32.681c5.673,0,10.288,4.615,10.288,10.288
			c0,0.233-0.012,0.465-0.023,0.655c-0.331,5.402-4.839,9.634-10.266,9.634c-5.426,0-9.936-4.232-10.263-9.595
			c-0.013-0.229-0.025-0.461-0.025-0.694C245.712,37.295,250.327,32.681,256,32.681z M43.662,266.263
			c-0.228,0.014-0.46,0.025-0.693,0.025c-5.673,0-10.288-4.615-10.288-10.288c0-5.673,4.616-10.288,10.288-10.288
			c0.222,0,0.442,0.011,0.626,0.021c0.015,0.001,0.031,0.002,0.047,0.003c5.393,0.34,9.616,4.843,9.616,10.264
			C53.258,261.426,49.026,265.935,43.662,266.263z M256,479.319c-5.673,0-10.288-4.615-10.288-10.288
			c0-0.233,0.012-0.465,0.023-0.655c0.33-5.402,4.839-9.634,10.265-9.634c5.426,0,9.935,4.232,10.263,9.595
			c0.014,0.229,0.025,0.461,0.025,0.694C266.288,474.705,261.673,479.319,256,479.319z M395.082,395.082
			c-27.585,27.586-63.071,46.429-101.079,53.915c-7.234-13.674-21.616-22.934-38.003-22.934c-16.382,0-30.759,9.255-37.998,22.935
			c-38.009-7.485-73.497-26.328-101.085-53.916c-27.586-27.585-46.427-63.071-53.915-101.078
			c13.674-7.234,22.935-21.616,22.935-38.003c0-16.382-9.255-30.76-22.937-37.998c7.486-38.009,26.329-73.497,53.916-101.084
			c27.586-27.586,63.072-46.429,101.079-53.915c7.236,13.674,21.616,22.934,38.003,22.934c16.382,0,30.759-9.255,37.998-22.935
			c38.009,7.485,73.498,26.329,101.084,53.916c27.586,27.585,46.429,63.071,53.915,101.079
			c-13.674,7.234-22.934,21.616-22.934,38.003c0,16.382,9.255,30.759,22.935,37.998
			C441.512,332.007,422.669,367.495,395.082,395.082z M469.031,266.288c-0.233,0-0.465-0.012-0.655-0.023
			c-5.402-0.331-9.634-4.839-9.634-10.266c0-5.427,4.232-9.935,9.595-10.263c0.229-0.014,0.461-0.025,0.694-0.025
			c5.673,0,10.288,4.615,10.288,10.288C479.319,261.672,474.705,266.288,469.031,266.288z"/>
	</g>
</g>
<g>
</g>
<g>
</g>
<g>
</g>
<g>
</g>
<g>
</g>
<g>
</g>
<g>
</g>
<g>
</g>
<g>
</g>
<g>
</g>
<g>
</g>
<g>
</g>
<g>
</g>
<g>
</g>
<g>
</g>
</svg>
