<?xml version="1.0" encoding="iso-8859-1"?>
<!-- Generator: Adobe Illustrator 19.0.0, SVG Export Plug-In . SVG Version: 6.00 Build 0)  -->
<svg version="1.1" id="Capa_1" xmlns="http://www.w3.org/2000/svg" xmlns:xlink="http://www.w3.org/1999/xlink" x="0px" y="0px"
	 viewBox="0 0 487.378 487.378" style="enable-background:new 0 0 487.378 487.378;" xml:space="preserve">
<g>
	<g>
		<path d="M463.278,259.189h-0.6v-31.6c0-50.1-40.8-90.9-90.9-90.9s-90.9,40.8-90.9,90.9v31.6h-2.2c-13.3,0-24,10.7-24,24v132.3
			c0,13.3,10.7,24,24,24h184.7c13.3,0,24-10.7,24-24v-132.3C487.378,269.889,476.578,259.189,463.278,259.189z M385.178,355.289
			c-1.8,1.3-2.3,2.7-2.3,4.8c0.1,9.7,0.1,19.4,0,29.1l0,0c0.2,4-1.8,8-5.5,9.8c-2,1-3.9,1.4-5.8,1.4c-6.2,0-11.2-5-11.2-11.2
			c0,0,0,0,0-0.1c0-9.7,0-19.5,0-29.2c0-2-0.4-3.3-2.2-4.6c-8.8-6.5-11.7-17.6-7.3-27.3c3.7-8.2,12-13.5,20.5-13.5
			c1.3,0,2.7,0.1,4,0.4c10.9,2.2,18.6,11,18.7,22C394.478,344.589,391.378,350.789,385.178,355.289z M422.878,259.189h-102.3v-31.6
			c0-28.2,23-51.2,51.2-51.2s51.2,22.9,51.2,51.2v31.6H422.878z"/>
		<path d="M195.778,440.289c8.9,0,17.8-0.6,26.5-1.8c-2.9-7.1-4.5-14.8-4.5-22.9v-24.1c0,0,0,0-0.1,0v-60.7h0.1v-39.8h-0.1v-94.6h30
			c7-27.9,23.2-52.1,45.1-69.4c-1.5-3.1-3-6.2-4.5-9.3c2.8,2.1,5.5,4.3,8.2,6.5c11.5-8.4,24.4-14.9,38.2-19.1
			c-36-36.4-85.4-58-138.9-58c-25.9,0-50.8,5-74.7,14.9c-99.5,41.8-147.3,156.3-106.5,256.9
			C44.478,392.489,116.178,440.289,195.778,440.289z M217.678,93.889c17.9,10,33.8,32.8,44.8,62.7h-44.8V93.889z M177.878,391.489
			c-15.9-11-30.9-32.9-42.8-60.7h42.8V391.489z M177.878,93.889v62.7h-44.8C143.978,127.689,159.978,104.789,177.878,93.889z
			 M122.078,196.389h55.7v94.6h-54.7c-4-15.9-6-31.9-6-47.8C117.178,227.289,119.178,211.289,122.078,196.389z M65.378,330.789h26.9
			c5,15.9,11.9,31.9,19.9,45.8C94.278,364.589,78.278,349.689,65.378,330.789z M109.178,113.789c-7,12.9-12.9,27.9-17.9,42.8h-24.9
			C77.278,139.689,91.278,124.689,109.178,113.789z M46.478,196.389h34.8c-3,15.9-4,31.9-4,46.8c0,14.9,2,30.9,5,47.8h-35.8
			C36.478,259.089,36.478,226.289,46.478,196.389z"/>
	</g>
</g>
<g>
</g>
<g>
</g>
<g>
</g>
<g>
</g>
<g>
</g>
<g>
</g>
<g>
</g>
<g>
</g>
<g>
</g>
<g>
</g>
<g>
</g>
<g>
</g>
<g>
</g>
<g>
</g>
<g>
</g>
</svg>
