<?xml version="1.0" encoding="iso-8859-1"?>
<!-- Generator: Adobe Illustrator 19.0.0, SVG Export Plug-In . SVG Version: 6.00 Build 0)  -->
<svg version="1.1" id="Capa_1" xmlns="http://www.w3.org/2000/svg" xmlns:xlink="http://www.w3.org/1999/xlink" x="0px" y="0px"
	 viewBox="0 0 488 488" style="enable-background:new 0 0 488 488;" xml:space="preserve">
<g>
	<g>
		<circle cx="245.379" cy="456.8" r="31.2"/>
		<path d="M412.779,113.3c-28.8-68.7-94.7-113.3-169-113.3c-24.1,0-47.3,4.6-69.6,13.9c-92.8,39-137.4,145.8-99.3,239.5
			c25.7,63.5,84.8,106.3,152.3,112.4v32.4c5.8-1.8,11.9-2.8,18.3-2.8s12.5,1,18.3,2.8v-32.6c17.1-1.9,33.7-6.1,49.8-12.8
			c45.5-18.6,80.8-53.8,99.3-99.3C431.379,208,431.379,158.8,412.779,113.3z M163.079,62.2c-6.5,12.1-12.1,26-16.7,39.9h-23.2
			C133.379,86.3,146.379,72.4,163.079,62.2z M104.579,227.5c-9.3-29.7-9.3-60.3,0-88.2h32.5c-2.8,14.9-3.7,29.7-3.7,43.6
			s1.9,28.8,4.6,44.6H104.579z M122.179,264.6h25.1c4.6,14.9,11.1,29.7,18.6,42.7C149.079,296.2,134.279,282.2,122.179,264.6z
			 M227.079,290.4L227.079,290.4v30.9c-14.9-10.2-28.8-30.6-39.9-56.6h39.9V290.4z M227.079,227.5h-51.1
			c-3.7-14.9-5.6-29.7-5.6-44.6c0-14.9,1.9-29.7,4.6-43.6h52v88.2H227.079z M227.079,102.1h-41.8c10.2-26.9,25.1-48.3,41.8-58.5
			V102.1z M364.479,102.1h-19.5c-3.7-13-9.3-25.1-14.9-36.2C344.079,76.1,355.279,88.2,364.479,102.1z M264.279,43.6
			c16.7,9.3,31.6,30.6,41.8,58.5h-41.8V43.6z M264.279,321.2v-56.6h39.9C292.979,290.6,279.079,311,264.279,321.2z M315.279,227.5
			h-51.1v-88.2h52c2.8,13.9,4.6,28.8,4.6,43.6C320.879,197.8,318.079,212.6,315.279,227.5z M326.479,303.6
			c6.5-12.1,12.1-25.1,16.7-39h21.4C354.279,280.4,341.279,293.4,326.479,303.6z M382.179,227.5h-29.7c2.8-15.8,4.6-30.6,4.6-44.6
			c0-14.9-0.9-29.7-3.7-43.6h28.8C391.479,168,391.479,198.7,382.179,227.5z"/>
		<path d="M82.679,438.5c-10.1,0-18.3,8.2-18.3,18.3c0,10.1,8.2,18.3,18.3,18.3h104.1c-1.8-5.8-2.8-11.9-2.8-18.3s1-12.5,2.8-18.3
			H82.679z"/>
		<path d="M408.079,475.1c10.1,0,18.3-8.2,18.3-18.3c0-10.1-8.2-18.3-18.3-18.3h-104.1c1.8,5.8,2.8,11.9,2.8,18.3s-1,12.5-2.8,18.3
			H408.079z"/>
	</g>
</g>
<g>
</g>
<g>
</g>
<g>
</g>
<g>
</g>
<g>
</g>
<g>
</g>
<g>
</g>
<g>
</g>
<g>
</g>
<g>
</g>
<g>
</g>
<g>
</g>
<g>
</g>
<g>
</g>
<g>
</g>
</svg>
