<?xml version="1.0" encoding="iso-8859-1"?>
<!-- Generator: Adobe Illustrator 19.0.0, SVG Export Plug-In . SVG Version: 6.00 Build 0)  -->
<svg version="1.1" id="Layer_1" xmlns="http://www.w3.org/2000/svg" xmlns:xlink="http://www.w3.org/1999/xlink" x="0px" y="0px"
	 viewBox="0 0 472.615 472.615" style="enable-background:new 0 0 472.615 472.615;" xml:space="preserve">
<g>
	<g>
		<path d="M472.615,179.495v-53.858l-35.643-6.005c-2.56-9.156-6.302-18.117-11.028-26.487l21.071-29.438l-38.203-38.106
			l-29.342,20.971c-8.468-4.726-17.329-8.368-26.585-11.027L346.978,0h-53.957l-5.908,35.546
			c-9.255,2.658-18.117,6.301-26.585,11.027l-29.342-20.971l-38.203,38.106l21.071,29.438c-4.726,8.37-8.468,17.331-11.028,26.487
			l-35.643,6.005v53.858l35.643,6.007c2.56,9.254,6.302,18.118,11.028,26.485l-21.071,29.44l38.203,38.106l29.342-20.973
			c8.468,4.728,17.329,8.37,26.585,11.029l5.908,35.642h53.957l5.908-35.642c9.255-2.658,18.117-6.301,26.585-11.029l29.342,20.973
			l38.203-38.106l-21.071-29.44c4.726-8.367,8.468-17.231,11.028-26.485L472.615,179.495z M320,218.291
			c-36.234,0-65.674-29.44-65.674-65.676c0-36.233,29.44-65.771,65.674-65.771s65.674,29.538,65.674,65.771
			C385.674,188.851,356.234,218.291,320,218.291z"/>
	</g>
</g>
<g>
	<g>
		<path d="M388.037,349.538H170.264c-13.471-31.82-45.01-54.154-81.648-54.154C39.778,295.385,0,335.065,0,384
			c0,48.837,39.778,88.615,88.615,88.615c36.623,0,68.151-22.37,81.63-54.154h52.77l13.686-15.26l15.262,15.26h19.692l28.652,28.654
			l34.462-34.462l15.655,15.653h37.612l39.385-39.385L388.037,349.538z M59.077,403.659c-10.876,0-19.692-8.817-19.692-19.692
			c0-10.875,8.816-19.692,19.692-19.692c10.876,0,19.692,8.817,19.692,19.692C78.769,394.842,69.953,403.659,59.077,403.659z"/>
	</g>
</g>
<g>
</g>
<g>
</g>
<g>
</g>
<g>
</g>
<g>
</g>
<g>
</g>
<g>
</g>
<g>
</g>
<g>
</g>
<g>
</g>
<g>
</g>
<g>
</g>
<g>
</g>
<g>
</g>
<g>
</g>
</svg>
