<?xml version="1.0" encoding="iso-8859-1"?>
<!-- Generator: Adobe Illustrator 18.0.0, SVG Export Plug-In . SVG Version: 6.00 Build 0)  -->
<!DOCTYPE svg PUBLIC "-//W3C//DTD SVG 1.1//EN" "http://www.w3.org/Graphics/SVG/1.1/DTD/svg11.dtd">
<svg version="1.1" id="Capa_1" xmlns="http://www.w3.org/2000/svg" xmlns:xlink="http://www.w3.org/1999/xlink" x="0px" y="0px"
	 viewBox="0 0 492.168 492.168" style="enable-background:new 0 0 492.168 492.168;" xml:space="preserve">
<path id="XMLID_322_" d="M459.929,187.307l-50.959-52.672c-5.259-5.434-12.498-8.501-20.049-8.501
	c-7.567,0-14.814,3.067-20.073,8.501l-22.088,22.842l-108.5-49.063C236.523,48.267,187.316,0,126.767,0
	C65.096,0,15.098,50.003,15.098,111.672c0,44.449,26.048,82.732,63.676,100.707v210.642c0,8.699,2.739,17.186,7.871,24.236
	l28.197,38.833c2.773,3.815,7.206,6.078,11.925,6.078c4.72,0,9.144-2.263,11.916-6.078l28.206-38.841
	c5.115-7.043,7.871-15.529,7.871-24.228v-21.713c0-5.479-2.865-10.549-7.567-13.368l-23.31-13.992
	c-0.868-0.527-1.407-1.466-1.407-2.486c0-1.011,0.539-1.951,1.407-2.478l23.31-13.998c4.702-2.813,7.567-7.887,7.567-13.361v-13.243
	c0-5.48-2.865-10.549-7.567-13.368l-23.31-13.991c-0.868-0.527-1.407-1.467-1.407-2.487c0-1.011,0.539-1.959,1.407-2.478
	l23.31-13.997c4.702-2.813,7.567-7.888,7.567-13.362v-56.321c28.603-13.673,50.454-39.112,59.311-70.049l88.596,40.059l-4.745,4.917
	c-11.014,11.376-17.166,26.594-17.166,42.424V425.49c0,14.181,11.486,25.678,25.669,25.678h124.977
	c14.183,0,25.669-11.497,25.669-25.678V229.74C477.07,213.9,470.927,198.683,459.929,187.307z M126.767,113.949
	c-21.405,0-38.756-17.344-38.756-38.745c0-21.4,17.352-38.738,38.756-38.738c21.396,0,38.732,17.337,38.732,38.738
	c0,0.103-0.025,0.201-0.025,0.295l-31.981-14.461c-8.208-3.729-17.882-0.072-21.59,8.143c-3.717,8.215-0.068,17.878,8.141,21.59
	l31.299,14.152C144.641,110.478,136.155,113.949,126.767,113.949z M388.921,220.233c-11.915,0-21.86-8.117-24.826-19.104
	l8.157,3.681c2.167,0.988,4.467,1.457,6.708,1.457c6.219,0,12.161-3.569,14.875-9.601c3.724-8.214,0.059-17.878-8.133-21.59
	l-8.157-3.689c3.447-1.704,7.264-2.749,11.376-2.749c14.25,0,25.788,11.56,25.788,25.798
	C414.709,208.691,403.172,220.233,388.921,220.233z"/>
<g>
</g>
<g>
</g>
<g>
</g>
<g>
</g>
<g>
</g>
<g>
</g>
<g>
</g>
<g>
</g>
<g>
</g>
<g>
</g>
<g>
</g>
<g>
</g>
<g>
</g>
<g>
</g>
<g>
</g>
</svg>
