<?xml version="1.0" encoding="iso-8859-1"?>
<!-- Generator: Adobe Illustrator 19.0.0, SVG Export Plug-In . SVG Version: 6.00 Build 0)  -->
<svg version="1.1" id="Layer_1" xmlns="http://www.w3.org/2000/svg" xmlns:xlink="http://www.w3.org/1999/xlink" x="0px" y="0px"
	 viewBox="0 0 512 512" style="enable-background:new 0 0 512 512;" xml:space="preserve">
<path style="fill:#F4D371;" d="M327.079,317.924L505.143,139.86c4.366-4.364,6.819-10.285,6.819-16.457V23.273
	C511.962,10.418,501.544,0,488.689,0h-100.13c-6.173,0-12.091,2.451-16.457,6.817L339.191,39.73
	c-4.366,4.364-6.819,10.285-6.819,16.457v31.581h-31.581c-12.851,0-23.273,10.42-23.273,23.271v31.581l-31.581-0.002
	c-6.173,0.002-12.091,2.453-16.457,6.819l-35.444,35.441c-9.64-1.727-19.433-2.6-29.252-2.6c-44.03,0-85.416,17.14-116.536,48.258
	c-64.281,64.287-64.281,168.886,0.003,233.169C79.393,494.85,120.791,512,164.828,512c0.003-0.002,0.011,0,0.016,0
	c44.041-0.003,85.442-17.155,116.582-48.292C319.625,425.503,336.507,370.697,327.079,317.924z M141.504,393.728
	c-6.13,0-12.134-2.482-16.463-6.81c-4.329-4.346-6.813-10.336-6.813-16.463c0.002-6.128,2.486-12.116,6.813-16.462
	c4.346-4.329,10.333-6.811,16.463-6.81c6.127-0.002,12.133,2.482,16.46,6.811c4.33,4.344,6.81,10.332,6.811,16.46
	c0,6.128-2.481,12.119-6.811,16.462C153.635,391.246,147.631,393.728,141.504,393.728z"/>
<path style="fill:#E9A35F;" d="M327.079,317.924L505.143,139.86c4.366-4.364,6.819-10.285,6.819-16.457V23.273
	c0-6.429-2.607-12.246-6.819-16.457L157.964,353.994c4.33,4.344,6.81,10.332,6.811,16.46c0,6.128-2.481,12.119-6.811,16.462
	c-4.329,4.329-10.333,6.811-16.46,6.811c-6.13,0-12.134-2.482-16.463-6.81l-76.789,76.789C79.393,494.85,120.791,512,164.828,512
	c0.003-0.002,0.011,0,0.016,0c44.041-0.003,85.442-17.155,116.582-48.292C319.625,425.503,336.507,370.697,327.079,317.924z"/>
<g>
</g>
<g>
</g>
<g>
</g>
<g>
</g>
<g>
</g>
<g>
</g>
<g>
</g>
<g>
</g>
<g>
</g>
<g>
</g>
<g>
</g>
<g>
</g>
<g>
</g>
<g>
</g>
<g>
</g>
</svg>
