<?xml version="1.0" ?><svg width="512px" height="512px" viewBox="0 0 512 512" id="Layer_1" style="enable-background:new 0 0 512 512;" version="1.1" xml:space="preserve" xmlns="http://www.w3.org/2000/svg" xmlns:xlink="http://www.w3.org/1999/xlink"><style type="text/css">
	.st0{fill:#2B79C2;}
	.st1{fill:#3B4652;}
	.st2{fill:#333333;}
</style><g><path class="st1" d="M371.9,338.3c-9.2,13-20.6,24.3-33.6,33.6c2.7,5.1,4.3,11,4.3,17.2v44.4c39.5-19.3,71.6-51.4,90.9-90.9h-44.4   C383,342.6,377.1,341.1,371.9,338.3z"/><path class="st1" d="M140.1,173.7c9.2-13,20.6-24.3,33.5-33.5c-2.8-5.2-4.3-11.1-4.3-17.2V78.5c-39.5,19.3-71.6,51.4-90.9,90.9   h44.4C129,169.4,134.9,170.9,140.1,173.7z"/><path class="st1" d="M371.9,173.7c5.2-2.8,11.1-4.3,17.2-4.3h44.4c-19.3-39.5-51.4-71.6-90.9-90.9v44.4c0,6.2-1.6,12.1-4.3,17.2   C351.3,149.3,362.7,160.7,371.9,173.7z"/><path class="st1" d="M140.1,338.3c-5.2,2.8-11.1,4.3-17.2,4.3H78.5c19.3,39.5,51.4,71.6,90.9,90.9v-44.4c0-6.2,1.5-12.1,4.3-17.2   C160.7,362.6,149.4,351.3,140.1,338.3z"/><path class="st0" d="M142.2,298.8L142.2,298.8c-5.2-13.7-7.8-28.1-7.8-42.8c0-14.7,2.6-29.1,7.8-42.8l0,0   c5.1-13.4-4.9-27.8-19.2-27.8h-58c-9.3,0-17.5,6.3-19.9,15.4c-4.7,18-7.1,36.6-7.1,55.3s2.4,37.3,7.1,55.3v0   c2.4,9,10.5,15.4,19.9,15.4h58C137.3,326.6,147.2,312.3,142.2,298.8z"/><path class="st0" d="M298.8,369.8L298.8,369.8c-13.7,5.2-28.1,7.8-42.8,7.8c-14.7,0-29.1-2.6-42.8-7.8l0,0   c-13.4-5.1-27.8,4.9-27.8,19.2v58c0,9.3,6.3,17.5,15.4,19.9h0c18,4.7,36.6,7.1,55.3,7.1s37.3-2.4,55.3-7.1   c9-2.4,15.4-10.5,15.4-19.9v-58C326.6,374.7,312.3,364.8,298.8,369.8z"/><path class="st0" d="M311.3,45.1c-18-4.7-36.6-7.1-55.3-7.1s-37.3,2.4-55.3,7.1h0c-9,2.4-15.4,10.5-15.4,19.9v58   c0,14.3,14.3,24.3,27.8,19.2l0,0c13.7-5.1,28.1-7.8,42.8-7.8c14.7,0,29.1,2.6,42.8,7.8l0,0c13.4,5.1,27.8-4.9,27.8-19.2v-58   C326.6,55.6,320.3,47.4,311.3,45.1z"/><path class="st0" d="M466.9,200.7c-2.4-9-10.5-15.4-19.9-15.4h-58c-14.3,0-24.3,14.3-19.2,27.8l0,0c5.1,13.7,7.8,28.1,7.8,42.8   c0,14.7-2.6,29.1-7.8,42.8l0,0c-5.1,13.4,4.9,27.8,19.2,27.8h58c9.3,0,17.5-6.3,19.9-15.4l0,0c4.7-18,7.1-36.6,7.1-55.3   S471.6,218.7,466.9,200.7z"/><path class="st1" d="M256,161.6c-21.3,0-38.6,17.3-38.6,38.6v34.3h-8.1c-3.8,0-6.9,3.1-6.9,6.9v67c0,2.5,1.4,4.8,3.5,6l46.7,26   c2.1,1.2,4.6,1.2,6.7,0l46.7-26c2.2-1.2,3.5-3.5,3.5-6v-67c0-3.8-3.1-6.9-6.9-6.9h-8.1v-34.3C294.6,178.9,277.3,161.6,256,161.6z    M264,294.1c0,4.4-3.6,8-8,8s-8-3.6-8-8v-22.7c0-4.4,3.6-8,8-8s8,3.6,8,8V294.1z M278.6,234.5h-45.2v-34.3   c0-12.5,10.1-22.6,22.6-22.6s22.6,10.1,22.6,22.6V234.5z"/></g></svg>