<?xml version="1.0" ?><svg width="512px" height="512px" viewBox="0 0 512 512" id="Layer_1" style="enable-background:new 0 0 512 512;" version="1.1" xml:space="preserve" xmlns="http://www.w3.org/2000/svg" xmlns:xlink="http://www.w3.org/1999/xlink"><style type="text/css">
	.st0{fill:#2B79C2;}
	.st1{fill:#3B4652;}
	.st2{fill:#333333;}
</style><g><path class="st1" d="M194.1,244.1v-30.2c0-10.8-8.8-19.6-19.7-19.6H147c-9.4,0-17.5,6.7-19.3,15.9c-0.2,1.2-0.4,2.5-0.4,3.7v30.2   c-3,1.3-5.1,4.3-5.1,7.8v49.4c0,4.7,3.8,8.5,8.5,8.5h60.1c4.7,0,8.5-3.8,8.5-8.5v-49.4c0-0.8-0.1-1.5-0.3-2.2   C198.3,247.2,196.5,245.1,194.1,244.1z M178.1,243.5h-34.8v-29.6c0-0.2,0-0.5,0.1-0.7c0.3-1.7,1.8-3,3.6-3h27.5   c2,0,3.7,1.6,3.7,3.6V243.5z"/><path class="st0" d="M394.1,312.5c-30.6,0-57.4,15.8-72.9,39.6c-0.1-0.1-0.2-0.1-0.3-0.2l-50.4-26.5c12.7-20.1,20.1-43.9,20.1-69.4   c0-18.9-4-36.9-11.3-53.1c0.4-0.2,0.8-0.4,1.1-0.7l47.2-33.2c0.1-0.1,0.2-0.2,0.3-0.2c2.9,3.4,6,6.6,9.4,9.5l33.1-30.8   c-11.8-10.5-19.6-28.1-19.6-45.7c0-27.9,19.4-41.7,43.4-41.7c23.9,0,43.3,13.8,43.3,41.7c0,17.6-7.8,35.2-19.5,45.7l33.1,30.8   c18.4-16,30.1-39.5,30.1-65.8c0-48.1-39-87-87-87c-48.1,0-87,38.9-87,87c0,15.8,4.2,30.6,11.5,43.3c-0.1,0.1-0.2,0.1-0.3,0.2   l-46.5,32.7c-22.8-37.5-64-62.6-111.1-62.6C89,126.2,30.9,184.3,30.9,256S89,385.9,160.7,385.9c40.4,0,76.6-18.5,100.4-47.5   c0.4,0.3,0.7,0.5,1.2,0.8l51.1,26.9c0.1,0.1,0.2,0.1,0.3,0.1c-4.3,10.3-6.6,21.5-6.6,33.3c0,48,39,87,87,87s87-39,87-87   S442.2,312.5,394.1,312.5z M234.1,315.3c-17.3,21.4-43.8,35.1-73.4,35.1c-52.1,0-94.3-42.2-94.3-94.3s42.2-94.3,94.3-94.3   c37.9,0,70.7,22.4,85.6,54.7c5.6,12,8.7,25.5,8.7,39.6C255.1,278.4,247.2,299.1,234.1,315.3z M382.5,391.5h23.2   c11.5,0,20.8,10.8,20.8,24.2c0,13.3-9.3,24.2-20.8,24.2h-3.2v13.5c0,4.4-3.6,8-8,8s-8-3.6-8-8v-13.5h-16.9c-4.4,0-8-3.6-8-8   s3.6-8,8-8h36.1c2.2,0,4.8-3.6,4.8-8.2s-2.6-8.2-4.8-8.2h-23.2c-11.5,0-20.8-10.8-20.8-24.2c0-13.3,9.3-24.2,20.8-24.2h4v-13.5   c0-4.4,3.6-8,8-8s8,3.6,8,8v13.5h16c4.4,0,8,3.6,8,8s-3.6,8-8,8h-36.1c-2.2,0-4.8,3.6-4.8,8.2S380.3,391.5,382.5,391.5z"/></g></svg>