<?xml version="1.0" encoding="iso-8859-1"?>
<!-- Generator: Adobe Illustrator 19.0.0, SVG Export Plug-In . SVG Version: 6.00 Build 0)  -->
<svg version="1.1" id="Layer_1" xmlns="http://www.w3.org/2000/svg" xmlns:xlink="http://www.w3.org/1999/xlink" x="0px" y="0px"
	 viewBox="0 0 508 508" style="enable-background:new 0 0 508 508;" xml:space="preserve">
<circle style="fill:#FFD05B;" cx="254" cy="254" r="254"/>
<g>
	<circle style="fill:#FEFEFE;" cx="399.6" cy="252" r="55.2"/>
	<circle style="fill:#FEFEFE;" cx="150" cy="356" r="55.2"/>
	<circle style="fill:#FEFEFE;" cx="178.4" cy="127.2" r="55.2"/>
</g>
<path style="fill:#FFFFFF;" d="M301.2,282.4l15.6,1.2l6.4-19.2l-13.2-8c0.4-5.6,0-11.2-1.2-16.4l12-10l-9.2-18l-15.2,3.6
	c-3.6-4-7.6-8-12.4-10.8l1.2-15.6l-19.2-6.4l-8,13.2c-5.6-0.4-11.2,0-16.4,1.2l-10-12l-18,8.8l3.6,15.2c-4,3.6-8,7.6-10.8,12.4
	l-15.6-1.2l-6.4,19.2l13.2,8.4c-0.4,5.6,0,11.2,1.2,16.4l-12,10l9.2,18l15.2-3.6c3.6,4,7.6,8,12.4,10.8l-1.6,15.2l19.2,6.4l8.4-13.2
	c5.6,0.4,11.2,0,16.4-1.2l10,12l18-8.8l-3.6-15.2C294.4,291.2,298.4,287.2,301.2,282.4z M242.4,286c-18.8-6.4-28.8-26.4-22.8-45.2
	c6.4-18.8,26.8-29.2,45.6-22.8c18.8,6.4,28.8,26.4,22.8,45.2C281.6,282,261.2,292.4,242.4,286z"/>
<path style="fill:#324A5E;" d="M380.4,304c-20.4,50-69.6,85.2-126.8,85.2c-18.8,0-36.8-4-53.6-10.8c-2.4,5.6-5.6,10.4-9.6,14.8
	c19.2,8.8,40.8,13.6,63.2,13.6c65.6,0,122-41.2,144.4-99.2C392,307.2,386,306,380.4,304z M132,157.2c-20.4,26-32.8,59.2-32.8,94.8
	c0,22.4,4.8,43.6,13.6,62.8c4.4-4,9.2-7.2,14.8-9.6c-6.8-16.4-10.8-34.4-10.8-53.2c0-30.4,10-58.8,27.2-81.6
	C139.2,166.8,135.2,162.4,132,157.2z M253.6,97.6c-9.2,0-18.4,0.8-27.6,2.4c2.8,5.2,5.2,10.8,6.4,16.8c6.8-1.2,14-1.6,21.2-1.6
	c57.2,0,106.4,35.2,126.8,85.2c5.6-2,11.2-3.2,17.2-3.2C375.6,138.8,319.6,97.6,253.6,97.6z"/>
<g>
	<circle style="fill:#FF7058;" cx="399.6" cy="252" r="28.4"/>
	<circle style="fill:#FF7058;" cx="150" cy="356" r="28.4"/>
	<circle style="fill:#FF7058;" cx="178.4" cy="127.2" r="28.4"/>
</g>
<g>
</g>
<g>
</g>
<g>
</g>
<g>
</g>
<g>
</g>
<g>
</g>
<g>
</g>
<g>
</g>
<g>
</g>
<g>
</g>
<g>
</g>
<g>
</g>
<g>
</g>
<g>
</g>
<g>
</g>
</svg>
