<?xml version="1.0" encoding="iso-8859-1"?>
<!-- Generator: Adobe Illustrator 19.0.0, SVG Export Plug-In . SVG Version: 6.00 Build 0)  -->
<svg version="1.1" id="Capa_1" xmlns="http://www.w3.org/2000/svg" xmlns:xlink="http://www.w3.org/1999/xlink" x="0px" y="0px"
	 viewBox="0 0 487.9 487.9" style="enable-background:new 0 0 487.9 487.9;" xml:space="preserve">
<g>
	<path d="M40.85,284.8c17.3,0,32.1-10.8,38-26.1h86.9c2.1,11,6.4,21.3,12.5,30.2l-61.5,61.5c-15-6.6-33.1-3.8-45.3,8.4
		c-15.9,15.9-15.9,41.8,0,57.7c15.9,15.9,41.8,15.9,57.7,0c12.3-12.3,15-30.3,8.4-45.3l61.5-61.5c8.9,6.1,19.2,10.5,30.2,12.5v86.9
		c-15.2,5.9-26.1,20.7-26.1,38c0,22.5,18.3,40.8,40.8,40.8s40.8-18.3,40.8-40.8c0-17.3-10.8-32.1-26.1-38v-86.9
		c11-2.1,21.3-6.4,30.2-12.5l61.5,61.5c-6.6,15-3.8,33.1,8.4,45.3c15.9,15.9,41.8,15.9,57.7,0c15.9-15.9,15.9-41.8,0-57.7
		c-12.3-12.3-30.3-15-45.3-8.4l-61.5-61.5c6.1-8.9,10.5-19.2,12.5-30.2h86.9c5.9,15.2,20.7,26.1,38,26.1c22.5,0,40.8-18.3,40.8-40.8
		s-18.3-40.8-40.8-40.8c-17.3,0-32.1,10.8-38,26.1h-86.9c-2.1-11-6.4-21.3-12.5-30.2l61.5-61.5c15,6.6,33.1,3.8,45.3-8.4
		c15.9-15.9,15.9-41.8,0-57.7s-41.8-15.9-57.7,0c-12.3,12.3-15,30.3-8.4,45.3l-61.5,61.5c-8.9-6.1-19.2-10.5-30.2-12.5v-87
		c15.2-5.9,26.1-20.7,26.1-38c0-22.5-18.3-40.8-40.8-40.8s-40.8,18.3-40.8,40.8c0,17.3,10.8,32.1,26.1,38v86.9
		c-11,2.1-21.3,6.4-30.2,12.5l-61.5-61.5c6.6-15,3.8-33.1-8.4-45.3c-15.9-15.9-41.8-15.9-57.7,0s-15.9,41.8,0,57.7
		c12.3,12.3,30.3,15,45.3,8.4l61.5,61.5c-6.1,8.9-10.5,19.2-12.5,30.2h-86.9c-5.9-15.2-20.7-26.1-38-26.1
		c-22.5,0.1-40.8,18.4-40.8,40.9S18.35,284.8,40.85,284.8z M244.05,202.4c22.9,0,41.6,18.6,41.6,41.6c0,22.9-18.6,41.6-41.6,41.6
		c-22.9,0-41.6-18.6-41.6-41.6C202.45,221.1,221.15,202.4,244.05,202.4z"/>
</g>
<g>
</g>
<g>
</g>
<g>
</g>
<g>
</g>
<g>
</g>
<g>
</g>
<g>
</g>
<g>
</g>
<g>
</g>
<g>
</g>
<g>
</g>
<g>
</g>
<g>
</g>
<g>
</g>
<g>
</g>
</svg>
