<?xml version="1.0" encoding="iso-8859-1"?>
<!-- Generator: Adobe Illustrator 19.0.0, SVG Export Plug-In . SVG Version: 6.00 Build 0)  -->
<svg version="1.1" id="Layer_1" xmlns="http://www.w3.org/2000/svg" xmlns:xlink="http://www.w3.org/1999/xlink" x="0px" y="0px"
	 viewBox="0 0 512 512" style="enable-background:new 0 0 512 512;" xml:space="preserve">
<path style="fill:#FFCD54;" d="M0,256.006C0,397.402,114.606,512.004,255.996,512C397.394,512.004,512,397.402,512,256.006
	C512.009,114.61,397.394,0,255.996,0C114.606,0,0,114.614,0,256.006z"/>
<path style="fill:#F4BA41;" d="M509.613,290.568c-0.159-0.156-97.063-97.091-97.61-97.611c-8.327-8.746-20.007-14.268-33.008-14.268
	c-22.449,0-40.93,16.353-44.734,37.728c-0.091-0.096-0.196-0.179-0.288-0.275c-0.485-0.572-71.139-71.116-71.659-71.659
	c-8.079-9.546-21.299-14.992-33.913-14.992H193.9c-0.034-0.031-0.077-0.054-0.111-0.086c-0.533-0.532-28.105-28.158-28.663-28.662
	c-8.256-8.241-19.556-13.422-32.119-13.422c-25.189,0-45.684,20.495-45.684,45.685c0,12.999,5.521,24.679,14.268,33.008
	C102.109,166.56,255.471,319.927,256,320.432v26.249c0,11.191,3.961,20.389,10.701,26.697
	c0.512,0.554,107.735,107.771,108.286,108.285c0.213,0.23,0.444,0.442,0.663,0.662C447.05,444.503,498.361,373.914,509.613,290.568z
	"/>
<path style="fill:#F6F6F6;" d="M378.995,333.311c-21.556,0-39.629,15.026-44.406,35.141h-43.104
	c-13.419,0-21.428-8.14-21.428-21.771V231.364c3.929,2.217,8.454,3.551,13.541,3.551h50.99
	c4.779,20.115,22.851,35.141,44.406,35.141c25.189,0,45.684-20.495,45.684-45.684s-20.495-45.684-45.684-45.684
	c-24.003,0-43.7,18.621-45.506,42.17h-49.891c-9.986,0-13.541-8.325-13.541-16.115V171.66v-6.342
	c0-22.128-21.62-35.828-41.655-35.828h-49.891c-1.806-23.549-21.503-42.17-45.506-42.17c-25.189,0-45.684,20.495-45.684,45.684
	s20.495,45.684,45.684,45.684c21.556,0,39.629-15.026,44.406-35.141h50.99c13.274,0,27.598,8.325,27.598,21.772v6.342v33.083
	v141.938c0,21.428,14.262,35.828,35.485,35.828h42.004c1.806,23.549,21.503,42.17,45.506,42.17
	c25.189,0,45.684-20.495,45.684-45.684S404.185,333.311,378.995,333.311z M378.995,192.746c17.44,0,31.628,14.187,31.628,31.628
	S396.435,256,378.995,256c-17.44,0-31.628-14.187-31.628-31.628S361.554,192.746,378.995,192.746z M133.005,164.633
	c-17.44,0-31.628-14.187-31.628-31.628s14.187-31.628,31.628-31.628s31.628,14.187,31.628,31.628S150.445,164.633,133.005,164.633z
	 M378.995,410.622c-17.44,0-31.628-14.187-31.628-31.628c0-17.441,14.187-31.628,31.628-31.628c17.44,0,31.628,14.187,31.628,31.628
	C410.623,396.435,396.435,410.622,378.995,410.622z"/>
<g>
</g>
<g>
</g>
<g>
</g>
<g>
</g>
<g>
</g>
<g>
</g>
<g>
</g>
<g>
</g>
<g>
</g>
<g>
</g>
<g>
</g>
<g>
</g>
<g>
</g>
<g>
</g>
<g>
</g>
</svg>
