<?xml version="1.0" encoding="iso-8859-1"?>
<!-- Generator: Adobe Illustrator 19.0.0, SVG Export Plug-In . SVG Version: 6.00 Build 0)  -->
<svg version="1.1" id="Layer_1" xmlns="http://www.w3.org/2000/svg" xmlns:xlink="http://www.w3.org/1999/xlink" x="0px" y="0px"
	 viewBox="0 0 512 512" style="enable-background:new 0 0 512 512;" xml:space="preserve">
<path style="fill:#808285;" d="M441.895,316.884c19.696-92.26-30.84-184.075-117.617-217.564
	c-8.374-3.232-12.541-12.639-9.311-21.012s12.643-12.542,21.012-9.311c101.75,39.267,160.721,146.861,137.7,254.673
	C469.142,344.925,437.409,337.882,441.895,316.884z"/>
<path style="fill:#A7A9AC;" d="M131.424,461.852c-7.444-5.013-9.415-15.112-4.402-22.556c5.013-7.444,15.112-9.416,22.556-4.402
	c63.976,43.086,148.163,43.251,212.386,0c7.444-5.014,17.542-3.043,22.556,4.402c5.014,7.444,3.043,17.543-4.402,22.556
	C304.882,512.524,206.343,512.309,131.424,461.852z"/>
<path style="fill:#808285;" d="M384.521,439.296c-5.014-7.445-15.112-9.416-22.556-4.402
	c-32.083,21.606-69.148,32.377-106.187,32.375v32.505c43.363,0.002,86.759-12.611,124.342-37.922
	C387.563,456.838,389.535,446.74,384.521,439.296z"/>
<path style="fill:#A7A9AC;" d="M37.877,323.669c-23.139-108.361,36.437-215.595,137.7-254.673c8.37-3.23,17.78,0.936,21.012,9.311
	c3.231,8.374-0.937,17.781-9.311,21.012c-86.702,33.46-137.33,125.221-117.617,217.564
	C74.156,337.929,42.404,344.886,37.877,323.669z"/>
<g>
	<path style="fill:#B9F7F9;" d="M255.778,199.652c-51.673,0-93.713-42.04-93.713-93.714c0-51.647,41.851-93.714,93.713-93.714
		c51.979,0,93.713,42.189,93.713,93.714C349.491,157.612,307.45,199.652,255.778,199.652z"/>
	<path style="fill:#B9F7F9;" d="M93.714,480.362C42.04,480.362,0,438.322,0,386.648c0-50.431,40.869-93.714,93.714-93.714
		c51.673,0,93.713,42.04,93.713,93.714C187.426,439.331,144.655,480.362,93.714,480.362z"/>
	<path style="fill:#B9F7F9;" d="M417.842,480.823c-50.683,0-93.713-40.829-93.713-93.714c0-51.674,42.04-93.714,93.713-93.714
		c52.848,0,93.714,43.283,93.714,93.714C511.556,438.782,469.516,480.823,417.842,480.823z"/>
</g>
<g>
	<path style="fill:#00D8E0;" d="M255.778,12.226v187.426c51.673,0,93.713-42.04,93.713-93.714
		C349.491,54.413,307.756,12.226,255.778,12.226z"/>
	<path style="fill:#00D8E0;" d="M93.268,292.936v187.426c51.673,0,93.713-42.04,93.713-93.714
		C186.981,335.123,145.247,292.936,93.268,292.936z"/>
	<path style="fill:#00D8E0;" d="M418.287,292.936v187.426c51.673,0,93.713-42.04,93.713-93.714
		C512,335.123,470.265,292.936,418.287,292.936z"/>
</g>
<g>
</g>
<g>
</g>
<g>
</g>
<g>
</g>
<g>
</g>
<g>
</g>
<g>
</g>
<g>
</g>
<g>
</g>
<g>
</g>
<g>
</g>
<g>
</g>
<g>
</g>
<g>
</g>
<g>
</g>
</svg>
