<?xml version="1.0" encoding="iso-8859-1"?>
<!-- Generator: Adobe Illustrator 19.0.0, SVG Export Plug-In . SVG Version: 6.00 Build 0)  -->
<svg version="1.1" id="Layer_1" xmlns="http://www.w3.org/2000/svg" xmlns:xlink="http://www.w3.org/1999/xlink" x="0px" y="0px"
	 viewBox="0 0 512 512" style="enable-background:new 0 0 512 512;" xml:space="preserve">
<g>
	<circle style="fill:#98C8ED;" cx="395.314" cy="142.801" r="60.855"/>
	<path style="fill:#98C8ED;" d="M480.883,351.456c17.186,0,31.117-13.931,31.117-31.116c0-64.443-52.242-116.684-116.684-116.684
		c-64.443,0-116.684,52.241-116.684,116.684c0,17.185,13.932,31.116,31.117,31.116H480.883z"/>
</g>
<g>
	<path style="fill:#7AB9E8;" d="M456.174,142.798c0-33.612-27.247-60.858-60.858-60.858v121.717
		C428.927,203.657,456.174,176.409,456.174,142.798z"/>
	<path style="fill:#7AB9E8;" d="M395.315,203.657v147.8h85.567c17.186,0,31.117-13.931,31.117-31.116
		C512,255.898,459.756,203.657,395.315,203.657z"/>
</g>
<g>
	<circle style="fill:#98C8ED;" cx="116.69" cy="142.801" r="60.855"/>
	<path style="fill:#98C8ED;" d="M202.252,351.456c17.186,0,31.117-13.931,31.117-31.116c0-64.443-52.242-116.684-116.684-116.684
		C52.242,203.657,0,255.898,0,320.34c0,17.185,13.932,31.116,31.117,31.116H202.252z"/>
</g>
<g>
	<path style="fill:#7AB9E8;" d="M177.543,142.798c0-33.612-27.247-60.858-60.858-60.858v121.717
		C150.296,203.657,177.543,176.409,177.543,142.798z"/>
	<path style="fill:#7AB9E8;" d="M116.684,203.657v147.8h85.567c17.186,0,31.117-13.931,31.117-31.116
		C233.369,255.898,181.125,203.657,116.684,203.657z"/>
</g>
<g>
	<circle style="fill:#98C8ED;" cx="255.828" cy="160.544" r="78.609"/>
	<path style="fill:#98C8ED;" d="M366.352,430.065c22.199,0,40.193-17.995,40.193-40.192c0-83.238-67.48-150.716-150.717-150.716
		c-83.238,0-150.717,67.478-150.717,150.716c0,22.197,17.995,40.192,40.192,40.192H366.352z"/>
</g>
<g>
	<path style="fill:#7AB9E8;" d="M334.437,160.548c0-43.415-35.194-78.609-78.609-78.609v157.218
		C299.243,239.157,334.437,203.964,334.437,160.548z"/>
	<path style="fill:#7AB9E8;" d="M255.829,239.157v190.908h110.524c22.199,0,40.193-17.995,40.193-40.192
		C406.545,306.636,339.066,239.157,255.829,239.157z"/>
</g>
<g>
</g>
<g>
</g>
<g>
</g>
<g>
</g>
<g>
</g>
<g>
</g>
<g>
</g>
<g>
</g>
<g>
</g>
<g>
</g>
<g>
</g>
<g>
</g>
<g>
</g>
<g>
</g>
<g>
</g>
</svg>
