<?xml version="1.0" encoding="iso-8859-1"?>
<!-- Generator: Adobe Illustrator 16.0.0, SVG Export Plug-In . SVG Version: 6.00 Build 0)  -->
<!DOCTYPE svg PUBLIC "-//W3C//DTD SVG 1.1//EN" "http://www.w3.org/Graphics/SVG/1.1/DTD/svg11.dtd">
<svg version="1.1" id="Capa_1" xmlns="http://www.w3.org/2000/svg" xmlns:xlink="http://www.w3.org/1999/xlink" x="0px" y="0px"
	 width="37.986px" height="37.986px" viewBox="0 0 37.986 37.986" style="enable-background:new 0 0 37.986 37.986;"
	 xml:space="preserve">
<g>
	<g>
		<path d="M19.964,20.458c-2.258,0-4.096,1.837-4.096,4.097c0,2.258,1.837,4.096,4.096,4.096s4.097-1.838,4.097-4.096
			C24.061,22.294,22.223,20.458,19.964,20.458z"/>
		<path d="M33.381,5.151c-0.408,0-0.798,0.083-1.152,0.232c-3.217-2.993-7.512-4.84-12.241-4.84c-5.723,0-10.82,2.694-14.119,6.87
			C5.806,7.472,5.762,7.543,5.716,7.617c-1.771,2.308-2.99,5.051-3.475,8.043C0.956,15.994,0,17.154,0,18.542
			s0.956,2.548,2.241,2.882c1.074,6.631,5.771,12.053,11.998,14.16v0.86c0,0.552,0.448,1,1,1h4.486c0.077,0,0.146-0.022,0.218-0.039
			c0.075,0.018,0.146,0.039,0.224,0.039h4.522c0.553,0,1-0.448,1-1v-0.843c7.137-2.394,12.297-9.129,12.297-17.06
			c0-3.127-0.803-6.068-2.211-8.633c0.369-0.497,0.594-1.106,0.594-1.771C36.369,6.492,35.029,5.151,33.381,5.151z M31.011,17.543
			c-0.368-0.585-0.933-1.025-1.602-1.244c-0.165-2.616-0.617-5.035-1.294-7.161h2.461c0.414,1.155,1.508,1.988,2.804,1.988
			c0.25,0,0.491-0.04,0.724-0.099c1.049,1.964,1.687,4.173,1.832,6.515L31.011,17.543L31.011,17.543z M25.46,29.332
			c-0.183-0.23-0.454-0.386-0.771-0.386h-2.267c-0.519,0-0.95,0.396-0.996,0.913l-0.396,4.503c-0.102,0.032-0.203,0.077-0.307,0.1
			v-4.516c0-0.552-0.449-1-1-1c-0.552,0-1,0.448-1,1v4.342c-0.118-0.045-0.235-0.089-0.351-0.146l-0.321-4.271
			c-0.039-0.521-0.474-0.925-0.997-0.925h-1.817c-0.298,0-0.558,0.137-0.742,0.344c-1.135-2.63-1.871-6.036-1.985-9.747H25.54
			c0.147,1.049,0.83,1.926,1.772,2.331C27.02,24.695,26.361,27.255,25.46,29.332z M5.791,17.543
			c-0.271-0.757-0.833-1.372-1.557-1.707c0.424-2.473,1.415-4.749,2.837-6.697h3.398c0.196,0.547,0.543,1.016,0.996,1.363
			c-0.55,2.13-0.882,4.507-0.953,7.041H5.791z M30.577,7.14h-3.19c-0.615-1.442-1.351-2.689-2.176-3.703
			c2.076,0.72,3.954,1.854,5.544,3.307C30.688,6.871,30.627,7.001,30.577,7.14z M25.184,7.14h-9.105
			c-0.15-0.42-0.381-0.802-0.691-1.111c1.281-2.166,2.883-3.485,4.601-3.485C21.982,2.543,23.824,4.316,25.184,7.14z M13.575,5.182
			c-0.101-0.01-0.198-0.03-0.302-0.03c-1.295,0-2.39,0.833-2.804,1.988H8.784c1.676-1.646,3.714-2.917,5.979-3.703
			C14.341,3.956,13.946,4.543,13.575,5.182z M13.379,11.117c1.249-0.044,2.296-0.854,2.698-1.978h9.922
			c0.729,2.094,1.226,4.557,1.405,7.21c-0.6,0.235-1.103,0.656-1.44,1.194H12.512C12.583,15.25,12.885,13.069,13.379,11.117z
			 M4.234,21.25c0.724-0.335,1.286-0.95,1.557-1.707h4.722c0.154,5.537,1.566,10.327,3.725,13.4v0.514
			C9.066,31.457,5.195,26.851,4.234,21.25z M25.689,33.474v-0.465c1.86-2.613,3.18-6.486,3.627-11.024
			c1.113-0.324,1.951-1.271,2.117-2.441h4.504C35.54,25.919,31.402,31.285,25.689,33.474z"/>
	</g>
</g>
<g>
</g>
<g>
</g>
<g>
</g>
<g>
</g>
<g>
</g>
<g>
</g>
<g>
</g>
<g>
</g>
<g>
</g>
<g>
</g>
<g>
</g>
<g>
</g>
<g>
</g>
<g>
</g>
<g>
</g>
</svg>
