<?xml version="1.0" encoding="iso-8859-1"?>
<!-- Generator: Adobe Illustrator 16.0.0, SVG Export Plug-In . SVG Version: 6.00 Build 0)  -->
<!DOCTYPE svg PUBLIC "-//W3C//DTD SVG 1.1//EN" "http://www.w3.org/Graphics/SVG/1.1/DTD/svg11.dtd">
<svg version="1.1" id="Capa_1" xmlns="http://www.w3.org/2000/svg" xmlns:xlink="http://www.w3.org/1999/xlink" x="0px" y="0px"
	 width="886.558px" height="886.559px" viewBox="0 0 886.558 886.559" style="enable-background:new 0 0 886.558 886.559;"
	 xml:space="preserve">
<g>
	<circle cx="198.601" cy="768.218" r="64.101"/>
	<path d="M551.539,68.929C507.091,24.48,447.992,0,385.131,0h-3.692C318.577,0,259.479,24.479,215.03,68.929
		c-44.449,44.45-68.929,103.547-68.929,166.408v283.021c0,28.996,23.505,52.5,52.5,52.5c28.995,0,52.5-23.504,52.5-52.5V235.337
		C251.101,163.469,309.57,105,381.438,105h3.692c71.869,0,130.337,58.469,130.337,130.337v471.384l-42.191-41.689
		c-20.625-20.381-53.867-20.182-74.245,0.445c-20.38,20.625-20.18,53.865,0.445,74.244l133.27,131.682
		c10.232,10.111,23.566,15.156,36.898,15.156c13.541,0,27.078-5.207,37.346-15.602l129.912-131.479
		c20.381-20.625,20.18-53.865-0.445-74.244s-53.865-20.18-74.242,0.445l-41.748,42.25V235.337
		C620.468,172.476,595.988,113.378,551.539,68.929z"/>
</g>
<g>
</g>
<g>
</g>
<g>
</g>
<g>
</g>
<g>
</g>
<g>
</g>
<g>
</g>
<g>
</g>
<g>
</g>
<g>
</g>
<g>
</g>
<g>
</g>
<g>
</g>
<g>
</g>
<g>
</g>
</svg>
