<?xml version="1.0" encoding="iso-8859-1"?>
<!-- Generator: Adobe Illustrator 16.0.0, SVG Export Plug-In . SVG Version: 6.00 Build 0)  -->
<!DOCTYPE svg PUBLIC "-//W3C//DTD SVG 1.1//EN" "http://www.w3.org/Graphics/SVG/1.1/DTD/svg11.dtd">
<svg version="1.1" id="Capa_1" xmlns="http://www.w3.org/2000/svg" xmlns:xlink="http://www.w3.org/1999/xlink" x="0px" y="0px"
	 width="869.958px" height="869.958px" viewBox="0 0 869.958 869.958" style="enable-background:new 0 0 869.958 869.958;"
	 xml:space="preserve">
<g>
	<path d="M115.132,737.958c13.436,0,26.872-5.126,37.124-15.377c20.502-20.502,20.502-53.744-0.001-74.246
		c-30.474-30.474-47.256-70.988-47.256-114.084v-4.32c0-88.963,72.377-161.34,161.34-161.34h423.78l-41.688,42.192
		c-20.381,20.625-20.18,53.865,0.445,74.244c10.23,10.11,23.564,15.155,36.896,15.155c13.541,0,27.078-5.207,37.346-15.6
		l131.684-133.271c9.787-9.905,15.236-23.291,15.154-37.215c-0.084-13.923-5.693-27.244-15.6-37.03l-131.48-129.912
		c-20.623-20.379-53.865-20.18-74.244,0.445s-20.18,53.866,0.445,74.245l42.25,41.747H266.339
		c-71.143,0-138.026,27.704-188.332,78.009C27.704,391.903,0,458.788,0,529.93v4.32c0,71.143,27.704,138.026,78.01,188.331
		C88.261,732.833,101.697,737.958,115.132,737.958z"/>
</g>
<g>
</g>
<g>
</g>
<g>
</g>
<g>
</g>
<g>
</g>
<g>
</g>
<g>
</g>
<g>
</g>
<g>
</g>
<g>
</g>
<g>
</g>
<g>
</g>
<g>
</g>
<g>
</g>
<g>
</g>
</svg>
