<?xml version="1.0" encoding="iso-8859-1"?>
<!-- Generator: Adobe Illustrator 19.0.0, SVG Export Plug-In . SVG Version: 6.00 Build 0)  -->
<svg version="1.1" id="Capa_1" xmlns="http://www.w3.org/2000/svg" xmlns:xlink="http://www.w3.org/1999/xlink" x="0px" y="0px"
	 viewBox="0 0 489.927 489.927" style="enable-background:new 0 0 489.927 489.927;" xml:space="preserve">
<g>
	<g>
		<path d="M432.127,172.464c-3.3,12.4-7.8,36.5-9.5,49.3c0.1,0.2,0.2,0.3,0.3,0.4c2.4,0.8,4.7,1.9,6.9,3.2c1.8,1.1,3.4,2.3,4.9,3.7
			c0-1.4,0.1-2.7,0.1-4.1c0.3-13.4,3.7-38.5,6-52.5c0.7-4.2,1.5-8.6,2.9-12.9C437.427,161.664,433.827,166.264,432.127,172.464z"/>
		<path d="M348.427,241.864c13.8-18.2,21.3-37.7,22.2-57.9c0.7-13.5,0.6-27.2,0.6-40.5v-60c0-11.6-7.1-19.5-19-21.1l-5.1-0.6
			c-6.8-0.8-13.3-1.6-19.5-3c-22.5-5-44.2-15.2-68.3-32c-3.8-2.6-8-5.6-14.2-5.6s-10.4,3-14.1,5.6c-32.3,22.3-61.3,33.5-91.2,35.3
			c-7.9,0.4-21,3.7-21,22.3l-0.1,30c-0.1,20.2-0.1,40.5,0.1,60.7c0,8.1,1,16.6,3.1,26c4.5,20.2,15.2,38.7,32.7,56.5
			c21.4,21.7,48.4,38.5,83.1,51.5c2.3,0.8,4.7,1.1,7.2,1.1l0,0c3.4,0,6.8-0.8,9.2-2l8.8-3.8c7.2-3.1,14.5-6.3,21.9-10
			C311.927,280.164,332.827,262.864,348.427,241.864z M270.827,267.364c-6.6,3.3-13.4,6.2-20.1,9.1c-1.9,0.8-3.8,1.6-5.8,2.5v-110.6
			h-95.8c-0.1-18-0.1-36-0.1-53.9l0.1-22.7c31.9-3.3,62.7-15.4,95.8-37.7v114.4h95.7c-0.1,4.7-0.1,9.5-0.4,14.1
			c-0.6,14.2-5.9,27.5-16.2,41.1C311.227,241.064,293.727,255.464,270.827,267.364z"/>
		<path d="M410.127,218.564l0.8-6.1c1.2-9,6.4-25.9,8.4-35.2c-6.2,2.1-9.8,6.6-11.4,12.8c-2,7.7-7.5,24.1-8.8,32.4
			c3.5-1.3,7.2-2,10.9-2.2C410.027,219.664,410.027,219.164,410.127,218.564z"/>
		<path d="M13.427,293.564c2.3,15.5,9.6,28.3,20.4,39.7l73,87.9l1.4,40.5c0,3.6,2.9,6.5,6.5,6.6l76.8,0.4c3.6,0,6.5-2.9,6.6-6.5
			l2.7-49.1c0.7-5.1,0.8-10.3,0.8-14.4l0,0l0,0c0-5-0.4-8.4-0.4-8.4c-3.6-15.3-9.1-45.1-49.9-74.6c-3.9-2.8-9.5-8.3-12.5-12.1
			l-45.4-58.4c-4.7-7.9-15.9-10.6-24.5-5.4s-11.3,16.5-6.6,24.4l43.7,71.3c1.4,2.3,0.6,5.4-1.8,6.7c-2.2,1.2-4.9,0.5-6.3-1.5
			l-1.8-2.7c0,0-33-45.1-49.5-80.9c-3-6.5-4.7-13.1-5.1-20.2c-0.1-1.1-0.1-2.6-0.2-3.7c-0.5-16.3-3.1-39.4-5.8-55.5
			c-0.8-4.5-3.1-21.4-7.8-26.8c-6.7-7.6-15.7-5.9-21.4-1.3c-4.7,3.8-6.9,10.1-6.2,16.1l12.7,123.3L13.427,293.564z"/>
		<path d="M483.527,149.664c-5.7-4.6-14.7-6.3-21.4,1.3c-4.8,5.4-7.1,22.3-7.8,26.8c-2.7,16.1-5.4,39.3-5.8,55.5
			c0,1.1-0.1,2.6-0.2,3.7c-0.4,7.1-2.1,13.7-5.1,20.2c-16.4,35.7-49.5,80.9-49.5,80.9l-1.8,2.7c-1.4,2-4.1,2.7-6.3,1.5
			c-2.4-1.3-3.2-4.4-1.8-6.7l43.7-71.3c4.7-7.9,2-19.1-6.6-24.4c-8.6-5.3-19.8-2.6-24.5,5.4l-45.4,58.4c-3,3.8-8.6,9.3-12.5,12.1
			c-40.9,29.4-46.3,59.3-49.9,74.6c0,0-0.3,3.4-0.4,8.4l0,0c0,4.1,0.1,9.2,0.8,14.4l2.7,49.1c0,3.6,3,6.5,6.6,6.5l76.8-0.4
			c3.6,0,6.5-3,6.5-6.6l1.4-40.5l73-87.9c10.8-11.4,18.1-24.3,20.4-39.7l0.7-4.5l12.7-123.3
			C490.427,159.764,488.327,153.564,483.527,149.664z"/>
		<path d="M46.127,159.664c1.3,4.4,2.2,8.7,2.9,12.9c2.4,13.9,5.8,39.1,6,52.5c0,1.4,0.1,2.7,0.1,4.1c1.5-1.3,3.1-2.6,4.9-3.7
			c2.2-1.4,4.6-2.4,6.9-3.2c0.1-0.2,0.2-0.3,0.3-0.4c-1.7-12.7-6.2-36.8-9.5-49.3C56.027,166.264,52.427,161.664,46.127,159.664z"/>
		<path d="M70.527,177.264c2,9.3,7.2,26.2,8.4,35.2l0.8,6.1c0.1,0.6,0.1,1.2,0.1,1.8c3.7,0.1,7.4,0.9,10.9,2.2
			c-1.2-8.3-6.7-24.7-8.8-32.4C80.327,183.864,76.727,179.364,70.527,177.264z"/>
	</g>
</g>
<g>
</g>
<g>
</g>
<g>
</g>
<g>
</g>
<g>
</g>
<g>
</g>
<g>
</g>
<g>
</g>
<g>
</g>
<g>
</g>
<g>
</g>
<g>
</g>
<g>
</g>
<g>
</g>
<g>
</g>
</svg>
