<?xml version="1.0" encoding="iso-8859-1"?>
<!-- Generator: Adobe Illustrator 19.0.0, SVG Export Plug-In . SVG Version: 6.00 Build 0)  -->
<svg version="1.1" id="Capa_1" xmlns="http://www.w3.org/2000/svg" xmlns:xlink="http://www.w3.org/1999/xlink" x="0px" y="0px"
	 viewBox="0 0 489 489" style="enable-background:new 0 0 489 489;" xml:space="preserve">
<g>
	<g>
		<path d="M429.1,83.35l-24.8-24.6c-8.1-8.1-21.3-8-29.4,0.1l-22.6,22.8c-21-13.9-44.8-23.9-70.3-28.8l-0.1-32.1
			c0-11.5-9.4-20.7-20.8-20.7l-34.9,0.1c-11.5,0-20.7,9.4-20.7,20.8l0.1,32.1c-25.5,5.2-49.3,15.3-70.1,29.4l-22.8-22.6
			c-8.1-8.1-21.3-8-29.4,0.1l-24.5,24.7c-8.1,8.1-8,21.3,0.1,29.4l22.8,22.6c-13.9,21-23.9,44.8-28.9,70.3l-32.1,0.1
			c-11.5,0-20.7,9.4-20.7,20.8l0.1,34.9c0,11.5,9.4,20.7,20.8,20.7l32.1-0.1c5.2,25.5,15.3,49.3,29.4,70.1l-22.6,22.8
			c-8.1,8.1-8,21.3,0.1,29.4l24.8,24.6c8.1,8.1,21.3,8,29.4-0.1l22.6-22.8c21,13.9,44.8,23.9,70.3,28.8l0.1,32.1
			c0,11.5,9.4,20.7,20.8,20.7l34.9-0.1c11.5,0,20.7-9.4,20.7-20.8l-0.1-32.1c25.5-5.2,49.3-15.3,70.1-29.4l22.8,22.6
			c8.1,8.1,21.3,8,29.4-0.1l24.6-24.8c8.1-8.1,8-21.3-0.1-29.4l-22.8-22.6c13.9-21,23.9-44.8,28.8-70.3l32.1-0.1
			c11.5,0,20.7-9.4,20.7-20.8l-0.1-34.9c0-11.5-9.4-20.7-20.8-20.7l-32.1,0.1c-5.2-25.5-15.3-49.3-29.4-70.1l22.6-22.8
			C437.3,104.55,437.2,91.35,429.1,83.35z M245,383.95c-77,0.3-139.7-61.9-140-139c-0.3-77,61.9-139.7,139-140
			c77-0.3,139.7,61.9,140,139C384.2,320.95,322,383.65,245,383.95z"/>
		<path d="M301.7,218.15h-0.4v-19.6c0-31-25.3-56.3-56.3-56.3c-31.1,0-56.3,25.3-56.3,56.3v19.6h-1.3c-8.2,0-14.9,6.7-14.9,14.9
			v81.9c0,8.2,6.7,14.9,14.9,14.9h114.3c8.2,0,14.9-6.7,14.9-14.9v-81.9C316.5,224.85,309.9,218.15,301.7,218.15z M253.3,277.65
			c-1.1,0.8-1.5,1.7-1.4,3c0,6,0,12,0,18l0,0c0.1,2.5-1.1,4.9-3.4,6.1c-5.3,2.7-10.5-1.1-10.5-6l0,0c0-6,0-12.1,0-18.1
			c0-1.2-0.3-2-1.3-2.8c-5.5-4-7.2-10.9-4.5-16.9c2.7-5.9,9.1-9.3,15.2-8.1c6.8,1.4,11.5,6.8,11.6,13.6
			C259,271.05,257.1,274.95,253.3,277.65z M276.6,218.15h-63.4v-19.6c0-17.5,14.2-31.7,31.7-31.7s31.7,14.2,31.7,31.7L276.6,218.15
			L276.6,218.15z"/>
	</g>
</g>
<g>
</g>
<g>
</g>
<g>
</g>
<g>
</g>
<g>
</g>
<g>
</g>
<g>
</g>
<g>
</g>
<g>
</g>
<g>
</g>
<g>
</g>
<g>
</g>
<g>
</g>
<g>
</g>
<g>
</g>
</svg>
