<?xml version="1.0" encoding="iso-8859-1"?>
<!-- Generator: Adobe Illustrator 16.0.0, SVG Export Plug-In . SVG Version: 6.00 Build 0)  -->
<!DOCTYPE svg PUBLIC "-//W3C//DTD SVG 1.1//EN" "http://www.w3.org/Graphics/SVG/1.1/DTD/svg11.dtd">
<svg version="1.1" id="Capa_1" xmlns="http://www.w3.org/2000/svg" xmlns:xlink="http://www.w3.org/1999/xlink" x="0px" y="0px"
	 width="45.859px" height="45.859px" viewBox="0 0 45.859 45.859" style="enable-background:new 0 0 45.859 45.859;"
	 xml:space="preserve">
<g>
	<g>
		<path d="M13.625,5.974c0-2.194-1.777-3.972-3.972-3.972H3.971C1.779,2.002,0,3.78,0,5.974v15.982c0,2.194,1.778,3.972,3.971,3.972
			h5.683c2.194,0,3.972-1.777,3.972-3.972L13.625,5.974L13.625,5.974z M3.835,15.817c-0.747,0-1.351-0.604-1.351-1.349
			s0.604-1.349,1.351-1.349c0.744,0,1.348,0.604,1.348,1.349C5.182,15.212,4.579,15.817,3.835,15.817z M7.975,10.642H6.314V5.9
			L5.338,6.44L5.17,5.395l1.632-0.733h1.174L7.975,10.642L7.975,10.642z"/>
		<polygon points="6.555,5.883 6.555,5.9 6.59,5.883 		"/>
		<polygon points="22.752,9.461 22.77,9.446 22.752,9.446 		"/>
		<path d="M29.909,5.974c0-2.194-1.779-3.972-3.974-3.972h-5.679c-2.195,0-3.974,1.778-3.974,3.972v15.982
			c0,2.194,1.778,3.972,3.974,3.972h5.679c2.193,0,3.974-1.777,3.974-3.972V5.974z M20.935,9.781l0.71-0.694
			c1.294-1.158,1.893-1.825,1.911-2.518c0-0.484-0.306-0.868-0.991-0.868c-0.51,0-0.966,0.255-1.276,0.493l-0.396-0.996
			c0.45-0.338,1.139-0.611,1.94-0.611c1.345,0,2.081,0.784,2.081,1.862c0,0.995-0.738,1.722-1.597,2.488l-0.548,0.375h2.153v1.329
			h-3.988L20.935,9.781L20.935,9.781z M20.016,13.545c0.781,0,1.414,0.632,1.414,1.411c0,0.78-0.633,1.411-1.414,1.411
			c-0.776,0-1.409-0.631-1.409-1.411C18.607,14.177,19.24,13.545,20.016,13.545z"/>
		<path d="M45.859,5.974c0-2.194-1.779-3.972-3.973-3.972h-5.683c-2.192,0-3.972,1.778-3.972,3.972v15.982
			c0,2.194,1.779,3.972,3.972,3.972h5.683c2.192,0,3.973-1.777,3.973-3.972V5.974z M36,16.367c-0.781,0-1.414-0.631-1.414-1.411
			c0-0.778,0.633-1.411,1.414-1.411c0.775,0,1.409,0.632,1.409,1.411C37.409,15.736,36.775,16.367,36,16.367z M38.521,10.72
			c-0.769,0-1.416-0.2-1.764-0.419l0.285-1.041c0.246,0.126,0.811,0.365,1.377,0.365c0.721,0,1.086-0.346,1.086-0.793
			c0-0.583-0.585-0.848-1.195-0.848h-0.428V6.987h0.398c0.468,0,1.059-0.183,1.059-0.684c0-0.356-0.291-0.622-0.873-0.622
			c-0.486,0-0.996,0.21-1.242,0.356l-0.283-1.004c0.354-0.228,1.066-0.447,1.836-0.447c1.269,0,1.912,0.667,1.912,1.478
			c0,0.63-0.479,1.123-1.145,1.379v0.02c0.664,0.128,1.346,0.666,1.346,1.442C40.891,9.954,40.027,10.72,38.521,10.72z"/>
		<path d="M34.141,29.291c-2.809,0-5.248,1.622-6.492,3.949h-1.747c-0.188,0-0.373-0.015-0.531,0.088l-2.037,1.285
			c-0.25,0.164-0.572,0.146-0.822-0.016l-1.89-1.226c-0.248-0.159-0.564-0.166-0.814-0.013l-1.985,1.225
			c-0.262,0.163-0.593,0.164-0.857,0.004l-2.031-1.221c-0.272-0.162-0.613-0.161-0.884,0.005l-1.346,0.829
			c-0.227,0.139-0.515,0.134-0.735-0.014l-1.417-0.877c-0.138-0.092-0.301-0.072-0.466-0.072H8.068
			c-2.002,0-3.624,1.459-3.624,3.461c0,1.849,1.498,3.184,3.346,3.184h19.858c1.244,2.326,3.685,3.975,6.492,3.975
			c4.065,0,7.365-3.216,7.365-7.285C41.508,32.508,38.207,29.291,34.141,29.291z M36.137,38.971c-1.315,0-2.383-1.066-2.383-2.382
			s1.066-2.381,2.383-2.381c1.315,0,2.383,1.065,2.383,2.381S37.452,38.971,36.137,38.971z"/>
	</g>
</g>
<g>
</g>
<g>
</g>
<g>
</g>
<g>
</g>
<g>
</g>
<g>
</g>
<g>
</g>
<g>
</g>
<g>
</g>
<g>
</g>
<g>
</g>
<g>
</g>
<g>
</g>
<g>
</g>
<g>
</g>
</svg>
