<?xml version="1.0" encoding="iso-8859-1"?>
<!-- Generator: Adobe Illustrator 19.0.0, SVG Export Plug-In . SVG Version: 6.00 Build 0)  -->
<svg version="1.1" id="Layer_1" xmlns="http://www.w3.org/2000/svg" xmlns:xlink="http://www.w3.org/1999/xlink" x="0px" y="0px"
	 viewBox="0 0 512 512" style="enable-background:new 0 0 512 512;" xml:space="preserve">
<path style="fill:#F07B52;" d="M409.6,4.267H102.4c-23.526,0-42.667,19.14-42.667,42.667V320c0,23.526,19.14,42.667,42.667,42.667
	h307.2c42.348,0,76.8-34.452,76.8-76.8v-204.8C486.4,38.719,451.948,4.267,409.6,4.267z"/>
<path style="fill:#E5563C;" d="M93.867,320V46.933c0-23.526,19.14-42.667,42.667-42.667H102.4c-23.526,0-42.667,19.14-42.667,42.667
	V320c0,23.526,19.14,42.667,42.667,42.667h34.133C113.007,362.667,93.867,343.526,93.867,320z"/>
<path style="fill:#AFF0E8;" d="M409.6,38.4H59.733v128c0,4.713,3.821,8.533,8.533,8.533H409.6c14.139,0,25.6-11.461,25.6-25.6V64
	C435.2,49.861,423.739,38.4,409.6,38.4z"/>
<path style="fill:#6AC8B7;" d="M392.425,106.667c-14.03-0.059-25.431-11.461-25.491-25.49c-0.02-4.753-3.78-8.643-8.533-8.643
	H59.733V166.4h332.8c4.713,0,8.533-3.821,8.533-8.533V115.2C401.067,110.447,397.178,106.686,392.425,106.667z"/>
<path style="fill:#74DBC9;" d="M93.867,166.4v-128H59.733v128c0,4.713,3.821,8.533,8.533,8.533H102.4
	C97.687,174.933,93.867,171.113,93.867,166.4z"/>
<rect x="59.733" y="72.533" style="fill:#2DB59F;" width="34.133" height="93.867"/>
<path style="fill:#E5563C;" d="M409.6,132.267H59.733V448c0,23.564,19.103,42.667,42.667,42.667h307.2
	c42.415,0,76.8-34.385,76.8-76.8v-204.8C486.4,166.652,452.015,132.267,409.6,132.267z"/>
<path style="fill:#CF442B;" d="M93.867,448V132.267H59.733V448c0,23.564,19.103,42.667,42.667,42.667h34.133
	C112.97,490.667,93.867,471.564,93.867,448z"/>
<g>
	<path style="fill:#B83C26;" d="M110.933,192H76.8c-4.713,0-8.533-3.821-8.533-8.533c0-4.713,3.821-8.533,8.533-8.533h34.133
		c4.713,0,8.533,3.821,8.533,8.533C119.467,188.179,115.646,192,110.933,192z"/>
	<path style="fill:#B83C26;" d="M179.2,192h-34.133c-4.713,0-8.533-3.821-8.533-8.533c0-4.713,3.821-8.533,8.533-8.533H179.2
		c4.713,0,8.533,3.821,8.533,8.533C187.733,188.179,183.913,192,179.2,192z"/>
	<path style="fill:#B83C26;" d="M247.467,192h-34.133c-4.713,0-8.533-3.821-8.533-8.533c0-4.713,3.821-8.533,8.533-8.533h34.133
		c4.713,0,8.533,3.821,8.533,8.533C256,188.179,252.179,192,247.467,192z"/>
	<path style="fill:#B83C26;" d="M315.733,192H281.6c-4.713,0-8.533-3.821-8.533-8.533c0-4.713,3.821-8.533,8.533-8.533h34.133
		c4.713,0,8.533,3.821,8.533,8.533C324.267,188.179,320.446,192,315.733,192z"/>
	<path style="fill:#B83C26;" d="M384,192h-34.133c-4.713,0-8.533-3.821-8.533-8.533c0-4.713,3.821-8.533,8.533-8.533H384
		c4.713,0,8.533,3.821,8.533,8.533C392.533,188.179,388.713,192,384,192z"/>
	<path style="fill:#B83C26;" d="M392.533,260.267c-4.713,0-8.533-3.821-8.533-8.533V217.6c0-4.713,3.821-8.533,8.533-8.533
		s8.533,3.821,8.533,8.533v34.133C401.067,256.446,397.246,260.267,392.533,260.267z"/>
	<path style="fill:#B83C26;" d="M110.933,448H76.8c-4.713,0-8.533-3.821-8.533-8.533c0-4.713,3.821-8.533,8.533-8.533h34.133
		c4.713,0,8.533,3.821,8.533,8.533C119.467,444.179,115.646,448,110.933,448z"/>
	<path style="fill:#B83C26;" d="M179.2,448h-34.133c-4.713,0-8.533-3.821-8.533-8.533c0-4.713,3.821-8.533,8.533-8.533H179.2
		c4.713,0,8.533,3.821,8.533,8.533C187.733,444.179,183.913,448,179.2,448z"/>
	<path style="fill:#B83C26;" d="M247.467,448h-34.133c-4.713,0-8.533-3.821-8.533-8.533c0-4.713,3.821-8.533,8.533-8.533h34.133
		c4.713,0,8.533,3.821,8.533,8.533C256,444.179,252.179,448,247.467,448z"/>
	<path style="fill:#B83C26;" d="M315.733,448H281.6c-4.713,0-8.533-3.821-8.533-8.533c0-4.713,3.821-8.533,8.533-8.533h34.133
		c4.713,0,8.533,3.821,8.533,8.533C324.267,444.179,320.446,448,315.733,448z"/>
	<path style="fill:#B83C26;" d="M384,448h-34.133c-4.713,0-8.533-3.821-8.533-8.533c0-4.713,3.821-8.533,8.533-8.533H384
		c4.713,0,8.533,3.821,8.533,8.533C392.533,444.179,388.713,448,384,448z"/>
	<path style="fill:#B83C26;" d="M392.533,413.867c-4.713,0-8.533-3.821-8.533-8.533V371.2c0-4.713,3.821-8.533,8.533-8.533
		s8.533,3.821,8.533,8.533v34.133C401.067,410.046,397.246,413.867,392.533,413.867z"/>
</g>
<path style="fill:#9B9DA1;" d="M486.4,251.733H384c-14.116,0-25.6,11.485-25.6,25.6V345.6c0,14.115,11.484,25.6,25.6,25.6h102.4
	c14.116,0,25.6-11.485,25.6-25.6v-68.267C512,263.218,500.516,251.733,486.4,251.733z"/>
<path style="fill:#88898E;" d="M384,345.6v-68.267c0-14.115,11.484-25.6,25.6-25.6H384c-14.116,0-25.6,11.485-25.6,25.6V345.6
	c0,14.115,11.484,25.6,25.6,25.6h25.6C395.484,371.2,384,359.715,384,345.6z"/>
<circle style="fill:#B83C26;" cx="426.667" cy="311.467" r="25.6"/>
<circle style="fill:#E5563C;" cx="426.667" cy="311.467" r="17.067"/>
<path style="fill:#74DBC9;" d="M235.503,261.961c-2.159-1.611-4.953-2.107-7.534-1.341c-13.108,3.895-39.328,9.799-54.451,7.234
	c-27.318-4.64-40.544-14.921-48.115-22.252c-3.309-3.202-8.562-3.202-11.871,0c-7.571,7.331-20.797,17.613-48.115,22.252
	c-15.124,2.564-41.344-3.339-54.451-7.234c-2.582-0.766-5.375-0.27-7.534,1.341C1.271,263.571,0,266.107,0,268.8v145.067
	c0,1.44,0.365,2.857,1.059,4.117c11.427,20.74,26.483,38.806,44.749,53.697c20.734,16.902,45.489,29.28,71.591,35.798
	c0.678,0.17,1.373,0.254,2.067,0.254c0.694,0,1.389-0.084,2.067-0.254c26.101-6.517,50.858-18.896,71.591-35.798
	c18.267-14.891,33.322-32.956,44.749-53.697c0.694-1.262,1.059-2.678,1.059-4.117V268.8
	C238.933,266.107,237.662,263.571,235.503,261.961z"/>
<path style="fill:#E1A527;" d="M210.361,294.209c-1.888-1.622-4.388-2.341-6.848-1.963c-7.954,1.214-15.179,1.829-21.477,1.829
	c-4.655,0-8.962-0.332-12.803-0.983c-17.716-3.009-32.516-8.334-45.247-16.279c-2.765-1.727-6.272-1.727-9.037,0
	c-12.731,7.945-27.531,13.269-45.246,16.279c-3.845,0.652-8.154,0.983-12.804,0.983c-0.004,0-0.009,0-0.013,0
	c-6.289,0-13.51-0.615-21.463-1.829c-2.46-0.374-4.96,0.341-6.848,1.963c-1.887,1.621-2.973,3.985-2.973,6.473v106.326
	c0,1.561,0.428,3.091,1.237,4.425c9.357,15.428,21.182,29.022,35.146,40.404c16.01,13.052,35.049,23.085,55.059,29.013
	c0.791,0.235,1.607,0.352,2.425,0.352c0.817,0,1.633-0.117,2.425-0.352c20.01-5.929,39.05-15.962,55.059-29.012
	c13.965-11.385,25.79-24.978,35.147-40.405c0.809-1.334,1.237-2.865,1.237-4.425V300.683
	C213.333,298.195,212.247,295.83,210.361,294.209z"/>
<path style="fill:#FDD042;" d="M119.467,463.745c-16.975-5.366-33.073-14.026-46.699-25.135
	c-11.844-9.654-21.961-21.091-30.101-34.025v-94.211c5.06,0.511,9.817,0.77,14.218,0.77c5.615,0,10.883-0.412,15.67-1.223
	c17.936-3.045,33.339-8.276,46.912-15.942c13.577,7.667,28.978,12.897,46.907,15.942c4.786,0.813,10.054,1.223,15.662,1.223
	c4.406,0,9.167-0.258,14.231-0.771v94.213c-8.138,12.93-18.255,24.369-30.1,34.025C152.539,449.719,136.439,458.379,119.467,463.745
	z"/>
<path style="fill:#FFFFFF;" d="M106.667,413.867c-3.276,0-6.551-1.25-9.051-3.749l-25.6-25.6c-4.998-4.999-4.998-13.103,0-18.102
	c4.999-4.998,13.103-4.998,18.102,0l16.548,16.549l42.149-42.149c4.999-4.998,13.103-4.998,18.102,0
	c4.998,4.999,4.998,13.103,0,18.102l-51.2,51.2C113.218,412.617,109.942,413.867,106.667,413.867z"/>
<g>
</g>
<g>
</g>
<g>
</g>
<g>
</g>
<g>
</g>
<g>
</g>
<g>
</g>
<g>
</g>
<g>
</g>
<g>
</g>
<g>
</g>
<g>
</g>
<g>
</g>
<g>
</g>
<g>
</g>
</svg>
