<?xml version="1.0" ?><svg width="32px" height="32px" viewBox="0 0 32 32" xmlns="http://www.w3.org/2000/svg"><defs><style>.cls-1{fill:#04009a;}.cls-2{fill:#77acf1;}</style></defs><g data-name="32. Worldwide" id="_32._Worldwide"><path class="cls-1" d="M29,9.67l0-.09A15,15,0,0,0,1,9.58l0,.09A14.73,14.73,0,0,0,1,20.34s0,.05,0,.07A15.06,15.06,0,0,0,13.93,30H14A1,1,0,0,0,15,29V28a1,1,0,0,0-.34-.58A16.71,16.71,0,0,1,10.15,21H14a1,1,0,0,0,0-2H9.51A16.12,16.12,0,0,1,9,15a16.54,16.54,0,0,1,.5-4h11a16.54,16.54,0,0,1,.5,4,1,1,0,0,0,2,0,18.85,18.85,0,0,0-.43-4h4.79A12.89,12.89,0,0,1,28,15a1,1,0,0,0,2,0A14.76,14.76,0,0,0,29,9.67Zm-17,18A13.08,13.08,0,0,1,3.49,21H8A18.49,18.49,0,0,0,12,27.65ZM2.65,19A12.65,12.65,0,0,1,2,15a12.89,12.89,0,0,1,.64-4H7.43A18.85,18.85,0,0,0,7,15a18.3,18.3,0,0,0,.45,4ZM8,9H3.48A13,13,0,0,1,12,2.36,18.26,18.26,0,0,0,8,9Zm2.15,0A16.76,16.76,0,0,1,15,2.28,16.76,16.76,0,0,1,19.86,9ZM22,9a18.26,18.26,0,0,0-4-6.64A13,13,0,0,1,26.52,9Z"/><path class="cls-2" d="M22,19h4a0,0,0,0,1,0,0v3a1,1,0,0,1-1,1H23a1,1,0,0,1-1-1V19A0,0,0,0,1,22,19Z"/><path class="cls-1" d="M28,32H20a3,3,0,0,1-3-3V21a3,3,0,0,1,3-3h8a3,3,0,0,1,3,3v8A3,3,0,0,1,28,32ZM20,20a1,1,0,0,0-1,1v8a1,1,0,0,0,1,1h8a1,1,0,0,0,1-1V21a1,1,0,0,0-1-1Z"/><path class="cls-1" d="M23,28H22a1,1,0,0,1,0-2h1a1,1,0,0,1,0,2Z"/></g></svg>