<svg xmlns="http://www.w3.org/2000/svg" width="172" height="172" fill-rule="evenodd" xmlns:v="https://vecta.io/nano"><path d="M68.98 3.566c-32.292 6.946-58.363 33.31-65.068 65.798-6.019 29.163 2.733 57.405 24.248 78.247 16.723 16.2 34.442 23.354 57.84 23.354 29.235 0 53.669-12.916 70.041-37.026 22.186-32.67 17.583-79.95-10.463-107.468-11.892-11.668-26.752-19.774-42.044-22.932-9.112-1.882-25.74-1.869-34.554.027M75.5 5.09C55.715 7.878 39.454 16.323 25.834 30.881 10.219 47.573 3.576 64.385 3.663 87c.058 15.226 2.222 24.391 8.851 37.5 8.421 16.65 18.946 27.254 35.776 36.044 46.311 24.189 101.875.344 117.866-50.579 2.037-6.487 2.344-9.496 2.344-22.965 0-14.396-.206-16.129-2.894-24.33-5.114-15.602-14.678-29.461-27.467-39.802-11.562-9.347-23.364-14.502-39.748-17.359C88.994 3.87 84.708 3.792 75.5 5.09m3.213 3.531c-1.097 1.097-.844 6.18.344 6.914.581.359 2.183.37 3.561.025 2.116-.531 2.456-1.126 2.193-3.844-.251-2.598-.799-3.273-2.848-3.512-1.396-.163-2.859.025-3.25.417M87 9c0 .55.459 1 1.019 1 .575 0 .758 1.041.419 2.391-.33 1.315-.114 2.691.481 3.059.707.437 1.081-.737 1.081-3.391C90 9.118 89.587 8 88.5 8c-.825 0-1.5.45-1.5 1m5.5 0c-.34.55-.085 1 .566 1 .782 0 .98 1.018.584 3-.33 1.65-.214 3 .258 3 .924 0 2.056-3.404 2.078-6.25.015-1.874-2.462-2.407-3.486-.75M72 10c0 .55.45 1 1 1s1 1.125 1 2.5.45 2.5 1 2.5c1.133 0 1.248-1.473.37-4.75C74.78 9.051 72 8.02 72 10m26.595 2.75c.382 4.998.413 5.058 1.405 2.75 1.331-3.097 1.15-6.5-.346-6.5-.94 0-1.259 1.132-1.059 3.75M67 11c0 .55.45 1 1 1s1 .873 1 1.941.45 2.219 1 2.559c1.101.681 1.35-2.425.393-4.918C69.73 9.854 67 9.386 67 11m12.5 0c-.837 1.354.292 3 2.059 3 .793 0 1.441-.9 1.441-2 0-2.07-2.413-2.76-3.5-1m23.454 1.622c-1.281 3.368.419 5.59 3.96 5.179 2.084-.243 2.645-.907 2.89-3.42.247-2.542-.124-3.234-2-3.737-3.52-.942-3.78-.836-4.85 1.978m-43.918.334c-1.132.717-1.241 1.56-.479 3.725 1.15 3.271 3.2 3.948 5.923 1.957 1.672-1.222 1.776-1.781.752-4.028-1.216-2.669-3.589-3.302-6.196-1.654m45.571.626c-.876 2.284-.805 2.418 1.286 2.418 2.377 0 3.504-2.634 1.462-3.417-2.064-.792-2.06-.794-2.748.999m-43.919.064c-1.472 1.471-.698 4.503 1.062 4.164.962-.186 1.75-1.194 1.75-2.24 0-1.99-1.631-3.106-2.812-1.924m52.464.604c.132.688-.114 2.296-.547 3.575-1.199 3.54.043 3.756 1.821.318 1.98-3.83 1.988-5.143.03-5.143-.849 0-1.436.563-1.304 1.25M52.5 16c-.34.55-.132 1 .462 1s1.587 1.111 2.206 2.469 1.472 2.253 1.897 1.991c.941-.582-1.861-6.46-3.079-6.46-.477 0-1.146.45-1.486 1m65.047 2.602c-.372 1.981-.445 3.834-.162 4.117.674.673 3.463-5.992 2.916-6.969-.962-1.721-2.121-.521-2.754 2.852M48.5 18c-.34.55-.214 1 .28 1s1.438 1.183 2.097 2.629 1.439 2.388 1.734 2.093c.537-.537-2.295-6.722-3.078-6.722-.228 0-.693.45-1.033 1m73.7 1.2c-2.222 2.222-1.434 5.703 1.456 6.428 4.421 1.11 7.322-4.499 3.41-6.593-2.495-1.335-3.397-1.304-4.866.165m-52.329 1.709c-25.556 6.897-45.138 26.969-50.36 51.62-1.886 8.905-1.896 23.215-.02 31.167 5.492 23.295 25.062 43.351 48.195 49.394 10.475 2.737 27.29 2.973 36.314.511 20.666-5.639 39.17-22.355 46.455-41.966 5.614-15.113 5.816-29.521.64-45.679-5.871-18.328-17.047-31.35-34.445-40.133-13.281-6.704-32.618-8.735-46.779-4.914m-26.098-.348c-.544.544 3.802 5.439 4.829 5.439.281 0-.286-1.35-1.261-3-1.768-2.993-2.508-3.499-3.568-2.439m78.851.977c-.342.891.062 1.788.96 2.133 1.867.716 3.911-1.061 2.97-2.584-.981-1.588-3.248-1.328-3.93.451m-53.408 2.481c-21.909 5.74-40.061 23.617-46.618 45.913-2.074 7.049-2.135 25.207-.111 33.016 8.716 33.637 42.413 55.319 75.541 48.606 26.892-5.449 47.484-25.822 52.478-51.92 2.983-15.594 1.582-26.542-5.196-40.6-8.285-17.182-24.362-30.316-42.919-35.062-9.988-2.554-23.32-2.536-33.175.047m62.061-.738c.275.716-.124 2.157-.888 3.202-1.549 2.119-1.79 3.517-.605 3.517.73 0 4.216-5.208 4.216-6.297 0-.269-.725-.767-1.611-1.107-1.071-.411-1.444-.182-1.112.685M37.2 25.2c-1.723 1.723-1.487 3.23.835 5.332 1.981 1.793 2.091 1.787 4.101-.223 1.706-1.707 1.867-2.434.929-4.187-1.254-2.344-4.01-2.777-5.865-.922m.8.779c-1.312.83-1.282 1.167.243 2.692 2.025 2.026 4.437.543 3.421-2.104-.689-1.795-1.54-1.931-3.664-.588m97.459.954c.405.656-.054 2.067-1.022 3.136s-1.45 2.251-1.075 2.627c.714.713 4.138-3.517 4.138-5.113 0-.504-.625-1.125-1.389-1.379-.88-.294-1.119-.026-.652.729M31.676 29.658A2.72 2.72 0 0 0 31 31.333c0 .55.304.696.676.325s1.722.306 3 1.507S37 34.899 37 34.349c0-1.48-4.538-5.478-5.324-4.691m107.613.592c.251.688-.465 2.263-1.591 3.5S136.101 36 136.651 36c1.663 0 5.606-4.774 4.895-5.926-.926-1.497-2.813-1.35-2.257.176M75.735 56.031l-9.75 26.239c.008.424 1.703-.091 3.765-1.143 3.056-1.56 4.476-3.405 7.676-9.971 2.159-4.431 4.246-7.859 4.637-7.617s.992 1.941 1.336 3.776c1.086 5.789 2.444 6.802 7.406 5.523 3.336-.859 4.164-1.473 3.679-2.724-1.308-3.376-7.43-28.856-8.19-34.083l-.794-5.47-9.765 25.47M27.5 34c-.34.55.028 1 .819 1s1.996.675 2.681 1.5 1.718 1.5 2.297 1.5-.005-1.125-1.297-2.5c-2.549-2.713-3.545-3.045-4.5-1.5m113.072 2.201c-1.421 2.028-1.375 2.38.581 4.462 1.685 1.793 2.519 2.048 4.041 1.233 2.577-1.379 3.19-3.309 1.848-5.818-1.45-2.71-4.527-2.651-6.47.123m1.538 1.166c-.858 1.034-.799 1.647.245 2.513 1.054.874 1.667.798 2.598-.324 1.209-1.456.684-3.556-.89-3.556-.45 0-1.329.615-1.953 1.367M23.238 39.162c-1.761 1.761-1.539 3.255.797 5.37 1.983 1.795 2.092 1.785 4.236-.359 1.743-1.743 1.975-2.562 1.113-3.937-1.357-2.164-4.505-2.715-6.146-1.074m.726 1.381c-1.119 1.349-1.103 1.756.1 2.517 1.999 1.263 3.436.611 3.436-1.56 0-2.446-1.878-2.954-3.536-.957m125.286 1.325c.137.477-.875 1.812-2.25 2.967-1.693 1.421-2.016 2.098-1 2.098 2.136 0 6.275-3.679 5.517-4.905-.77-1.247-2.618-1.377-2.267-.16M18.674 45.754c-.241.41 1.083 1.477 2.944 2.37S25 49.366 25 48.899c0-1.182-5.787-4.06-6.326-3.145m131.95 2.457c-3.044 2.952-2.378 3.545 1.829 1.628 1.401-.638 2.547-1.736 2.547-2.44 0-2.297-1.447-2.029-4.376.812M16 51.167c0 .641.302.865.67.496s1.719.017 3 .857c1.32.864 2.33 1.072 2.33.478 0-.576-1.154-1.486-2.565-2.023-3.246-1.234-3.435-1.223-3.435.192m135.796 1.465c-1.296 1.296-1.41 2.121-.554 4 1.219 2.676 3.475 3.027 6.277.978 1.633-1.194 1.734-1.76.713-4-1.353-2.969-4.037-3.377-6.436-.978m1.507 1.161c-1.772 1.125.144 3.633 2.179 2.852.926-.355 1.506-1.18 1.289-1.833-.516-1.546-1.967-1.972-3.468-1.019M13.558 55.907c-.309.498.289.684 1.328.413s2.191-.005 2.56.593 1.433 1.071 2.363 1.052c1.232-.026 1.012-.424-.809-1.465-2.922-1.67-4.66-1.86-5.442-.593M159 60.025c0 .563-1.187 1.476-2.639 2.028-3.453 1.313-2.367 2.327 1.567 1.463 2.129-.468 3.072-1.265 3.072-2.595 0-1.057-.45-1.921-1-1.921s-1 .461-1 1.025m-147.491.961c-.39.631-.439 1.417-.109 1.747s.6.075.6-.566c0-1.563 2.49-1.487 3.82.117a2.31 2.31 0 0 1 .194 2.693c-.712 1.152-1.386 1.189-3.692.2L9.5 63.968l2.401 2.049c1.321 1.127 2.896 1.885 3.5 1.684 1.185-.393 3.255-5.378 2.533-6.1-1.208-1.209-5.787-1.647-6.425-.615M161 64.781c0 .649-1.125 1.463-2.5 1.808s-2.5 1.078-2.5 1.628c0 .589 1.131.721 2.75.321 3.72-.919 4.944-2.244 3.45-3.738-.912-.912-1.2-.916-1.2-.019M9.003 70.133c.002.88 1.248 1.394 3.5 1.442 1.923.041 3.497-.296 3.497-.75s-.562-.831-1.25-.839-2.262-.285-3.5-.616c-1.53-.41-2.249-.166-2.247.763M162 69.981c0 .539-1.125 1.263-2.5 1.608s-2.5 1.038-2.5 1.538c0 .817 4.348.243 6.25-.824 1.112-.624.909-3.303-.25-3.303-.55 0-1 .441-1 .981m-57.801 1.135C86.47 74.067 67.72 81.856 54.414 91.799c-12.289 9.183-14.407 12.427-3.14 4.81 11.604-7.845 19.831-12.091 32.839-16.949 10.806-4.036 14.876-5.079 29.887-7.665l10.5-1.808-7.5.023c-4.125.013-9.885.421-12.801.906M8 75.25c0 .762 1.367 1.25 3.5 1.25 3.966 0 4.613-.968 1.25-1.87-3.44-.922-4.75-.751-4.75.62m107.5-.561c-21.398 2.773-42.778 10.375-58 20.621-6.388 4.301-21.5 18.373-21.5 20.022 0 .542 2.835-1.737 6.299-5.064 18.623-17.882 46.573-29.146 84.739-34.148l14.462-1.896-11.5.038c-6.325.021-12.85.213-14.5.427m43.213.932c-1.049 1.048-.868 6.165.241 6.851.525.324 2.124.296 3.554-.063 2.203-.553 2.554-1.131 2.296-3.781-.243-2.506-.809-3.187-2.841-3.424-1.396-.163-2.859.025-3.25.417m.68 2.961c.334.87.607 1.77.607 2s.9.418 2 .418c1.333 0 2-.667 2-2 0-1.489-.667-2-2.607-2-1.966 0-2.458.389-2 1.582M7.494 79.839c-.272.272-.487 1.207-.479 2.078.013 1.296.175 1.331.894.196.539-.851 1.885-1.194 3.485-.889 1.433.274 2.606.162 2.606-.249 0-.866-5.768-1.873-6.506-1.136M107 81.576c-21.847 3.961-41.933 13.223-55 25.362l-4.5 4.18 7-4.665c9.56-6.37 27.037-14.653 38.5-18.245 7.913-2.48 22.785-5.779 34-7.543 1.375-.216-.875-.405-5-.421s-10.875.584-15 1.332M7.384 86.442c-1.113 2.901.091 5.053 3.016 5.388 3.331.381 4.491-.949 3.832-4.395-.366-1.917-1.086-2.435-3.38-2.435-1.616 0-3.161.642-3.468 1.442m154.366-.648c-1.512.187-2.75.768-2.75 1.291 0 .836 4.787.248 5.917-.726.793-.684-.429-.901-3.167-.565M8.364 87.493c-.346.903-.15 2.121.436 2.707 1.524 1.524 4.41.131 4.012-1.935-.443-2.302-3.647-2.858-4.448-.772m87.886.754c-1.787.573-3.25 1.54-3.25 2.148 0 2.397 10.49 17.291 15.877 22.544 6.004 5.855 14.116 10.819 19.758 12.091 4.358.983 4.311-.208-.091-2.308-7.547-3.598-17.712-16.014-24.95-30.472-1.445-2.888-2.958-5.204-3.361-5.148s-2.196.571-3.983 1.145M161 92l-3.5.737 3.75.131c2.063.073 3.75-.318 3.75-.868s-.113-.941-.25-.868-1.825.463-3.75.868M8.75 94.689C6.914 95.169 6.273 98 8 98c.55 0 1-.45 1-1s1.098-1 2.441-1 2.719-.45 3.059-1c.623-1.008-2.448-1.174-5.75-.311m149.188 2.974c-1.1 2.894-.6 3.762 2.751 4.773 1.625.49 2.482.112 3.327-1.466 1.298-2.425.662-4.977-1.235-4.955-1.039.013-1.039.169.003.83 1.719 1.091.448 4.155-1.724 4.155-2.713 0-3.194-1.146-1.54-3.67.864-1.32 1.072-2.33.478-2.33-.576 0-1.503 1.198-2.06 2.663M9.75 99.689C7.914 100.169 7.273 103 9 103c.55 0 1-.45 1-1s1.098-1 2.441-1 2.719-.45 3.059-1c.623-1.008-2.448-1.174-5.75-.311m.731 5.701c-1.633 1.194-1.734 1.76-.713 4 1.292 2.835 3.84 3.349 6.6 1.33 1.429-1.045 1.56-1.778.716-4-1.145-3.012-3.621-3.51-6.603-1.33m46.328 1.36c-1.673 1.952-8.987 20.406-8.342 21.05.384.384 11.533-21.158 11.533-22.283 0-1.112-1.765-.43-3.191 1.233m99.191-.725c0 .536.563.981 1.25.989s2.262.285 3.5.616c1.729.464 2.25.183 2.25-1.213 0-1.348-.291-1.526-1.127-.69-.744.744-1.932.821-3.5.225-1.492-.568-2.373-.54-2.373.073m-144.554 1.062c-.941 1.523 1.103 3.3 2.97 2.584.898-.345 1.302-1.242.96-2.133-.682-1.779-2.949-2.039-3.93-.451m144.125 3.884c1.634 1.634 5.665 1.653 6.231.029.42-1.204.238-1.265-.923-.307-.937.772-1.963.866-2.913.265-1.973-1.248-3.647-1.239-2.395.013m-141.321 3.06c-2.225.895-2.819 2.066-1.643 3.242.333.334 1.121.168 1.75-.367s2.043-1.62 3.143-2.408c2.33-1.671.427-1.945-3.25-.467M155 116.53c3.137 1.755 5.001 1.837 4.996.22-.003-.744-1.522-1.325-3.75-1.434-3.709-.183-3.721-.171-1.246 1.214m-138.25 2.042c-2.865 1.554-3.453 2.875-1.75 3.928.55.34 1 .132 1-.462s1.125-1.593 2.5-2.22 2.5-1.517 2.5-1.979c0-1.176-1.07-.992-4.25.733m133.152 2.611c-.991 1.853-.838 2.45 1.014 3.95 2.683 2.173 4.898 1.457 5.728-1.851 1.079-4.299-4.616-6.072-6.742-2.099m1.478.269c-.697 1.815.315 3.548 2.072 3.548 1.87 0 2.886-3.169 1.332-4.155-1.875-1.189-2.776-1.029-3.404.607m-132.266 1.625c-2.821 1.715-3.106 2.228-1.99 3.572 1.023 1.233 1.398 1.286 1.745.245.242-.728 1.384-2.089 2.536-3.023 3.122-2.531 1.493-3.096-2.291-.794m3.109 4.48c-2.744 1.922-2.815 3.598-.249 5.92 1.849 1.673 2.135 1.681 4.5.132 2.957-1.937 3.044-2.424.969-5.386-1.85-2.642-2.316-2.701-5.22-.666m123.783.078c.009 1.153 5.683 4.343 6.418 3.608.965-.965.642-2.402-.396-1.76-.534.33-2.109-.145-3.5-1.056s-2.525-1.268-2.522-.792M22.975 129.53c-1.938 2.335.436 4.487 2.582 2.341 1.327-1.326 1.344-1.708.126-2.719-1.107-.918-1.701-.835-2.708.378m120.056 2.105c.018.476 1.147 1.677 2.509 2.668 2.424 1.765 4.46 1.572 4.46-.421 0-.55-.437-.73-.972-.399s-2.109-.145-3.5-1.056-2.514-1.268-2.497-.792m-115.408 3.844c-1.587 1.268-2.57 2.798-2.191 3.41.904 1.464 2.568 1.425 2.568-.06 0-.644.747-1.997 1.661-3.006 2.488-2.75 1.236-2.961-2.038-.344m110.951 1.44c-1.654 1.827-1.638 2.017.345 4 2.583 2.583 3.307 2.594 5.581.081 1.747-1.93 1.747-2.07 0-4-2.266-2.504-3.716-2.523-5.926-.081m1.504.487c-1.41 1.699-.66 3.594 1.422 3.594 2.165 0 2.884-2.044 1.282-3.646-1.272-1.272-1.61-1.266-2.704.052m-109.09 2.107c-1.822 1.939-2.09 2.785-1.175 3.7s1.187.871 1.187-.199c0-.762.978-2.427 2.174-3.7S34.899 137 34.349 137s-2.063 1.131-3.361 2.513m3.584 3.688c-1.421 2.028-1.375 2.38.581 4.462 1.59 1.692 2.561 2.025 3.867 1.326 2.658-1.422 3.236-4.049 1.349-6.134-2.212-2.444-3.914-2.342-5.797.346m98.428-1.55c0 .55 1.131 2.063 2.513 3.361 1.939 1.822 2.785 2.09 3.7 1.175s.871-1.187-.199-1.187c-.762 0-2.427-.978-3.7-2.174S133 141.101 133 141.651m-97.525 2.39c-.391.633.033 1.895.943 2.805 1.455 1.455 1.768 1.473 2.602.154.521-.825.805-1.95.631-2.5-.467-1.474-3.353-1.792-4.176-.459m95.784 3.673c2.128 2.127 2.976 2.451 3.927 1.5s.873-1.214-.364-1.214c-.867 0-2.137-.675-2.822-1.5s-1.742-1.5-2.35-1.5.117 1.221 1.609 2.714m-88.644.751c-2.033 3.103-2.051 4.535-.056 4.535.857 0 1.289-.437.958-.972s.145-2.109 1.056-3.5S45.78 146 45.23 146s-1.727 1.109-2.615 2.465m84.514 2.496c1.204 1.628 2.538 2.745 2.965 2.481.795-.491-3.288-5.442-4.489-5.442-.366 0 .32 1.332 1.524 2.961m-80.698 1.172c-1.336 2.584-1.384 3.279-.275 3.968.971.604 1.508.058 1.934-1.97.325-1.543.914-3.329 1.309-3.968s.254-1.163-.314-1.163-1.763 1.41-2.654 3.133m73.05-.743c-1.633 1.194-1.734 1.76-.713 4 1.331 2.922 2.948 3.269 5.735 1.231 1.798-1.314 1.806-1.501.168-4-1.97-3.006-2.568-3.148-5.19-1.231m-67.861 2.389c-1.685 3.248-1.479 5.221.546 5.221.576 0 .767-.732.424-1.627s-.124-2.229.487-2.966.917-1.917.679-2.623c-.247-.731-1.166.128-2.136 1.995m68.63-2.112c-1.619.647-1.602 2.796.034 4.153 1.709 1.419 4.003-.097 3.564-2.357-.378-1.953-1.636-2.581-3.598-1.796m-64.482 4.943c-1.021 2.24-.92 2.806.713 4 2.831 2.07 5.061 1.69 6.321-1.076.898-1.971.816-2.773-.411-4-2.343-2.343-5.282-1.866-6.623 1.076M113 155c0 .733.3 1.033.667.667a.95.95 0 0 0 0-1.334c-.367-.366-.667-.066-.667.667m-55.5 2c-.816 1.32.277 3 1.952 3 1.463 0 2.767-2.448 1.812-3.402-.932-.933-3.081-.703-3.764.402m7.597 2.15c-1.519 4.36-1.408 4.85 1.103 4.85 1.632 0 1.909-.291 1.073-1.127-.737-.737-.82-1.935-.238-3.465.497-1.308.508-2.572.024-2.871-.475-.294-1.358.882-1.962 2.613m44.041-.184c.612 1.755 1.754 3.021 2.71 3.004 1.475-.028 1.465-.14-.098-1.05-.963-.561-1.75-1.645-1.75-2.411s-.432-1.658-.96-1.984c-.569-.352-.529.643.098 2.441m-38.586-.716c-1.669 5.419-1.573 6.75.488 6.75 1.407 0 1.829-.403 1.306-1.249-.425-.688-.642-2.488-.484-4 .292-2.782-.6-3.804-1.31-1.501m29.463.231c-1.008 1.216-1.05 2.146-.183 4.049 1.211 2.659 1.609 2.784 4.668 1.47 1.772-.762 1.687-.867-.75-.93-2.007-.051-2.75-.582-2.75-1.963 0-2.823 2.616-3.296 4.397-.795 1.557 2.187 1.557 2.187.721-.312-.985-2.946-4.245-3.757-6.103-1.519m14.079-.981c-.133 2.086 1.44 3.407 2.932 2.463 1.254-.793 1.226-.935-.193-.948-.916-.008-1.893-.577-2.171-1.265s-.533-.8-.568-.25m-37.891 1.697c-2.026 2.026-1.44 5.779 1.047 6.704 1.237.46 2.766.64 3.396.4 1.328-.504 2.335-4.733 1.453-6.102-1.053-1.634-4.652-2.246-5.896-1.002M84 163c0 3.007.399 4 1.607 4 1.055 0 1.398-.544 1-1.582-.334-.87-.607-2.67-.607-4S85.55 159 85 159s-1 1.8-1 4m5-.5c0 2.986.33 3.488 2.25 3.421 1.237-.043 1.688-.306 1-.583S91 163.521 91 161.917 90.55 159 90 159s-1 1.575-1 3.5m5-1.582c0 2.981 1.078 5.082 2.607 5.082.766 0 1.393-.45 1.393-1s-.45-1-1-1-1-1.125-1-2.5-.45-2.5-1-2.5-1 .863-1 1.918m-17 .975c0 2.382 2.635 3.502 3.42 1.454.737-1.921-.106-3.347-1.979-3.347-.793 0-1.441.852-1.441 1.893" fill="#d4cdcd"/><path d="M72 .693C36.899 6.593 8.506 34.054 1.452 68.927-.807 80.094-.113 99.285 2.931 109.821c8.218 28.444 30.997 51.086 59.778 59.418 6.593 1.909 10.175 2.256 23.291 2.256 13.191 0 16.682-.342 23.432-2.294 9.961-2.882 23.19-9.745 31.314-16.246 13.383-10.711 25.236-29.501 28.734-45.554.947-4.346 2.127-8.682 2.621-9.637 1.268-2.45 1.174-25.052-.101-24.264-.557.344-1-.413-1-1.711 0-4.252-3.996-16.83-7.659-24.11-11.955-23.758-34.038-40.852-59.549-46.095C96.677.122 78.438-.39 72 .693m-3.02 2.873c-32.292 6.946-58.363 33.31-65.068 65.798-6.019 29.163 2.733 57.405 24.248 78.247 16.723 16.2 34.442 23.354 57.84 23.354 29.235 0 53.669-12.916 70.041-37.026 22.186-32.67 17.583-79.95-10.463-107.468-11.892-11.668-26.752-19.774-42.044-22.932-9.112-1.882-25.74-1.869-34.554.027M75.5 5.09C55.715 7.878 39.454 16.323 25.834 30.881 10.219 47.573 3.576 64.385 3.663 87c.058 15.226 2.222 24.391 8.851 37.5 8.421 16.65 18.946 27.254 35.776 36.044 46.311 24.189 101.875.344 117.866-50.579 2.037-6.487 2.344-9.496 2.344-22.965 0-14.396-.206-16.129-2.894-24.33-5.114-15.602-14.678-29.461-27.467-39.802-11.562-9.347-23.364-14.502-39.748-17.359C88.994 3.87 84.708 3.792 75.5 5.09m3.213 3.531c-1.097 1.097-.844 6.18.344 6.914.581.359 2.183.37 3.561.025 2.116-.531 2.456-1.126 2.193-3.844-.251-2.598-.799-3.273-2.848-3.512-1.396-.163-2.859.025-3.25.417M87 9c0 .55.459 1 1.019 1 .575 0 .758 1.041.419 2.391-.33 1.315-.114 2.691.481 3.059.707.437 1.081-.737 1.081-3.391C90 9.118 89.587 8 88.5 8c-.825 0-1.5.45-1.5 1m5.5 0c-.34.55-.085 1 .566 1 .782 0 .98 1.018.584 3-.33 1.65-.214 3 .258 3 .924 0 2.056-3.404 2.078-6.25.015-1.874-2.462-2.407-3.486-.75M72 10c0 .55.45 1 1 1s1 1.125 1 2.5.45 2.5 1 2.5c1.133 0 1.248-1.473.37-4.75C74.78 9.051 72 8.02 72 10m26.595 2.75c.382 4.998.413 5.058 1.405 2.75 1.331-3.097 1.15-6.5-.346-6.5-.94 0-1.259 1.132-1.059 3.75M67 11c0 .55.45 1 1 1s1 .873 1 1.941.45 2.219 1 2.559c1.101.681 1.35-2.425.393-4.918C69.73 9.854 67 9.386 67 11m12.5 0c-.837 1.354.292 3 2.059 3 .793 0 1.441-.9 1.441-2 0-2.07-2.413-2.76-3.5-1m23.454 1.622c-1.281 3.368.419 5.59 3.96 5.179 2.084-.243 2.645-.907 2.89-3.42.247-2.542-.124-3.234-2-3.737-3.52-.942-3.78-.836-4.85 1.978m-43.918.334c-1.132.717-1.241 1.56-.479 3.725 1.15 3.271 3.2 3.948 5.923 1.957 1.672-1.222 1.776-1.781.752-4.028-1.216-2.669-3.589-3.302-6.196-1.654m45.571.626c-.876 2.284-.805 2.418 1.286 2.418 2.377 0 3.504-2.634 1.462-3.417-2.064-.792-2.06-.794-2.748.999m-43.919.064c-1.472 1.471-.698 4.503 1.062 4.164.962-.186 1.75-1.194 1.75-2.24 0-1.99-1.631-3.106-2.812-1.924m52.464.604c.132.688-.114 2.296-.547 3.575-1.199 3.54.043 3.756 1.821.318 1.98-3.83 1.988-5.143.03-5.143-.849 0-1.436.563-1.304 1.25M52.5 16c-.34.55-.132 1 .462 1s1.587 1.111 2.206 2.469 1.472 2.253 1.897 1.991c.941-.582-1.861-6.46-3.079-6.46-.477 0-1.146.45-1.486 1m65.047 2.602c-.372 1.981-.445 3.834-.162 4.117.674.673 3.463-5.992 2.916-6.969-.962-1.721-2.121-.521-2.754 2.852M48.5 18c-.34.55-.214 1 .28 1s1.438 1.183 2.097 2.629 1.439 2.388 1.734 2.093c.537-.537-2.295-6.722-3.078-6.722-.228 0-.693.45-1.033 1m73.7 1.2c-2.222 2.222-1.434 5.703 1.456 6.428 4.421 1.11 7.322-4.499 3.41-6.593-2.495-1.335-3.397-1.304-4.866.165m-52.329 1.709c-25.556 6.897-45.138 26.969-50.36 51.62-1.886 8.905-1.896 23.215-.02 31.167 5.492 23.295 25.062 43.351 48.195 49.394 10.475 2.737 27.29 2.973 36.314.511 20.666-5.639 39.17-22.355 46.455-41.966 5.614-15.113 5.816-29.521.64-45.679-5.871-18.328-17.047-31.35-34.445-40.133-13.281-6.704-32.618-8.735-46.779-4.914m-26.098-.348c-.544.544 3.802 5.439 4.829 5.439.281 0-.286-1.35-1.261-3-1.768-2.993-2.508-3.499-3.568-2.439m78.851.977c-.342.891.062 1.788.96 2.133 1.867.716 3.911-1.061 2.97-2.584-.981-1.588-3.248-1.328-3.93.451m-53.408 2.481c-21.909 5.74-40.061 23.617-46.618 45.913-2.074 7.049-2.135 25.207-.111 33.016 8.716 33.637 42.413 55.319 75.541 48.606 26.892-5.449 47.484-25.822 52.478-51.92 2.983-15.594 1.582-26.542-5.196-40.6-8.285-17.182-24.362-30.316-42.919-35.062-9.988-2.554-23.32-2.536-33.175.047m62.061-.738c.275.716-.124 2.157-.888 3.202-1.549 2.119-1.79 3.517-.605 3.517.73 0 4.216-5.208 4.216-6.297 0-.269-.725-.767-1.611-1.107-1.071-.411-1.444-.182-1.112.685M37.2 25.2c-1.723 1.723-1.487 3.23.835 5.332 1.981 1.793 2.091 1.787 4.101-.223 1.706-1.707 1.867-2.434.929-4.187-1.254-2.344-4.01-2.777-5.865-.922m.8.779c-1.312.83-1.282 1.167.243 2.692 2.025 2.026 4.437.543 3.421-2.104-.689-1.795-1.54-1.931-3.664-.588m97.459.954c.405.656-.054 2.067-1.022 3.136s-1.45 2.251-1.075 2.627c.714.713 4.138-3.517 4.138-5.113 0-.504-.625-1.125-1.389-1.379-.88-.294-1.119-.026-.652.729M31.676 29.658A2.72 2.72 0 0 0 31 31.333c0 .55.304.696.676.325s1.722.306 3 1.507S37 34.899 37 34.349c0-1.48-4.538-5.478-5.324-4.691m107.613.592c.251.688-.465 2.263-1.591 3.5S136.101 36 136.651 36c1.663 0 5.606-4.774 4.895-5.926-.926-1.497-2.813-1.35-2.257.176M75.735 56.031l-9.75 26.239c.008.424 1.703-.091 3.765-1.143 3.056-1.56 4.476-3.405 7.676-9.971 2.159-4.431 4.246-7.859 4.637-7.617s.992 1.941 1.336 3.776c1.086 5.789 2.444 6.802 7.406 5.523 3.336-.859 4.164-1.473 3.679-2.724-1.308-3.376-7.43-28.856-8.19-34.083l-.794-5.47-9.765 25.47M27.5 34c-.34.55.028 1 .819 1s1.996.675 2.681 1.5 1.718 1.5 2.297 1.5-.005-1.125-1.297-2.5c-2.549-2.713-3.545-3.045-4.5-1.5m113.072 2.201c-1.421 2.028-1.375 2.38.581 4.462 1.685 1.793 2.519 2.048 4.041 1.233 2.577-1.379 3.19-3.309 1.848-5.818-1.45-2.71-4.527-2.651-6.47.123m1.538 1.166c-.858 1.034-.799 1.647.245 2.513 1.054.874 1.667.798 2.598-.324 1.209-1.456.684-3.556-.89-3.556-.45 0-1.329.615-1.953 1.367M23.238 39.162c-1.761 1.761-1.539 3.255.797 5.37 1.983 1.795 2.092 1.785 4.236-.359 1.743-1.743 1.975-2.562 1.113-3.937-1.357-2.164-4.505-2.715-6.146-1.074m.726 1.381c-1.119 1.349-1.103 1.756.1 2.517 1.999 1.263 3.436.611 3.436-1.56 0-2.446-1.878-2.954-3.536-.957m125.286 1.325c.137.477-.875 1.812-2.25 2.967-1.693 1.421-2.016 2.098-1 2.098 2.136 0 6.275-3.679 5.517-4.905-.77-1.247-2.618-1.377-2.267-.16M18.674 45.754c-.241.41 1.083 1.477 2.944 2.37S25 49.366 25 48.899c0-1.182-5.787-4.06-6.326-3.145m131.95 2.457c-3.044 2.952-2.378 3.545 1.829 1.628 1.401-.638 2.547-1.736 2.547-2.44 0-2.297-1.447-2.029-4.376.812M16 51.167c0 .641.302.865.67.496s1.719.017 3 .857c1.32.864 2.33 1.072 2.33.478 0-.576-1.154-1.486-2.565-2.023-3.246-1.234-3.435-1.223-3.435.192m135.796 1.465c-1.296 1.296-1.41 2.121-.554 4 1.219 2.676 3.475 3.027 6.277.978 1.633-1.194 1.734-1.76.713-4-1.353-2.969-4.037-3.377-6.436-.978m1.507 1.161c-1.772 1.125.144 3.633 2.179 2.852.926-.355 1.506-1.18 1.289-1.833-.516-1.546-1.967-1.972-3.468-1.019M13.558 55.907c-.309.498.289.684 1.328.413s2.191-.005 2.56.593 1.433 1.071 2.363 1.052c1.232-.026 1.012-.424-.809-1.465-2.922-1.67-4.66-1.86-5.442-.593M159 60.025c0 .563-1.187 1.476-2.639 2.028-3.453 1.313-2.367 2.327 1.567 1.463 2.129-.468 3.072-1.265 3.072-2.595 0-1.057-.45-1.921-1-1.921s-1 .461-1 1.025m-147.491.961c-.39.631-.439 1.417-.109 1.747s.6.075.6-.566c0-1.563 2.49-1.487 3.82.117a2.31 2.31 0 0 1 .194 2.693c-.712 1.152-1.386 1.189-3.692.2L9.5 63.968l2.401 2.049c1.321 1.127 2.896 1.885 3.5 1.684 1.185-.393 3.255-5.378 2.533-6.1-1.208-1.209-5.787-1.647-6.425-.615M161 64.781c0 .649-1.125 1.463-2.5 1.808s-2.5 1.078-2.5 1.628c0 .589 1.131.721 2.75.321 3.72-.919 4.944-2.244 3.45-3.738-.912-.912-1.2-.916-1.2-.019M9.003 70.133c.002.88 1.248 1.394 3.5 1.442 1.923.041 3.497-.296 3.497-.75s-.562-.831-1.25-.839-2.262-.285-3.5-.616c-1.53-.41-2.249-.166-2.247.763M162 69.981c0 .539-1.125 1.263-2.5 1.608s-2.5 1.038-2.5 1.538c0 .817 4.348.243 6.25-.824 1.112-.624.909-3.303-.25-3.303-.55 0-1 .441-1 .981m-57.801 1.135C86.47 74.067 67.72 81.856 54.414 91.799c-12.289 9.183-14.407 12.427-3.14 4.81 11.604-7.845 19.831-12.091 32.839-16.949 10.806-4.036 14.876-5.079 29.887-7.665l10.5-1.808-7.5.023c-4.125.013-9.885.421-12.801.906M.385 86c0 6.875.16 9.688.355 6.25s.196-9.062 0-12.5S.385 79.125.385 86M8 75.25c0 .762 1.367 1.25 3.5 1.25 3.966 0 4.613-.968 1.25-1.87-3.44-.922-4.75-.751-4.75.62m107.5-.561c-21.398 2.773-42.778 10.375-58 20.621-6.388 4.301-21.5 18.373-21.5 20.022 0 .542 2.835-1.737 6.299-5.064 18.623-17.882 46.573-29.146 84.739-34.148l14.462-1.896-11.5.038c-6.325.021-12.85.213-14.5.427m43.213.932c-1.049 1.048-.868 6.165.241 6.851.525.324 2.124.296 3.554-.063 2.203-.553 2.554-1.131 2.296-3.781-.243-2.506-.809-3.187-2.841-3.424-1.396-.163-2.859.025-3.25.417m.68 2.961c.334.87.607 1.77.607 2s.9.418 2 .418c1.333 0 2-.667 2-2 0-1.489-.667-2-2.607-2-1.966 0-2.458.389-2 1.582M7.494 79.839c-.272.272-.487 1.207-.479 2.078.013 1.296.175 1.331.894.196.539-.851 1.885-1.194 3.485-.889 1.433.274 2.606.162 2.606-.249 0-.866-5.768-1.873-6.506-1.136M107 81.576c-21.847 3.961-41.933 13.223-55 25.362l-4.5 4.18 7-4.665c9.56-6.37 27.037-14.653 38.5-18.245 7.913-2.48 22.785-5.779 34-7.543 1.375-.216-.875-.405-5-.421s-10.875.584-15 1.332M7.384 86.442c-1.113 2.901.091 5.053 3.016 5.388 3.331.381 4.491-.949 3.832-4.395-.366-1.917-1.086-2.435-3.38-2.435-1.616 0-3.161.642-3.468 1.442m154.366-.648c-1.512.187-2.75.768-2.75 1.291 0 .836 4.787.248 5.917-.726.793-.684-.429-.901-3.167-.565M8.364 87.493c-.346.903-.15 2.121.436 2.707 1.524 1.524 4.41.131 4.012-1.935-.443-2.302-3.647-2.858-4.448-.772m87.886.754c-1.787.573-3.25 1.54-3.25 2.148 0 2.397 10.49 17.291 15.877 22.544 6.004 5.855 14.116 10.819 19.758 12.091 4.358.983 4.311-.208-.091-2.308-7.547-3.598-17.712-16.014-24.95-30.472-1.445-2.888-2.958-5.204-3.361-5.148s-2.196.571-3.983 1.145M161 92l-3.5.737 3.75.131c2.063.073 3.75-.318 3.75-.868s-.113-.941-.25-.868-1.825.463-3.75.868M8.75 94.689C6.914 95.169 6.273 98 8 98c.55 0 1-.45 1-1s1.098-1 2.441-1 2.719-.45 3.059-1c.623-1.008-2.448-1.174-5.75-.311m149.188 2.974c-1.1 2.894-.6 3.762 2.751 4.773 1.625.49 2.482.112 3.327-1.466 1.298-2.425.662-4.977-1.235-4.955-1.039.013-1.039.169.003.83 1.719 1.091.448 4.155-1.724 4.155-2.713 0-3.194-1.146-1.54-3.67.864-1.32 1.072-2.33.478-2.33-.576 0-1.503 1.198-2.06 2.663M9.75 99.689C7.914 100.169 7.273 103 9 103c.55 0 1-.45 1-1s1.098-1 2.441-1 2.719-.45 3.059-1c.623-1.008-2.448-1.174-5.75-.311m.731 5.701c-1.633 1.194-1.734 1.76-.713 4 1.292 2.835 3.84 3.349 6.6 1.33 1.429-1.045 1.56-1.778.716-4-1.145-3.012-3.621-3.51-6.603-1.33m46.328 1.36c-1.673 1.952-8.987 20.406-8.342 21.05.384.384 11.533-21.158 11.533-22.283 0-1.112-1.765-.43-3.191 1.233m99.191-.725c0 .536.563.981 1.25.989s2.262.285 3.5.616c1.729.464 2.25.183 2.25-1.213 0-1.348-.291-1.526-1.127-.69-.744.744-1.932.821-3.5.225-1.492-.568-2.373-.54-2.373.073m-144.554 1.062c-.941 1.523 1.103 3.3 2.97 2.584.898-.345 1.302-1.242.96-2.133-.682-1.779-2.949-2.039-3.93-.451m144.125 3.884c1.634 1.634 5.665 1.653 6.231.029.42-1.204.238-1.265-.923-.307-.937.772-1.963.866-2.913.265-1.973-1.248-3.647-1.239-2.395.013m-141.321 3.06c-2.225.895-2.819 2.066-1.643 3.242.333.334 1.121.168 1.75-.367s2.043-1.62 3.143-2.408c2.33-1.671.427-1.945-3.25-.467M155 116.53c3.137 1.755 5.001 1.837 4.996.22-.003-.744-1.522-1.325-3.75-1.434-3.709-.183-3.721-.171-1.246 1.214m-138.25 2.042c-2.865 1.554-3.453 2.875-1.75 3.928.55.34 1 .132 1-.462s1.125-1.593 2.5-2.22 2.5-1.517 2.5-1.979c0-1.176-1.07-.992-4.25.733m133.152 2.611c-.991 1.853-.838 2.45 1.014 3.95 2.683 2.173 4.898 1.457 5.728-1.851 1.079-4.299-4.616-6.072-6.742-2.099m1.478.269c-.697 1.815.315 3.548 2.072 3.548 1.87 0 2.886-3.169 1.332-4.155-1.875-1.189-2.776-1.029-3.404.607m-132.266 1.625c-2.821 1.715-3.106 2.228-1.99 3.572 1.023 1.233 1.398 1.286 1.745.245.242-.728 1.384-2.089 2.536-3.023 3.122-2.531 1.493-3.096-2.291-.794m3.109 4.48c-2.744 1.922-2.815 3.598-.249 5.92 1.849 1.673 2.135 1.681 4.5.132 2.957-1.937 3.044-2.424.969-5.386-1.85-2.642-2.316-2.701-5.22-.666m123.783.078c.009 1.153 5.683 4.343 6.418 3.608.965-.965.642-2.402-.396-1.76-.534.33-2.109-.145-3.5-1.056s-2.525-1.268-2.522-.792M22.975 129.53c-1.938 2.335.436 4.487 2.582 2.341 1.327-1.326 1.344-1.708.126-2.719-1.107-.918-1.701-.835-2.708.378m120.056 2.105c.018.476 1.147 1.677 2.509 2.668 2.424 1.765 4.46 1.572 4.46-.421 0-.55-.437-.73-.972-.399s-2.109-.145-3.5-1.056-2.514-1.268-2.497-.792m-115.408 3.844c-1.587 1.268-2.57 2.798-2.191 3.41.904 1.464 2.568 1.425 2.568-.06 0-.644.747-1.997 1.661-3.006 2.488-2.75 1.236-2.961-2.038-.344m110.951 1.44c-1.654 1.827-1.638 2.017.345 4 2.583 2.583 3.307 2.594 5.581.081 1.747-1.93 1.747-2.07 0-4-2.266-2.504-3.716-2.523-5.926-.081m1.504.487c-1.41 1.699-.66 3.594 1.422 3.594 2.165 0 2.884-2.044 1.282-3.646-1.272-1.272-1.61-1.266-2.704.052m-109.09 2.107c-1.822 1.939-2.09 2.785-1.175 3.7s1.187.871 1.187-.199c0-.762.978-2.427 2.174-3.7S34.899 137 34.349 137s-2.063 1.131-3.361 2.513m3.584 3.688c-1.421 2.028-1.375 2.38.581 4.462 1.59 1.692 2.561 2.025 3.867 1.326 2.658-1.422 3.236-4.049 1.349-6.134-2.212-2.444-3.914-2.342-5.797.346m98.428-1.55c0 .55 1.131 2.063 2.513 3.361 1.939 1.822 2.785 2.09 3.7 1.175s.871-1.187-.199-1.187c-.762 0-2.427-.978-3.7-2.174S133 141.101 133 141.651m-97.525 2.39c-.391.633.033 1.895.943 2.805 1.455 1.455 1.768 1.473 2.602.154.521-.825.805-1.95.631-2.5-.467-1.474-3.353-1.792-4.176-.459m95.784 3.673c2.128 2.127 2.976 2.451 3.927 1.5s.873-1.214-.364-1.214c-.867 0-2.137-.675-2.822-1.5s-1.742-1.5-2.35-1.5.117 1.221 1.609 2.714m-88.644.751c-2.033 3.103-2.051 4.535-.056 4.535.857 0 1.289-.437.958-.972s.145-2.109 1.056-3.5S45.78 146 45.23 146s-1.727 1.109-2.615 2.465m84.514 2.496c1.204 1.628 2.538 2.745 2.965 2.481.795-.491-3.288-5.442-4.489-5.442-.366 0 .32 1.332 1.524 2.961m-80.698 1.172c-1.336 2.584-1.384 3.279-.275 3.968.971.604 1.508.058 1.934-1.97.325-1.543.914-3.329 1.309-3.968s.254-1.163-.314-1.163-1.763 1.41-2.654 3.133m73.05-.743c-1.633 1.194-1.734 1.76-.713 4 1.331 2.922 2.948 3.269 5.735 1.231 1.798-1.314 1.806-1.501.168-4-1.97-3.006-2.568-3.148-5.19-1.231m-67.861 2.389c-1.685 3.248-1.479 5.221.546 5.221.576 0 .767-.732.424-1.627s-.124-2.229.487-2.966.917-1.917.679-2.623c-.247-.731-1.166.128-2.136 1.995m68.63-2.112c-1.619.647-1.602 2.796.034 4.153 1.709 1.419 4.003-.097 3.564-2.357-.378-1.953-1.636-2.581-3.598-1.796m-64.482 4.943c-1.021 2.24-.92 2.806.713 4 2.831 2.07 5.061 1.69 6.321-1.076.898-1.971.816-2.773-.411-4-2.343-2.343-5.282-1.866-6.623 1.076M113 155c0 .733.3 1.033.667.667a.95.95 0 0 0 0-1.334c-.367-.366-.667-.066-.667.667m-55.5 2c-.816 1.32.277 3 1.952 3 1.463 0 2.767-2.448 1.812-3.402-.932-.933-3.081-.703-3.764.402m7.597 2.15c-1.519 4.36-1.408 4.85 1.103 4.85 1.632 0 1.909-.291 1.073-1.127-.737-.737-.82-1.935-.238-3.465.497-1.308.508-2.572.024-2.871-.475-.294-1.358.882-1.962 2.613m44.041-.184c.612 1.755 1.754 3.021 2.71 3.004 1.475-.028 1.465-.14-.098-1.05-.963-.561-1.75-1.645-1.75-2.411s-.432-1.658-.96-1.984c-.569-.352-.529.643.098 2.441m-38.586-.716c-1.669 5.419-1.573 6.75.488 6.75 1.407 0 1.829-.403 1.306-1.249-.425-.688-.642-2.488-.484-4 .292-2.782-.6-3.804-1.31-1.501m29.463.231c-1.008 1.216-1.05 2.146-.183 4.049 1.211 2.659 1.609 2.784 4.668 1.47 1.772-.762 1.687-.867-.75-.93-2.007-.051-2.75-.582-2.75-1.963 0-2.823 2.616-3.296 4.397-.795 1.557 2.187 1.557 2.187.721-.312-.985-2.946-4.245-3.757-6.103-1.519m14.079-.981c-.133 2.086 1.44 3.407 2.932 2.463 1.254-.793 1.226-.935-.193-.948-.916-.008-1.893-.577-2.171-1.265s-.533-.8-.568-.25m-37.891 1.697c-2.026 2.026-1.44 5.779 1.047 6.704 1.237.46 2.766.64 3.396.4 1.328-.504 2.335-4.733 1.453-6.102-1.053-1.634-4.652-2.246-5.896-1.002M84 163c0 3.007.399 4 1.607 4 1.055 0 1.398-.544 1-1.582-.334-.87-.607-2.67-.607-4S85.55 159 85 159s-1 1.8-1 4m5-.5c0 2.986.33 3.488 2.25 3.421 1.237-.043 1.688-.306 1-.583S91 163.521 91 161.917 90.55 159 90 159s-1 1.575-1 3.5m5-1.582c0 2.981 1.078 5.082 2.607 5.082.766 0 1.393-.45 1.393-1s-.45-1-1-1-1-1.125-1-2.5-.45-2.5-1-2.5-1 .863-1 1.918m-17 .975c0 2.382 2.635 3.502 3.42 1.454.737-1.921-.106-3.347-1.979-3.347-.793 0-1.441.852-1.441 1.893" fill="#af1e29"/></svg>