<?xml version="1.0" encoding="utf-8"?>
<!-- Generator: Adobe Illustrator 19.1.0, SVG Export Plug-In . SVG Version: 6.00 Build 0)  -->
<svg version="1.1" id="Layer_1" xmlns="http://www.w3.org/2000/svg" xmlns:xlink="http://www.w3.org/1999/xlink" x="0px" y="0px"
	 viewBox="-249 340.1 112.6 113.9" style="enable-background:new -249 340.1 112.6 113.9;" xml:space="preserve">
<style type="text/css">
	.st0{fill:#FFFFFF;}
</style>
<g>
	<path class="st0" d="M-170.7,397c0.3-0.3,0.5-0.6,0.7-0.7c0.8-0.9,1.8-1.9,2.6-2.8c3.6-3.7,5.5-8.4,5.5-13.5c0-0.4,0.1-1.8,0.1-2
		c-0.5-11.6-10.2-21-21.7-21h-36.4v14.5h-14.7v65.6h51.7c11.5,0,21.2-10.1,21.2-22.1C-161.7,406.6-167,400.5-170.7,397z
		 M-212.6,378.9h29l-18.3,18.3l18,18.1h-28.8L-212.6,378.9L-212.6,378.9z M-182.9,429.8h-44.4v-51h7.3v43.7h36.2
		c3,0,5.6-1.8,6.7-4.5c1.1-2.7,0.6-5.9-1.6-8l-12.8-12.9l13.1-13c2.1-2.1,2.7-5.2,1.6-8c-1.1-2.8-3.8-4.5-6.7-4.5h-29v-7.2h29.1
		c7.7,0,14.1,6.2,14.4,13.8c0,0.4-0.1,1.6-0.1,1.6v0.2c0,4.2-2.2,7.1-3.5,8.5c-0.9,0.9-1.9,1.9-2.7,2.8c-1.4,1.5-2.6,2.8-3.2,3.4
		l-2.6,2.6l2.6,2.6c0.4,0.4,0.8,0.7,1.3,1.2c3,2.8,8.1,7.5,8.1,14.1C-169,423-175.5,429.8-182.9,429.8z"/>
</g>
</svg>
