<svg xmlns="http://www.w3.org/2000/svg" width="200" height="199" viewBox="0 0 200 199" version="1.1"><path d="M 86 2.635 C 62.146 7.251, 44.147 16.691, 29.202 32.425 C 17.237 45.021, 10.105 57.901, 5.352 75.500 C 1.729 88.917, 1.509 106.997, 4.807 120.307 C 13.998 157.397, 40.498 183.905, 77.693 193.215 C 90.637 196.455, 109.882 196.266, 123.011 192.769 C 167.395 180.949, 196.796 142.969, 196.371 98 C 196.137 73.190, 186.970 50.370, 170.170 32.780 C 161.152 23.338, 153.584 17.720, 142.279 12.079 C 129.185 5.545, 117.955 2.869, 102 2.480 C 94.575 2.299, 87.375 2.369, 86 2.635 M 85 4.174 C 58.028 8.019, 30.954 26.274, 17.034 50 C 3.233 73.524, -0.046 102.436, 8.188 128 C 13.045 143.081, 21.344 156.239, 33.141 167.565 C 42.284 176.343, 47.631 180.010, 59.322 185.523 C 94.715 202.212, 136.188 195.541, 164.760 168.562 C 175.012 158.882, 180.661 151.129, 186.408 138.852 C 192.546 125.739, 194.112 118.871, 194.721 102.402 C 195.124 91.526, 194.860 86.417, 193.570 80.049 C 183.456 30.134, 135.920 -3.086, 85 4.174 M 138.215 30.519 C 136.447 34.104, 135 37.607, 135 38.303 C 135 38.999, 136.266 40.316, 137.812 41.230 C 139.359 42.144, 142.761 45.176, 145.373 47.967 C 148.227 51.019, 150.595 52.762, 151.310 52.338 C 151.965 51.951, 155.575 49.129, 159.333 46.067 L 166.166 40.500 160.851 35.797 C 155.546 31.102, 144.491 24, 142.487 24 C 141.905 24, 139.983 26.934, 138.215 30.519 M 160.750 50.018 C 156.488 53.364, 153 56.361, 153 56.677 C 153 56.993, 154.602 61.256, 156.560 66.151 C 158.894 71.983, 160.323 77.464, 160.708 82.057 C 161.031 85.911, 161.629 89.271, 162.037 89.523 C 162.446 89.775, 167.825 87.848, 173.991 85.241 L 185.203 80.500 184.768 75.238 C 184.255 69.032, 176.996 53.595, 171.827 47.717 L 168.500 43.934 160.750 50.018 M 90 50.362 C 81.513 52.206, 75.065 55.816, 68.428 62.440 C 61.304 69.550, 57.537 76.865, 55.903 86.758 C 52.022 110.259, 69.015 133.244, 93.017 136.956 C 121.908 141.424, 147.833 115.437, 143.097 86.758 C 141.465 76.874, 137.695 69.551, 130.572 62.428 C 123.776 55.632, 116.524 51.744, 107.566 50.093 C 100.346 48.763, 97.137 48.812, 90 50.362 M 78 68 C 75.211 70.789, 75.727 74.728, 79.221 77.325 C 81.510 79.026, 82.347 79.163, 84.486 78.188 C 85.885 77.551, 87.551 75.885, 88.188 74.486 C 89.163 72.347, 89.026 71.510, 87.325 69.221 C 84.728 65.727, 80.789 65.211, 78 68 M 95 68 C 92.209 70.791, 92.468 74.437, 95.635 76.927 C 97.084 78.067, 98.904 79, 99.680 79 C 101.799 79, 106 74.377, 106 72.045 C 106 69.234, 102.523 66, 99.500 66 C 98.125 66, 96.100 66.900, 95 68 M 111.986 68.515 C 110.026 70.601, 109.786 71.489, 110.575 73.734 C 111.098 75.221, 112.737 77.118, 114.217 77.949 C 116.699 79.341, 117.126 79.297, 119.704 77.381 C 123.234 74.757, 123.808 70.808, 121.061 68.061 C 118.291 65.291, 114.853 65.463, 111.986 68.515 M 71.411 83.891 C 58.635 91.682, 59.921 110.367, 73.593 115.589 C 77.539 117.096, 78.877 117.180, 82.682 116.162 C 87.221 114.948, 98.032 108.651, 97.961 107.262 C 97.940 106.843, 95.934 105.038, 93.504 103.251 L 89.086 100.002 85.404 102.501 C 83.378 103.875, 80.953 105, 80.015 105 C 76.075 105, 73.364 98.036, 76.200 95.200 C 78.673 92.727, 82.792 93.925, 89.193 98.978 C 100.469 107.879, 111.456 114.862, 116.168 116.122 C 120.158 117.190, 121.411 117.115, 125.464 115.567 C 136.620 111.306, 140.134 97.255, 132.355 88.010 C 126.272 80.781, 119.032 80.109, 108.571 85.801 C 104.761 87.875, 101.488 90.035, 101.300 90.601 C 101.111 91.167, 102.840 93.144, 105.142 94.993 L 109.326 98.357 113.111 96.178 C 119.514 92.493, 124 93.674, 124 99.045 C 124 102.587, 120.792 105.416, 117.666 104.631 C 116.339 104.298, 110.412 100.239, 104.496 95.611 C 87.555 82.359, 78.933 79.305, 71.411 83.891 M 14.023 131.078 C 14.010 131.395, 15.103 134.370, 16.451 137.688 C 24.055 156.400, 36.740 169.643, 56.500 179.501 C 64.581 183.532, 82.696 189.143, 86.878 188.910 C 87.770 188.860, 85.566 188.036, 81.980 187.078 C 65.415 182.654, 49.968 173.705, 36.205 160.560 C 26.988 151.757, 22.291 145.796, 17.351 136.632 C 15.533 133.259, 14.035 130.760, 14.023 131.078" stroke="none" fill="#f1f1f1" fill-rule="evenodd"/><path d="M 85 4.174 C 58.028 8.019, 30.954 26.274, 17.034 50 C 3.233 73.524, -0.046 102.436, 8.188 128 C 13.045 143.081, 21.344 156.239, 33.141 167.565 C 42.284 176.343, 47.631 180.010, 59.322 185.523 C 94.715 202.212, 136.188 195.541, 164.760 168.562 C 175.012 158.882, 180.661 151.129, 186.408 138.852 C 192.546 125.739, 194.112 118.871, 194.721 102.402 C 195.124 91.526, 194.860 86.417, 193.570 80.049 C 183.456 30.134, 135.920 -3.086, 85 4.174 M 138.215 30.519 C 136.447 34.104, 135 37.607, 135 38.303 C 135 38.999, 136.266 40.316, 137.812 41.230 C 139.359 42.144, 142.761 45.176, 145.373 47.967 C 148.227 51.019, 150.595 52.762, 151.310 52.338 C 151.965 51.951, 155.575 49.129, 159.333 46.067 L 166.166 40.500 160.851 35.797 C 155.546 31.102, 144.491 24, 142.487 24 C 141.905 24, 139.983 26.934, 138.215 30.519 M 160.750 50.018 C 156.488 53.364, 153 56.361, 153 56.677 C 153 56.993, 154.602 61.256, 156.560 66.151 C 158.894 71.983, 160.323 77.464, 160.708 82.057 C 161.031 85.911, 161.629 89.271, 162.037 89.523 C 162.446 89.775, 167.825 87.848, 173.991 85.241 L 185.203 80.500 184.768 75.238 C 184.255 69.032, 176.996 53.595, 171.827 47.717 L 168.500 43.934 160.750 50.018 M 90 50.362 C 81.513 52.206, 75.065 55.816, 68.428 62.440 C 61.304 69.550, 57.537 76.865, 55.903 86.758 C 52.022 110.259, 69.015 133.244, 93.017 136.956 C 121.908 141.424, 147.833 115.437, 143.097 86.758 C 141.465 76.874, 137.695 69.551, 130.572 62.428 C 123.776 55.632, 116.524 51.744, 107.566 50.093 C 100.346 48.763, 97.137 48.812, 90 50.362 M 78 68 C 75.211 70.789, 75.727 74.728, 79.221 77.325 C 81.510 79.026, 82.347 79.163, 84.486 78.188 C 85.885 77.551, 87.551 75.885, 88.188 74.486 C 89.163 72.347, 89.026 71.510, 87.325 69.221 C 84.728 65.727, 80.789 65.211, 78 68 M 95 68 C 92.209 70.791, 92.468 74.437, 95.635 76.927 C 97.084 78.067, 98.904 79, 99.680 79 C 101.799 79, 106 74.377, 106 72.045 C 106 69.234, 102.523 66, 99.500 66 C 98.125 66, 96.100 66.900, 95 68 M 111.986 68.515 C 110.026 70.601, 109.786 71.489, 110.575 73.734 C 111.098 75.221, 112.737 77.118, 114.217 77.949 C 116.699 79.341, 117.126 79.297, 119.704 77.381 C 123.234 74.757, 123.808 70.808, 121.061 68.061 C 118.291 65.291, 114.853 65.463, 111.986 68.515 M 71.411 83.891 C 58.635 91.682, 59.921 110.367, 73.593 115.589 C 77.539 117.096, 78.877 117.180, 82.682 116.162 C 87.221 114.948, 98.032 108.651, 97.961 107.262 C 97.940 106.843, 95.934 105.038, 93.504 103.251 L 89.086 100.002 85.404 102.501 C 83.378 103.875, 80.953 105, 80.015 105 C 76.075 105, 73.364 98.036, 76.200 95.200 C 78.673 92.727, 82.792 93.925, 89.193 98.978 C 100.469 107.879, 111.456 114.862, 116.168 116.122 C 120.158 117.190, 121.411 117.115, 125.464 115.567 C 136.620 111.306, 140.134 97.255, 132.355 88.010 C 126.272 80.781, 119.032 80.109, 108.571 85.801 C 104.761 87.875, 101.488 90.035, 101.300 90.601 C 101.111 91.167, 102.840 93.144, 105.142 94.993 L 109.326 98.357 113.111 96.178 C 119.514 92.493, 124 93.674, 124 99.045 C 124 102.587, 120.792 105.416, 117.666 104.631 C 116.339 104.298, 110.412 100.239, 104.496 95.611 C 87.555 82.359, 78.933 79.305, 71.411 83.891 M 14.023 131.078 C 14.010 131.395, 15.103 134.370, 16.451 137.688 C 24.055 156.400, 36.740 169.643, 56.500 179.501 C 64.581 183.532, 82.696 189.143, 86.878 188.910 C 87.770 188.860, 85.566 188.036, 81.980 187.078 C 65.415 182.654, 49.968 173.705, 36.205 160.560 C 26.988 151.757, 22.291 145.796, 17.351 136.632 C 15.533 133.259, 14.035 130.760, 14.023 131.078" stroke="none" fill="#060606" fill-rule="evenodd"/></svg>