<svg width="256" height="256" xmlns="http://www.w3.org/2000/svg" xml:space="preserve" enable-background="new 0 0 256 256" version="1.1">

 <g>
  <title>Layer 1</title>
  <path id="svg_2" d="m128.65172,75.51942c12.7194,-11.94296 25.57608,-23.74377 38.12617,-35.86208c19.02272,-18.36825 49.6893,-12.99221 61.0062,10.87679c6.43967,13.58223 3.52662,30.75399 -7.26302,41.4041c-11.12245,10.97864 -22.41732,21.78253 -33.62279,32.67726c-1.3009,1.26483 -2.51272,2.6213 -4.23159,4.42366c2.17138,1.86252 4.20512,3.44138 6.04983,5.21663c10.5461,10.14916 21.17469,20.21739 31.53095,30.55779c12.51066,12.49153 14.46301,31.85223 4.99827,46.65008c-12.61432,19.72209 -40.02731,24.20137 -57.86876,6.57698c-12.14964,-12.00189 -25.06106,-23.23262 -37.93411,-35.25563c-0.33175,-0.80269 -0.36128,-1.15791 -0.1104,-1.70965c9.38742,-8.71038 18.67351,-17.04213 27.56017,-25.78009c13.88855,-13.65619 15.53725,-35.47106 2.75859,-49.70559c-9.39299,-10.46314 -20.41214,-19.46644 -30.79158,-29.26751c-0.1386,-0.36335 -0.17958,-0.58186 -0.20793,-0.80274z" fill="#0170B8"/>
  <path id="svg_3" d="m128.42798,75.24927c0.25209,0.49103 0.29307,0.70954 0.07281,1.15611c-2.90196,2.5023 -5.65248,4.64951 -8.12555,7.07912c-2.77794,2.72914 -5.2405,5.77623 -7.95521,8.57343c-5.60427,5.77451 -12.30754,10.78482 -16.73233,17.34197c-11.00215,16.3041 -6.12182,38.02495 10.02685,49.46341c2.15096,1.52356 3.96599,3.54293 5.84462,5.42449c2.96709,2.97172 5.79012,6.08915 8.79771,9.018c2.81486,2.74115 5.79038,5.31731 8.69518,7.96608c0.02953,0.35521 0.05906,0.71043 0.11377,1.33167c-8.71183,8.14973 -17.44263,16.04042 -26.18809,23.91479c-5.91164,5.3228 -11.4335,11.19132 -17.84777,15.8208c-16.04676,11.58165 -34.56318,8.12129 -47.21345,-4.41241c-13.03255,-12.9124 -15.1185,-31.99475 -4.76038,-46.85913c3.81741,-5.47815 9.20782,-9.87329 13.9612,-14.68293c6.671,-6.74989 13.37905,-13.46434 20.15126,-20.11242c2.44103,-2.39629 5.11334,-4.55698 8.67715,-7.70626c-5.01769,-4.69326 -9.64414,-8.94172 -14.18244,-13.28234c-8.6468,-8.27014 -17.55657,-16.29501 -25.79338,-24.95777c-15.63959,-16.44835 -10.52111,-45.51743 9.63809,-56.5837c15.72489,-8.63209 33.29771,-6.03758 46.20298,6.51604c12.01769,11.69022 24.25348,23.15621 36.61698,34.99105z" fill="#8EC540"/>
  <path id="svg_4" d="m129.33247,181.07535c-3.18521,-2.45224 -6.16073,-5.0284 -8.97559,-7.76955c-3.00759,-2.92885 -5.83062,-6.04628 -8.79771,-9.018c-1.87863,-1.88156 -3.69366,-3.90093 -5.84462,-5.42449c-16.14867,-11.43846 -21.029,-33.15931 -10.02685,-49.46341c4.42479,-6.55715 11.12806,-11.56746 16.73233,-17.34197c2.71471,-2.7972 5.17727,-5.84429 7.95521,-8.57343c2.47307,-2.42961 5.22359,-4.57682 8.21051,-6.9319c10.65334,9.57063 21.67249,18.57393 31.06548,29.03707c12.77866,14.23453 11.12996,36.0494 -2.75859,49.70559c-8.88666,8.73796 -18.17275,17.06971 -27.56017,25.78009z" fill="#2C3689"/>
 </g>
</svg>