<svg width="64" height="64" viewBox="0 0 64 64" fill="none" xmlns="http://www.w3.org/2000/svg">
<path d="M55.001 29.5543C55.001 43.6675 43.5841 55.1085 29.5005 55.1085C15.417 55.1085 4 43.6675 4 29.5543C4 15.441 15.417 4 29.5005 4C43.5841 4 55.001 15.441 55.001 29.5543Z" fill="#012235"/>
<path d="M29.4518 50.7599C41.1656 50.7599 50.6616 41.244 50.6616 29.5054C50.6616 17.7669 41.1656 8.2509 29.4518 8.2509C17.7379 8.2509 8.24196 17.7669 8.24196 29.5054C8.24196 41.244 17.7379 50.7599 29.4518 50.7599Z" fill="#0ca4fb"/>
<path fill-rule="evenodd" clip-rule="evenodd" d="M10.8998 39.8138C11.7018 37.4705 13.2475 34.9333 15.4003 32.4279C15.0173 31.9177 14.8304 31.2864 14.8738 30.6495C14.9172 30.0125 15.1881 29.4126 15.6368 28.9594C16.0855 28.5062 16.6821 28.23 17.3173 28.1815C17.9526 28.133 18.584 28.3153 19.0961 28.6951C20.8058 27.1863 22.6242 25.8059 24.5364 24.5651C33.7282 18.5832 43.4423 16.6743 48.18 19.5198C49.545 22.0852 50.3668 24.9053 50.594 27.8037C49.0642 32.8224 44.011 38.8189 36.8102 43.5055C31.8432 46.7375 26.7223 48.7819 22.3173 49.5272C17.4626 47.7829 13.4053 44.3312 10.8998 39.8138ZM15.8709 32.9128C12.7636 36.5101 11.5189 40.211 13.0248 42.5357C15.2995 46.0467 22.9934 45.0863 30.206 40.393C37.42 35.6984 41.4234 29.0458 39.1486 25.5348C36.8725 22.0238 29.18 22.9843 21.966 27.6775C21.1667 28.1983 20.4058 28.7429 19.69 29.3048C20.0571 29.8275 20.2239 30.4654 20.1597 31.1013C20.0955 31.7373 19.8047 32.3288 19.3406 32.7672C18.8764 33.2057 18.2701 33.4618 17.6328 33.4885C16.9955 33.5153 16.3699 33.3108 15.8709 32.9128Z" fill="#012235"/>
<path d="M46.8711 52.7673C45.2387 51.1315 45.2387 48.4793 46.8711 46.8434C48.5035 45.2076 51.1501 45.2076 52.7825 46.8434L58.7757 52.8492C60.4081 54.4851 60.4081 57.1373 58.7757 58.7731C57.1433 60.409 54.4967 60.409 52.8643 58.7731L46.8711 52.7673Z" fill="#012235"/>
</svg>