<svg width="256" height="256" xmlns="http://www.w3.org/2000/svg" clip-rule="evenodd" version="1.1">

 <g>
  <title>Layer 1</title>
  <g id="svg_1">
   <path id="svg_2" opacity="0.995" d="m121.5,4.5c50.351,-0.40981 88.184,20.9235 113.5,64c23.49,50.402 18.157,97.402 -16,141c-36.198,36.862 -79.365,48.029 -129.5,33.5c-54.9904,-23.041 -81.82376,-64.541 -80.5,-124.5c5.586,-50.8877 31.7527,-86.3877 78.5,-106.5c11.2892,-3.35504 22.623,-5.85504 34,-7.5z" fill="#105a2f"/>
  </g>
  <g id="svg_3">
   <path id="svg_4" opacity="0.007" d="m238.5,15.5c0.709,-0.904 1.709,-1.2373 3,-1c-0.194,3.5048 -1.194,3.8382 -3,1z" fill="#000000"/>
  </g>
  <g id="svg_5">
   <path id="svg_6" d="m88.5,201.5c-9.3955,0.638 -18.3955,-0.029 -27,-2c5.5403,-29.701 11.207,-59.368 17,-89c0.9511,-1.419 1.2845,-3.085 1,-5c-5,0 -10,0 -15,0c0,-1.333 0,-2.667 0,-4c0.5373,-4.6863 1.204,-9.353 2,-14c5.6667,0 11.3333,0 17,0c0.7446,-6.7196 1.7446,-13.3863 3,-20c0.6174,-0.1107 1.1174,-0.444 1.5,-1c1.4531,-5.574 2.2865,-11.2406 2.5,-17c25.163,-1.1634 50.497,-1.33 76,-0.5c39.922,2.9977 53.422,23.4977 40.5,61.5c-10.38,21.296 -27.546,32.796 -51.5,34.5c-18.966,1.391 -37.966,1.891 -57,1.5c-3.0782,18.39 -6.4116,36.724 -10,55z" fill="#fbfbfb"/>
  </g>
  <g id="svg_7">
   <path id="svg_8" d="m90.5,49.5c-0.2135,5.7594 -1.0469,11.426 -2.5,17c-0.3826,0.556 -0.8826,0.8893 -1.5,1c0.7635,-6.2514 2.0969,-12.2514 4,-18z" fill="#b5cabc"/>
  </g>
  <g id="svg_9">
   <path id="svg_10" d="m154.5,119.5c-17.034,0.652 -33.7,-0.015 -50,-2c0.041,-4.116 0.707,-8.116 2,-12c13,0 26,0 39,0c0.994,-5.9878 1.994,-11.9878 3,-18c-12.155,-0.9952 -24.489,-1.3286 -37,-1c0,-1 0,-2 0,-3c-0.277,-2.9475 0.056,-5.7809 1,-8.5c18.36,-0.8512 36.693,-0.5179 55,1c15.714,4.814 19.547,14.6473 11.5,29.5c-5.822,8.664 -13.989,13.331 -24.5,14z" fill="#175e33"/>
  </g>
  <g id="svg_11">
   <path id="svg_12" d="m111.5,83.5c0,1 0,2 0,3c12.511,-0.3286 24.845,0.0048 37,1c-12.667,0 -25.333,0 -38,0c-0.268,-1.599 0.066,-2.9324 1,-4z" fill="#629275"/>
  </g>
  <g id="svg_13">
   <path id="svg_14" d="m64.5,101.5c0,1.333 0,2.667 0,4c5,0 10,0 15,0c0.2845,1.915 -0.0489,3.581 -1,5c0,-1.333 0,-2.667 0,-4c-5,0 -10,0 -15,0c-0.2845,-1.915 0.0489,-3.581 1,-5z" fill="#619073"/>
  </g>
  <g id="svg_15">
   <path id="svg_16" d="m104.5,117.5c16.3,1.985 32.966,2.652 50,2c-16.825,0.997 -33.825,1.33 -51,1c-0.237,-1.291 0.096,-2.291 1,-3z" fill="#88ac96"/>
  </g>
  <g id="svg_17">
   <path id="svg_18" d="m61.5,199.5c8.6045,1.971 17.6045,2.638 27,2c-9.1517,0.994 -18.485,1.327 -28,1c-0.2373,-1.291 0.096,-2.291 1,-3z" fill="#80a58e"/>
  </g>
  <g id="svg_19">
   <path id="svg_20" opacity="0.005" d="m239.5,237.5c1.621,0.287 2.621,1.287 3,3c-1.333,1.333 -2.667,1.333 -4,0c0.627,-0.917 0.961,-1.917 1,-3z" fill="#060e03"/>
  </g>
  <g id="svg_21">
   <path id="svg_22" opacity="0.004" d="m14.5,238.5c2.8881,1.04 3.2214,2.373 1,4c-0.9287,-1.189 -1.262,-2.522 -1,-4z" fill="#0f1b08"/>
  </g>
 </g>
</svg>