<svg xmlns="http://www.w3.org/2000/svg" width="215.989" height="216" viewBox="0 0 215.989 216"><path fill="#00AEEF" d="M119.751 9.718c-3.857-.457-7.776-.719-11.757-.719-35.963 0-67.443 19.18-84.782 47.865l32.103 39.541 79.341-32.739-14.905-53.948z"/><path fill="#E31B23" d="M134.655 63.666l-79.341 32.739 48.267 59.444 47.003-34.524z"/><path fill="#008FC5" d="M23.212 56.864c-9.021 14.928-14.217 32.424-14.217 51.135 0 2.49.123 4.949.302 7.393l46.018-18.986-32.103-39.542z"/><path fill="#FDBB30" d="M203.624 82.364c-10.314-38.576-43.337-67.848-83.873-72.646l30.833 111.607 53.04-38.961z"/><path fill="#FFD200" d="M150.584 121.325l17.95 64.982c23.388-18.109 38.46-46.441 38.46-78.309 0-8.869-1.182-17.459-3.371-25.635l-53.039 38.962z"/><path fill="#F04D3C" d="M103.581 155.849l37.04 45.621c10.165-3.547 19.566-8.701 27.914-15.162l-17.95-64.982-47.004 34.523z"/><path fill="#54B948" d="M55.314 96.405l-46.017 18.987c2.371 32.061 19.993 59.857 45.654 76.18l48.63-35.723-48.267-59.444z"/><path fill="#8DC63F" d="M54.951 191.571c15.334 9.756 33.523 15.43 53.043 15.43 11.437 0 22.409-1.963 32.627-5.531l-37.04-45.621-48.63 35.722z"/></svg>