<svg xmlns="http://www.w3.org/2000/svg" width="244" height="244" shape-rendering="geometricPrecision" image-rendering="optimizeQuality" fill-rule="evenodd"><style>.B{fill:#fefffe}.C{fill:#eff7f7}</style><path fill="#ff0f06" d="M106.5-.5h30c60 11.333 95.667 47 107 107v30c-11.333 60-47 95.667-107 107h-30c-60-11.333-95.667-47-107-107v-30c11.333-60 47-95.667 107-107z" opacity=".98"/><path fill="#fafcfc" d="M192.5 53.5a50.44 50.44 0 0 1-10-.5c-1.167-.5-2-1.333-2.5-2.5-1.132 2.022-2.799 2.355-5 1a7.297 7.297 0 0 0-3.5 2 77.886 77.886 0 0 1-5-9.5l2-2a6.2 6.2 0 0 0-2-3.5c-1.069 1.41-2.403 2.41-4 3 3.007-5.416 5.673-5.249 8 .5a11.46 11.46 0 0 1-1 2.5 26 26 0 0 1 4 4.5 105.63 105.63 0 0 1 9-.5c-.17 1.322.163 2.489 1 3.5 2.929.777 5.763.611 8.5-.5.464.594.631 1.261.5 2z"/><path d="M84.5 40.5c-.333 1-1 1.667-2 2a2.428 2.428 0 0 1 .5-2c.69-1.238 1.19-1.238 1.5 0z" class="B"/><path fill="#eff6f6" d="M154.5 43.5c-1.25-.077-2.083-.744-2.5-2a321.77 321.77 0 0 0-12.5 13 131.53 131.53 0 0 0 3.5-7l5-3c1.519-6.063 3.686-6.396 6.5-1z"/><path fill="#248988" d="M192.5 53.5c.667 0 1 .333 1 1-1.069 2.908-1.236 5.908-.5 9 1.27 2.079 2.77 2.412 4.5 1 2.235-.295 4.235.039 6 1 .704 3.142.371 6.308-1 9.5.022 2.183 1.022 3.683 3 4.5.548 2.584 2.215 3.584 5 3 .193 3.949.693 3.949 1.5 0a24.139 24.139 0 0 0 6.5 5l-2 3c-1.945 1.807-2.945 4.14-3 7-.064 2.057.602 3.723 2 5 1.404 2.877 3.737 4.544 7 5v1c.734 1.208 1.067 2.541 1 4-1.32 1.442-2.986 2.108-5 2a19.67 19.67 0 0 0-2.5 10c1.215 3.81 3.715 6.144 7.5 7h1c-2.756 3.854-4.756 8.187-6 13l2 5c-4.87 3.375-8.036 8.041-9.5 14a248.79 248.79 0 0 1-1.5 11l-3 2a5.576 5.576 0 0 0-3-1c-1.382-2.049-3.048-3.715-5-5-3.384-1.692-6.717-2.359-10-2l-8-6c-.054-2.132-1.054-3.465-3-4-1.103-3.436-3.436-5.436-7-6-2.154-3.135-5.154-5.135-9-6-.667 0-1-.333-1-1a18.473 18.473 0 0 0-2-3.5 78.133 78.133 0 0 1-10-7.5c0-.667-.333-1-1-1 .215-1.679-.452-2.679-2-3-1.051-.722-1.718-1.722-2-3a4.934 4.934 0 0 1 .5-3 70.588 70.588 0 0 1 10.5 9.5 8.43 8.43 0 0 0 4 .5c-8.761-6.926-16.761-14.759-24-23.5a4.934 4.934 0 0 0-3-.5c-1.474-.936-2.474-2.27-3-4 2.505-.997 5.172-.997 8 0a56.278 56.278 0 0 0-8-4 50.269 50.269 0 0 1 14-5.5c7.959-7.042 17.292-10.209 28-9.5a72.04 72.04 0 0 1 16 2l-6-3c-1.114-1.223-1.281-2.556-.5-4a39.26 39.26 0 0 0 7-5c3.193-1.091 6.359-1.258 9.5-.5a26.051 26.051 0 0 1 0-5.5c-1.414 2.71-3.414 3.71-6 3-6.249 1.419-10.916 4.919-14 10.5-5.972 1.575-11.972 1.742-18 .5a76.47 76.47 0 0 1 5.5-9c.749-1.135.583-2.135-.5-3a398.39 398.39 0 0 1-11 15.5 154.341 154.341 0 0 1-21 10.5l-1-1c7.553-7.418 13.386-16.084 17.5-26a492.95 492.95 0 0 0 21.5-16c-1.033-.952-2.2-.952-3.5 0a102.8 102.8 0 0 1-16.5 13l-1-2a58.07 58.07 0 0 0 3-6.5c5.137-5.452 9.804-11.119 14-17-4.605 3.27-8.771 7.437-12.5 12.5-.728-2.73-.562-5.397.5-8-.825-.886-1.825-1.219-3-1-.481 16.745-5.981 31.745-16.5 45l-7 6c-.579-1.428-.412-2.762.5-4 .086-.996-.248-1.829-1-2.5a2.428 2.428 0 0 1 2-.5c2.374-5.297 3.374-10.963 3-17v-1a285.87 285.87 0 0 0 8-18v-1a321.77 321.77 0 0 1 12.5-13c.417 1.256 1.25 1.923 2.5 2 2.041-.354 3.874-.354 5.5 0 .417-1.256 1.25-1.923 2.5-2 1.597-.59 2.931-1.59 4-3a6.2 6.2 0 0 1 2 3.5l-2 2a77.886 77.886 0 0 0 5 9.5 7.297 7.297 0 0 1 3.5-2c2.201 1.355 3.868 1.022 5-1 .5 1.167 1.333 2 2.5 2.5a50.44 50.44 0 0 0 10 .5z"/><path d="M86.5 40.5c2.785-.584 4.452.416 5 3a29.555 29.555 0 0 0-5-3z" class="B"/><path fill="#248888" d="M84.5 40.5h2a29.555 29.555 0 0 1 5 3c-.03.997.47 1.664 1.5 2a17.65 17.65 0 0 0 9.5.5c.752-.671 1.086-1.504 1-2.5.667 0 1-.333 1-1 1.595 3.057 2.762 6.39 3.5 10 2.54 13.633 2.874 27.3 1 41a55.569 55.569 0 0 1-4-13A59.87 59.87 0 0 0 97.5 66a31.198 31.198 0 0 0-6-3.5c-3.225 2.097-5.225 5.097-6 9 1.079 2.376 2.412 2.543 4 .5a3.647 3.647 0 0 1-1-1.5 19.06 19.06 0 0 0 2.5-7c4.742 2.812 8.075 6.812 10 12 2.341 10.808 6.175 20.808 11.5 30-.605 1.981-1.605 2.315-3 1-.06-.543-.393-.876-1-1a32.444 32.444 0 0 1-6 1.5c.451 1.989-.215 3.823-2 5.5-.342.838-1.008 1.172-2 1-1.527-.073-2.527.594-3 2l-2 3a159.14 159.14 0 0 0-15 15 3 3 0 0 1-2 2 21.83 21.83 0 0 0-6 5l-1 2c-1.88-.271-3.213.396-4 2 .107 1.879-.393 2.212-1.5 1-.708.881-1.542 1.547-2.5 2-1.527-.073-2.527.594-3 2a35.9 35.9 0 0 0-8.5 5c-1.164.335-2.497.335-4 0a14.992 14.992 0 0 0-3.5 3 3.647 3.647 0 0 1-1.5-1c-2.787 1.547-5.12 3.547-7 6-.383-.556-.883-.889-1.5-1h-5a18.453 18.453 0 0 0-.5-6c-.198 1.882-.698 3.548-1.5 5v-1a46.57 46.57 0 0 1 1-11.5 68.64 68.64 0 0 1-4-10.5h-4c-.674-1.524-1.674-2.858-3-4a5.576 5.576 0 0 0 1-3c1.917-.616 3.084-1.95 3.5-4l1 1a16.57 16.57 0 0 1 2.5-4c1.165-.996 1.832-2.329 2-4a98.44 98.44 0 0 1-4-11.5c.651-2.504 2.318-3.837 5-4a13.91 13.91 0 0 1 3-4 31.52 31.52 0 0 1-4-14.5c1.209-.432 2.209-1.099 3-2 2.826-.498 5.16-1.831 7-4 1.527.073 2.527-.594 3-2 1.25-.077 2.083-.744 2.5-2a29.92 29.92 0 0 1 .5-10 145.294 145.294 0 0 0 15-6.5 14.698 14.698 0 0 0 3-3.5c1.663-1.993 2.83-4.326 3.5-7 1.011-.837 2.178-1.17 3.5-1h1c6.833 4.19 14.166 7.523 22 10 .008-5.708-.492-6.041-1.5-1-2.175-2.681-5.008-4.347-8.5-5a4.85 4.85 0 0 1-1-4c.799-2.074 2.133-3.74 4-5 1-.333 1.667-1 2-2z"/><path d="M104.5 42.5c.689-1.274 1.523-1.274 2.5 0a148.32 148.32 0 0 1 5.5 26.5 3.943 3.943 0 0 0-1 2l2 14.5a32.7 32.7 0 0 0-2 4.5c.255 1.326.922 2.326 2 3-1.338 4.484-.004 7.984 4 10.5 1.239-.442 2.239-1.109 3-2-.271 1.88.396 3.213 2 4-1.993.972-2.326 2.305-1 4-1.387 2.377-2.221 5.043-2.5 8a119.356 119.356 0 0 1-2.5 19c.699 3.464 2.699 5.464 6 6a4.934 4.934 0 0 0 .5 3 31.578 31.578 0 0 0 8.5 8.5c-.88 1.356-1.214 2.856-1 4.5-2.89-1.399-4.39-3.732-4.5-7a40.338 40.338 0 0 0-10-11 384.036 384.036 0 0 1-4.5 18.5c1.453 1.713 1.286 3.213-.5 4.5l-1 15c-.718.951-1.551 1.117-2.5.5 1.132-4.413 1.299-8.913.5-13.5-.914 1.154-1.747.987-2.5-.5a6.978 6.978 0 0 0 3.5-2.5 60.986 60.986 0 0 1 4.5-20.5l-.5-1.5a26.489 26.489 0 0 0-10 6l-1.5-1.5a124.6 124.6 0 0 1 11-6c3.418-9.168 4.918-18.668 4.5-28.5l-3 3a2.428 2.428 0 0 1-.5-2 14.555 14.555 0 0 1 4-5c-1.669-1.473-3.336-1.806-5-1-5.325-9.192-9.159-19.192-11.5-30-1.925-5.188-5.258-9.188-10-12a19.06 19.06 0 0 1-2.5 7 3.647 3.647 0 0 0 1 1.5c-1.588 2.043-2.921 1.876-4-.5.775-3.903 2.775-6.903 6-9a31.198 31.198 0 0 1 6 3.5 59.87 59.87 0 0 1 7.5 14.5 55.569 55.569 0 0 0 4 13c1.874-13.7 1.54-27.367-1-41-.738-3.61-1.905-6.943-3.5-10z" class="B"/><path fill="#fbfdfd" d="M186.5 89.5a72.04 72.04 0 0 0-16-2c-10.708-.709-20.041 2.458-28 9.5a50.269 50.269 0 0 0-14 5.5 56.278 56.278 0 0 1 8 4c-2.828-.997-5.495-.997-8 0a6.547 6.547 0 0 1-3-3l-1-4c.277-2.228 1.277-3.895 3-5-.912 1.238-1.079 2.572-.5 4l7-6c10.519-13.255 16.019-28.255 16.5-45 1.175-.219 2.175.114 3 1-1.062 2.603-1.228 5.27-.5 8 3.729-5.063 7.895-9.23 12.5-12.5-4.196 5.881-8.863 11.548-14 17a58.07 58.07 0 0 1-3 6.5l1 2a102.8 102.8 0 0 0 16.5-13c1.3-.952 2.467-.952 3.5 0a492.95 492.95 0 0 1-21.5 16c-4.114 9.916-9.947 18.582-17.5 26l1 1a154.341 154.341 0 0 0 21-10.5 398.39 398.39 0 0 0 11-15.5c1.083.865 1.249 1.865.5 3a76.47 76.47 0 0 0-5.5 9c6.028 1.242 12.028 1.075 18-.5 3.084-5.581 7.751-9.081 14-10.5 2.586.71 4.586-.29 6-3a26.051 26.051 0 0 0 0 5.5c-3.141-.758-6.307-.591-9.5.5a39.26 39.26 0 0 1-7 5c-.781 1.444-.614 2.777.5 4l6 3z"/><path fill="#e0efef" d="M103.5 43.5c.086.996-.248 1.829-1 2.5a17.65 17.65 0 0 1-9.5-.5c-1.03-.336-1.53-1.003-1.5-2 1.767.757 3.6 1.423 5.5 2 1.235-1.115 2.402-1.115 3.5 0 1.299-.59 2.132-1.59 2.5-3a.91.91 0 0 1 .5 1z"/><path fill="#ebf5f4" d="M66.5 47.5c-1.322-.17-2.489.163-3.5 1-.67 2.674-1.837 5.007-3.5 7-1.081-5.515 1.086-8.848 6.5-10 .464.594.631 1.261.5 2z"/><path d="M63.5 51.5c.235-.597.735-.93 1.5-1 3.986 2.969 6.153 6.969 6.5 12a44.707 44.707 0 0 0 9 3c1.667 1.667 1.333 2.667-1 3-8.77-5.576-16.937-4.91-24.5 2l-1 5c-.5-1.167-1.333-2-2.5-2.5a29.24 29.24 0 0 0 4-6 9.258 9.258 0 0 0-2-2.5l1-1a11.068 11.068 0 0 0 3.5 2 233.98 233.98 0 0 0 11.5-4c-.552-4.339-2.552-7.672-6-10z" class="C"/><path fill="#e3f1f0" d="M67.5 47.5c3.683 1.175 7.35 1.175 11 0a4.85 4.85 0 0 0 1 4c3.492.653 6.325 2.319 8.5 5 1.008-5.041 1.508-4.708 1.5 1-7.834-2.477-15.167-5.81-22-10z"/><path d="M193.5 54.5c.819 2.805 1.319 5.805 1.5 9 .671.752 1.504 1.086 2.5 1-1.73 1.412-3.23 1.079-4.5-1-.736-3.092-.569-6.092.5-9zm-54 1a285.87 285.87 0 0 1-8 18c-.111-.617-.444-1.117-1-1.5a87.524 87.524 0 0 1 6.5-15.5c.671-.752 1.504-1.086 2.5-1zm44 6c2.516.255 4.85 1.089 7 2.5-1.679.395-3.345.228-5-.5-4.609 1.49-9.276 2.323-14 2.5 4.071-1.63 8.071-3.13 12-4.5z" class="B"/><path fill="#d7eaea" d="M59.5 55.5a14.698 14.698 0 0 1-3 3.5 145.294 145.294 0 0 1-15 6.5 29.92 29.92 0 0 0-.5 10c-.417 1.256-1.25 1.923-2.5 2 1.298-3.122 1.298-6.288 0-9.5a27.11 27.11 0 0 1 2-4.5 165.544 165.544 0 0 0 19-8z"/><g class="B"><path d="M203.5 65.5c3.195 2.586 3.528 5.586 1 9a9.108 9.108 0 0 1 1 5c-1.978-.817-2.978-2.317-3-4.5 1.371-3.192 1.704-6.358 1-9.5zm-36 3a4.93 4.93 0 0 1 3 .5c-1.803.637-3.136 1.803-4 3.5l-1-1 2-3zm-125 2c.235-.597.735-.93 1.5-1a39.14 39.14 0 0 1 6.5 2l-2 1-6-2zm89 4c.374 6.037-.626 11.703-3 17 .474-3.421.474-6.755 0-10 2.118-1.939 2.451-4.106 1-6.5a2.428 2.428 0 0 1 2-.5zm-93 3c-.473 1.406-1.473 2.073-3 2 .473-1.406 1.473-2.073 3-2zm17 0c1.535 1.344 2.868 3.011 4 5-1.921 1.141-3.921 1.308-6 .5 3.582-.595 3.916-1.929 1-4 .556-.383.889-.883 1-1.5zM35.5 79.5c-1.84 2.169-4.174 3.502-7 4 1.84-2.169 4.174-3.502 7-4zm6 2a8.43 8.43 0 0 1 4 .5l-7 6c-1.544 1.187-3.211 1.52-5 1 3.388-1.838 6.055-4.338 8-7.5z"/></g><path fill="#d9ebeb" d="M205.5 79.5c4.691.869 9.191 2.869 13.5 6 .914-1.154 1.747-.987 2.5.5-1.261 2.06-2.928 3.56-5 4.5l2-3a24.139 24.139 0 0 1-6.5-5c-.807 3.949-1.307 3.949-1.5 0-2.785.584-4.452-.416-5-3z"/><g class="B"><path d="M28.5 83.5c-.791.901-1.791 1.568-3 2 .321-1.548 1.321-2.215 3-2zM25.5 85.5a31.52 31.52 0 0 0 4 14.5 13.91 13.91 0 0 0-3 4c-2.682.163-4.349 1.496-5 4a98.44 98.44 0 0 0 4 11.5c-.168 1.671-.835 3.004-2 4-.389-5.459-1.723-10.625-4-15.5l.5-2.5a47.18 47.18 0 0 0 6-4c.667-2 .667-4 0-6-2.971-3.384-3.137-6.717-.5-10zm161 4a33.39 33.39 0 0 1 9 2c2.838-1.602 5.838-2.102 9-1.5-7.002 1.308-7.669 3.975-2 8-1 .667-2 .667-3 0a13.92 13.92 0 0 0-3-4c-3.764-.852-7.097-2.352-10-4.5zm-95 1a7.11 7.11 0 0 1 5 1c-1.921 1.141-3.921 1.308-6 .5.556-.383.889-.883 1-1.5zm125 0a128.32 128.32 0 0 0-1 12c-1.398-1.277-2.064-2.943-2-5 .055-2.86 1.055-5.193 3-7z"/></g><path fill="#aad4d3" d="M69.5 91.5h4v3a9.86 9.86 0 0 1-6-1l2-2z"/><path d="M35.5 94.5c2.015-1.353 3.682-.853 5 1.5-1.995.613-3.662.113-5-1.5z" class="B"/><path fill="#e3f0f0" d="M104.5 98.5c-3.793.06-5.959-1.607-6.5-5 2.585 1.238 4.752 2.905 6.5 5z"/><path d="M104.5 98.5c4.383.539 5.05 2.372 2 5.5a200.097 200.097 0 0 1-14 1.5 170.966 170.966 0 0 1 14-4l-2-3zm-51 1c4.6-.155 4.933.512 1 2-2.221.061-2.554-.605-1-2z" class="B"/><path fill="#57a2a2" d="m124.5 99.5 1 4c-1.527-.073-2.527.594-3 2-1.604-.787-2.271-2.12-2-4 .787-1.604 2.12-2.271 4-2z"/><path d="M150.5 104.5c.343-1.725 1.343-2.225 3-1.5l-3 1.5zm-118-1c1.175-.219 2.175.114 3 1-2.265 1.147-4.598 1.314-7 .5 1.558-.21 2.892-.71 4-1.5zm9 0c4.637.108 4.97 1.108 1 3-.886-.825-1.219-1.825-1-3z" class="B"/><path fill="#cce5e4" d="M215.5 102.5a26.175 26.175 0 0 1 7 5c-3.263-.456-5.596-2.123-7-5z"/><path d="M92.5 105.5c-3.275 2.452-6.942 3.618-11 3.5a27.75 27.75 0 0 1 11-3.5zm17 1a20.673 20.673 0 0 0-3.5 4l-1-1c-1.129 1.641-2.629 2.641-4.5 3 1.785-1.677 2.451-3.511 2-5.5a32.444 32.444 0 0 0 6-1.5c.607.124.94.457 1 1z" class="B"/><path fill="#f4f9f9" d="M150.5 104.5c-.507 1.359-1.507 2.359-3 3a6.8 6.8 0 0 0 3 1.5c-4.914.1-9.58-.734-14-2.5 4.862.382 9.528-.284 14-2z"/><path d="M223.5 112.5c.067-1.459-.266-2.792-1-4 .617-.111 1.117-.444 1.5-1 1.608 2.196 1.441 3.862-.5 5zm-102-3c.897 1.098 1.73 1.098 2.5 0l3.5 9c-.624.417-.957 1.084-1 2a40.783 40.783 0 0 0 4 10c-1.517-.011-2.684-.677-3.5-2a124.692 124.692 0 0 1-5.5-19zm-60 13c.555-2.229 1.889-3.895 4-5-1.141-.925-1.141-1.759 0-2.5l6-1c2.072-2.707 4.739-3.707 8-3a357.483 357.483 0 0 0-18 11.5zm32-12c3.297-.171 3.631.495 1 2-.797-.457-1.131-1.124-1-2z" class="B"/><path fill="#1d8686" d="M121.5 109.5a124.692 124.692 0 0 0 5.5 19c.816 1.323 1.983 1.989 3.5 2a40.783 40.783 0 0 1-4-10c.043-.916.376-1.583 1-2 1.333 0 2 .667 2 2 .345 2.698 1.678 4.698 4 6a22.385 22.385 0 0 0 6 7c.891.61 1.891.943 3 1 .207 2.741 1.207 5.074 3 7v2c.432 1.21 1.099 2.21 2 3v1c-.073 1.527.594 2.527 2 3v1c.823 2.98 2.157 5.647 4 8 1.431 1.28 2.098 2.947 2 5 .25 2.174 1.25 3.841 3 5v1c.58 2.249 1.913 3.915 4 5v1c-2.13 1.464-3.463 3.464-4 6-1.25.077-2.083.744-2.5 2l-1 11c-2.432.95-4.932.95-7.5 0-2.804-1.138-5.804-1.305-9-.5-.556.383-.889.883-1 1.5-.728 1.791-1.728 2.458-3 2-1.474.936-2.474 2.27-3 4 .091 2.198-.575 2.531-2 1a5.727 5.727 0 0 0-3-1h-2c-1.293-.658-2.793-.992-4.5-1-1.986.069-3.486.735-4.5 2a14.555 14.555 0 0 0-5 4l-6 5c-1.022-.355-1.689-1.022-2-2a34.357 34.357 0 0 1-2.5-11c-.697-2.084-1.864-3.751-3.5-5h-2c-3.795-1.117-7.795-1.783-12-2 .845-5.02-.489-9.187-4-12.5a55.328 55.328 0 0 0-16 .5v-6c1.369-2.254 2.369-4.754 3-7.5-1.003-2.468-1.503-4.968-1.5-7.5 3.112-2.601 5.612-5.601 7.5-9h1c2.435-.77 3.769-2.437 4-5 1.243-1.664 2.91-2.831 5-3.5.752-.671 1.086-1.504 1-2.5v-1c1.653-.16 2.986-.826 4-2 0-.667.333-1 1-1 4.61-1.629 7.943-4.629 10-9l3-4a92.602 92.602 0 0 1 12-11h1a2.428 2.428 0 0 0 .5 2l3-3c.418 9.832-1.082 19.332-4.5 28.5a124.6 124.6 0 0 0-11 6l1.5 1.5a26.489 26.489 0 0 1 10-6l.5 1.5a60.986 60.986 0 0 0-4.5 20.5 6.978 6.978 0 0 1-3.5 2.5c.753 1.487 1.586 1.654 2.5.5.799 4.587.632 9.087-.5 13.5.949.617 1.782.451 2.5-.5l1-15c1.786-1.287 1.953-2.787.5-4.5a384.036 384.036 0 0 0 4.5-18.5 40.338 40.338 0 0 1 10 11c.11 3.268 1.61 5.601 4.5 7-.214-1.644.12-3.144 1-4.5a31.578 31.578 0 0 1-8.5-8.5 4.934 4.934 0 0 1-.5-3c-3.301-.536-5.301-2.536-6-6a119.356 119.356 0 0 0 2.5-19c.279-2.957 1.113-5.623 2.5-8z"/><g class="B"><path d="M131.5 110.5a4.934 4.934 0 0 1 3 .5c7.239 8.741 15.239 16.574 24 23.5a8.43 8.43 0 0 1-4-.5 70.588 70.588 0 0 0-10.5-9.5 4.934 4.934 0 0 0-.5 3l-12-17zm47 4c-1.716 1.471-3.716 2.471-6 3l5 8c-.617.111-1.117.444-1.5 1a43.09 43.09 0 0 0-11.5-10.5 133.182 133.182 0 0 1-12-5c6.167.328 11.667 2.495 16.5 6.5a22.14 22.14 0 0 1 9.5-3zM178.5 114.5a162.93 162.93 0 0 1 10.5-4 158.16 158.16 0 0 1 12 3c4.727-1.709 9.56-2.209 14.5-1.5a102.505 102.505 0 0 1-8 2.5c1.499 1.404 1.166 2.07-1 2-9.119-3.743-18.452-4.409-28-2z"/></g><path fill="#f3f9f8" d="M112.5 111.5a92.602 92.602 0 0 0-12 11c2.036-5.699 6.036-9.365 12-11z"/><g class="B"><path d="M223.5 112.5a50.362 50.362 0 0 0-6 10 30.947 30.947 0 0 1 2.5 6c2.005-.532 3.171.468 3.5 3-3.785-.856-6.285-3.19-7.5-7a19.67 19.67 0 0 1 2.5-10c2.014.108 3.68-.558 5-2zm-125 1c-.321 1.548-1.321 2.215-3 2 .473-1.406 1.473-2.073 3-2zm-50 5a151.32 151.32 0 0 0-12 3 20.987 20.987 0 0 0 3-4.5 3.94 3.94 0 0 0-1-2c2.086-.557 3.419.276 4 2.5a9.86 9.86 0 0 0 6 1zm10-3c5.813-.156 6.146.511 1 2-.797-.457-1.131-1.124-1-2zM48.5 118.5c2.295-1.885 4.962-2.385 8-1.5a18.99 18.99 0 0 1-8 1.5zm37-2c.876-.131 1.543.202 2 1l-6 8-1-1c1.202-3.096 2.869-5.763 5-8zm8 2a60.43 60.43 0 0 1-5.5 8 15.29 15.29 0 0 0-6.5 6.5 4.934 4.934 0 0 1-3 .5 159.14 159.14 0 0 1 15-15zm-57 3c-1.093 2.761-3.093 4.427-6 5 1.365-2.36 3.365-4.027 6-5z"/></g><path d="M129.5 120.5c1.826 1.647 3.16 3.647 4 6-2.322-1.302-3.655-3.302-4-6z" class="C"/><path d="M61.5 122.5a513.006 513.006 0 0 0-20.5 18c-2.067 3.365-3.4 7.032-4 11-.72 1.755-1.887 2.589-3.5 2.5a59.27 59.27 0 0 0 3.5-11.5c6.88-8.393 15.047-15.06 24.5-20zm39 0-3 4c-.412-2.473.588-3.806 3-4zm3 2c.876-.131 1.543.202 2 1-3.756 5.241-4.423 4.907-2-1z" class="B"/><path fill="#f6fafa" d="M177.5 125.5a70.898 70.898 0 0 0 17 8l6-3a13.116 13.116 0 0 1 7-1v3c-4.418-1.361-8.085-.195-11 3.5a314.996 314.996 0 0 0 6.5 15.5 48.33 48.33 0 0 0 2.5 12l-1 2a23.411 23.411 0 0 1-3-7l-2 2-1-1c2.639-4.391 2.472-8.724-.5-13-.956 2.903-2.789 4.403-5.5 4.5a56.863 56.863 0 0 0 5-7.5 31.412 31.412 0 0 1-3.5-7 115.984 115.984 0 0 0-15.5-8.5c-.752-.671-1.086-1.504-1-2.5z"/><path d="M30.5 126.5c-.95 2.568-.95 5.068 0 7.5a8.43 8.43 0 0 1-4 .5c.03-3.352 1.363-6.018 4-8z" class="B"/><path fill="#f4f9f9" d="M133.5 126.5c3.471 1.133 5.471 3.467 6 7a22.385 22.385 0 0 1-6-7z"/><path d="M68.5 134.5c1.476-2.999 3.809-4.499 7-4.5-1.712 2.519-4.045 4.019-7 4.5zm-52-4a5.576 5.576 0 0 1-1 3c1.326 1.142 2.326 2.476 3 4-1.208-.734-2.541-1.067-4-1-.475-2.582.192-4.582 2-6zm114 0c2.516 1.1 3.516 2.767 3 5-2.256-.921-3.256-2.588-3-5zm15 0c1.548.321 2.215 1.321 2 3-1.406-.473-2.073-1.473-2-3zm66 1c1.956-1.301 3.623-.801 5 1.5l-1.5 1.5a14.698 14.698 0 0 0-3.5-3zm-2 43a248.79 248.79 0 0 0 1.5-11c1.464-5.959 4.63-10.625 9.5-14l-2-5c1.244-4.813 3.244-9.146 6-13 1.199-.146 1.866.854 2 3-2.923 2.754-4.923 6.087-6 10l3 6c-2.92 1.389-5.42 3.389-7.5 6-.29 2.943-1.456 5.443-3.5 7.5.778 2.46.611 4.96-.5 7.5-.377 1.442-1.21 2.442-2.5 3z" class="B"/><path fill="#c7e2e2" d="M97.5 126.5c-2.057 4.371-5.39 7.371-10 9 2.988-3.476 6.321-6.476 10-9z"/><path d="M31.5 135.5c1.589-1.121 3.256-.954 5 .5-1.697.384-3.363.218-5-.5zm37-1c-1.552 2.612-3.885 3.945-7 4 1.84-2.169 4.174-3.502 7-4z" class="B"/><path fill="#fe7f7e" d="M142.5 134.5c1.793 1.926 2.793 4.259 3 7-1.793-1.926-2.793-4.259-3-7z"/><path fill="#f0f7f7" d="M148.5 134.5a78.133 78.133 0 0 0 10 7.5 18.473 18.473 0 0 1 2 3.5c-1.574-.437-2.741-1.437-3.5-3l-1 1c-3.112-2.601-5.612-5.601-7.5-9z"/><path d="M158.5 134.5c6.342 1.405 10.675 4.739 13 10l-3-1.5c-2.912-3.419-6.246-6.252-10-8.5zm-82 1c-.788 3.121-2.788 4.788-6 5a21.83 21.83 0 0 1 6-5zm10 1c-1.014 1.174-2.347 1.84-4 2 .845-2.262 2.178-2.929 4-2z" class="B"/><path fill="#f7fbfb" d="M18.5 137.5h4a68.64 68.64 0 0 0 4 10.5 46.57 46.57 0 0 0-1 11.5 125.05 125.05 0 0 1-2-11 10.31 10.31 0 0 1 1-3 86.72 86.72 0 0 1-6-8z"/><path d="M61.5 138.5c-1.817 2.342-4.15 3.509-7 3.5 2.027-1.879 4.36-3.046 7-3.5z" class="B"/><path fill="#edf5f5" d="M82.5 139.5c.086.996-.248 1.829-1 2.5-2.09.669-3.757 1.836-5 3.5a4.93 4.93 0 0 1 .5-3 40.918 40.918 0 0 0 5.5-3z"/><path d="M69.5 142.5c-.787 1.604-2.12 2.271-4 2 .787-1.604 2.12-2.271 4-2zm78 4c-.901-.79-1.568-1.79-2-3 .617-.111 1.117-.444 1.5-1a8.43 8.43 0 0 1 .5 4zm-8 1c.886-1.276 1.886-1.276 3 0-.925 1.062-1.925 1.062-3 0zm39-1a28.305 28.305 0 0 1 9 6c-.865 1.083-1.865 1.249-3 .5-2.568-1.731-4.568-3.898-6-6.5zm-117 1c-.742 1.85-1.742 2.516-3 2 .473-1.406 1.473-2.073 3-2z" class="B"/><path fill="#ddeded" d="M76.5 145.5c-.231 2.563-1.565 4.23-4 5 .238-2.569 1.571-4.235 4-5z"/><path d="M147.5 147.5c2.324.377 2.991 1.377 2 3-1.406-.473-2.073-1.473-2-3z" class="B"/><path fill="#cce5e4" d="M161.5 146.5c3.846.865 6.846 2.865 9 6-.617.111-1.117.444-1.5 1a50.105 50.105 0 0 0-7.5-7z"/><path d="M96.5 148.5c1.837.139 2.17.806 1 2-.797-.457-1.131-1.124-1-2zm-25 2c-1.888 3.399-4.388 6.399-7.5 9-.003 2.532.497 5.032 1.5 7.5-.631 2.746-1.631 5.246-3 7.5a108.932 108.932 0 0 1-.5-10 4.45 4.45 0 0 1-1.5-2c2.887-4.634 6.554-8.634 11-12zm22 1c.876-.131 1.543.202 2 1-2.417 2.934-3.084 6.1-2 9.5-5.68 2.19-9.013 6.357-10 12.5-2.975 1.517-3.642.851-2-2-.318-1.147-.984-1.981-2-2.5 6.279-3.426 9.945-8.593 11-15.5h3v-3zm56 0c2.337 2.007 3.671 4.673 4 8-1.843-2.353-3.177-5.02-4-8z" class="B"/><path fill="#cfe6e6" d="M170.5 152.5c3.564.564 5.897 2.564 7 6-2.124-.531-3.624-1.865-4.5-4-1.813 1.109-2.646.442-2.5-2z"/><path d="M190.5 153.5c2.776-.411 3.443.422 2 2.5 1.466 4.532 4.133 8.199 8 11-1.408.315-2.741-.018-4-1-4.024-3.213-6.024-7.38-6-12.5zm-46 1a44.537 44.537 0 0 0 6 4.5c-3.683.665-5.683-.835-6-4.5z" class="B"/><path fill="#d5e9e9" d="M32.5 161.5a2.428 2.428 0 0 1-.5 2c-.971-.698-2.137-.698-3.5 0-1.675-.368-2.675-1.368-3-3 .802-1.452 1.302-3.118 1.5-5 .495 1.973.662 3.973.5 6h5z"/><path fill="#f6fafa" d="M130.5 158.5c1.396 2.262 3.063 4.429 5 6.5 1.849-.947 3.849-1.613 6-2a4.457 4.457 0 0 0-2 1.5c2.421 2.845 5.421 4.679 9 5.5-4.575.454-8.741-.713-12.5-3.5l-1.5 1c1.02 1.932 1.187 3.932.5 6a32.065 32.065 0 0 1-2.5-4c-.758 1.311-1.758 1.811-3 1.5l3-4a24.12 24.12 0 0 1-2-8.5z"/><g class="B"><path d="M177.5 158.5c1.946.535 2.946 1.868 3 4-1.946-.535-2.946-1.868-3-4zM180.5 162.5l8 6a4.85 4.85 0 0 1-4-1c-2.111-1.105-3.445-2.771-4-5zm-68 1c2.861.737 3.861 2.404 3 5-1.452-1.44-2.452-3.106-3-5zm43 1c1.75 1.159 2.75 2.826 3 5-1.75-1.159-2.75-2.826-3-5z"/></g><path fill="#eff7f6" d="M102.5 166.5a4.934 4.934 0 0 1 3 .5c-4.6 3.282-7.1 7.782-7.5 13.5a16.25 16.25 0 0 1 0-8c2.102-1.595 3.602-3.595 4.5-6z"/><path d="M158.5 170.5c2.393.853 3.726 2.519 4 5-2.087-1.085-3.42-2.751-4-5zm40 0c1.952 1.285 3.618 2.951 5 5-2.644-.644-4.311-2.311-5-5z" class="C"/><path d="M150.5 173.5a31.283 31.283 0 0 1 5 2c-.774 1.211-1.607 1.211-2.5 0a6.8 6.8 0 0 1-1.5 3 7.11 7.11 0 0 1-1-5z" class="B"/><path fill="#fe7f7e" d="M162.5 179.5c1.125-1.152 1.125-2.152 0-3v-1c1.608-1.038 2.608-.371 3 2-.392 2.371-1.392 3.038-3 2z"/><path d="M209.5 174.5c.05 2.09-.95 3.423-3 4-1.713-.379-2.713-1.379-3-3a5.576 5.576 0 0 1 3 1l3-2z" class="B"/><path fill="#ebf4f4" d="M162.5 176.5c1.125.848 1.125 1.848 0 3l-4 3c.537-2.536 1.87-4.536 4-6z"/><path fill="#eaf4f4" d="M62.5 175.5v5a55.328 55.328 0 0 1 16-.5c3.511 3.313 4.845 7.48 4 12.5 4.205.217 8.205.883 12 2a257.86 257.86 0 0 1-12.5 0c-1.244-3.138-1.911-6.472-2-10a20.499 20.499 0 0 1-2.5-3.5 58.166 58.166 0 0 1-9-.5c-2.027 1.839-4.36 2.339-7 1.5-1.342-2.456-1.009-4.622 1-6.5z"/><path fill="#f0f7f7" d="M134.5 175.5a338.335 338.335 0 0 1 12 14.5c-1.049.492-2.049.326-3-.5-2.205-3.559-5.205-5.893-9-7v-7z"/><g class="B"><path d="M150.5 180.5c1.837.139 2.17.806 1 2-.798-.457-1.131-1.124-1-2zm-31 1c1.585.974 2.585 2.474 3 4.5a4.934 4.934 0 0 1-3 .5v-5zm39 1c-1.223 5.031-1.723 10.031-1.5 15-3.429 1.861-6.596 1.195-9.5-2 2.568.95 5.068.95 7.5 0l1-11c.417-1.256 1.25-1.923 2.5-2zm-26 1c2.385 1.367 2.052 2.701-1 4l-1-.5a18.473 18.473 0 0 0 2-3.5zm-9 3c2.597.033 3.597 1.033 3 3-1.713-.379-2.713-1.379-3-3zm1 5c2.062 1.005 2.896 2.671 2.5 5-1.372-1.41-2.205-3.077-2.5-5zm-12 3c1.837.139 2.17.806 1 2-.798-.457-1.131-1.124-1-2zM147.5 195.5a44.866 44.866 0 0 1-10 1c.111-.617.444-1.117 1-1.5 3.196-.805 6.196-.638 9 .5zm-43 2c1.149.291 1.816 1.124 2 2.5l-1 2.5a7.11 7.11 0 0 1-1-5zm30 1c-.054 2.132-1.054 3.465-3 4 .526-1.73 1.526-3.064 3-4z"/></g><path fill="#e8f3f3" d="M96.5 194.5c1.636 1.249 2.803 2.916 3.5 5a34.357 34.357 0 0 0 2.5 11c-.996.086-1.829-.248-2.5-1a20.431 20.431 0 0 0-1.5-5.5 3.647 3.647 0 0 0 1-1.5 18.8 18.8 0 0 1-3-8z"/><path fill="#e3f0f0" d="M124.5 202.5c-1.992.217-4.158.217-6.5 0-.342 2.119-1.175 2.453-2.5 1 1.014-1.265 2.514-1.931 4.5-2 1.707.008 3.207.342 4.5 1z"/><path d="M126.5 202.5a5.727 5.727 0 0 1 3 1c-1.447 1.385-2.447 1.052-3-1zm-11 1c-.629 2.497-2.296 3.83-5 4a14.555 14.555 0 0 1 5-4z" class="B"/></svg>