<?xml version="1.0" encoding="iso-8859-1"?>
<!-- Uploaded to: SVG Repo, www.svgrepo.com, Generator: SVG Repo Mixer Tools -->
<svg version="1.1" id="Layer_1" xmlns="http://www.w3.org/2000/svg" xmlns:xlink="http://www.w3.org/1999/xlink" 
	 viewBox="0 0 511.997 511.997" xml:space="preserve">
<path style="fill:#88888F;" d="M347.896,446.357c72.504,0,131.281-58.777,131.281-131.281v-91.897
	C479.177,99.921,379.257,0,255.999,0C132.741,0,32.82,99.921,32.82,223.178v91.897c0,72.504,58.776,131.281,131.281,131.281H347.896
	z"/>
<path style="fill:#797781;" d="M255.999,0v446.357h91.897c72.504,0,131.281-58.777,131.281-131.281v-91.897
	C479.177,99.921,379.257,0,255.999,0z"/>
<rect x="144.408" y="328.203" style="fill:#F8F8F9;" width="39.384" height="183.794"/>
<rect x="328.202" y="328.203" style="fill:#EDEDED;" width="39.384" height="183.794"/>
<path style="fill:#EBE4DD;" d="M190.358,210.05c-36.252,0-65.641,29.389-65.641,65.641v65.641h65.641
	c36.252,0,65.641-29.389,65.641-65.641S226.61,210.05,190.358,210.05z"/>
<path style="fill:#D8CCBC;" d="M321.639,210.05c-36.252,0-65.641,29.389-65.641,65.641s29.389,65.641,65.641,65.641h65.641v-65.641
	C387.28,239.439,357.891,210.05,321.639,210.05z"/>
<path style="fill:#454449;" d="M354.46,164.102h-0.004c-14.475,0-26.252-11.779-26.252-26.256
	c0.005-14.48,11.784-26.256,26.256-26.256c14.478,0,26.256,11.779,26.256,26.256S368.937,164.102,354.46,164.102z"/>
<g>
	<path style="fill:#58575D;" d="M157.538,164.102h-0.004c-14.475,0-26.252-11.779-26.252-26.256
		c0.005-14.48,11.784-26.256,26.256-26.256c14.478,0,26.256,11.779,26.256,26.256S172.015,164.102,157.538,164.102z"/>
	<path style="fill:#58575D;" d="M298.009,177.23c-6.9,20.938-25.39,44.023-42.01,44.374c-16.62-0.352-35.11-23.436-42.01-44.374
		c-3.188-10.698,5.052-19.552,18.379-19.692c15.754,0,31.508,0,47.261,0C292.958,157.678,301.196,166.53,298.009,177.23z"/>
</g>
<path style="fill:#454449;" d="M279.629,157.538c-7.877,0-15.754,0-23.631,0v64.067c16.62-0.352,35.11-23.436,42.01-44.374
	C301.196,166.53,292.958,157.678,279.629,157.538z"/>
</svg>