<svg xmlns="http://www.w3.org/2000/svg" width="1024" height="1024" shape-rendering="geometricPrecision" image-rendering="optimizeQuality" fill-rule="evenodd" xmlns:v="https://vecta.io/nano"><path fill="#090706" d="M1023.5 424.5v18c-4.78 16.894-12.28 32.561-22.5 47a698.46 698.46 0 0 1-50 59L856.5 642a112.02 112.02 0 0 1-18 12.5c-5.156 15.98-11.156 31.647-18 47 7.087 8.584 15.754 15.084 26 19.5a735.12 735.12 0 0 1 89 36 276.03 276.03 0 0 1 49 33c13.052 11.273 22.22 25.106 27.5 41.5 3.62 13.379 1.62 25.712-6 37-16.374 15.771-35.874 25.604-58.5 29.5-35.835 5.49-71.835 6.823-108 4l-147-12c-16.834-1.164-32.001-6.664-45.5-16.5-23.29 10.374-47.457 18.041-72.5 23a76.32 76.32 0 0 1-14 2 .91.91 0 0 1-1-.5c7.366-3.222 13.699-7.722 19-13.5 20.59-4.863 40.59-11.53 60-20-8.192-10.048-14.025-21.381-17.5-34a254.02 254.02 0 0 1-6-78 394.28 394.28 0 0 1 5-46c2.581-3.557 5.581-3.89 9-1l.5 5c-5.449 32.226-6.283 64.559-2.5 97 2.086 19.946 9.42 37.612 22 53 13.013 11.232 28.18 17.399 45.5 18.5l148 12a1155.67 1155.67 0 0 0 68 0c25.437-.419 49.437-6.419 72-18 22.01-12.947 26.18-30.447 12.5-52.5-2.664-4.157-5.497-8.157-8.5-12a40.36 40.36 0 0 0-13-13c-26.032-20.192-54.699-36.025-86-47.5a1570.54 1570.54 0 0 0-42-15c-37.737-16.448-54.57-45.281-50.5-86.5 3.393-25.514 11.56-49.347 24.5-71.5 4.286-2.192 7.286-1.025 9 3.5a229.07 229.07 0 0 0-23.5 67c-1.328 14.034.338 27.701 5 41 .583 1.502 1.416 2.835 2.5 4 28.215-65.824 34.715-133.824 19.5-204-18.157-75.365-56.824-137.699-116-187 3.513-59.962-13.987-112.628-52.5-158-5-7-11-13-18-18-64.003-52.23-135.337-65.063-214-38.5-23.633 9.562-44.966 22.395-64 38.5-4 2-7 5-9 9-4 2-7 5-9 9-38.33 45.32-55.996 97.987-53 158-90.589 77.925-131.089 176.925-121.5 297 3.52 32.754 12.02 64.087 25.5 94 4.355-8.078 6.855-16.745 7.5-26 .534-19.332-2.799-37.998-10-56-4.113-10.055-8.613-19.889-13.5-29.5 1.679-5.258 4.846-6.424 9.5-3.5 14.837 25.511 23.003 53.011 24.5 82.5-.149 31.979-14.149 55.645-42 71-25.903 9.412-51.57 19.412-77 30-21.518 9.914-41.518 22.081-60 36.5-5.667 3.667-10.333 8.333-14 14-6.934 8.534-11.767 18.201-14.5 29-2.204 11.056.963 20.223 9.5 27.5 14.323 10.669 30.323 17.669 48 21a281.46 281.46 0 0 0 31 4 1259.87 1259.87 0 0 0 71 0l151-12c32.528-1.551 53.694-17.718 63.5-48.5 5.276-20.146 7.776-40.646 7.5-61.5-.794-19.566-2.461-39.066-5-58.5-1.016-4.3.651-6.633 5-7 2.101.132 3.601 1.132 4.5 3 4.701 28.486 6.368 57.152 5 86-.615 21.127-5.615 41.127-15 60-2.639 4.139-5.472 8.139-8.5 12 11.854 5.28 23.854 9.947 36 14 3.024 5.691 7.357 10.024 13 13-.124.607-.457.94-1 1a51.57 51.57 0 0 1-7-1l-23-7.5c-8.62-2.789-17.453-6.289-26.5-10.5-13.499 9.836-28.666 15.336-45.5 16.5l-36 3c1.593.949 2.926 2.115 4 3.5-3.414-1.87-7.081-2.87-11-3-49.718 5.074-99.552 8.407-149.5 10-20.273-.137-40.44-1.637-60.5-4.5a140.69 140.69 0 0 1-50-18c-10.528-6.346-17.862-15.179-22-26.5v-19c5.547-18.233 15.547-33.733 30-46.5 18.31-15.165 38.31-27.832 60-38a1573.72 1573.72 0 0 1 83-33 98.28 98.28 0 0 0 19.5-15.5c-40.23-94.093-40.564-188.426-1-283 22.247-48.827 53.913-90.494 95-125-2.347-86.481 32.153-153.647 103.5-201.5 62.005-36.222 127.005-42.555 195-19 59.203 23.202 101.37 64.036 126.5 122.5 12.477 31.525 17.81 64.192 16 98 56.115 47.523 94.115 106.856 114 178a130.54 130.54 0 0 0 20.5-8.5c23.181-16.098 47.514-30.431 73-43a169.35 169.35 0 0 1 44-14c13.643-2.426 26.31-.093 38 7 3.01 3.154 5.34 6.654 7 10.5z" opacity=".952"/><path fill="#a17d6c" d="M645.5 123.5a229.51 229.51 0 0 0 18 18c38.513 45.372 56.013 98.038 52.5 158 59.176 49.301 97.843 111.635 116 187 15.215 70.176 8.715 138.176-19.5 204-1.084-1.165-1.917-2.498-2.5-4-4.662-13.299-6.328-26.966-5-41a229.07 229.07 0 0 1 23.5-67c-1.714-4.525-4.714-5.692-9-3.5-12.94 22.153-21.107 45.986-24.5 71.5-4.07 41.219 12.763 70.052 50.5 86.5l42 15c31.301 11.475 59.968 27.308 86 47.5a119.62 119.62 0 0 0 13 13c3.003 3.843 5.836 7.843 8.5 12 13.68 22.053 9.51 39.553-12.5 52.5-22.563 11.581-46.563 17.581-72 18a1155.67 1155.67 0 0 1-68 0l-148-12c-17.32-1.101-32.487-7.268-45.5-18.5-12.58-15.388-19.914-33.054-22-53-3.783-32.441-2.949-64.774 2.5-97l-.5-5c-3.419-2.89-6.419-2.557-9 1a394.28 394.28 0 0 0-5 46 254.02 254.02 0 0 0 6 78c3.475 12.619 9.308 23.952 17.5 34-19.41 8.47-39.41 15.137-60 20-4.173 1.37-8.506 2.37-13 3-17.457 3.723-35.124 5.39-53 5a260.74 260.74 0 0 1-31-2c-22.938-.878-45.271-4.878-67-12-12.146-4.053-24.146-8.72-36-14 3.028-3.861 5.861-7.861 8.5-12 9.385-18.873 14.385-38.873 15-60 1.368-28.848-.299-57.514-5-86-.899-1.868-2.399-2.868-4.5-3-4.349.367-6.016 2.7-5 7 2.539 19.434 4.206 38.934 5 58.5.276 20.854-2.224 41.354-7.5 61.5-9.806 30.782-30.972 46.949-63.5 48.5l-151 12a1259.87 1259.87 0 0 1-71 0 281.46 281.46 0 0 1-31-4c-17.677-3.331-33.677-10.331-48-21-8.537-7.277-11.704-16.444-9.5-27.5 2.733-10.799 7.566-20.466 14.5-29a138.73 138.73 0 0 0 14-14c18.482-14.419 38.482-26.586 60-36.5 25.43-10.588 51.097-20.588 77-30 27.851-15.355 41.851-39.021 42-71-1.497-29.489-9.663-56.989-24.5-82.5-4.654-2.924-7.821-1.758-9.5 3.5 4.887 9.611 9.387 19.445 13.5 29.5 7.201 18.002 10.534 36.668 10 56-.645 9.255-3.145 17.922-7.5 26-13.48-29.913-21.98-61.246-25.5-94-9.589-120.075 30.911-219.075 121.5-297-2.996-60.013 14.67-112.68 53-158a57.51 57.51 0 0 0 9-9 57.51 57.51 0 0 0 9-9c19.034-16.105 40.367-28.938 64-38.5 78.663-26.563 149.997-13.73 214 38.5z"/><path fill="#483932" d="M645.5 123.5c7 5 13 11 18 18a229.51 229.51 0 0 1-18-18z"/><path fill="#0d0b0a" d="M413.5 127.5c32.737-2.56 55.57 11.107 68.5 41 9.419 36.991-3.081 63.491-37.5 79.5-30.252 8.583-54.752.416-73.5-24.5-10.677-18.84-12.343-38.507-5-59 9.877-20.05 25.71-32.383 47.5-37z"/><path fill="#0c0a09" d="M579.5 127.5c27.782-2.356 49.282 7.977 64.5 31 9.198 19.03 9.865 38.363 2 58-17.634 30.22-43.468 40.72-77.5 31.5-34.424-16.019-46.924-42.519-37.5-79.5 9.051-22.228 25.218-35.894 48.5-41z"/><path fill="#4f3f38" d="M367.5 123.5a57.51 57.51 0 0 1-9 9c2-4 5-7 9-9z"/><path fill="#4d3e37" d="M358.5 132.5a57.51 57.51 0 0 1-9 9c2-4 5-7 9-9z"/><path d="M412.5 138.5c22.116-2.693 39.95 4.641 53.5 22 10.939 18.401 11.272 37.068 1 56-13.233 18.858-31.399 26.691-54.5 23.5-28.159-8.81-41.659-27.977-40.5-57.5 5.027-22.525 18.527-37.192 40.5-44zm166 0c30.995-3.266 51.495 9.734 61.5 39 4.195 30.791-8.305 51.291-37.5 61.5-27.81 4.845-47.977-5.321-60.5-30.5-8.962-34.499 3.205-57.832 36.5-70z" fill="#fcfcfc"/><path d="M433.5 182.5c19.833-1.015 27.333 7.985 22.5 27-7.515 9.641-16.682 11.475-27.5 5.5-6.942-6.221-8.775-13.721-5.5-22.5 2.738-4.24 6.238-7.574 10.5-10zm136 0c19.854-.995 27.354 8.005 22.5 27-7.515 9.641-16.682 11.475-27.5 5.5-10.602-12.761-8.935-23.594 5-32.5z" fill="#050505"/><path fill="#0e0c0a" d="M421.5 261.5l170 .5c33.23 5.18 57.397 22.68 72.5 52.5 30.743 16.293 48.243 41.793 52.5 76.5.239 5.754-2.428 7.754-8 6l-1.5-1.5c-2.747-27.011-14.914-48.511-36.5-64.5-.667-.667-1.333-.667-2 0 2.787 12.953 2.12 25.786-2 38.5 13.275 13.21 22.442 28.877 27.5 47a51.75 51.75 0 0 1 2 19c-3 2.667-6 2.667-9 0-1.989-20.471-9.822-38.305-23.5-53.5-.949-.617-1.782-.451-2.5.5-4.855 8.527-10.855 16.193-18 23-.667.667-.667 1.333 0 2 21.165 17.664 32.165 40.331 33 68-3 2.667-6 2.667-9 0-2.592-25.024-13.425-45.524-32.5-61.5-2.403-.63-4.237.203-5.5 2.5-6.586 33.346-14.586 66.346-24 99-4.773 16.537-11.439 32.204-20 47-8.498 9.608-16.498 9.275-24-1a108.37 108.37 0 0 1-5-13 384.36 384.36 0 0 1-8-47l-5-63c-17.623 14.242-37.123 17.409-58.5 9.5-5.261-2.545-10.094-5.712-14.5-9.5-1.593 32.52-4.926 64.853-10 97-1.653 10.293-4.986 19.96-10 29-4.598 5.145-10.098 6.312-16.5 3.5-6.804-7.102-11.97-15.268-15.5-24.5-14.791-41.38-26.125-83.713-34-127-1.263-2.297-3.097-3.13-5.5-2.5-19.077 15.981-29.911 36.481-32.5 61.5-3 2.667-6 2.667-9 0 1.002-28.003 12.169-51.003 33.5-69-7.124-7.287-13.29-15.287-18.5-24-.718-.951-1.551-1.117-2.5-.5-13.67 15.182-21.504 33.016-23.5 53.5-3 2.667-6 2.667-9 0 .108-18.325 5.441-34.992 16-50 4.864-5.242 9.364-10.742 13.5-16.5-4.146-12.544-4.813-25.211-2-38-.667-.667-1.333-.667-2 0-21.586 15.988-33.752 37.488-36.5 64.5-6.115 3.795-9.281 2.128-9.5-5 4.402-34.498 21.902-59.832 52.5-76 9.111-19.444 23.277-33.944 42.5-43.5 9.764-4.312 19.764-7.479 30-9.5z"/><path d="M424.5 270.5l164 .5c17.53 2.934 33.197 9.934 47 21a57.73 57.73 0 0 1 13 15.5l-1.5 1a97.57 97.57 0 0 0-35.5-3.5c-4.895 2.823-5.229 6.157-1 10 15.641-1.171 30.641 1.329 45 7.5 4.515 9.822 6.015 20.156 4.5 31a22.07 22.07 0 0 1-2.5 9c-19.954-13.323-41.954-19.156-66-17.5-4.835 2.677-5.168 5.844-1 9.5 19.2-.858 37.2 3.309 54 12.5 3.449 2.044 6.449 4.544 9 7.5-4.228 9.406-10.228 17.572-18 24.5l-2 .5c-10.124-5.562-20.79-9.729-32-12.5-10.677-2.426-21.344-2.759-32-1-2.799 3.339-2.466 6.339 1 9 18.967-1.454 36.633 2.546 53 12-18.504 11.086-38.504 15.086-60 12-14.3-2.321-27.3-7.655-39-16a395.85 395.85 0 0 0-18-15.5 578.27 578.27 0 0 1-22 18.5c-24.964 14.464-51.297 17.464-79 9-5.812-1.779-11.146-4.446-16-8 16.367-9.454 34.033-13.454 53-12 3.466-2.661 3.799-5.661 1-9-23.089-3.062-44.422 1.772-64 14.5-8.488-7.168-15.154-15.835-20-26 1.495-1.67 2.828-3.503 4-5.5 11.318-6.107 23.318-10.44 36-13a267.06 267.06 0 0 0 23-1.5c3.423-2.531 3.757-5.365 1-8.5-15.701-2.499-31.034-.832-46 5a578.54 578.54 0 0 0-23 11.5c-3.112-13.201-2.446-26.201 2-39 7.168-3.879 14.834-6.379 23-7.5l23-1c4.229-3.843 3.895-7.177-1-10-12.064-1.172-23.898-.006-35.5 3.5-1.543-1.077-1.543-2.411 0-4 15.241-18.758 34.741-30.091 58.5-34zm81 130c10.956 9.822 23.29 17.656 37 23.5-17.132 19.067-37.132 22.734-60 11-4.3-3.298-8.3-6.965-12-11 8.216-3.272 15.882-7.272 23-12a65.43 65.43 0 0 0 12-11.5z" fill="#8b7558"/><path fill="#a17d6c" d="M903.5 580.5c-7.611 5.943-14.611 12.609-21 20-13.027 13.195-26.527 25.861-40.5 38 5.167-25.848 8.001-52.014 8.5-78.5a349.31 349.31 0 0 0-8-74.5l1-2a103.25 103.25 0 0 0 20-7.5 1043.33 1043.33 0 0 1 64-39.5c15.371-7.513 31.371-13.346 48-17.5a58.33 58.33 0 0 1 26 0c9.97 3.439 13.47 10.272 10.5 20.5-4.75 17.162-12.415 32.829-23 47-26.491 32.999-54.991 64.333-85.5 94z"/><path d="M396.5 422.5c20.514 7.305 41.514 8.971 63 5-.846 33.171-3.679 66.171-8.5 99-1.351 7.405-3.018 14.738-5 22a29.51 29.51 0 0 1-6 11c-4.912-4.815-8.579-10.482-11-17-14.576-38.97-25.409-78.97-32.5-120zm218 0c1.149.291 1.816 1.124 2 2.5-7.487 40.117-18.32 79.284-32.5 117.5-2.421 6.518-6.088 12.185-11 17a29.51 29.51 0 0 1-6-11 291.6 291.6 0 0 1-8-42c-2.827-26.268-4.661-52.601-5.5-79 17.436 3.029 34.77 2.529 52-1.5 3.218-.9 6.218-2.067 9-3.5z" fill="#c5c5c5"/><path fill="#3f312b" d="M903.5 580.5c-6.389 7.391-13.389 14.057-21 20 6.389-7.391 13.389-14.057 21-20z"/><path fill="#493a33" d="M973.5 795.5a40.36 40.36 0 0 1 13 13 119.62 119.62 0 0 1-13-13z"/><path fill="#4d3e37" d="M39.5 795.5a138.73 138.73 0 0 1-14 14c3.667-5.667 8.333-10.333 14-14z"/><path fill="#131313" d="M414.5 878.5c21.729 7.122 44.062 11.122 67 12-1.109.79-2.442 1.29-4 1.5l1 1c-1.26 1.113-2.427 1.28-3.5.5-4.356 2.664-8.856 4.664-13.5 6-10.346-1.335-20.679-2.835-31-4.5-1.566-.608-2.9-1.442-4-2.5.543-.06.876-.393 1-1-5.643-2.976-9.976-7.309-13-13z" opacity=".974"/><path fill="#040404" d="M481.5 890.5a260.74 260.74 0 0 0 31 2c1.171.845 2.505 1.511 4 2 2.529 2.437 2.196 4.937-1 7.5 1.882.198 3.548.698 5 1.5h-9a189.64 189.64 0 0 1-11 2c-10.796-1.181-21.462-2.848-32-5-2.559.302-4.893-.032-7-1 4.644-1.336 9.144-3.336 13.5-6 1.073.78 2.24.613 3.5-.5l-1-1c1.558-.21 2.891-.71 4-1.5z" opacity=".833"/><path fill="#fdfdfd" d="M419.5 891.5a51.57 51.57 0 0 0 7 1c1.1 1.058 2.434 1.892 4 2.5 10.321 1.665 20.654 3.165 31 4.5 2.107.968 4.441 1.302 7 1 .107 1.879-.393 2.212-1.5 1a18.08 18.08 0 0 1-3.5 2c-4.675-.673-9.508-.673-14.5 0l-1-2-5 1c-.605-1.981-1.605-2.315-3-1a7.25 7.25 0 0 0-2.5-2c-2.463-.087-4.963-.087-7.5 0-1.709-2.616-3.876-3.616-6.5-3-2.111-1.105-3.445-2.771-4-5z" opacity=".01"/><path fill="#373737" d="M565.5 887.5c-4.825 4.412-10.492 7.246-17 8.5-9.657-.801-18.991-.635-28 .5-.793-.855-.46-1.689 1-2.5-1.697-.384-3.363-.218-5 .5-1.495-.489-2.829-1.155-4-2 17.876.39 35.543-1.277 53-5z"/><path d="M292.5 896.5c.739-.131 1.406.036 2 .5-.937.692-1.603.525-2-.5z" opacity=".039"/><path fill="#fbfbfb" d="M574.5 896.5c-.437 1.574-1.437 2.741-3 3.5-5.591 1.411-10.757 3.578-15.5 6.5-3.007 1.327-6.007 1.327-9 0-2.291 2.018-4.791 2.018-7.5 0a9.26 9.26 0 0 1-2.5 2c-1.15-.924-2.15-.924-3 0-1.154-2.457-2.488-2.457-4 0-1.333-1.333-2.667-1.333-4 0-.605-1.981-1.605-2.315-3-1-2.564-1.577-5.397-2.577-8.5-3-1.422 1.277-2.422.943-3-1h9c13.553-1.019 26.886-2.685 40-5a76.32 76.32 0 0 0 14-2z" opacity=".017"/><path d="M295.5 897.5c1.333.667 1.333.667 0 0z" opacity=".024"/><path d="M297.5 898.5c1.333.667 1.333.667 0 0z" opacity=".004"/><path fill="#202020" d="M578.5 884.5c-5.301 5.778-11.634 10.278-19 13.5a.91.91 0 0 0 1 .5c-13.114 2.315-26.447 3.981-40 5-1.452-.802-3.118-1.302-5-1.5 3.196-2.563 3.529-5.063 1-7.5 1.637-.718 3.303-.884 5-.5-1.46.811-1.793 1.645-1 2.5 9.009-1.135 18.343-1.301 28-.5 6.508-1.254 12.175-4.088 17-8.5 4.494-.63 8.827-1.63 13-3z" opacity=".996"/></svg>