<?xml version="1.0" encoding="UTF-8"?>
<!DOCTYPE svg PUBLIC "-//W3C//DTD SVG 1.1//EN" "http://www.w3.org/Graphics/SVG/1.1/DTD/svg11.dtd">
<svg xmlns="http://www.w3.org/2000/svg" version="1.1" width="200px" height="200px" style="shape-rendering:geometricPrecision; text-rendering:geometricPrecision; image-rendering:optimizeQuality; fill-rule:evenodd; clip-rule:evenodd" xmlns:xlink="http://www.w3.org/1999/xlink">
<g><path style="opacity:0.965" fill="#000000" d="M 90.5,16.5 C 134.893,14.7817 165.06,34.4484 181,75.5C 190.746,118.145 177.246,150.978 140.5,174C 107.072,189.529 75.7386,186.195 46.5,164C 17.3684,135.682 10.2017,102.515 25,64.5C 39.1617,37.8133 60.9951,21.8133 90.5,16.5 Z M 90.5,41.5 C 91.0431,41.56 91.3764,41.8933 91.5,42.5C 83.2834,48.7466 83.7834,54.08 93,58.5C 94.6268,58.3749 96.1268,57.8749 97.5,57C 103.327,51.1717 110.16,47.005 118,44.5C 118.925,45.0465 119.758,45.7132 120.5,46.5C 119.428,50.4024 117.095,53.2358 113.5,55C 109.05,57.2612 104.383,58.9278 99.5,60C 96.8976,60.8834 94.7309,62.3834 93,64.5C 80.9412,79.1167 76.6079,95.7834 80,114.5C 82.108,120.468 86.2747,123.968 92.5,125C 99.8333,125.333 107.167,125.667 114.5,126C 118.488,127.448 120.988,130.281 122,134.5C 124.653,144.926 122.153,153.759 114.5,161C 109.697,163.2 104.697,163.867 99.5,163C 95.3564,159.785 95.523,156.951 100,154.5C 104.713,156.246 109.546,156.746 114.5,156C 120.054,152.006 121.554,146.839 119,140.5C 117.786,138.951 116.286,137.785 114.5,137C 105.479,136.607 96.479,135.94 87.5,135C 80.1907,131.013 76.024,124.846 75,116.5C 72.6962,95.2441 78.8629,76.9108 93.5,61.5C 90.997,60.0357 88.3303,58.869 85.5,58C 80.372,50.3309 82.0387,44.8309 90.5,41.5 Z"/></g>
</svg>
