<?xml version="1.0" encoding="iso-8859-1"?>
<!-- Generator: Adobe Illustrator 19.0.0, SVG Export Plug-In . SVG Version: 6.00 Build 0)  -->
<svg version="1.1" id="Layer_1" xmlns="http://www.w3.org/2000/svg" xmlns:xlink="http://www.w3.org/1999/xlink" x="0px" y="0px"
	 viewBox="0 0 512 512" style="enable-background:new 0 0 512 512;" xml:space="preserve">
<path style="fill:#A9A8AE;" d="M124.106,372.364v-256c0-12.853,10.42-23.273,23.273-23.273h139.636c0.118,0,0.233,0.016,0.352,0.019
	c0.549,0.008,1.094,0.036,1.638,0.082c0.205,0.017,0.411,0.031,0.613,0.054c0.661,0.074,1.32,0.169,1.972,0.301
	c0.202,0.04,0.399,0.096,0.599,0.141c0.459,0.104,0.915,0.22,1.37,0.352c0.272,0.079,0.54,0.164,0.807,0.254
	c0.402,0.133,0.797,0.281,1.192,0.436c0.236,0.093,0.476,0.18,0.707,0.281c0.588,0.254,1.165,0.531,1.73,0.835
	c0.169,0.09,0.33,0.192,0.495,0.287c0.43,0.244,0.855,0.498,1.269,0.771c0.192,0.127,0.383,0.258,0.571,0.389
	c0.394,0.275,0.779,0.563,1.154,0.863c0.161,0.129,0.324,0.253,0.483,0.385c0.509,0.428,1.008,0.874,1.485,1.35
	c0.009,0.008,0.017,0.014,0.025,0.022l37.843,37.843l23.273,23.271l23.273,23.273V23.273C387.865,10.42,377.445,0,364.592,0H54.289
	C41.436,0,31.016,10.42,31.016,23.273v372.364c0,12.853,10.42,23.273,23.273,23.273h69.818v-23.273v-23.273H124.106z"/>
<path style="fill:#E0E0E2;" d="M147.378,512h310.303c12.853,0,23.273-10.42,23.273-23.273V287.631
	c-0.321,12.572-10.591,22.672-23.242,22.672c-0.014,0-0.02,0-0.031,0h-23.273H287.015c-12.674,0-22.962-10.138-23.245-22.744
	c-0.005-0.177-0.028-0.351-0.028-0.529V139.636v-23.273c0-9.413,5.669-17.9,14.367-21.501c2.994-1.24,6.142-1.801,9.258-1.753
	c-0.118-0.003-0.234-0.019-0.352-0.019H147.378c-12.853,0-23.273,10.42-23.273,23.273v256v23.273v23.273v69.818
	C124.106,501.58,134.526,512,147.378,512z"/>
<path style="fill:#D6D5D8;" d="M303.476,99.911c-0.008-0.006-0.016-0.014-0.025-0.022c0.006,0.006,0.014,0.011,0.02,0.017
	L303.476,99.911z"/>
<path style="fill:#C6C5CA;" d="M341.318,137.754l-37.841-37.843l-0.005-0.003c-0.006-0.006-0.014-0.011-0.02-0.017
	c-0.476-0.476-0.976-0.922-1.485-1.35c-0.158-0.132-0.321-0.256-0.483-0.385c-0.375-0.299-0.76-0.588-1.154-0.863
	c-0.188-0.132-0.379-0.264-0.571-0.389c-0.416-0.273-0.839-0.528-1.269-0.771c-0.164-0.095-0.326-0.195-0.495-0.287
	c-0.565-0.303-1.142-0.58-1.73-0.835c-0.231-0.101-0.472-0.188-0.707-0.281c-0.394-0.155-0.79-0.303-1.192-0.436
	c-0.268-0.088-0.537-0.174-0.807-0.254c-0.455-0.132-0.911-0.248-1.37-0.352c-0.2-0.045-0.397-0.101-0.599-0.141
	c-0.652-0.13-1.311-0.227-1.972-0.301c-0.203-0.023-0.41-0.036-0.613-0.054c-0.545-0.047-1.089-0.074-1.638-0.082
	c-3.115-0.048-6.263,0.514-9.258,1.753c-8.696,3.603-14.367,12.088-14.367,21.501v23.273V287.03c0,0.178,0.023,0.352,0.028,0.529
	c0.282,12.606,10.57,22.744,23.245,22.744h147.394h23.273c0.011,0,0.017,0,0.031,0c12.651,0,22.921-10.1,23.242-22.672
	c0.006-0.202,0.031-0.397,0.031-0.6c0-5.598-1.997-10.716-5.291-14.732c-0.031-0.037-0.059-0.074-0.09-0.112
	c-0.431-0.52-0.887-1.018-1.362-1.499c-0.064-0.064-0.124-0.129-0.189-0.192c-0.208-0.205-0.4-0.427-0.614-0.624l-85.574-85.574
	l-23.273-23.273L341.318,137.754z"/>
<path style="fill:#77757F;" d="M54.288,0C41.435,0,31.015,10.42,31.015,23.273v372.364c0,12.853,10.42,23.273,23.273,23.273h69.818
	v-23.273v-23.273v-256c0-12.853,10.42-23.273,23.273-23.273h62.076V0H54.288z"/>
<g>
</g>
<g>
</g>
<g>
</g>
<g>
</g>
<g>
</g>
<g>
</g>
<g>
</g>
<g>
</g>
<g>
</g>
<g>
</g>
<g>
</g>
<g>
</g>
<g>
</g>
<g>
</g>
<g>
</g>
</svg>
