<?xml version="1.0" encoding="iso-8859-1"?>
<!-- Generator: Adobe Illustrator 19.0.0, SVG Export Plug-In . SVG Version: 6.00 Build 0)  -->
<svg version="1.1" id="Layer_1" xmlns="http://www.w3.org/2000/svg" xmlns:xlink="http://www.w3.org/1999/xlink" x="0px" y="0px"
	 viewBox="0 0 512.001 512.001" style="enable-background:new 0 0 512.001 512.001;" xml:space="preserve">
<path style="fill:#F0C838;" d="M503.577,408.087L313.838,218.347c9.903-26.738,12.558-55.513,7.656-83.909
	c-5.702-33.032-21.286-63.059-45.064-86.837c-63.153-63.153-165.911-63.153-229.064,0c-63.154,63.154-63.153,165.912,0,229.065
	c25.12,25.12,56.95,40.983,92.048,45.875c28.014,3.906,56.909,0.297,83.034-10.17l18.355,40.599l53.235,24.068l24.068,53.234
	l53.239,24.074l25.964,57.417l114.692-1.116L503.577,408.087z M101.658,185.942c-23.171-23.171-23.172-60.875,0-84.047
	s60.876-23.172,84.048-0.001c23.172,23.172,23.171,60.876,0,84.048S124.831,209.115,101.658,185.942z"/>
<path style="fill:#E79C25;" d="M185.706,185.942L185.706,185.942c-23.172,23.172-60.876,23.172-84.048,0
	c-23.171-23.171-23.172-60.875,0-84.047l0,0L47.365,47.601c-63.154,63.154-63.153,165.912,0,229.065
	c25.12,25.12,56.95,40.983,92.048,45.875c28.014,3.906,56.909,0.297,83.034-10.17l18.355,40.599l53.235,24.068l24.068,53.234
	l53.239,24.074l25.964,57.417l113.119-1.103L185.706,185.942z"/>
<g>
</g>
<g>
</g>
<g>
</g>
<g>
</g>
<g>
</g>
<g>
</g>
<g>
</g>
<g>
</g>
<g>
</g>
<g>
</g>
<g>
</g>
<g>
</g>
<g>
</g>
<g>
</g>
<g>
</g>
</svg>
