<?xml version="1.0" encoding="iso-8859-1"?>
<!-- Generator: Adobe Illustrator 19.0.0, SVG Export Plug-In . SVG Version: 6.00 Build 0)  -->
<svg version="1.1" id="Layer_1" xmlns="http://www.w3.org/2000/svg" xmlns:xlink="http://www.w3.org/1999/xlink" x="0px" y="0px"
	 viewBox="0 0 512 512" style="enable-background:new 0 0 512 512;" xml:space="preserve">
<g>
	<path style="fill:#57565C;" d="M178.409,418.909H333.56c12.853,0,23.273-10.42,23.273-23.273s-10.42-23.273-23.273-23.273H178.409
		c-12.853,0-23.273,10.42-23.273,23.273S165.556,418.909,178.409,418.909z"/>
	<path style="fill:#57565C;" d="M178.409,325.818H333.56c12.853,0,23.273-10.42,23.273-23.273s-10.42-23.273-23.273-23.273H178.409
		c-12.853,0-23.273,10.42-23.273,23.273S165.556,325.818,178.409,325.818z"/>
</g>
<path style="fill:#E0E0E2;" d="M46.53,23.273v465.455C46.53,501.58,56.95,512,69.803,512h372.364
	c12.853,0,23.273-10.42,23.273-23.273V179.02c-0.321,12.573-10.591,22.672-23.242,22.672c-0.011,0-0.022,0-0.031,0h-23.273H287.015
	c-12.853,0-23.273-10.42-23.273-23.273V46.545V23.273c0-9.413,5.669-17.898,14.367-21.501c2.991-1.238,6.136-1.801,9.249-1.753
	C287.243,0.016,287.13,0,287.015,0H69.803C56.95,0,46.53,10.42,46.53,23.273z M178.409,279.273H333.56
	c12.853,0,23.273,10.42,23.273,23.273s-10.42,23.273-23.273,23.273H178.409c-12.853,0-23.273-10.42-23.273-23.273
	S165.556,279.273,178.409,279.273z M178.409,372.364H333.56c12.853,0,23.273,10.42,23.273,23.273s-10.42,23.273-23.273,23.273
	H178.409c-12.853,0-23.273-10.42-23.273-23.273S165.556,372.364,178.409,372.364z"/>
<path style="fill:#C6C5CA;" d="M263.742,23.273v23.273V178.42c0,12.853,10.42,23.273,23.273,23.273h131.879h23.273
	c0.009,0,0.02,0,0.031,0c12.651,0,22.921-10.1,23.242-22.672c0.006-0.202,0.031-0.397,0.031-0.6c0-4.822-1.488-9.286-4-13.002
	c-0.003-0.005-0.006-0.009-0.009-0.014c-0.396-0.586-0.821-1.153-1.269-1.699c-0.036-0.045-0.073-0.092-0.109-0.137
	c-0.424-0.512-0.874-1.001-1.339-1.474c-0.073-0.073-0.144-0.147-0.219-0.22c-0.203-0.2-0.391-0.419-0.604-0.613L303.472,6.816
	c-0.483-0.484-0.99-0.936-1.508-1.368c-0.155-0.13-0.315-0.253-0.475-0.379c-0.377-0.301-0.763-0.59-1.159-0.867
	c-0.189-0.132-0.379-0.264-0.571-0.389c-0.414-0.272-0.836-0.526-1.268-0.77c-0.166-0.095-0.329-0.199-0.496-0.289
	c-0.563-0.301-1.14-0.579-1.73-0.833c-0.233-0.101-0.473-0.189-0.711-0.282c-0.391-0.154-0.787-0.299-1.187-0.434
	c-0.27-0.09-0.54-0.175-0.811-0.256c-0.448-0.132-0.906-0.247-1.367-0.352c-0.2-0.045-0.397-0.101-0.599-0.141
	c-0.649-0.13-1.308-0.228-1.975-0.301c-0.202-0.023-0.403-0.036-0.605-0.053c-0.548-0.047-1.097-0.076-1.652-0.084
	c-3.112-0.047-6.257,0.515-9.249,1.753C269.413,5.374,263.742,13.86,263.742,23.273z"/>
<g>
</g>
<g>
</g>
<g>
</g>
<g>
</g>
<g>
</g>
<g>
</g>
<g>
</g>
<g>
</g>
<g>
</g>
<g>
</g>
<g>
</g>
<g>
</g>
<g>
</g>
<g>
</g>
<g>
</g>
</svg>
