<?xml version="1.0" encoding="iso-8859-1"?>
<!-- Generator: Adobe Illustrator 19.0.0, SVG Export Plug-In . SVG Version: 6.00 Build 0)  -->
<svg version="1.1" id="Layer_1" xmlns="http://www.w3.org/2000/svg" xmlns:xlink="http://www.w3.org/1999/xlink" x="0px" y="0px"
	 viewBox="0 0 352.508 352.508" style="enable-background:new 0 0 352.508 352.508;" xml:space="preserve">
<g>
	<g>
		<polygon style="fill:#E8E8E8;" points="352.508,318.021 93.331,318.021 93.331,2.989 279.992,2.989 352.508,75.505 		"/>
		<polygon style="fill:#CCCED0;" points="279.992,75.505 352.508,75.505 279.992,2.989 		"/>
	</g>
	<g>
		<polygon style="fill:#DCDDDE;" points="259.177,349.518 0,349.518 0,34.487 186.661,34.487 259.177,107.003 		"/>
		<rect x="25.752" y="96.003" style="fill:#4C5B6B;" width="144" height="11"/>
		<g>
			<rect x="25.752" y="143.005" style="fill:#A4A9AD;" width="207.673" height="11"/>
			<rect x="25.752" y="169.003" style="fill:#A4A9AD;" width="176" height="11"/>
			<rect x="25.752" y="195.001" style="fill:#A4A9AD;" width="207.673" height="11"/>
			<rect x="25.752" y="220.999" style="fill:#A4A9AD;" width="176" height="11"/>
			<rect x="25.752" y="246.997" style="fill:#A4A9AD;" width="207.673" height="11"/>
			<rect x="25.752" y="272.995" style="fill:#A4A9AD;" width="176" height="11"/>
			<rect x="25.752" y="298.993" style="fill:#A4A9AD;" width="207.673" height="11"/>
		</g>
		<polygon style="fill:#C6C8CB;" points="186.661,107.003 259.177,107.003 186.661,34.487 		"/>
	</g>
</g>
<g>
</g>
<g>
</g>
<g>
</g>
<g>
</g>
<g>
</g>
<g>
</g>
<g>
</g>
<g>
</g>
<g>
</g>
<g>
</g>
<g>
</g>
<g>
</g>
<g>
</g>
<g>
</g>
<g>
</g>
</svg>
