<?xml version="1.0" encoding="iso-8859-1"?>
<!-- Generator: Adobe Illustrator 19.0.0, SVG Export Plug-In . SVG Version: 6.00 Build 0)  -->
<svg version="1.1" id="Layer_1" xmlns="http://www.w3.org/2000/svg" xmlns:xlink="http://www.w3.org/1999/xlink" x="0px" y="0px"
	 viewBox="0 0 512 512" style="enable-background:new 0 0 512 512;" xml:space="preserve">
<path style="fill:#424EDE;" d="M488.727,316.509h-69.818l-23.273-0.002h-23.273l-91.209-0.002l18.454-18.452
	c9.089-9.087,9.089-23.823,0-32.912c-9.087-9.09-23.824-9.087-32.912,0l-58.182,58.18c-0.023,0.022-0.04,0.047-0.062,0.068
	c-0.514,0.517-1.002,1.055-1.462,1.614c-0.144,0.175-0.268,0.365-0.408,0.545c-0.326,0.422-0.655,0.842-0.951,1.286
	c-0.107,0.161-0.197,0.334-0.301,0.496c-0.304,0.481-0.608,0.962-0.874,1.462c-0.064,0.119-0.115,0.247-0.177,0.368
	c-0.285,0.555-0.56,1.117-0.801,1.693c-0.037,0.09-0.064,0.183-0.099,0.273c-0.245,0.614-0.476,1.235-0.669,1.87
	c-0.029,0.09-0.045,0.186-0.073,0.276c-0.185,0.635-0.352,1.275-0.483,1.925c-0.042,0.203-0.061,0.416-0.098,0.621
	c-0.095,0.543-0.188,1.086-0.242,1.637c-0.076,0.765-0.118,1.539-0.118,2.324s0.042,1.559,0.118,2.324
	c0.056,0.565,0.152,1.12,0.248,1.676c0.033,0.192,0.051,0.389,0.09,0.58c0.133,0.666,0.304,1.32,0.495,1.967
	c0.022,0.076,0.036,0.157,0.059,0.233c0.199,0.653,0.434,1.296,0.69,1.93c0.028,0.068,0.048,0.141,0.078,0.209
	c0.247,0.597,0.531,1.179,0.827,1.753c0.053,0.101,0.096,0.206,0.149,0.307c0.282,0.527,0.6,1.036,0.925,1.542
	c0.087,0.137,0.161,0.281,0.251,0.414c0.318,0.478,0.673,0.934,1.027,1.389c0.113,0.144,0.214,0.299,0.33,0.442
	c0.486,0.588,0.995,1.153,1.533,1.691l58.177,58.18c4.544,4.546,10.499,6.817,16.455,6.817s11.913-2.273,16.455-6.817
	c9.089-9.087,9.089-23.824,0-32.912l-18.454-18.455l91.21,0.003h23.273l23.273,0.002h69.818c12.851,0,23.273-10.42,23.273-23.273
	S501.58,316.509,488.727,316.509z"/>
<path style="fill:#E0E0E2;" d="M372.364,363.053l-91.209-0.002l18.454,18.455c9.089,9.089,9.089,23.824,0,32.912
	c-4.544,4.544-10.501,6.817-16.455,6.817c-5.956,0-11.913-2.271-16.455-6.817l-58.177-58.18l-0.005-0.003
	c-0.54-0.54-1.049-1.103-1.528-1.687c-0.116-0.143-0.217-0.298-0.33-0.442c-0.355-0.455-0.709-0.911-1.027-1.389
	c-0.092-0.133-0.164-0.278-0.251-0.414c-0.324-0.506-0.642-1.015-0.925-1.542c-0.053-0.099-0.095-0.206-0.149-0.307
	c-0.296-0.576-0.58-1.157-0.827-1.753c-0.029-0.068-0.05-0.141-0.078-0.209c-0.256-0.635-0.492-1.275-0.69-1.93
	c-0.023-0.076-0.037-0.157-0.059-0.233c-0.191-0.649-0.362-1.303-0.495-1.967c-0.037-0.191-0.056-0.389-0.09-0.58
	c-0.098-0.555-0.192-1.111-0.248-1.676c-0.076-0.765-0.118-1.539-0.118-2.324c0-0.785,0.042-1.559,0.118-2.324
	c0.054-0.551,0.149-1.094,0.242-1.637c0.036-0.206,0.054-0.417,0.098-0.621c0.13-0.65,0.296-1.291,0.483-1.925
	c0.028-0.09,0.043-0.186,0.073-0.276c0.192-0.633,0.422-1.255,0.669-1.87c0.036-0.09,0.062-0.183,0.099-0.273
	c0.239-0.576,0.515-1.136,0.801-1.693c0.062-0.121,0.113-0.248,0.177-0.368c0.267-0.5,0.569-0.981,0.874-1.462
	c0.104-0.163,0.194-0.337,0.301-0.496c0.296-0.442,0.625-0.864,0.951-1.286c0.14-0.178,0.264-0.369,0.408-0.545
	c0.459-0.559,0.948-1.097,1.462-1.614c0.022-0.022,0.039-0.047,0.062-0.068l58.182-58.18c9.087-9.087,23.824-9.09,32.912,0
	c9.089,9.089,9.089,23.823,0,32.912l-18.454,18.452l91.207-0.002h23.273l23.273,0.002V194.54
	c-0.321,12.572-10.591,22.672-23.243,22.672c-0.011,0-0.02,0-0.029,0h-23.273H224.97c-12.853,0-23.273-10.42-23.273-23.273V46.545
	V23.273c0-9.413,5.669-17.9,14.367-21.501c2.998-1.241,6.149-1.803,9.269-1.753C225.209,0.017,225.091,0,224.97,0H23.273
	C10.42,0,0,10.42,0,23.273v465.455C0,501.58,10.42,512,23.273,512h372.364c12.853,0,23.273-10.42,23.273-23.273V363.055
	l-23.273-0.002H372.364z"/>
<g>
	<path style="fill:#D6D5D8;" d="M208.517,356.24c-0.54-0.538-1.049-1.102-1.533-1.691c0.481,0.583,0.99,1.148,1.528,1.687
		L208.517,356.24z"/>
	<polygon style="fill:#D6D5D8;" points="241.43,6.82 241.406,6.799 241.425,6.817 	"/>
</g>
<path style="fill:#C6C5CA;" d="M201.697,23.273v23.273v147.394c0,12.853,10.42,23.273,23.273,23.273h147.394h23.273
	c0.011,0,0.02,0,0.029,0c12.651,0,22.922-10.1,23.243-22.672c0.006-0.202,0.031-0.397,0.031-0.6c0-5.598-1.997-10.716-5.291-14.732
	c-0.031-0.037-0.059-0.074-0.09-0.112c-0.431-0.521-0.887-1.018-1.362-1.499c-0.064-0.064-0.124-0.129-0.189-0.191
	c-0.208-0.205-0.4-0.427-0.614-0.624L241.43,6.82l-0.005-0.003c-0.006-0.006-0.014-0.011-0.02-0.017
	c-0.473-0.472-0.97-0.917-1.482-1.347c-0.161-0.137-0.329-0.262-0.493-0.394c-0.369-0.293-0.748-0.579-1.136-0.849
	c-0.194-0.137-0.391-0.273-0.59-0.403c-0.402-0.264-0.815-0.51-1.235-0.749c-0.175-0.099-0.349-0.209-0.529-0.306
	c-0.557-0.298-1.131-0.573-1.713-0.825c-0.245-0.106-0.493-0.197-0.743-0.295c-0.379-0.149-0.76-0.292-1.15-0.42
	c-0.278-0.093-0.555-0.182-0.838-0.264c-0.433-0.127-0.874-0.237-1.319-0.338c-0.216-0.05-0.427-0.11-0.645-0.154
	c-0.641-0.127-1.294-0.225-1.953-0.298c-0.211-0.023-0.422-0.037-0.635-0.056c-0.534-0.045-1.071-0.073-1.614-0.082
	c-3.12-0.05-6.271,0.512-9.269,1.753C207.366,5.373,201.697,13.86,201.697,23.273z"/>
<g>
</g>
<g>
</g>
<g>
</g>
<g>
</g>
<g>
</g>
<g>
</g>
<g>
</g>
<g>
</g>
<g>
</g>
<g>
</g>
<g>
</g>
<g>
</g>
<g>
</g>
<g>
</g>
<g>
</g>
</svg>
