<?xml version="1.0" encoding="iso-8859-1"?>
<!-- Generator: Adobe Illustrator 19.0.0, SVG Export Plug-In . SVG Version: 6.00 Build 0)  -->
<svg version="1.1" id="Layer_1" xmlns="http://www.w3.org/2000/svg" xmlns:xlink="http://www.w3.org/1999/xlink" x="0px" y="0px"
	 viewBox="0 0 352.8 352.8" style="enable-background:new 0 0 352.8 352.8;" xml:space="preserve">
<path style="fill:#FFE53C;" d="M130.4,165.2L15.2,280.8c-4.4,4.4-7.2,10.8-7.2,16.8v46.8h46.8c6.4,0,12.4-2.4,16.8-7.2L92.8,316
	l5.6-22.8l22.8-5.6l11.2-11.2l2.8-14l14-2.8l37.2-37.2"/>
<path style="fill:#F2CB2C;" d="M153.6,199.6l-118,117.6c-10,10-2.8,27.2,11.2,27.2h8c6.4,0,12.4-2.4,16.8-7.2L92.8,316l5.6-22.8
	l22.8-5.6l11.2-11.2l2.8-14l14-2.8l37.2-37.2"/>
<path style="fill:#C39215;" d="M54.8,352.4H8c-4.4,0-8-3.6-8-8v-46.8c0-8,3.6-16.4,9.6-22.4l115.2-115.6c3.2-3.2,8-3.2,11.2,0
	s3.2,8,0,11.2L20.8,286.4c-2.8,2.8-4.8,7.2-4.8,11.2v38.8h38.8c3.2,0,7.6-0.8,10.8-4.8l20-20l5.2-20.8c0.8-2.8,2.8-5.2,6-6l20.8-5.2
	l8-8L128,260c0.8-3.2,3.2-5.6,6.4-6.4l11.6-2.4l35.6-35.6c3.2-3.2,8-3.2,11.2,0s3.2,8,0,11.2L155.6,264c-1.2,1.2-2.4,2-4,2l-8.8,1.6
	l-1.6,8.8c-0.4,1.6-1.2,2.8-2,4L128,291.6c-1.2,1.2-2.4,1.6-3.6,2l-18,4.4l-4.4,18c-0.4,1.6-1.2,2.8-2,3.6l-21.2,21.2
	C71.6,348.8,63.6,352.4,54.8,352.4z"/>
<path style="fill:#939598;" d="M232.8,8.4c-62,0-112,50-112,112s50,112,112,112s112-50,112-112S294.8,8.4,232.8,8.4z M256,120
	c-13.2,0-24-10.8-24-24s10.8-24,24-24s24,10.8,24,24S269.2,120,256,120z"/>
<path style="fill:#6D6E71;" d="M232.8,240.4c-66,0-120-54-120-120s54-120,120-120s120,54,120,120S298.8,240.4,232.8,240.4z
	 M232.8,16.4c-57.2,0-104,46.8-104,104s46.8,104,104,104s104-46.8,104-104S290,16.4,232.8,16.4z M256,128c-17.6,0-32-14.4-32-32
	s14.4-32,32-32s32,14.4,32,32S273.6,128,256,128z M256,80c-8.8,0-16,7.2-16,16s7.2,16,16,16s16-7.2,16-16S264.8,80,256,80z"/>
<path style="fill:#BCBEC0;" d="M240,201.2c-4,0-7.6-3.2-8-7.2c-0.4-4.4,2.8-8.4,7.2-8.8c13.6-1.6,25.6-7.2,35.2-16.8
	c4.4-4.4,7.2-8,9.6-12c2-4,6.8-5.2,10.8-3.2S300,160,298,164c-2.8,5.6-6.8,10.4-12,16c-12.4,12.4-27.6,19.6-44.8,21.6
	C240.4,201.2,240.4,201.2,240,201.2z"/>
<g>
</g>
<g>
</g>
<g>
</g>
<g>
</g>
<g>
</g>
<g>
</g>
<g>
</g>
<g>
</g>
<g>
</g>
<g>
</g>
<g>
</g>
<g>
</g>
<g>
</g>
<g>
</g>
<g>
</g>
</svg>
