<?xml version="1.0" ?><svg width="512px" height="512px" viewBox="0 0 512 512" id="Layer_1" style="enable-background:new 0 0 512 512;" version="1.1" xml:space="preserve" xmlns="http://www.w3.org/2000/svg" xmlns:xlink="http://www.w3.org/1999/xlink"><style type="text/css">
	.st0{fill:#2B79C2;}
	.st1{fill:#3B4652;}
	.st2{fill:#333333;}
</style><g><path class="st1" d="M256,263.6c-15.8,0-31.1-2.8-45.6-8.3L210,466.5l34.1,25.5l34.1-25.5v-33l-15.6-15.6l15.6-15.6V378l-17.9-17.9   l17.4-17.4h0.6v-33.6l23.7-26.6v-27.3C287.4,260.8,271.9,263.6,256,263.6z"/><path class="st0" d="M256,20c-62.8,0-113.8,51-113.8,113.8c0,41.6,22.3,78,55.6,97.8c4,2.4,8.1,4.5,12.3,6.3   c14,6.2,29.6,9.6,45.9,9.6c16.3,0,31.7-3.4,45.7-9.6c4.2-1.9,8.3-4,12.3-6.3c33.4-19.8,55.8-56.3,55.8-97.9   C369.8,71,318.9,20,256,20z M256,72.9c19.5,0,35.2,15.8,35.2,35.2c0,19.5-15.8,35.2-35.2,35.2c-19.5,0-35.2-15.8-35.2-35.2   C220.8,88.6,236.5,72.9,256,72.9z"/><g><path class="st1" d="M382.2,245.3h33.4c4.4,0,8-3.6,8-8V97.5h12.6c3.4,10.6,13.4,18.3,25.1,18.3c14.5,0,26.3-11.8,26.3-26.3    s-11.8-26.3-26.3-26.3c-11.7,0-21.7,7.7-25.1,18.3h-20.6c-4.4,0-8,3.6-8,8v139.8h-25.4c-4.4,0-8,3.6-8,8S377.8,245.3,382.2,245.3z    "/><path class="st1" d="M461.3,273.3c-11.7,0-21.7,7.7-25.1,18.3h-17.9c-4.4,0-8,3.6-8,8v35.1H372c-4.4,0-8,3.6-8,8s3.6,8,8,8h46.3    c4.4,0,8-3.6,8-8v-35.1h9.9c3.4,10.6,13.4,18.3,25.1,18.3c14.5,0,26.3-11.8,26.3-26.3S475.8,273.3,461.3,273.3z"/><path class="st1" d="M461.3,433.2c-11.7,0-21.7,7.7-25.1,18.3h-8V419c0-4.4-3.6-8-8-8h-34.2c-4.4,0-8,3.6-8,8s3.6,8,8,8h26.2v32.5    c0,4.4,3.6,8,8,8h16c3.4,10.6,13.4,18.3,25.1,18.3c14.5,0,26.3-11.8,26.3-26.3C487.7,445,475.8,433.2,461.3,433.2z"/><path class="st1" d="M50.7,115.9c11.7,0,21.7-7.7,25.1-18.3h12.6v139.8c0,4.4,3.6,8,8,8h33.4c4.4,0,8-3.6,8-8s-3.6-8-8-8h-25.4    V89.5c0-4.4-3.6-8-8-8H75.8c-3.4-10.6-13.4-18.3-25.1-18.3c-14.5,0-26.3,11.8-26.3,26.3S36.2,115.9,50.7,115.9z"/><path class="st1" d="M140,334.7h-38.3v-35.1c0-4.4-3.6-8-8-8H75.8c-3.4-10.6-13.4-18.3-25.1-18.3c-14.5,0-26.3,11.8-26.3,26.3    S36.2,326,50.7,326c11.7,0,21.7-7.7,25.1-18.3h9.9v35.1c0,4.4,3.6,8,8,8H140c4.4,0,8-3.6,8-8S144.4,334.7,140,334.7z"/><path class="st1" d="M125.9,411H91.7c-4.4,0-8,3.6-8,8v32.5h-8c-3.4-10.6-13.4-18.3-25.1-18.3c-14.5,0-26.3,11.8-26.3,26.3    c0,14.5,11.8,26.3,26.3,26.3c11.7,0,21.7-7.7,25.1-18.3h16c4.4,0,8-3.6,8-8V427h26.2c4.4,0,8-3.6,8-8S130.4,411,125.9,411z"/></g></g></svg>