<?xml version="1.0" encoding="iso-8859-1"?>
<!-- Generator: Adobe Illustrator 16.0.0, SVG Export Plug-In . SVG Version: 6.00 Build 0)  -->
<!DOCTYPE svg PUBLIC "-//W3C//DTD SVG 1.1//EN" "http://www.w3.org/Graphics/SVG/1.1/DTD/svg11.dtd">
<svg version="1.1" id="Capa_1" xmlns="http://www.w3.org/2000/svg" xmlns:xlink="http://www.w3.org/1999/xlink" x="0px" y="0px"
	 width="397.129px" height="397.129px" viewBox="0 0 397.129 397.129" style="enable-background:new 0 0 397.129 397.129;"
	 xml:space="preserve">
<g>
	<path d="M318.303,163.141h-18.242V85c0-46.869-38.133-85-85-85h-32.993c-46.869,0-85,38.131-85,85v43.828c0,5.523,4.478,10,10,10
		h30c5.522,0,10-4.477,10-10V85c0-19.299,15.7-35,35-35h32.993c19.299,0,35,15.701,35,35v78.141h-84.897h-18.095h-50H78.825
		c-9.314,0-16.866,7.551-16.866,16.865v200.258c0,9.312,7.552,16.865,16.866,16.865h239.479c9.314,0,16.865-7.553,16.865-16.865
		V180.006C335.17,170.692,327.619,163.141,318.303,163.141z"/>
</g>
<g>
</g>
<g>
</g>
<g>
</g>
<g>
</g>
<g>
</g>
<g>
</g>
<g>
</g>
<g>
</g>
<g>
</g>
<g>
</g>
<g>
</g>
<g>
</g>
<g>
</g>
<g>
</g>
<g>
</g>
</svg>
